<svg xmlns="http://www.w3.org/2000/svg" viewBox="0 0 94.29 109.91"><defs><style>.cls-1{fill:#dcf1f9;}.cls-2{fill:#b3b3b3;}.cls-3{fill:#3a4653;}</style></defs><g id="Layer_2" data-name="Layer 2"><g id="Layer_1-2" data-name="Layer 1"><path class="cls-1" d="M29.77,80.88a23.06,23.06,0,1,1,20-25.74A23.07,23.07,0,0,1,29.77,80.88Z"/><path class="cls-2" d="M81.58,30.17l-.33,9.42a3.11,3.11,0,0,1-1,2.16,2.93,2.93,0,0,1-2.22.84l-7.62-.26a23.63,23.63,0,0,1-1.51,3.25L74,51.23a3.11,3.11,0,0,1-.22,4.38l-7,6.31a3.17,3.17,0,0,1-2.08.78,3.11,3.11,0,0,1-2.32-1L57.3,56a18,18,0,0,1-2.28.86.75.75,0,1,1-.44-1.43,17.87,17.87,0,0,0,2.57-1,.72.72,0,0,1,.89.17l5.46,6.07a1.64,1.64,0,0,0,2.29.12l7-6.3a1.59,1.59,0,0,0,.11-2.26l-5.43-6a.74.74,0,0,1-.1-.87,22.58,22.58,0,0,0,1.85-4,.79.79,0,0,1,.74-.51l8.16.29a1.52,1.52,0,0,0,1.14-.44,1.59,1.59,0,0,0,.51-1.12l.33-9.42A1.56,1.56,0,0,0,79.66,29a1.63,1.63,0,0,0-1.12-.51l-8.14-.28a.75.75,0,0,1-.7-.55,19.84,19.84,0,0,0-1.58-4.09.75.75,0,0,1,.14-.89L74.14,17a1.6,1.6,0,0,0,.48-1.12,1.57,1.57,0,0,0-.45-1.13L67.63,8a1.58,1.58,0,0,0-1.13-.5,1.67,1.67,0,0,0-1.13.44l-5.86,5.65a.74.74,0,0,1-.87.13A23.09,23.09,0,0,0,54.58,12a.73.73,0,0,1-.53-.71V3.1a1.6,1.6,0,0,0-1.6-1.6H43a1.6,1.6,0,0,0-1.6,1.6v8.15a.74.74,0,0,1-.53.71,16.38,16.38,0,0,0-2.57,1,.75.75,0,0,1-.89-.17L32,6.74a1.64,1.64,0,0,0-2.29-.13l-7,6.3a1.61,1.61,0,0,0-.52,1.1,1.6,1.6,0,0,0,.41,1.16l5.44,6a.74.74,0,0,1,.09.88,22.88,22.88,0,0,0-1.85,4,.72.72,0,0,1-.73.51l-8.17-.28a1.61,1.61,0,0,0-1.65,1.56l-.33,9.41a1.6,1.6,0,0,0,1.54,1.65l8.14.28a.75.75,0,0,1,.7.56,20.59,20.59,0,0,0,1.59,4.08.76.76,0,0,1-.14.89l-5.89,5.67a1.55,1.55,0,0,0-.47,1.12,1.58,1.58,0,0,0,.44,1.14l6.55,6.78a1.59,1.59,0,0,0,2.25,0L36,53.85a.76.76,0,0,1,.87-.12,23.78,23.78,0,0,0,4.06,1.71.75.75,0,0,1-.44,1.43,23.21,23.21,0,0,1-3.84-1.57l-5.47,5.28a3.15,3.15,0,0,1-2.21.86,3.06,3.06,0,0,1-2.18-.95l-6.54-6.78a3.13,3.13,0,0,1,.07-4.38L25.78,44a20.07,20.07,0,0,1-1.3-3.35l-7.6-.26a3.09,3.09,0,0,1-3-3.2l.32-9.42a3.07,3.07,0,0,1,3.21-3l7.62.26a24.78,24.78,0,0,1,1.5-3.25l-5.07-5.65a3.08,3.08,0,0,1,.22-4.37l7-6.31a3.15,3.15,0,0,1,4.4.24l5.09,5.66a18.76,18.76,0,0,1,1.75-.69V3.1A3.1,3.1,0,0,1,43,0h9.42a3.1,3.1,0,0,1,3.1,3.1v7.6a24.46,24.46,0,0,1,3.3,1.4l5.48-5.28A3,3,0,0,1,66.53,6a3.08,3.08,0,0,1,2.18,1l6.54,6.77a3.11,3.11,0,0,1-.06,4.38L69.7,23.36A21.35,21.35,0,0,1,71,26.71l7.6.26a3.11,3.11,0,0,1,3,3.2Z"/><path class="cls-3" d="M49,109.91a147.88,147.88,0,0,1-47.54-7.76.77.77,0,0,1-.46-.52c-3.56-14.24,3.4-21.4,3.7-21.69,3.55-3.56,27.2-13.72,28.2-14.15a.76.76,0,0,1,1,.4.75.75,0,0,1-.4,1C25.08,70.78,8.45,78.31,5.77,81c-.07.06-6.52,6.77-3.4,19.88,4.39,1.58,47.23,16.13,89.63,0,.48-2.23,2.59-13.8-3.3-19.81L60.84,67.15a.74.74,0,0,1-.33-1,.75.75,0,0,1,1-.34l28,14a.66.66,0,0,1,.2.14c7.21,7.21,3.84,21.1,3.69,21.69a.77.77,0,0,1-.46.52A122.26,122.26,0,0,1,49,109.91Zm6.24-33.58a7.11,7.11,0,1,0-7.11,7.11A7.12,7.12,0,0,0,55.25,76.33Zm-1.5,0a5.61,5.61,0,1,1-5.61-5.6A5.61,5.61,0,0,1,53.75,76.33Zm-5.07,29.14,9.53-9.53a.74.74,0,0,0,.13-.89L51.13,81.88a.75.75,0,0,0-1.32.72l6.94,12.67-8.61,8.61-8.62-8.62L45.64,83a.76.76,0,0,0-.34-1,.75.75,0,0,0-1,.34L37.94,95.07a.74.74,0,0,0,.14.87l9.53,9.53a.76.76,0,0,0,1.07,0ZM58.44,32A10.71,10.71,0,1,0,47.74,42.7,10.71,10.71,0,0,0,58.44,32Zm-1.5,0a9.21,9.21,0,1,1-9.2-9.2A9.22,9.22,0,0,1,56.94,32Z"/></g></g></svg>