<?xml version="1.0" encoding="UTF-8"?>
<svg width="458px" height="177px" viewBox="0 0 458 177" version="1.1" xmlns="http://www.w3.org/2000/svg" xmlns:xlink="http://www.w3.org/1999/xlink">
    <title>Group 35</title>
    <defs>
        <rect id="path-1" x="0" y="0" width="458" height="176" rx="7"></rect>
        <filter id="filter-3">
            <feColorMatrix in="SourceGraphic" type="matrix" values="0 0 0 0 0.882353 0 0 0 0 0.898039 0 0 0 0 0.960784 0 0 0 1.000000 0"></feColorMatrix>
        </filter>
        <polygon id="path-4" points="0.00178823529 0.639822813 75.5529412 0.639822813 75.5529412 91.9991034 0.00178823529 91.9991034"></polygon>
        <filter id="filter-6">
            <feColorMatrix in="SourceGraphic" type="matrix" values="0 0 0 0 0.882353 0 0 0 0 0.898039 0 0 0 0 0.960784 0 0 0 1.000000 0"></feColorMatrix>
        </filter>
        <path d="M15.2111261,8.16925581 C15.2111261,8.16925581 0.400540541,20.4446512 0,36.1395349 L0,36.1395349 L94.4702252,36.1395349 C94.4702252,36.1395349 86.8642342,10.7850698 78.0574775,7.36386047 L78.0574775,7.36386047 C78.0574775,7.36386047 64.3552252,0.175534884 46.1734234,0.173813672 L46.1734234,0.173813672 C36.6409009,0.172953488 25.8810811,2.14772093 15.2111261,8.16925581" id="path-7"></path>
        <linearGradient x1="0%" y1="50.0005475%" x2="99.9992989%" y2="50.0005475%" id="linearGradient-9">
            <stop stop-color="#FFA100" offset="0%"></stop>
            <stop stop-color="#FFB800" offset="100%"></stop>
        </linearGradient>
        <filter x="-9.3%" y="-13.1%" width="118.6%" height="126.2%" filterUnits="objectBoundingBox" id="filter-10">
            <feOffset dx="0" dy="0" in="SourceAlpha" result="shadowOffsetOuter1"></feOffset>
            <feGaussianBlur stdDeviation="2" in="shadowOffsetOuter1" result="shadowBlurOuter1"></feGaussianBlur>
            <feColorMatrix values="0 0 0 0 0.874804662   0 0 0 0 0.910454867   0 0 0 0 0.946105072  0 0 0 1 0" type="matrix" in="shadowBlurOuter1" result="shadowMatrixOuter1"></feColorMatrix>
            <feMerge>
                <feMergeNode in="shadowMatrixOuter1"></feMergeNode>
                <feMergeNode in="SourceGraphic"></feMergeNode>
            </feMerge>
        </filter>
        <filter id="filter-11">
            <feColorMatrix in="SourceGraphic" type="matrix" values="0 0 0 0 1.000000 0 0 0 0 0.752941 0 0 0 0 0.000000 0 0 0 1.000000 0"></feColorMatrix>
        </filter>
        <polygon id="path-12" points="0.0003 0.0004 20 0.0004 20 20 0.0003 20"></polygon>
        <filter x="-6.5%" y="-22.9%" width="113.0%" height="145.7%" filterUnits="objectBoundingBox" id="filter-14">
            <feOffset dx="0" dy="0" in="SourceAlpha" result="shadowOffsetOuter1"></feOffset>
            <feGaussianBlur stdDeviation="2" in="shadowOffsetOuter1" result="shadowBlurOuter1"></feGaussianBlur>
            <feColorMatrix values="0 0 0 0 0.874804662   0 0 0 0 0.910454867   0 0 0 0 0.946105072  0 0 0 1 0" type="matrix" in="shadowBlurOuter1" result="shadowMatrixOuter1"></feColorMatrix>
            <feMerge>
                <feMergeNode in="shadowMatrixOuter1"></feMergeNode>
                <feMergeNode in="SourceGraphic"></feMergeNode>
            </feMerge>
        </filter>
        <ellipse id="path-15" cx="18.2867647" cy="7.00438601" rx="5.53676475" ry="5.50438601"></ellipse>
        <filter x="-58.7%" y="-50.0%" width="217.4%" height="218.1%" filterUnits="objectBoundingBox" id="filter-16">
            <feOffset dx="0" dy="1" in="SourceAlpha" result="shadowOffsetOuter1"></feOffset>
            <feGaussianBlur stdDeviation="2" in="shadowOffsetOuter1" result="shadowBlurOuter1"></feGaussianBlur>
            <feColorMatrix values="0 0 0 0 0   0 0 0 0 0   0 0 0 0 0  0 0 0 0.256963315 0" type="matrix" in="shadowBlurOuter1"></feColorMatrix>
        </filter>
        <rect id="path-17" x="0" y="0" width="95" height="61" rx="4"></rect>
        <filter x="-6.3%" y="-9.8%" width="112.6%" height="119.7%" filterUnits="objectBoundingBox" id="filter-18">
            <feOffset dx="0" dy="0" in="SourceAlpha" result="shadowOffsetOuter1"></feOffset>
            <feGaussianBlur stdDeviation="2" in="shadowOffsetOuter1" result="shadowBlurOuter1"></feGaussianBlur>
            <feColorMatrix values="0 0 0 0 0.874804662   0 0 0 0 0.910454867   0 0 0 0 0.946105072  0 0 0 1 0" type="matrix" in="shadowBlurOuter1"></feColorMatrix>
        </filter>
        <filter id="filter-19">
            <feColorMatrix in="SourceGraphic" type="matrix" values="0 0 0 0 0.254902 0 0 0 0 0.513725 0 0 0 0 1.000000 0 0 0 1.000000 0"></feColorMatrix>
        </filter>
        <polygon id="path-20" points="0.00015 0.00025 7.951 0.00025 7.951 10 0.00015 10"></polygon>
        <filter x="-7.1%" y="-18.6%" width="114.2%" height="137.2%" filterUnits="objectBoundingBox" id="filter-22">
            <feOffset dx="0" dy="0" in="SourceAlpha" result="shadowOffsetOuter1"></feOffset>
            <feGaussianBlur stdDeviation="2" in="shadowOffsetOuter1" result="shadowBlurOuter1"></feGaussianBlur>
            <feColorMatrix values="0 0 0 0 0.874804662   0 0 0 0 0.910454867   0 0 0 0 0.946105072  0 0 0 1 0" type="matrix" in="shadowBlurOuter1" result="shadowMatrixOuter1"></feColorMatrix>
            <feMerge>
                <feMergeNode in="shadowMatrixOuter1"></feMergeNode>
                <feMergeNode in="SourceGraphic"></feMergeNode>
            </feMerge>
        </filter>
        <filter id="filter-23">
            <feColorMatrix in="SourceGraphic" type="matrix" values="0 0 0 0 1.000000 0 0 0 0 0.262745 0 0 0 0 0.356863 0 0 0 1.000000 0"></feColorMatrix>
        </filter>
        <polygon id="path-24" points="0.000275838684 0.0002 17 0.0002 17 20.0002 0.000275838684 20.0002"></polygon>
    </defs>
    <g id="Page-1" stroke="none" stroke-width="1" fill="none" fill-rule="evenodd">
        <g id="5.0-Settings-Home-opt4-Copy-17" transform="translate(-254.000000, -240.000000)">
            <g id="Group-35" transform="translate(254.000000, 240.000000)">
                <rect id="Rectangle" fill="#F0F4F8" x="0" y="0" width="458" height="176" rx="7"></rect>
                <g id="Group-5">
                    <mask id="mask-2" fill="white">
                        <use xlink:href="#path-1"></use>
                    </mask>
                    <use id="Mask" fill="#F1F3FD" xlink:href="#path-1"></use>
                    <g filter="url(#filter-3)" id="Group-6" opacity="0.255952381">
                        <g mask="url(#mask-2)">
                            <g transform="translate(-11.000000, -9.000000)">
                                <g id="Group-3" stroke-width="1" fill="none">
                                    <mask id="mask-5" fill="white">
                                        <use xlink:href="#path-4"></use>
                                    </mask>
                                    <g id="Clip-2"></g>
                                    <path d="M68.8488471,49.6363127 C68.8488471,57.1719584 66.1217882,64.5103592 61.1594353,70.3066649 C58.8839059,72.9694689 55.6829647,75.4529595 52.3032,77.1474711 L37.7782588,84.8400159 L23.1817882,77.1116084 C19.8735529,75.4529595 16.6681412,72.9694689 14.3926118,70.3066649 C9.43472941,64.5103592 6.70767059,57.1719584 6.70767059,49.6363127 L6.70767059,19.1530348 C6.70767059,18.3954357 7.09214118,17.9830148 7.58837647,17.844047 L37.4072,7.39904142 L67.7356706,17.7678388 C68.4777882,18.1937081 68.8488471,18.875099 68.8488471,19.1530348 L68.8488471,49.6363127 Z M70.5655529,11.6577347 C70.4314353,11.594975 70.2973176,11.541181 70.1587294,11.4918698 L40.6126118,1.34721417 C38.7752,0.428233001 36.3208471,0.432715836 34.8813176,1.18134928 L5.67496471,11.4111787 C2.33096471,12.2405032 0.00178823529,15.4277989 0.00178823529,19.1530348 L0.00178823529,49.6363127 C0.00178823529,58.7768133 3.30555294,67.6707579 9.30508235,74.6863947 C12.1752,78.0530038 16.0422588,81.0475375 20.1194353,83.0917103 L36.2090824,91.6090968 C36.7053176,91.8691012 37.2417882,91.9991034 37.7782588,91.9991034 C38.3147294,91.9991034 38.8512,91.8691012 39.3429647,91.6090968 L55.3655529,83.127573 C59.5097882,81.0475375 63.3768471,78.0530038 66.2514353,74.6863947 C72.2509647,67.6707579 75.5547294,58.7768133 75.5547294,49.6363127 L75.5547294,19.1530348 C75.5547294,16.158501 73.5519059,13.1505187 70.5655529,11.6577347 L70.5655529,11.6577347 Z" id="Fill-1" fill="#000000" mask="url(#mask-5)"></path>
                                </g>
                                <path d="M48.3869068,34.0174111 L33.6173389,49.6153536 L27.6130932,43.2770979 C26.3245908,41.9205538 24.2428268,41.9205538 22.9630898,43.2770979 C21.6789701,44.633642 21.6789701,46.8328177 22.9630898,48.1893618 L31.2945285,56.9814344 C31.934397,57.6573916 32.775868,58 33.6173389,58 C34.4588098,58 35.3002808,57.6573916 35.9401493,56.9814344 L53.0369102,38.9296749 C54.3210299,37.5731308 54.3210299,35.3739552 53.0369102,34.0174111 C51.7571732,32.6654968 49.6754092,32.6562371 48.3869068,34.0174111" id="Fill-4" fill="#000000"></path>
                            </g>
                        </g>
                    </g>
                    <g filter="url(#filter-6)" opacity="0.255952381">
                        <g mask="url(#mask-2)">
                            <g transform="translate(440.467379, 24.842148) rotate(-25.000000) translate(-440.467379, -24.842148) translate(404.967379, -10.657852)" fill="#000000">
                                <path d="M65.6660073,50.1467649 C65.6660073,59.7064664 60.0975073,65.6442773 51.1410073,65.6442773 L20.6910073,65.6442773 C12.0040073,65.6442773 6.16600733,59.4174117 6.16600733,50.1467649 L6.16600733,21.589551 C6.16600733,12.0298495 11.7345073,6.09203852 20.6910073,6.09203852 L51.1410073,6.09203852 C60.2340073,6.09203852 65.6660073,11.8870634 65.6660073,21.589551 L65.6660073,50.1467649 Z M51.1410073,0.868157925 L20.6910073,0.868157925 C8.86450733,0.868157925 0.916007335,9.1950236 0.916007335,21.589551 L0.916007335,50.1467649 C0.916007335,62.3462674 9.04650733,70.8681579 20.6910073,70.8681579 L51.1410073,70.8681579 C62.9675073,70.8681579 70.9160073,62.5412923 70.9160073,50.1467649 L70.9160073,21.589551 C70.9160073,9.00348131 63.1530073,0.868157925 51.1410073,0.868157925 L51.1410073,0.868157925 Z" id="Fill-1"></path>
                                <path d="M25.4656239,39.0788196 C23.279149,39.0788196 21.6860432,37.4384423 21.6860432,35.1731593 C21.6860432,32.9112725 23.279149,31.2674989 25.4656239,31.2674989 C27.4794823,31.2674989 29.2416085,33.0912725 29.2416085,35.1731593 C29.2416085,37.2550461 27.4794823,39.0788196 25.4656239,39.0788196 M54.5946477,32.6259895 L34.2007348,32.6259895 C33.0427662,28.9478762 29.5328987,26.1731593 25.4656239,26.1731593 C20.3194964,26.1731593 16.2917795,30.1263668 16.2917795,35.1731593 C16.2917795,40.2199517 20.3194964,44.1731593 25.4656239,44.1731593 C29.5328987,44.1731593 33.0427662,41.3984423 34.2007348,37.7203291 L41.8282237,37.7203291 L41.8282237,41.6259895 C41.8282237,43.0320272 43.0365387,44.1731593 44.5253555,44.1731593 C46.0141723,44.1731593 47.2224873,43.0320272 47.2224873,41.6259895 L47.2224873,37.7203291 L51.8975158,37.7203291 L51.8975158,41.6259895 C51.8975158,43.0320272 53.1058309,44.1731593 54.5946477,44.1731593 C56.0834644,44.1731593 57.2917795,43.0320272 57.2917795,41.6259895 L57.2917795,35.1731593 C57.2917795,33.7671215 56.0834644,32.6259895 54.5946477,32.6259895" id="Fill-3"></path>
                            </g>
                        </g>
                    </g>
                    <circle id="Oval" stroke="#E1E5F5" stroke-width="4" opacity="0.513044085" mask="url(#mask-2)" cx="229" cy="185" r="71"></circle>
                    <circle id="Oval" stroke="#E1E5F5" stroke-width="4" opacity="0.513044085" mask="url(#mask-2)" cx="229" cy="185" r="102"></circle>
                    <circle id="Oval" stroke="#E1E5F5" stroke-width="4" opacity="0.513044085" mask="url(#mask-2)" cx="229" cy="185" r="139"></circle>
                </g>
                <g id="Group-9" transform="translate(182.000000, 74.000000)">
                    <g id="Group-3" transform="translate(0.000000, 66.000000)">
                        <mask id="mask-8" fill="white">
                            <use xlink:href="#path-7"></use>
                        </mask>
                        <g id="Clip-2"></g>
                        <path d="M15.2111261,8.16925581 C15.2111261,8.16925581 0.400540541,20.4446512 0,36.1395349 L0,36.1395349 L94.4702252,36.1395349 C94.4702252,36.1395349 86.8642342,10.7850698 78.0574775,7.36386047 L78.0574775,7.36386047 C78.0574775,7.36386047 64.3552252,0.175534884 46.1734234,0.173813672 L46.1734234,0.173813672 C36.6409009,0.172953488 25.8810811,2.14772093 15.2111261,8.16925581" id="Fill-1" fill="url(#linearGradient-9)" mask="url(#mask-8)"></path>
                    </g>
                    <g id="Group-8" transform="translate(20.000000, 0.000000)">
                        <path d="M49.0814571,25.1054571 L48.1480286,42.6854571 C48.1480286,42.6854571 46.2897429,57.0426 37.3317429,61.1054571 C37.3317429,61.1054571 33.7643143,62.0654571 34.2811714,66.4197429 C34.2811714,66.4197429 34.4894571,70.6368857 36.9228857,73.9711714 C36.9228857,73.9711714 40.5983143,79.5931714 32.9560286,82.0111714 C32.9560286,82.0111714 30.1814571,82.8854571 27.4146,83.2703143 C27.3391714,83.2797429 27.2731714,83.2968857 27.1977429,83.2968857 C27.1223143,83.2968857 27.0477429,83.2797429 26.9731714,83.2703143 C24.1977429,82.8854571 21.4308857,82.0111714 21.4308857,82.0111714 C13.7894571,79.5931714 17.4563143,73.9711714 17.4563143,73.9711714 C19.8974571,70.6368857 20.1057429,66.4197429 20.1057429,66.4197429 C20.6226,62.0654571 17.0474571,61.1054571 17.0474571,61.1054571 C8.09802857,57.0426 6.23974286,42.6854571 6.23974286,42.6854571 L5.30545714,25.1054571 L10.7723143,14.5797429 L27.4146,14.0740286 L43.6146,14.5797429 L49.0814571,25.1054571 Z" id="Fill-4" fill="#FFFFFF"></path>
                        <path d="M6.97097143,42.0649714 C6.83554286,39.5492571 6.36925714,29.9878286 7.0044,28.5058286 C7.0044,28.5058286 9.52611429,18.2972571 19.4535429,20.1521143 C19.6138286,20.1821143 19.7715429,20.2275429 19.9241143,20.2849714 C21.0392571,20.7024 26.1298286,22.5135429 29.1075429,21.9726857 C29.1075429,21.9726857 36.0049714,20.8669714 37.1852571,20.4641143 C37.4106857,20.3869714 37.6335429,20.3166857 37.8701143,20.2858286 C39.5784,20.0586857 45.8518286,20.1546857 47.1838286,30.0924 C47.1838286,30.0924 46.5118286,43.7698286 48.2826857,42.9761143 C48.2826857,42.9761143 49.0815429,42.7498286 49.0815429,40.9361143 C49.0815429,40.9361143 48.4609714,38.1204 50.0801143,33.1918286 C50.2181143,32.7726857 50.3586857,32.3578286 50.5798286,31.9755429 C51.4249714,30.5184 54.3444,25.1209714 53.8001143,20.9346857 C53.8001143,20.9346857 52.4929714,13.1184 48.5852571,11.6535429 C48.5852571,11.6535429 52.1269714,8.11182857 49.3181143,3.40954286 C49.3181143,3.40954286 47.7915429,5.40154286 43.4561143,4.86411429 C43.4561143,4.86411429 35.7409714,4.42354286 30.9212571,2.14525714 C28.9618286,1.21868571 26.8275429,0.729257143 24.6632571,0.862971429 C22.1304,1.01811429 18.9958286,1.49382857 16.9566857,2.79925714 C16.9566857,2.79925714 10.1184,6.95125714 8.83611429,9.6384 C8.83611429,9.6384 1.14325714,9.57754286 0.287384352,19.8349714 C0.287384352,19.8349714 0.166114286,29.7264 3.95211429,34.2452571 C3.95211429,34.2452571 5.78297143,38.2746857 5.41697143,40.6558286 C5.41697143,40.6558286 4.8804,43.2315429 6.62468571,42.7986857 C6.7404,42.7704 6.99154286,42.4506857 6.97097143,42.0649714" id="Fill-6" fill="#0B579A"></path>
                    </g>
                </g>
                <g id="Group-33" filter="url(#filter-10)" transform="translate(277.000000, 27.000000)">
                    <rect id="Rectangle" fill="#FFFFFF" x="0" y="0" width="86" height="61" rx="4"></rect>
                    <g filter="url(#filter-11)" id="Group-3">
                        <g transform="translate(13.000000, 9.000000)">
                            <mask id="mask-13" fill="white">
                                <use xlink:href="#path-12"></use>
                            </mask>
                            <g id="Clip-2"></g>
                            <path d="M5.7403,10.0014 C5.7403,9.3934 6.2293,8.8984 6.8403,8.8984 C7.4503,8.8984 7.9393,9.3934 7.9393,10.0014 C7.9393,10.6074 7.4503,11.1024 6.8403,11.1024 C6.2293,11.1024 5.7403,10.6074 5.7403,10.0014 M5.6703,0.0004 L14.3303,0.0004 C17.7193,0.0004 20.0003,2.3784 20.0003,5.9174 L20.0003,14.0844 C20.0003,17.6224 17.7193,20.0004 14.3303,20.0004 L5.6703,20.0004 C2.2803,20.0004 0.0003,17.6224 0.0003,14.0844 L0.0003,5.9174 C0.0003,2.3784 2.2803,0.0004 5.6703,0.0004 M15.0103,12.6024 C15.4203,12.6024 15.7603,12.2664 15.7603,11.8524 L15.7603,10.0004 C15.7603,9.5864 15.4203,9.2504 15.0103,9.2504 L9.3203,9.2504 C8.9903,8.1834 8.0103,7.3984 6.8403,7.3984 C5.4103,7.3984 4.2403,8.5654 4.2403,10.0004 C4.2403,11.4354 5.4103,12.6024 6.8403,12.6024 C8.0103,12.6024 8.9903,11.8174 9.3203,10.7504 L11.4293,10.7504 L11.4293,11.8524 C11.4293,12.2664 11.7693,12.6024 12.1793,12.6024 C12.5903,12.6024 12.9293,12.2664 12.9293,11.8524 L12.9293,10.7504 L14.2603,10.7504 L14.2603,11.8524 C14.2603,12.2664 14.5993,12.6024 15.0103,12.6024" id="Fill-1" fill="#000000" mask="url(#mask-13)"></path>
                        </g>
                    </g>
                    <rect id="Rectangle" fill="#D7DFE8" x="39" y="13" width="35" height="9" rx="3"></rect>
                    <rect id="Rectangle-Copy-22" fill="#E3E8ED" x="13" y="36" width="61" height="4" rx="2"></rect>
                    <rect id="Rectangle-Copy-22" fill="#E3E8ED" x="13" y="46" width="61" height="4" rx="2"></rect>
                </g>
                <g id="Group-34" filter="url(#filter-14)" transform="translate(23.000000, 117.000000)">
                    <rect id="Rectangle-Copy-26" fill="#FFFFFF" x="0" y="0" width="123" height="35" rx="4"></rect>
                    <rect id="Rectangle" fill="#D1DAE4" x="10" y="10" width="35" height="7" rx="3"></rect>
                    <g id="Toggle-ON" transform="translate(84.000000, 10.000000)">
                        <path d="M7.21323529,0.0833333333 L19.2132353,0.0833333333 C23.1482641,0.0833333333 26.3382353,3.27330449 26.3382353,7.20833333 C26.3382353,11.1433622 23.1482641,14.3333333 19.2132353,14.3333333 L7.21323529,14.3333333 C3.27820645,14.3333333 0.0882352941,11.1433622 0.0882352941,7.20833333 C0.0882352941,3.27330449 3.27820645,0.0833333333 7.21323529,0.0833333333 Z" id="Rectangle-9" fill="#1DC47F"></path>
                        <g id="Oval-4">
                            <use fill="black" fill-opacity="1" filter="url(#filter-16)" xlink:href="#path-15"></use>
                            <use fill="#FFFFFF" fill-rule="evenodd" xlink:href="#path-15"></use>
                        </g>
                    </g>
                </g>
                <rect id="Rectangle-Copy-22" fill="#E3E8ED" opacity="0.680640811" x="33" y="140" width="58" height="4" rx="2"></rect>
                <g id="Group-32" transform="translate(87.000000, 27.000000)">
                    <g id="Rectangle-Copy-24">
                        <use fill="black" fill-opacity="1" filter="url(#filter-18)" xlink:href="#path-17"></use>
                        <use fill="#FFFFFF" fill-rule="evenodd" xlink:href="#path-17"></use>
                    </g>
                    <rect id="Rectangle-Copy-22" fill="#E3E8ED" opacity="0.680640811" x="26" y="36" width="58" height="4" rx="2"></rect>
                    <rect id="Rectangle-Copy-22" fill="#E3E8ED" opacity="0.680640811" x="26" y="46" width="58" height="4" rx="2"></rect>
                    <rect id="Rectangle-Copy-22" fill="#E3E8ED" opacity="0.680640811" transform="translate(15.000000, 38.000000) scale(-1, 1) translate(-15.000000, -38.000000) " x="11" y="36" width="8" height="4" rx="2"></rect>
                    <rect id="Rectangle-Copy-22" fill="#E3E8ED" opacity="0.680640811" transform="translate(15.000000, 48.000000) scale(-1, 1) translate(-15.000000, -48.000000) " x="11" y="46" width="8" height="4" rx="2"></rect>
                    <g id="Group-12-Copy" transform="translate(10.000000, 7.000000)">
                        <circle id="Oval" fill="#F0F0F0" cx="10" cy="10" r="10"></circle>
                        <g filter="url(#filter-19)" id="Group-3">
                            <g transform="translate(6.000000, 5.200000)">
                                <mask id="mask-21" fill="white">
                                    <use xlink:href="#path-20"></use>
                                </mask>
                                <g id="Clip-2"></g>
                                <path d="M3.97565,10.00025 C1.83115,10.00025 0.00015,9.65975 0.00015,8.30025 C0.00015,6.93925 1.81965,6.58775 3.97565,6.58775 C6.12015,6.58775 7.95115,6.92725 7.95115,8.28725 C7.95115,9.64775 6.13165,10.00025 3.97565,10.00025 M6.60615,2.64575 C6.60615,4.11475 5.43565,5.29175 3.97565,5.29175 C2.51565,5.29175 1.34515,4.11475 1.34515,2.64575 C1.34515,1.17625 2.51565,0.00025 3.97565,0.00025 C5.43565,0.00025 6.60615,1.17625 6.60615,2.64575" id="Fill-1" fill="#000000" mask="url(#mask-21)"></path>
                            </g>
                        </g>
                    </g>
                    <rect id="Rectangle-Copy-22" fill="#D7DFE8" x="38" y="10" width="46" height="4" rx="2"></rect>
                    <rect id="Rectangle-Copy-25" fill="#E3E8ED" x="38" y="20" width="28" height="4" rx="2"></rect>
                </g>
                <g id="Group-31" filter="url(#filter-22)" transform="translate(325.000000, 113.000000)">
                    <rect id="Rectangle-Copy-23" fill="#FFFFFF" x="0" y="0" width="113" height="43" rx="4"></rect>
                    <g filter="url(#filter-23)" id="Group-3">
                        <g transform="translate(11.000000, 12.000000)">
                            <mask id="mask-25" fill="white">
                                <use xlink:href="#path-24"></use>
                            </mask>
                            <g id="Clip-2"></g>
                            <path d="M7.2843,12.109 C7.4323,12.253 7.6263,12.323 7.8193,12.3210417 C8.0123,12.32 8.2053,12.248 8.3513,12.102 L12.2513,8.258 C12.5443,7.969 12.5413,7.505 12.2453,7.219 C11.9483,6.933 11.4703,6.935 11.1773,7.225 L7.8073,10.546 L6.4293,9.219 C6.1323,8.934 5.6553,8.937 5.3613,9.226 C5.0673,9.515 5.0713,9.98 5.3683,10.265 L7.2843,12.109 Z M8.2273,19.915 C8.3393,19.972 8.4633,20.002 8.5863,20.0010242 C8.7103,20 8.8333,19.969 8.9453,19.91 L12.5133,18.003 C13.5243,17.463 14.3163,16.86 14.9343,16.158 C16.2793,14.629 17.0133,12.676 17.0004698,10.663 L16.9583,4.022 C16.9533,3.257 16.4513,2.575 15.7083,2.327 L9.0713,0.1 C8.6713,-0.036 8.2323,-0.033 7.8413,0.106 L1.2273,2.413 C0.4893,2.671 -0.0037,3.358 0.000275838684,4.125 L0.0423,10.76 C0.0553,12.776 0.8133,14.719 2.1803,16.233 C2.8053,16.926 3.6033,17.52 4.6273,18.051 L8.2273,19.915 Z" id="Fill-1" fill="#000000" mask="url(#mask-25)"></path>
                        </g>
                    </g>
                </g>
                <rect id="Rectangle-Copy-22" fill="#E3E8ED" x="364" y="127" width="61" height="4" rx="2"></rect>
                <rect id="Rectangle-Copy-22" fill="#E3E8ED" x="364" y="137" width="61" height="4" rx="2"></rect>
            </g>
        </g>
    </g>
</svg>