<?xml version="1.0" encoding="UTF-8"?>
<svg width="458px" height="176px" viewBox="0 0 458 176" version="1.1" xmlns="http://www.w3.org/2000/svg" xmlns:xlink="http://www.w3.org/1999/xlink">
    <title>Group 55</title>
    <defs>
        <rect id="path-1" x="0" y="0" width="458" height="176" rx="7"></rect>
        <rect id="path-3" x="0" y="0" width="458" height="176" rx="7"></rect>
        <filter id="filter-5">
            <feColorMatrix in="SourceGraphic" type="matrix" values="0 0 0 0 0.882353 0 0 0 0 0.898039 0 0 0 0 0.960784 0 0 0 1.000000 0"></feColorMatrix>
        </filter>
        <polygon id="path-6" points="0 0 62 0 62 57 0 57"></polygon>
        <filter id="filter-8">
            <feColorMatrix in="SourceGraphic" type="matrix" values="0 0 0 0 0.882353 0 0 0 0 0.898039 0 0 0 0 0.960784 0 0 0 1.000000 0"></feColorMatrix>
        </filter>
        <polygon id="path-9" points="0 0.6142573 54.8262687 0.6142573 54.8262687 26.7878788 0 26.7878788"></polygon>
        <polygon id="path-11" points="0.474080952 0.235416667 28.7927536 0.235416667 28.7927536 24.9912667 0.474080952 24.9912667"></polygon>
        <circle id="path-13" cx="48" cy="48" r="48"></circle>
        <path d="M12.0087838,6.40293023 C12.0087838,6.40293023 0.316216216,16.024186 0,28.3255814 L0,28.3255814 L74.5817568,28.3255814 C74.5817568,28.3255814 68.577027,8.45316279 61.6243243,5.77167442 L61.6243243,5.77167442 C61.6243243,5.77167442 50.8067568,0.137581395 36.4527027,0.136232338 L36.4527027,0.136232338 C28.927027,0.13555814 20.4324324,1.68334884 12.0087838,6.40293023" id="path-15"></path>
        <linearGradient x1="0%" y1="50.0005475%" x2="99.9992989%" y2="50.0005475%" id="linearGradient-17">
            <stop stop-color="#FFA100" offset="0%"></stop>
            <stop stop-color="#FFB800" offset="100%"></stop>
        </linearGradient>
        <rect id="path-18" x="0" y="0" width="39" height="39" rx="19.5"></rect>
        <filter x="-15.4%" y="-15.4%" width="130.8%" height="130.8%" filterUnits="objectBoundingBox" id="filter-19">
            <feOffset dx="0" dy="0" in="SourceAlpha" result="shadowOffsetOuter1"></feOffset>
            <feGaussianBlur stdDeviation="2" in="shadowOffsetOuter1" result="shadowBlurOuter1"></feGaussianBlur>
            <feColorMatrix values="0 0 0 0 0.874509804   0 0 0 0 0.909803922   0 0 0 0 0.945098039  0 0 0 1 0" type="matrix" in="shadowBlurOuter1"></feColorMatrix>
        </filter>
        <filter id="filter-20">
            <feColorMatrix in="SourceGraphic" type="matrix" values="0 0 0 0 1.000000 0 0 0 0 0.262745 0 0 0 0 0.356863 0 0 0 1.000000 0"></feColorMatrix>
        </filter>
        <polygon id="path-21" points="0.795171429 0.189366667 11.1057429 0.189366667 11.1057429 6.93333333 0.795171429 6.93333333"></polygon>
        <rect id="path-23" x="0" y="0" width="35" height="35" rx="17.5"></rect>
        <filter x="-17.1%" y="-17.1%" width="134.3%" height="134.3%" filterUnits="objectBoundingBox" id="filter-24">
            <feOffset dx="0" dy="0" in="SourceAlpha" result="shadowOffsetOuter1"></feOffset>
            <feGaussianBlur stdDeviation="2" in="shadowOffsetOuter1" result="shadowBlurOuter1"></feGaussianBlur>
            <feColorMatrix values="0 0 0 0 0.874509804   0 0 0 0 0.909803922   0 0 0 0 0.945098039  0 0 0 1 0" type="matrix" in="shadowBlurOuter1"></feColorMatrix>
        </filter>
        <filter id="filter-25">
            <feColorMatrix in="SourceGraphic" type="matrix" values="0 0 0 0 1.000000 0 0 0 0 0.752941 0 0 0 0 0.000000 0 0 0 1.000000 0"></feColorMatrix>
        </filter>
        <polygon id="path-26" points="0.43055769 0.0342857143 16.2854865 0.0342857143 16.2854865 10.3322667 0.43055769 10.3322667"></polygon>
        <rect id="path-28" x="0" y="0" width="35" height="35" rx="17.5"></rect>
        <filter x="-17.1%" y="-17.1%" width="134.3%" height="134.3%" filterUnits="objectBoundingBox" id="filter-29">
            <feOffset dx="0" dy="0" in="SourceAlpha" result="shadowOffsetOuter1"></feOffset>
            <feGaussianBlur stdDeviation="2" in="shadowOffsetOuter1" result="shadowBlurOuter1"></feGaussianBlur>
            <feColorMatrix values="0 0 0 0 0.874509804   0 0 0 0 0.909803922   0 0 0 0 0.945098039  0 0 0 1 0" type="matrix" in="shadowBlurOuter1"></feColorMatrix>
        </filter>
        <filter id="filter-30">
            <feColorMatrix in="SourceGraphic" type="matrix" values="0 0 0 0 0.772549 0 0 0 0 0.023529 0 0 0 0 0.403922 0 0 0 1.000000 0"></feColorMatrix>
        </filter>
        <polygon id="path-31" points="0 0.634772727 14 0.634772727 14 7.56197727 0 7.56197727"></polygon>
        <polygon id="path-33" points="0.00014 0.663068182 14 0.663068182 14 7.5 0.00014 7.5"></polygon>
        <rect id="path-35" x="0" y="0" width="35" height="35" rx="17.5"></rect>
        <filter x="-17.1%" y="-17.1%" width="134.3%" height="134.3%" filterUnits="objectBoundingBox" id="filter-36">
            <feOffset dx="0" dy="0" in="SourceAlpha" result="shadowOffsetOuter1"></feOffset>
            <feGaussianBlur stdDeviation="2" in="shadowOffsetOuter1" result="shadowBlurOuter1"></feGaussianBlur>
            <feColorMatrix values="0 0 0 0 0.874509804   0 0 0 0 0.909803922   0 0 0 0 0.945098039  0 0 0 1 0" type="matrix" in="shadowBlurOuter1"></feColorMatrix>
        </filter>
        <filter id="filter-37">
            <feColorMatrix in="SourceGraphic" type="matrix" values="0 0 0 0 0.247059 0 0 0 0 0.509804 0 0 0 0 0.937255 0 0 0 1.000000 0"></feColorMatrix>
        </filter>
        <polygon id="path-38" points="0.457295238 0.206930247 13.5238095 0.206930247 13.5238095 16.4347043 0.457295238 16.4347043"></polygon>
        <polygon id="path-40" points="0 0.726965217 2.50415238 0.726965217 2.50415238 3.76505217 0 3.76505217"></polygon>
        <rect id="path-42" x="0" y="0" width="35" height="35" rx="17.5"></rect>
        <filter x="-17.1%" y="-17.1%" width="134.3%" height="134.3%" filterUnits="objectBoundingBox" id="filter-43">
            <feOffset dx="0" dy="0" in="SourceAlpha" result="shadowOffsetOuter1"></feOffset>
            <feGaussianBlur stdDeviation="2" in="shadowOffsetOuter1" result="shadowBlurOuter1"></feGaussianBlur>
            <feColorMatrix values="0 0 0 0 0.874509804   0 0 0 0 0.909803922   0 0 0 0 0.945098039  0 0 0 1 0" type="matrix" in="shadowBlurOuter1"></feColorMatrix>
        </filter>
        <filter id="filter-44">
            <feColorMatrix in="SourceGraphic" type="matrix" values="0 0 0 0 0.952941 0 0 0 0 0.458824 0 0 0 0 0.160784 0 0 0 1.000000 0"></feColorMatrix>
        </filter>
        <polygon id="path-45" points="0 0.000231818182 15.3180952 0.000231818182 15.3180952 16.6136364 0 16.6136364"></polygon>
        <rect id="path-47" x="0" y="0" width="45" height="45" rx="22.5"></rect>
        <filter x="-13.3%" y="-13.3%" width="126.7%" height="126.7%" filterUnits="objectBoundingBox" id="filter-48">
            <feOffset dx="0" dy="0" in="SourceAlpha" result="shadowOffsetOuter1"></feOffset>
            <feGaussianBlur stdDeviation="2" in="shadowOffsetOuter1" result="shadowBlurOuter1"></feGaussianBlur>
            <feColorMatrix values="0 0 0 0 0.874509804   0 0 0 0 0.909803922   0 0 0 0 0.945098039  0 0 0 1 0" type="matrix" in="shadowBlurOuter1"></feColorMatrix>
        </filter>
        <filter id="filter-49">
            <feColorMatrix in="SourceGraphic" type="matrix" values="0 0 0 0 0.152941 0 0 0 0 0.686275 0 0 0 0 0.886275 0 0 0 1.000000 0"></feColorMatrix>
        </filter>
        <polygon id="path-50" points="0.0004 0.000945 17 0.000945 17 21 0.0004 21"></polygon>
        <rect id="path-52" x="0" y="0" width="35" height="35" rx="17.5"></rect>
        <filter x="-17.1%" y="-17.1%" width="134.3%" height="134.3%" filterUnits="objectBoundingBox" id="filter-53">
            <feOffset dx="0" dy="0" in="SourceAlpha" result="shadowOffsetOuter1"></feOffset>
            <feGaussianBlur stdDeviation="2" in="shadowOffsetOuter1" result="shadowBlurOuter1"></feGaussianBlur>
            <feColorMatrix values="0 0 0 0 0.874509804   0 0 0 0 0.909803922   0 0 0 0 0.945098039  0 0 0 1 0" type="matrix" in="shadowBlurOuter1"></feColorMatrix>
        </filter>
        <filter id="filter-54">
            <feColorMatrix in="SourceGraphic" type="matrix" values="0 0 0 0 0.962919 0 0 0 0 0.545370 0 0 0 0 0.000000 0 0 0 1.000000 0"></feColorMatrix>
        </filter>
        <rect id="path-55" x="0" y="0" width="45" height="45" rx="22.5"></rect>
        <filter x="-13.3%" y="-13.3%" width="126.7%" height="126.7%" filterUnits="objectBoundingBox" id="filter-56">
            <feOffset dx="0" dy="0" in="SourceAlpha" result="shadowOffsetOuter1"></feOffset>
            <feGaussianBlur stdDeviation="2" in="shadowOffsetOuter1" result="shadowBlurOuter1"></feGaussianBlur>
            <feColorMatrix values="0 0 0 0 0.874509804   0 0 0 0 0.909803922   0 0 0 0 0.945098039  0 0 0 1 0" type="matrix" in="shadowBlurOuter1"></feColorMatrix>
        </filter>
        <filter id="filter-57">
            <feColorMatrix in="SourceGraphic" type="matrix" values="0 0 0 0 0.121569 0 0 0 0 0.741176 0 0 0 0 0.482353 0 0 0 1.000000 0"></feColorMatrix>
        </filter>
        <polygon id="path-58" points="0 0.45 17.15013 0.45 17.15013 15.40134 0 15.40134"></polygon>
        <filter id="filter-60">
            <feColorMatrix in="SourceGraphic" type="matrix" values="0 0 0 0 1.000000 0 0 0 0 1.000000 0 0 0 0 1.000000 0 0 0 1.000000 0"></feColorMatrix>
        </filter>
        <polygon id="path-61" points="0 0 4.5 0 4.5 4.5 0 4.5"></polygon>
    </defs>
    <g id="Page-1" stroke="none" stroke-width="1" fill="none" fill-rule="evenodd">
        <g id="5.0-Settings-Home-opt4-Copy-17" transform="translate(-812.000000, -239.000000)">
            <g id="Group-55" transform="translate(812.000000, 239.000000)">
                <mask id="mask-2" fill="white">
                    <use xlink:href="#path-1"></use>
                </mask>
                <use id="Mask" fill="#F0F4F8" xlink:href="#path-1"></use>
                <g id="Group-5" mask="url(#mask-2)">
                    <mask id="mask-4" fill="white">
                        <use xlink:href="#path-3"></use>
                    </mask>
                    <use id="Mask" fill="#F1F3FD" xlink:href="#path-3"></use>
                    <circle id="Oval" stroke="#E1E5F5" stroke-width="4" opacity="0.513044085" mask="url(#mask-4)" cx="229" cy="88" r="78"></circle>
                    <circle id="Oval" stroke="#E1E5F5" stroke-width="4" opacity="0.513044085" mask="url(#mask-4)" cx="229" cy="88" r="110"></circle>
                    <circle id="Oval" stroke="#E1E5F5" stroke-width="4" opacity="0.513044085" mask="url(#mask-4)" cx="229" cy="88" r="143"></circle>
                </g>
                <g filter="url(#filter-5)" id="Group-3" opacity="0.288550967">
                    <g mask="url(#mask-2)">
                        <g transform="translate(-8.000000, 37.000000)">
                            <mask id="mask-7" fill="white">
                                <use xlink:href="#path-6"></use>
                            </mask>
                            <g id="Clip-2" stroke="none" fill="none"></g>
                            <path d="M29.0756976,29.5697113 C29.442313,29.5697113 29.7973815,29.63426 30.1409031,29.7604235 C31.0098105,30.0919694 31.6650994,30.7785335 32.0894496,31.8083796 L32.6263824,33.0670804 C33.2383703,34.4930212 33.8763389,35.9659065 34.2920288,37.5590873 C35.010826,40.3112116 35.654568,43.0809402 36.2983101,45.8506688 C36.7255469,47.7049786 37.1556706,49.5563544 37.608888,51.4018621 L37.7445646,52.0062732 C37.7763187,52.1735132 37.8253932,52.3935658 37.871581,52.5725419 C39.6353764,52.3847637 40.6515074,51.4458726 40.665941,50.9588229 C40.818938,46.3523887 40.8853329,41.7400865 40.9459544,37.1307182 L40.9748217,35.3497593 C41.015236,32.5418882 41.0643105,29.637194 40.9690483,26.8175869 C40.873786,23.8600801 42.4701508,21.1196918 45.0422322,19.8404528 C48.6448782,18.0418896 51.3324291,16.545532 53.7544002,14.9758235 C55.0505445,14.1396237 56.3033878,12.9337355 57.3772534,11.4960586 C57.4984963,11.3258846 57.6255127,10.8975156 57.6601535,10.59531 C57.3916871,10.4427402 56.9240359,10.2784343 56.6295889,10.2813683 C54.7156832,10.4427402 52.9143602,10.8975156 51.4219179,11.5958158 C48.3908455,13.0100204 45.4636956,14.670684 42.0053864,16.7303762 C39.9962184,17.9215942 37.4818717,17.9509345 35.4553833,16.8095951 C28.3569005,12.7987699 21.3074921,8.9551847 14.113747,5.04118265 C12.1738607,3.98493022 11.1952573,4.3487505 10.1560325,5.3345861 C10.0116957,5.46955169 9.93086714,5.62505552 9.93375387,5.76588918 C9.93375387,5.80403163 9.93375387,5.92432704 10.0954111,6.0739628 C11.5474391,7.38547623 13.011014,8.68525353 14.474589,9.98209679 C16.9052203,12.1415462 19.3387384,14.2980616 21.7174086,16.5161917 C22.9125171,17.6311248 23.9748358,18.8780895 25.0054004,20.0810436 L25.7444047,20.9465838 C25.7444047,20.9495178 25.7472915,20.9495178 25.7472915,20.9524519 C26.3563927,21.6566201 26.6248591,22.5955112 26.483409,23.5226661 C26.3448457,24.4556891 25.8136864,25.2713507 25.0227208,25.7642685 L23.579353,26.6679511 C20.1268173,28.8274005 16.8186183,30.8988289 13.4786652,32.9203787 C12.2979903,33.6333491 10.7131725,33.3487477 9.73456912,32.7824791 C9.18608935,32.4626693 8.67225042,32.0812448 8.16418495,31.7027544 C7.65323275,31.3183958 7.17114791,30.9575096 6.72370389,30.7491931 C5.8807771,30.3648346 5.00320947,30.1741224 4.50380422,30.2797476 C4.32771334,30.3589665 4.31905314,30.4968662 4.4460695,30.7227868 C6.85649373,34.9213902 9.52961089,39.3928588 12.8406966,44.7562739 C13.3776294,44.5714298 13.9203357,44.3660473 14.0386919,44.2046754 C14.0358052,43.3420693 13.9665235,42.7024498 13.9030153,42.0598962 C13.8048663,41.1239392 13.7124908,40.1821141 13.7240377,39.2461571 C13.7442449,37.8202163 14.7084146,36.2915843 16.0218792,35.6196904 C18.0108401,34.6015805 20.0171213,33.6216129 22.0205158,32.6416454 C23.7756511,31.7849073 25.5250128,30.9311033 27.2657144,30.0479589 C27.892136,29.7310832 28.4954638,29.5697113 29.0756976,29.5697113 L29.0756976,29.5697113 Z M37.6579625,57 C34.3641972,57 33.7233419,53.9515381 33.5068368,52.924626 L33.4086877,52.4698507 C32.9468101,50.6008707 32.5166864,48.7289567 32.0836761,46.8599767 C31.4485943,44.1283906 30.8163992,41.3997384 30.109149,38.6886905 C29.7771744,37.4270557 29.2315813,36.1654209 28.6600077,34.8363032 L28.4579362,34.3609896 C26.9077592,35.1385088 25.4008832,35.8720174 23.896894,36.605526 C21.9165933,37.5766915 19.9362927,38.5419888 17.9733125,39.5483627 C18.0425942,40.0676868 18.1291962,40.8334698 18.2071381,41.6021868 C18.28508,42.3562337 18.3630218,43.1132146 18.383229,43.8701955 C18.4756045,47.5083983 15.424325,48.5265083 13.9578633,49.0164921 C12.453874,49.521146 10.3292367,48.9783496 9.47764965,47.5876173 C6.00201999,41.9689411 3.21632014,37.3126284 0.710633642,32.9379829 C-0.109199268,31.5208442 -0.224668691,29.9100593 0.390205991,28.528129 C0.979100052,27.1960773 2.16843512,26.2630543 3.66087742,25.9667169 C5.56323618,25.5676882 7.52332965,26.2865266 8.5163667,26.741302 C9.3766139,27.1403307 10.0982978,27.6831271 10.7362664,28.1613747 C11.056694,28.4048995 11.3800084,28.6513584 11.7177565,28.8626089 C14.8902789,26.9408163 18.0310472,24.9720792 21.3074921,22.918255 L21.5615249,22.7627512 C20.631996,21.6771584 19.7428814,20.6473123 18.7902587,19.7582998 C16.4375692,17.566576 14.0329184,15.4335329 11.6253809,13.2975558 C10.1531458,11.9919104 8.68091062,10.6862651 7.22022241,9.3630155 C6.19254454,8.43586059 5.61808416,7.17129171 5.60365048,5.8098997 C5.5892168,4.4338375 6.17522413,3.08418162 7.20867547,2.11008216 C9.80385077,-0.342770697 12.8118293,-0.653778356 16.1546691,1.15945498 C23.3657346,5.08225913 30.4295766,8.9375805 37.5540401,12.9630759 C38.2612903,13.3621046 39.1128773,13.3533025 39.814354,12.9337355 C43.3910194,10.8094945 46.4220918,9.08721626 49.6119347,7.59672672 C51.5604812,6.68717602 53.8640962,6.09743508 56.2745204,5.89792073 C57.9892414,5.73068076 60.416986,6.6519676 61.4590975,8.34783956 C62.5560571,10.1170624 61.7997323,12.8603847 60.8269024,14.1572279 C59.4441561,16.0056697 57.8044903,17.5753781 56.0782224,18.6903112 C53.5148012,20.3451067 50.700234,21.9206833 46.9474777,23.7896632 C45.8880457,24.3207235 45.2558506,25.4209864 45.2991517,26.6708851 C45.3944139,29.6019856 45.3482262,32.5594924 45.3020384,35.4201761 L45.2760578,37.1923329 C45.2154363,41.8310415 45.1490414,46.4726841 44.9960444,51.1084587 C44.8950087,54.1539865 41.8408424,56.7359369 38.0447851,56.9853298 C37.9119953,56.997066 37.7820922,57 37.6579625,57 L37.6579625,57 Z" id="Fill-1" stroke="none" fill="#000000" fill-rule="evenodd" mask="url(#mask-7)"></path>
                        </g>
                    </g>
                </g>
                <g filter="url(#filter-8)" id="Group-7" opacity="0.288550967">
                    <g mask="url(#mask-2)">
                        <g transform="translate(403.000000, 106.000000)">
                            <g id="Group-3" transform="translate(0.000000, 28.000000)">
                                <mask id="mask-10" fill="white">
                                    <use xlink:href="#path-9"></use>
                                </mask>
                                <g id="Clip-2"></g>
                                <path d="M50.2654478,12.5330837 L44.3864925,18.3926044 C42.2551493,20.5169019 39.4260448,21.8471168 36.4218657,22.1278275 L29.7690299,22.75753 C28.2745522,22.9067366 26.7724627,22.7701747 25.3236567,22.3781912 L15.0323134,19.5837284 L15.0323134,9.84736474 C16.8388806,7.96331515 20.8884328,4.40764573 23.9941045,4.40764573 C28.9291791,4.40764573 35.7951493,6.76966226 35.7951493,9.09627383 C35.7951493,10.8108854 34.6203731,11.8047532 28.6247015,11.8047532 C27.5742537,11.8047532 26.7217164,12.6544722 26.7217164,13.7014474 C26.7217164,14.7484226 27.5742537,15.5981416 28.6247015,15.5981416 L33.2020149,15.5981416 C36.5411194,15.5981416 39.7990299,14.4373647 42.3794776,12.3282408 L46.7969403,8.71440606 C47.8296269,7.87227383 49.3190299,7.94308375 50.2654478,8.886373 C51.2727612,9.89035647 51.2727612,11.5291003 50.2654478,12.5330837 L50.2654478,12.5330837 Z M11.2263433,22.3630176 C11.2263433,22.7094804 10.9421642,22.995249 10.5920149,22.995249 L4.43902985,22.995249 C4.09141791,22.995249 3.80470149,22.7094804 3.80470149,22.3630176 L3.80470149,5.03987713 C3.80470149,4.6908854 4.09141791,4.40764573 4.43902985,4.40764573 L10.5920149,4.40764573 C10.9421642,4.40764573 11.2263433,4.6908854 11.2263433,5.03987713 L11.2263433,22.3630176 Z M52.9575373,6.20318292 C50.615597,3.86898457 46.9314179,3.69195978 44.3814179,5.78338127 L39.9639552,9.39468705 C39.8396269,9.498373 39.7102239,9.59953003 39.5782836,9.6956292 C39.5935075,9.50343085 39.6011194,9.30364573 39.6011194,9.09627383 C39.6011194,3.10272011 29.4341045,0.6142573 23.9941045,0.6142573 C20.7158955,0.6142573 17.3793284,2.7461416 14.9993284,4.70353003 C14.8217164,2.42243912 12.9263433,0.6142573 10.5920149,0.6142573 L4.43902985,0.6142573 C1.9930597,0.6142573 -0.00126865672,2.59946391 -0.00126865672,5.03987713 L-0.00126865672,22.3630176 C-0.00126865672,24.8034309 1.9930597,26.7886375 4.43902985,26.7886375 L10.5920149,26.7886375 C12.6548507,26.7886375 14.3751493,25.374968 14.875,23.473216 L24.3214179,26.0375466 C25.7220149,26.4143565 27.1530597,26.6065548 28.5917164,26.6065548 C29.1017164,26.6065548 29.6142537,26.5837945 30.126791,26.5357449 L36.7847015,25.9060424 C40.6642537,25.5393482 44.3205224,23.8247366 47.0760448,21.0757945 L52.9575373,15.2162738 C55.4491791,12.7303399 55.4491791,8.68658788 52.9575373,6.20318292 L52.9575373,6.20318292 Z" id="Fill-1" fill="#020202" mask="url(#mask-10)"></path>
                            </g>
                            <g id="Group-6" transform="translate(16.000000, 0.000000)">
                                <mask id="mask-12" fill="white">
                                    <use xlink:href="#path-11"></use>
                                </mask>
                                <g id="Clip-5"></g>
                                <path d="M10.3132804,3.85993333 C12.4633369,3.85993333 14.3881256,4.94743333 15.4769202,6.63185 C11.7700125,7.99726667 9.11435476,11.4386 9.11435476,15.49135 C6.33354821,14.9524333 4.22854524,12.5744333 4.22854524,9.73485 C4.22854524,6.49651667 6.95929226,3.85993333 10.3132804,3.85993333 M25.0382893,15.49135 C25.0382893,18.7296833 22.3075423,21.3662667 18.9535542,21.3662667 C15.5995661,21.3662667 12.868819,18.7296833 12.868819,15.49135 C12.868819,12.2530167 15.5995661,9.61643333 18.9535542,9.61643333 C22.3075423,9.61643333 25.0382893,12.2530167 25.0382893,15.49135 M9.89278036,19.1936833 C11.3920631,22.59635 14.8887208,24.9912667 18.9535542,24.9912667 C24.3775036,24.9912667 28.7927536,20.7282667 28.7927536,15.49135 C28.7927536,10.3897667 24.5952625,6.24518333 19.3665452,6.0301 C17.8497417,2.55976667 14.3205452,0.234933333 10.3132804,0.234933333 C4.88933095,0.234933333 0.474080952,4.49793333 0.474080952,9.73485 C0.474080952,14.8316 4.66656607,18.9761833 9.89278036,19.1936833" id="Fill-4" fill="#020202" mask="url(#mask-12)"></path>
                            </g>
                        </g>
                    </g>
                </g>
                <g id="Group-9" mask="url(#mask-2)">
                    <g transform="translate(181.000000, 40.000000)">
                        <mask id="mask-14" fill="white">
                            <use xlink:href="#path-13"></use>
                        </mask>
                        <use id="Mask" stroke="none" fill="#4183FF" fill-rule="evenodd" xlink:href="#path-13"></use>
                        <g id="Group-9" stroke="none" stroke-width="1" fill="none" fill-rule="evenodd" mask="url(#mask-14)">
                            <g transform="translate(10.000000, 15.000000)">
                                <g id="Group-3" transform="translate(0.000000, 53.000000)">
                                    <mask id="mask-16" fill="white">
                                        <use xlink:href="#path-15"></use>
                                    </mask>
                                    <g id="Clip-2"></g>
                                    <path d="M12.0087838,6.40293023 C12.0087838,6.40293023 0.316216216,16.024186 0,28.3255814 L0,28.3255814 L74.5817568,28.3255814 C74.5817568,28.3255814 68.577027,8.45316279 61.6243243,5.77167442 L61.6243243,5.77167442 C61.6243243,5.77167442 50.8067568,0.137581395 36.4527027,0.136232338 L36.4527027,0.136232338 C28.927027,0.13555814 20.4324324,1.68334884 12.0087838,6.40293023" id="Fill-1" fill="url(#linearGradient-17)" mask="url(#mask-16)"></path>
                                </g>
                                <g id="Group-8" transform="translate(17.000000, 0.000000)">
                                    <path d="M38.1744667,19.7257163 L37.4484667,33.5385735 C37.4484667,33.5385735 36.0031333,44.8191857 29.0358,48.0114306 C29.0358,48.0114306 26.2611333,48.7657163 26.6631333,52.1869408 C26.6631333,52.1869408 26.8251333,55.5004102 28.7178,58.1202061 C28.7178,58.1202061 31.5764667,62.5374918 25.6324667,64.437349 C25.6324667,64.437349 23.4744667,65.1242878 21.3224667,65.4266755 C21.2638,65.4340837 21.2124667,65.4475531 21.1538,65.4475531 C21.0951333,65.4475531 21.0371333,65.4340837 20.9791333,65.4266755 C18.8204667,65.1242878 16.6684667,64.437349 16.6684667,64.437349 C10.7251333,62.5374918 13.5771333,58.1202061 13.5771333,58.1202061 C15.4758,55.5004102 15.6378,52.1869408 15.6378,52.1869408 C16.0398,48.7657163 13.2591333,48.0114306 13.2591333,48.0114306 C6.29846667,44.8191857 4.85313333,33.5385735 4.85313333,33.5385735 L4.12646667,19.7257163 L8.37846667,11.4555122 L21.3224667,11.0581653 L33.9224667,11.4555122 L38.1744667,19.7257163 Z" id="Fill-4" fill="#FFFFFF"></path>
                                    <path d="M5.42186667,33.051049 C5.31653333,31.0744163 4.95386667,23.5618653 5.44786667,22.3974367 C5.44786667,22.3974367 7.4092,14.3764163 15.1305333,15.8338041 C15.2552,15.8573755 15.3778667,15.8930694 15.4965333,15.9381918 C16.3638667,16.2661714 20.3232,17.6892122 22.6392,17.2642531 C22.6392,17.2642531 28.0038667,16.3954776 28.9218667,16.0789469 C29.0972,16.0183347 29.2705333,15.9631102 29.4545333,15.9388653 C30.7832,15.7603959 35.6625333,15.8358245 36.6985333,23.6440286 C36.6985333,23.6440286 36.1758667,34.3905796 37.5532,33.7669469 C37.5532,33.7669469 38.1745333,33.589151 38.1745333,32.1640898 C38.1745333,32.1640898 37.6918667,29.9517429 38.9512,26.0792939 C39.0585333,25.7499673 39.1678667,25.4240082 39.3398667,25.1236408 C39.9972,23.9787429 42.2678667,19.7379061 41.8445333,16.4486816 C41.8445333,16.4486816 40.8278667,10.3073143 37.7885333,9.1563551 C37.7885333,9.1563551 40.5432,6.37357959 38.3585333,2.67892653 C38.3585333,2.67892653 37.1712,4.24406939 33.7992,3.82180408 C33.7992,3.82180408 27.7985333,3.47564082 24.0498667,1.68555918 C22.5258667,0.957538776 20.8658667,0.572987755 19.1825333,0.67804898 C17.2125333,0.799946939 14.7745333,1.17372245 13.1885333,2.19941633 C13.1885333,2.19941633 7.86986667,5.46170204 6.87253333,7.57302857 C6.87253333,7.57302857 0.8892,7.52521224 0.223521163,15.5846204 C0.223521163,15.5846204 0.1292,23.3564571 3.07386667,26.9069878 C3.07386667,26.9069878 4.49786667,30.0729673 4.2132,31.9438653 C4.2132,31.9438653 3.79586667,33.9676408 5.15253333,33.6275388 C5.24253333,33.6053143 5.43786667,33.3541102 5.42186667,33.051049" id="Fill-6" fill="#0B579A"></path>
                                </g>
                            </g>
                        </g>
                    </g>
                </g>
                <g id="Group-50" mask="url(#mask-2)">
                    <g transform="translate(121.000000, 121.000000)">
                        <g id="Rectangle-Copy-19">
                            <use fill="black" fill-opacity="1" filter="url(#filter-19)" xlink:href="#path-18"></use>
                            <use fill="#FFFFFF" fill-rule="evenodd" xlink:href="#path-18"></use>
                        </g>
                        <g filter="url(#filter-20)" fill-rule="evenodd" id="Group-6" stroke-width="1">
                            <g transform="translate(11.000000, 13.000000)">
                                <g id="Group-3" transform="translate(2.571429, 5.302960)">
                                    <mask id="mask-22" fill="white">
                                        <use xlink:href="#path-21"></use>
                                    </mask>
                                    <g id="Clip-2"></g>
                                    <path d="M5.28402857,1.96256667 L0.795171429,0.189366667 L0.795171429,4.77836667 C0.795171429,5.09816667 0.9546,5.39196667 1.22202857,5.56356667 C2.44517143,6.3479 6.16945714,8.22076667 10.6634571,5.54016667 C10.9403143,5.3755 11.1057429,5.0661 11.1057429,4.74196667 L11.1057429,0.2015 L6.61688571,1.9643 C6.18831429,2.13243333 5.7126,2.13156667 5.28402857,1.96256667" id="Fill-1" fill="#000000" mask="url(#mask-22)"></path>
                                </g>
                                <path d="M17.4171429,8.42252667 L16.9534286,7.95539333 C17.0271429,7.87739333 17.0734286,7.77339333 17.0734286,7.65726 L17.0734286,3.35772667 C17.0734286,3.34559333 17.0674286,3.33432667 17.0657143,3.32219333 C17.1077143,3.16186 17.0485714,2.97812667 16.866,2.91052667 L9.33428571,0.113793333 C8.93314286,-0.0352733333 8.49257143,-0.0378733333 8.08971429,0.105993333 L0.228,2.91486 C-0.0702857143,3.02232667 -0.078,3.44786 0.218571429,3.56486 L7.86942857,6.58779333 C8.29885714,6.75766 8.77628571,6.75766 9.20571429,6.58779333 L16.2162857,3.81792667 L16.2162857,7.65726 C16.2162857,7.77772667 16.2642857,7.88606 16.3422857,7.96492667 L15.8751429,8.42252667 C15.822,8.47539333 15.7911429,8.54732667 15.7911429,8.62186 L15.7911429,11.1507933 C15.7911429,11.30506 15.9145714,11.4307267 16.0662857,11.4307267 L17.2225714,11.4307267 C17.3751429,11.4307267 17.4985714,11.30506 17.4985714,11.1507933 L17.4985714,8.62012667 C17.4985714,8.54646 17.4694286,8.47539333 17.4171429,8.42252667" id="Fill-4" fill="#000000"></path>
                            </g>
                        </g>
                    </g>
                </g>
                <g id="Group-47" mask="url(#mask-2)">
                    <g transform="translate(136.000000, 59.000000)">
                        <g id="Rectangle">
                            <use fill="black" fill-opacity="1" filter="url(#filter-24)" xlink:href="#path-23"></use>
                            <use fill="#FFFFFF" fill-rule="evenodd" xlink:href="#path-23"></use>
                        </g>
                        <g filter="url(#filter-25)" fill-rule="evenodd" id="Group-6" stroke-width="1">
                            <g transform="translate(9.000000, 10.000000)">
                                <path d="M16.0340909,13.7560381 C14.9167273,13.7560381 14.3325455,14.0783238 13.8179091,14.3625143 C13.3697273,14.6093714 12.9833636,14.8227048 12.1681364,14.8227048 C11.9842273,14.8227048 11.8273636,14.8097524 11.6805455,14.789181 L9.49527273,8.65051429 C9.45663636,8.5415619 9.38245455,8.4615619 9.29668182,8.3960381 C10.2734091,8.50575238 11.4989545,8.29851429 12.3103182,7.2128 L12.308,7.21051429 C10.9866364,4.66651429 8.56104545,3.27070476 7.23040909,2.66270476 L9.18540909,8.32137143 C9.05404545,8.26346667 8.90259091,8.24975238 8.75654545,8.3000381 C8.619,8.34727619 8.517,8.44327619 8.45054545,8.55984762 L6.40668182,2.64289524 C4.05295455,6.4448 5.55204545,9.34918095 5.61927273,9.47565714 C5.64477273,9.52060952 5.65790909,9.57013333 5.66254545,9.61889524 C6.39277273,9.63641905 7.52868182,9.51222857 8.37790909,8.77165714 C8.36709091,8.85546667 8.37095455,8.94308571 8.40109091,9.02841905 L10.2486818,14.2169905 C9.79045455,13.9792762 9.23177273,13.7560381 8.30218182,13.7560381 C7.18559091,13.7560381 6.60218182,14.0783238 6.08754545,14.3625143 C5.64013636,14.6093714 5.25377273,14.8227048 4.43854545,14.8227048 C3.62486364,14.8227048 3.23927273,14.6093714 2.79263636,14.3625143 C2.278,14.0783238 1.69536364,13.7560381 0.579545455,13.7560381 C0.259636364,13.7560381 0,14.0120381 0,14.3274667 C0,14.6428952 0.259636364,14.8988952 0.579545455,14.8988952 C1.39322727,14.8988952 1.77881818,15.1122286 2.22545455,15.3590857 C2.74009091,15.6440381 3.32272727,15.9655619 4.43854545,15.9655619 C5.55513636,15.9655619 6.13854545,15.6440381 6.65318182,15.3590857 C7.10059091,15.1122286 7.48695455,14.8988952 8.30218182,14.8988952 C9.11740909,14.8988952 9.50377273,15.1122286 9.95195455,15.3590857 C10.4665909,15.6440381 11.0507727,15.9655619 12.1681364,15.9655619 C13.2855,15.9655619 13.8689091,15.6440381 14.3835455,15.3590857 C14.8317273,15.1122286 15.2180909,14.8988952 16.0340909,14.8988952 C16.354,14.8988952 16.6136364,14.6428952 16.6136364,14.3274667 C16.6136364,14.0120381 16.354,13.7560381 16.0340909,13.7560381" id="Fill-1" fill="#000000"></path>
                                <g id="Group-5" transform="translate(0.000000, 0.727771)">
                                    <mask id="mask-27" fill="white">
                                        <use xlink:href="#path-26"></use>
                                    </mask>
                                    <g id="Clip-4"></g>
                                    <path d="M0.924413636,10.281981 C0.962277273,10.2880762 1.26055,10.3322667 1.69945909,10.3322667 C2.56182273,10.3322667 3.96277727,10.1516952 5.00905,9.18026667 C4.98586818,9.15588571 4.95650455,9.13988571 4.93873182,9.10864762 C4.86068636,8.96464762 3.11355,5.62293333 5.85673182,1.35398095 L5.86445909,1.3768381 C5.94482273,1.61607619 6.17123182,1.76693333 6.41386818,1.76693333 C6.47491364,1.76693333 6.53673182,1.75779048 6.59700455,1.73721905 C6.90068636,1.63740952 7.06450455,1.3136 6.96250455,1.01493333 L6.95323182,0.985980952 C8.09995909,1.42712381 11.3183682,2.90598095 12.9959591,6.13645714 C13.0145045,6.17074286 13.0199136,6.20731429 13.0268682,6.24388571 C13.9626409,6.19512381 15.3489136,5.88274286 16.1996864,4.52502857 C16.3032318,4.35893333 16.31405,4.15017143 16.2267318,3.97493333 C16.1471409,3.81417143 14.2021864,0.120457143 6.93623182,0.937219048 L6.76314091,0.424457143 C6.66191364,0.125028571 6.33041364,-0.0364952381 6.02982273,0.0640761905 C5.72614091,0.163885714 5.56232273,0.487695238 5.66432273,0.786361905 L5.84282273,1.3136 C4.26259545,2.15398095 0.262186364,4.77798095 0.43605,9.73798095 C0.446095455,10.0115048 0.650868182,10.2385524 0.924413636,10.281981" id="Fill-3" fill="#000000" mask="url(#mask-27)"></path>
                                </g>
                            </g>
                        </g>
                    </g>
                </g>
                <g id="Group-51" mask="url(#mask-2)">
                    <g transform="translate(281.000000, 32.000000)">
                        <g id="Rectangle">
                            <use fill="black" fill-opacity="1" filter="url(#filter-29)" xlink:href="#path-28"></use>
                            <use fill="#FFFFFF" fill-rule="evenodd" xlink:href="#path-28"></use>
                        </g>
                        <g filter="url(#filter-30)" fill-rule="evenodd" id="Group-7" stroke-width="1">
                            <g transform="translate(10.000000, 10.000000)">
                                <g id="Group-3" transform="translate(0.000000, 0.047250)">
                                    <mask id="mask-32" fill="white">
                                        <use xlink:href="#path-31"></use>
                                    </mask>
                                    <g id="Clip-2"></g>
                                    <path d="M3.7597,3.29720455 C3.85,2.39311364 4.6487,1.65743182 5.5951,1.65743182 L8.4056,1.65743182 C9.3513,1.65743182 10.15,2.39311364 10.2403,3.29720455 L3.7597,3.29720455 Z M11.291,3.30606818 C11.2035,1.84356818 9.9246,0.634704545 8.4056,0.634704545 L5.5951,0.634704545 C4.0761,0.634704545 2.7972,1.84356818 2.709,3.30606818 C1.2061,3.35379545 0,4.54834091 0,6.02447727 L0,6.59447727 C0.9569,6.89038636 1.981,7.11675 3.0436,7.27765909 L3.0436,6.96606818 C3.0436,6.72947727 3.2403,6.53788636 3.4825,6.53788636 C3.7254,6.53788636 3.9221,6.72947727 3.9221,6.96606818 L3.9221,7.38811364 C5.9304,7.61993182 8.0346,7.61993182 10.0765,7.38811364 L10.0765,6.96606818 C10.0765,6.72947727 10.2739,6.53788636 10.5161,6.53788636 C10.759,6.53788636 10.9557,6.72947727 10.9557,6.96606818 L10.9557,7.28106818 C12.0071,7.12561364 13.0284,6.90606818 14,6.62515909 L14,6.02447727 C14,4.54834091 12.7939,3.35379545 11.291,3.30606818 L11.291,3.30606818 Z" id="Fill-1" fill="#000000" mask="url(#mask-32)"></path>
                                </g>
                                <g id="Group-6" transform="translate(0.000000, 6.865432)">
                                    <mask id="mask-34" fill="white">
                                        <use xlink:href="#path-33"></use>
                                    </mask>
                                    <g id="Clip-5"></g>
                                    <path d="M10.95584,1.88965909 C10.95584,2.12556818 10.75914,2.31715909 10.51624,2.31715909 C10.27334,2.31715909 10.07664,2.12556818 10.07664,1.88965909 L10.07664,1.42875 C9.05534,1.53988636 8.02214,1.61147727 6.98754,1.61147727 C5.95294,1.61147727 4.92884,1.53988636 3.92224,1.42806818 L3.92224,1.88965909 C3.92224,2.12556818 3.72554,2.31715909 3.48264,2.31715909 C3.24044,2.31715909 3.04304,2.12556818 3.04304,1.88965909 L3.04304,1.32920455 C1.98184,1.17375 0.96474,0.946704545 0.00014,0.663068182 L0.00014,4.77306818 C0.00014,6.27852273 1.25384,7.50034091 2.80014,7.50034091 L11.20014,7.50034091 C12.74644,7.50034091 14.00014,6.27852273 14.00014,4.77306818 L14.00014,0.692386364 C13.02294,0.962386364 12.00584,1.18261364 10.95584,1.33193182 L10.95584,1.88965909 Z" id="Fill-4" fill="#000000" mask="url(#mask-34)"></path>
                                </g>
                            </g>
                        </g>
                    </g>
                </g>
                <g id="Group-54" mask="url(#mask-2)">
                    <g transform="translate(347.000000, 19.000000)">
                        <g id="Rectangle">
                            <use fill="black" fill-opacity="1" filter="url(#filter-36)" xlink:href="#path-35"></use>
                            <use fill="#FFFFFF" fill-rule="evenodd" xlink:href="#path-35"></use>
                        </g>
                        <g filter="url(#filter-37)" id="Group-9">
                            <g transform="translate(10.000000, 9.000000)">
                                <g id="Group-3" transform="translate(2.285714, 0.575687)">
                                    <mask id="mask-39" fill="white">
                                        <use xlink:href="#path-38"></use>
                                    </mask>
                                    <g id="Clip-2"></g>
                                    <path d="M11.2969143,1.60270435 L8.07634286,0.367747826 C7.31824762,0.0766173913 6.4672,0.184617391 5.80053333,0.660443478 C5.37539048,0.964095652 5.0752,1.39844348 4.90224762,1.8860087 L2.9319619,1.8860087 C1.56739048,1.8860087 0.457295238,3.02548696 0.457295238,4.42635652 L0.457295238,6.6020087 C0.457295238,6.9260087 0.713295238,7.18896522 1.02872381,7.18896522 C1.34415238,7.18896522 1.60015238,6.9260087 1.60015238,6.6020087 L1.60015238,4.42635652 C1.60015238,3.67348696 2.19824762,3.05992174 2.9319619,3.05992174 L4.73767619,3.05992174 L4.73767619,13.5820957 L2.9319619,13.5820957 C2.19824762,13.5820957 1.60015238,12.9685304 1.60015238,12.2156609 L1.60015238,10.6997478 C1.60015238,10.3757478 1.34415238,10.1127913 1.02872381,10.1127913 C0.713295238,10.1127913 0.457295238,10.3757478 0.457295238,10.6997478 L0.457295238,12.2156609 C0.457295238,13.6165304 1.56739048,14.7560087 2.9319619,14.7560087 L4.90224762,14.7560087 C5.0752,15.2427913 5.37539048,15.6779217 5.80053333,15.9815739 C6.22034286,16.281313 6.71329524,16.4347043 7.21158095,16.4347043 C7.50339048,16.4347043 7.7959619,16.3822696 8.07634286,16.2742696 L11.2969143,15.039313 C12.6287238,14.5298348 13.5239619,13.2048783 13.5239619,11.7445304 L13.5239619,4.89748696 C13.5239619,3.43635652 12.6287238,2.11218261 11.2969143,1.60270435" id="Fill-1" fill="#000000" mask="url(#mask-39)"></path>
                                </g>
                                <g id="Group-6" transform="translate(0.000000, 6.836557)">
                                    <mask id="mask-41" fill="white">
                                        <use xlink:href="#path-40"></use>
                                    </mask>
                                    <g id="Clip-5"></g>
                                    <path d="M2.42491429,1.17618261 C2.40815238,1.1034 2.38834286,1.02044348 2.36624762,0.978182609 C2.28700952,0.822443478 2.13462857,0.726965217 1.97158095,0.726965217 L1.95710476,0.726965217 C1.8512,0.730878261 1.6264381,0.82713913 1.6264381,0.830269565 C1.26453333,0.986008696 0.568914286,1.4547913 0.24967619,1.78974783 L0.1552,1.88992174 C0.130057143,1.91653043 0.103390476,1.94861739 0.0866285714,1.97522609 C0.0294857143,2.05192174 -0.000228571429,2.1474 -0.000228571429,2.24366087 C-0.000228571429,2.35087826 0.0317714286,2.45026957 0.0934857143,2.53166087 L0.1872,2.63809565 L0.209295238,2.6607913 C0.503390476,2.98635652 1.26453333,3.51696522 1.66148571,3.67974783 L1.7224381,3.70322609 C1.79405714,3.73061739 1.89539048,3.76192174 1.95710476,3.76505217 C2.03558095,3.76505217 2.10948571,3.74626957 2.18186667,3.70948696 C2.27024762,3.65783478 2.34186667,3.57644348 2.38072381,3.48018261 C2.40586667,3.41366087 2.44472381,3.21409565 2.44472381,3.21174783 C2.48205714,3.00983478 2.50186667,2.69287826 2.50415238,2.3367913 L2.50415238,2.24757391 C2.50415238,1.87583478 2.48434286,1.5354 2.45234286,1.31392174 L2.42491429,1.17618261 Z" id="Fill-4" fill="#000000" mask="url(#mask-41)"></path>
                                </g>
                                <path d="M3.70689524,9.46713913 C3.91184762,9.46713913 4.07641905,9.29418261 4.07641905,9.08287826 C4.07641905,8.8700087 3.91184762,8.69861739 3.70689524,8.69861739 L2.79489524,8.7807913 C2.63489524,8.7807913 2.50460952,8.91618261 2.50460952,9.08287826 C2.50460952,9.24957391 2.63489524,9.38418261 2.79489524,9.38418261 L3.70689524,9.46713913 Z" id="Fill-7" fill="#000000"></path>
                            </g>
                        </g>
                    </g>
                </g>
                <g id="Group-46" mask="url(#mask-2)">
                    <g transform="translate(83.000000, 21.000000)">
                        <g id="Rectangle">
                            <use fill="black" fill-opacity="1" filter="url(#filter-43)" xlink:href="#path-42"></use>
                            <use fill="#FFFFFF" fill-rule="evenodd" xlink:href="#path-42"></use>
                        </g>
                        <g filter="url(#filter-44)" fill-rule="evenodd" id="Group-3" stroke-width="1">
                            <g transform="translate(10.000000, 9.000000)">
                                <mask id="mask-46" fill="white">
                                    <use xlink:href="#path-45"></use>
                                </mask>
                                <g id="Clip-2"></g>
                                <path d="M1.15474286,5.40082273 C1.20807619,3.93959545 2.20312381,2.72950455 3.54407619,2.36245909 L3.54407619,2.73645909 C3.54407619,3.05636818 3.80007619,3.31600455 4.11550476,3.31600455 C4.43093333,3.31600455 4.68693333,3.05636818 4.68693333,2.73645909 L4.68693333,2.23727727 L10.6313143,2.23727727 L10.6313143,2.73645909 C10.6313143,3.05636818 10.8873143,3.31600455 11.2027429,3.31600455 C11.5189333,3.31600455 11.7741714,3.05636818 11.7741714,2.73645909 L11.7741714,2.36245909 C13.1151238,2.72950455 14.1101714,3.93959545 14.1635048,5.40082273 L1.15474286,5.40082273 Z M10.1185524,10.01555 L7.3543619,12.8190045 C7.24693333,12.9271864 7.10217143,12.9882318 6.94979048,12.9882318 C6.79817143,12.9882318 6.65340952,12.9271864 6.54598095,12.8190045 L5.20045714,11.4528227 C4.97721905,11.2264136 4.97721905,10.8593682 5.20045714,10.6329591 C5.42445714,10.40655 5.7856,10.4073227 6.00807619,10.6329591 L6.94979048,11.5895955 L9.31017143,9.19568636 C9.53340952,8.96927727 9.89531429,8.96927727 10.1185524,9.19568636 C10.3417905,9.42209545 10.3417905,9.78914091 10.1185524,10.01555 L10.1185524,10.01555 Z M11.7741714,1.16241364 L11.7741714,0.579777273 C11.7741714,0.259868182 11.5189333,0.000231818182 11.2027429,0.000231818182 C10.8873143,0.000231818182 10.6313143,0.259868182 10.6313143,0.579777273 L10.6313143,1.07818636 L4.68693333,1.07818636 L4.68693333,0.579777273 C4.68693333,0.259868182 4.43093333,0.000231818182 4.11550476,0.000231818182 C3.80007619,0.000231818182 3.54407619,0.259868182 3.54407619,0.579777273 L3.54407619,1.16241364 C1.52731429,1.55882273 -0.000304761905,3.36159545 -0.000304761905,5.52136818 L-0.000304761905,5.98036818 L-0.000304761905,12.1706864 L-0.000304761905,12.5709591 C-0.000304761905,14.8002773 1.84579048,16.6138682 4.11550476,16.6138682 L4.38064762,16.6138682 L10.9376,16.6138682 L11.2027429,16.6138682 C13.4724571,16.6138682 15.3185524,14.8002773 15.3185524,12.5709591 L15.3185524,12.1706864 L15.3185524,5.98036818 L15.3185524,5.52136818 C15.3185524,3.36159545 13.7909333,1.55882273 11.7741714,1.16241364 L11.7741714,1.16241364 Z" id="Fill-1" fill="#000000" mask="url(#mask-46)"></path>
                            </g>
                        </g>
                    </g>
                </g>
                <g id="Group-52" mask="url(#mask-2)">
                    <g transform="translate(351.000000, 83.000000)">
                        <g id="Rectangle-Copy-28">
                            <use fill="black" fill-opacity="1" filter="url(#filter-48)" xlink:href="#path-47"></use>
                            <use fill="#FFFFFF" fill-rule="evenodd" xlink:href="#path-47"></use>
                        </g>
                        <g filter="url(#filter-49)" fill-rule="evenodd" id="Group-3" stroke-width="1">
                            <g transform="translate(14.000000, 13.000000)">
                                <mask id="mask-51" fill="white">
                                    <use xlink:href="#path-50"></use>
                                </mask>
                                <g id="Clip-2"></g>
                                <path d="M16.1114,5.844195 C15.2974,5.847345 14.3384,5.844195 13.6474,5.836845 C12.5524,5.836845 11.6514,4.880295 11.6514,3.720045 L11.6514,0.951195 C11.6514,0.498645 12.1694,0.273945 12.4654,0.600495 C13.0004,1.191645 13.7374,2.003295 14.4694,2.811795 C15.2014,3.618195 15.9284,4.422495 16.4514,4.996845 C16.7404,5.314995 16.5284,5.843145 16.1114,5.844195 M15.8384,7.377195 C16.0714,7.374045 16.3244,7.370895 16.5534,7.370895 C16.8014,7.370895 17.0004,7.580895 17.0004,7.843395 L17.0004,16.285395 C17.0004,18.889395 15.0094,21.000945 12.5534,21.000945 L4.6734,21.000945 C2.0984,21.000945 0.0004,18.784395 0.0004,16.054395 L0.0004,4.735395 C0.0004,2.131395 2.0004,0.000945 4.4654,0.000945 L9.7524,0.000945 C10.0094,0.000945 10.2084,0.221445 10.2084,0.483945 L10.2084,3.863895 C10.2084,5.785395 11.7034,7.360395 13.5144,7.370895 C13.9374,7.370895 14.3104,7.374045 14.6374,7.377195 C14.8914,7.379295 15.1184,7.381395 15.3174,7.381395 C15.4584,7.381395 15.6394,7.379295 15.8384,7.377195 M8.7714,8.294895 L5.4254,8.294895 C5.0194,8.294895 4.6824,8.651895 4.6824,9.082395 C4.6824,9.512895 5.0194,9.859395 5.4254,9.859395 L8.7714,9.859395 C9.1774,9.859395 9.5144,9.512895 9.5144,9.082395 C9.5144,8.651895 9.1774,8.294895 8.7714,8.294895 M5.4254,15.109395 L10.8114,15.109395 C11.2174,15.109395 11.5534,14.752395 11.5534,14.321895 C11.5534,13.891395 11.2174,13.544895 10.8114,13.544895 L5.4254,13.544895 C5.0194,13.544895 4.6824,13.891395 4.6824,14.321895 C4.6824,14.752395 5.0194,15.109395 5.4254,15.109395" id="Fill-1" fill="#000000" mask="url(#mask-51)"></path>
                            </g>
                        </g>
                    </g>
                </g>
                <g id="Group-53" mask="url(#mask-2)">
                    <g transform="translate(300.000000, 134.000000)">
                        <g id="Rectangle-Copy-29">
                            <use fill="black" fill-opacity="1" filter="url(#filter-53)" xlink:href="#path-52"></use>
                            <use fill="#FFFFFF" fill-rule="evenodd" xlink:href="#path-52"></use>
                        </g>
                        <g filter="url(#filter-54)" fill-rule="evenodd" id="Group-5" stroke-width="1">
                            <g transform="translate(12.000000, 10.000000)">
                                <path d="M12.7020706,3.53310476 C12.9238353,3.32205714 12.7739529,2.94872381 12.4665412,2.94872381 L3.46365882,2.94872381 C3.33824706,2.94872381 3.23654118,3.05005714 3.23654118,3.17424762 L3.23654118,10.0672 C3.23654118,10.1921524 3.33824706,10.2934857 3.46365882,10.2934857 L12.2524235,10.2934857 C12.5560118,10.2934857 12.7074235,9.92777143 12.4933059,9.7144381 L9.74954118,6.9799619 C9.56830588,6.80091429 9.57212941,6.50910476 9.75642353,6.33386667 L12.7020706,3.53310476 Z" id="Fill-1" fill="#000000"></path>
                                <path d="M2.77282353,14.6670476 L2.24670588,14.6670476 L2.24670588,2.47504762 C2.68182353,2.2632381 2.98388235,1.82209524 2.98388235,1.30628571 C2.98388235,0.58552381 2.39735294,0.000380952381 1.67317647,0.000380952381 C0.949,0.000380952381 0.362470588,0.58552381 0.362470588,1.30628571 C0.362470588,1.82209524 0.663764706,2.26247619 1.09964706,2.47504762 L1.09964706,14.6670476 L0.573529412,14.6670476 C0.256941176,14.6670476 0,14.9230476 0,15.2384762 C0,15.5539048 0.256941176,15.8099048 0.573529412,15.8099048 L2.77282353,15.8099048 C3.08941176,15.8099048 3.34635294,15.5539048 3.34635294,15.2384762 C3.34635294,14.9230476 3.08941176,14.6670476 2.77282353,14.6670476" id="Fill-3" fill="#000000"></path>
                            </g>
                        </g>
                    </g>
                </g>
                <g id="Group-48" mask="url(#mask-2)">
                    <g transform="translate(65.000000, 88.000000)">
                        <g id="Rectangle-Copy-27">
                            <use fill="black" fill-opacity="1" filter="url(#filter-56)" xlink:href="#path-55"></use>
                            <use fill="#FFFFFF" fill-rule="evenodd" xlink:href="#path-55"></use>
                        </g>
                        <g id="Group-37" stroke-width="1" fill-rule="evenodd" transform="translate(14.000000, 12.000000)">
                            <g filter="url(#filter-57)" id="Group-6">
                                <g>
                                    <g id="Group-3" transform="translate(0.000000, 0.450000)">
                                        <mask id="mask-59" fill="white">
                                            <use xlink:href="#path-58"></use>
                                        </mask>
                                        <g id="Clip-2"></g>
                                        <path d="M15.80013,5.37714 C15.80013,6.37614 15.09003,7.21314 14.14773,7.41024 L14.14773,6.59664 L14.14773,3.89304 L15.80013,3.89304 L15.80013,5.37714 Z M3.00303,7.41024 C2.05983,7.21404 1.34973,6.37614 1.34973,5.37714 L1.34973,3.89304 L3.00303,3.89304 L3.00303,6.59664 L3.00303,7.41024 Z M16.02513,2.54304 L14.14773,2.54304 L14.14773,1.12464 C14.14773,0.75204 13.84533,0.44964 13.47273,0.44964 L3.67803,0.44964 C3.30543,0.44964 3.00303,0.75204 3.00303,1.12464 L3.00303,2.54304 L1.07433,2.54304 C0.48123,2.54304 -0.00027,3.02454 -0.00027,3.61674 L-0.00027,5.37714 C-0.00027,7.26624 1.53693,8.80344 3.42693,8.80344 L3.46113,8.80344 C4.23153,10.58364 5.90463,11.88234 7.90083,12.12354 L7.90083,14.05134 L5.45913,14.05134 C5.08653,14.05134 4.78413,14.35374 4.78413,14.72634 C4.78413,15.09894 5.08653,15.40134 5.45913,15.40134 L11.69253,15.40134 C12.06513,15.40134 12.36753,15.09894 12.36753,14.72634 C12.36753,14.35374 12.06513,14.05134 11.69253,14.05134 L9.25083,14.05134 L9.25083,12.12354 C11.24613,11.88234 12.92013,10.58364 13.68963,8.80344 L13.72383,8.80344 C15.61293,8.80344 17.15013,7.26624 17.15013,5.37714 L17.15013,3.66804 C17.15013,3.04704 16.64523,2.54304 16.02513,2.54304 L16.02513,2.54304 Z" id="Fill-1" fill="#000000" mask="url(#mask-59)"></path>
                                    </g>
                                    <path d="M12.58245,16.16661 L4.56885,16.16661 C4.19625,16.16661 3.89385,16.46901 3.89385,16.84161 L3.89385,19.57491 C3.89385,19.94751 4.19625,20.24991 4.56885,20.24991 L12.58245,20.24991 C12.95505,20.24991 13.25745,19.94751 13.25745,19.57491 L13.25745,16.84161 C13.25745,16.46901 12.95505,16.16661 12.58245,16.16661" id="Fill-4" fill="#000000"></path>
                                </g>
                            </g>
                            <g filter="url(#filter-60)" id="Group-3">
                                <g transform="translate(6.300000, 4.500000)">
                                    <mask id="mask-62" fill="white">
                                        <use xlink:href="#path-61"></use>
                                    </mask>
                                    <g id="Clip-2"></g>
                                    <path d="M3.58123317,2.79911101 C3.52296523,2.8585557 3.49619348,2.94452552 3.50969184,3.02907435 L3.70946762,4.19428513 C3.72656555,4.29304385 3.68697035,4.39274989 3.60822989,4.4500631 C3.53128922,4.50927097 3.42892663,4.51613908 3.34501181,4.46900962 L2.34860762,3.92169212 C2.31396183,3.90227194 2.27549149,3.89185135 2.23612126,3.8906672 L2.17515366,3.8906672 C2.15400622,3.89398284 2.13330873,3.90108778 2.11441102,3.91198203 L1.11800684,4.46190468 C1.06851284,4.48795614 1.0127196,4.49695573 0.958276205,4.48795614 C0.824867381,4.46143101 0.736228129,4.32762124 0.75782551,4.18670652 L0.958276205,3.02149575 C0.971324623,2.93647325 0.944552869,2.8502666 0.886284934,2.78963775 L0.0739084361,1.96072764 C0.00596667411,1.89133603 -0.0176554617,1.78736702 0.0136157466,1.6931081 C0.0435371186,1.59955967 0.120477789,1.53111538 0.213391523,1.5154845 L1.33150595,1.34472902 C1.41654564,1.33549259 1.49123658,1.28125819 1.52948195,1.20049866 L2.02217221,0.137362246 C2.03387079,0.113442269 2.04894396,0.0916537744 2.06739172,0.0731809206 L2.08741429,0.0566027185 C2.09798801,0.0442874827 2.11013654,0.03410373 2.1236349,0.025814629 L2.14815693,0.0163413706 L2.18662727,0 L2.28134078,0 C2.36593052,0.00923642688 2.4403965,0.0622866735 2.47931678,0.141862044 L2.97830627,1.20049866 C3.01430191,1.27794255 3.08426842,1.33194012 3.16503363,1.34472902 L4.28314806,1.5154845 C4.3776366,1.52993122 4.456827,1.59861234 4.48787324,1.6931081 C4.51734466,1.78807751 4.49214772,1.89228335 4.42263115,1.96072764 L3.58123317,2.79911101 Z" id="Fill-1" fill="#000000" mask="url(#mask-62)"></path>
                                </g>
                            </g>
                        </g>
                    </g>
                </g>
            </g>
        </g>
    </g>
</svg>