<?xml version="1.0" encoding="UTF-8"?>
<svg width="424px" height="86px" viewBox="0 0 424 86" version="1.1" xmlns="http://www.w3.org/2000/svg" xmlns:xlink="http://www.w3.org/1999/xlink">
    <!-- Generator: Sketch 50.2 (55047) - http://www.bohemiancoding.com/sketch -->
    <title>FileIcons</title>
    <desc>Created with Sketch.</desc>
    <defs></defs>
    <g id="Page-1" stroke="none" stroke-width="1" fill="none" fill-rule="evenodd">
        <g id="FileIcons">
            <g id="Page-1">
                <g id="FileIcons">
                    <g id="if_pdfs_774684">
                        <path d="M20.8,7.6 L20.8,25.4 C20.8,26.6 19.9,27.5 18.7,27.5 L2.6,27.5 C1.4,27.5 0.5,26.6 0.5,25.4 L0.5,2.6 C0.5,2 0.7,1.5 1.1,1.1 C1.5,0.7 2,0.5 2.6,0.5 L13.8,0.5 L20.8,7.6 Z" id="Shape" stroke="#EE3B28" stroke-linejoin="round"></path>
                        <path d="M10.7,9.9 C11,10 10.9,10.2 10.8,11 C10.6,12.3 10.3,13.6 9.8,14.8 C9.2,16.2 8.5,17.6 7.6,18.9 C7.1,19.7 6.4,20.4 5.8,21.1 C5.5,21.4 5.2,21.6 4.8,21.7 C4.6,21.7 4.5,21.7 4.4,21.6 C4.3,21.4 4.3,21.2 4.4,21.1 C4.5,20.8 4.7,20.5 4.9,20.3 C5.4,19.8 6,19.5 6.6,19.2 C7.4,18.8 8.3,18.5 9.1,18.3 C9.8,18.1 10.4,18 11.1,17.8 C11.6,17.7 12.1,17.6 12.6,17.6 C13,17.6 13.5,17.6 13.9,17.6 C14.3,17.6 14.7,17.7 15.1,17.8 C15.5,17.9 15.8,18 16.1,18.2 C16.4,18.4 16.6,18.6 16.7,18.9 C16.8,19.1 16.8,19.4 16.7,19.7 C16.6,19.9 16.4,20.1 16.2,20.1 C15.9,20.2 15.7,20.2 15.4,20.1 C15,20 14.7,19.8 14.4,19.5 C13.9,19.2 13.5,18.8 13.1,18.4 C12.5,17.8 12,17.1 11.5,16.5 C11,15.9 10.6,15.3 10.2,14.6 C10,14.1 9.8,13.6 9.6,13.1 C9.5,12.7 9.4,12.2 9.3,11.8 C9.3,11.5 9.3,11.1 9.3,10.8 C9.3,10.6 9.4,10.3 9.5,10.1 C9.7,10 9.9,9.9 10,9.9 C10.1,9.9 10.1,9.9 10.2,9.9 C10.3,9.9 10.3,9.9 10.4,9.9 L10.7,10.1" id="Shape_1_" stroke="#EE3B28" stroke-linejoin="round"></path>
                        <path d="M20.8,7.1 L20.8,8 L15.2,8 C14,8 13.5,7 13.5,5.8 L13.5,0.6 L14.3,0.6 L20.8,7.1 Z" id="Shape-2" fill="#EE3B28" fill-rule="nonzero"></path>
                    </g>
                    <g id="if_pdfs_774684-2" transform="translate(40.000000, 0.000000)" fill-rule="nonzero">
                        <path d="M21,7.7 L21,25.5 C21,26.1 20.8,26.6 20.4,27 C20,27.4 19.5,27.6 18.9,27.6 L2.8,27.6 C2.2,27.6 1.7,27.4 1.3,27 C0.9,26.6 0.7,26.1 0.7,25.5 L0.7,2.7 C0.7,2.1 0.9,1.6 1.3,1.2 C1.7,0.8 2.2,0.6 2.8,0.6 L14,0.6 L21,7.7 Z" id="Shape-3" stroke="#067FCB" fill-opacity="0.7" fill="#FFFFFF"></path>
                        <path d="M21,7.2 L21,8.1 L15.5,8.1 C14.4,8.1 13.8,7.1 13.8,5.9 L13.8,0.6 L14.6,0.6 L21,7.2 Z" id="Shape-4" fill="#067FCB"></path>
                    </g>
                    <g id="W" transform="translate(44.000000, 7.000000)" fill="#067FCB" font-family="Helvetica" font-size="13.52" font-weight="normal">
                        <text>
                            <tspan x="0.3" y="13.94">W</tspan>
                        </text>
                    </g>
                    <g id="if_pdfs_774684-3" transform="translate(160.000000, 0.000000)" fill-rule="nonzero">
                        <path d="M21,7.6 L21,25.4 C21,26.6 20,27.5 18.9,27.5 L2.9,27.5 C1.7,27.5 0.8,26.5 0.8,25.4 L0.8,2.7 C0.8,1.6 1.7,0.6 2.8,0.6 L14,0.6 L21,7.6 Z" id="Shape-5" stroke="#34494F" fill-opacity="0.7" fill="#FFFFFF"></path>
                        <path d="M21,7.2 L21,8 L15.4,8 C14.2,8 13.7,7 13.7,5.8 L13.7,0.6 L14.6,0.6 L21,7.2 Z" id="Shape-6" fill="#34494F"></path>
                    </g>
                    <g id="W-2" transform="translate(165.000000, 7.000000)" fill="#34494F" font-family="Helvetica" font-size="13.2" font-weight="normal">
                        <text id="X">
                            <tspan x="0.57" y="13.89">X</tspan>
                        </text>
                    </g>
                    <g id="if_pdfs_774684-5" transform="translate(120.000000, 0.000000)" fill="#FFFFFF" fill-opacity="0.7" fill-rule="nonzero" stroke="#EDEDED">
                        <path d="M21.1,7.7 L21.1,25.5 C21.1,26.7 20.2,27.6 19,27.6 L2.9,27.6 C1.7,27.6 0.8,26.6 0.8,25.5 L0.8,2.7 C0.8,1.5 1.7,0.6 2.9,0.6 L14.1,0.6 L21.1,7.7 Z" id="Shape-9"></path>
                    </g>
                    <path d="M130.7,0.9 L130.7,16.8 C130.7,17.1 130.6,17.3 130.3,17.3 C130,17.3 129.8,17.2 129.7,16.9 C129.7,16.8 129.7,16.8 129.7,16.7 L129.7,0.9 C129.7,0.6 129.8,0.4 130.1,0.3 C130.2,0.3 130.4,0.3 130.5,0.4 C130.6,0.5 130.7,0.6 130.7,0.7 C130.7,0.8 130.7,0.9 130.7,0.9 Z" id="Rectangle" fill="#192257" fill-rule="nonzero"></path>
                    <path d="M132.5,9.4 C132.5,9.5 132.5,9.6 132.4,9.7 C132.3,9.8 132.2,9.8 132.1,9.8 L130.2,9.8 C129.9,9.8 129.8,9.5 129.8,9.2 C129.8,9 130,8.8 130.2,8.8 L132.1,8.8 C132.3,8.9 132.5,9.1 132.5,9.4 C132.5,9.3 132.5,9.3 132.5,9.4 Z" id="Rectangle-2-Copy-2" fill="#192257" fill-rule="nonzero"></path>
                    <path d="M132.5,12.2 C132.5,12.3 132.5,12.4 132.4,12.5 C132.3,12.6 132.2,12.6 132.1,12.6 L130.2,12.6 C130,12.6 129.8,12.4 129.8,12.1 C129.8,11.8 130,11.7 130.2,11.6 L132.1,11.6 C132.2,11.6 132.3,11.6 132.4,11.7 C132.5,11.9 132.5,12 132.5,12.2 C132.5,12.1 132.5,12.1 132.5,12.2 Z" id="Rectangle-2-Copy-3" fill="#192257" fill-rule="nonzero"></path>
                    <path d="M132.5,15 C132.5,15.1 132.5,15.2 132.4,15.3 C132.3,15.4 132.2,15.4 132.1,15.4 L130.2,15.4 C130,15.4 129.8,15.2 129.8,14.9 C129.8,14.6 130,14.5 130.2,14.4 L132.1,14.4 C132.2,14.4 132.3,14.4 132.4,14.5 C132.5,14.7 132.5,14.8 132.5,15 C132.5,14.9 132.5,15 132.5,15 Z" id="Rectangle-2-Copy-4" fill="#192257" fill-rule="nonzero"></path>
                    <path d="M130.7,8.4 C130.7,8.5 130.7,8.6 130.6,8.7 C130.5,8.8 130.4,8.8 130.3,8.8 L128.4,8.8 C128.2,8.8 128,8.6 128,8.3 C128,8 128.2,7.9 128.4,7.8 L130.3,7.8 C130.4,7.8 130.5,7.8 130.6,7.9 C130.6,8.1 130.6,8.2 130.7,8.4 Z" id="Rectangle-2-Copy-2-3" fill="#192257" fill-rule="nonzero"></path>
                    <path d="M130.7,11.2 C130.7,11.4 130.5,11.7 130.3,11.7 L128.4,11.7 C128.1,11.7 128,11.4 128,11.1 C128,10.9 128.2,10.7 128.4,10.7 L130.3,10.7 C130.4,10.7 130.6,10.9 130.7,11.2 Z" id="Rectangle-2-Copy-3-2" fill="#192257" fill-rule="nonzero"></path>
                    <path d="M130.7,14 C130.7,14.2 130.5,14.5 130.3,14.5 L128.4,14.5 C128.1,14.5 128,14.2 128,14 C128,13.8 128.2,13.6 128.4,13.6 L130.3,13.6 C130.4,13.5 130.6,13.7 130.7,14 Z" id="Rectangle-2-Copy-4-2" fill="#192257" fill-rule="nonzero"></path>
                    <rect id="Rectangle-3" fill="#192257" fill-rule="nonzero" x="129.2" y="16.9" width="1.9" height="1.9"></rect>
                    <g id="if_pdfs_774684-4" transform="translate(200.000000, 0.000000)" fill-rule="nonzero">
                        <path d="M21,7.6 L21,25.4 C21,26.5 20,27.5 18.9,27.5 L2.8,27.5 C1.6,27.5 0.7,26.5 0.7,25.4 L0.7,2.7 C0.7,2.1 0.9,1.6 1.3,1.2 C1.7,0.8 2.2,0.6 2.8,0.6 L14,0.6 L21,7.6 Z" id="Shape-7" stroke="#06CBBE" fill-opacity="0.7" fill="#FFFFFF"></path>
                        <path d="M21,7.2 L21,8 L15.5,8 C14.3,8 13.8,7 13.8,5.8 L13.8,0.6 L14.7,0.6 L21,7.2 Z" id="Shape-8" fill="#06CBBE"></path>
                    </g>
                    <rect id="Rectangle-4" stroke="#06CBBE" stroke-linecap="round" stroke-linejoin="round" x="204.9" y="10.2" width="11.9" height="8.2"></rect>
                    <circle id="Oval" stroke="#06CBBE" stroke-linecap="round" stroke-linejoin="round" cx="208.3" cy="14.4" r="1.4"></circle>
                    <path d="M210.2,18.5 L206.5,22.2" id="Line" stroke="#06CBBE" stroke-linecap="round" stroke-linejoin="round"></path>
                    <path d="M211.3,18.5 L215,22.2" id="Line-2" stroke="#06CBBE" stroke-linecap="round" stroke-linejoin="round"></path>
                    <path d="M204,10.2 L217.7,10.2" id="Line-3" stroke="#06CBBE" stroke-linecap="round" stroke-linejoin="round"></path>
                    <path d="M204,18.5 L217.7,18.5" id="Line-3-2" stroke="#06CBBE" stroke-linecap="round" stroke-linejoin="round"></path>
                    <path d="M212.1,13.3 L214.8,13.3" id="Line-2-2" stroke="#06CBBE" stroke-linecap="round" stroke-linejoin="round"></path>
                    <path d="M212.1,15.1 L213.9,15.1" id="Line-Copy" stroke="#06CBBE" stroke-linecap="round" stroke-linejoin="round"></path>
                    <g id="if_pdfs_774684-6" transform="translate(240.000000, 0.000000)" fill-rule="nonzero">
                        <path d="M21,7.6 L21,25.4 C21,26.5 20,27.5 18.9,27.5 L2.8,27.5 C1.6,27.5 0.7,26.5 0.7,25.4 L0.7,2.7 C0.7,2.1 0.9,1.6 1.3,1.2 C1.7,0.8 2.2,0.6 2.8,0.6 L14,0.6 L21,7.6 Z" id="Shape-10" stroke="#4CB9E1" fill-opacity="0.7" fill="#FFFFFF"></path>
                        <path d="M21,7.2 L21,8 L15.4,8 C14.3,8 13.7,7 13.7,5.8 L13.7,0.6 L14.5,0.6 L21,7.2 Z" id="Shape-11" fill="#4CB9E1"></path>
                    </g>
                    <path d="M246.1,18.6 L255.5,18.6 C255.9,18.6 256.2,18.3 256.2,17.9 C256.2,17.8 256.2,17.7 256.1,17.5 C255.2,15.9 254.1,14.3 252.9,12.9 C252.8,12.8 252.6,12.8 252.5,12.9 C251.5,13.6 250.6,14.4 249.9,15.3 C249.7,15.6 249.2,15.7 248.9,15.4 C248.5,15.1 248.1,14.9 247.6,14.8 C247,14.8 246.3,16 245.5,17.4 C245.3,17.8 245.5,18.2 245.9,18.4 C245.9,18.5 246,18.5 246.1,18.6 Z" id="Shape_2_" stroke="#4CB9E1" stroke-width="0.75" stroke-linecap="round"></path>
                    <circle id="Oval_1_" stroke="#4CB9E1" stroke-width="0.75" stroke-linecap="round" cx="247" cy="11.3" r="1.9"></circle>
                    <g id="if_pdfs_774684-7" transform="translate(283.000000, 0.000000)" fill-rule="nonzero">
                        <path d="M21.1,7.7 L21.1,25.4 C21.1,26.6 20.2,27.5 19,27.5 L3,27.5 C1.8,27.5 0.9,26.5 0.9,25.4 L0.9,2.7 C0.9,2.1 1.1,1.6 1.5,1.2 C1.9,0.8 2.4,0.5 3,0.5 L14.2,0.5 L21.1,7.7 Z" id="Shape-12" stroke="#906FD4" fill-opacity="0.7" fill="#FFFFFF"></path>
                        <path d="M21.1,7.2 L21.1,8.1 L15.5,8.1 C14.4,8.1 13.8,7.1 13.8,5.9 L13.8,0.5 L14.6,0.5 L21.1,7.2 Z" id="Shape-13" fill="#906FD4"></path>
                    </g>
                    <g id="GIF" transform="translate(287.000000, 10.000000)" fill="#906FD4" font-family="Helvetica" font-size="7.92" font-weight="normal">
                        <text>
                            <tspan x="0.41" y="8.28">GIF</tspan>
                        </text>
                    </g>
                    <g id="if_pdfs_774684-8" transform="translate(323.000000, 0.000000)" fill-rule="nonzero">
                        <path d="M21.1,7.7 L21.1,25.4 C21.1,26.6 20.2,27.5 19,27.5 L2.9,27.5 C2.3,27.5 1.8,27.3 1.4,26.9 C1,26.6 0.8,26 0.8,25.5 L0.8,2.7 C0.8,2.1 1,1.6 1.4,1.2 C1.8,0.8 2.3,0.6 2.9,0.6 L14.1,0.6 L21.1,7.7 Z" id="Shape-14" stroke="#FF8C3E" fill-opacity="0.7" fill="#FFFFFF"></path>
                        <path d="M21.1,7.2 L21.1,8.1 L15.5,8.1 C14.3,8.1 13.8,7.1 13.8,5.9 L13.8,0.6 L14.6,0.6 L21.1,7.2 Z" id="Shape-15" fill="#FF8C3E"></path>
                    </g>
                    <g id="if_pdfs_774684-9" transform="translate(79.000000, 0.000000)" fill-rule="nonzero">
                        <path d="M21,7.6 L21,25.4 C21,26.5 20.1,27.5 19,27.5 L2.8,27.5 C1.6,27.5 0.7,26.5 0.7,25.4 L0.7,2.6 C0.7,2 0.9,1.5 1.3,1.1 C1.7,0.7 2.2,0.5 2.8,0.5 L14,0.5 L21,7.6 Z" id="Shape-16" stroke="#FF488A" fill-opacity="0.7" fill="#FFFFFF"></path>
                        <path d="M21,7.1 L21,8 L15.5,8 C14.4,8 13.8,7 13.8,5.8 L13.8,0.6 L14.7,0.6 L21,7.1 Z" id="Shape-17" fill="#FF488A"></path>
                    </g>
                    <g id="if_pdfs_774684-10" transform="translate(363.000000, 0.000000)" fill-rule="nonzero">
                        <path d="M20.8,7.7 L20.8,25.4 C20.8,26.6 19.9,27.5 18.7,27.5 L2.6,27.5 C1.4,27.5 0.5,26.5 0.5,25.4 L0.5,2.7 C0.5,2.1 0.7,1.6 1.1,1.2 C1.5,0.8 2,0.5 2.6,0.5 L13.8,0.5 L20.8,7.7 Z" id="Shape-18" stroke="#DBDBDB" fill-opacity="0.7" fill="#FFFFFF"></path>
                        <path d="M20.8,7.2 L20.8,8.1 L15.2,8.1 C14.1,8.1 13.5,7.1 13.5,5.9 L13.5,0.5 L14.3,0.5 L20.8,7.2 Z" id="Shape-19" fill="#DBDBDB"></path>
                    </g>
                    <g id="if_pdfs_774684-11" transform="translate(403.000000, 0.000000)">
                        <path d="M20.4,7.7 L20.4,25.4 C20.4,26.6 19.5,27.5 18.3,27.5 L2.2,27.5 C1,27.5 0.1,26.5 0.1,25.4 L0.1,2.7 C0.1,2.1 0.3,1.6 0.7,1.2 C1.1,0.8 1.6,0.6 2.2,0.6 L13.4,0.6 L20.4,7.7 Z" id="Shape-20" stroke="#636D72"></path>
                        <path d="M20.4,7.2 L20.4,8.1 L14.8,8.1 C13.7,8.1 13.1,7.1 13.1,5.9 L13.1,0.5 L14,0.5 L20.4,7.2 Z" id="Shape-21" fill="#636D72" fill-rule="nonzero"></path>
                    </g>
                    <g id="GIF-2" transform="translate(326.000000, 10.000000)" fill="#FF8C3E" font-family="Helvetica" font-size="7.92" font-weight="normal">
                        <text id="&lt;">
                            <tspan x="0.94" y="8.28">&lt;</tspan>
                        </text>
                    </g>
                    <g id="GIF-3" transform="translate(335.000000, 10.000000)" fill="#FF8C3E" font-family="Helvetica" font-size="7.92" font-weight="normal">
                        <text id="&lt;" transform="translate(2.980500, 5.280000) scale(-1, 1) translate(-2.980500, -5.280000) ">
                            <tspan x="0.4805" y="8.28">&lt;</tspan>
                        </text>
                    </g>
                    <g id="GIF-4" transform="translate(333.000000, 9.000000)" fill="#FF8C3E" font-family="Helvetica" font-size="9.24" font-weight="normal">
                        <text id="\" transform="translate(2.080100, 6.290000) scale(-1, 1) translate(-2.080100, -6.290000) ">
                            <tspan x="0.5801" y="9.79">\</tspan>
                        </text>
                    </g>
                    <path d="M93.6,10.6 C93.6,10.6 93.6,10.5 93.5,10.5 L87.5,11.3 C87.4,11.3 87.3,11.4 87.3,11.5 L87.3,18.5 C86.9,18 86.4,17.8 85.8,17.8 C84.9,17.9 84.1,18.7 84.2,19.7 C84.3,20.7 85.1,21.4 86,21.4 C87,21.4 87.7,20.6 87.7,19.6 L87.7,13.7 L93.4,12.9 L93.4,16.5 C93,16.1 92.4,15.8 91.9,15.8 C91,15.9 90.2,16.7 90.3,17.7 C90.4,18.6 91.2,19.4 92.1,19.4 C93,19.4 93.8,18.6 93.8,17.7 L93.6,10.6" id="Fill-1" fill="#FF488A" fill-rule="nonzero"></path>
                    <g id="if_pdfs_774684-12" transform="translate(120.000000, 0.000000)" stroke="#192257">
                        <path d="M21.1,7.7 L21.1,25.5 C21.1,26.7 20.2,27.6 19,27.6 L2.9,27.6 C1.7,27.6 0.8,26.6 0.8,25.5 L0.8,2.7 C0.8,1.5 1.7,0.6 2.9,0.6 L14.1,0.6 L21.1,7.7 Z" id="Shape-22"></path>
                    </g>
                    <path d="M130.7,2.8 C130.7,2.9 130.7,3 130.6,3.1 C130.5,3.2 130.4,3.2 130.3,3.2 L128.4,3.2 C128.3,3.2 128.2,3.2 128.1,3.1 C128,3 128,2.9 128,2.8 C128,2.7 128,2.6 128.1,2.5 C128.2,2.4 128.3,2.4 128.4,2.3 L130.3,2.3 C130.4,2.4 130.6,2.6 130.7,2.8 Z" id="Rectangle-2" fill="#192257" fill-rule="nonzero"></path>
                    <path d="M132.5,3.8 C132.5,3.9 132.5,4 132.4,4.1 C132.3,4.2 132.2,4.2 132.1,4.2 L130.1,4.2 C129.9,4.2 129.7,4 129.6,3.8 C129.6,3.6 129.8,3.4 130,3.3 L131.9,3.3 C132,3.3 132.1,3.3 132.2,3.4 C132.5,3.5 132.5,3.6 132.5,3.8 Z" id="Rectangle-2-2" fill="#192257" fill-rule="nonzero"></path>
                    <path d="M132.5,6.5 C132.5,6.6 132.5,6.7 132.4,6.8 C132.3,7 132.2,7 132.1,7 L130.2,7 C129.9,7 129.8,6.7 129.8,6.4 C129.8,6.2 130,6 130.2,6 L132.1,6 C132.3,6.1 132.5,6.2 132.5,6.5 C132.5,6.5 132.5,6.5 132.5,6.5 Z" id="Rectangle-2-Copy" fill="#192257" fill-rule="nonzero"></path>
                    <path d="M130.7,5.6 C130.7,5.7 130.7,5.8 130.6,5.9 C130.5,6 130.4,6 130.3,6 L128.4,6 C128.3,6 128.2,6 128.1,5.9 C128,5.8 128,5.7 128,5.6 C128,5.5 128,5.4 128.1,5.3 C128.2,5.2 128.3,5.2 128.4,5.1 C128.4,5.1 128.4,5.1 128.5,5.1 L130.4,5.1 C130.5,5.1 130.6,5.1 130.7,5.2 C130.6,5.3 130.7,5.5 130.7,5.6 Z" id="Rectangle-2-Copy-2-2" fill="#192257" fill-rule="nonzero"></path>
                </g>
            </g>
            <g id="surface1" transform="translate(0.000000, 48.000000)" fill="#E64A19" fill-rule="nonzero">
                <polygon id="Shape" points="0 7.7 20.7 0.2 32 3 32 35 20.7 37.8 0 30.3 20.7 33.1 20.7 5.8 7.5 8.6 7.5 27.4 0 30.3"></polygon>
            </g>
            <g id="Layer_3" transform="translate(49.000000, 47.000000)" fill-rule="nonzero">
                <path d="M28.2,0.8 C23.2,0.8 10.8,0.8 5.8,0.8 C4.9,0.8 4.2,1.5 4.2,2.4 C4.2,4.8 4.2,4.8 4.2,4.8 L29.8,4.8 C29.8,4.8 29.8,4.8 29.8,2.4 C29.8,1.5 29.1,0.8 28.2,0.8 Z M9,3.2 C8.6,3.2 8.2,2.8 8.2,2.4 C8.2,2 8.6,1.6 9,1.6 C9.4,1.6 9.8,2 9.8,2.4 C9.8,2.8 9.4,3.2 9,3.2 Z M25,3.2 C24.6,3.2 24.2,2.8 24.2,2.4 C24.2,2 24.6,1.6 25,1.6 C25.4,1.6 25.8,2 25.8,2.4 C25.8,2.8 25.4,3.2 25,3.2 Z" id="Shape" fill="#C7C7C7"></path>
                <path d="M33,5.6 C33.1,5.1 31.9,4 31.4,4 C25.7,4 8.3,4 2.6,4 C1.8,4 0.9,5.1 1,5.6 C1.7,9.3 3.4,17.6 3.4,17.6 L30.6,17.6 C30.6,17.6 32.3,9.3 33,5.6 Z" id="Shape" fill="#1976D2"></path>
                <path d="M30.6,17.6 L3.4,17.6 C3.4,17.6 1.7,25.9 1,29.6 C1,30.5 1.6,31.2 2.6,31.2 C8.3,31.2 25.7,31.2 31.4,31.2 C31.9,31.2 33,30.8 33,29.6 C32.3,25.9 30.6,17.6 30.6,17.6 Z" id="Shape" fill="#1E88E5"></path>
                <path d="M14.2,17.6 C15,17.9 15.5,18.3 15.9,18.8 C16.2,19.4 16.4,20 16.4,20.8 C16.4,22.1 16,23.1 15.2,23.8 C14.4,24.5 13.3,24.9 12,24.9 C10.7,24.9 9.7,24.6 8.9,23.9 C8.1,23.2 7.7,22.3 7.7,21.1 L7.7,21 L9.5,21 C9.5,21.7 9.7,22.3 10.2,22.7 C10.6,23.1 11.3,23.3 12,23.3 C12.8,23.3 13.4,23.1 13.9,22.7 C14.4,22.3 14.6,21.6 14.6,20.8 C14.6,19.9 14.4,19.3 14,18.9 C13.6,18.5 13,18.3 12.1,18.3 L10.5,18.3 L10.5,17.6 L14.2,17.6 Z" id="Shape" fill="#FAFAFA"></path>
                <rect id="Rectangle-path" fill="#FAFAFA" x="23.1" y="17.6" width="1.9" height="7.1"></rect>
                <path d="M9.6,14.4 L7.8,14.4 L7.8,14.3 C7.8,13.3 8.1,12.4 8.9,11.6 C9.7,10.9 10.7,10.5 12,10.5 C13.3,10.5 14.3,10.8 15.1,11.5 C15.9,12.2 16.2,13.2 16.2,14.4 C16.2,15 16,15.5 15.7,16.1 C15.4,16.7 14.8,17.1 14.1,17.4 L14.2,17.4 L10.4,17.4 L10.4,16.7 L12,16.7 C12.8,16.7 13.4,16.5 13.8,16.1 C14.2,15.7 14.3,15.1 14.3,14.4 C14.3,13.6 14.1,13 13.7,12.6 C13.3,12.2 12.7,12 12,12 C11.3,12 10.7,12.2 10.2,12.6 C9.8,13.1 9.6,13.7 9.6,14.4 Z" id="Shape" fill="#E0E0E0"></path>
                <polygon id="Shape" fill="#E0E0E0" points="25 17.6 23.1 17.6 23.1 12.6 20.3 12.7 20.3 11.3 25 10.8"></polygon>
                <path d="M2.6,4 C1.5,4 0.9,5.1 1,5.6 C1.7,9.3 3.4,17.6 3.4,17.6" id="Shape" fill="#1976D2"></path>
                <path d="M30.6,17.6 C30.6,17.6 32.3,9.3 33,5.6 C33,4.3 31.9,4 31.4,4" id="Shape" fill="#1976D2"></path>
            </g>
        </g>
    </g>
</svg>