<?xml version="1.0" encoding="UTF-8"?>
<svg width="425px" height="318px" viewBox="0 0 425 318" version="1.1" xmlns="http://www.w3.org/2000/svg" xmlns:xlink="http://www.w3.org/1999/xlink">
    <!-- Generator: Sketch 50.2 (55047) - http://www.bohemiancoding.com/sketch -->
    <title>FileIcons</title>
    <desc>Created with Sketch.</desc>
    <defs></defs>
    <g id="Page-1" stroke="none" stroke-width="1" fill="none" fill-rule="evenodd">
        <g id="FileIcons" transform="translate(1.000000, 1.000000)">
            <g id="Page-1_2_" transform="translate(0.000000, 47.000000)" fill-rule="nonzero">
                <g id="FileIcons_2_">
                    <g id="Page-1_1_">
                        <g id="FileIcons_1_">
                            <g id="surface1" transform="translate(0.000000, 1.000000)" fill="#E64A19">
                                <polygon id="Shape_3_" points="0 7.7 20.7 0.2 32 3 32 35 20.7 37.8 0 30.3 20.7 33.1 20.7 5.8 7.5 8.6 7.5 27.4 0 30.3"></polygon>
                            </g>
                            <g id="Layer_3" transform="translate(49.000000, 0.000000)">
                                <path d="M28.2,0.8 C23.2,0.8 10.8,0.8 5.8,0.8 C4.9,0.8 4.2,1.5 4.2,2.4 C4.2,4.8 4.2,4.8 4.2,4.8 L29.8,4.8 C29.8,4.8 29.8,4.8 29.8,2.4 C29.8,1.5 29.1,0.8 28.2,0.8 Z M9,3.2 C8.6,3.2 8.2,2.8 8.2,2.4 C8.2,2 8.6,1.6 9,1.6 C9.4,1.6 9.8,2 9.8,2.4 C9.8,2.8 9.4,3.2 9,3.2 Z M25,3.2 C24.6,3.2 24.2,2.8 24.2,2.4 C24.2,2 24.6,1.6 25,1.6 C25.4,1.6 25.8,2 25.8,2.4 C25.8,2.8 25.4,3.2 25,3.2 Z" id="Shape_4_" fill="#C7C7C7"></path>
                                <path d="M33,5.6 C33.1,5.1 31.9,4 31.4,4 C25.7,4 8.3,4 2.6,4 C1.8,4 0.9,5.1 1,5.6 C1.7,9.3 3.4,17.6 3.4,17.6 L30.6,17.6 C30.6,17.6 32.3,9.3 33,5.6 Z" id="Shape_5_" fill="#1976D2"></path>
                                <path d="M30.6,17.6 L3.4,17.6 C3.4,17.6 1.7,25.9 1,29.6 C1,30.5 1.6,31.2 2.6,31.2 C8.3,31.2 25.7,31.2 31.4,31.2 C31.9,31.2 33,30.8 33,29.6 C32.3,25.9 30.6,17.6 30.6,17.6 Z" id="Shape_6_" fill="#1E88E5"></path>
                                <path d="M14.2,17.6 C15,17.9 15.5,18.3 15.9,18.8 C16.2,19.4 16.4,20 16.4,20.8 C16.4,22.1 16,23.1 15.2,23.8 C14.4,24.5 13.3,24.9 12,24.9 C10.7,24.9 9.7,24.6 8.9,23.9 C8.1,23.2 7.7,22.3 7.7,21.1 L7.7,21 L9.5,21 C9.5,21.7 9.7,22.3 10.2,22.7 C10.6,23.1 11.3,23.3 12,23.3 C12.8,23.3 13.4,23.1 13.9,22.7 C14.4,22.3 14.6,21.6 14.6,20.8 C14.6,19.9 14.4,19.3 14,18.9 C13.6,18.5 13,18.3 12.1,18.3 L10.5,18.3 L10.5,17.6 L14.2,17.6 Z" id="Shape_7_" fill="#FAFAFA"></path>
                                <rect id="Rectangle-path" fill="#FAFAFA" x="23.1" y="17.6" width="1.9" height="7.1"></rect>
                                <path d="M9.6,14.4 L7.8,14.4 L7.8,14.3 C7.8,13.3 8.1,12.4 8.9,11.6 C9.7,10.9 10.7,10.5 12,10.5 C13.3,10.5 14.3,10.8 15.1,11.5 C15.9,12.2 16.2,13.2 16.2,14.4 C16.2,15 16,15.5 15.7,16.1 C15.4,16.7 14.8,17.1 14.1,17.4 L14.2,17.4 L10.4,17.4 L10.4,16.7 L12,16.7 C12.8,16.7 13.4,16.5 13.8,16.1 C14.2,15.7 14.3,15.1 14.3,14.4 C14.3,13.6 14.1,13 13.7,12.6 C13.3,12.2 12.7,12 12,12 C11.3,12 10.7,12.2 10.2,12.6 C9.8,13.1 9.6,13.7 9.6,14.4 Z" id="Shape_8_" fill="#E0E0E0"></path>
                                <polygon id="Shape_9_" fill="#E0E0E0" points="25 17.6 23.1 17.6 23.1 12.6 20.3 12.7 20.3 11.3 25 10.8"></polygon>
                                <path d="M2.6,4 C1.5,4 0.9,5.1 1,5.6 C1.7,9.3 3.4,17.6 3.4,17.6" id="Shape_10_" fill="#1976D2"></path>
                                <path d="M30.6,17.6 C30.6,17.6 32.3,9.3 33,5.6 C33,4.3 31.9,4 31.4,4" id="Shape_11_" fill="#1976D2"></path>
                            </g>
                        </g>
                    </g>
                    <g id="Layer_2_1_" transform="translate(1.000000, 90.000000)">
                        <g id="Layer_1-2">
                            <path d="M191.7,113.2 L91.2,171.2 C62.4,187.8 25.6,177.9 9,149.1 C-7.6,120.3 2.3,83.5 31.1,66.8 L131.6,8.8 C160.4,-7.8 197.2,2.1 213.8,30.9 C230.4,59.7 220.5,96.5 191.7,113.2 Z" id="Shape_12_" fill="#F0F7FC"></path>
                            <path d="M172.4,132.8 L156.1,8.7 C155.9,6.9 154.2,5.7 152.5,5.9 L65.5,17.4 C63.7,17.6 62.5,19.3 62.7,21 L76.3,124.4 C74.3,124.7 68.4,125.5 66.8,125.5 C66,125.5 64,127.2 61.9,129.1 C60.2,128.4 58.4,127.9 56.6,127.5 C56.3,127.5 53.9,125.9 52.9,125.8 C52.8,125.8 52.6,125.8 52.5,125.9 C54.1,123.5 55.1,122.1 55.1,122.1 L47.5,117.6 C45,119.8 36.4,128.6 32.5,144 L40.5,146.7 C40.8,146 41.2,145.3 41.5,144.7 C41.6,144.9 43,146.2 43.2,146.6 C44,148 45,149.4 46.1,150.5 C44.8,151.4 43.6,152.5 43.5,153.3 C43.2,155.8 47.3,158 48.4,158 C49.2,158 50.5,156.7 51.4,154.9 L52.6,155.7 C52.4,156 52.3,156.3 52.3,156.6 C52.6,159.2 56.6,160.9 58.1,159.8 C58.3,159.6 58.6,159.4 58.9,159.1 L60,159.6 C60.8,160.8 62.5,162.2 63.7,161.7 C63.9,161.6 64.1,161.5 64.3,161.3 L65,161.6 C64.9,163.1 67.3,164.7 68.8,164 C69.2,163.7 69.6,163.4 69.9,163 C70.2,163.1 70.6,163.1 70.9,163.1 C71.5,163.8 74.7,164 75.5,164 C76.3,164 78.8,162.6 78.4,161.5 C78.4,161.4 78.3,161.3 78.2,161.2 C78.8,161.3 79.4,161.4 80,161.5 C81.4,161.5 83.5,159.2 83,157.9 C82.9,157.7 82.6,157.5 82.1,157.3 C83.2,157.6 84.2,157.8 85.3,157.9 C87,157.9 89.2,155.3 88.6,153.7 C88.2,153.1 87.6,152.6 87,152.3 C88.6,153 90.4,153.4 92.1,153.6 C93.9,153.6 96,150.2 95.5,148.7 C94.9,147.8 94.2,147 93.3,146.4 L169.8,136.3 C171.4,136.2 172.6,134.6 172.4,132.8 Z M70.8,132.9 C71.4,132.7 72.1,132.8 72.7,133 C73.1,133.4 73.5,133.9 73.8,134.4 L70.8,132.9 Z M99.8,55.3 C100.2,55.1 100.6,54.9 101.1,54.6 C101.1,54.6 95.8,62.4 99.8,65.1 C103.9,67.8 108.6,71.1 117.6,70.5 C126.6,69.9 137.6,66.8 135.6,61.7 C133.6,56.6 131.3,51.2 131.3,51.2 C137.3,52.7 141.4,55.7 142,59.7 C142.9,66.6 132.3,73.6 118.3,75.5 C104.3,77.4 92.3,73.3 91.4,66.4 C90.8,62.4 94.1,58.4 99.8,55.3 Z M87.9,95.6 C87.7,94.1 88.7,92.8 90.1,92.6 L148.1,85 C149.5,84.8 150.8,85.8 151,87.2 L151,87.3 C151.2,88.7 150.2,90 148.8,90.2 L90.8,97.9 C89.4,98 88.1,97 87.9,95.6 Z M89.5,107.9 C89.3,106.4 90.3,105.1 91.7,104.9 L149.7,97.3 C151.1,97.1 152.4,98.1 152.6,99.5 L152.6,99.6 C152.8,101 151.8,102.3 150.4,102.5 L92.4,110.1 C91,110.3 89.7,109.3 89.5,107.9 Z M152.1,114.8 L97.4,122 C95.6,120.1 94,118.6 92.6,117.4 C92.8,117.3 93.1,117.2 93.3,117.2 L151.3,109.6 C152.7,109.4 154,110.4 154.2,111.8 L154.2,111.9 C154.5,113.3 153.5,114.6 152.1,114.8 Z" id="Shape_13_" fill="#FFFFFF"></path>
                            <path d="M120.9,47.4 C120.2,48.4 119.3,49.3 118.3,50 C116.4,51.5 111.1,51.3 109.9,51.1 C108.7,50.9 108.3,49.3 108.3,49.3 C104.6,49.2 104.4,47.3 102.6,45.1 C100.8,42.9 101,36.2 101,36.2 C101,36.2 110.7,34.2 113.8,34.5 C116.9,34.8 117,37.3 117.4,38.2 C117.8,39.1 118,42.4 119,42.3 C120,42.2 120.1,39.1 120.7,38.2 C121.3,37.3 121.5,39.1 121.5,39.7 C121.5,40.3 120.3,42.6 120.1,43.6 C119.9,44.6 120.9,47.4 120.9,47.4 Z" id="Shape_14_" fill="#FCD0A7"></path>
                            <path d="M31.1,107.9 L46,117.1 C39.7,125.1 34.7,134.1 31.4,143.7 L15.8,138.4 C15.9,138.4 15.2,119.8 31.1,107.9 Z M108.2,55.4 L107.5,54.2 C107.4,54 107.1,53.9 106.9,54 C105.6,54.9 101.3,58.3 101.5,63.8 C101.5,63.9 101.6,64.1 101.7,64.1 L105.7,66.4 C105.9,66.5 106.1,66.4 106.3,66.2 L106.3,66.1 L106.7,58 C106.7,57.7 106.9,57.4 107.1,57.2 L108.5,56 C108.5,55.9 108.5,55.8 108.5,55.7 L108.2,55.4 Z M125.2,52 C125.2,52 120.2,54.1 119,55.7 C118,57.1 112.9,66.1 111.6,68.5 C111.5,68.7 111.6,68.9 111.8,69.1 C111.9,69.1 111.9,69.1 112,69.2 C114.6,69.3 120.8,69.5 122.4,69.5 C122.6,69.5 122.8,69.3 122.8,69.1 C122.8,68.9 123,68.7 123.2,68.7 C123.4,68.7 123.5,68.8 123.6,69 C123.7,69.2 123.8,69.3 124,69.3 C127.4,68.8 130.6,67.4 133.4,65.4 C133.5,65.3 133.6,65.1 133.5,65 C131.9,57.2 127.2,53.1 125.2,52 Z" id="Shape_15_" fill="#4964A5"></path>
                            <path d="M124.4,130 L107.9,136.9 C102.9,126 91.2,115.3 91.2,115.3 L104.9,102.5 C122.7,110.5 124.4,130 124.4,130 Z" id="Shape_16_" fill="#444444"></path>
                            <path d="M122.8,25.2 C126.3,28.7 125.2,36.8 124.3,40 C123.6,42 122.3,43.7 120.5,44.8 C120.2,44.5 119.9,44 119.9,43.6 C119.8,42.7 120.9,41.3 120.9,41.3 C122.4,39.3 121.3,37.7 120,37.5 C118.7,37.3 119.4,39.8 118.8,41.6 C118.2,43.4 117.5,41.8 117.6,39.1 C117.8,36.9 116.4,34.9 114.3,34.3 C112.5,33.7 105.2,35.5 100.7,34.3 C96.2,33.1 95.1,28.9 98.5,24.1 C101.9,19.3 111.2,20.2 111.2,20.2 C111.2,20.2 119.3,21.7 122.8,25.2 Z M174.8,41.6 C175.1,41 176.6,40.8 177.3,40.8 L177.3,39.8 C177,39.8 174.7,39.9 174,41.1 C173.7,41.6 173.7,42.3 174,42.8 C174.3,43.3 174.1,43.6 174.1,43.7 C173.8,44.3 172.5,44.5 172.1,44.6 L172.2,45.6 C172.4,45.6 174.3,45.4 175,44.2 C175.3,43.6 175.3,43 174.9,42.4 C174.7,41.8 174.8,41.7 174.8,41.6 Z" id="Shape_17_" fill="#FBB03B"></path>
                            <path d="M110.2,60.5 C110.2,60.6 110.1,60.7 110.1,60.8 L110.8,68.1 C110.8,68.3 110.7,68.5 110.4,68.6 C110.3,68.6 110.3,68.6 110.2,68.6 L107,67.3 C106.8,67.2 106.7,67 106.8,66.8 L108.6,60.5 C108.6,60.5 108.6,60.4 108.6,60.3 L108.5,56.1 L109.5,54.6 L109.9,54.5 L110.1,54.9 L111.7,57.7 L110.2,60.5 Z M143.5,16.1 C143,15.4 142.2,14.9 141.3,14.9 C140.8,14.9 140.4,14.7 140.1,14.3 C139.5,13.2 140.5,10.9 141,10.1 L140,9.7 C139.8,10.1 138.2,13.1 139.1,14.9 C139.5,15.6 140.3,16 141.1,16 C141.7,16 142.2,16.2 142.5,16.7 C143.1,17.7 142.4,19.6 142.1,20.2 L143,20.6 C143.2,20.5 144.5,17.8 143.5,16.1 Z" id="Shape_18_" fill="#ED1E79"></path>
                            <path d="M106.8,42.8 C107,42.9 107.3,42.9 107.6,42.9 C108.1,42.9 108.6,42.7 109,42.5 C109.1,42.4 109.2,42.3 109.2,42.1 L108.7,38.4 C108.7,38.2 108.5,38.1 108.3,38.1 C108.2,38.1 108.1,38.2 108,38.3 C107.5,39 106,41.4 106.4,42.4 C106.4,42.6 106.6,42.8 106.8,42.8 Z M108.1,39.6 L108.4,42 C108,42.2 107.5,42.3 107.1,42.1 C107.2,41.2 107.5,40.3 108.1,39.6 Z M104.9,43.5 C104.8,43.6 104.8,43.8 104.9,43.9 C106,45.6 107.1,46.5 108.3,46.5 L108.5,46.5 C110.5,46.3 111.7,43.6 111.7,43.5 C111.8,43.3 111.7,43.1 111.6,43 C111.5,42.9 111.3,42.9 111.1,43 C110.3,43.7 107.1,43.5 105.3,43.2 C105.1,43.2 105,43.3 104.9,43.5 Z M110.5,44.1 C110.1,44.9 109.3,45.5 108.4,45.7 C107.6,45.8 106.8,45.2 106,44.1 C107.5,44.4 109,44.3 110.5,44.1 Z M112.6,40.2 L112.8,40.2 C113.5,40.1 114,39.4 113.9,38.7 C113.8,38 113.1,37.5 112.4,37.6 C111.7,37.7 111.2,38.4 111.3,39.1 C111.4,39.4 111.5,39.8 111.8,40 C112.1,40.1 112.3,40.2 112.6,40.2 Z M112.6,38.3 C113,38.3 113.2,38.5 113.2,38.8 C113.2,39.1 113,39.4 112.7,39.4 C112.4,39.4 112.1,39.2 112.1,38.9 C112,38.6 112.2,38.3 112.6,38.3 C112.5,38.3 112.5,38.3 112.6,38.3 Z M103.4,37.3 C102.7,37.4 102.2,38 102.3,38.8 C102.4,39.5 102.9,40 103.6,40 L103.8,40 C104.1,40 104.5,39.8 104.7,39.5 C104.9,39.2 105,38.9 105,38.5 C105,38.2 104.8,37.8 104.5,37.6 C104.1,37.4 103.7,37.3 103.4,37.3 Z M104,39 C103.9,39.1 103.8,39.2 103.6,39.2 C103.3,39.2 103,39 103,38.7 C103,38.4 103.2,38.1 103.5,38.1 L103.6,38.1 C103.7,38.1 103.8,38.1 103.9,38.2 C104,38.3 104.1,38.4 104.1,38.6 C104.1,38.7 104.1,38.8 104,39 Z M133.9,63.8 C132.4,56.3 127.8,52 125.4,50.6 C124.5,50.1 123.7,49.4 123.1,48.6 L122.3,47.5 C122.3,47.5 122.3,47.4 122.2,47.4 L121.6,45.5 C123.5,44.2 124.9,42.3 125.6,40.2 C126.5,37 127.9,27.9 123.9,23.9 C120,20.1 111.5,18.4 111.1,18.3 C110.7,18.3 100.7,17.3 97,22.6 C95,25.5 94.3,28.4 95.2,30.7 C96,32.6 97.7,33.9 99.6,34.3 C102.5,35.1 106.4,34.7 109.6,34.4 C111.2,34.1 112.8,34.1 114.3,34.3 C116.4,34.9 117.8,37 117.6,39.2 C117.6,39.8 117.5,42.9 118.6,43.1 C119.2,43.2 119.6,42.3 119.6,42 C119.8,41.2 120,40.3 120,39.4 C120,38.7 120.1,37.9 120.3,37.8 C120.4,37.8 120.5,37.8 120.6,37.8 C121.2,37.9 121.7,38.3 121.9,38.9 C122.1,39.8 121.9,40.7 121.3,41.3 C121.2,41.5 120,43 120.1,44.1 C120.2,44.7 120.4,45.2 120.8,45.6 L121.5,47.7 C120.9,48.4 120.3,49 119.6,49.6 C117.1,51.8 112,51.9 110.7,51.7 C110.2,51.6 109.8,51.3 109.6,50.9 C109.5,50.8 109.5,50.8 109.4,50.7 C111.9,50.6 114.3,50.1 116.6,49.2 C116.8,49.1 116.9,48.9 116.8,48.7 C116.7,48.5 116.5,48.4 116.3,48.5 C114,49.4 111.5,49.9 109,49.9 C105.3,49.9 103.5,47.2 102.3,45.4 L102,44.9 C101.6,44.2 100.9,42 100.3,35.3 C100.3,35 100.3,34.9 100.3,34.8 C100.3,34.6 100.1,34.5 99.9,34.5 C99.7,34.5 99.6,34.7 99.6,34.9 C99.6,35 99.6,35.1 99.7,35.4 C100.2,41 100.8,44.2 101.5,45.3 L101.8,45.8 C103,47.6 104.8,50.4 108.5,50.6 C108.4,50.6 108.4,50.7 108.3,50.8 L107.3,52.5 C107.3,52.6 107.3,52.6 107.3,52.7 C107.2,52.7 107.1,52.8 107,52.8 C105.6,53.8 101.2,57.3 101.4,62.9 C101.4,63.2 101.5,63.4 101.8,63.6 L105.8,65.9 C105.9,66 106.1,66 106.2,66 C106.3,66 106.4,66 106.5,65.9 C106.6,65.8 106.7,65.8 106.8,65.7 C106.7,66.1 106.9,66.4 107.2,66.5 L110.2,67.8 C110.3,67.8 110.4,67.9 110.5,67.9 C110.7,67.9 110.8,67.8 111,67.7 C111.2,67.5 111.3,67.3 111.3,67 L110.6,59.6 L111.9,57.3 C112,57.5 112.3,57.6 112.5,57.6 C112.6,57.6 112.7,57.6 112.8,57.5 C115,56.7 117,55.5 118.8,53.9 C120.8,51.9 123.1,49.8 123.2,49.7 C123.6,50.1 124,50.5 124.5,50.8 C123.1,51.4 119.8,53 118.8,54.3 C117.8,55.6 113.2,63.7 111.4,67.1 C111.3,67.3 111.3,67.6 111.4,67.9 C111.5,68.1 111.8,68.3 112.1,68.3 C114.7,68.4 120.7,68.6 122.5,68.6 C122.9,68.6 123.3,68.3 123.4,67.9 C123.5,68.3 123.9,68.5 124.3,68.5 C127.8,68 131,66.6 133.8,64.5 C133.8,64.4 133.9,64.1 133.9,63.8 Z M121.9,41.7 C122.7,40.9 122.9,39.7 122.6,38.6 C122.3,37.8 121.5,37.1 120.6,37 L120.3,37 C120.1,37 119.9,37.1 119.7,37.2 C119.2,37.6 119.2,38.4 119.1,39.4 C119.1,40.2 119,41 118.8,41.7 C118.7,41.9 118.7,42.1 118.6,42.2 C118.3,41.2 118.2,40.2 118.3,39.2 C118.5,36.7 116.9,34.3 114.5,33.6 C113.6,33.3 111.8,33.5 109.5,33.7 C106.4,34 102.6,34.4 99.8,33.7 C98,33.4 96.6,32.2 95.9,30.6 C95.1,28.6 95.8,26 97.6,23.2 C101,18.3 110.5,19.1 110.9,19.2 C111.3,19.3 119.7,21 123.3,24.6 C127.1,28.3 125.7,37.1 124.8,40.2 C124.2,42.2 122.9,43.9 121.2,45.1 C121,44.8 120.9,44.5 120.9,44.2 C120.9,43.2 121.3,42.4 121.9,41.7 Z M105.9,65.2 L101.9,62.9 C101.7,57.6 105.9,54.3 107.2,53.4 L108.1,55 L106.8,56 C106.5,56.3 106.2,56.7 106.2,57.1 L105.9,65.2 Z M106.7,65 L107,57.3 C107,57.1 107.1,56.9 107.3,56.7 L108.2,56 L108.3,59.3 L106.7,65 Z M109.9,59.3 C109.8,59.4 109.8,59.6 109.8,59.8 L110.4,67.2 L107.2,65.8 L109,59.6 C109,59.5 109,59.4 109,59.3 L108.9,55.1 C108.9,55 108.9,55 108.9,54.9 C109.1,54.8 109.2,54.7 109.2,54.6 L109.5,53.9 L109.9,53.9 L111.2,56.7 L109.9,59.3 Z M122.6,49.3 C122.5,49.4 120.2,51.4 118.2,53.5 C116.5,55 114.6,56.2 112.5,56.9 L110.8,53.5 C110.7,53.2 110.4,53 110.1,53 L110,53 L109.6,53.1 C109.3,53.1 109.1,53.3 109,53.5 L108.6,54.1 L108,53.1 L107.9,53 L107.8,52.8 L108.9,51.2 C109.3,51.8 109.8,52.2 110.5,52.3 C112.1,52.6 117.4,52.4 120,50.1 C120.6,49.6 121.3,49 121.8,48.3 C121.9,48.5 122.1,48.7 122.3,49 L122.4,49.1 L122.6,49.3 Z M133.1,64 C130.4,66 127.3,67.3 123.9,67.8 L123.8,67.7 C123.7,67.3 123.3,67.1 122.9,67.2 C122.5,67.3 122.2,67.6 122.2,68 C120.4,68 114.4,67.8 111.8,67.6 C113.3,64.9 118.2,56.1 119.2,54.8 C120.2,53.5 124.2,51.7 125.1,51.3 C127.5,52.7 131.7,56.8 133.1,64 L133.5,63.8 L133.1,64 Z M94.8,144.8 C94.6,144.6 94.3,144.6 94.1,144.8 C93.9,145 93.9,145.3 94.1,145.5 C95.2,146.5 95.3,146.8 95.3,146.9 C95.4,147.9 95.1,148.9 94.4,149.6 C94,150.4 93.2,150.9 92.3,151.1 C89.8,150.5 87.4,149.7 85,148.7 C84.8,148.6 84.5,148.7 84.4,148.9 C84.3,149.1 84.4,149.4 84.6,149.5 C84.9,149.7 85.3,149.9 85.9,150.2 C86.7,150.7 88.3,151.5 88.4,151.7 C88.6,152.4 88.4,153.1 88,153.6 C87.5,154.5 86.6,155.1 85.6,155.2 C85.3,155.2 83.1,154.7 81.5,154.3 C81.3,154.2 81,154.4 80.9,154.6 C80.8,154.8 80.9,155.1 81.1,155.2 C81.3,155.3 81.6,155.4 81.9,155.5 C82.2,155.6 82.7,155.8 82.8,155.9 C82.8,156.4 82.7,156.9 82.4,157.3 C81.9,158.1 81.2,158.6 80.3,158.8 C79.7,158.7 79.2,158.5 78.6,158.4 C78.1,158.3 77.5,158.1 77.2,158 C77,157.9 76.8,158.1 76.7,158.2 C76.6,158.4 76.6,158.6 76.8,158.8 C77,159 77.3,159.1 77.6,159.2 L78.2,159.5 C78.2,159.6 78.1,159.7 78.1,159.8 C77.5,160.5 76.7,161 75.8,161.2 C74.4,161.2 71.9,160.9 71.6,160.4 C72,159.7 72.3,158.9 72.5,158.1 C72.8,157 72.4,155.8 71.4,155.2 C70.8,154.9 70.1,154.8 69.5,155 C70,154 69.8,152.8 69.1,151.9 C68.1,150.9 66.5,150.7 65.3,151.4 C65.9,150.3 65.8,149 65,148 C63.9,146.8 62.1,146.4 60.5,147 C58.2,147.9 51.8,153.8 52,155.5 C52.4,157.1 53.5,158.5 55.1,159 C55.7,159.3 56.4,159.4 57.1,159.4 C57.6,159.4 58.2,159.3 58.6,159 C58.9,158.8 59.2,158.5 59.5,158.2 C60,159.2 60.9,160.1 61.9,160.7 C62.3,161 62.8,161.1 63.4,161.1 C63.6,161.1 63.9,161.1 64.1,161 C64.3,160.9 64.6,160.7 64.8,160.6 C64.9,161.4 65.3,162.2 66,162.7 C66.6,163.2 67.4,163.5 68.3,163.5 C68.6,163.5 69,163.4 69.3,163.3 C70.1,162.8 70.8,162.1 71.3,161.3 C72.5,162.2 76.1,162.2 76.1,162.2 C77.3,162 78.4,161.3 79.2,160.3 C79.4,160 79.5,159.7 79.5,159.4 C79.9,159.5 80.2,159.6 80.6,159.6 C81.8,159.4 82.9,158.7 83.5,157.7 C83.9,157.1 84.2,156.4 84.1,155.7 C84.7,155.8 85.3,155.9 85.9,156 C87.2,155.8 88.4,155.1 89.1,153.9 C89.7,153.1 89.9,152.1 89.6,151.1 C89.6,151 89.5,151 89.5,150.9 C90.5,151.3 91.6,151.6 92.7,151.8 C93.9,151.6 95,150.9 95.6,149.9 C96.3,148.9 97,147.3 96.6,146.3 C96,146 95.4,145.3 94.8,144.8 Z M59.4,157.3 C58.9,157.8 58.5,158.2 57.9,158.6 C57.1,159 56.2,158.9 55.4,158.5 C54.2,158.1 53.2,157 52.9,155.8 C52.9,154.9 58.3,149.4 60.8,148.3 C62,147.8 63.3,148.1 64.1,149 C64.7,149.8 64.7,150.9 64.1,151.7 C63.7,152.3 63.3,152.8 62.9,153.4 C61.5,154.4 60.3,155.8 59.4,157.3 Z M63.6,160.5 C63.2,160.6 62.7,160.5 62.3,160.3 C61.4,159.8 60.6,159 60.2,158 C61.5,156.8 62.6,155.4 63.7,154 C64.2,153.5 64.8,153.1 65.4,152.7 C66.3,152.1 67.5,152.2 68.2,152.9 C68.8,153.6 68.7,154.8 67.9,156 C67.7,156.3 67.5,156.5 67.3,156.8 C66.8,157.3 66.2,157.9 65.7,158.6 C65.2,159.3 64.4,159.9 63.6,160.5 Z M71.5,158.3 C71.1,160.1 70.1,161.6 68.7,162.8 C67.9,163 67,162.9 66.4,162.3 C65.9,162 65.6,161.4 65.6,160.8 C65.9,160.2 66.2,159.7 66.6,159.2 C67.2,158.6 67.7,158 68.2,157.4 C68.4,157.2 68.6,157 68.9,156.8 C69.4,156.1 70.3,156 71,156.5 C71.5,156.9 71.7,157.6 71.5,158.3 Z M104.3,101.5 L104,101.4 L89.2,114.1 L82.6,119.8 L83,120.2 C83,120.2 83.8,120.9 84.9,122.1 C84.2,122.7 83.5,123.3 82.8,123.8 C81,123 79.1,122.5 77.1,122.2 C76.8,122.2 75.8,122.4 74.3,122.5 C71.9,122.8 68.1,123.4 66.9,123.4 C65.7,123.4 63.4,125.4 59.9,128.7 C58.5,130.1 57.1,131.4 55.5,132.5 C54.8,132.8 54.5,133.5 54.6,134.2 C54.9,135.8 57.7,137.6 61.3,137.6 C64.9,137.6 66.7,135.4 68.1,133.8 C68.5,133.3 69,132.8 69.5,132.5 C71,131.6 72.1,131.7 72.5,131.9 C72.7,132.1 72.8,132.3 72.9,132.5 C74,134 76.6,137.4 80.6,137.7 C82,139.9 90.9,145.1 92,145.1 C93.1,145 96.2,142.2 96.4,139.5 C96.7,139.2 97.1,139 97.5,138.8 L97.8,138.6 C98.4,139.7 99,140.7 99.5,141.8 L99.7,142.3 L123.9,130 L123.9,129.7 C124.1,129.2 122.2,109.5 104.3,101.5 Z M97.2,137.7 C96,138.5 95.7,138.7 95.7,139.1 C95.6,141.2 92.8,143.8 92.2,143.9 C90.9,143.7 81.9,138.1 81.6,136.9 L81.5,136.5 L81.1,136.5 C77.4,136.4 74.9,133.1 73.8,131.6 C73.6,131.3 73.4,131 73.1,130.8 C72.4,130.3 70.8,130.3 69,131.3 C68.4,131.7 67.8,132.3 67.4,132.9 C66.1,134.4 64.4,136.3 61.3,136.3 C57.9,136.3 55.8,134.6 55.6,133.7 C55.6,133.5 55.6,133.3 55.9,133.2 C57.6,132 59.2,130.7 60.6,129.2 C62.8,127.2 66,124.1 66.9,124.1 C68.2,124.1 71.8,123.6 74.4,123.2 C75.7,123 76.8,122.9 77.1,122.9 C79,123.3 80.8,123.9 82.6,124.6 L82.8,124.7 L83,124.6 C83.9,124 84.8,123.4 85.6,122.7 C90.1,127.2 94,132.2 97.4,137.6 L97.2,137.7 Z M100.4,140.7 C100,139.7 99.4,138.8 98.9,137.8 C98.9,137.8 90.1,124.3 85.8,121.3 C85.1,120.6 84.5,120.1 84.2,119.7 L89.3,115.3 C96.8,121.2 102.8,128.7 106.9,137.3 L100.4,140.7 Z M107.7,137 C103.6,128.3 97.5,120.7 90,114.7 L104.2,102.5 C120,109.7 122.7,126.5 123.1,129.1 L107.7,137 Z M45.7,148.5 C45.8,148.6 45.9,148.7 46.1,148.7 C46.2,148.7 46.3,148.7 46.4,148.6 C46.6,148.4 46.6,148.1 46.4,147.9 C45.5,146.9 44.7,145.7 44,144.5 C43.7,144 43.3,143.6 42.9,143.2 C42.7,143 42.4,142.7 42.3,142.6 C42.3,142.5 42.2,142.5 42.2,142.5 C45.5,136.2 49.1,130.1 53,124.2 C53.1,124.3 53.2,124.4 53.3,124.4 C54.2,124.7 55.1,125.1 56,125.6 C56.3,125.8 56.7,126 57.1,126.1 C58.3,126.3 59.4,126.6 60.5,127 C60.5,127 60.6,127 60.7,127 C61,127 61.2,126.9 61.3,126.6 C61.3,126.3 61.2,126.1 60.9,126 C59.7,125.6 58.6,125.3 57.4,125.1 C57.3,125.1 56.9,124.9 56.6,124.7 C55.7,124.1 54.7,123.7 53.7,123.4 C54.9,121.7 55.6,120.7 55.6,120.7 L55.9,120.3 L31.5,105.9 L31.2,105.7 L30.9,105.9 C15,117.7 15.4,136.6 15.4,136.8 L15.4,137.2 L31.8,142.8 L40.7,145.8 L40.9,145.4 C41.2,144.8 41.5,144.2 41.8,143.6 L42.3,144.1 C42.7,144.4 43,144.8 43.3,145.2 C43.9,146.2 44.8,147.4 45.7,148.5 Z M16.3,136.2 C16.3,133.6 17.1,117.4 31.1,106.7 L46.5,115.8 C43.5,118.6 35.8,127.1 32,141.5 L16.3,136.2 Z M40.2,144.3 L33,141.8 C36.8,127.3 44.7,118.9 47.4,116.3 L54.3,120.4 C49,128 44.3,136 40.2,144.3 Z M51.9,149.2 C51,148.3 49.7,147.8 48.4,148.1 C47,148.5 43.3,150.9 43.1,152.6 C43,153.6 43.4,154.7 44.2,155.4 C45.3,156.7 46.8,157.5 48.5,157.8 C49.9,157.8 51.9,155.4 52.7,152.6 C53.1,151.3 52.8,150.1 51.9,149.2 Z M51.8,152.2 C51.1,154.8 49.3,156.7 48.6,156.7 C47.2,156.4 46,155.7 45,154.7 C44.4,154.2 44.1,153.5 44.2,152.7 C44.3,151.8 47.3,149.5 48.8,149.1 C49.7,149 50.6,149.3 51.3,150 C51.8,150.5 52.1,151.4 51.8,152.2 Z" id="Shape_19_" fill="#4D4D4D"></path>
                            <path d="M40.6,50.8 C40.2,50.2 39.6,49.8 38.9,49.7 C37.4,49.4 36,50.4 35.8,51.8 C35.7,52.5 35.8,53.2 36.2,53.8 C36.6,54.4 37.2,54.8 37.9,54.9 C38.1,54.9 38.2,55 38.4,55 C39.9,55 41.1,53.8 41.1,52.3 C41.1,51.8 40.9,51.3 40.6,50.8 Z M40,52.7 C39.9,53.1 39.7,53.5 39.3,53.8 C38.9,54 38.5,54.1 38.1,54 C37.7,53.9 37.3,53.7 37,53.3 C36.8,52.9 36.7,52.5 36.7,52.1 C36.8,51.7 37,51.3 37.4,51 C38.2,50.5 39.2,50.7 39.7,51.4 C40,51.8 40.1,52.2 40,52.7 Z" id="Shape_20_" fill="#8CC63F"></path>
                            <path d="M87,44.4 C86.8,44 86.5,43.6 86.1,43.4 C85.2,43 84.1,43.4 83.7,44.3 C83.3,45.2 83.7,46.3 84.6,46.7 C84.8,46.8 85.1,46.9 85.3,46.9 C85.5,46.9 85.7,46.9 85.9,46.8 C86.3,46.6 86.7,46.3 86.9,45.9 C87.2,45.3 87.2,44.9 87,44.4 Z M86,45.4 C85.9,45.6 85.8,45.7 85.6,45.8 C85.4,45.9 85.2,45.9 85,45.8 C84.6,45.6 84.4,45.2 84.6,44.8 C84.7,44.5 85,44.3 85.3,44.3 C85.4,44.3 85.5,44.3 85.6,44.4 C86,44.6 86.2,45 86,45.4 Z" id="Shape_21_" fill="#F15A24"></path>
                            <path d="M179.9,87.2 C179.4,85.7 177.7,84.9 176.2,85.5 C174.8,86 174,87.5 174.4,89 C174.9,90.5 176.5,91.4 178,90.9 C178.7,90.7 179.3,90.2 179.7,89.5 C180,88.7 180.1,87.9 179.9,87.2 Z M177.7,89.8 C177.2,90 176.7,89.9 176.3,89.7 C175.4,89.2 175,88 175.5,87.1 C175.7,86.7 176.1,86.3 176.6,86.2 C176.8,86.1 177,86.1 177.2,86.1 C178.2,86.1 179.1,86.9 179.1,88 C179,88.8 178.5,89.6 177.7,89.8 Z" id="Shape_22_" fill="#29ABE2"></path>
                            <path d="M79.7,5.7 L79.6,6.7 C78.9,6.7 77.4,6.7 77,7.3 C77,7.4 76.8,7.5 77,8 C77.3,8.6 77.2,9.2 76.9,9.8 C76.2,10.9 74.3,10.9 74,10.9 L74,9.9 C74.4,9.9 75.7,9.8 76.1,9.2 C76.1,9.1 76.3,8.9 76.1,8.3 C75.8,7.8 75.9,7.1 76.2,6.6 C77.1,5.5 79.5,5.7 79.7,5.7 Z" id="Shape_23_" fill="#662D91"></path>
                            <path d="M57.9,96.1 C57.6,95.2 56.6,94.6 55.7,94.9 C54.8,95.2 54.2,96.2 54.5,97.1 C54.6,97.5 55,97.9 55.4,98.1 C55.7,98.2 55.9,98.3 56.2,98.3 C56.4,98.3 56.6,98.3 56.7,98.2 C57.1,98.1 57.5,97.7 57.7,97.3 C57.9,97 58,96.6 57.9,96.1 Z M56.9,97 C56.8,97.2 56.6,97.3 56.4,97.4 C56.2,97.5 56,97.4 55.8,97.3 C55.6,97.2 55.5,97 55.4,96.8 C55.3,96.4 55.5,95.9 55.9,95.8 C56,95.8 56.1,95.8 56.1,95.8 C56.2,95.8 56.3,95.8 56.5,95.9 C56.7,96 56.8,96.2 56.9,96.4 C57,96.6 57,96.8 56.9,97 Z" id="Shape_24_" fill="#00A99D"></path>
                        </g>
                    </g>
                </g>
            </g>
            <g id="Group">
                <g id="if_pdfs_774684_1_">
                    <path d="M20.7,7.7 L20.7,25.2 C20.7,26.3 19.8,27.3 18.6,27.3 L2.8,27.3 C1.7,27.3 0.7,26.4 0.7,25.2 L0.7,2.8 C0.7,1.7 1.6,0.7 2.8,0.7 L13.8,0.7 L20.7,7.7 Z" id="Shape_25_" stroke="#EE3B28" stroke-width="1.5" stroke-linejoin="round"></path>
                    <path d="M10.7,9.5 C11,9.7 10.9,9.8 10.8,10.7 C10.6,12.1 10.3,13.5 9.8,14.8 C9.2,16.3 8.4,17.8 7.5,19.1 C6.9,20 6.3,20.7 5.5,21.4 C5.3,21.8 4.9,22 4.5,22 C4.3,22 4.2,22 4.1,21.9 C4,21.7 4,21.5 4.1,21.4 C4.2,21.1 4.4,20.8 4.6,20.6 C5.1,20.1 5.7,19.7 6.4,19.4 C7.2,19 8.1,18.7 9,18.4 C9.7,18.2 10.4,18 11.1,17.9 C11.6,17.8 12.1,17.7 12.7,17.7 C13.2,17.7 13.6,17.7 14.1,17.7 C14.5,17.7 15,17.8 15.4,17.9 C15.8,18 16.1,18.1 16.4,18.3 C16.7,18.5 16.9,18.7 17.1,19 C17.2,19.3 17.2,19.5 17.1,19.8 C17,20 16.8,20.2 16.5,20.2 C16.2,20.3 15.9,20.3 15.7,20.2 C15.3,20.1 14.9,19.9 14.6,19.6 C14.1,19.3 13.6,18.9 13.2,18.4 C12.6,17.8 12,17.1 11.5,16.3 C11,15.7 10.6,15 10.2,14.3 C9.9,13.8 9.7,13.3 9.6,12.7 C9.5,12.2 9.4,11.8 9.3,11.3 C9.3,10.9 9.3,10.6 9.3,10.2 C9.3,10 9.4,9.7 9.5,9.5 C9.6,9.4 9.7,9.3 9.9,9.2 C10,9.2 10.1,9.2 10.1,9.2 C10.2,9.2 10.3,9.2 10.3,9.2 C10.4,9.5 10.6,9.5 10.7,9.5" id="Shape" stroke="#EE3B28" stroke-width="1.2" stroke-linejoin="round"></path>
                    <path d="M21,7.4 L21,8.4 L14.8,8.4 C13.6,8.4 13,7.3 13,6 L13,0.2 L13.9,0.2 L21,7.4 Z" id="Shape-2_1_" fill="#EE3B28" fill-rule="nonzero"></path>
                </g>
                <g id="if_pdfs_774684-2_1_" transform="translate(40.000000, 0.000000)" fill-rule="nonzero">
                    <path d="M20.8,7.8 L20.8,25.2 C20.8,26.3 19.9,27.3 18.7,27.3 L3,27.3 C1.9,27.3 0.9,26.3 0.9,25.2 L0.9,2.9 C0.9,1.8 1.8,0.8 3,0.8 L14,0.8 L20.8,7.8 Z" id="Shape-3_1_" stroke="#067FCB" stroke-width="1.5" fill-opacity="0.7" fill="#FFFFFF"></path>
                    <path d="M21.5,7.6 L21.5,8.6 L15.2,8.6 C13.9,8.6 13.3,7.5 13.3,6.1 L13.3,0.1 L14.3,0.1 L21.5,7.6 Z" id="Shape-4_1_" fill="#067FCB"></path>
                </g>
                <g id="W_2_" transform="translate(44.000000, 7.000000)" fill="#067FCB" font-family="Helvetica" font-size="13.5152" font-weight="normal">
                    <g id="W">
                        <text>
                            <tspan x="0.2955" y="13.9432">W</tspan>
                        </text>
                    </g>
                </g>
                <g id="if_pdfs_774684-3_1_" transform="translate(160.000000, 0.000000)" fill-rule="nonzero">
                    <path d="M20.8,7.7 L20.8,25.2 C20.8,26.4 19.8,27.3 18.7,27.3 L2.9,27.3 C1.7,27.3 0.8,26.3 0.8,25.2 L0.8,2.8 C0.8,1.7 1.7,0.7 2.9,0.7 L13.9,0.7 L20.8,7.7 Z" id="Shape-5_1_" stroke="#34494F" stroke-width="1.5" fill-opacity="0.7" fill="#FFFFFF"></path>
                    <path d="M21.5,7.6 L21.5,8.6 L15.1,8.6 C13.8,8.6 13.2,7.5 13.2,6.1 L13.2,0 L14.2,0 L21.5,7.6 Z" id="Shape-6_1_" fill="#34494F"></path>
                </g>
                <g id="W-2_1_" transform="translate(165.000000, 6.000000)" fill="#34494F" font-family="Helvetica" font-size="14" font-weight="normal">
                    <g id="X">
                        <text>
                            <tspan x="0.3775" y="14.9435">X</tspan>
                        </text>
                    </g>
                </g>
                <g id="if_pdfs_774684-5_1_" transform="translate(120.000000, 0.000000)" fill="#FFFFFF" fill-opacity="0.7" fill-rule="nonzero" stroke="#EDEDED">
                    <path d="M21.1,7.7 L21.1,25.5 C21.1,26.7 20.2,27.6 19,27.6 L2.9,27.6 C1.7,27.6 0.8,26.6 0.8,25.5 L0.8,2.7 C0.8,1.5 1.7,0.6 2.9,0.6 L14.1,0.6 L21.1,7.7 Z" id="Shape-9_1_"></path>
                </g>
                <path d="M130.7,0.9 L130.7,16.8 C130.7,17.1 130.6,17.3 130.3,17.3 C130,17.3 129.8,17.2 129.8,16.9 C129.8,16.8 129.8,16.8 129.8,16.7 L129.8,0.9 C129.8,0.6 129.9,0.4 130.2,0.4 C130.5,0.4 130.7,0.5 130.7,0.8 C130.7,0.8 130.7,0.9 130.7,0.9 Z" id="Rectangle_2_" fill="#192257" fill-rule="nonzero"></path>
                <path d="M132.5,9.4 C132.5,9.6 132.3,9.9 132.1,9.9 C132.1,9.9 132.1,9.9 132,9.9 L130.1,9.9 C129.8,9.9 129.7,9.6 129.7,9.4 C129.7,9.2 129.9,9 130.1,9 L132,9 C132.3,8.9 132.5,9 132.5,9.4 C132.5,9.3 132.5,9.3 132.5,9.4 Z" id="Rectangle-2-Copy-2_1_" fill="#192257" fill-rule="nonzero"></path>
                <path d="M132.5,12.2 C132.5,12.4 132.3,12.7 132.1,12.7 C132.1,12.7 132.1,12.7 132,12.7 L130.1,12.7 C129.8,12.7 129.7,12.4 129.7,12.2 C129.7,12 129.9,11.8 130.1,11.8 L132,11.8 C132.3,11.7 132.5,11.9 132.5,12.2 C132.5,12.1 132.5,12.1 132.5,12.2 Z" id="Rectangle-2-Copy-3_1_" fill="#192257" fill-rule="nonzero"></path>
                <path d="M132.5,15 C132.5,15.2 132.3,15.5 132.1,15.5 C132.1,15.5 132.1,15.5 132,15.5 L130.1,15.5 C129.8,15.5 129.7,15.2 129.7,15 C129.7,14.8 129.9,14.6 130.1,14.6 L132,14.6 C132.3,14.5 132.5,14.7 132.5,15 C132.5,14.9 132.5,15 132.5,15 Z" id="Rectangle-2-Copy-4_1_" fill="#192257" fill-rule="nonzero"></path>
                <path d="M130.7,8.4 C130.7,8.6 130.5,8.9 130.3,8.9 C130.3,8.9 130.3,8.9 130.2,8.9 L128.3,8.9 C128,8.9 127.9,8.6 127.9,8.4 C127.9,8.2 128.1,8 128.3,8 L130.2,8 C130.4,7.9 130.6,8.1 130.7,8.4 Z" id="Rectangle-2-Copy-2-3_1_" fill="#192257" fill-rule="nonzero"></path>
                <path d="M130.7,11.2 C130.7,11.4 130.5,11.7 130.3,11.7 C130.3,11.7 130.3,11.7 130.2,11.7 L128.3,11.7 C128,11.7 127.9,11.4 127.9,11.2 C127.9,11 128.1,10.8 128.3,10.8 L130.2,10.8 C130.4,10.7 130.6,10.9 130.7,11.2 Z" id="Rectangle-2-Copy-3-2_1_" fill="#192257" fill-rule="nonzero"></path>
                <path d="M130.7,14 C130.7,14.2 130.5,14.5 130.3,14.5 C130.3,14.5 130.3,14.5 130.2,14.5 L128.3,14.5 C128,14.5 127.9,14.2 127.9,14 C127.9,13.8 128.1,13.6 128.3,13.6 L130.2,13.6 C130.4,13.6 130.6,13.7 130.7,14 Z" id="Rectangle-2-Copy-4-2_1_" fill="#192257" fill-rule="nonzero"></path>
                <rect id="Rectangle-3_2_" fill="#192257" fill-rule="nonzero" x="129.2" y="16.9" width="1.9" height="1.9"></rect>
                <g transform="translate(200.000000, 0.000000)">
                    <g id="if_pdfs_774684-4_1_" fill-rule="nonzero">
                        <path d="M20.9,7.7 L20.9,25.2 C20.9,26.3 20,27.2 18.8,27.3 L3,27.3 C1.8,27.3 0.9,26.3 0.9,25.2 L0.9,2.8 C0.9,1.7 1.8,0.7 3,0.7 L14,0.7 L20.9,7.7 Z" id="Shape-7_1_" stroke="#06CBBE" stroke-width="1.5" fill-opacity="0.7" fill="#FFFFFF"></path>
                        <path d="M21.6,7.6 L21.6,8.6 L15.2,8.6 C13.9,8.6 13.3,7.5 13.3,6.1 L13.3,0 L14.3,0 L21.6,7.6 Z" id="Shape-8_1_" fill="#06CBBE"></path>
                    </g>
                    <rect id="Rectangle-4_2_" stroke="#06CBBE" stroke-width="1.5" stroke-linecap="round" stroke-linejoin="round" x="4.9" y="10.2" width="11.9" height="8.2"></rect>
                    <circle id="Oval_2_" stroke="#06CBBE" stroke-linecap="round" stroke-linejoin="round" cx="8.3" cy="14.3" r="1.4"></circle>
                    <path d="M10.2,18.4 L6.5,22.1" id="Line_1_" stroke="#06CBBE" stroke-width="1.5" stroke-linecap="round" stroke-linejoin="round"></path>
                    <path d="M11.3,18.4 L15,22.1" id="Line-2_2_" stroke="#06CBBE" stroke-width="1.5" stroke-linecap="round" stroke-linejoin="round"></path>
                    <path d="M4,10.2 L17.7,10.2" id="Line-3_1_" stroke="#06CBBE" stroke-width="1.5" stroke-linecap="round" stroke-linejoin="round"></path>
                    <path d="M4,18.4 L17.7,18.4" id="Line-3-2_1_" stroke="#06CBBE" stroke-width="1.5" stroke-linecap="round" stroke-linejoin="round"></path>
                    <path d="M12.1,13.3 L14.8,13.3" id="Line-2-2_1_" stroke="#06CBBE" stroke-linecap="round" stroke-linejoin="round"></path>
                    <path d="M12.1,15.1 L13.9,15.1" id="Line-Copy_2_" stroke="#06CBBE" stroke-linecap="round" stroke-linejoin="round"></path>
                </g>
                <g id="if_pdfs_774684-6_1_" transform="translate(240.000000, 0.000000)" fill-rule="nonzero">
                    <path d="M21,7.7 L21,25.3 C21,26.4 20.1,27.3 18.9,27.4 L3,27.4 C1.8,27.4 0.9,26.4 0.9,25.3 L0.9,2.8 C0.9,1.6 1.8,0.7 3,0.7 L14,0.7 L21,7.7 Z" id="Shape-10_1_" stroke="#4CB9E1" stroke-width="1.5" fill-opacity="0.7" fill="#FFFFFF"></path>
                    <path d="M21.5,7.6 L21.5,8.6 L15.1,8.6 C13.8,8.6 13.2,7.5 13.2,6.1 L13.2,0 L14.2,0 L21.5,7.6 Z" id="Shape-11_1_" fill="#4CB9E1"></path>
                </g>
                <path d="M246.1,18.6 L255.5,18.6 C255.9,18.6 256.2,18.3 256.2,17.9 C256.2,17.8 256.2,17.7 256.1,17.5 C255.2,15.9 254.1,14.3 252.9,12.9 C252.8,12.8 252.6,12.8 252.5,12.9 C251.5,13.6 250.6,14.4 249.9,15.3 C249.7,15.6 249.2,15.7 248.9,15.4 C248.5,15.1 248.1,14.9 247.6,14.8 C247.1,14.8 246.3,15.9 245.5,17.4 C245.3,17.8 245.5,18.2 245.9,18.4 C245.9,18.5 246,18.6 246.1,18.6 Z" id="Shape" stroke="#4CB9E1" stroke-width="1.5" stroke-linecap="round"></path>
                <circle id="Oval" stroke="#4CB9E1" stroke-width="1.5" stroke-linecap="round" cx="247" cy="11.3" r="1.9"></circle>
                <g id="if_pdfs_774684-7_1_" transform="translate(284.000000, 0.000000)" fill-rule="nonzero">
                    <path d="M20,7.8 L20,25.3 C20,26.5 19.1,27.4 17.9,27.4 L2.1,27.4 C0.9,27.4 -5.68434189e-14,26.4 -5.68434189e-14,25.3 L-5.68434189e-14,2.8 C-5.68434189e-14,1.7 0.9,0.7 2.1,0.7 L13.1,0.7 L20,7.8 Z" id="Shape-12_1_" stroke="#906FD4" stroke-width="1.5" fill-opacity="0.7" fill="#FFFFFF"></path>
                    <path d="M20.5,7.5 L20.5,8.5 L14.4,8.5 C13.1,8.5 12.6,7.4 12.6,6.1 L12.6,0.2 L13.5,0.2 L20.5,7.5 Z" id="Shape-13_1_" fill="#906FD4"></path>
                </g>
                <g id="GIF_2_" transform="translate(286.000000, 10.000000)" fill="#906FD4" font-family="Helvetica" font-size="8.5" font-weight="normal">
                    <g id="GIF">
                        <text>
                            <tspan x="0.7871" y="9.6206">GIF</tspan>
                        </text>
                    </g>
                </g>
                <g id="if_pdfs_774684-8_1_" transform="translate(323.000000, 0.000000)" fill-rule="nonzero">
                    <g id="Shape-14_1_">
                        <path d="M2.6,27.4 C1.8,27.4 1.2,26.7 1.2,25.9 L1.2,2.2 C1.2,1.4 1.8,0.7 2.6,0.7 L13.9,0.7 L20.7,7.7 L20.7,25.8 C20.7,26.6 20.1,27.3 19.3,27.3 L2.6,27.3 L2.6,27.4 Z" id="Shape" fill="#FFFFFF" opacity="0.7"></path>
                        <path d="M13.6,1.5 L20,8.1 L20,25.9 C20,26.3 19.7,26.6 19.3,26.6 L2.6,26.6 C2.2,26.6 1.9,26.3 1.9,25.9 L1.9,2.2 C1.9,1.9 2,1.8 2.1,1.7 C2.2,1.6 2.3,1.5 2.6,1.5 L13.6,1.5 Z M14.2,0 L2.6,0 C1.4,0 0.4,1 0.4,2.2 L0.4,25.9 C0.4,27.1 1.4,28.1 2.6,28.1 L19.3,28.1 C20.5,28.1 21.5,27.1 21.5,25.9 L21.5,7.5 L14.2,0 Z" id="Shape" fill="#FF8C3E"></path>
                    </g>
                    <path d="M21.4,7.5 L21.4,8.5 L15.2,8.5 C13.9,8.5 13.3,7.4 13.3,6.1 L13.3,0.2 L14.2,0.2 L21.4,7.5 Z" id="Shape-15_1_" fill="#FF8C3E"></path>
                </g>
                <g id="if_pdfs_774684-9_1_" transform="translate(79.000000, 0.000000)" fill-rule="nonzero">
                    <path d="M20.8,7.8 L20.8,25.2 C20.8,26.3 19.9,27.3 18.7,27.3 L3,27.3 C1.9,27.3 0.9,26.3 0.9,25.2 L0.9,2.8 C0.9,1.7 1.8,0.7 3,0.7 L14,0.7 L20.8,7.8 Z" id="Shape-16_1_" stroke="#FF488A" stroke-width="1.5" fill-opacity="0.7" fill="#FFFFFF"></path>
                    <path d="M21.5,7.5 L21.5,8.5 L15.2,8.5 C13.9,8.5 13.3,7.4 13.3,6 L13.3,0 L14.3,0 L21.5,7.5 Z" id="Shape-17_1_" fill="#FF488A"></path>
                </g>
                <g id="if_pdfs_774684-10_1_" transform="translate(363.000000, 0.000000)" fill-rule="nonzero">
                    <g id="Shape-18_1_">
                        <path d="M2.3,27.4 C1.5,27.4 0.9,26.7 0.9,25.9 L0.9,2.2 C0.9,1.4 1.5,0.7 2.3,0.7 L13.6,0.7 L20.4,7.7 L20.4,25.8 C20.4,26.6 19.8,27.3 19,27.3 L2.3,27.3 L2.3,27.4 Z" id="Shape" fill="#FFFFFF" opacity="0.7"></path>
                        <path d="M13.3,1.5 L19.7,8.1 L19.7,25.9 C19.7,26.3 19.4,26.6 19,26.6 L2.3,26.6 C1.9,26.6 1.6,26.3 1.6,25.9 L1.6,2.2 C1.6,1.9 1.7,1.8 1.8,1.7 C1.9,1.6 2,1.5 2.3,1.5 L13.3,1.5 Z M13.9,0 L2.3,0 C1.1,0 0.1,1 0.1,2.2 L0.1,25.9 C0.1,27.1 1.1,28.1 2.3,28.1 L19,28.1 C20.2,28.1 21.2,27.1 21.2,25.9 L21.2,7.5 L13.9,0 Z" id="Shape" fill="#2E4399"></path>
                    </g>
                    <path d="M21,7.6 L21,8.6 L14.7,8.6 C13.4,8.6 12.8,7.5 12.8,6.2 L12.8,0.2 L13.8,0.2 L21,7.6 Z" id="Shape-19_1_" fill="#2E4399"></path>
                </g>
                <g id="if_pdfs_774684-11_1_" transform="translate(403.000000, 0.000000)">
                    <path d="M20.2,7.8 L20.2,25.2 C20.2,26.3 19.3,27.3 18.1,27.3 L2.3,27.3 C1.2,27.3 0.2,26.3 0.2,25.2 L0.2,2.9 C0.2,1.8 1.1,0.8 2.3,0.8 L13.3,0.8 L20.2,7.8 Z" id="Shape-20_1_" stroke="#636D72" stroke-width="1.5"></path>
                    <path d="M20.8,7.5 L20.8,8.5 L14.6,8.5 C13.3,8.5 12.7,7.4 12.7,6.1 L12.7,0.1 L13.6,0.1 L20.8,7.5 Z" id="Shape-21_1_" fill="#636D72" fill-rule="nonzero"></path>
                </g>
                <g id="GIF-2_1_" transform="translate(325.000000, 9.000000)" fill="#FF8C3E" font-family="Helvetica" font-size="9" font-weight="normal">
                    <g id="&lt;">
                        <text>
                            <tspan x="0.9365" y="9.2834">&lt;</tspan>
                        </text>
                    </g>
                </g>
                <g id="GIF-3_1_" transform="translate(334.000000, 9.000000)" fill="#FF8C3E" font-family="Helvetica" font-size="9" font-weight="normal">
                    <g id="&lt;" transform="translate(4.461000, 6.000000) scale(-1, 1) translate(-4.461000, -6.000000) translate(0.961000, 0.000000)">
                        <g id="Group">
                            <text id="&lt;">
                                <tspan x="0.4805" y="9.2834">&lt;</tspan>
                            </text>
                        </g>
                    </g>
                </g>
                <g id="GIF-4_1_" transform="translate(333.000000, 8.000000)" fill="#FF8C3E" font-family="Helvetica" font-size="10" font-weight="normal">
                    <g id="\" transform="translate(2.148400, 6.500000) scale(-1, 1) translate(-2.148400, -6.500000) translate(0.148400, 0.000000)">
                        <g id="Group">
                            <text id="\">
                                <tspan x="0.5742" y="10.7854">\</tspan>
                            </text>
                        </g>
                    </g>
                </g>
                <path d="M94,10.1 C94,10.1 94,10 93.8,10 L87.2,10.8 C87.1,10.8 87,10.9 87,11.1 L87,18.6 C86.6,18.1 86,17.8 85.3,17.9 C84.2,18 83.5,18.9 83.6,20 C83.7,21.1 84.6,21.8 85.7,21.7 C86.7,21.6 87.4,20.8 87.4,19.8 L87.4,13.5 L93.5,12.7 L93.5,16.6 C93.1,16.1 92.5,15.8 91.8,15.9 C90.7,16 90,16.9 90.1,18 C90.2,19.1 91.1,19.8 92.2,19.7 C93.2,19.6 93.9,18.8 93.9,17.8 L93.9,10.5 C94,10.3 94,10.2 94,10.1" id="Fill-1_1_" fill="#FF488A" fill-rule="nonzero"></path>
                <g id="if_pdfs_774684-12_1_" transform="translate(120.000000, 0.000000)" stroke="#192257" stroke-width="1.5">
                    <path d="M20.9,7.8 L20.9,25.3 C20.9,26.4 20,27.4 18.8,27.4 L3,27.4 C1.9,27.4 0.9,26.5 0.9,25.3 L0.9,2.9 C0.9,1.8 1.8,0.8 3,0.8 L14,0.8 L20.9,7.8 Z" id="Shape-22_1_"></path>
                </g>
            </g>
            <path d="M130.7,2.8 C130.7,3 130.5,3.2 130.3,3.3 C130.3,3.3 130.3,3.3 130.2,3.3 L128.3,3.3 C128.1,3.3 127.9,3.1 127.8,2.9 C127.8,2.9 127.8,2.9 127.8,2.8 C127.8,2.6 128,2.3 128.2,2.3 C128.2,2.3 128.2,2.3 128.3,2.3 L130.2,2.3 C130.4,2.3 130.6,2.5 130.7,2.8 Z" id="Rectangle-2_1_" fill="#192257" fill-rule="nonzero"></path>
            <path d="M132.5,3.8 C132.5,4 132.3,4.2 132.1,4.3 C132.1,4.3 132.1,4.3 132,4.3 L130.1,4.3 C129.9,4.3 129.7,4.1 129.6,3.9 C129.6,3.9 129.6,3.9 129.6,3.8 C129.6,3.6 129.8,3.3 130,3.3 C130,3.3 130,3.3 130.1,3.3 L132,3.3 C132.3,3.3 132.5,3.5 132.5,3.8 C132.5,3.7 132.5,3.7 132.5,3.8 Z" id="Rectangle-2-2_1_" fill="#192257" fill-rule="nonzero"></path>
            <path d="M132.5,6.5 C132.5,6.7 132.3,7 132.1,7 C132.1,7 132.1,7 132,7 L130.1,7 C129.8,7 129.7,6.7 129.7,6.5 C129.7,6.3 129.9,6.1 130.1,6.1 L132,6.1 C132.3,6.1 132.5,6.2 132.5,6.5 Z" id="Rectangle-2-Copy_1_" fill="#192257" fill-rule="nonzero"></path>
            <path d="M130.7,5.6 C130.7,5.8 130.5,6 130.3,6.1 C130.3,6.1 130.3,6.1 130.2,6.1 L128.3,6.1 C128.1,6.1 127.9,5.9 127.8,5.7 C127.8,5.7 127.8,5.7 127.8,5.6 C127.8,5.4 128,5.1 128.2,5.1 C128.2,5.1 128.2,5.1 128.3,5.1 L130.2,5.1 C130.4,5.1 130.6,5.3 130.7,5.6 Z" id="Rectangle-2-Copy-2-2_1_" fill="#192257" fill-rule="nonzero"></path>
            <path d="M378.4,15.4 L376.3,17.5 C375.1,18.7 373.2,18.7 372.1,17.5 C371.9,17.3 371.8,17.1 371.6,16.9 L372.6,15.9 C372.6,15.9 372.7,15.8 372.8,15.8 C372.9,16 373,16.3 373.2,16.4 C373.8,17 374.7,17 375.3,16.4 L377.4,14.3 C378,13.7 378,12.8 377.4,12.2 C376.8,11.6 375.9,11.6 375.3,12.2 L374.5,13 C373.9,12.8 373.2,12.7 372.6,12.8 L374.2,11.2 C375.4,10 377.3,10 378.4,11.2 C379.5,12.3 379.5,14.2 378.4,15.4 Z M372.8,18.9 L372,19.7 C371.4,20.3 370.5,20.3 369.9,19.7 C369.3,19.1 369.3,18.2 369.9,17.6 L372,15.5 C372.6,14.9 373.5,14.9 374.1,15.5 C374.3,15.7 374.4,15.9 374.5,16.1 C374.6,16.1 374.6,16 374.7,16 L375.7,15 C375.6,14.8 375.4,14.6 375.2,14.4 C374,13.2 372.1,13.2 371,14.4 L368.9,16.5 C367.7,17.7 367.7,19.6 368.9,20.7 C370.1,21.9 372,21.9 373.1,20.7 L374.7,19.1 C374.1,19.2 373.4,19.1 372.8,18.9 Z" id="Shape" fill="#2E4399" fill-rule="nonzero"></path>
        </g>
    </g>
</svg>