<svg xmlns="http://www.w3.org/2000/svg" viewBox="0 0 120.75 125.51"><defs><style>.cls-1{fill:#dcf1f9;}.cls-2{fill:#b3b3b3;}.cls-3{fill:#3a4653;}</style></defs><g id="Layer_2" data-name="Layer 2"><g id="Layer_1-2" data-name="Layer 1"><path class="cls-1" d="M20.22,40.15a23.23,23.23,0,1,1-20,25.92A23.11,23.11,0,0,1,20.22,40.15Z"/><path class="cls-2" d="M71.28,79.88,60.82,116.8a12,12,0,0,1-11.47,8.71,11.73,11.73,0,0,1-3.26-.47L12.4,115.37a12,12,0,0,1-8.19-14.83L14.67,63.62c1-3.41,2.54-5.75,4.68-6.94,2-1.1,4.46-1.24,7.36-.4a.75.75,0,1,1-.41,1.44c-2.51-.72-4.6-.63-6.22.27-1.78,1-3.11,3-4,6L5.65,101a10.51,10.51,0,0,0,7.16,13L46.5,123.6a10.3,10.3,0,0,0,7.89-.91,10.44,10.44,0,0,0,5-6.3L69.84,79.47c1.67-5.89-1-11.47-6.27-13A.75.75,0,0,1,64,65.05C70.05,66.8,73.19,73.17,71.28,79.88Zm48-30.22a11.88,11.88,0,0,0-3.81-8.33A11.72,11.72,0,0,0,107,38.12L72,39.44A12,12,0,0,0,60.48,51.88l.64,17.05a.75.75,0,1,0,1.49-.06L62,51.82A10.48,10.48,0,0,1,72,40.94l35-1.32a10.31,10.31,0,0,1,7.47,2.8,10.5,10.5,0,0,1,3.34,7.3l1.42,38.36a10.47,10.47,0,0,1-10,10.88l-35,1.32a10.22,10.22,0,0,1-5.7-1.47.76.76,0,0,0-1,.26.75.75,0,0,0,.26,1,11.76,11.76,0,0,0,6.08,1.69h.45l35-1.32A12,12,0,0,0,120.74,88ZM34,68.18A11.87,11.87,0,0,0,41,74a12.18,12.18,0,0,0,3.46.51,11.76,11.76,0,0,0,5.58-1.41l8.53-4.27a.75.75,0,1,0-.67-1.34l-8.55,4.27a10.28,10.28,0,0,1-7.91.8,10.4,10.4,0,0,1-6.2-5.07l-18-33.83a10.54,10.54,0,0,1,4.25-14.21L52.34,2.74A10.43,10.43,0,0,1,66.45,7L79.67,31.8A.75.75,0,1,0,81,31.09L67.78,6.32A11.92,11.92,0,0,0,60.69.51a11.81,11.81,0,0,0-9.06.91L20.77,18.12a12,12,0,0,0-4.86,16.24Z"/><path class="cls-3" d="M104.16,63.15a15.35,15.35,0,0,0-20.71-6.8,15.57,15.57,0,0,0-6.76,20.84A15.35,15.35,0,0,0,97.4,84,15.58,15.58,0,0,0,104.16,63.15ZM96.72,82.66A13.86,13.86,0,0,1,78,76.51a14.07,14.07,0,0,1,6.11-18.83,13.74,13.74,0,0,1,6.27-1.52,13.9,13.9,0,0,1,12.41,7.67A14.07,14.07,0,0,1,96.72,82.66ZM98,68.2a.75.75,0,0,1-.33,1l-6.49,3.32a.81.81,0,0,1-.34.08.59.59,0,0,1-.23,0,.73.73,0,0,1-.44-.37l-3.94-7.83a.74.74,0,1,1,1.33-.67l3.61,7.15,5.82-3A.76.76,0,0,1,98,68.2ZM51.35,79.91a.42.42,0,0,0-.16,0L51.72,78a1.86,1.86,0,0,0-1.3-2.29l-.9-.25a1.85,1.85,0,0,0-1.4.18,1.88,1.88,0,0,0-.88,1.13L45.87,81.8a1.86,1.86,0,0,0,1.29,2.28l.9.25h0a1.73,1.73,0,0,0,.5.07A1.84,1.84,0,0,0,50.34,83l.48-1.75a.31.31,0,0,0,.14.07,3.54,3.54,0,0,1,2.45,4.34l-4.5,16.59a3.52,3.52,0,0,1-4.3,2.47L25.28,99.43a3.54,3.54,0,0,1-2.45-4.34l4.5-16.59A3.51,3.51,0,0,1,29,76.37,3.45,3.45,0,0,1,31.36,76L31,77.46a1.86,1.86,0,0,0,1.3,2.28l.9.25a2.07,2.07,0,0,0,.49.07,1.9,1.9,0,0,0,.92-.25,1.84,1.84,0,0,0,.87-1.13l1.38-5.07a1.86,1.86,0,0,0-1.3-2.28l-.9-.25a1.83,1.83,0,0,0-1.41.18,1.86,1.86,0,0,0-.87,1.13l-.58,2.15a5,5,0,0,0-3.52.52,5,5,0,0,0-2.36,3l-4.5,16.58a5,5,0,0,0,3.5,6.18l19.33,5.32a4.57,4.57,0,0,0,1.32.18,5,5,0,0,0,4.82-3.7l4.51-16.59A5,5,0,0,0,51.35,79.91Zm-1.08-2.35L48.9,82.63a.37.37,0,0,1-.17.22.36.36,0,0,1-.27,0l-.9-.25a.38.38,0,0,1-.25-.45l1.38-5.07a.35.35,0,0,1,.44-.25l.89.25A.35.35,0,0,1,50.27,77.56ZM33.79,72.78a.34.34,0,0,1,.17-.22.31.31,0,0,1,.17,0l.09,0,.9.25a.36.36,0,0,1,.25.44L34,78.29a.34.34,0,0,1-.17.22.29.29,0,0,1-.26,0h0l-.9-.24a.37.37,0,0,1-.25-.45Zm11.88,6.34a.75.75,0,0,1-.72.55.69.69,0,0,1-.2,0l-7.9-2.17a.75.75,0,1,1,.4-1.45l7.9,2.18A.74.74,0,0,1,45.67,79.12ZM33.2,95.23,47,91a.75.75,0,1,1,.44,1.43l-14.55,4.5a.85.85,0,0,1-.22,0,.76.76,0,0,1-.73-.57l-1.62-6.23a.75.75,0,0,1,.54-.91.74.74,0,0,1,.91.53ZM62.81,22.05l-4,2.29a27.42,27.42,0,0,0-1.55-3,3,3,0,0,0-4.11-1.05l-6.84,4.07L35.21,30.39A3,3,0,0,0,34,34.45a31.7,31.7,0,0,0,1.77,2.93l-4,2.25a.75.75,0,0,0-.31,1c0,.06,2.7,5.44,8,5.44a9.3,9.3,0,0,0,3.66-.8.73.73,0,0,0,.44-.62,15.62,15.62,0,0,0,7.59,1.79h.05a1.5,1.5,0,0,1,1.39.77,6.05,6.05,0,0,1,0,5,.75.75,0,0,0,.43,1,.86.86,0,0,0,.27,0,.76.76,0,0,0,.7-.47A7.5,7.5,0,0,0,54,46.53a3,3,0,0,0-2.74-1.62h-.43c-8.65,0-13.69-7.78-15.47-11.17a1.53,1.53,0,0,1,.62-2L47,25.64l6.87-4.08a1.48,1.48,0,0,1,2,.52c2,3.33,6,11.89,1.26,19.4a3,3,0,0,0-.07,3.3.74.74,0,0,0,1,.22.75.75,0,0,0,.22-1,1.56,1.56,0,0,1,.08-1.67,15.76,15.76,0,0,0,2.44-7.57.74.74,0,0,0,.4.14.76.76,0,0,0,.45-.15c6.74-4.93,2.12-12.33,2.07-12.41A.76.76,0,0,0,62.81,22.05ZM42.37,43.94c-5.19,2.07-8.23-1.8-9.2-3.37l3.47-2A22.4,22.4,0,0,0,42.37,43.94ZM60.91,33.45a22.52,22.52,0,0,0-1.57-7.74.29.29,0,0,0,.1,0l3.45-1.95C63.73,25.41,65.45,30.07,60.91,33.45Z"/></g></g></svg>