<svg id="Layer_1" data-name="Layer 1" xmlns="http://www.w3.org/2000/svg" viewBox="0 0 351.16 293.04"><defs><style>.cls-1,.cls-2,.cls-6{fill:#c4cbe0;}.cls-1{opacity:0.25;}.cls-3,.cls-8{fill:#fff;}.cls-4{fill:none;}.cls-4,.cls-5,.cls-6,.cls-7,.cls-8{stroke:#3e6be0;stroke-linecap:round;stroke-linejoin:round;}.cls-5,.cls-7{fill:#3e6be0;}.cls-5{opacity:0.4;}.cls-9{fill:#ffd9d9;}.cls-10{fill:#ff6766;}</style></defs><path class="cls-1" d="M353.38,260.68a175.11,175.11,0,0,1-2.45,29.25H320.87A145,145,0,1,0,33.78,260.68a146,146,0,0,0,2.95,29.25H6.67a174.59,174.59,0,1,1,346.71-29.25Z"/><path class="cls-2" d="M323.82,259.68a146,146,0,0,1-2.95,29.25H36.73a145,145,0,1,1,287.09-29.25Z"/><path class="cls-3" d="M266.37,284.28a15.08,15.08,0,0,1-1.06,5.6H149.53a18.46,18.46,0,0,1-1.78-8,18.73,18.73,0,0,1,18.73-18.73,17,17,0,0,1,1.75.09,25.2,25.2,0,0,1,50-6.23,16.34,16.34,0,0,1,26.7,12.63c0,.18,0,.37,0,.55A15,15,0,0,1,251,269,15.33,15.33,0,0,1,266.37,284.28Z"/><path class="cls-3" d="M140.43,223.3c0,5.84-12.38,3.41-16.49,3.41H69.29a11.18,11.18,0,0,1-1.08-4.84,11.41,11.41,0,0,1,11.4-11.41,9.59,9.59,0,0,1,1.07.06,14.59,14.59,0,0,1-.11-1.76,15.34,15.34,0,0,1,30.55-2,9.95,9.95,0,0,1,16.26,7.69c0,.1,0,.22,0,.33a9.08,9.08,0,0,1,3.72-.78A9.34,9.34,0,0,1,140.43,223.3Z"/><circle class="cls-4" cx="135.49" cy="268.21" r="3.09"/><circle class="cls-4" cx="284.76" cy="266.66" r="3.53"/><line class="cls-4" x1="99.42" y1="250.21" x2="106.66" y2="250.21"/><line class="cls-4" x1="103.04" y1="246.59" x2="103.04" y2="253.83"/><line class="cls-4" x1="48.61" y1="185.78" x2="55.85" y2="185.78"/><line class="cls-4" x1="52.23" y1="182.16" x2="52.23" y2="189.4"/><line class="cls-4" x1="251.13" y1="137.61" x2="258.37" y2="137.61"/><line class="cls-4" x1="254.75" y1="133.99" x2="254.75" y2="141.23"/><line class="cls-4" x1="36.92" y1="290.71" x2="76.68" y2="290.71"/><line class="cls-4" x1="91.9" y1="290.74" x2="209.07" y2="290.74"/><line class="cls-4" x1="225.14" y1="290.86" x2="248.41" y2="290.86"/><line class="cls-4" x1="264.01" y1="290.59" x2="283.47" y2="290.59"/><line class="cls-4" x1="299.44" y1="290.89" x2="318.9" y2="290.89"/><ellipse class="cls-4" cx="193.48" cy="212.77" rx="32" ry="38.78"/><path class="cls-5" d="M197.81,207.17a137.5,137.5,0,0,1,27.33-41.66,66,66,0,0,1,30.12-17.4,1.69,1.69,0,0,1,1.21,0,1.73,1.73,0,0,1,.71,1.23c2.57,10.92.68,21.09-3.18,31.37a20.45,20.45,0,0,0,3.27-3.43c1.11-1.2,2.63-2.26,4.25-2a4.3,4.3,0,0,1,3.16,2.82c3.28,8.42-1.63,19.25-6.77,25.81-7.41,9.47-18.56,15.36-29.74,19.18a122.25,122.25,0,0,1-12.88,3.58S188,232.77,197.81,207.17Z"/><path class="cls-5" d="M189.31,208.39c-7.12-16.8-17.78-33.35-30.91-46a68.47,68.47,0,0,0-14.59-10.92c-2.43-1.32-13.79-7.51-16.32-5.34a1.7,1.7,0,0,0-.42.74,37.36,37.36,0,0,0-1.72,14.59c.38,5.94,1.38,14.28,4.53,19.42,0,0-6.22-9.86-10.12-4.93s-6.22,40.22,51.12,52.94C170.88,228.89,199.69,235.38,189.31,208.39Z"/><path class="cls-6" d="M207.88,176.77a6.23,6.23,0,0,1,1-.44c3.63-1.14,8.3,1,11.88,1.61a112.59,112.59,0,0,1,16.71,3.91c11.11,3.61,23.14,10.29,29.36,20.62,2,3.36,3,7.54,1.74,11.24a11.84,11.84,0,0,1-7,6.94c-4.73,1.85-9.53,1.71-12.58-2.71-4.66-6.78-8.43-10.6-16-14.53-5.41-2.81-10.86-5.64-16.7-7.39a35.51,35.51,0,0,1-8.71-3.4,9.47,9.47,0,0,1-4.39-5.58C202.39,183.46,204.58,178.55,207.88,176.77Z"/><path class="cls-6" d="M175.9,175.05a5.26,5.26,0,0,0-1.12.12c-3.72.75-6.77,4.9-9.62,7.14a112.88,112.88,0,0,0-12.74,11.49c-8,8.54-15.3,20.19-15.75,32.24-.15,3.92,1,8.06,3.9,10.69a11.91,11.91,0,0,0,9.46,2.71c5-.67,9.18-3.12,9.71-8.46.81-8.18,2.26-13.35,7-20.45,3.38-5.07,6.79-10.18,11.05-14.54a35.22,35.22,0,0,0,6-7.18,9.47,9.47,0,0,0,1.14-7C184,178.26,179.66,175,175.9,175.05Z"/><path class="cls-6" d="M192.42,249.81c1.43.58.79,12,.6,13.62a17.56,17.56,0,0,1-2.62,7.89,9.27,9.27,0,0,1-6.79,3.86,31.85,31.85,0,0,1-9.64-.49,14.27,14.27,0,0,1-5.29-1.73c-3.13-2.14-1.7-6.46.94-8.36.3-.21,3.55-2.09,3.59-1.53l-1.6-21.65Z"/><path class="cls-6" d="M193.85,249.69c-1.44.58-.79,12-.6,13.62.46,3.77,1.62,8.64,5,10.47,3.59,2,9.18,1.67,13.1,1.17,4.1-.52,10.14-2.65,7.28-7.95a8.16,8.16,0,0,0-2.43-2.79c-.36-.25-3.08-1.65-3.11-1.26l1.6-21.65Z"/><path class="cls-7" d="M218.86,189.67H167.79a34.91,34.91,0,0,1,9.79-10.41h31.49A34.91,34.91,0,0,1,218.86,189.67Z"/><path class="cls-8" d="M209.07,179.26H177.58a27.25,27.25,0,0,1,31.49,0Z"/><path class="cls-7" d="M225.07,208.09h-63.5a45,45,0,0,1,2.36-10.41h58.78A44,44,0,0,1,225.07,208.09Z"/><path class="cls-8" d="M222.71,197.68H163.93a40.32,40.32,0,0,1,3.86-8h51.07A40.29,40.29,0,0,1,222.71,197.68Z"/><path class="cls-7" d="M225.19,216.67a46.07,46.07,0,0,1-2,10.4H163.48a45.52,45.52,0,0,1-2-10.4Z"/><path class="cls-8" d="M174.65,244.53H212a27.58,27.58,0,0,1-37.34,0Z"/><path class="cls-8" d="M223.17,227.07a43,43,0,0,1-3,7.05H166.47a43,43,0,0,1-3-7.05Z"/><path class="cls-8" d="M225.33,213c0,1.23-.05,2.45-.14,3.65H161.46c-.09-1.2-.14-2.42-.14-3.65,0-1.67.09-3.31.25-4.93h63.5A47.16,47.16,0,0,1,225.33,213Z"/><path class="cls-7" d="M220.18,234.12A36.67,36.67,0,0,1,212,244.53H174.65a36.81,36.81,0,0,1-8.18-10.41Z"/><path class="cls-8" d="M207.42,204.66l31.78-43.81a1.38,1.38,0,0,1,1.9-.31l35.37,25.19a1.36,1.36,0,0,1,.33,1.9l-31.49,44.66a1.37,1.37,0,0,1-1.92.31l-35.67-26A1.36,1.36,0,0,1,207.42,204.66Z"/><line class="cls-4" x1="254.67" y1="179.24" x2="249.41" y2="186.4"/><line class="cls-4" x1="236.54" y1="203.92" x2="231.89" y2="210.24"/><line class="cls-4" x1="263.92" y1="185.68" x2="258.53" y2="193.02"/><line class="cls-4" x1="245.65" y1="210.54" x2="241.14" y2="216.69"/><line class="cls-4" x1="246.07" y1="173.37" x2="240.98" y2="180.29"/><polygon class="cls-7" points="243.23 194.81 236.53 203.92 228.11 197.81 234.81 188.69 243.23 194.81"/><line class="cls-4" x1="228.11" y1="197.81" x2="223.28" y2="204.37"/><polygon class="cls-6" points="249.41 186.4 243.23 194.81 234.81 188.69 240.99 180.29 249.41 186.4"/><polygon class="cls-7" points="258.53 193.02 252.35 201.42 243.23 194.81 249.41 186.4 258.53 193.02"/><line class="cls-4" x1="264.66" y1="197.47" x2="258.53" y2="193.02"/><line class="cls-4" x1="240.98" y1="180.29" x2="234.03" y2="175.25"/><line class="cls-4" x1="258.28" y1="205.72" x2="252.35" y2="201.42"/><line class="cls-4" x1="234.81" y1="188.69" x2="227.64" y2="183.5"/><polygon class="cls-6" points="252.35 201.42 245.65 210.54 236.53 203.92 243.23 194.81 252.35 201.42"/><line class="cls-4" x1="250.18" y1="213.82" x2="245.65" y2="210.54"/><line class="cls-4" x1="228.11" y1="197.81" x2="219.55" y2="191.6"/><rect class="cls-7" x="130.11" y="211.78" width="27.88" height="27.88" rx="1.26"/><rect class="cls-6" x="124.89" y="245.79" width="27.88" height="27.88" rx="1.26"/><rect class="cls-7" x="97.05" y="246.12" width="27.88" height="27.88" rx="1.26"/><rect class="cls-6" x="97.05" y="218.31" width="27.88" height="27.88" rx="1.26"/><path class="cls-6" d="M266.72,217.89c-3.6,4.1-9,5.05-12.05,2.12s-2.61-8.6,1-12.69,9-5,12-2.13S270.32,213.79,266.72,217.89Z"/><path class="cls-8" d="M197.39,182.54l-5.57.2a37.94,37.94,0,0,1-39.27-36.56l-.45-12.79a40.93,40.93,0,0,1,41-42.4h0a43.15,43.15,0,0,1,43,41.61l.29,8A40.48,40.48,0,0,1,197.39,182.54Z"/><path class="cls-6" d="M229.23,110.72c-4.68-.13-9.61-.46-14,.46-5.19,1.08-9.74,4.09-13.54,7.69-4.13,3.91-11,3.93-16,1.53-4.77-2.31-7.89-6.94-12.87-9.2a31.94,31.94,0,0,0-13.3-2.82A40.9,40.9,0,0,1,193.14,91a43.11,43.11,0,0,1,36.09,19.73Z"/><path class="cls-8" d="M186.74,89.43h9.54a4,4,0,0,1,4,4v.24A.28.28,0,0,1,200,94H183.7a.28.28,0,0,1-.28-.28v-.95A3.32,3.32,0,0,1,186.74,89.43Z" transform="translate(-3.15 6.9) rotate(-2.04)"/><path class="cls-8" d="M188.71,89.24c.08-1.67.71-9.66,4.63-13.29a.28.28,0,0,1,.47.23c-.21,2.46-.84,10.78.42,12.73a.29.29,0,0,1-.22.45l-5,.18A.29.29,0,0,1,188.71,89.24Z"/><circle class="cls-9" cx="194.22" cy="71.09" r="6.18"/><circle class="cls-10" cx="194.22" cy="71.09" r="4.38"/><circle class="cls-7" cx="178" cy="141.73" r="8.16"/><circle class="cls-7" cx="216.83" cy="140.35" r="8.16"/><circle class="cls-4" cx="175.05" cy="143.56" r="16.72"/><circle class="cls-4" cx="213.88" cy="142.18" r="16.72"/><line class="cls-4" x1="191.75" y1="142.97" x2="197.17" y2="142.77"/><line class="cls-4" x1="158.34" y1="144.16" x2="152.33" y2="136.83"/><line class="cls-4" x1="230.59" y1="141.58" x2="235.86" y2="133.85"/><path class="cls-4" d="M189.86,166.54a7.51,7.51,0,0,1,10.24-.23"/></svg>