<svg id="Layer_1" data-name="Layer 1" xmlns="http://www.w3.org/2000/svg" xmlns:xlink="http://www.w3.org/1999/xlink" viewBox="0 0 351.16 293.04"><defs><style>.cls-1,.cls-14,.cls-5{fill:none;}.cls-11,.cls-2,.cls-3{fill:#c4cbe0;}.cls-2{opacity:0.25;}.cls-10,.cls-16,.cls-4{fill:#fff;}.cls-10,.cls-11,.cls-5,.cls-9{stroke:#3e6be0;}.cls-10,.cls-11,.cls-14,.cls-20,.cls-5,.cls-9{stroke-linecap:round;stroke-linejoin:round;}.cls-6{clip-path:url(#clip-path);}.cls-15,.cls-17,.cls-7,.cls-9{fill:#3e6be0;}.cls-7{opacity:0.3;}.cls-8{clip-path:url(#clip-path-2);}.cls-12{fill:#ffd9d9;}.cls-13{fill:#ff6766;}.cls-14,.cls-19,.cls-20{stroke:#ff6766;}.cls-15,.cls-16{font-size:11.89px;font-family:ZohoPuvi-Semibold, Zoho Puvi;font-weight:600;}.cls-18,.cls-19,.cls-20{fill:#ffbebe;}.cls-19{stroke-miterlimit:10;}</style><clipPath id="clip-path"><rect class="cls-1" x="101.95" y="222.73" width="131.18" height="65.79"/></clipPath><clipPath id="clip-path-2"><rect class="cls-1" x="111.15" y="244.91" width="117.38" height="41.66"/></clipPath></defs><path class="cls-2" d="M350.49,258.12A175.11,175.11,0,0,1,348,287.37H318A145,145,0,1,0,30.89,258.12a146,146,0,0,0,3,29.25H3.78a174.59,174.59,0,1,1,346.71-29.25Z"/><path class="cls-3" d="M320.93,257.12A146,146,0,0,1,318,286.37H33.84a145,145,0,1,1,287.09-29.25Z"/><path class="cls-4" d="M263.47,281.72a15.08,15.08,0,0,1-1.06,5.6H146.63a18.46,18.46,0,0,1-1.78-8,18.73,18.73,0,0,1,18.73-18.73,17,17,0,0,1,1.75.09,25.2,25.2,0,0,1,50-6.23A16.34,16.34,0,0,1,242,267.12c0,.18,0,.37,0,.55a15,15,0,0,1,6.11-1.28A15.33,15.33,0,0,1,263.47,281.72Z"/><path class="cls-4" d="M137.53,220.75c0,5.83-12.38,3.4-16.48,3.4H66.39a11.18,11.18,0,0,1-1.08-4.84,11.41,11.41,0,0,1,11.4-11.41,9.46,9.46,0,0,1,1.07.06,14.6,14.6,0,0,1-.1-1.76,15.34,15.34,0,0,1,30.55-2,9.94,9.94,0,0,1,16.25,7.69v.33a9.18,9.18,0,0,1,3.72-.78A9.34,9.34,0,0,1,137.53,220.75Z"/><circle class="cls-5" cx="132.6" cy="265.65" r="3.09"/><circle class="cls-5" cx="281.86" cy="264.1" r="3.53"/><line class="cls-5" x1="96.52" y1="247.65" x2="103.76" y2="247.65"/><line class="cls-5" x1="100.14" y1="244.03" x2="100.14" y2="251.27"/><line class="cls-5" x1="45.72" y1="183.22" x2="52.95" y2="183.22"/><line class="cls-5" x1="49.33" y1="179.6" x2="49.33" y2="186.84"/><line class="cls-5" x1="248.23" y1="135.05" x2="255.47" y2="135.05"/><line class="cls-5" x1="251.85" y1="131.43" x2="251.85" y2="138.67"/><line class="cls-5" x1="34.02" y1="288.15" x2="73.78" y2="288.15"/><line class="cls-5" x1="89.01" y1="288.18" x2="206.17" y2="288.18"/><line class="cls-5" x1="222.25" y1="288.3" x2="245.51" y2="288.3"/><line class="cls-5" x1="261.11" y1="288.03" x2="280.57" y2="288.03"/><line class="cls-5" x1="296.54" y1="288.34" x2="316" y2="288.34"/><g class="cls-6"><path class="cls-7" d="M170.41,280a122.68,122.68,0,0,1,24.42-37.21,58.78,58.78,0,0,1,26.9-15.55,1.49,1.49,0,0,1,1.08,0,1.51,1.51,0,0,1,.64,1.1c2.3,9.75.61,18.85-2.84,28a18.48,18.48,0,0,0,2.92-3.07,4.65,4.65,0,0,1,3.8-1.82,3.82,3.82,0,0,1,2.82,2.52c2.93,7.52-1.46,17.2-6,23.06-6.63,8.46-16.59,13.72-26.58,17.14a111.45,111.45,0,0,1-11.51,3.2S161.61,302.91,170.41,280Z"/><path class="cls-7" d="M171.87,278.88c-6.37-15-15.88-29.8-27.62-41.1a60.55,60.55,0,0,0-13-9.75c-2.16-1.18-12.31-6.72-14.57-4.78a1.4,1.4,0,0,0-.37.66,33.12,33.12,0,0,0-1.54,13c.34,5.31,1.23,12.76,4,17.35,0,0-5.57-8.81-9-4.4s-5.57,35.93,45.67,47.29C155.41,297.19,181.14,303,171.87,278.88Z"/></g><g class="cls-8"><path class="cls-9" d="M192.11,258.69H146.47a31.06,31.06,0,0,1,8.75-9.29h28.14A31.06,31.06,0,0,1,192.11,258.69Z"/><path class="cls-10" d="M183.36,249.4H155.22a24.29,24.29,0,0,1,28.14,0Z"/><path class="cls-9" d="M197.66,275.15H140.92a40,40,0,0,1,2.11-9.3h52.52A40,40,0,0,1,197.66,275.15Z"/><path class="cls-10" d="M195.55,265.85H143a37,37,0,0,1,3.44-7.16h45.64A37,37,0,0,1,195.55,265.85Z"/><path class="cls-9" d="M197.76,282.82a41.11,41.11,0,0,1-1.81,9.29H142.63a41.11,41.11,0,0,1-1.81-9.29Z"/><path class="cls-10" d="M196,292.11a37.6,37.6,0,0,1-2.67,6.3h-48a37.6,37.6,0,0,1-2.67-6.3Z"/><path class="cls-10" d="M197.88,279.56c0,1.1,0,2.18-.12,3.26H140.82c-.08-1.08-.12-2.16-.12-3.26a42.84,42.84,0,0,1,.22-4.41h56.74A42.84,42.84,0,0,1,197.88,279.56Z"/></g><path class="cls-10" d="M174.88,247.76l-6.68.24a45.51,45.51,0,0,1-47.1-43.85l-.54-15.35A49.08,49.08,0,0,1,169.77,138h0a51.75,51.75,0,0,1,51.56,49.91l.34,9.63A48.56,48.56,0,0,1,174.88,247.76Z"/><path class="cls-11" d="M213.07,161.62c-5.62-.16-11.53-.55-16.82.55-6.23,1.3-11.68,4.9-16.24,9.22-5,4.7-13.19,4.71-19.16,1.84-5.73-2.77-9.46-8.32-15.43-11a38.4,38.4,0,0,0-16-3.39A49,49,0,0,1,169.78,138a51.56,51.56,0,0,1,35.82,14.57A50.58,50.58,0,0,1,213.07,161.62Z"/><path class="cls-10" d="M162.32,136.09h11a5.1,5.1,0,0,1,5.1,5.1v0a.36.36,0,0,1-.36.36H158.48a.36.36,0,0,1-.36-.36v-.9A4.2,4.2,0,0,1,162.32,136.09Z" transform="translate(-4.84 6.09) rotate(-2.04)"/><path class="cls-10" d="M164.46,135.86c.11-2,.86-11.59,5.56-15.94a.34.34,0,0,1,.57.27c-.26,3-1,12.93.5,15.27a.35.35,0,0,1-.27.54l-6,.21A.34.34,0,0,1,164.46,135.86Z"/><circle class="cls-12" cx="171.08" cy="114.1" r="7.42"/><circle class="cls-13" cx="171.08" cy="114.1" r="5.25"/><circle class="cls-5" cx="148.08" cy="201.01" r="20.05"/><circle class="cls-5" cx="194.65" cy="199.35" r="20.05"/><line class="cls-5" x1="168.12" y1="200.29" x2="174.62" y2="200.06"/><line class="cls-5" x1="128.04" y1="201.72" x2="120.83" y2="192.94"/><line class="cls-5" x1="214.69" y1="198.63" x2="221.01" y2="189.36"/><path class="cls-5" d="M166.16,230a6.3,6.3,0,0,1,4.57-2.53,6.15,6.15,0,0,1,5.33,2.53"/><circle class="cls-9" cx="150.36" cy="210.1" r="9.05"/><circle class="cls-9" cx="193.43" cy="208.56" r="9.05"/><path class="cls-11" d="M191.34,249.64c3.33,3,7.11,5.61,10.13,9,4,4.52,7.15,10.2,7,16.4-.42,14.59-20.1,16.71-26.86,8.88-3.62-4.18-7.16-8.49-8.3-14a26.86,26.86,0,0,1,.2-10.68,48.59,48.59,0,0,1,2-6.91c1.08-3.06,2.05-5.67,5.37-6.8s6.76.51,9.23,2.91C190.46,248.84,190.89,249.24,191.34,249.64Z"/><path class="cls-11" d="M181.77,263.12a7.27,7.27,0,0,0,4,.22c5.54-1.43,5.57-8.88,5.28-13.43"/><path class="cls-11" d="M185.81,263.34s1,9.43,10.78,4.11"/><path class="cls-11" d="M147.26,249.61c-.57.81-1.86,1.19-2.66,1.67-.62.37-1.22.79-1.81,1.2a39.85,39.85,0,0,0-4.11,3.33,27.34,27.34,0,0,0-7.22,10.46,21.29,21.29,0,0,0-1,10.44c.54,3.54,2.14,7,5.28,8.88a14.91,14.91,0,0,0,8.89,1.81,26.15,26.15,0,0,0,7.24-1.59,19.06,19.06,0,0,0,6.74-4.75,23.19,23.19,0,0,0,5-6.57,25.19,25.19,0,0,0,1.69-11.37A57,57,0,0,0,163.75,253a14.43,14.43,0,0,0-2.91-5.58,9.28,9.28,0,0,0-7.51-3.44,7.15,7.15,0,0,0-4.86,2.86,13.2,13.2,0,0,0-1.07,2.57A1.64,1.64,0,0,1,147.26,249.61Z"/><path class="cls-11" d="M147.39,249.7s-1.91,13.1,8.73,12.83"/><path class="cls-11" d="M141.68,266.68s7.74,5.8,11.61-4.35"/><circle class="cls-9" cx="135.64" cy="130.65" r="3.15"/><circle class="cls-11" cx="126.31" cy="124.14" r="4.8"/><path class="cls-10" d="M108.34,74.74H84.2A6.61,6.61,0,0,0,78.48,78L66.41,99a6.6,6.6,0,0,0,0,6.6l12.07,20.9a6.6,6.6,0,0,0,5.72,3.31h24.14a6.6,6.6,0,0,0,5.72-3.31l12.07-20.9a6.6,6.6,0,0,0,0-6.6L114.06,78A6.61,6.61,0,0,0,108.34,74.74Z"/><path class="cls-9" d="M101.43,107.93l5.26-3a1.93,1.93,0,0,1,1.92,0l5.25,3a1.92,1.92,0,0,1,1,1.66v6.07a1.93,1.93,0,0,1-1,1.66l-5.25,3a1.89,1.89,0,0,1-1.92,0l-5.26-3a1.93,1.93,0,0,1-1-1.66v-6.07A1.92,1.92,0,0,1,101.43,107.93Z"/><path class="cls-11" d="M92.32,79.75l5.25-3a1.93,1.93,0,0,1,1.92,0l5.25,3a1.89,1.89,0,0,1,1,1.66v6.07a1.91,1.91,0,0,1-1,1.66l-5.25,3a1.89,1.89,0,0,1-1.92,0l-5.25-3a1.91,1.91,0,0,1-1-1.66V81.41A1.89,1.89,0,0,1,92.32,79.75Z"/><path class="cls-11" d="M61.06,96l5.25-3a1.89,1.89,0,0,1,1.92,0l5.25,3a1.91,1.91,0,0,1,1,1.66v6.07a1.91,1.91,0,0,1-1,1.66l-5.25,3a1.89,1.89,0,0,1-1.92,0l-5.25-3a1.91,1.91,0,0,1-1-1.66V97.68A1.91,1.91,0,0,1,61.06,96Z"/><path class="cls-14" d="M118.4,107.53c8.71-17.64-10-21.89-10-21.89"/><path class="cls-14" d="M78.27,96.74s14.52-3.5,23.75,7.67"/><text class="cls-15" transform="translate(95.97 88.19)">1</text><text class="cls-16" transform="translate(104.12 116.37)">2</text><text class="cls-15" transform="translate(63.51 104.46)">3</text><circle class="cls-17" cx="83.25" cy="82" r="1.23"/><circle class="cls-13" cx="83.81" cy="118.81" r="1.23"/><rect class="cls-17" x="84.51" y="106.63" width="3.26" height="3.26" rx="0.61"/><path class="cls-18" d="M97.69,121.42l1.58-.69a.32.32,0,0,1,.46.33l-.19,1.72-.2,1.72a.33.33,0,0,1-.52.23l-1.39-1-1.39-1a.32.32,0,0,1,.06-.56Z"/><path class="cls-18" d="M111.72,93.52l.8-.35a.16.16,0,0,1,.23.17l-.1.87-.1.87a.16.16,0,0,1-.26.11l-.7-.52-.71-.52a.16.16,0,0,1,0-.28Z"/><path class="cls-19" d="M79.4,97.88l-1.3-1a.08.08,0,0,1,0,0l0-1.68a.05.05,0,0,0-.09,0L75.61,98a.06.06,0,0,0,0,.09L79.37,98S79.44,97.92,79.4,97.88Z"/><path class="cls-20" d="M120,108l-1.63-.29s0,0,0,0l-.77-1.5a.05.05,0,0,0-.1,0l-.77,3.66a.06.06,0,0,0,.08.06l3.25-1.81A.06.06,0,0,0,120,108Z"/></svg>