<svg id="Layer_1" data-name="Layer 1" xmlns="http://www.w3.org/2000/svg" xmlns:xlink="http://www.w3.org/1999/xlink" viewBox="0 0 351.16 293.04"><defs><style>.cls-1,.cls-5{fill:none;}.cls-10,.cls-2,.cls-3{fill:#c4cbe0;}.cls-2{opacity:0.25;}.cls-4,.cls-9{fill:#fff;}.cls-10,.cls-13,.cls-5,.cls-6,.cls-9{stroke:#3e6be0;stroke-linecap:round;stroke-linejoin:round;}.cls-13,.cls-6,.cls-8{fill:#3e6be0;}.cls-6{opacity:0.3;}.cls-7{clip-path:url(#clip-path);}.cls-11{fill:#ffd9d9;}.cls-12{fill:#ff6766;}</style><clipPath id="clip-path"><rect class="cls-1" x="104.81" y="213.17" width="131.82" height="75.33"/></clipPath></defs><path class="cls-2" d="M350.63,258.31a175.11,175.11,0,0,1-2.45,29.25H318.12A145,145,0,1,0,31,258.31,146,146,0,0,0,34,287.56H3.92a174.59,174.59,0,1,1,346.71-29.25Z"/><path class="cls-3" d="M321.07,257.31a146,146,0,0,1-2.95,29.25H34a145,145,0,1,1,287.09-29.25Z"/><path class="cls-4" d="M263.61,281.91a15.08,15.08,0,0,1-1.06,5.6H146.77a18.46,18.46,0,0,1-1.78-8,18.73,18.73,0,0,1,18.73-18.73,17,17,0,0,1,1.75.09,25.2,25.2,0,0,1,50-6.23,16.34,16.34,0,0,1,26.7,12.63c0,.18,0,.37,0,.55a15,15,0,0,1,6.11-1.28A15.33,15.33,0,0,1,263.61,281.91Z"/><path class="cls-4" d="M137.67,220.93c0,5.83-12.38,3.41-16.48,3.41H66.54a11.19,11.19,0,0,1-1.09-4.84,11.41,11.41,0,0,1,11.41-11.41,9.42,9.42,0,0,1,1.06.06,14.6,14.6,0,0,1-.1-1.76,15.34,15.34,0,0,1,30.55-2A9.94,9.94,0,0,1,124.62,212v.34a9.08,9.08,0,0,1,3.72-.78A9.33,9.33,0,0,1,137.67,220.93Z"/><circle class="cls-5" cx="282" cy="264.29" r="3.53"/><line class="cls-5" x1="96.67" y1="247.84" x2="103.9" y2="247.84"/><line class="cls-5" x1="100.29" y1="244.22" x2="100.29" y2="251.46"/><line class="cls-5" x1="45.86" y1="183.41" x2="53.1" y2="183.41"/><line class="cls-5" x1="49.48" y1="179.79" x2="49.48" y2="187.03"/><line class="cls-5" x1="248.37" y1="135.24" x2="255.61" y2="135.24"/><line class="cls-5" x1="251.99" y1="131.62" x2="251.99" y2="138.86"/><line class="cls-5" x1="34.16" y1="288.34" x2="73.92" y2="288.34"/><line class="cls-5" x1="89.15" y1="288.37" x2="206.31" y2="288.37"/><line class="cls-5" x1="222.39" y1="288.49" x2="245.65" y2="288.49"/><line class="cls-5" x1="261.25" y1="288.22" x2="280.71" y2="288.22"/><line class="cls-5" x1="296.68" y1="288.52" x2="316.14" y2="288.52"/><path class="cls-6" d="M182.6,268.74A134.29,134.29,0,0,1,209.33,228a64.35,64.35,0,0,1,29.44-17,1.71,1.71,0,0,1,1.18,0,1.69,1.69,0,0,1,.7,1.21c2.51,10.67.67,20.62-3.11,30.67a20.32,20.32,0,0,0,3.2-3.35c1.08-1.18,2.57-2.21,4.15-2a4.17,4.17,0,0,1,3.09,2.75c3.21,8.23-1.59,18.82-6.61,25.23-7.25,9.26-18.15,15-29.09,18.76a121.61,121.61,0,0,1-12.59,3.5S173,293.77,182.6,268.74Z"/><path class="cls-6" d="M179.27,267.43c-7-16.42-17.39-32.6-30.23-45a66.69,66.69,0,0,0-14.27-10.67c-2.37-1.29-13.48-7.35-16-5.22a1.72,1.72,0,0,0-.41.72,36.5,36.5,0,0,0-1.68,14.27c.38,5.8,1.35,14,4.43,19,0,0-6.09-9.64-9.89-4.82s-6.09,39.32,50,51.76C161.25,287.48,189.41,293.82,179.27,267.43Z"/><g class="cls-7"><path class="cls-8" d="M206,256.48H156.08a34.19,34.19,0,0,1,9.57-10.17h30.79A34.22,34.22,0,0,1,206,256.48Z"/><path class="cls-4" d="M196.44,246.31H165.65a26.63,26.63,0,0,1,30.79,0Z"/><path class="cls-8" d="M212.09,274.5H150a43.65,43.65,0,0,1,2.31-10.18h57.47A43.65,43.65,0,0,1,212.09,274.5Z"/><path class="cls-4" d="M209.78,264.32H152.31a39.68,39.68,0,0,1,3.77-7.84H206A40.21,40.21,0,0,1,209.78,264.32Z"/><path class="cls-8" d="M212.2,282.89a45.35,45.35,0,0,1-2,10.17H151.87a44.81,44.81,0,0,1-2-10.17Z"/><path class="cls-4" d="M212.34,279.32c0,1.21-.05,2.39-.14,3.57H149.89c-.09-1.18-.13-2.36-.13-3.57a47.86,47.86,0,0,1,.24-4.82h62.09A45.08,45.08,0,0,1,212.34,279.32Z"/></g><path class="cls-9" d="M185.37,245.17l-5.57.2a37.94,37.94,0,0,1-39.26-36.56l-.46-12.8a40.94,40.94,0,0,1,41-42.4h0a43.15,43.15,0,0,1,43,41.62l.29,8A40.49,40.49,0,0,1,185.37,245.17Z"/><path class="cls-10" d="M217.22,173.34c-4.69-.13-9.61-.45-14,.46-5.19,1.08-9.74,4.09-13.53,7.69-4.14,3.92-11,3.93-16,1.54-4.78-2.31-7.89-6.95-12.87-9.21A32.14,32.14,0,0,0,147.5,171a40.9,40.9,0,0,1,33.62-17.39,43.18,43.18,0,0,1,36.1,19.73Z"/><path class="cls-9" d="M174.72,152.06h9.54a4,4,0,0,1,4,4v.24a.28.28,0,0,1-.28.28H171.68a.28.28,0,0,1-.28-.28v-.95a3.32,3.32,0,0,1,3.32-3.32Z" transform="translate(-5.39 6.51) rotate(-2.04)"/><path class="cls-9" d="M176.69,151.86c.09-1.67.71-9.66,4.63-13.29a.29.29,0,0,1,.48.23c-.22,2.46-.84,10.78.41,12.73a.29.29,0,0,1-.22.45l-5,.18A.28.28,0,0,1,176.69,151.86Z"/><circle class="cls-11" cx="182.2" cy="133.72" r="6.18"/><circle class="cls-12" cx="182.2" cy="133.72" r="4.38"/><circle class="cls-13" cx="165.98" cy="204.36" r="8.16"/><circle class="cls-13" cx="204.81" cy="202.97" r="8.16"/><circle class="cls-5" cx="163.03" cy="206.19" r="16.72"/><circle class="cls-5" cx="201.86" cy="204.8" r="16.72"/><line class="cls-5" x1="179.73" y1="205.59" x2="185.15" y2="205.4"/><line class="cls-5" x1="146.32" y1="206.78" x2="140.31" y2="199.46"/><line class="cls-5" x1="218.57" y1="204.2" x2="223.84" y2="196.48"/><path class="cls-5" d="M177.84,228.17a6.07,6.07,0,0,0,10.25-.24"/><path class="cls-10" d="M198.12,266.94c-4,0-8.16.74-12.17,1.08a1.72,1.72,0,0,1-.75,0,1.91,1.91,0,0,1-.63-.54,11.69,11.69,0,0,0-7.45-3.95,11.45,11.45,0,0,0-12.57,12.26c.89,15.44,24.92,11.31,35,11.5,6.69.12,13.71-2.92,16-9.83a13.77,13.77,0,0,0,.36-5.79,34.39,34.39,0,0,0-9.31-19.88c-1.91-2-3.54-4.56-6-5.9-3.59-1.92-8.89-.12-11.07,3.16-2.27,3.43-1.45,8.21-.16,11.85C190.89,265.37,193.35,266.94,198.12,266.94Z"/><path class="cls-10" d="M185.2,268a9.88,9.88,0,0,1,1.77,8.11"/><path class="cls-13" d="M161.4,234.19a6.47,6.47,0,1,0,6.46-6.47A6.46,6.46,0,0,0,161.4,234.19Zm2,0a4.45,4.45,0,1,1,4.44,4.44A4.44,4.44,0,0,1,163.42,234.19Z"/><path class="cls-13" d="M202.25,228.57s1.54,12.46-9.53,15.93a15.42,15.42,0,0,1-14.52-2.74,11,11,0,0,1-2.89-3.79,21,21,0,0,1-1.67-4.82c-.09-.42-.8-4.86-.37-4.86Z"/><ellipse class="cls-13" cx="187.66" cy="228.57" rx="14.79" ry="6.25"/><ellipse class="cls-10" cx="187.36" cy="228.79" rx="13.05" ry="5.28"/><path class="cls-10" d="M161.77,250c-5.44,3.17-6.44,8.85-10.23,14.77-.75-.26-5.39-1.46-6-1.61-5.15-1.1-10.69-2-14.78-5.59-4.58-4.06-5.68-10.57-4.32-16.31,3.6-15.17,18.74-23.1,33.31-24,6.17-.39,14.28,6.56,12,13.34a8.59,8.59,0,0,1-1.4,2.42,19.77,19.77,0,0,1-5.71,5.45,9.65,9.65,0,0,1-10.82-.58,9.44,9.44,0,0,0-6.81,4.51C151.92,242.82,157.58,246.67,161.77,250Z"/></svg>