<svg id="Layer_1" data-name="Layer 1" xmlns="http://www.w3.org/2000/svg" viewBox="0 0 351.16 293.04"><defs><style>.cls-1,.cls-2,.cls-6{fill:#c4cbe0;}.cls-1{opacity:0.25;}.cls-3,.cls-8{fill:#fff;}.cls-4{fill:none;}.cls-12,.cls-4,.cls-5,.cls-6,.cls-7,.cls-8,.cls-9{stroke:#3e6be0;stroke-linecap:round;stroke-linejoin:round;}.cls-5,.cls-7{fill:#3e6be0;}.cls-5{opacity:0.4;}.cls-9{fill:#cad1e6;}.cls-10{fill:#ffc4c4;}.cls-11{fill:#ff6766;}.cls-12{fill:#3e6be6;}</style></defs><path class="cls-1" d="M351.91,257.65a175.11,175.11,0,0,1-2.45,29.25H319.4A145,145,0,1,0,32.31,257.65a146,146,0,0,0,2.95,29.25H5.2a174.59,174.59,0,1,1,346.71-29.25Z"/><path class="cls-2" d="M322.35,257.65a146,146,0,0,1-3,29.25H35.26a145,145,0,1,1,287.09-29.25Z"/><path class="cls-3" d="M264.9,281.72a15.08,15.08,0,0,1-1.06,5.6H148.06a18.46,18.46,0,0,1-1.78-8A18.73,18.73,0,0,1,165,260.63a17,17,0,0,1,1.75.09,25.2,25.2,0,0,1,50-6.23,16.34,16.34,0,0,1,26.7,12.63c0,.18,0,.37,0,.55a15,15,0,0,1,6.11-1.28A15.33,15.33,0,0,1,264.9,281.72Z"/><path class="cls-3" d="M139,220.27c0,5.84-12.38,3.41-16.49,3.41H67.82a11.18,11.18,0,0,1-1.08-4.84,11.41,11.41,0,0,1,11.4-11.41,9.59,9.59,0,0,1,1.07.06,14.59,14.59,0,0,1-.11-1.76,15.34,15.34,0,0,1,30.55-2,9.95,9.95,0,0,1,16.26,7.69c0,.1,0,.22,0,.33a9.08,9.08,0,0,1,3.72-.78A9.34,9.34,0,0,1,139,220.27Z"/><circle class="cls-4" cx="285.6" cy="264.69" r="3.37"/><circle class="cls-4" cx="62.66" cy="107.43" r="3"/><circle class="cls-4" cx="85.63" cy="58.17" r="2"/><circle class="cls-4" cx="233.08" cy="48.51" r="2.33"/><circle class="cls-4" cx="180.93" cy="259.36" r="1.08"/><line class="cls-4" x1="36.97" y1="287.69" x2="76.73" y2="287.69"/><line class="cls-4" x1="91.95" y1="287.72" x2="209.12" y2="287.72"/><line class="cls-4" x1="225.19" y1="287.84" x2="248.46" y2="287.84"/><line class="cls-4" x1="264.06" y1="287.57" x2="283.52" y2="287.57"/><line class="cls-4" x1="299.49" y1="287.87" x2="318.95" y2="287.87"/><line class="cls-4" x1="249.66" y1="167.83" x2="256.9" y2="167.83"/><line class="cls-4" x1="253.28" y1="164.21" x2="253.28" y2="171.45"/><path class="cls-5" d="M110.24,230a130.67,130.67,0,0,1,25.94-39.54,62.65,62.65,0,0,1,28.58-16.52,1.25,1.25,0,0,1,1.83,1.16c2.44,10.35.65,20-3,29.77a18.81,18.81,0,0,0,3.1-3.26c1.05-1.14,2.5-2.14,4-1.93a4.05,4.05,0,0,1,3,2.67c3.12,8-1.54,18.28-6.42,24.5-7,9-17.61,14.57-28.23,18.21a116.94,116.94,0,0,1-12.22,3.39S100.9,254.28,110.24,230Z"/><path class="cls-5" d="M103.1,231.15c-6.76-15.94-16.87-31.65-29.34-43.66a64.87,64.87,0,0,0-13.85-10.36c-2.3-1.26-13.08-7.14-15.48-5.07a1.53,1.53,0,0,0-.4.7,35.31,35.31,0,0,0-1.63,13.85c.36,5.63,1.31,13.55,4.3,18.43,0,0-5.91-9.36-9.61-4.68s-5.91,38.18,48.52,50.24C85.61,250.6,113,256.76,103.1,231.15Z"/><path class="cls-6" d="M126.43,203a5.37,5.37,0,0,1,.91.29c2.95,1.28,4.76,5.24,6.72,7.59a94.53,94.53,0,0,1,8.55,11.73c5.13,8.45,9.15,19.36,7.43,29.42-.56,3.26-2.23,6.5-5.09,8.16a10,10,0,0,1-8.3.6c-4.05-1.43-7.05-4.18-6.56-8.69.75-6.91.44-11.44-2.24-18.14a81.73,81.73,0,0,0-6.62-14,30.25,30.25,0,0,1-3.71-7,8.08,8.08,0,0,1,.27-6A8.63,8.63,0,0,1,126.43,203Z"/><path class="cls-6" d="M91.08,206.51a9.52,9.52,0,0,0-1.81-.38,17.48,17.48,0,0,0-6.66,1c-1.82.54-3.64,1.12-5.43,1.74A22.34,22.34,0,0,0,74.49,210c-1.06-1.77,0-5.13,1.59-6.39,1.74-1.41,12.12-2.28,5.55-16.49,0,0-5.94-8-15.15-.42s-12.72,27.6-4.29,38.05c3.57,4.43,9.69,7.88,15.49,6.25,6.69-1.87,18.67-4.84,19.88-13.08C98.27,213.09,95.76,208,91.08,206.51Z"/><path class="cls-6" d="M104.28,267c1.12.44.62,9.11.47,10.32a13,13,0,0,1-2,6,7.24,7.24,0,0,1-5.26,2.92A25.3,25.3,0,0,1,90,285.9a11.46,11.46,0,0,1-4.1-1.31c-2.43-1.62-1.32-4.9.73-6.34.23-.16,2.75-1.58,2.78-1.16l-1.24-16.41Z"/><path class="cls-6" d="M105.4,267c-1.12.44-.62,9.11-.47,10.32.36,2.86,1.26,6.55,3.84,7.94,2.79,1.49,7.12,1.26,10.16.89s7.86-2,5.64-6a6.34,6.34,0,0,0-1.88-2.11c-.28-.19-2.39-1.26-2.41-1l1.24-16.41Z"/><path class="cls-7" d="M127.48,217.19l-43.19-.62a29.52,29.52,0,0,1,8.41-8.67l26.63.37A29.54,29.54,0,0,1,127.48,217.19Z"/><path class="cls-8" d="M119.33,208.27,92.7,207.9a23,23,0,0,1,26.63.37Z"/><path class="cls-7" d="M132.52,232.84l-53.7-.76a37.62,37.62,0,0,1,2.12-8.77l49.71.7A38.27,38.27,0,0,1,132.52,232.84Z"/><path class="cls-8" d="M130.65,224l-49.71-.7a34.44,34.44,0,0,1,3.35-6.74l43.19.62A34.29,34.29,0,0,1,130.65,224Z"/><path class="cls-7" d="M132.51,240.1a38.9,38.9,0,0,1-1.83,8.77l-50.47-.72a38.76,38.76,0,0,1-1.59-8.82Z"/><path class="cls-8" d="M89.44,263.05l31.58.45a23.33,23.33,0,0,1-31.58-.45Z"/><path class="cls-8" d="M130.68,248.87a35.91,35.91,0,0,1-2.62,5.92l-45.41-.64a34.89,34.89,0,0,1-2.44-6Z"/><path class="cls-8" d="M132.67,237c0,1-.07,2.06-.16,3.08l-53.89-.77c-.06-1-.09-2-.07-3.08a40.56,40.56,0,0,1,.27-4.17l53.7.76A41.18,41.18,0,0,1,132.67,237Z"/><path class="cls-7" d="M128.06,254.79a31,31,0,0,1-7,8.71l-31.58-.45a31.27,31.27,0,0,1-6.79-8.9Z"/><path class="cls-8" d="M108.84,210.62h-5.67A38.63,38.63,0,0,1,64.53,172V159a41.69,41.69,0,0,1,43.31-41.66h0a44,44,0,0,1,42.24,43.92v8.18A41.24,41.24,0,0,1,108.84,210.62Z"/><path class="cls-9" d="M143.86,138.68c-4.76-.3-9.76-.81-14.29,0-5.32.91-10.06,3.81-14.06,7.34-4.35,3.83-11.34,3.59-16.31,1-4.78-2.53-7.78-7.36-12.77-9.84A32.53,32.53,0,0,0,73,133.77a41.67,41.67,0,0,1,34.85-16.48,43.94,43.94,0,0,1,36,21.39Z"/><path class="cls-8" d="M101.19,115.23h10.08a3.56,3.56,0,0,1,3.56,3.56v1.07a0,0,0,0,1,0,0H97.62a0,0,0,0,1,0,0v-1.07A3.56,3.56,0,0,1,101.19,115.23Z"/><path class="cls-8" d="M103.08,115.23s.66-10.48,5.78-14.12c0,0-1.93,14.12.52,14.12Z"/><circle class="cls-10" cx="109.38" cy="96.65" r="6.3"/><circle class="cls-11" cx="109.38" cy="96.65" r="4.46"/><circle class="cls-12" cx="90.18" cy="164.8" r="8.31"/><circle class="cls-12" cx="129.76" cy="164.8" r="8.31"/><circle class="cls-4" cx="87.52" cy="170.14" r="17.02"/><circle class="cls-4" cx="127.09" cy="170.14" r="17.02"/><line class="cls-4" x1="104.54" y1="170.14" x2="110.06" y2="170.14"/><line class="cls-4" x1="70.49" y1="170.14" x2="64.64" y2="162.47"/><line class="cls-4" x1="144.11" y1="170.14" x2="149.76" y2="162.47"/><path class="cls-8" d="M107.13,188.58a12.61,12.61,0,0,1,2.39-.71,4,4,0,0,1,2.44.3,1.15,1.15,0,0,1,.74.92c0,.45-.41.79-.8,1a21.84,21.84,0,0,1-2.64,1.16,5.58,5.58,0,0,1,3.44.91,1.76,1.76,0,0,1,.9,1.19,1.67,1.67,0,0,1-.8,1.39c-1.47,1.09-3,.65-4.7.47"/><circle class="cls-8" cx="217.73" cy="262.2" r="25.67"/><circle class="cls-6" cx="177.69" cy="262.2" r="25.67"/><circle class="cls-7" cx="259.11" cy="264.5" r="23.37"/><line class="cls-4" x1="217.73" y1="268.66" x2="217.73" y2="287.87"/><line class="cls-4" x1="176.75" y1="287.87" x2="258.5" y2="287.87"/><line class="cls-4" x1="176.92" y1="287.87" x2="176.92" y2="277.34"/><line class="cls-4" x1="258.5" y1="287.87" x2="258.5" y2="273.64"/><path class="cls-8" d="M259.24,271.4l5.35-5.35a.81.81,0,0,1,1.15,0l4.58,4.58a.83.83,0,0,1,0,1.15l-5.14,5.13a.66.66,0,0,0,0,.92l4.69,4.69a.81.81,0,0,1,0,1.15l-4,4a.81.81,0,0,1-1.15,0l-5.08-5.08a.66.66,0,0,0-.92,0l-5,5a.81.81,0,0,1-1.15,0l-4.69-4.69a.81.81,0,0,1,0-1.15l4.91-4.91a.64.64,0,0,0,0-.92l-4.74-4.74a.82.82,0,0,1,0-1.16l3.9-3.9a.81.81,0,0,1,1.15,0l5.19,5.28A.65.65,0,0,0,259.24,271.4Z"/></svg>