<svg id="Layer_1" data-name="Layer 1" xmlns="http://www.w3.org/2000/svg" viewBox="0 0 351.16 293.04"><defs><style>.cls-1,.cls-2,.cls-6{fill:#c4cbe0;}.cls-1{opacity:0.25;}.cls-3,.cls-8{fill:#fff;}.cls-4{fill:none;}.cls-12,.cls-4,.cls-5,.cls-6,.cls-7,.cls-8,.cls-9{stroke:#3e6be0;stroke-linecap:round;stroke-linejoin:round;}.cls-5,.cls-7{fill:#3e6be0;}.cls-5{opacity:0.3;}.cls-9{fill:#cad1e6;}.cls-10{fill:#ffc4c4;}.cls-11{fill:#ff6766;}.cls-12{fill:#3e6be6;}</style></defs><path class="cls-1" d="M350.16,250.75A175.11,175.11,0,0,1,347.71,280H317.65A145,145,0,1,0,30.56,250.75,146,146,0,0,0,33.51,280H3.45a174.59,174.59,0,1,1,346.71-29.25Z"/><path class="cls-2" d="M320.6,249.75a146,146,0,0,1-3,29.25H33.51A145,145,0,1,1,320.6,249.75Z"/><path class="cls-3" d="M263.15,274.35a15.08,15.08,0,0,1-1.06,5.6H146.31a18.46,18.46,0,0,1-1.78-8,18.73,18.73,0,0,1,18.73-18.73,17,17,0,0,1,1.75.09,25.2,25.2,0,0,1,50-6.23,16.34,16.34,0,0,1,26.7,12.63c0,.18,0,.37,0,.55a15,15,0,0,1,6.11-1.28A15.33,15.33,0,0,1,263.15,274.35Z"/><path class="cls-3" d="M137.2,213.38c0,5.83-12.38,3.41-16.48,3.41H66.07A11.26,11.26,0,0,1,65,211.94a11.39,11.39,0,0,1,11.4-11.4,9.29,9.29,0,0,1,1.06.05,17,17,0,0,1-.1-1.76,15.34,15.34,0,0,1,30.55-2,10,10,0,0,1,16.26,7.69c0,.11,0,.22,0,.33a9.32,9.32,0,0,1,13,8.56Z"/><circle class="cls-4" cx="132.27" cy="258.28" r="3.09"/><circle class="cls-4" cx="281.54" cy="256.73" r="3.53"/><line class="cls-4" x1="96.2" y1="240.28" x2="103.44" y2="240.28"/><line class="cls-4" x1="99.82" y1="236.66" x2="99.82" y2="243.9"/><line class="cls-4" x1="45.39" y1="175.86" x2="52.63" y2="175.86"/><line class="cls-4" x1="49.01" y1="172.24" x2="49.01" y2="179.48"/><line class="cls-4" x1="247.9" y1="127.68" x2="255.14" y2="127.68"/><line class="cls-4" x1="251.52" y1="124.06" x2="251.52" y2="131.3"/><line class="cls-4" x1="33.7" y1="280.78" x2="73.45" y2="280.78"/><line class="cls-4" x1="88.68" y1="280.82" x2="205.85" y2="280.82"/><line class="cls-4" x1="221.92" y1="280.93" x2="245.18" y2="280.93"/><line class="cls-4" x1="260.79" y1="280.66" x2="280.24" y2="280.66"/><line class="cls-4" x1="296.22" y1="280.97" x2="315.67" y2="280.97"/><path class="cls-5" d="M263.17,202c3.59-13.63,9.9-27.47,18.54-38.6a52.44,52.44,0,0,1,9.94-10c1.71-1.28,9.71-7.28,11.89-5.89a1.22,1.22,0,0,1,.4.52,28.63,28.63,0,0,1,2.93,11c.37,4.59.53,11.08-1.31,15.36,0,0,3.67-8.23,7.19-4.9s9.23,30.07-33.22,46.15C279.53,215.64,258.23,223.8,263.17,202Z"/><path class="cls-6" d="M226.2,200.89a3.47,3.47,0,0,1-.17.79c-.81,2.57-4,4.42-5.76,6.26a79.69,79.69,0,0,1-9.08,8.15c-6.64,5-15.42,9.3-24,8.72a9.71,9.71,0,0,1-7.26-3.56,8.46,8.46,0,0,1-1.21-6.89c.85-3.51,2.89-6.26,6.71-6.23,5.84,0,9.6-.6,15-3.41a70.21,70.21,0,0,0,11.1-6.72,25.15,25.15,0,0,1,5.52-3.7,6.76,6.76,0,0,1,5.05-.29A7.24,7.24,0,0,1,226.2,200.89Z"/><circle class="cls-7" cx="122.47" cy="204.72" r="71.02"/><path class="cls-8" d="M121.75,183.52l19.1-19.11a2.92,2.92,0,0,1,4.11,0l16.33,16.33a2.92,2.92,0,0,1,0,4.11L143,203.17a2.32,2.32,0,0,0,0,3.29L159.7,223.2a2.9,2.9,0,0,1,0,4.1l-14.15,14.15a2.9,2.9,0,0,1-4.1,0l-18.13-18.13a2.31,2.31,0,0,0-3.28,0l-17.93,17.93a2.92,2.92,0,0,1-4.11,0L81.28,224.52a2.89,2.89,0,0,1,0-4.1l17.53-17.53a2.32,2.32,0,0,0,0-3.29L81.87,182.67a2.92,2.92,0,0,1,0-4.11L95.8,164.63a2.91,2.91,0,0,1,4.13,0l18.52,18.86A2.33,2.33,0,0,0,121.75,183.52Z"/><path class="cls-4" d="M61.29,195.79s4.95-46.12,56.41-53.36"/><path class="cls-4" d="M129.51,264s27.83,1.91,43.07-23.25"/><path class="cls-6" d="M252,244.4l-4.51,23.5s-4.84.17-3.82,5.32c.48,2.39,3.64,3.67,5.64,4.39a30.64,30.64,0,0,0,10.39,1.74c2.66,0,5.51-.27,7.77-1.79s3.12-4.63,3.3-7.28c.16-2.45.07-4.9.22-7.35s.65-4.74,1-7.14.33-5-1.82-6.49c-1.82-1.22-8.07-1.57-9.89-2.79C259.62,246.12,251.85,245,252,244.4Z"/><path class="cls-6" d="M261.89,259.06,281.37,273s-1.86,4.47,3.24,5.69c2.37.56,4.85-1.78,6.34-3.3a30.71,30.71,0,0,0,5.92-8.72c1.1-2.41,2.05-5.11,1.61-7.8s-2.9-4.77-5.24-6c-2.16-1.17-4.42-2.12-6.59-3.27s-4-2.57-6.08-3.86-4.45-2.41-6.66-1.06c-1.87,1.15-4.79,6.68-6.66,7.83C266.65,252.81,262.35,259.38,261.89,259.06Z"/><path class="cls-7" d="M208.06,213.17l49.52-30.52a39.9,39.9,0,0,0-15.71-4.23l-30.53,18.82A39.84,39.84,0,0,0,208.06,213.17Z"/><path class="cls-8" d="M211.13,197.07l30.24-19.29a31,31,0,0,0-30.24,19.29Z"/><path class="cls-7" d="M212.45,234.67a261.56,261.56,0,0,0,31.57-16,259.09,259.09,0,0,0,30.45-21.2,51,51,0,0,0-4-4.71,49.56,49.56,0,0,0-4.41-4.08,294.7,294.7,0,0,0-57.41,34.42C209,224.88,209.5,226.83,212.45,234.67Z"/><path class="cls-8" d="M208.66,223.12l57.41-34.42a46,46,0,0,0-8.45-5.57L207.73,213A47,47,0,0,0,208.66,223.12Z"/><path class="cls-7" d="M217.37,243.12a51.53,51.53,0,0,0,8.06,9l58.29-34.94a52,52,0,0,0-4.11-11.35Z"/><path class="cls-8" d="M283,240.74,246.56,262.6A31.4,31.4,0,0,0,283,240.74Z"/><path class="cls-8" d="M225.43,252.09a48.38,48.38,0,0,0,7,5.14l52.45-31.45a47.05,47.05,0,0,0-1.21-8.63Z"/><path class="cls-8" d="M215.09,239.64c.73,1.2,1.48,2.36,2.28,3.48q15.07-8,31.15-17.56c11-6.59,21.38-13.21,31.09-19.76q-.42-.84-1-1.83c-.33-.61-.68-1.21-1-1.81a52.85,52.85,0,0,0-3.14-4.67l-62,37.18C213.24,236.35,214.12,238,215.09,239.64Z"/><path class="cls-7" d="M232.48,257.23a41.91,41.91,0,0,0,14.08,5.37L283,240.74a41.78,41.78,0,0,0,1.9-15Z"/><path class="cls-6" d="M232.14,213.77a4.65,4.65,0,0,1-.41.69c-1.62,2.16-5.21,2.87-7.51,4A80.79,80.79,0,0,1,213,223.19c-7.91,2.55-17.62,3.72-25.5.36a9.7,9.7,0,0,1-5.69-5.75,8.45,8.45,0,0,1,1.12-6.9c2-3,4.79-5,8.38-3.68,5.51,2,9.27,2.59,15.27,1.7a69.89,69.89,0,0,0,12.69-2.7,25.38,25.38,0,0,1,6.44-1.68,6.75,6.75,0,0,1,4.85,1.39A7.24,7.24,0,0,1,232.14,213.77Z"/><path class="cls-5" d="M266,212.13c3.59-13.63,9.9-27.47,18.54-38.61a52.73,52.73,0,0,1,10-10c1.7-1.28,9.71-7.28,11.88-5.89a1.19,1.19,0,0,1,.4.51,28.67,28.67,0,0,1,2.93,11c.37,4.58.53,11.07-1.31,15.35,0,0,3.67-8.23,7.2-4.89s9.22,30.07-33.22,46.15C282.35,225.76,261,233.92,266,212.13Z"/><path class="cls-8" d="M223.83,195.51l-5.06-1.07a35.16,35.16,0,0,1-27.14-41.65l2.45-11.61a37.92,37.92,0,0,1,46.37-28.95h0a40,40,0,0,1,29.36,47l-1.53,7.28A37.53,37.53,0,0,1,223.83,195.51Z"/><path class="cls-9" d="M243,113c-2.15.77-4.39,1.29-6.58,1.9-.63.16-1.25.33-1.84.52l-.76.24c-.53.17-1,.35-1.55.56l-.68.28a6.73,6.73,0,0,0-.73.32,21.07,21.07,0,0,0-2.46,1.39,28.53,28.53,0,0,0-8.06,8.46c-2.89,4.43-9.07,5.93-14.07,4.86a29.17,29.17,0,0,1-7-2.93,37.91,37.91,0,0,1,41.2-16.32Q241.73,112.54,243,113Z"/><path class="cls-8" d="M228.37,118.16a21.07,21.07,0,0,1,2.46-1.39,6.73,6.73,0,0,1,.73-.32l.68-.28c.51-.21,1-.39,1.55-.56l.76-.24c.59-.19,1.21-.36,1.84-.52"/><path class="cls-8" d="M235,108.57h8.53a3.56,3.56,0,0,1,3.56,3.56v.66a0,0,0,0,1,0,0H231.45a0,0,0,0,1,0,0v-.66a3.56,3.56,0,0,1,3.56-3.56Z" transform="translate(27.98 -46.98) rotate(11.9)"/><path class="cls-8" d="M236.91,108s2.55-9.2,7.8-11.47c0,0-4.37,12.2-2.19,12.66Z"/><circle class="cls-10" cx="246" cy="92.67" r="5.73"/><circle class="cls-11" cx="246" cy="92.67" r="4.06"/><circle class="cls-12" cx="205.08" cy="155" r="7.56"/><circle class="cls-4" cx="212.25" cy="153" r="15.49"/><line class="cls-4" x1="192.8" y1="147.29" x2="197.09" y2="149.81"/></svg>