<svg id="Layer_1" data-name="Layer 1" xmlns="http://www.w3.org/2000/svg" viewBox="0 0 351.16 293.04"><defs><style>.cls-1,.cls-2,.cls-8{fill:#c4cbe0;}.cls-1{opacity:0.25;}.cls-3,.cls-5{fill:#fff;}.cls-4{fill:none;}.cls-4,.cls-5,.cls-6,.cls-7,.cls-8{stroke:#3e6be0;stroke-linecap:round;stroke-linejoin:round;}.cls-6,.cls-7{fill:#3e6be0;}.cls-7{opacity:0.4;}.cls-9{fill:#ffd9d9;}.cls-10{fill:#ff6766;}</style></defs><path class="cls-1" d="M350.16,258.31a175.11,175.11,0,0,1-2.45,29.25H317.65A145,145,0,1,0,30.56,258.31a146,146,0,0,0,2.95,29.25H3.45a174.59,174.59,0,1,1,346.71-29.25Z"/><path class="cls-2" d="M320.6,257.31a146,146,0,0,1-3,29.25H33.51A145,145,0,1,1,320.6,257.31Z"/><path class="cls-3" d="M263.15,281.91a15.08,15.08,0,0,1-1.06,5.6H146.31a18.46,18.46,0,0,1-1.78-8,18.73,18.73,0,0,1,18.73-18.73,17,17,0,0,1,1.75.09,25.2,25.2,0,0,1,50-6.23,16.34,16.34,0,0,1,26.7,12.63c0,.18,0,.37,0,.55a15,15,0,0,1,6.11-1.28A15.33,15.33,0,0,1,263.15,281.91Z"/><path class="cls-3" d="M137.2,220.93c0,5.83-12.38,3.41-16.48,3.41H66.07A11.18,11.18,0,0,1,65,219.5a11.4,11.4,0,0,1,11.4-11.41,9.28,9.28,0,0,1,1.06.06,17,17,0,0,1-.1-1.76,15.34,15.34,0,0,1,30.55-2A9.95,9.95,0,0,1,124.16,212c0,.11,0,.23,0,.34a9.08,9.08,0,0,1,3.72-.78A9.33,9.33,0,0,1,137.2,220.93Z"/><circle class="cls-4" cx="132.27" cy="265.84" r="3.09"/><circle class="cls-4" cx="281.54" cy="264.29" r="3.53"/><line class="cls-4" x1="96.2" y1="247.84" x2="103.44" y2="247.84"/><line class="cls-4" x1="99.82" y1="244.22" x2="99.82" y2="251.46"/><line class="cls-4" x1="45.39" y1="183.41" x2="52.63" y2="183.41"/><line class="cls-4" x1="49.01" y1="179.79" x2="49.01" y2="187.03"/><line class="cls-4" x1="233.9" y1="135.24" x2="241.14" y2="135.24"/><line class="cls-4" x1="237.52" y1="131.62" x2="237.52" y2="138.86"/><line class="cls-4" x1="33.7" y1="288.34" x2="73.45" y2="288.34"/><line class="cls-4" x1="88.68" y1="288.37" x2="205.85" y2="288.37"/><line class="cls-4" x1="221.92" y1="288.49" x2="245.18" y2="288.49"/><line class="cls-4" x1="260.79" y1="288.22" x2="280.24" y2="288.22"/><line class="cls-4" x1="296.22" y1="288.52" x2="315.67" y2="288.52"/><ellipse class="cls-4" cx="183.5" cy="222.41" rx="29.75" ry="36.05"/><path class="cls-5" d="M103.93,75.61a31.68,31.68,0,1,1-7.86,24.31"/><path class="cls-6" d="M99.71,73.23l9.13,6.17a.46.46,0,0,1-.07.81l-9.3,3.9a.46.46,0,0,1-.64-.43L99,73.61A.46.46,0,0,1,99.71,73.23Z"/><line class="cls-4" x1="127.04" y1="75.4" x2="127.04" y2="95.77"/><line class="cls-4" x1="139.17" y1="109.04" x2="127.04" y2="95.77"/><path class="cls-7" d="M187.53,217.21a127.55,127.55,0,0,1,25.41-38.72,61.17,61.17,0,0,1,28-16.18,1.6,1.6,0,0,1,1.12,0,1.58,1.58,0,0,1,.66,1.15c2.39,10.14.64,19.6-3,29.16a19.16,19.16,0,0,0,3-3.19,4.84,4.84,0,0,1,3.95-1.9,4,4,0,0,1,2.93,2.62c3.06,7.83-1.51,17.9-6.28,24-6.9,8.8-17.26,14.27-27.65,17.83a113.09,113.09,0,0,1-12,3.33S178.38,241,187.53,217.21Z"/><path class="cls-7" d="M179.63,218.34c-6.62-15.61-16.53-31-28.74-42.76a63.4,63.4,0,0,0-13.56-10.14c-2.25-1.23-12.81-7-15.16-5a1.63,1.63,0,0,0-.39.69,34.61,34.61,0,0,0-1.6,13.56c.36,5.52,1.28,13.28,4.21,18.05,0,0-5.79-9.16-9.4-4.58s-5.79,37.39,47.51,49.21C162.5,237.4,189.28,243.43,179.63,218.34Z"/><path class="cls-8" d="M164.36,187.76a5.51,5.51,0,0,0-1,.3c-3.26,1.36-5.31,5.68-7.5,8.23a104.15,104.15,0,0,0-9.58,12.76c-5.77,9.21-10.36,21.14-8.62,32.22.56,3.59,2.34,7.17,5.46,9a11,11,0,0,0,9.12.78c4.47-1.5,7.81-4.47,7.34-9.44-.72-7.61-.31-12.58,2.74-19.9,2.18-5.23,4.38-10.5,7.49-15.23a33.32,33.32,0,0,0,4.19-7.62,8.85,8.85,0,0,0-.21-6.6A9.45,9.45,0,0,0,164.36,187.76Z"/><path class="cls-8" d="M211.54,207.32l27.34-17.65a9,9,0,0,0,2.64-12.4h0a9,9,0,0,0-11.1-3.31l-45.07,19.82S185.17,207.7,211.54,207.32Z"/><path class="cls-8" d="M182.17,255.21c1.34.55.74,11.24.56,12.74a16.44,16.44,0,0,1-2.44,7.38,8.71,8.71,0,0,1-6.35,3.6,29.68,29.68,0,0,1-9-.46,13.37,13.37,0,0,1-4.94-1.61c-2.93-2-1.59-6,.87-7.82.28-.2,3.33-2,3.36-1.43l-1.49-20.25Z"/><path class="cls-8" d="M183.51,255.1c-1.35.55-.75,11.24-.56,12.74.42,3.52,1.51,8.08,4.63,9.78,3.36,1.84,8.59,1.56,12.26,1.1s9.47-2.48,6.79-7.43a7.49,7.49,0,0,0-2.26-2.61c-.34-.23-2.88-1.55-2.91-1.18l1.5-20.25Z"/><path class="cls-6" d="M207.1,200.94H159.62a32.58,32.58,0,0,1,9.1-9.67H198A32.58,32.58,0,0,1,207.1,200.94Z"/><path class="cls-5" d="M198,191.27H168.72a25.33,25.33,0,0,1,29.28,0Z"/><path class="cls-6" d="M212.87,218.06h-59a41.54,41.54,0,0,1,2.19-9.67h54.64A41.54,41.54,0,0,1,212.87,218.06Z"/><path class="cls-5" d="M210.68,208.39H156a38.24,38.24,0,0,1,3.58-7.45H207.1A37.67,37.67,0,0,1,210.68,208.39Z"/><path class="cls-6" d="M213,226a42.7,42.7,0,0,1-1.88,9.67H155.62a42.7,42.7,0,0,1-1.88-9.67Z"/><path class="cls-5" d="M166,251.93h34.7a25.62,25.62,0,0,1-34.7,0Z"/><path class="cls-5" d="M211.1,235.71a39.77,39.77,0,0,1-2.78,6.55H158.4a40.65,40.65,0,0,1-2.78-6.55Z"/><path class="cls-5" d="M213.11,222.65c0,1.14-.05,2.27-.13,3.39H153.74c-.08-1.12-.13-2.25-.13-3.39a43.39,43.39,0,0,1,.24-4.59h59A43.39,43.39,0,0,1,213.11,222.65Z"/><path class="cls-6" d="M208.32,242.26a34.16,34.16,0,0,1-7.61,9.67H166a34.16,34.16,0,0,1-7.61-9.67Z"/><path class="cls-6" d="M283.53,136.21v2.37l2.18,0a.25.25,0,0,0,.22-.35A3.12,3.12,0,0,0,283.53,136.21Z"/><path class="cls-5" d="M273.49,135.52a.73.73,0,0,0-.15-.4,42.32,42.32,0,0,1-6.83-13c-.15-.47-.42-1-.92-1a1.07,1.07,0,0,0-.74.44,6.63,6.63,0,0,0-1.35,2.25c-.2.59-.07,1.57-.6,2-.79.62-1.82-.32-2.71.4a3.06,3.06,0,0,0-.91,1.47c-1.65,5.06,2.78,6.78,6.61,8.23q2.7,1,5.48,1.79a.7.7,0,0,0,.38,0A2,2,0,0,0,273.49,135.52Z"/><path class="cls-5" d="M283.53,136.21c-1.43-2.23-3.1-4.33-6.06-3.84a6,6,0,0,0-4.11,3c-.27.49-.5,1-1.17.82a2.51,2.51,0,0,1-.87-.55,17.51,17.51,0,0,0-4.83-2.42A58.55,58.55,0,0,1,252.67,125a1.41,1.41,0,0,0-1.06-.44c-.4.06-.66.46-.81.83a5.47,5.47,0,0,0,0,3.7,16.87,16.87,0,0,0,1.71,3.36,3.91,3.91,0,0,0-1.4-.83,1.34,1.34,0,0,0-1.47.45,1.74,1.74,0,0,0-.15,1.19,8,8,0,0,0,2.9,5.14l-1.85-.1a.43.43,0,0,0-.3.05c-.13.09-.12.28-.1.44a4.27,4.27,0,0,0,2.24,3.05,12.84,12.84,0,0,1,1.75.85,6.73,6.73,0,0,1,1.13,1.25,10.11,10.11,0,0,0,6.8,3.65l-7.26,6.81a1.9,1.9,0,0,0,1.35,1.34,5.64,5.64,0,0,0,2,.16l-.46,1.29a3.64,3.64,0,0,0,3.9.37,1.31,1.31,0,0,0,1.41,1.29,2.87,2.87,0,0,0,1.84-1.05,7.41,7.41,0,0,0,1.95-5.06,9.58,9.58,0,0,0,9.08-.58,11.16,11.16,0,0,0,5-7.75,7,7,0,0,1,.39-1.83c.6-1.36,1.94-2.1,2.26-3.62C283.64,138.2,284,136.91,283.53,136.21Z"/><circle class="cls-6" cx="279.48" cy="136.82" r="1.25"/><path class="cls-5" d="M188.46,195.43l-4.8.41A32.73,32.73,0,0,1,148.26,166l-.95-11a35.33,35.33,0,0,1,33.55-38.3h0a37.25,37.25,0,0,1,38.84,34l.59,6.91A34.94,34.94,0,0,1,188.46,195.43Z"/><path class="cls-8" d="M212.82,132.17c-4,.09-8.3,0-12.07,1a24.67,24.67,0,0,0-11.33,7.21c-3.4,3.55-9.32,3.86-13.71,2-4.21-1.79-7.1-5.65-11.48-7.38a27.65,27.65,0,0,0-11.59-1.86,35.27,35.27,0,0,1,28.23-16.43,37.14,37.14,0,0,1,26.26,9.19A36.45,36.45,0,0,1,212.82,132.17Z"/><path class="cls-5" d="M174.51,115.42h10.14a2.44,2.44,0,0,1,2.44,2.44v1.32a.17.17,0,0,1-.17.17H172.68a.17.17,0,0,1-.17-.17v-1.75A2,2,0,0,1,174.51,115.42Z" transform="translate(-9.36 15.76) rotate(-4.89)"/><path class="cls-5" d="M177,115.39c0-1.44.2-8.36,3.42-11.65a.25.25,0,0,1,.42.18c-.08,2.12-.26,9.32.91,11a.24.24,0,0,1-.17.39l-4.31.37A.24.24,0,0,1,177,115.39Z"/><circle class="cls-9" cx="180.95" cy="99.52" r="5.34"/><circle class="cls-10" cx="180.95" cy="99.52" r="3.78"/><circle class="cls-6" cx="169.99" cy="161.09" r="7.04"/><circle class="cls-6" cx="203.4" cy="158.23" r="7.04"/><circle class="cls-4" cx="167.53" cy="162.8" r="14.43"/><circle class="cls-4" cx="200.94" cy="159.94" r="14.43"/><line class="cls-4" x1="181.9" y1="161.57" x2="186.56" y2="161.17"/><line class="cls-4" x1="153.16" y1="164.03" x2="147.66" y2="157.97"/><line class="cls-4" x1="215.31" y1="158.71" x2="219.52" y2="151.82"/><path class="cls-4" d="M181.14,180.79a5.84,5.84,0,0,1,4.14-2.16,5.91,5.91,0,0,1,4.71,2.16"/></svg>