<svg id="Layer_1" data-name="Layer 1" xmlns="http://www.w3.org/2000/svg" viewBox="0 0 351.16 293.04"><defs><style>.cls-1,.cls-2,.cls-8{fill:#c4cbe0;}.cls-1{opacity:0.25;}.cls-3,.cls-7{fill:#fff;}.cls-4{fill:none;}.cls-4,.cls-5,.cls-6,.cls-7,.cls-8{stroke:#3e6be0;stroke-linecap:round;stroke-linejoin:round;}.cls-5,.cls-6{fill:#3e6be0;}.cls-5{opacity:0.4;}.cls-9{fill:#ffd9d9;}.cls-10{fill:#ff6766;}</style></defs><path class="cls-1" d="M350.16,258.08a175.11,175.11,0,0,1-2.45,29.25H317.65A145,145,0,1,0,30.56,258.08a146,146,0,0,0,2.95,29.25H3.45a174.59,174.59,0,1,1,346.71-29.25Z"/><path class="cls-2" d="M320.6,257.08a146,146,0,0,1-3,29.25H33.51A145,145,0,1,1,320.6,257.08Z"/><path class="cls-3" d="M263.15,281.69a15.08,15.08,0,0,1-1.06,5.6H146.31a18.46,18.46,0,0,1-1.78-8,18.73,18.73,0,0,1,18.73-18.73,17,17,0,0,1,1.75.09,25.2,25.2,0,0,1,50-6.23,16.34,16.34,0,0,1,26.7,12.63c0,.18,0,.37,0,.55a15,15,0,0,1,6.11-1.28A15.33,15.33,0,0,1,263.15,281.69Z"/><path class="cls-3" d="M137.2,220.71c0,5.83-12.38,3.41-16.48,3.41H66.07A11.26,11.26,0,0,1,65,219.27a11.39,11.39,0,0,1,11.4-11.4c.36,0,.71,0,1.06,0a17,17,0,0,1-.1-1.76,15.34,15.34,0,0,1,30.55-2,10,10,0,0,1,16.26,7.69c0,.11,0,.22,0,.33a9.32,9.32,0,0,1,13,8.56Z"/><circle class="cls-4" cx="132.27" cy="265.61" r="3.09"/><circle class="cls-4" cx="281.54" cy="264.07" r="3.53"/><line class="cls-4" x1="96.2" y1="247.62" x2="103.44" y2="247.62"/><line class="cls-4" x1="99.82" y1="244" x2="99.82" y2="251.23"/><line class="cls-4" x1="45.39" y1="183.19" x2="52.63" y2="183.19"/><line class="cls-4" x1="49.01" y1="179.57" x2="49.01" y2="186.81"/><line class="cls-4" x1="247.9" y1="135.02" x2="255.14" y2="135.02"/><line class="cls-4" x1="251.52" y1="131.4" x2="251.52" y2="138.64"/><line class="cls-4" x1="33.7" y1="288.11" x2="73.45" y2="288.11"/><line class="cls-4" x1="88.68" y1="288.15" x2="205.85" y2="288.15"/><line class="cls-4" x1="221.92" y1="288.26" x2="245.18" y2="288.26"/><line class="cls-4" x1="260.79" y1="287.99" x2="280.24" y2="287.99"/><line class="cls-4" x1="296.22" y1="288.3" x2="315.67" y2="288.3"/><path class="cls-5" d="M194.49,136.63a112.5,112.5,0,0,1,22.38-34.11,54,54,0,0,1,24.65-14.25,1.06,1.06,0,0,1,1.58,1c2.1,8.94.56,17.27-2.6,25.69a17,17,0,0,0,2.67-2.81,4.26,4.26,0,0,1,3.48-1.67,3.51,3.51,0,0,1,2.59,2.31c2.69,6.89-1.34,15.76-5.54,21.13-6.07,7.75-15.2,12.57-24.35,15.71a104.34,104.34,0,0,1-10.55,2.93S186.43,157.58,194.49,136.63Z"/><path class="cls-5" d="M193.8,135.23c-5.83-13.75-14.56-27.3-25.31-37.67a56.11,56.11,0,0,0-12-8.93c-2-1.08-11.28-6.16-13.36-4.37a1.43,1.43,0,0,0-.34.6,30.79,30.79,0,0,0-1.41,12c.32,4.86,1.13,11.69,3.72,15.9,0,0-5.1-8.08-8.29-4s-5.1,32.93,41.86,43.34C178.72,152,202.3,157.33,193.8,135.23Z"/><path class="cls-6" d="M225,144.91l-40.86,8.88a28.57,28.57,0,0,1,6-10l25.2-5.48A28.69,28.69,0,0,1,225,144.91Z"/><path class="cls-7" d="M215.33,138.29l-25.2,5.48a22.31,22.31,0,0,1,25.2-5.48Z"/><path class="cls-6" d="M233.15,158.58l-50.81,11a35.9,35.9,0,0,1,.08-8.74l47-10.22A36.4,36.4,0,0,1,233.15,158.58Z"/><path class="cls-7" d="M229.45,150.66l-47,10.22a32.91,32.91,0,0,1,1.69-7.09L225,144.91A33.63,33.63,0,0,1,229.45,150.66Z"/><path class="cls-6" d="M234.73,165.42a37.74,37.74,0,0,1,.19,8.67l-47.75,10.38a37,37,0,0,1-3.43-8Z"/><path class="cls-7" d="M199.14,196.5,229,190a22.59,22.59,0,0,1-29.88,6.49Z"/><path class="cls-7" d="M234.92,174.09a34.24,34.24,0,0,1-1.17,6.16l-43,9.34a34.53,34.53,0,0,1-3.61-5.12Z"/><path class="cls-7" d="M234.21,162.48c.21,1,.38,2,.52,2.94l-51,11.08c-.28-.95-.53-1.91-.75-2.89a40.39,40.39,0,0,1-.65-4l50.81-11A39.83,39.83,0,0,1,234.21,162.48Z"/><path class="cls-6" d="M233.75,180.25A30.23,30.23,0,0,1,229,190l-29.88,6.49a30.18,30.18,0,0,1-8.36-6.91Z"/><path class="cls-8" d="M145.15,213a56.35,56.35,0,0,1-3.91-4.27Z"/><path class="cls-6" d="M245,199.22a56.91,56.91,0,0,1-4.57,22.4c-2.95,14.67-58.93,66.9-58.93,66.9l-43.74-47.87L133.47,236l-.07-.09c-.23-.27-.45-.56-.66-.83a57.48,57.48,0,0,1-12.58-35.84c0-32.87,27.94-59.53,62.41-59.53S245,166.35,245,199.22Z"/><path class="cls-8" d="M198.48,141.45a5.41,5.41,0,0,1,.81.24c2.62,1.09,4.27,4.58,6,6.63A84.8,84.8,0,0,1,213,158.6c4.65,7.42,8.34,17,7,25.94a10.27,10.27,0,0,1-4.4,7.3,9,9,0,0,1-7.35.63c-3.6-1.22-6.29-3.61-5.91-7.61.58-6.13.25-10.13-2.21-16a72.64,72.64,0,0,0-6-12.26,26.62,26.62,0,0,1-3.37-6.14,7.14,7.14,0,0,1,.16-5.32A7.62,7.62,0,0,1,198.48,141.45Z"/><path class="cls-8" d="M165.65,137.18a4.14,4.14,0,0,0-.8.25c-2.63,1.08-4.28,4.57-6,6.62a85.85,85.85,0,0,0-7.71,10.28c-4.64,7.42-8.34,17-6.94,25.94a10.24,10.24,0,0,0,4.4,7.3,8.92,8.92,0,0,0,7.34.63c3.6-1.21,6.29-3.61,5.91-7.61-.57-6.13-.25-10.13,2.21-16a72.64,72.64,0,0,1,6-12.26,26.25,26.25,0,0,0,3.37-6.14,7.14,7.14,0,0,0-.16-5.32A7.62,7.62,0,0,0,165.65,137.18Z"/><path class="cls-8" d="M201.7,198.24A19.84,19.84,0,0,1,199,206.5l-37.7-12.18a19.8,19.8,0,0,1,2.73-8.26Z"/><path class="cls-8" d="M181.76,170.4a26.31,26.31,0,1,0,26.31,26.3A26.31,26.31,0,0,0,181.76,170.4Zm0,45.75a19.44,19.44,0,0,1-19.43-19.45c0-.64,0-1.27.09-1.9a19.44,19.44,0,0,1,38.79,1.9,17,17,0,0,1-.1,1.9,19.44,19.44,0,0,1-19.35,17.55Z"/><path class="cls-7" d="M180.23,150s3.29-4.94,8.07-1"/><path class="cls-7" d="M186,161.16l-4.06-.1a27.61,27.61,0,0,1-26.91-28.29l.24-9.31a29.78,29.78,0,0,1,31.68-29h0a31.39,31.39,0,0,1,29.38,32.12l-.14,5.85A29.47,29.47,0,0,1,186,161.16Z"/><path class="cls-8" d="M212.34,110.4c-3.4-.3-7-.76-10.21-.29a20.83,20.83,0,0,0-10.17,5c-3.18,2.66-8.17,2.37-11.68.41s-5.42-5.39-8.94-7.25a23.24,23.24,0,0,0-9.54-2.64A29.75,29.75,0,0,1,187,94.48a31.41,31.41,0,0,1,25.35,15.92Z"/><path class="cls-7" d="M181.89,93.29h7.85a2.44,2.44,0,0,1,2.44,2.44v.71a.17.17,0,0,1-.17.17h-12a.17.17,0,0,1-.17-.17V95.29a2,2,0,0,1,2-2Z" transform="translate(2.43 -4.62) rotate(1.43)"/><path class="cls-7" d="M183.85,93c.13-1.21.94-7,4-9.45a.2.2,0,0,1,.33.19c-.26,1.77-1.08,7.79-.26,9.26a.21.21,0,0,1-.17.32l-3.65-.09A.21.21,0,0,1,183.85,93Z"/><circle class="cls-9" cx="188.65" cy="80.07" r="4.5"/><circle class="cls-10" cx="188.65" cy="80.07" r="3.19"/><circle class="cls-6" cx="173.75" cy="130.67" r="5.94"/><circle class="cls-6" cx="202.02" cy="131.37" r="5.94"/><circle class="cls-4" cx="171.53" cy="131.86" r="12.17"/><circle class="cls-4" cx="199.8" cy="132.57" r="12.17"/><line class="cls-4" x1="183.69" y1="132.17" x2="187.63" y2="132.27"/><line class="cls-4" x1="159.37" y1="131.56" x2="155.32" y2="125.97"/><line class="cls-4" x1="211.96" y1="132.88" x2="216.13" y2="127.5"/><path class="cls-4" d="M180.84,148.71a7.1,7.1,0,0,1,3.8-.91A7.19,7.19,0,0,1,188.3,149"/></svg>