<svg id="Layer_1" data-name="Layer 1" xmlns="http://www.w3.org/2000/svg" viewBox="0 0 351.16 293.04"><defs><style>.cls-1,.cls-2,.cls-8{fill:#c4cbe0;}.cls-1{opacity:0.25;}.cls-3,.cls-5{fill:#fff;}.cls-4{fill:none;}.cls-4,.cls-5,.cls-6,.cls-7,.cls-8{stroke:#3e6be0;stroke-linecap:round;stroke-linejoin:round;}.cls-6,.cls-7{fill:#3e6be0;}.cls-7{opacity:0.4;}.cls-9{fill:#ffd9d9;}.cls-10{fill:#ff6766;}</style></defs><path class="cls-1" d="M350.16,258.31a175.11,175.11,0,0,1-2.45,29.25H317.65A145,145,0,1,0,30.56,258.31a146,146,0,0,0,2.95,29.25H3.45a174.59,174.59,0,1,1,346.71-29.25Z"/><path class="cls-2" d="M320.6,257.31a146,146,0,0,1-3,29.25H33.51A145,145,0,1,1,320.6,257.31Z"/><path class="cls-3" d="M263.15,281.91a15.08,15.08,0,0,1-1.06,5.6H146.31a18.46,18.46,0,0,1-1.78-8,18.73,18.73,0,0,1,18.73-18.73,17,17,0,0,1,1.75.09,25.2,25.2,0,0,1,50-6.23,16.34,16.34,0,0,1,26.7,12.63c0,.18,0,.37,0,.55a15,15,0,0,1,6.11-1.28A15.33,15.33,0,0,1,263.15,281.91Z"/><path class="cls-3" d="M137.2,220.93c0,5.83-12.38,3.41-16.48,3.41H66.07A11.18,11.18,0,0,1,65,219.5a11.4,11.4,0,0,1,11.4-11.41,9.28,9.28,0,0,1,1.06.06,17,17,0,0,1-.1-1.76,15.34,15.34,0,0,1,30.55-2A9.95,9.95,0,0,1,124.16,212c0,.11,0,.23,0,.34a9.08,9.08,0,0,1,3.72-.78A9.33,9.33,0,0,1,137.2,220.93Z"/><circle class="cls-4" cx="281.54" cy="264.29" r="3.53"/><line class="cls-4" x1="96.2" y1="247.84" x2="103.44" y2="247.84"/><line class="cls-4" x1="99.82" y1="244.22" x2="99.82" y2="251.46"/><line class="cls-4" x1="45.39" y1="183.41" x2="52.63" y2="183.41"/><line class="cls-4" x1="49.01" y1="179.79" x2="49.01" y2="187.03"/><line class="cls-4" x1="247.9" y1="125.24" x2="255.14" y2="125.24"/><line class="cls-4" x1="251.52" y1="121.62" x2="251.52" y2="128.86"/><line class="cls-4" x1="33.7" y1="288.34" x2="73.45" y2="288.34"/><line class="cls-4" x1="88.68" y1="288.37" x2="205.85" y2="288.37"/><line class="cls-4" x1="221.92" y1="288.49" x2="245.18" y2="288.49"/><line class="cls-4" x1="260.79" y1="288.22" x2="280.24" y2="288.22"/><line class="cls-4" x1="296.22" y1="288.52" x2="315.67" y2="288.52"/><ellipse class="cls-4" cx="179.9" cy="221.56" rx="29.75" ry="36.05"/><path class="cls-5" d="M100.33,74.76a31.68,31.68,0,1,1-7.86,24.31"/><path class="cls-6" d="M92,69.1l16.35,11.05a.82.82,0,0,1-.14,1.44l-16.63,7a.83.83,0,0,1-1.15-.77l.28-18A.83.83,0,0,1,92,69.1Z"/><line class="cls-4" x1="123.44" y1="74.55" x2="123.44" y2="94.92"/><line class="cls-4" x1="135.57" y1="108.19" x2="123.44" y2="94.92"/><path class="cls-7" d="M183.93,216.36a127.55,127.55,0,0,1,25.41-38.72,61.26,61.26,0,0,1,28-16.18,1.2,1.2,0,0,1,1.78,1.13c2.39,10.14.64,19.6-3,29.16a19.16,19.16,0,0,0,3-3.19c1-1.12,2.44-2.1,4-1.89a3.94,3.94,0,0,1,2.93,2.61c3.06,7.83-1.51,17.9-6.28,24-6.9,8.8-17.26,14.28-27.65,17.84a115.48,115.48,0,0,1-12,3.32S174.78,240.15,183.93,216.36Z"/><path class="cls-7" d="M176,217.49c-6.62-15.61-16.53-31-28.73-42.76a63.71,63.71,0,0,0-13.57-10.14c-2.25-1.23-12.81-7-15.16-5a1.54,1.54,0,0,0-.39.68,34.61,34.61,0,0,0-1.6,13.56c.36,5.52,1.28,13.28,4.21,18.06,0,0-5.78-9.17-9.4-4.59s-5.79,37.39,47.51,49.21C158.9,236.55,185.68,242.58,176,217.49Z"/><path class="cls-8" d="M160.76,186.91a4.84,4.84,0,0,0-1,.31c-3.26,1.35-5.31,5.68-7.5,8.23a104.05,104.05,0,0,0-9.58,12.75c-5.77,9.21-10.36,21.14-8.62,32.22.56,3.6,2.34,7.18,5.46,9.05a11.06,11.06,0,0,0,9.12.79c4.47-1.51,7.81-4.48,7.34-9.45-.72-7.61-.31-12.58,2.74-19.9,2.18-5.23,4.38-10.5,7.49-15.23a33.11,33.11,0,0,0,4.19-7.62,8.85,8.85,0,0,0-.21-6.6A9.47,9.47,0,0,0,160.76,186.91Z"/><path class="cls-8" d="M207.94,206.48l27.34-17.66a8.94,8.94,0,0,0,2.64-12.39h0a8.93,8.93,0,0,0-11.1-3.31l-45.07,19.82S181.57,206.85,207.94,206.48Z"/><path class="cls-8" d="M179.8,256.17c1.37.55.76,11.39.57,12.91a16.44,16.44,0,0,1-2.48,7.49,8.81,8.81,0,0,1-6.44,3.66,30.17,30.17,0,0,1-9.14-.47,13.6,13.6,0,0,1-5-1.63c-3-2-1.61-6.13.89-7.93.29-.21,3.37-2,3.41-1.46l-1.52-20.53Z"/><path class="cls-8" d="M181.16,256.05c-1.36.56-.75,11.4-.57,12.92.44,3.57,1.54,8.2,4.71,9.93,3.41,1.86,8.71,1.58,12.43,1.11,3.88-.49,9.61-2.52,6.89-7.53a7.61,7.61,0,0,0-2.29-2.65c-.34-.24-2.93-1.57-3-1.2l1.51-20.54Z"/><path class="cls-6" d="M203.5,200.09H156a32.58,32.58,0,0,1,9.1-9.67H194.4A32.58,32.58,0,0,1,203.5,200.09Z"/><path class="cls-5" d="M194.4,190.42H165.12a25.33,25.33,0,0,1,29.28,0Z"/><path class="cls-6" d="M209.27,217.22h-59a41.51,41.51,0,0,1,2.19-9.68h54.64A41.51,41.51,0,0,1,209.27,217.22Z"/><path class="cls-5" d="M207.08,207.54H152.44a38.52,38.52,0,0,1,3.58-7.45H203.5A37.94,37.94,0,0,1,207.08,207.54Z"/><path class="cls-6" d="M209.38,225.19a42.7,42.7,0,0,1-1.88,9.67H152a42.15,42.15,0,0,1-1.87-9.67Z"/><path class="cls-5" d="M162.41,251.08h34.7a25.62,25.62,0,0,1-34.7,0Z"/><path class="cls-5" d="M207.5,234.86a39.41,39.41,0,0,1-2.78,6.55H154.8a40.27,40.27,0,0,1-2.78-6.55Z"/><path class="cls-5" d="M209.51,221.8c0,1.15,0,2.27-.13,3.39H150.15c-.09-1.12-.14-2.24-.14-3.39a43.2,43.2,0,0,1,.24-4.58h59A43.2,43.2,0,0,1,209.51,221.8Z"/><path class="cls-6" d="M204.72,241.41a34.16,34.16,0,0,1-7.61,9.67h-34.7a34.16,34.16,0,0,1-7.61-9.67Z"/><path class="cls-6" d="M245.3,149.36v2.37l-2.18,0a.24.24,0,0,1-.22-.35A3.1,3.1,0,0,1,245.3,149.36Z"/><path class="cls-5" d="M255.34,148.67a.76.76,0,0,1,.15-.4,42.6,42.6,0,0,0,6.83-13c.15-.48.41-1.06.91-1.06a1.09,1.09,0,0,1,.75.44,6.64,6.64,0,0,1,1.34,2.26c.21.58.07,1.56.6,2,.79.63,1.83-.32,2.72.4a3.11,3.11,0,0,1,.9,1.47c1.65,5.07-2.77,6.78-6.61,8.23-1.79.68-3.62,1.28-5.47,1.79a.7.7,0,0,1-.38,0A2,2,0,0,1,255.34,148.67Z"/><path class="cls-5" d="M245.3,149.36c1.42-2.23,3.1-4.33,6.06-3.83a5.94,5.94,0,0,1,4.1,3c.27.48.5,1,1.17.81a2.34,2.34,0,0,0,.87-.55,17.71,17.71,0,0,1,4.84-2.42,58.75,58.75,0,0,0,13.82-8.23,1.4,1.4,0,0,1,1-.44,1.26,1.26,0,0,1,.82.83,5.56,5.56,0,0,1,0,3.71,16,16,0,0,1-1.71,3.35,4,4,0,0,1,1.41-.83,1.34,1.34,0,0,1,1.47.46,1.76,1.76,0,0,1,.15,1.18,8,8,0,0,1-2.9,5.14l1.85-.1a.45.45,0,0,1,.3.05.43.43,0,0,1,.09.44,4.29,4.29,0,0,1-2.23,3.06,11.75,11.75,0,0,0-1.75.84,6.78,6.78,0,0,0-1.14,1.25,10.05,10.05,0,0,1-6.8,3.65l7.26,6.81a1.91,1.91,0,0,1-1.34,1.34,5.66,5.66,0,0,1-2,.16l.46,1.29a3.64,3.64,0,0,1-3.9.37c.09.72-.69,1.32-1.41,1.29a2.79,2.79,0,0,1-1.84-1.05,7.42,7.42,0,0,1-2-5.06,9.55,9.55,0,0,1-9.08-.58,11.12,11.12,0,0,1-5-7.75,7.13,7.13,0,0,0-.4-1.83c-.6-1.36-1.93-2.09-2.25-3.61C245.19,151.36,244.85,150.06,245.3,149.36Z"/><circle class="cls-6" cx="249.34" cy="149.97" r="1.25"/><path class="cls-5" d="M184.63,189.68l-4.79.41a32.73,32.73,0,0,1-35.41-29.82l-.94-11A35.33,35.33,0,0,1,177,111h0a37.25,37.25,0,0,1,38.84,34l.59,6.91A34.94,34.94,0,0,1,184.63,189.68Z"/><path class="cls-8" d="M209,126.42c-4,.09-8.3,0-12.07,1a24.7,24.7,0,0,0-11.33,7.2c-3.4,3.55-9.32,3.86-13.71,2-4.21-1.78-7.09-5.64-11.48-7.38a27.65,27.65,0,0,0-11.59-1.86A35.32,35.32,0,0,1,177,111a37.17,37.17,0,0,1,26.26,9.19A36.45,36.45,0,0,1,209,126.42Z"/><path class="cls-5" d="M170.68,109.67h10.14a2.44,2.44,0,0,1,2.44,2.44v1.32a.17.17,0,0,1-.17.17H168.85a.17.17,0,0,1-.17-.17v-1.75a2,2,0,0,1,2-2Z" transform="translate(-8.88 15.42) rotate(-4.89)"/><path class="cls-5" d="M173.14,109.64c0-1.44.2-8.35,3.43-11.65a.24.24,0,0,1,.41.18c-.08,2.12-.26,9.32.91,11a.25.25,0,0,1-.17.4l-4.31.37A.25.25,0,0,1,173.14,109.64Z"/><circle class="cls-9" cx="177.12" cy="93.77" r="5.34"/><circle class="cls-10" cx="177.12" cy="93.77" r="3.78"/><circle class="cls-6" cx="166.16" cy="155.34" r="7.04"/><circle class="cls-6" cx="199.57" cy="152.48" r="7.04"/><circle class="cls-4" cx="163.7" cy="157.05" r="14.43"/><circle class="cls-4" cx="197.11" cy="154.19" r="14.43"/><line class="cls-4" x1="178.07" y1="155.82" x2="182.73" y2="155.42"/><line class="cls-4" x1="149.33" y1="158.28" x2="143.83" y2="152.22"/><line class="cls-4" x1="211.48" y1="152.96" x2="215.69" y2="146.07"/><path class="cls-4" d="M177.31,175a6.16,6.16,0,0,1,8.84,0"/></svg>