<svg id="Layer_1" data-name="Layer 1" xmlns="http://www.w3.org/2000/svg" viewBox="0 0 351.16 293.04"><defs><style>.cls-1,.cls-2,.cls-7{fill:#c4cbe0;}.cls-1{opacity:0.25;}.cls-3,.cls-5{fill:#fff;}.cls-4{fill:none;}.cls-4,.cls-5,.cls-6,.cls-7,.cls-8{stroke:#3e6be0;stroke-linecap:round;stroke-linejoin:round;}.cls-6,.cls-8{fill:#3e6be0;}.cls-6{opacity:0.4;}.cls-9{fill:#ffd9d9;}.cls-10{fill:#ff6766;}</style></defs><path class="cls-1" d="M350.16,261.08a175.11,175.11,0,0,1-2.45,29.25H317.65A145,145,0,1,0,30.56,261.08a146,146,0,0,0,2.95,29.25H3.45a174.59,174.59,0,1,1,346.71-29.25Z"/><path class="cls-2" d="M320.6,260.08a146,146,0,0,1-3,29.25H33.51A145,145,0,1,1,320.6,260.08Z"/><path class="cls-3" d="M263.15,284.68a15.08,15.08,0,0,1-1.06,5.6H146.31a18.46,18.46,0,0,1-1.78-8,18.73,18.73,0,0,1,18.73-18.73,17,17,0,0,1,1.75.09,25.2,25.2,0,0,1,50-6.23,16.34,16.34,0,0,1,26.7,12.63c0,.18,0,.37,0,.55a15,15,0,0,1,6.11-1.28A15.33,15.33,0,0,1,263.15,284.68Z"/><path class="cls-3" d="M137.2,223.7c0,5.83-12.38,3.41-16.48,3.41H66.07A11.25,11.25,0,0,1,65,222.27a11.4,11.4,0,0,1,11.4-11.41,9.28,9.28,0,0,1,1.06.06,17.14,17.14,0,0,1-.1-1.76,15.34,15.34,0,0,1,30.55-2,10,10,0,0,1,16.26,7.69c0,.11,0,.23,0,.34a9.08,9.08,0,0,1,3.72-.78A9.33,9.33,0,0,1,137.2,223.7Z"/><circle class="cls-4" cx="132.27" cy="268.61" r="3.09"/><circle class="cls-4" cx="281.54" cy="267.06" r="3.53"/><line class="cls-4" x1="96.2" y1="250.61" x2="103.44" y2="250.61"/><line class="cls-4" x1="99.82" y1="246.99" x2="99.82" y2="254.23"/><line class="cls-4" x1="45.39" y1="186.18" x2="52.63" y2="186.18"/><line class="cls-4" x1="49.01" y1="182.56" x2="49.01" y2="189.8"/><line class="cls-4" x1="247.9" y1="138.01" x2="255.14" y2="138.01"/><line class="cls-4" x1="251.52" y1="134.39" x2="251.52" y2="141.63"/><line class="cls-4" x1="33.7" y1="291.11" x2="73.45" y2="291.11"/><line class="cls-4" x1="88.68" y1="291.14" x2="205.85" y2="291.14"/><line class="cls-4" x1="221.92" y1="291.26" x2="245.18" y2="291.26"/><line class="cls-4" x1="260.79" y1="290.99" x2="280.24" y2="290.99"/><line class="cls-4" x1="296.22" y1="291.29" x2="315.67" y2="291.29"/><circle class="cls-5" cx="170.28" cy="231.61" r="58.87"/><line class="cls-4" x1="111.41" y1="231.61" x2="229.14" y2="231.61"/><line class="cls-4" x1="170.28" y1="173.07" x2="170.28" y2="290.15"/><path class="cls-4" d="M129.45,273.56s36.28-27.56,83-1.12"/><path class="cls-4" d="M212.14,190.28a94.1,94.1,0,0,1-13.93,6.49,78.59,78.59,0,0,1-27.93,5,76.31,76.31,0,0,1-23.71-4,67.49,67.49,0,0,1-17.21-8.45"/><ellipse class="cls-4" cx="172.61" cy="231.65" rx="32.63" ry="56.26"/><path class="cls-6" d="M177.41,173.23a76.35,76.35,0,0,1,15.19-23.15,36.54,36.54,0,0,1,16.73-9.67.72.72,0,0,1,1.07.67c1.43,6.07.38,11.72-1.77,17.44a11,11,0,0,0,1.82-1.91,2.87,2.87,0,0,1,2.36-1.13,2.37,2.37,0,0,1,1.76,1.56c1.82,4.68-.91,10.7-3.76,14.35-4.12,5.26-10.32,8.53-16.53,10.66a71,71,0,0,1-7.16,2S171.94,187.46,177.41,173.23Z"/><path class="cls-6" d="M179.86,174.27a78.66,78.66,0,0,0-17.18-25.57,38.09,38.09,0,0,0-8.11-6.07c-1.35-.73-7.67-4.17-9.07-3a.88.88,0,0,0-.23.41,20.6,20.6,0,0,0-1,8.11c.21,3.3.77,7.93,2.52,10.79,0,0-3.46-5.48-5.63-2.74s-3.46,22.35,28.42,29.42C169.62,185.66,185.62,189.27,179.86,174.27Z"/><path class="cls-7" d="M171.2,173.35a3.42,3.42,0,0,0,.21-.43c.55-1.54-.39-3.84-.63-5.5a55.86,55.86,0,0,0-1.63-7.87c-1.54-5.33-4.48-11.33-9.14-15a7.09,7.09,0,0,0-5.12-1.76,4.3,4.3,0,0,0-3.23,2.56c-1,2.16-.21,4,1.24,5.68a60.69,60.69,0,0,1,4.41,5.45,40.58,40.58,0,0,1,4,7.67c1,2.58,1.31,5.54,2.63,8a5.53,5.53,0,0,0,2.51,2.46A4.09,4.09,0,0,0,171.2,173.35Z"/><path class="cls-7" d="M154.15,195.46c1.33-2.57.93-5.83,1.87-8.53,1.47-4.24,5.59-7.78,10.2-5.56,5.17,2.49,5.1,8.76,4,13.54-.63,2.73-1.31,6.94-3.61,8.8a7,7,0,0,1-4.36,1.22c-3.67,0-7.51-1.26-9.8-4.13a2.65,2.65,0,0,1-.72-1.76c.06-.95.93-1.6,1.56-2.31A5.85,5.85,0,0,0,154.15,195.46Z"/><path class="cls-8" d="M194.77,164.48,167.19,158a19.47,19.47,0,0,1,6.62-4.37l17,4A19.39,19.39,0,0,1,194.77,164.48Z"/><path class="cls-5" d="M190.82,157.61l-17-4a15.13,15.13,0,0,1,17,4Z"/><path class="cls-8" d="M195.77,175.22l-34.29-8.12a25.05,25.05,0,0,1,2.61-5.32l31.74,7.52A25,25,0,0,1,195.77,175.22Z"/><path class="cls-5" d="M195.83,169.3l-31.74-7.52a22.47,22.47,0,0,1,3.1-3.83l27.58,6.53A23,23,0,0,1,195.83,169.3Z"/><path class="cls-8" d="M194.73,179.87a25.33,25.33,0,0,1-2.42,5.36l-32.23-7.64a25.9,25.9,0,0,1,.24-5.87Z"/><path class="cls-5" d="M163.88,188.45,184,193.22a15.29,15.29,0,0,1-20.16-4.77Z"/><path class="cls-5" d="M192.31,185.23a22.87,22.87,0,0,1-2.52,3.42l-29-6.87a24,24,0,0,1-.72-4.19Z"/><path class="cls-5" d="M195.27,177.92q-.22,1-.54,2l-34.41-8.15c.11-.66.24-1.33.39-2,.22-.9.47-1.78.77-2.63l34.29,8.12A25.58,25.58,0,0,1,195.27,177.92Z"/><path class="cls-8" d="M189.79,188.65a20.24,20.24,0,0,1-5.75,4.57l-20.16-4.77a20.49,20.49,0,0,1-3.08-6.67Z"/><path class="cls-7" d="M186.09,177.5c-3.55.92-7.29,4.22-10.21,5.3a10.38,10.38,0,0,0-5.77,4.47c-1,1.75-2.29,6.43-1.78,8.46-2.11-.43-3.93,1.44-4.07,4a3.24,3.24,0,0,0,.19,1.46,3,3,0,0,0,.58.82,11.86,11.86,0,0,0,10.25,3.53c4.45-.48,4.29-5.44,6.56-8.7,2.44-3.51,8.74-1.66,12.15-3.89a3.09,3.09,0,0,0,1.22-1.33,4.37,4.37,0,0,0,.24-1.66c0-4.14-1.55-9.79-4.89-11.9A5.45,5.45,0,0,0,186.09,177.5Z"/><path class="cls-7" d="M189.32,159.83a6.92,6.92,0,0,1,7.23,1c2.63,2,4,5.31,4.78,8.55s1.11,6.58,2.21,9.72,3.15,6.18,6.26,7.37a4.61,4.61,0,0,1,1.44.71,2.22,2.22,0,0,1,.15,2.79,4.39,4.39,0,0,1-2.52,1.58c-3.39.93-7.09-.32-9.89-2.45s-4.88-5.05-6.9-7.94c-3.07-4.4-8-10.9-6.56-16.58A7,7,0,0,1,189.32,159.83Z"/><path class="cls-8" d="M182.19,50.77l-1.26,1.73a.37.37,0,0,0,0,.51l3.25,3a.4.4,0,0,1,0,.52l-2.91,3.8a.38.38,0,0,0,0,.5l2.71,3a.38.38,0,0,1,0,.53l-2.14,2.08a.39.39,0,0,1-.61-.46l.71-1.33a.38.38,0,0,0-.08-.46l-3.7-3.45a.39.39,0,0,1,0-.54l3-3.38a.38.38,0,0,0,0-.49l-2.73-3.47a.39.39,0,0,1,.09-.56l3.06-2A.38.38,0,0,1,182.19,50.77Z"/><path class="cls-5" d="M181.09,159.76l-3.82-.1A26,26,0,0,1,151.93,133l.22-8.77A28,28,0,0,1,182,97h0a29.56,29.56,0,0,1,27.67,30.25l-.13,5.51A27.76,27.76,0,0,1,181.09,159.76Z"/><path class="cls-7" d="M205.85,112c-3.19-.29-6.55-.72-9.61-.27a19.6,19.6,0,0,0-9.58,4.69c-3,2.51-7.69,2.23-11,.39s-5.11-5.08-8.42-6.83a21.91,21.91,0,0,0-9-2.49A28,28,0,0,1,182,97a29.48,29.48,0,0,1,19.93,9.55A29,29,0,0,1,205.85,112Z"/><path class="cls-5" d="M177.3,95.84h7.14a2.44,2.44,0,0,1,2.44,2.44v.51a.17.17,0,0,1-.17.17H175.46a.17.17,0,0,1-.17-.17v-.94a2,2,0,0,1,2-2Z" transform="translate(2.49 -4.5) rotate(1.43)"/><path class="cls-5" d="M179,95.58c.13-1.14.89-6.58,3.73-8.9a.19.19,0,0,1,.31.18c-.25,1.67-1,7.33-.24,8.72a.2.2,0,0,1-.17.3l-3.44-.09A.19.19,0,0,1,179,95.58Z"/><circle class="cls-9" cx="183.55" cy="83.39" r="4.24"/><circle class="cls-10" cx="183.55" cy="83.39" r="3"/><circle class="cls-8" cx="169.52" cy="131.04" r="5.59"/><circle class="cls-8" cx="196.14" cy="131.7" r="5.59"/><circle class="cls-4" cx="167.42" cy="132.17" r="11.46"/><circle class="cls-4" cx="194.04" cy="132.83" r="11.46"/><line class="cls-4" x1="178.87" y1="132.45" x2="182.59" y2="132.55"/><line class="cls-4" x1="155.97" y1="131.88" x2="152.16" y2="126.62"/><line class="cls-4" x1="205.49" y1="133.12" x2="209.42" y2="128.05"/><path class="cls-4" d="M176.45,148.66a4.77,4.77,0,0,1,7,.26"/></svg>