<svg id="Layer_1" data-name="Layer 1" xmlns="http://www.w3.org/2000/svg" viewBox="0 0 351.16 293.04"><defs><style>.cls-1,.cls-2,.cls-6{fill:#c4cbe0;}.cls-1{opacity:0.25;}.cls-3,.cls-8{fill:#fff;}.cls-4,.cls-9{fill:none;}.cls-10,.cls-13,.cls-4,.cls-5,.cls-6,.cls-7,.cls-8{stroke:#3e6be0;}.cls-10,.cls-13,.cls-4,.cls-5,.cls-6,.cls-7,.cls-8,.cls-9{stroke-linecap:round;stroke-linejoin:round;}.cls-5,.cls-7{fill:#3e6be0;}.cls-5{opacity:0.4;}.cls-9{stroke:#fff;}.cls-10{fill:#cad1e6;}.cls-11{fill:#ffc4c4;}.cls-12{fill:#ff6766;}.cls-13{fill:#3e6be6;}</style></defs><path class="cls-1" d="M352.36,260.22a175.11,175.11,0,0,1-2.45,29.25H319.85A145,145,0,1,0,32.76,260.22a146,146,0,0,0,3,29.25H5.65a174.59,174.59,0,1,1,346.71-29.25Z"/><path class="cls-2" d="M322.8,259.22a146,146,0,0,1-2.95,29.25H35.71A145,145,0,1,1,322.8,259.22Z"/><path class="cls-3" d="M265.35,283.82a15.08,15.08,0,0,1-1.06,5.6H148.51a18.46,18.46,0,0,1-1.78-8,18.73,18.73,0,0,1,18.73-18.73,17,17,0,0,1,1.75.09,25.2,25.2,0,0,1,50-6.23,16.34,16.34,0,0,1,26.7,12.63c0,.18,0,.37,0,.55a15,15,0,0,1,6.11-1.28A15.33,15.33,0,0,1,265.35,283.82Z"/><path class="cls-3" d="M139.4,222.84c0,5.83-12.38,3.41-16.48,3.41H68.27a11.25,11.25,0,0,1-1.08-4.84A11.4,11.4,0,0,1,78.59,210a9.28,9.28,0,0,1,1.06.06,17.14,17.14,0,0,1-.1-1.76,15.34,15.34,0,0,1,30.55-2A10,10,0,0,1,126.36,214c0,.11,0,.23,0,.34a9.08,9.08,0,0,1,3.72-.78A9.33,9.33,0,0,1,139.4,222.84Z"/><circle class="cls-4" cx="283.74" cy="266.2" r="3.53"/><line class="cls-4" x1="98.4" y1="249.75" x2="105.64" y2="249.75"/><line class="cls-4" x1="102.02" y1="246.13" x2="102.02" y2="253.37"/><line class="cls-4" x1="47.59" y1="185.32" x2="54.83" y2="185.32"/><line class="cls-4" x1="51.21" y1="181.7" x2="51.21" y2="188.94"/><line class="cls-4" x1="273.23" y1="181.6" x2="280.47" y2="181.6"/><line class="cls-4" x1="276.85" y1="177.98" x2="276.85" y2="185.22"/><line class="cls-4" x1="35.9" y1="290.25" x2="75.65" y2="290.25"/><line class="cls-4" x1="90.88" y1="290.28" x2="208.05" y2="290.28"/><line class="cls-4" x1="224.12" y1="290.4" x2="247.38" y2="290.4"/><line class="cls-4" x1="262.99" y1="290.13" x2="282.44" y2="290.13"/><line class="cls-4" x1="298.42" y1="290.43" x2="317.88" y2="290.43"/><ellipse class="cls-4" cx="184.07" cy="218.37" rx="32.68" ry="39.6"/><path class="cls-5" d="M188.49,212.66a140.37,140.37,0,0,1,27.91-42.54,67.27,67.27,0,0,1,30.75-17.77,1.32,1.32,0,0,1,2,1.24c2.63,11.14.7,21.53-3.24,32a21.31,21.31,0,0,0,3.34-3.5c1.12-1.23,2.68-2.31,4.33-2.08a4.34,4.34,0,0,1,3.23,2.87c3.35,8.6-1.67,19.66-6.91,26.36-7.57,9.66-19,15.68-30.37,19.58a125,125,0,0,1-13.15,3.66S178.44,238.79,188.49,212.66Z"/><path class="cls-5" d="M179.81,220.14c-7.27-17.15-18.15-34-31.56-47A69.94,69.94,0,0,0,133.35,162c-2.48-1.35-14.08-7.67-16.66-5.45a1.74,1.74,0,0,0-.43.76,37.94,37.94,0,0,0-1.75,14.89c.39,6.07,1.41,14.59,4.63,19.83,0,0-6.36-10.06-10.34-5s-6.36,41.07,52.2,54C161,241.07,190.41,247.7,179.81,220.14Z"/><path class="cls-6" d="M193.49,192a6.27,6.27,0,0,1,0-1.14c.22-3.8,3.56-7.14,5.21-10.15a102.83,102.83,0,0,1,8.71-13.57c6.65-8.6,16.17-16.7,26.89-17.92a12.09,12.09,0,0,1,10,3.26,13.72,13.72,0,0,1,3.58,9.37c0,5.12-1.66,9.45-6.37,10.32-7.21,1.33-11.66,3.13-17.43,8.34-4.12,3.73-8.26,7.49-11.63,12.06-1.71,2.31-3.45,4.8-5.69,6.49a7.44,7.44,0,0,1-6.13,1.6C197.35,199.92,193.92,195.81,193.49,192Z"/><path class="cls-6" d="M163,180.3a5.85,5.85,0,0,0-1.1.34c-3.58,1.49-5.83,6.24-8.24,9a115.73,115.73,0,0,0-10.53,14c-6.33,10.12-11.37,23.23-9.47,35.4.62,3.95,2.58,7.88,6,9.94a12.12,12.12,0,0,0,10,.86c4.92-1.65,8.59-4.92,8.07-10.37-.79-8.36-.34-13.83,3-21.87,2.39-5.74,4.81-11.53,8.23-16.73,1.73-2.63,3.62-5.35,4.59-8.37a9.66,9.66,0,0,0-.22-7.25C171.73,181.94,166.8,179.53,163,180.3Z"/><path class="cls-6" d="M183.36,254.1c1.45.59.8,12.1.61,13.71a17.68,17.68,0,0,1-2.63,7.95,9.36,9.36,0,0,1-6.84,3.88,32.24,32.24,0,0,1-9.7-.49,14.56,14.56,0,0,1-5.32-1.74c-3.16-2.16-1.71-6.51.94-8.42.3-.22,3.58-2.1,3.62-1.54l-1.61-21.8Z"/><path class="cls-6" d="M184.81,254c-1.45.59-.8,12.1-.61,13.71.47,3.79,1.64,8.7,5,10.54,3.62,2,9.24,1.68,13.19,1.18,4.12-.52,10.2-2.67,7.32-8a8.17,8.17,0,0,0-2.44-2.81c-.36-.25-3.1-1.67-3.13-1.27l1.61-21.8Z"/><path class="cls-7" d="M210,194.78H157.83a35.86,35.86,0,0,1,10-10.62H200A35.73,35.73,0,0,1,210,194.78Z"/><path class="cls-8" d="M200,184.16H167.83a27.81,27.81,0,0,1,32.16,0Z"/><path class="cls-7" d="M216.33,213.6H151.49A45.63,45.63,0,0,1,153.9,203h60A45.13,45.13,0,0,1,216.33,213.6Z"/><path class="cls-8" d="M213.92,203h-60a42.1,42.1,0,0,1,3.93-8.19H210A41.53,41.53,0,0,1,213.92,203Z"/><path class="cls-7" d="M216.45,222.36A46.37,46.37,0,0,1,214.38,233H153.44a46.91,46.91,0,0,1-2.06-10.62Z"/><path class="cls-8" d="M164.85,250.8H203a28.13,28.13,0,0,1-38.12,0Z"/><path class="cls-8" d="M214.38,233a42.66,42.66,0,0,1-3,7.19H156.49a43.49,43.49,0,0,1-3.05-7.19Z"/><path class="cls-8" d="M216.59,218.63c0,1.26-.05,2.5-.14,3.73H151.38c-.1-1.23-.15-2.47-.15-3.73a49.09,49.09,0,0,1,.26-5h64.84A49.09,49.09,0,0,1,216.59,218.63Z"/><path class="cls-7" d="M211.33,240.17A37.25,37.25,0,0,1,203,250.8H164.85a37.6,37.6,0,0,1-8.36-10.63Z"/><rect class="cls-8" x="232.76" y="93.66" width="11.26" height="133.41" rx="5.63"/><circle class="cls-7" cx="238.39" cy="86.39" r="25.21"/><polyline class="cls-9" points="230.35 89.15 235.79 94.2 249.53 78.58"/><ellipse class="cls-6" cx="239.4" cy="158.38" rx="9.16" ry="11.91"/><path class="cls-8" d="M184.84,185.08H178a46.32,46.32,0,0,1-46.32-46.32V123.13a50,50,0,0,1,51.92-49.94h0a52.68,52.68,0,0,1,50.64,52.64v9.82A49.43,49.43,0,0,1,184.84,185.08Z"/><path class="cls-10" d="M226.83,98.83c-5.71-.36-11.71-1-17.14,0-6.38,1.09-12.05,4.57-16.85,8.8-5.22,4.59-13.59,4.31-19.56,1.17-5.73-3-9.33-8.81-15.3-11.79a39.23,39.23,0,0,0-16.12-4,49.92,49.92,0,0,1,41.78-19.75,52.69,52.69,0,0,1,43.19,25.64Z"/><path class="cls-8" d="M175,70.71h13.5A3.56,3.56,0,0,1,192,74.28v2a0,0,0,0,1,0,0H171.39a0,0,0,0,1,0,0v-2A3.56,3.56,0,0,1,175,70.71Z"/><path class="cls-8" d="M177.93,70.71s.79-12.56,6.94-16.92c0,0-2.32,16.92.61,16.92Z"/><circle class="cls-11" cx="185.48" cy="48.44" r="7.55"/><circle class="cls-12" cx="185.48" cy="48.44" r="5.35"/><circle class="cls-13" cx="159.28" cy="144.55" r="9.96"/><circle class="cls-13" cx="206.72" cy="144.55" r="9.96"/><circle class="cls-4" cx="159.28" cy="136.55" r="20.41"/><circle class="cls-4" cx="206.72" cy="136.55" r="20.41"/><line class="cls-4" x1="179.69" y1="136.55" x2="186.31" y2="136.55"/><line class="cls-4" x1="138.87" y1="136.55" x2="131.85" y2="127.35"/><line class="cls-4" x1="227.13" y1="136.55" x2="233.9" y2="127.35"/><path class="cls-8" d="M179.26,165.67a5.15,5.15,0,0,1,8.06,0"/></svg>