<svg id="Layer_1" data-name="Layer 1" xmlns="http://www.w3.org/2000/svg" viewBox="0 0 351.16 293.04"><defs><style>.cls-1,.cls-10{fill:none;}.cls-1,.cls-5,.cls-6,.cls-7,.cls-8,.cls-9{stroke:#3e6be0;}.cls-1,.cls-10,.cls-5,.cls-6,.cls-7,.cls-8,.cls-9{stroke-linecap:round;stroke-linejoin:round;}.cls-2,.cls-3,.cls-9{fill:#c4cbe0;}.cls-2{opacity:0.25;}.cls-4,.cls-8{fill:#fff;}.cls-5,.cls-7{fill:#3e6be0;}.cls-5{opacity:0.3;}.cls-6{fill:#cad1e6;}.cls-10{stroke:#f3a83b;}.cls-11{fill:#ffd9d9;}.cls-12{fill:#ff6766;}</style></defs><line class="cls-1" x1="33.34" y1="287.68" x2="73.1" y2="287.68"/><line class="cls-1" x1="88.32" y1="287.71" x2="205.49" y2="287.71"/><line class="cls-1" x1="221.56" y1="287.83" x2="244.83" y2="287.83"/><line class="cls-1" x1="260.43" y1="287.56" x2="279.89" y2="287.56"/><line class="cls-1" x1="295.86" y1="287.86" x2="315.32" y2="287.86"/><path class="cls-2" d="M350.16,257.45a175.11,175.11,0,0,1-2.45,29.25H317.65A145,145,0,1,0,30.56,257.45a146,146,0,0,0,2.95,29.25H3.45a174.59,174.59,0,1,1,346.71-29.25Z"/><path class="cls-3" d="M320.6,256.45a146,146,0,0,1-3,29.25H33.51A145,145,0,1,1,320.6,256.45Z"/><path class="cls-4" d="M263.15,281.05a15.08,15.08,0,0,1-1.06,5.6H146.31a18.46,18.46,0,0,1-1.78-8A18.73,18.73,0,0,1,163.26,260a17,17,0,0,1,1.75.09,25.2,25.2,0,0,1,50-6.23,16.34,16.34,0,0,1,26.7,12.63c0,.18,0,.37,0,.55a15,15,0,0,1,6.11-1.28A15.33,15.33,0,0,1,263.15,281.05Z"/><path class="cls-4" d="M137.2,220.07c0,5.83-12.38,3.41-16.48,3.41H66.07A11.26,11.26,0,0,1,65,218.63a11.39,11.39,0,0,1,11.4-11.4,9.28,9.28,0,0,1,1.06.06,17.14,17.14,0,0,1-.1-1.76,15.34,15.34,0,0,1,30.55-2,10,10,0,0,1,16.26,7.69c0,.11,0,.23,0,.34a9.08,9.08,0,0,1,3.72-.78A9.33,9.33,0,0,1,137.2,220.07Z"/><circle class="cls-1" cx="77.27" cy="95.98" r="3.09"/><circle class="cls-1" cx="282.54" cy="263.43" r="3.53"/><line class="cls-1" x1="97.2" y1="246.98" x2="104.44" y2="246.98"/><line class="cls-1" x1="100.82" y1="243.36" x2="100.82" y2="250.6"/><line class="cls-1" x1="248.9" y1="134.38" x2="256.14" y2="134.38"/><line class="cls-1" x1="252.52" y1="130.76" x2="252.52" y2="138"/><path class="cls-5" d="M173,206.88a144.21,144.21,0,0,1,28.67-43.69,69.07,69.07,0,0,1,31.58-18.26,1.8,1.8,0,0,1,1.27,0,1.77,1.77,0,0,1,.75,1.29c2.7,11.45.72,22.13-3.33,32.91a21.3,21.3,0,0,0,3.43-3.6c1.16-1.26,2.76-2.37,4.45-2.14a4.51,4.51,0,0,1,3.32,3c3.44,8.83-1.71,20.19-7.1,27.07-7.78,9.93-19.47,16.11-31.2,20.12a129.41,129.41,0,0,1-13.51,3.76S162.63,233.73,173,206.88Z"/><path class="cls-5" d="M164,208.16c-7.47-17.61-18.65-35-32.43-48.25a71.84,71.84,0,0,0-15.3-11.45c-2.55-1.39-14.46-7.89-17.12-5.6a1.59,1.59,0,0,0-.43.77A39.1,39.1,0,0,0,97,158.94c.4,6.23,1.45,15,4.75,20.37,0,0-6.53-10.34-10.61-5.17s-6.53,42.19,53.62,55.53C144.71,229.67,174.93,236.47,164,208.16Z"/><path class="cls-6" d="M146.81,173.65a6.15,6.15,0,0,0-1.13.34c-3.68,1.53-6,6.41-8.47,9.29a118.41,118.41,0,0,0-10.81,14.4c-6.51,10.39-11.69,23.86-9.73,36.35.64,4.06,2.65,8.1,6.17,10.22,4.06,2.45,8.62,1.3,10.29.89,4.83-1.2,11.68-5.19,11.85-10.87.13-4.29-3.6-7.67-4.36-8.36-3.88-3.52-7.68-2.94-8-4.72-.42-2.38,6.42-3.12,11.87-9.17,5.17-5.74,2.52-8.16,8.46-17.19,1.77-2.7,3.72-5.5,4.72-8.6a9.94,9.94,0,0,0-.23-7.45C155.73,175.33,150.67,172.85,146.81,173.65Z"/><path class="cls-6" d="M166.6,250.26c1.71.68.94,13.92.71,15.78a19.92,19.92,0,0,1-3.09,9.14,11,11,0,0,1-8.05,4.47,38.74,38.74,0,0,1-11.42-.57c-2.1-.42-4.44-.78-6.26-2-3.72-2.48-2-7.48,1.11-9.68.35-.25,4.21-2.42,4.25-1.78L142,240.54Z"/><path class="cls-6" d="M168.3,250.13c-1.7.67-.94,13.92-.71,15.77.54,4.36,1.92,10,5.87,12.13,4.26,2.27,10.89,1.93,15.53,1.36,4.84-.61,12-3.08,8.61-9.21a9.38,9.38,0,0,0-2.87-3.23c-.42-.29-3.65-1.92-3.68-1.46l1.89-25.09Z"/><path class="cls-7" d="M193.78,188.52H140.2a36.67,36.67,0,0,1,10.27-10.91h33A36.67,36.67,0,0,1,193.78,188.52Z"/><path class="cls-8" d="M183.51,177.61h-33a28.57,28.57,0,0,1,33,0Z"/><path class="cls-7" d="M200.29,207.85H133.68a47.1,47.1,0,0,1,2.48-10.92h61.66A46.58,46.58,0,0,1,200.29,207.85Z"/><path class="cls-8" d="M197.82,196.93H136.16a42.12,42.12,0,0,1,4-8.41h53.58A43.24,43.24,0,0,1,197.82,196.93Z"/><path class="cls-7" d="M200.41,216.85a47.18,47.18,0,0,1-2.12,10.91h-62.6a47.18,47.18,0,0,1-2.12-10.91Z"/><path class="cls-8" d="M147.4,246.07h39.17a28.92,28.92,0,0,1-39.17,0Z"/><path class="cls-8" d="M198.29,227.76a44.68,44.68,0,0,1-3.13,7.39H138.82a43.85,43.85,0,0,1-3.13-7.39Z"/><path class="cls-8" d="M200.56,213c0,1.3-.05,2.57-.15,3.83H133.57c-.1-1.26-.15-2.53-.15-3.83,0-1.75.09-3.47.26-5.17h66.61A49,49,0,0,1,200.56,213Z"/><path class="cls-7" d="M195.16,235.15a38.55,38.55,0,0,1-8.59,10.92H147.4a38.52,38.52,0,0,1-8.58-10.92Z"/><path class="cls-7" d="M127.91,164.73,99.82,197.21,94.94,193a15.6,15.6,0,0,1-.89-22.87l8.33-8.34a15.58,15.58,0,0,1,21.13-.85Z"/><path class="cls-7" d="M219.31,274.41l-14-1.15L220,257.1l3.62,12A4.1,4.1,0,0,1,219.31,274.41Z"/><polygon class="cls-9" points="219.96 257.1 205.35 273.26 187.03 271.76 186.1 270.96 214.45 238.66 219.96 257.1"/><polygon class="cls-7" points="214.45 238.66 186.1 270.96 112 207.63 126.65 190.44 139.9 174.92 214.3 238.2 214.45 238.66"/><polygon class="cls-9" points="139.9 174.92 126.65 190.44 112 207.63 99.82 197.21 127.91 164.73 139.9 174.92"/><line class="cls-10" x1="126.59" y1="190.39" x2="200.01" y2="253.11"/><path class="cls-6" d="M192.92,177.12a6,6,0,0,1,.81.86c2.42,3.16,2,8.55,2.68,12.28a119.27,119.27,0,0,1,2.15,17.87c.43,12.26-1.82,26.51-9.77,36.35-2.58,3.19-6.34,5.69-10.45,5.76a12.48,12.48,0,0,1-9.35-4.38c-3.52-4-5.1-8.79-1.84-13.38,5-7,7.41-12.12,8.56-21,.83-6.34,1.65-12.73,1.28-19.11-.18-3.23-.46-6.63.22-9.81a10,10,0,0,1,3.92-6.34C184.35,174.11,190,174.5,192.92,177.12Z"/><line class="cls-1" x1="219.31" y1="274.41" x2="246.17" y2="274.41"/><ellipse class="cls-6" cx="129.5" cy="231.98" rx="13.28" ry="13.68"/><path class="cls-8" d="M171.82,178.51l-6.68.24a45.51,45.51,0,0,1-47.09-43.85l-.55-15.34a49.1,49.1,0,0,1,49.22-50.85h0a51.75,51.75,0,0,1,51.55,49.91l.35,9.63A48.57,48.57,0,0,1,171.82,178.51Z"/><path class="cls-9" d="M210,92.37c-5.61-.15-11.52-.55-16.82.55-6.23,1.3-11.68,4.9-16.23,9.23-5,4.69-13.2,4.71-19.17,1.83-5.72-2.76-9.46-8.32-15.43-11a38.36,38.36,0,0,0-16-3.39,49,49,0,0,1,40.32-20.85,51.6,51.6,0,0,1,35.82,14.57A50.93,50.93,0,0,1,210,92.37Z"/><path class="cls-8" d="M159.26,66.84h11a5.1,5.1,0,0,1,5.1,5.1v0a.36.36,0,0,1-.36.36H155.42a.36.36,0,0,1-.36-.36V71a4.2,4.2,0,0,1,4.2-4.2Z" transform="translate(-2.38 5.94) rotate(-2.04)"/><path class="cls-8" d="M161.41,66.61c.1-2,.85-11.59,5.55-15.94a.34.34,0,0,1,.57.28c-.26,2.94-1,12.92.5,15.27a.34.34,0,0,1-.26.53l-6,.21A.33.33,0,0,1,161.41,66.61Z"/><circle class="cls-11" cx="168.02" cy="44.85" r="7.42"/><circle class="cls-12" cx="168.02" cy="44.85" r="5.25"/><circle class="cls-7" cx="144.56" cy="136.57" r="9.78"/><circle class="cls-7" cx="191.14" cy="134.9" r="9.78"/><circle class="cls-1" cx="145.02" cy="131.76" r="20.05"/><circle class="cls-1" cx="191.6" cy="130.1" r="20.05"/><line class="cls-1" x1="165.06" y1="131.05" x2="171.56" y2="130.81"/><line class="cls-1" x1="124.99" y1="132.48" x2="117.78" y2="123.69"/><line class="cls-1" x1="211.63" y1="129.38" x2="217.95" y2="120.11"/><path class="cls-1" d="M163.11,162.72a6.3,6.3,0,0,1,4.57-2.53,6.15,6.15,0,0,1,5.33,2.53"/></svg>