<svg id="Layer_1" data-name="Layer 1" xmlns="http://www.w3.org/2000/svg" viewBox="0 0 351.16 293.04"><defs><style>.cls-1,.cls-2,.cls-7{fill:#c4cbe0;}.cls-1{opacity:0.25;}.cls-3,.cls-6{fill:#fff;}.cls-4{fill:none;}.cls-4,.cls-5,.cls-6,.cls-7,.cls-8{stroke:#3e6be0;stroke-linecap:round;stroke-linejoin:round;}.cls-5,.cls-8{fill:#3e6be0;}.cls-8{opacity:0.3;}</style></defs><path class="cls-1" d="M350.16,254a175.11,175.11,0,0,1-2.45,29.25H317.65A145,145,0,1,0,30.56,254a146,146,0,0,0,2.95,29.25H3.45A174.59,174.59,0,1,1,350.16,254Z"/><path class="cls-2" d="M320.6,253a146,146,0,0,1-3,29.25H33.51A145,145,0,1,1,320.6,253Z"/><path class="cls-3" d="M263.15,277.58a15.08,15.08,0,0,1-1.06,5.6H146.31a18.46,18.46,0,0,1-1.78-8,18.73,18.73,0,0,1,18.73-18.73,17,17,0,0,1,1.75.09,25.2,25.2,0,0,1,50-6.23A16.34,16.34,0,0,1,241.72,263c0,.18,0,.37,0,.55a15,15,0,0,1,6.11-1.28A15.33,15.33,0,0,1,263.15,277.58Z"/><path class="cls-3" d="M137.2,216.6c0,5.83-12.38,3.41-16.48,3.41H66.07A11.26,11.26,0,0,1,65,215.16a11.39,11.39,0,0,1,11.4-11.4,9.28,9.28,0,0,1,1.06.06,17.14,17.14,0,0,1-.1-1.76,15.34,15.34,0,0,1,30.55-2,10,10,0,0,1,16.26,7.69c0,.11,0,.23,0,.34a9.08,9.08,0,0,1,3.72-.78A9.33,9.33,0,0,1,137.2,216.6Z"/><circle class="cls-4" cx="132.27" cy="261.5" r="3.09"/><circle class="cls-4" cx="281.54" cy="259.96" r="3.53"/><line class="cls-4" x1="96.2" y1="243.51" x2="103.44" y2="243.51"/><line class="cls-4" x1="99.82" y1="239.89" x2="99.82" y2="247.13"/><line class="cls-4" x1="269.01" y1="182.07" x2="276.25" y2="182.07"/><line class="cls-4" x1="272.63" y1="178.45" x2="272.63" y2="185.69"/><line class="cls-4" x1="247.9" y1="130.91" x2="255.14" y2="130.91"/><line class="cls-4" x1="251.52" y1="127.29" x2="251.52" y2="134.53"/><line class="cls-4" x1="167.77" y1="112.04" x2="166.3" y2="116.51"/><circle class="cls-4" cx="57.21" cy="273.36" r="2.95"/><circle class="cls-4" cx="280.12" cy="131.66" r="2.42"/><circle class="cls-4" cx="16.85" cy="114.63" r="3"/><line class="cls-4" x1="45.56" y1="185.83" x2="52.8" y2="185.83"/><line class="cls-4" x1="49.18" y1="182.21" x2="49.18" y2="189.45"/><line class="cls-4" x1="312.43" y1="217.11" x2="319.67" y2="217.11"/><line class="cls-4" x1="316.05" y1="213.49" x2="316.05" y2="220.73"/><rect class="cls-5" x="107.81" y="128.18" width="141.03" height="78.41" rx="2.9"/><path class="cls-6" d="M109.31,133.09,116.58,148a3.12,3.12,0,0,0,2.82,1.66H238.06a3.13,3.13,0,0,0,2.72-1.48l8.73-14.93c1.08-1.86-.4-4.09-2.72-4.09H112.13A2.82,2.82,0,0,0,109.31,133.09Z"/><path class="cls-4" d="M215.25,191.59a40.66,40.66,0,0,0,3.94-10.92c.76-3.32,1.18-7,3.54-9.66s6.05-3.52,9.36-4.76A26.35,26.35,0,0,0,242,160a19.75,19.75,0,0,0,4.58-7.35,9.31,9.31,0,0,0,.2-5.28,3.32,3.32,0,0,0-2.52-2.42"/><polygon class="cls-5" points="245.08 142.86 245.19 148.79 237.89 144.46 243.03 140.57 245.08 142.86"/><path class="cls-6" d="M241.71,141.17s-15.85-18.22-8-42.38,20.06-30.52,33-29.12c15.85,1.62,31.6,12.84,33.43,31.82.91,9.39-4.24,19.24-10,26.3-10.95,13.34-28.19,20.4-45.06,15.07"/><path class="cls-5" d="M265.16,73c-4.2.7-11.73,2.86-15.29,9.48a.32.32,0,0,1-.34.17c-.61-.12-2.19-.51-2.13-1.32s7.71-9.11,17.71-9A.32.32,0,0,1,265.16,73Z"/><path class="cls-7" d="M285,80.54c3.23,2.78,8.56,8.52,8.18,16a.32.32,0,0,0,.2.32c.58.21,2.14.7,2.51,0S294,85.08,285.37,80A.32.32,0,0,0,285,80.54Z"/><path class="cls-7" d="M296.16,98.92l-2.3-.34a.32.32,0,0,0-.37.35c.16,1.5.62,6.73-.42,8.29a.33.33,0,0,0,.16.47l2.21.87a.33.33,0,0,0,.44-.24c.29-1.51,1.33-7.19.53-9.21A.33.33,0,0,0,296.16,98.92Z"/><ellipse class="cls-4" cx="183.98" cy="222.59" rx="23.35" ry="28.3"/><path class="cls-8" d="M187.86,218.51a100.25,100.25,0,0,1,19.94-30.4,48.1,48.1,0,0,1,22-12.7,1,1,0,0,1,1.41.88c1.87,8,.5,15.4-2.32,22.9a14.92,14.92,0,0,0,2.38-2.51,3.76,3.76,0,0,1,3.1-1.48,3.11,3.11,0,0,1,2.31,2.05c2.4,6.15-1.19,14.05-4.94,18.83-5.41,6.91-13.54,11.21-21.7,14a90.32,90.32,0,0,1-9.4,2.62S180.67,237.19,187.86,218.51Z"/><path class="cls-8" d="M180.93,223.86c-5.19-12.26-13-24.34-22.55-33.57a50,50,0,0,0-10.65-8c-1.77-1-10.06-5.48-11.91-3.89a1.17,1.17,0,0,0-.3.53,27.26,27.26,0,0,0-1.26,10.65c.28,4.33,1,10.42,3.31,14.17,0,0-4.54-7.19-7.39-3.59s-4.54,29.35,37.31,38.63C167.49,238.82,188.51,243.55,180.93,223.86Z"/><path class="cls-7" d="M184.65,251.87c2,3.44.33,8.4-1,11.78-1.77,4.62-4.57,9.25-10,9.72a18.86,18.86,0,0,1-5.83-.6c-2.74-.64-5.42-1.5-8.09-2.36a4.29,4.29,0,0,1-2.57-1.58,3.32,3.32,0,0,1-.28-2.2c.48-3.17,3.27-6.17,6.6-5.93,1.46.11,1.17-4.23,1.27-5.34.24-2.4.47-4.79.7-7.19.06-.63,1.2-7.31.73-7.58l8.69,5.12c2.9,1.71,6.28,2.74,8.84,5A4.62,4.62,0,0,1,184.65,251.87Z"/><path class="cls-7" d="M201.65,240.85l3.75,22.29s4.57.26,3.5,5.1-17.46,7.52-22.84,3.49c-3.6-2.7-3.2-8.11-2.49-12,.85-4.74,1.86-8.51,6-11.17l5.23-3.34C195.39,244.85,201.74,241.38,201.65,240.85Z"/><path class="cls-7" d="M194,208.14a3.71,3.71,0,0,0,.77.27c2.69.67,6-1.12,8.58-1.71a82.3,82.3,0,0,0,12-3.61c7.93-3.14,16.38-8.55,20.44-16.36a10,10,0,0,0,.76-8.27,8.67,8.67,0,0,0-5.4-4.73c-3.53-1.14-7-.81-9,2.55-3.09,5.15-5.66,8.1-11,11.31a71.42,71.42,0,0,1-11.83,6.15,25.83,25.83,0,0,0-6.19,2.87,6.9,6.9,0,0,0-2.94,4.27A7.43,7.43,0,0,0,194,208.14Z"/><path class="cls-7" d="M177.16,199.7a4.49,4.49,0,0,0-.76-.31c-2.66-.79-6.05.82-8.65,1.28-5.74,1-4.78.42-12.16,3a60.71,60.71,0,0,0-9,4,31.6,31.6,0,0,0-7.75,5.28,19,19,0,0,0-4.53,6.06c-1,2.27-2.29,5.12-1.17,8.22a8.65,8.65,0,0,0,5.15,5c3.47,1.31,7,1.16,9.16-2.09,3.34-5,6-7.81,11.54-10.75a73.14,73.14,0,0,1,12.12-5.54,25.83,25.83,0,0,0,6.33-2.55,6.93,6.93,0,0,0,3.15-4.12A7.42,7.42,0,0,0,177.16,199.7Z"/><path class="cls-5" d="M202.5,205.73H165.23a25.6,25.6,0,0,1,7.14-7.59h23A25.5,25.5,0,0,1,202.5,205.73Z"/><path class="cls-6" d="M195.35,198.14h-23a19.87,19.87,0,0,1,23,0Z"/><path class="cls-5" d="M207,219.18H160.69a32.76,32.76,0,0,1,1.73-7.6h42.89A32.25,32.25,0,0,1,207,219.18Z"/><path class="cls-6" d="M205.31,211.58H162.42a29.51,29.51,0,0,1,2.81-5.85H202.5A30.08,30.08,0,0,1,205.31,211.58Z"/><path class="cls-5" d="M207.11,225.44a32.82,32.82,0,0,1-1.47,7.59H162.09a33.36,33.36,0,0,1-1.48-7.59Z"/><path class="cls-6" d="M170.24,245.77h27.25a20.14,20.14,0,0,1-27.25,0Z"/><path class="cls-6" d="M205.64,233a31,31,0,0,1-2.18,5.14H164.27a30.17,30.17,0,0,1-2.18-5.14Z"/><path class="cls-6" d="M207.22,222.78c0,.9,0,1.78-.11,2.66h-46.5c-.07-.88-.1-1.76-.1-2.66a35.56,35.56,0,0,1,.18-3.6H207A32.86,32.86,0,0,1,207.22,222.78Z"/><path class="cls-5" d="M203.46,238.17a26.84,26.84,0,0,1-6,7.6H170.24a26.84,26.84,0,0,1-6-7.6Z"/><line class="cls-4" x1="149.61" y1="165.52" x2="144.45" y2="159"/><path class="cls-6" d="M188.48,197.18l-5.13,1a35.59,35.59,0,0,1-42-27.79L139,158.66a38.4,38.4,0,0,1,31.45-45.56h0a40.49,40.49,0,0,1,46.2,31.9l1.5,7.39A38,38,0,0,1,188.48,197.18Z"/><path class="cls-7" d="M206.89,125.8c-4.35.6-9,1.06-12.91,2.59-4.64,1.8-8.38,5.28-11.34,9.2-3.23,4.26-9.58,5.33-14.56,3.88-4.77-1.4-8.37-5.21-13.33-6.53a30,30,0,0,0-12.75-.57,38.39,38.39,0,0,1,28.44-21.27A40.36,40.36,0,0,1,200,119.75,39.9,39.9,0,0,1,206.89,125.8Z"/><circle class="cls-5" cx="164.06" cy="163.31" r="7.65"/><circle class="cls-5" cx="199.78" cy="156.05" r="7.65"/><circle class="cls-4" cx="161.79" cy="164.55" r="15.69"/><circle class="cls-4" cx="197.52" cy="157.28" r="15.69"/><line class="cls-4" x1="177.16" y1="161.42" x2="182.15" y2="160.41"/><line class="cls-4" x1="146.42" y1="167.67" x2="139.73" y2="161.82"/><line class="cls-4" x1="212.89" y1="154.16" x2="216.58" y2="146.19"/><path class="cls-4" d="M179.72,185.14a4.9,4.9,0,0,1,2.78-3,4.8,4.8,0,0,1,4.57.58"/><rect class="cls-6" x="108.81" y="200.95" width="141.03" height="81.46" rx="2.77"/><rect class="cls-5" x="109.17" y="231.76" width="140.04" height="16.36" rx="2.9"/><line class="cls-4" x1="162.83" y1="107.01" x2="161.02" y2="112.51"/><path class="cls-5" d="M209.38,128.85a.6.6,0,0,1-.33.45h0l-.11,0-3,.76-1.79.45L198.62,132l-1.91.48-5.06,1.31-.44.1-4.94,1.28-2,.51-5.33,1.38-2,.51L171.57,139l-2.16.55-7.71,2-2.09.53-5.27,1.36-2.08.53-7.74,2-2.28.58-3,.76a.6.6,0,0,1-.76-.6.88.88,0,0,1,0-.16l2.49-9,2.67-9.55,2.26-8.11,2.23-8,.47-1.55,2.38-8,2.85-9.59,2.81-9.43a3.45,3.45,0,0,1,.25-.63,3.69,3.69,0,0,1,5.31-1.4,3.45,3.45,0,0,1,.56.45l7,6.89,7.1,7,5.94,5.85,1.2,1.18,4.71,4.81,6.93,7.07,6.93,7.07,6.58,6.72A.63.63,0,0,1,209.38,128.85Z"/><path class="cls-4" d="M160.1,80.87s-9.78-5-16.16,10.4-8.8,13.84-8.8,13.84"/><circle class="cls-5" cx="135.04" cy="106.34" r="6.29"/><circle class="cls-6" cx="140.98" cy="147.27" r="1.26"/><circle class="cls-6" cx="138.42" cy="147.9" r="1.26"/><circle class="cls-6" cx="143.5" cy="146.65" r="1.26"/><circle class="cls-6" cx="146" cy="146.06" r="1.26"/><circle class="cls-6" cx="148.5" cy="145.47" r="1.26"/><circle class="cls-6" cx="150.98" cy="144.92" r="1.26"/><circle class="cls-6" cx="153.47" cy="144.28" r="1.26"/><circle class="cls-6" cx="155.92" cy="143.64" r="1.26"/><circle class="cls-6" cx="158.37" cy="143.07" r="1.26"/><circle class="cls-6" cx="160.81" cy="142.38" r="1.26"/><circle class="cls-6" cx="163.31" cy="141.65" r="1.26"/><circle class="cls-6" cx="165.61" cy="141" r="1.26"/><circle class="cls-6" cx="168.13" cy="140.38" r="1.26"/><circle class="cls-6" cx="170.63" cy="139.79" r="1.26"/><circle class="cls-6" cx="173.13" cy="139.2" r="1.26"/><circle class="cls-6" cx="175.61" cy="138.65" r="1.26"/><circle class="cls-6" cx="178.09" cy="138.01" r="1.26"/><circle class="cls-6" cx="180.55" cy="137.37" r="1.26"/><circle class="cls-6" cx="182.99" cy="136.8" r="1.26"/><circle class="cls-6" cx="185.44" cy="136.11" r="1.26"/><circle class="cls-6" cx="187.94" cy="135.37" r="1.26"/><circle class="cls-6" cx="190.33" cy="134.79" r="1.26"/><circle class="cls-6" cx="192.85" cy="134.16" r="1.26"/><circle class="cls-6" cx="195.35" cy="133.58" r="1.26"/><circle class="cls-6" cx="197.85" cy="132.99" r="1.26"/><circle class="cls-6" cx="200.33" cy="132.44" r="1.26"/><circle class="cls-6" cx="202.82" cy="131.8" r="1.26"/><circle class="cls-6" cx="205.27" cy="131.16" r="1.26"/><circle class="cls-6" cx="207.72" cy="130.59" r="1.26"/><circle class="cls-6" cx="210.2" cy="129.79" r="1.26"/><path class="cls-7" d="M176.92,95.62a126.84,126.84,0,0,1-13.45,4.21,124.29,124.29,0,0,1-12.42,2.48l2.85-9.59a23.47,23.47,0,0,0,7.55-.45,23.86,23.86,0,0,0,8.37-3.67Z"/><path class="cls-7" d="M188.77,107.46l.33,1.26a121.57,121.57,0,0,1-21.14,7.6,121.8,121.8,0,0,1-22,3.56l2.7-9.57a68.28,68.28,0,0,0,34.19-8.84l1.2,1.18Z"/><path class="cls-7" d="M202.63,121.6A139.32,139.32,0,0,1,173.37,133,139.51,139.51,0,0,1,141,137.54l2.67-9.55a137.57,137.57,0,0,0,27-4.26,137.66,137.66,0,0,0,25-9.2Z"/><line class="cls-4" x1="35.21" y1="285.41" x2="74.96" y2="285.41"/><line class="cls-4" x1="90.19" y1="285.45" x2="207.36" y2="285.45"/><line class="cls-4" x1="223.43" y1="285.57" x2="246.7" y2="285.57"/><line class="cls-4" x1="262.3" y1="285.3" x2="281.75" y2="285.3"/><line class="cls-4" x1="297.73" y1="285.6" x2="317.19" y2="285.6"/></svg>