<svg id="Layer_1" data-name="Layer 1" xmlns="http://www.w3.org/2000/svg" viewBox="0 0 351.16 293.04"><defs><style>.cls-1,.cls-2,.cls-7{fill:#c4cbe0;}.cls-1{opacity:0.25;}.cls-3,.cls-9{fill:#fff;}.cls-4{fill:none;}.cls-4,.cls-5,.cls-6,.cls-7,.cls-8,.cls-9{stroke:#3e6be0;stroke-linecap:round;stroke-linejoin:round;}.cls-5,.cls-6,.cls-8{fill:#3e6be0;}.cls-5{opacity:0.4;}.cls-6{opacity:0.3;}.cls-10{fill:#ffd6d7;}.cls-11{fill:#ff5960;}</style></defs><path class="cls-1" d="M350.58,247a175.11,175.11,0,0,1-2.45,29.25H318.07A145,145,0,1,0,31,247a146,146,0,0,0,2.95,29.25H3.87A174.59,174.59,0,1,1,350.58,247Z"/><path class="cls-2" d="M321,247a146,146,0,0,1-2.95,29.25H33.93A145,145,0,1,1,321,247Z"/><path class="cls-3" d="M263.57,271a15.08,15.08,0,0,1-1.06,5.6H146.73a18.46,18.46,0,0,1-1.78-8,18.73,18.73,0,0,1,18.73-18.73,17,17,0,0,1,1.75.09,25.2,25.2,0,0,1,50-6.23,16.34,16.34,0,0,1,26.7,12.63c0,.18,0,.37,0,.55a15,15,0,0,1,6.11-1.28A15.33,15.33,0,0,1,263.57,271Z"/><path class="cls-3" d="M137.62,209.58c0,5.83-12.38,3.41-16.48,3.41H66.49a11.27,11.27,0,0,1-1.09-4.85,11.4,11.4,0,0,1,11.41-11.4,9.28,9.28,0,0,1,1.06.06,17.14,17.14,0,0,1-.1-1.76,15.34,15.34,0,0,1,30.55-2,9.95,9.95,0,0,1,16.25,7.69V201a9.08,9.08,0,0,1,3.72-.78A9.33,9.33,0,0,1,137.62,209.58Z"/><circle class="cls-4" cx="141.69" cy="255.47" r="2.95"/><circle class="cls-4" cx="284.27" cy="253.99" r="3.37"/><circle class="cls-4" cx="125.89" cy="181.08" r="2.42"/><circle class="cls-4" cx="61.32" cy="96.74" r="3"/><circle class="cls-4" cx="84.29" cy="47.47" r="2"/><circle class="cls-4" cx="231.75" cy="37.82" r="2.33"/><circle class="cls-4" cx="179.59" cy="248.67" r="1.08"/><line class="cls-4" x1="35.63" y1="276.99" x2="75.39" y2="276.99"/><line class="cls-4" x1="90.62" y1="277.03" x2="207.78" y2="277.03"/><line class="cls-4" x1="223.86" y1="277.15" x2="247.12" y2="277.15"/><line class="cls-4" x1="262.72" y1="276.88" x2="282.18" y2="276.88"/><line class="cls-4" x1="298.16" y1="277.18" x2="317.61" y2="277.18"/><line class="cls-4" x1="96.62" y1="236.49" x2="103.86" y2="236.49"/><line class="cls-4" x1="100.24" y1="232.87" x2="100.24" y2="240.11"/><line class="cls-4" x1="45.81" y1="172.06" x2="53.05" y2="172.06"/><line class="cls-4" x1="49.43" y1="168.44" x2="49.43" y2="175.68"/><line class="cls-4" x1="248.32" y1="157.14" x2="255.56" y2="157.14"/><line class="cls-4" x1="251.94" y1="153.52" x2="251.94" y2="160.76"/><path class="cls-5" d="M228.79,211.38c-5.24-16.13-13.77-32.32-24.9-45.1A63.37,63.37,0,0,0,191.26,155c-2.14-1.42-12.16-8.08-14.68-6.27a1.63,1.63,0,0,0-.44.65,34.73,34.73,0,0,0-2.78,13.38c-.12,5.53.12,13.33,2.63,18.35,0,0-5-9.64-9-5.39s-9,36.74,43,53.16C210.07,228.87,236.21,237.21,228.79,211.38Z"/><ellipse class="cls-4" cx="226.3" cy="220.91" rx="34.97" ry="28.86" transform="translate(-3.43 438.25) rotate(-87.72)"/><path class="cls-6" d="M230.41,216a123.74,123.74,0,0,1,26.12-36.55,59.34,59.34,0,0,1,27.76-14.61A1.18,1.18,0,0,1,286,166c1.92,9.92-.14,19-4,28.15a18.8,18.8,0,0,0,3.07-3,4.68,4.68,0,0,1,3.9-1.68,3.85,3.85,0,0,1,2.74,2.65c2.66,7.71-2.16,17.29-7,23-7,8.27-17.27,13.18-27.49,16.22a112.24,112.24,0,0,1-11.73,2.77S220.62,238.73,230.41,216Z"/><path class="cls-6" d="M222.7,216.82c-5.81-15.39-14.82-30.69-26.2-42.56a61.36,61.36,0,0,0-12.75-10.36c-2.14-1.28-12.16-7.27-14.52-5.4a1.55,1.55,0,0,0-.4.65,33.52,33.52,0,0,0-2.07,13.09c.13,5.36.73,12.92,3.39,17.66,0,0-5.26-9.11-8.94-4.8s-7.06,36,44.16,49.53C205.37,234.63,231.09,241.5,222.7,216.82Z"/><path class="cls-7" d="M225,252.53c1.36.6.31,11.32.07,12.82a16.29,16.29,0,0,1-2.81,7.31,9,9,0,0,1-6.67,3.37,31.64,31.64,0,0,1-9.25-.83,14.16,14.16,0,0,1-5-1.82c-2.93-2.14-1.39-6.14,1.22-7.83.29-.19,3.49-1.82,3.51-1.3l-.73-20.41Z"/><path class="cls-7" d="M226.38,252.47c-1.4.49-1.21,11.26-1.09,12.77.3,3.56,1.24,8.19,4.38,10,3.38,2,8.77,1.92,12.55,1.6,3.95-.33,9.84-2.1,7.29-7.19a7.81,7.81,0,0,0-2.23-2.71c-.33-.25-2.9-1.68-2.94-1.31l2.35-20.28Z"/><path class="cls-7" d="M245.57,184.79a5.18,5.18,0,0,1,1,.33c3.11,1.44,4.92,5.72,7,8.27a102.22,102.22,0,0,1,8.79,12.74c5.23,9.15,9.22,20.89,7.11,31.56-.68,3.47-2.55,6.87-5.64,8.57a10.73,10.73,0,0,1-8.87.4c-4.28-1.63-7.4-4.64-6.76-9.43,1-7.35.79-12.19-1.88-19.4a87.81,87.81,0,0,0-6.68-15.06,32.21,32.21,0,0,1-3.76-7.54,8.6,8.6,0,0,1,.45-6.39A9.19,9.19,0,0,1,245.57,184.79Z"/><path class="cls-7" d="M209.08,186.58a4.89,4.89,0,0,0-1,.26c-3.21,1.18-5.36,5.3-7.59,7.69a102.33,102.33,0,0,0-9.78,12c-5.94,8.71-10.85,20.1-9.6,30.9.41,3.51,2,7.05,5,9a10.72,10.72,0,0,0,8.81,1.11c4.39-1.29,7.75-4,7.48-8.87-.4-7.41.18-12.21,3.42-19.19,2.32-5,4.65-10,7.85-14.47a32.1,32.1,0,0,0,4.35-7.23,8.56,8.56,0,0,0,.06-6.41A9.19,9.19,0,0,0,209.08,186.58Z"/><path class="cls-8" d="M250,201l-46-1.83a31.57,31.57,0,0,1,9.2-9l28.38,1.13A31.54,31.54,0,0,1,250,201Z"/><path class="cls-9" d="M241.56,191.28l-28.38-1.13a24.53,24.53,0,0,1,28.38,1.13Z"/><path class="cls-8" d="M254.94,217.83l-57.21-2.28a39.82,39.82,0,0,1,2.49-9.29l53,2.1A39.88,39.88,0,0,1,254.94,217.83Z"/><path class="cls-9" d="M253.19,208.36l-53-2.1a37.4,37.4,0,0,1,3.76-7.09L250,201A36.75,36.75,0,0,1,253.19,208.36Z"/><path class="cls-8" d="M254.74,225.56a41,41,0,0,1-2.2,9.3l-53.78-2.14a40.9,40.9,0,0,1-1.44-9.44Z"/><path class="cls-9" d="M208.21,248.85l33.64,1.34a24.86,24.86,0,0,1-33.64-1.34Z"/><path class="cls-9" d="M252.54,234.86a38.42,38.42,0,0,1-2.94,6.24l-48.4-1.92a39.53,39.53,0,0,1-2.44-6.46Z"/><path class="cls-9" d="M255,222.28c0,1.11-.13,2.2-.25,3.28l-57.42-2.28c0-1.09,0-2.18,0-3.29a42.82,42.82,0,0,1,.41-4.44l57.21,2.28A41.18,41.18,0,0,1,255,222.28Z"/><path class="cls-8" d="M249.6,241.1a33.17,33.17,0,0,1-7.75,9.09l-33.64-1.34a33,33,0,0,1-7-9.67Z"/><path class="cls-9" d="M228.77,192.33l-5.23-1.39a36.85,36.85,0,0,1-26.16-45.07l3.19-12a39.77,39.77,0,0,1,50.12-27.8h0a41.92,41.92,0,0,1,28.19,50.82l-2,7.55A39.32,39.32,0,0,1,228.77,192.33Z"/><path class="cls-7" d="M278.66,134.59c-4.32-1.45-8.8-3.14-13.16-3.54-5.13-.46-10.21,1-14.75,3.32-5,2.47-11.34.54-15.29-3.09-3.78-3.49-5.37-8.68-9.36-12.19a31.19,31.19,0,0,0-11.56-6.38,39.68,39.68,0,0,1,36.15-6.65,41.83,41.83,0,0,1,28,28.53Z"/><path class="cls-9" d="M244.6,102.55h9.69a3.36,3.36,0,0,1,3.36,3.36V107a0,0,0,0,1,0,0H241.24a0,0,0,0,1,0,0v-1.06A3.36,3.36,0,0,1,244.6,102.55Z" transform="matrix(0.97, 0.26, -0.26, 0.97, 35.24, -60.51)"/><path class="cls-9" d="M247.11,101.86s3.17-9.5,8.79-11.59c0,0-5.25,12.53-3,13.13Z"/><circle class="cls-10" cx="257.46" cy="86.27" r="6.01"/><circle class="cls-11" cx="257.46" cy="86.27" r="4.26"/><circle class="cls-8" cx="222.97" cy="148.48" r="7.92"/><circle class="cls-8" cx="259.45" cy="158.17" r="7.92"/><circle class="cls-4" cx="219.02" cy="149.8" r="16.24"/><circle class="cls-4" cx="255.5" cy="159.48" r="16.24"/><line class="cls-4" x1="234.72" y1="153.96" x2="239.81" y2="155.31"/><line class="cls-4" x1="203.33" y1="145.63" x2="199.81" y2="137.12"/><line class="cls-4" x1="271.19" y1="163.65" x2="278.28" y2="157.96"/><rect class="cls-9" x="70.31" y="118.21" width="136.5" height="145.55" rx="12.39"/><ellipse class="cls-7" cx="113.23" cy="153.88" rx="7.38" ry="10.51"/><path class="cls-7" d="M94.27,182.53c3.28-8.59,7.09-10.9,12-12.64s3.52-6.65,3.52-6.65a5.81,5.81,0,0,0,7.27-.29s-1.4,4.92,3.52,6.66,8.73,4,12,12.63"/><ellipse class="cls-7" cx="163.62" cy="153.88" rx="7.38" ry="10.51"/><path class="cls-7" d="M144.65,182.53c3.28-8.59,7.09-10.9,12-12.64s3.52-6.65,3.52-6.65a5.81,5.81,0,0,0,7.27-.29s-1.4,4.92,3.52,6.66,8.73,4,12,12.63"/><ellipse class="cls-7" cx="139.6" cy="151.08" rx="7.88" ry="11.22"/><path class="cls-7" d="M119.36,182.85c3.5-9.69,7.56-12.3,12.82-14.26s3.76-7.5,3.76-7.5a5.92,5.92,0,0,0,7.75-.33s-1.49,5.55,3.76,7.51,9.32,4.57,12.82,14.26"/><rect class="cls-7" x="90.98" y="204.19" width="97.5" height="8.62" rx="4.31"/><rect class="cls-7" x="90.98" y="229.4" width="97.5" height="8.62" rx="4.31"/><line class="cls-9" x1="226.26" y1="175.21" x2="235.53" y2="178.65"/></svg>