<svg id="Layer_1" data-name="Layer 1" xmlns="http://www.w3.org/2000/svg" viewBox="0 0 351.16 293.04"><defs><style>.cls-1,.cls-2,.cls-6{fill:#c4cbe0;}.cls-1{opacity:0.25;}.cls-3,.cls-8{fill:#fff;}.cls-4{fill:none;}.cls-4,.cls-5,.cls-6,.cls-7,.cls-8{stroke:#3e6be0;stroke-linecap:round;stroke-linejoin:round;}.cls-5,.cls-7{fill:#3e6be0;}.cls-5{opacity:0.4;}.cls-9{fill:#ffd9d9;}.cls-10{fill:#ff6766;}</style></defs><path class="cls-1" d="M352.17,259a175.11,175.11,0,0,1-2.45,29.25H319.66A145,145,0,1,0,32.57,259a146,146,0,0,0,3,29.25H5.46A174.59,174.59,0,1,1,352.17,259Z"/><path class="cls-2" d="M322.61,258a146,146,0,0,1-2.95,29.25H35.52A145,145,0,1,1,322.61,258Z"/><path class="cls-3" d="M265.16,282.62a15.08,15.08,0,0,1-1.06,5.6H148.32a18.46,18.46,0,0,1-1.78-8,18.73,18.73,0,0,1,18.73-18.73,17,17,0,0,1,1.75.09,25.2,25.2,0,0,1,50-6.23A16.34,16.34,0,0,1,243.73,268c0,.18,0,.37,0,.55a15,15,0,0,1,6.11-1.28A15.33,15.33,0,0,1,265.16,282.62Z"/><path class="cls-3" d="M139.21,221.65c0,5.83-12.37,3.4-16.48,3.4H68.08A11.18,11.18,0,0,1,67,220.21,11.41,11.41,0,0,1,78.4,208.8a9.59,9.59,0,0,1,1.07.06,14.59,14.59,0,0,1-.11-1.76,15.34,15.34,0,0,1,30.55-2,9.95,9.95,0,0,1,16.26,7.69c0,.11,0,.22,0,.33a9.32,9.32,0,0,1,13.05,8.56Z"/><circle class="cls-4" cx="134.28" cy="266.55" r="3.09"/><circle class="cls-4" cx="283.55" cy="265" r="3.53"/><line class="cls-4" x1="98.21" y1="248.55" x2="105.45" y2="248.55"/><line class="cls-4" x1="101.83" y1="244.93" x2="101.83" y2="252.17"/><line class="cls-4" x1="47.4" y1="184.12" x2="54.64" y2="184.12"/><line class="cls-4" x1="51.02" y1="180.5" x2="51.02" y2="187.74"/><line class="cls-4" x1="249.92" y1="135.95" x2="257.16" y2="135.95"/><line class="cls-4" x1="253.54" y1="132.33" x2="253.54" y2="139.57"/><line class="cls-4" x1="35.71" y1="289.05" x2="75.46" y2="289.05"/><line class="cls-4" x1="90.69" y1="289.08" x2="207.86" y2="289.08"/><line class="cls-4" x1="223.93" y1="289.2" x2="247.2" y2="289.2"/><line class="cls-4" x1="262.8" y1="288.93" x2="282.26" y2="288.93"/><line class="cls-4" x1="298.23" y1="289.24" x2="317.69" y2="289.24"/><ellipse class="cls-4" cx="181.16" cy="230.97" rx="38.38" ry="46.51"/><path class="cls-5" d="M186.36,224.26c7.69-18.14,19-35.88,32.78-50a78.91,78.91,0,0,1,36.11-20.88,1.56,1.56,0,0,1,2.31,1.46c3.08,13.09.82,25.29-3.81,37.62,1.59-1.08,2.63-2.71,3.92-4.11s3.15-2.72,5.1-2.45a5.14,5.14,0,0,1,3.78,3.38c3.94,10.1-1.95,23.09-8.11,31-8.89,11.36-22.26,18.42-35.67,23a145.53,145.53,0,0,1-15.45,4.29S174.55,255,186.36,224.26Z"/><path class="cls-5" d="M176.16,225.72c-8.54-20.14-21.32-40-37.07-55.17a81.59,81.59,0,0,0-17.5-13.09c-2.91-1.59-16.54-9-19.57-6.41a1.92,1.92,0,0,0-.5.89,44.68,44.68,0,0,0-2.06,17.5c.45,7.12,1.65,17.12,5.43,23.29,0,0-7.47-11.83-12.14-5.91s-7.47,48.24,61.31,63.49C154.06,250.31,188.61,258.09,176.16,225.72Z"/><path class="cls-6" d="M204.85,182a7,7,0,0,1,1.3.39c4.2,1.75,6.84,7.33,9.68,10.62a137.31,137.31,0,0,1,12.36,16.46c7.44,11.89,13.36,27.28,11.12,41.57-.73,4.64-3,9.26-7.05,11.69a14.26,14.26,0,0,1-11.76,1c-5.77-1.94-10.08-5.77-9.48-12.18.93-9.82.41-16.24-3.53-25.68-2.81-6.75-5.65-13.54-9.67-19.65-2-3.09-4.25-6.29-5.4-9.83a11.4,11.4,0,0,1,.26-8.52C194.65,183.87,200.44,181,204.85,182Z"/><path class="cls-6" d="M156.46,186.26a6.88,6.88,0,0,0-1.29.39c-4.21,1.75-6.85,7.33-9.68,10.62a134.71,134.71,0,0,0-12.36,16.46C125.69,225.62,119.76,241,122,255.3c.73,4.64,3,9.26,7.05,11.68a14.25,14.25,0,0,0,11.77,1c5.77-1.94,10.08-5.77,9.47-12.18-.92-9.82-.4-16.24,3.54-25.68,2.81-6.75,5.64-13.55,9.66-19.65,2-3.09,4.25-6.29,5.4-9.84a11.38,11.38,0,0,0-.26-8.51C166.67,188.18,160.88,185.35,156.46,186.26Z"/><path class="cls-7" d="M211.61,203.26H150.35a41.66,41.66,0,0,1,11.74-12.47h37.77A41.82,41.82,0,0,1,211.61,203.26Z"/><path class="cls-8" d="M199.86,190.79H162.09a32.63,32.63,0,0,1,37.77,0Z"/><path class="cls-7" d="M219.06,225.36H142.9a53.35,53.35,0,0,1,2.83-12.49h70.5A53.86,53.86,0,0,1,219.06,225.36Z"/><path class="cls-8" d="M216.23,212.87h-70.5a48.43,48.43,0,0,1,4.62-9.61h61.26A49.56,49.56,0,0,1,216.23,212.87Z"/><path class="cls-7" d="M219.19,235.65a54.77,54.77,0,0,1-2.42,12.47H145.19a54.24,54.24,0,0,1-2.43-12.47Z"/><path class="cls-8" d="M158.58,269.06h44.79a33.06,33.06,0,0,1-44.79,0Z"/><path class="cls-8" d="M216.77,248.12a51.07,51.07,0,0,1-3.59,8.46H148.77a50.2,50.2,0,0,1-3.58-8.46Z"/><path class="cls-8" d="M219.36,231.28c0,1.47-.06,2.93-.17,4.37H142.76c-.11-1.44-.17-2.9-.17-4.37a57.63,57.63,0,0,1,.31-5.92h76.16A57.65,57.65,0,0,1,219.36,231.28Z"/><path class="cls-7" d="M213.18,256.58a44.07,44.07,0,0,1-9.81,12.48H158.58a44.25,44.25,0,0,1-9.81-12.48Z"/><rect class="cls-7" x="117.39" y="209.16" width="127.38" height="71.33" rx="3.91"/><path class="cls-6" d="M233.44,290.43H129.12a11.47,11.47,0,0,1-10.68-7.27h0a2,2,0,0,1,1.82-2.67h122a2,2,0,0,1,1.82,2.67h0A11.47,11.47,0,0,1,233.44,290.43Z"/><circle class="cls-8" cx="181.08" cy="244.82" r="19.67"/><line class="cls-4" x1="183.48" y1="237.84" x2="176.84" y2="251.8"/><polyline class="cls-4" points="174.18 240.5 167.64 243.94 174.18 247.37"/><polyline class="cls-4" points="187.99 241.13 194.53 244.56 187.99 248"/><circle class="cls-8" cx="179.35" cy="167.47" r="4.71"/><path class="cls-8" d="M185.38,192.22l-6.68.24a45.5,45.5,0,0,1-47.09-43.85l-.55-15.35a49.1,49.1,0,0,1,49.22-50.84h0a51.74,51.74,0,0,1,51.55,49.9l.34,9.64A48.56,48.56,0,0,1,185.38,192.22Z"/><path class="cls-6" d="M223.57,106.08c-5.62-.16-11.53-.55-16.82.55-6.23,1.29-11.68,4.9-16.23,9.22-5,4.7-13.2,4.71-19.17,1.84-5.73-2.77-9.46-8.33-15.43-11a38.36,38.36,0,0,0-16-3.39,49,49,0,0,1,40.32-20.85A51.56,51.56,0,0,1,216.1,97,50.58,50.58,0,0,1,223.57,106.08Z"/><path class="cls-8" d="M172.82,80.55h11a5.1,5.1,0,0,1,5.1,5.1v0a.36.36,0,0,1-.36.36H169a.36.36,0,0,1-.36-.36v-.9a4.2,4.2,0,0,1,4.2-4.2Z" transform="translate(-2.86 6.43) rotate(-2.04)"/><path class="cls-8" d="M175,80.31c.11-2,.86-11.58,5.56-15.93a.34.34,0,0,1,.57.27c-.26,2.95-1,12.93.5,15.27a.34.34,0,0,1-.26.54l-6,.21A.34.34,0,0,1,175,80.31Z"/><circle class="cls-9" cx="181.58" cy="58.55" r="7.42"/><circle class="cls-10" cx="181.58" cy="58.55" r="5.25"/><circle class="cls-7" cx="158.12" cy="150.27" r="9.78"/><circle class="cls-7" cx="204.69" cy="148.61" r="9.78"/><circle class="cls-4" cx="158.58" cy="145.47" r="20.05"/><circle class="cls-4" cx="205.15" cy="143.81" r="20.05"/><line class="cls-4" x1="178.62" y1="144.75" x2="185.12" y2="144.52"/><line class="cls-4" x1="138.54" y1="146.18" x2="131.34" y2="137.4"/><line class="cls-4" x1="225.19" y1="143.09" x2="231.51" y2="133.82"/><path class="cls-4" d="M176.67,174.43a6.3,6.3,0,0,1,4.57-2.53,6.15,6.15,0,0,1,5.33,2.53"/></svg>