<svg id="Layer_1" data-name="Layer 1" xmlns="http://www.w3.org/2000/svg" viewBox="0 0 351.16 293.04"><defs><style>.cls-1,.cls-12,.cls-2{fill:#c4cbe0;}.cls-1{opacity:0.25;}.cls-13,.cls-3,.cls-8{fill:#fff;}.cls-4{fill:none;}.cls-11,.cls-12,.cls-13,.cls-4,.cls-5,.cls-6,.cls-7,.cls-8{stroke:#3e6be0;stroke-linecap:round;stroke-linejoin:round;}.cls-5,.cls-7{fill:#3e6be6;}.cls-5{opacity:0.3;}.cls-6{fill:#cad1e6;}.cls-9{fill:#ffc4c4;}.cls-10{fill:#ff6766;}.cls-11{fill:#3e6be0;}.cls-13{stroke-width:4px;}</style></defs><path class="cls-1" d="M350,257.2a175.11,175.11,0,0,1-2.45,29.25H317.46A145,145,0,1,0,30.37,257.2a146,146,0,0,0,2.95,29.25H3.26A174.59,174.59,0,1,1,350,257.2Z"/><path class="cls-2" d="M320.41,257.2a146,146,0,0,1-3,29.25H33.32A145,145,0,1,1,320.41,257.2Z"/><path class="cls-3" d="M263,281.27a15.08,15.08,0,0,1-1.06,5.6H146.12a18.46,18.46,0,0,1-1.78-8,18.73,18.73,0,0,1,18.73-18.73,17,17,0,0,1,1.75.09,25.2,25.2,0,0,1,50-6.23,16.34,16.34,0,0,1,26.7,12.63c0,.18,0,.37,0,.55a15,15,0,0,1,6.11-1.28A15.33,15.33,0,0,1,263,281.27Z"/><path class="cls-3" d="M137,219.83c0,5.83-12.38,3.41-16.49,3.41H65.88a11.26,11.26,0,0,1-1.08-4.85A11.4,11.4,0,0,1,76.2,207a9.58,9.58,0,0,1,1.07,0,14.59,14.59,0,0,1-.11-1.76,15.34,15.34,0,0,1,30.55-2A10,10,0,0,1,124,210.94c0,.11,0,.22,0,.33a9.25,9.25,0,0,1,3.72-.78A9.34,9.34,0,0,1,137,219.83Z"/><circle class="cls-4" cx="141.08" cy="265.72" r="2.95"/><circle class="cls-4" cx="283.66" cy="264.24" r="3.37"/><circle class="cls-4" cx="125.29" cy="191.32" r="2.42"/><circle class="cls-4" cx="60.72" cy="106.98" r="3"/><circle class="cls-4" cx="231.14" cy="48.07" r="2.33"/><circle class="cls-4" cx="178.99" cy="258.91" r="1.08"/><line class="cls-4" x1="35.03" y1="287.24" x2="74.78" y2="287.24"/><line class="cls-4" x1="90.01" y1="287.27" x2="207.18" y2="287.27"/><line class="cls-4" x1="223.25" y1="287.39" x2="246.52" y2="287.39"/><line class="cls-4" x1="262.12" y1="287.12" x2="281.58" y2="287.12"/><line class="cls-4" x1="297.55" y1="287.42" x2="317.01" y2="287.42"/><line class="cls-4" x1="96.01" y1="246.73" x2="103.25" y2="246.73"/><line class="cls-4" x1="99.63" y1="243.11" x2="99.63" y2="250.35"/><line class="cls-4" x1="45.2" y1="182.31" x2="52.44" y2="182.31"/><line class="cls-4" x1="48.82" y1="178.69" x2="48.82" y2="185.93"/><line class="cls-4" x1="247.72" y1="167.38" x2="254.96" y2="167.38"/><line class="cls-4" x1="251.34" y1="163.76" x2="251.34" y2="171"/><ellipse class="cls-4" cx="168.77" cy="229.05" rx="26.41" ry="32"/><path class="cls-5" d="M172.35,224.43a113.21,113.21,0,0,1,22.55-34.37,54.29,54.29,0,0,1,24.85-14.36,1.44,1.44,0,0,1,1,0,1.4,1.4,0,0,1,.58,1c2.13,9,.57,17.4-2.62,25.88a16.86,16.86,0,0,0,2.7-2.83,4.29,4.29,0,0,1,3.5-1.68,3.54,3.54,0,0,1,2.61,2.32c2.71,7-1.34,15.89-5.58,21.3-6.12,7.81-15.32,12.67-24.54,15.83a100.36,100.36,0,0,1-10.64,2.95S164.22,245.55,172.35,224.43Z"/><path class="cls-5" d="M165.33,225.44c-5.88-13.86-14.67-27.52-25.51-38a56.34,56.34,0,0,0-12-9c-2-1.09-11.37-6.2-13.46-4.4a1.23,1.23,0,0,0-.34.61,30.5,30.5,0,0,0-1.42,12c.31,4.9,1.13,11.78,3.74,16,0,0-5.14-8.14-8.35-4.07s-5.14,33.19,42.18,43.68C150.13,242.35,173.89,247.71,165.33,225.44Z"/><path class="cls-6" d="M168.72,258c1.27.5.7,10.35.53,11.73a14.74,14.74,0,0,1-2.3,6.79,8.2,8.2,0,0,1-6,3.32,29.14,29.14,0,0,1-8.49-.42,13,13,0,0,1-4.65-1.49c-2.76-1.84-1.5-5.56.82-7.2.27-.18,3.13-1.79,3.17-1.31l-1.41-18.64Z"/><path class="cls-6" d="M170,257.9c-1.27.5-.7,10.34-.53,11.72.4,3.24,1.43,7.44,4.36,9,3.17,1.69,8.09,1.44,11.54,1s8.92-2.28,6.4-6.84a7.12,7.12,0,0,0-2.13-2.4c-.32-.21-2.72-1.43-2.74-1.09l1.41-18.63Z"/><path class="cls-6" d="M180.13,205.78a4.88,4.88,0,0,1,.09-.93c.61-3.07,4-5.6,5.86-8a93.68,93.68,0,0,1,9.43-10.56c7-6.63,16.6-12.7,26.55-13.12,3.23-.14,6.65.79,8.83,3.18,6.41,7-1.41,13.75-7.37,17.4-8.1,5-17,7.33-24.31,13.71C194.15,211.94,180.07,217.51,180.13,205.78Z"/><path class="cls-6" d="M151.78,198.26a6.09,6.09,0,0,0-.89.2c-2.9.9-4.71,3.79-6.66,5.48a75.9,75.9,0,0,0-8.51,8.5c-5.11,6.13-9.19,14.08-7.65,21.46a8.48,8.48,0,0,0,4.85,6,12.75,12.75,0,0,0,8.09.52c4-1,6.94-3,6.52-6.29-.63-5.07-.27-8.38,2.43-13.26a56.71,56.71,0,0,1,6.65-10.14,21.1,21.1,0,0,0,3.72-5.07,4.56,4.56,0,0,0-.18-4.4C158.8,199.25,154.81,197.79,151.78,198.26Z"/><path class="cls-7" d="M189.72,210H147.57a28.81,28.81,0,0,1,8.08-8.59h26A28.94,28.94,0,0,1,189.72,210Z"/><path class="cls-8" d="M181.64,201.4h-26a22.46,22.46,0,0,1,26,0Z"/><path class="cls-7" d="M194.84,225.19H142.45a36.32,36.32,0,0,1,1.94-8.59H192.9A37.33,37.33,0,0,1,194.84,225.19Z"/><path class="cls-8" d="M192.9,216.6H144.39a33.9,33.9,0,0,1,3.18-6.61h42.15A33.9,33.9,0,0,1,192.9,216.6Z"/><path class="cls-7" d="M194.93,232.27a37.27,37.27,0,0,1-1.66,8.58H144a37.27,37.27,0,0,1-1.67-8.58Z"/><path class="cls-8" d="M153.24,255.26h30.81a22.75,22.75,0,0,1-30.81,0Z"/><path class="cls-8" d="M193.27,240.85a34.73,34.73,0,0,1-2.47,5.82H146.48a35.55,35.55,0,0,1-2.46-5.82Z"/><path class="cls-8" d="M195.05,229.26c0,1,0,2-.12,3H142.35c-.08-1-.11-2-.11-3a39,39,0,0,1,.21-4.07h52.39A39,39,0,0,1,195.05,229.26Z"/><path class="cls-7" d="M190.8,246.67a30.33,30.33,0,0,1-6.75,8.59H153.24a30.54,30.54,0,0,1-6.76-8.59Z"/><path class="cls-8" d="M170,202.83h-5a33.72,33.72,0,0,1-33.72-33.71V157.73a36.39,36.39,0,0,1,37.8-36.35h0A38.35,38.35,0,0,1,206,159.7v7.15A36,36,0,0,1,170,202.83Z"/><path class="cls-6" d="M200.55,140.05c-4.16-.27-8.52-.71-12.47,0a25.44,25.44,0,0,0-12.27,6.4c-3.8,3.35-9.9,3.14-14.24.86-4.17-2.2-6.79-6.42-11.14-8.58a28.46,28.46,0,0,0-11.73-2.93,36.33,36.33,0,0,1,30.41-14.38,38.27,38.27,0,0,1,26.15,11.74A37.6,37.6,0,0,1,200.55,140.05Z"/><path class="cls-8" d="M163.76,119.58h7.89a3.56,3.56,0,0,1,3.56,3.56v.48a0,0,0,0,1,0,0h-15a0,0,0,0,1,0,0v-.48A3.56,3.56,0,0,1,163.76,119.58Z"/><path class="cls-8" d="M165,119.58s.58-9.14,5.06-12.32c0,0-1.7,12.32.44,12.32Z"/><circle class="cls-9" cx="170.45" cy="103.36" r="5.5"/><circle class="cls-10" cx="170.45" cy="103.36" r="3.89"/><circle class="cls-7" cx="151.37" cy="171.5" r="7.25"/><circle class="cls-7" cx="185.91" cy="171.5" r="7.25"/><circle class="cls-4" cx="151.37" cy="167.5" r="14.86"/><circle class="cls-4" cx="185.91" cy="167.5" r="14.86"/><line class="cls-4" x1="166.23" y1="167.5" x2="171.05" y2="167.5"/><line class="cls-4" x1="136.52" y1="167.5" x2="131.41" y2="160.8"/><line class="cls-4" x1="200.77" y1="167.5" x2="205.7" y2="160.8"/><path class="cls-4" d="M164.66,190.32a3.9,3.9,0,0,1,5.44,0"/><path class="cls-11" d="M128.7,214.12l-7.88,9.12-1.37-1.18a4.37,4.37,0,0,1-.25-6.41l2.34-2.34a4.38,4.38,0,0,1,5.93-.24Z"/><path class="cls-11" d="M154.34,244.9l-3.91-.33,4.1-4.53,1,3.38A1.16,1.16,0,0,1,154.34,244.9Z"/><polygon class="cls-12" points="154.53 240.04 150.43 244.57 145.29 244.15 145.03 243.93 152.98 234.87 154.53 240.04"/><polygon class="cls-11" points="152.98 234.87 145.03 243.93 124.24 226.16 128.35 221.34 132.06 216.98 152.94 234.74 152.98 234.87"/><polygon class="cls-12" points="132.06 216.98 128.35 221.34 124.24 226.16 120.82 223.24 128.7 214.12 132.06 216.98"/><line class="cls-4" x1="128.33" y1="221.32" x2="148.93" y2="238.92"/><ellipse class="cls-12" cx="136.86" cy="230.97" rx="10.47" ry="9.16"/><path class="cls-13" d="M253.13,147.49h6a3.93,3.93,0,0,1,3.93,3.92v52.28a3.94,3.94,0,0,1-3.93,3.93H221.31a3.94,3.94,0,0,1-3.94-3.93V151.41a3.93,3.93,0,0,1,3.94-3.92h8.1"/><rect class="cls-11" x="230.14" y="142.08" width="23.1" height="10.43" rx="3.61"/></svg>