<svg id="Layer_1" data-name="Layer 1" xmlns="http://www.w3.org/2000/svg" viewBox="0 0 351.16 293.04"><defs><style>.cls-1,.cls-2,.cls-8{fill:#c4cbe0;}.cls-1{opacity:0.25;}.cls-3,.cls-6{fill:#fff;}.cls-4,.cls-9{fill:none;}.cls-4,.cls-5,.cls-6,.cls-7,.cls-8{stroke:#3e6be0;}.cls-4,.cls-5,.cls-6,.cls-7,.cls-8,.cls-9{stroke-linecap:round;stroke-linejoin:round;}.cls-5,.cls-7{fill:#3e6be0;}.cls-7{opacity:0.4;}.cls-9{stroke:#f3a83b;}.cls-10{fill:#ffd9d9;}.cls-11{fill:#ff6766;}</style></defs><path class="cls-1" d="M349.59,260.22a175.11,175.11,0,0,1-2.45,29.25H317.08A145,145,0,1,0,30,260.22a146,146,0,0,0,2.95,29.25H2.88a174.59,174.59,0,1,1,346.71-29.25Z"/><path class="cls-2" d="M320,259.22a146,146,0,0,1-2.95,29.25H32.94A145,145,0,1,1,320,259.22Z"/><path class="cls-3" d="M262.58,283.82a15.08,15.08,0,0,1-1.06,5.6H145.74a18.46,18.46,0,0,1-1.78-8,18.73,18.73,0,0,1,18.73-18.73,17,17,0,0,1,1.75.09,25.2,25.2,0,0,1,50-6.23,16.34,16.34,0,0,1,26.7,12.63c0,.18,0,.37,0,.55a15,15,0,0,1,6.11-1.28A15.33,15.33,0,0,1,262.58,283.82Z"/><path class="cls-3" d="M136.64,222.84c0,5.83-12.38,3.41-16.49,3.41H65.5a11.25,11.25,0,0,1-1.08-4.84A11.4,11.4,0,0,1,75.82,210a9.59,9.59,0,0,1,1.07.06,14.72,14.72,0,0,1-.11-1.76,15.34,15.34,0,0,1,30.55-2A10,10,0,0,1,123.59,214c0,.11,0,.23,0,.34a9.08,9.08,0,0,1,3.72-.78A9.34,9.34,0,0,1,136.64,222.84Z"/><circle class="cls-4" cx="131.7" cy="267.75" r="3.09"/><circle class="cls-4" cx="280.97" cy="266.2" r="3.53"/><line class="cls-4" x1="95.63" y1="249.75" x2="102.87" y2="249.75"/><line class="cls-4" x1="99.25" y1="246.13" x2="99.25" y2="253.37"/><line class="cls-4" x1="44.82" y1="185.32" x2="52.06" y2="185.32"/><line class="cls-4" x1="48.44" y1="181.7" x2="48.44" y2="188.94"/><line class="cls-4" x1="247.34" y1="137.15" x2="254.58" y2="137.15"/><line class="cls-4" x1="250.96" y1="133.53" x2="250.96" y2="140.77"/><line class="cls-4" x1="33.13" y1="290.25" x2="72.89" y2="290.25"/><line class="cls-4" x1="88.11" y1="290.28" x2="205.28" y2="290.28"/><line class="cls-4" x1="221.35" y1="290.4" x2="244.62" y2="290.4"/><line class="cls-4" x1="260.22" y1="290.13" x2="279.68" y2="290.13"/><line class="cls-4" x1="295.65" y1="290.43" x2="315.11" y2="290.43"/><rect class="cls-5" x="137.65" y="89" width="156.26" height="197.92" rx="5.88"/><rect class="cls-6" x="150.23" y="100.85" width="131.11" height="174.23" rx="5.06"/><rect class="cls-5" x="166.12" y="136.64" width="69.58" height="7.2" rx="3.6"/><circle class="cls-4" cx="257.12" cy="141.08" r="9.92"/><rect class="cls-5" x="167.1" y="169.9" width="69.58" height="7.2" rx="3.6"/><circle class="cls-4" cx="258.1" cy="174.34" r="9.92"/><rect class="cls-5" x="167.1" y="203.35" width="69.58" height="7.2" rx="3.6"/><circle class="cls-4" cx="258.1" cy="207.79" r="9.92"/><rect class="cls-5" x="167.1" y="237.75" width="69.58" height="7.2" rx="3.6"/><circle class="cls-4" cx="258.1" cy="242.19" r="9.92"/><path class="cls-7" d="M128.87,221.07a134.69,134.69,0,0,1,26.81-40.86,64.6,64.6,0,0,1,29.54-17.08,1.74,1.74,0,0,1,1.19,0,1.69,1.69,0,0,1,.7,1.21c2.52,10.71.67,20.69-3.12,30.78a20.51,20.51,0,0,0,3.21-3.37c1.08-1.18,2.58-2.22,4.17-2a4.2,4.2,0,0,1,3.09,2.76c3.22,8.27-1.6,18.89-6.63,25.32-7.28,9.29-18.21,15.07-29.18,18.82A120.09,120.09,0,0,1,146,240.14S119.21,246.18,128.87,221.07Z"/><path class="cls-7" d="M124,220.5c-7-16.47-17.44-32.71-30.33-45.12a66.78,66.78,0,0,0-14.31-10.71c-2.38-1.3-13.52-7.38-16-5.24a1.53,1.53,0,0,0-.41.72,36.57,36.57,0,0,0-1.69,14.32c.37,5.82,1.35,14,4.45,19.05,0,0-6.11-9.67-9.93-4.84s-6.11,39.46,50.15,51.93C105.91,240.61,134.16,247,124,220.5Z"/><path class="cls-8" d="M148.12,218.15c4.89.72,9.59-5.82,13.23-8.29,6.36-4.34,14.18-7.31,21.26-10.16,7.28-2.94,12.27-7.64,10.09-16.33s-5.12-51.22-22.26-43.51c-5.08,2.28.19,16.8,6.11,10.7-1.23,11.65,2.72,25.16,3.1,37-.39,2.75-45.6-.24-50.36,2.13,2.29,5.5,6.08,10.82,9.26,15.88C140.21,208.22,144.53,217.63,148.12,218.15Z"/><path class="cls-5" d="M65.72,177.59l13.87,48.72-7.28,2.11a18.39,18.39,0,0,1-23.13-13.91L46.35,200.9a18.37,18.37,0,0,1,12.83-21.39Z"/><path class="cls-5" d="M233,158.4l-10.16,13-6.5-24.87,14.22,4.22A4.85,4.85,0,0,1,233,158.4Z"/><polygon class="cls-8" points="216.37 146.55 222.87 171.42 209.53 188.52 208.14 188.92 194.62 140.06 216.37 146.55"/><polygon class="cls-5" points="194.62 140.06 208.14 188.92 97.74 221.03 90.26 195.47 83.53 172.36 194.07 139.91 194.62 140.06"/><polygon class="cls-8" points="83.53 172.36 90.26 195.47 97.74 221.03 79.59 226.31 65.72 177.59 83.53 172.36"/><line class="cls-9" x1="90.17" y1="195.5" x2="199.53" y2="163.65"/><path class="cls-8" d="M106,192.24a5.63,5.63,0,0,0-1.06.32c-3.44,1.43-5.6,6-7.91,8.69A109.49,109.49,0,0,0,87,214.71c-6.09,9.72-10.93,22.31-9.1,34,.59,3.79,2.47,7.57,5.77,9.56a11.67,11.67,0,0,0,9.62.82c4.72-1.59,8.24-4.73,7.75-10-.76-8-.33-13.29,2.89-21,2.3-5.52,4.62-11.08,7.9-16.07a35,35,0,0,0,4.42-8,9.33,9.33,0,0,0-.21-7A10,10,0,0,0,106,192.24Z"/><path class="cls-8" d="M126,261.93c1.45.59.81,12.1.61,13.71a17.68,17.68,0,0,1-2.63,7.95,9.36,9.36,0,0,1-6.84,3.88,32.24,32.24,0,0,1-9.7-.49,14.56,14.56,0,0,1-5.32-1.74c-3.16-2.16-1.71-6.51.94-8.42.3-.22,3.58-2.1,3.62-1.54l-1.61-21.8Z"/><path class="cls-8" d="M127.46,261.81c-1.45.59-.8,12.1-.6,13.71.46,3.79,1.63,8.7,5,10.54,3.62,2,9.24,1.68,13.19,1.18,4.12-.52,10.2-2.67,7.32-8a8.17,8.17,0,0,0-2.44-2.81c-.36-.25-3.1-1.67-3.13-1.27l1.61-21.8Z"/><path class="cls-5" d="M151.8,203H101.69a34.22,34.22,0,0,1,9.61-10.21h30.89A34.09,34.09,0,0,1,151.8,203Z"/><path class="cls-6" d="M142.19,192.82H111.3a26.7,26.7,0,0,1,30.89,0Z"/><path class="cls-5" d="M157.89,221.1H95.6a43.78,43.78,0,0,1,2.31-10.21h57.67A43.78,43.78,0,0,1,157.89,221.1Z"/><path class="cls-6" d="M155.58,210.89H97.91a40.17,40.17,0,0,1,3.78-7.86H151.8A40.17,40.17,0,0,1,155.58,210.89Z"/><path class="cls-5" d="M158,229.52a45.07,45.07,0,0,1-2,10.2H97.47a45.07,45.07,0,0,1-2-10.2Z"/><path class="cls-6" d="M108.43,256.84h36.63a27,27,0,0,1-36.63,0Z"/><path class="cls-6" d="M156,239.72a41.33,41.33,0,0,1-2.93,6.91H100.4a42.18,42.18,0,0,1-2.93-6.91Z"/><path class="cls-6" d="M158.14,225.94c0,1.21,0,2.4-.14,3.58H95.49c-.09-1.18-.14-2.37-.14-3.58a48.25,48.25,0,0,1,.25-4.84h62.29A45.46,45.46,0,0,1,158.14,225.94Z"/><path class="cls-5" d="M153.09,246.63a36.07,36.07,0,0,1-8,10.21H108.43a36.07,36.07,0,0,1-8-10.21Z"/><ellipse class="cls-8" cx="176.63" cy="149.47" rx="10.32" ry="7.84" transform="translate(-28.42 42.25) rotate(-12.63)"/><rect class="cls-5" x="184.84" y="81.7" width="61.88" height="28.36" rx="5.9"/><path class="cls-6" d="M131.16,202.56l-6.68.23A45.49,45.49,0,0,1,77.39,159l-.55-15.35a49.1,49.1,0,0,1,49.22-50.84h0a51.74,51.74,0,0,1,51.55,49.9l.35,9.64A48.57,48.57,0,0,1,131.16,202.56Z"/><path class="cls-8" d="M169.35,116.42c-5.62-.16-11.53-.55-16.82.55-6.23,1.29-11.68,4.9-16.23,9.22-5,4.7-13.2,4.71-19.17,1.84-5.73-2.77-9.46-8.33-15.43-11a38.36,38.36,0,0,0-16-3.39,49,49,0,0,1,40.32-20.85,51.56,51.56,0,0,1,35.82,14.57A50.58,50.58,0,0,1,169.35,116.42Z"/><path class="cls-6" d="M118.6,90.89h11a5.1,5.1,0,0,1,5.1,5.1v0a.36.36,0,0,1-.36.36H114.76a.36.36,0,0,1-.36-.36v-.9a4.2,4.2,0,0,1,4.2-4.2Z" transform="translate(-3.26 4.5) rotate(-2.04)"/><path class="cls-6" d="M120.74,90.65c.11-2,.86-11.58,5.56-15.93a.34.34,0,0,1,.57.27c-.26,3-1,12.93.5,15.27a.34.34,0,0,1-.26.54l-6,.21A.34.34,0,0,1,120.74,90.65Z"/><circle class="cls-10" cx="127.36" cy="68.89" r="7.42"/><circle class="cls-11" cx="127.36" cy="68.89" r="5.25"/><circle class="cls-5" cx="103.9" cy="160.61" r="9.78"/><circle class="cls-5" cx="150.47" cy="158.95" r="9.78"/><circle class="cls-4" cx="104.36" cy="155.81" r="20.05"/><circle class="cls-4" cx="150.94" cy="154.15" r="20.05"/><line class="cls-4" x1="124.4" y1="155.09" x2="130.9" y2="154.86"/><line class="cls-4" x1="84.33" y1="156.52" x2="77.12" y2="147.74"/><line class="cls-4" x1="170.97" y1="153.43" x2="177.29" y2="144.16"/><path class="cls-4" d="M122.45,184.77a6.3,6.3,0,0,1,4.57-2.53,6.15,6.15,0,0,1,5.33,2.53"/></svg>