<?xml version="1.0" encoding="utf-8"?>
<!-- Generator: Adobe Illustrator 26.0.1, SVG Export Plug-In . SVG Version: 6.00 Build 0)  -->
<svg version="1.1" id="Layer_1" xmlns="http://www.w3.org/2000/svg" xmlns:xlink="http://www.w3.org/1999/xlink" x="0px" y="0px"
	 viewBox="0 0 351.2 293" style="enable-background:new 0 0 351.2 293;" xml:space="preserve">
<style type="text/css">
	.st0{opacity:0.25;fill:#C4CBE0;enable-background:new    ;}
	.st1{fill:#C4CBE0;}
	.st2{fill:#FFFFFF;}
	.st3{fill:none;stroke:#3E6BE0;stroke-linecap:round;stroke-linejoin:round;}
	.st4{clip-path:url(#SVGID_00000079469673474108836760000004549713833862021512_);}
	.st5{opacity:0.3;fill:#3E6BE0;enable-background:new    ;}
	.st6{clip-path:url(#SVGID_00000182502470713430424570000003369475596243041956_);}
	.st7{fill:#3E6BE0;}
	.st8{fill:#C4CBE0;stroke:#3E6BE0;stroke-linecap:round;stroke-linejoin:round;}
	.st9{font-family:'ZohoPuvi-Bold';}
	.st10{font-size:10.54px;}
	.st11{font-size:7.93px;}
	.st12{fill:#3E6BE0;stroke:#3E6BE0;stroke-linecap:round;stroke-linejoin:round;}
	.st13{fill:#FFFFFF;stroke:#3E6BE0;stroke-linecap:round;stroke-linejoin:round;}
	.st14{fill:#FFDBDB;}
	.st15{fill:#FF6766;}
	.st16{fill:none;stroke:#3E6BE0;stroke-linecap:round;stroke-linejoin:round;stroke-miterlimit:10;}
</style>
<path class="st0" d="M350.5,257.1c0,9.8-0.8,19.6-2.5,29.2H318c16-78.5-34.7-155-113.1-171s-155,34.7-171,113.1
	c-1.9,9.4-2.9,19-2.9,28.7c0,9.8,1,19.6,2.9,29.2H3.8C-12.4,191.3,51.6,101.2,146.7,85S331.9,132.8,348,227.9
	C349.7,237.5,350.5,247.3,350.5,257.1z"/>
<path class="st1" d="M321,257.1c0,9.8-1,19.6-3,29.2H33.9c-15.9-78.5,34.9-155,113.4-170.8s155,34.9,170.8,113.4
	C320,238.2,321,247.7,321,257.1z"/>
<path class="st2" d="M263.5,281.2c0,1.9-0.4,3.8-1.1,5.6H146.7c-1.2-2.5-1.8-5.2-1.8-8c0-10.3,8.4-18.7,18.7-18.7l0,0
	c0.6,0,1.2,0,1.8,0.1c-1.4-13.8,8.7-26.2,22.5-27.6c13.4-1.4,25.5,8.1,27.5,21.4c7-5.7,17.3-4.7,23,2.3c2.4,2.9,3.7,6.6,3.7,10.4
	c0,0.2,0,0.4,0,0.5c1.9-0.9,4-1.3,6.1-1.3C256.6,265.8,263.5,272.7,263.5,281.2C263.5,281.2,263.5,281.2,263.5,281.2z"/>
<path class="st2" d="M137.6,219.8c0,5.8-12.4,3.4-16.5,3.4H66.4c-0.7-1.5-1.1-3.2-1.1-4.9c0-6.3,5.1-11.4,11.4-11.4c0,0,0,0,0,0
	c0.4,0,0.7,0,1.1,0.1c-0.1-0.6-0.1-1.2-0.1-1.8c0-8.5,6.9-15.3,15.3-15.3c7.7,0,14.2,5.7,15.2,13.3c4.3-3.5,10.6-2.8,14.1,1.5
	c1.4,1.7,2.2,3.9,2.2,6.2c0,0.1,0,0.2,0,0.3c4.7-2,10.2,0.2,12.2,4.9C137.3,217.3,137.5,218.5,137.6,219.8L137.6,219.8z"/>
<circle class="st3" cx="141.6" cy="265.6" r="3"/>
<circle class="st3" cx="284.2" cy="264.2" r="3.4"/>
<circle class="st3" cx="61.3" cy="106.9" r="3"/>
<circle class="st3" cx="84.2" cy="57.7" r="2"/>
<circle class="st3" cx="231.7" cy="48" r="2.3"/>
<circle class="st3" cx="179.5" cy="258.8" r="1.1"/>
<line class="st3" x1="35.6" y1="287.2" x2="75.3" y2="287.2"/>
<line class="st3" x1="90.6" y1="287.2" x2="207.7" y2="287.2"/>
<line class="st3" x1="223.8" y1="287.3" x2="247.1" y2="287.3"/>
<line class="st3" x1="262.7" y1="287" x2="282.1" y2="287"/>
<line class="st3" x1="298.1" y1="287.4" x2="317.5" y2="287.4"/>
<line class="st3" x1="96.6" y1="246.7" x2="103.8" y2="246.7"/>
<line class="st3" x1="100.2" y1="243" x2="100.2" y2="250.3"/>
<line class="st3" x1="45.8" y1="182.2" x2="53" y2="182.2"/>
<line class="st3" x1="49.4" y1="178.6" x2="49.4" y2="185.9"/>
<line class="st3" x1="248.3" y1="167.3" x2="255.5" y2="167.3"/>
<line class="st3" x1="251.9" y1="163.7" x2="251.9" y2="170.9"/>
<g>
	<defs>
		<rect id="SVGID_1_" x="110.5" y="206.1" width="131.2" height="65.8"/>
	</defs>
	<clipPath id="SVGID_00000178198616511215668410000012590268877804397712_">
		<use xlink:href="#SVGID_1_"  style="overflow:visible;"/>
	</clipPath>
	<g style="clip-path:url(#SVGID_00000178198616511215668410000012590268877804397712_);">
		<path class="st5" d="M179,261.1c5.8-13.8,14.1-26.4,24.4-37.2c7.4-7.5,16.7-12.9,26.9-15.6c0.6-0.3,1.3-0.1,1.6,0.5
			c0.1,0.2,0.1,0.4,0.1,0.6c2.3,9.8,0.6,18.8-2.9,28c1.1-0.9,2.1-1.9,2.9-3.1c0.9-1.2,2.3-1.9,3.8-1.8c1.3,0.3,2.4,1.2,2.8,2.5
			c2.9,7.5-1.4,17.2-6,23c-6.6,8.5-16.6,13.7-26.6,17.1c-3.8,1.3-7.6,2.3-11.5,3.2C194.7,278.5,170.2,284,179,261.1z"/>
		<path class="st5" d="M180.4,262.2c-6.4-15-15.9-29.8-27.6-41.1c-3.9-3.8-8.3-7.1-13-9.8c-2.2-1.2-12.3-6.7-14.6-4.8
			c-0.2,0.2-0.3,0.4-0.4,0.7c-1.4,4.2-1.9,8.6-1.5,13c0.3,5.3,1.2,12.8,4,17.4c0,0-5.6-8.8-9-4.4s-5.6,35.9,45.7,47.3
			C164,280.6,189.7,286.4,180.4,262.2z"/>
	</g>
</g>
<g>
	<defs>
		<rect id="SVGID_00000120553173365837503990000007728023529568890274_" x="119.7" y="228.3" width="117.4" height="41.7"/>
	</defs>
	<clipPath id="SVGID_00000121998880183353648940000010747477243107922111_">
		<use xlink:href="#SVGID_00000120553173365837503990000007728023529568890274_"  style="overflow:visible;"/>
	</clipPath>
	<g style="clip-path:url(#SVGID_00000121998880183353648940000010747477243107922111_);">
		<path class="st7" d="M200.7,242.1H155c2.2-3.7,5.2-6.8,8.7-9.3h28.1C195.4,235.2,198.4,238.4,200.7,242.1z"/>
		<path class="st2" d="M191.9,232.8h-28.1C172.2,226.8,183.5,226.8,191.9,232.8z"/>
		<path class="st7" d="M206.2,258.5h-56.7c0.3-3.2,1-6.3,2.1-9.3h52.5C205.2,252.2,205.9,255.3,206.2,258.5z"/>
		<path class="st2" d="M204.1,249.2h-52.5c0.9-2.5,2-4.9,3.4-7.2h45.6C202.1,244.3,203.2,246.7,204.1,249.2z"/>
		<path class="st7" d="M206.3,266.2c-0.2,3.2-0.8,6.3-1.8,9.3h-53.3c-1-3-1.6-6.1-1.8-9.3H206.3z"/>
		<path class="st2" d="M161.2,291.1h33.4C185.1,299.8,170.6,299.8,161.2,291.1z"/>
		<path class="st2" d="M204.5,275.5c-0.7,2.2-1.6,4.3-2.7,6.3h-48c-1.1-2-2-4.1-2.7-6.3H204.5z"/>
		<path class="st2" d="M206.4,262.9c0,1.1-0.1,2.2-0.1,3.3h-56.9c-0.1-1.1-0.1-2.2-0.1-3.3c0-1.5,0.1-2.9,0.2-4.4h56.7
			C206.4,260,206.4,261.5,206.4,262.9z"/>
		<path class="st7" d="M201.8,281.8c-1.9,3.5-4.3,6.7-7.3,9.3h-33.4c-3-2.6-5.5-5.8-7.3-9.3H201.8z"/>
	</g>
</g>
<path class="st8" d="M199.9,233c3.3,3,7.1,5.6,10.1,9c4,4.5,7.1,10.2,7,16.4c-0.4,14.6-20.1,16.7-26.9,8.9c-3.6-4.2-7.1-8.5-8.3-14
	c-0.6-3.5-0.6-7.2,0.2-10.7c0.5-2.4,1.2-4.7,2-6.9c1.1-3.1,2.1-5.7,5.4-6.8s6.8,0.5,9.2,2.9C199,232.2,199.4,232.6,199.9,233z"/>
<path class="st8" d="M190.3,246.5c1.3,0.5,2.7,0.5,4,0.2c5.5-1.4,5.6-8.9,5.3-13.4"/>
<path class="st8" d="M194.4,246.7c0,0,1,9.4,10.8,4.1"/>
<path class="st8" d="M155.8,233c-0.6,0.8-1.9,1.2-2.7,1.7c-0.6,0.4-1.2,0.8-1.8,1.2c-1.5,1-2.8,2.1-4.1,3.3
	c-3.2,2.9-5.7,6.4-7.2,10.4c-1.2,3.3-1.5,6.9-1,10.4c0.6,3.5,2.1,7,5.3,8.9c2.7,1.5,5.8,2.1,8.9,1.8c2.5-0.2,4.9-0.7,7.2-1.6
	c2.6-1.1,4.9-2.7,6.7-4.8c2-1.9,3.7-4.1,5-6.6c1.4-3.6,2-7.5,1.7-11.4c-0.2-3.4-0.7-6.8-1.5-10.1c-0.6-2-1.5-4-2.9-5.6
	c-1.8-2.3-4.6-3.5-7.5-3.4c-1.9,0.3-3.7,1.3-4.9,2.9c-0.4,0.8-0.8,1.7-1.1,2.6C155.9,232.8,155.9,232.9,155.8,233z"/>
<path class="st8" d="M155.9,233.1c0,0-1.9,13.1,8.7,12.8"/>
<path class="st8" d="M150.2,250c0,0,7.7,5.8,11.6-4.4"/>
<text transform="matrix(1 0 0 1 112.61 180.39)" class="st7 st9 st10">Z</text>
<text transform="matrix(1 0 0 1 112.61 180.39)" class="st3 st9 st10">Z</text>
<text transform="matrix(1 0 0 1 124.06 188.41)" class="st7 st9 st11">Z</text>
<text transform="matrix(1 0 0 1 124.06 188.41)" class="st3 st9 st11">Z</text>
<path class="st8" d="M146.6,245.2h62c2.8,0,5.1,2.3,5.1,5.1v32c0,2.8-2.3,5.1-5.1,5.1h-62c-2.8,0-5.1-2.3-5.1-5.1v-32
	C141.5,247.5,143.8,245.2,146.6,245.2z"/>
<circle class="st12" cx="177.7" cy="266.5" r="8.7"/>
<path class="st13" d="M179,230.4l-4.4-0.1c-16.6-0.5-29.7-14.4-29.2-31l0.3-10.2c0.5-17.9,15.5-32.1,33.5-31.5c0.4,0,0.8,0,1.3,0.1
	l0,0c18.4,1.3,32.4,16.8,31.9,35.2l-0.2,6.4C211.6,216.9,196.7,230.9,179,230.4z"/>
<path class="st8" d="M207.9,175.1c-3.7-0.4-7.6-0.9-11.1-0.4c-4.1,0.7-8,2.6-11.1,5.4c-3.5,2.9-8.9,2.5-12.7,0.4
	c-3.7-2.1-5.9-5.9-9.7-8c-3.2-1.7-6.8-2.7-10.4-2.9c6.7-8.3,17-12.7,27.6-12c8.8,0.6,17.1,4.6,23,11.2
	C205.1,170.7,206.7,172.8,207.9,175.1z"/>
<path class="st3" d="M142.1,192.9v-3.1c0-20.4,16.3-36.9,36.3-36.9h0c20.1,0,36.3,16.5,36.3,36.9v3.1"/>
<path class="st13" d="M176.1,155.8l6.2,0.2c2,0.1,3.6,1.7,3.5,3.7l0,0l0,0l-13.4-0.4l0,0l0,0C172.5,157.3,174.1,155.7,176.1,155.8z"
	/>
<path class="st13" d="M176.8,155.8c0,0,0.8-8.1,4.8-10.9c0,0-1.8,10.9,0.1,11L176.8,155.8z"/>
<circle class="st14" cx="182.1" cy="141.5" r="4.9"/>
<circle class="st15" cx="182.1" cy="141.5" r="3.5"/>
<circle class="st3" cx="163.3" cy="198.3" r="13.3"/>
<circle class="st3" cx="194.1" cy="199.2" r="13.3"/>
<line class="st3" x1="176.5" y1="198.7" x2="180.9" y2="198.8"/>
<line class="st3" x1="150" y1="197.9" x2="145.6" y2="191.8"/>
<line class="st3" x1="207.4" y1="199.6" x2="212" y2="193.8"/>
<path class="st3" d="M176.7,219c1.9-1.7,4.8-1.7,6.8,0"/>
<path class="st3" d="M158.1,198.8c1.6,2.9,5.3,3.9,8.2,2.2c0.2-0.1,0.4-0.2,0.5-0.3c0.7-0.5,1.3-1.2,1.7-2"/>
<path class="st3" d="M188.9,198.8c1.6,2.9,5.3,3.9,8.2,2.2c0.2-0.1,0.4-0.2,0.5-0.3c0.7-0.5,1.3-1.2,1.7-2"/>
<g>
	<path class="st12" d="M212.9,186.5L212,200l0.9,0.1c2.3,0.2,4.2-1.6,4.4-3.8l0.3-5.3c0.1-2.2-1.5-4.2-3.7-4.4L212.9,186.5z"/>
	<path class="st12" d="M217.7,190.5L217.7,190.5c1.1,0.1,1.9,1,1.8,2.1l-0.1,2.1c-0.1,1.1-1,1.9-2.1,1.8l0,0L217.7,190.5z"/>
</g>
<g>
	<path class="st12" d="M145.3,186.5l-0.5,13.5l-0.9,0c-2.3-0.1-4-2-3.9-4.3l0.2-5.3c0.1-2.2,1.9-4,4.2-4L145.3,186.5z"/>
	<path class="st12" d="M140.1,190L140.1,190c-1.1,0-2,0.8-2,1.9L138,194c0,1.1,0.8,2,1.9,2.1l0,0L140.1,190z"/>
</g>
<g>
	<ellipse class="st12" cx="189.8" cy="218.9" rx="2.7" ry="1.6"/>
	<path class="st16" d="M213.7,199.5c0,0,1,17.8-22.2,19.4"/>
</g>
</svg>
