<svg id="Layer_1" data-name="Layer 1" xmlns="http://www.w3.org/2000/svg" viewBox="0 0 351.16 293.04"><defs><style>.cls-1,.cls-2,.cls-6{fill:#c4cbe0;}.cls-1{opacity:0.25;}.cls-3,.cls-5,.cls-8{fill:#fff;}.cls-4{fill:none;}.cls-10,.cls-13,.cls-4,.cls-5,.cls-6,.cls-7,.cls-8,.cls-9{stroke:#3e6be0;stroke-linecap:round;stroke-linejoin:round;}.cls-7{fill:#3e6be0;}.cls-8{font-size:41.2px;font-family:ZohoPuvi-Bold, Zoho Puvi;font-weight:700;}.cls-13,.cls-9{fill:#3e6be6;}.cls-9{opacity:0.4;}.cls-10{fill:#cad1e6;}.cls-11{fill:#ffc4c4;}.cls-12{fill:#ff6766;}</style></defs><path class="cls-1" d="M350.39,259.82a175.11,175.11,0,0,1-2.45,29.25H317.88A145,145,0,1,0,30.79,259.82a146,146,0,0,0,3,29.25H3.68a174.59,174.59,0,1,1,346.71-29.25Z"/><path class="cls-2" d="M320.83,259.82a146,146,0,0,1-2.95,29.25H33.74a145,145,0,1,1,287.09-29.25Z"/><path class="cls-3" d="M263.37,283.89a15.08,15.08,0,0,1-1.06,5.6H146.53a18.46,18.46,0,0,1-1.78-8,18.73,18.73,0,0,1,18.73-18.73,17,17,0,0,1,1.75.09,25.2,25.2,0,0,1,50-6.23,16.34,16.34,0,0,1,26.7,12.63c0,.18,0,.37,0,.55a15,15,0,0,1,6.11-1.28A15.33,15.33,0,0,1,263.37,283.89Z"/><path class="cls-3" d="M137.43,222.44c0,5.83-12.38,3.41-16.48,3.41H66.3A11.26,11.26,0,0,1,65.21,221,11.41,11.41,0,0,1,76.62,209.6a9.28,9.28,0,0,1,1.06.06,14.72,14.72,0,0,1-.1-1.76,15.34,15.34,0,0,1,30.55-2,9.95,9.95,0,0,1,16.25,7.69v.34a9.08,9.08,0,0,1,3.72-.78A9.33,9.33,0,0,1,137.43,222.44Z"/><circle class="cls-4" cx="284.08" cy="266.86" r="3.37"/><circle class="cls-4" cx="125.7" cy="193.94" r="2.42"/><circle class="cls-4" cx="61.13" cy="109.6" r="3"/><circle class="cls-4" cx="84.1" cy="60.34" r="2"/><circle class="cls-4" cx="231.56" cy="50.68" r="2.33"/><line class="cls-4" x1="35.44" y1="289.85" x2="75.2" y2="289.85"/><line class="cls-4" x1="90.43" y1="289.89" x2="207.59" y2="289.89"/><line class="cls-4" x1="223.67" y1="290.01" x2="246.93" y2="290.01"/><line class="cls-4" x1="262.53" y1="289.74" x2="281.99" y2="289.74"/><line class="cls-4" x1="297.96" y1="290.04" x2="317.42" y2="290.04"/><line class="cls-4" x1="45.62" y1="184.92" x2="52.86" y2="184.92"/><line class="cls-4" x1="49.24" y1="181.3" x2="49.24" y2="188.54"/><line class="cls-4" x1="248.13" y1="170" x2="255.37" y2="170"/><line class="cls-4" x1="251.75" y1="166.38" x2="251.75" y2="173.62"/><circle class="cls-5" cx="208.25" cy="154.43" r="26.47"/><circle class="cls-6" cx="166.96" cy="238.07" r="26.47"/><circle class="cls-7" cx="250.91" cy="239.33" r="24.09"/><line class="cls-4" x1="208.25" y1="180.9" x2="208.25" y2="200.7"/><line class="cls-4" x1="166" y1="200.38" x2="250.28" y2="200.38"/><line class="cls-4" x1="166.17" y1="211.24" x2="166.17" y2="200.38"/><line class="cls-4" x1="250.28" y1="215.05" x2="250.28" y2="200.38"/><text class="cls-8" transform="translate(239.69 254.57)">?</text><path class="cls-9" d="M115.94,232.84a99.84,99.84,0,0,1,19.86-30.27,47.92,47.92,0,0,1,21.88-12.64,1.27,1.27,0,0,1,.88,0,1.24,1.24,0,0,1,.52.9c1.87,7.93.5,15.32-2.31,22.79a14.73,14.73,0,0,0,2.37-2.49,3.78,3.78,0,0,1,3.09-1.48,3.1,3.1,0,0,1,2.3,2.05c2.38,6.12-1.19,14-4.92,18.75-5.39,6.88-13.48,11.16-21.61,13.94a89.51,89.51,0,0,1-9.36,2.6S108.79,251.44,115.94,232.84Z"/><path class="cls-9" d="M109.76,233.73c-5.17-12.21-12.92-24.23-22.46-33.43a49.48,49.48,0,0,0-10.6-7.93c-1.76-1-10-5.46-11.86-3.88a1.3,1.3,0,0,0-.3.54,27,27,0,0,0-1.25,10.6c.28,4.31,1,10.38,3.29,14.11,0,0-4.52-7.16-7.35-3.58s-4.53,29.22,37.14,38.46C96.37,248.62,117.3,253.34,109.76,233.73Z"/><path class="cls-6" d="M131.3,202.24a4.82,4.82,0,0,1,.91.29c2.95,1.27,4.75,5.23,6.72,7.58a98.21,98.21,0,0,1,8.55,11.73c5.12,8.45,9.15,19.37,7.42,29.42-.56,3.27-2.22,6.5-5.08,8.17a10.09,10.09,0,0,1-8.31.59c-4-1.42-7-4.17-6.56-8.68.75-6.92.45-11.45-2.23-18.15a83.64,83.64,0,0,0-6.62-13.95,30.19,30.19,0,0,1-3.71-7,8.05,8.05,0,0,1,.27-6A8.61,8.61,0,0,1,131.3,202.24Z"/><path class="cls-6" d="M96,205.74a8.94,8.94,0,0,0-1.81-.37,17.26,17.26,0,0,0-6.66,1q-2.74.79-5.44,1.73a24.94,24.94,0,0,0-2.69,1.19c-1-1.77,0-5.13,1.59-6.4,1.75-1.41,12.13-2.27,5.56-16.49,0,0-6-8-15.15-.42S58.63,213.56,67.06,224c3.57,4.42,9.69,7.87,15.48,6.25,6.69-1.88,18.67-4.85,19.89-13.09C103.14,212.32,100.62,207.23,96,205.74Z"/><path class="cls-6" d="M109.15,266.28c1.12.44.62,9.1.47,10.32a13.09,13.09,0,0,1-2,6,7.2,7.2,0,0,1-5.26,2.92,25.3,25.3,0,0,1-7.47-.37,11.08,11.08,0,0,1-4.1-1.31c-2.43-1.62-1.32-4.89.72-6.33.24-.17,2.76-1.59,2.79-1.16L93,259.92Z"/><path class="cls-6" d="M110.26,266.19c-1.11.44-.61,9.1-.46,10.32.35,2.85,1.26,6.55,3.84,7.93,2.79,1.49,7.12,1.27,10.16.89s7.86-2,5.63-6a6.15,6.15,0,0,0-1.87-2.12c-.28-.19-2.39-1.25-2.42-.95l1.24-16.41Z"/><path class="cls-7" d="M132.35,216.42l-43.19-.61a29.53,29.53,0,0,1,8.4-8.68l26.64.38A29.39,29.39,0,0,1,132.35,216.42Z"/><path class="cls-5" d="M124.2,207.51l-26.64-.38a23,23,0,0,1,26.64.38Z"/><path class="cls-7" d="M137.38,232.08l-53.69-.77a37.24,37.24,0,0,1,2.12-8.77l49.7.7A37.23,37.23,0,0,1,137.38,232.08Z"/><path class="cls-5" d="M135.51,223.24l-49.7-.7a34.36,34.36,0,0,1,3.35-6.73l43.19.61A34.53,34.53,0,0,1,135.51,223.24Z"/><path class="cls-7" d="M137.37,239.33a38.36,38.36,0,0,1-1.83,8.77l-50.47-.71a38.31,38.31,0,0,1-1.58-8.82Z"/><path class="cls-5" d="M94.31,262.28l31.58.45a23.33,23.33,0,0,1-31.58-.45Z"/><path class="cls-5" d="M135.54,248.1a35.52,35.52,0,0,1-2.61,5.93l-45.41-.65a36,36,0,0,1-2.45-6Z"/><path class="cls-5" d="M137.54,236.25c0,1-.07,2.06-.17,3.08l-53.88-.76c-.07-1-.09-2-.08-3.09a40.92,40.92,0,0,1,.28-4.17l53.69.77A38.26,38.26,0,0,1,137.54,236.25Z"/><path class="cls-7" d="M132.93,254a31.15,31.15,0,0,1-7,8.7l-31.58-.45a30.91,30.91,0,0,1-6.79-8.9Z"/><path class="cls-5" d="M113.71,209.86H108A38.63,38.63,0,0,1,69.4,171.22v-13a41.68,41.68,0,0,1,43.3-41.65h0a43.94,43.94,0,0,1,42.24,43.91v8.18A41.23,41.23,0,0,1,113.71,209.86Z"/><path class="cls-10" d="M148.73,137.92c-4.77-.31-9.77-.82-14.29,0-5.33.91-10.06,3.81-14.06,7.34-4.35,3.83-11.34,3.6-16.32,1-4.78-2.52-7.78-7.35-12.76-9.83A32.54,32.54,0,0,0,77.86,133a41.62,41.62,0,0,1,34.85-16.47,43.79,43.79,0,0,1,30,13.45A43,43,0,0,1,148.73,137.92Z"/><path class="cls-5" d="M106.05,114.46h10.08A3.56,3.56,0,0,1,119.7,118v1.07a0,0,0,0,1,0,0H102.49a0,0,0,0,1,0,0V118A3.56,3.56,0,0,1,106.05,114.46Z"/><path class="cls-5" d="M107.94,114.46s.66-10.47,5.79-14.11c0,0-1.94,14.11.51,14.11Z"/><circle class="cls-11" cx="114.24" cy="95.88" r="6.3"/><circle class="cls-12" cx="114.24" cy="95.88" r="4.46"/><circle class="cls-13" cx="95.05" cy="165.04" r="8.31"/><circle class="cls-13" cx="134.62" cy="165.04" r="8.31"/><circle class="cls-4" cx="92.38" cy="169.37" r="17.02"/><circle class="cls-4" cx="131.96" cy="169.37" r="17.02"/><line class="cls-4" x1="109.41" y1="169.37" x2="114.93" y2="169.37"/><line class="cls-4" x1="75.36" y1="169.37" x2="69.51" y2="161.7"/><line class="cls-4" x1="148.98" y1="169.37" x2="154.63" y2="161.7"/><path class="cls-5" d="M112,187.81a12.39,12.39,0,0,1,2.39-.71,4.16,4.16,0,0,1,2.44.3,1.17,1.17,0,0,1,.74.93c0,.45-.41.78-.8,1a22.46,22.46,0,0,1-2.64,1.15,5.58,5.58,0,0,1,3.44.91,1.72,1.72,0,0,1,.89,1.2,1.67,1.67,0,0,1-.8,1.39c-1.47,1.08-3,.65-4.69.47"/></svg>