<svg id="Layer_1" data-name="Layer 1" xmlns="http://www.w3.org/2000/svg" viewBox="0 0 351.16 293.04"><defs><style>.cls-1{fill:none;}.cls-1,.cls-12,.cls-5,.cls-6,.cls-7,.cls-8,.cls-9{stroke:#3e6be0;stroke-linecap:round;stroke-linejoin:round;}.cls-2,.cls-3,.cls-7{fill:#c4cbe0;}.cls-2{opacity:0.25;}.cls-4,.cls-8{fill:#fff;}.cls-5,.cls-6{fill:#3e6be0;}.cls-5{opacity:0.3;}.cls-9{fill:#cad1e6;}.cls-10{fill:#ffc4c4;}.cls-11{fill:#ff6766;}.cls-12{fill:#3e6be6;}</style></defs><line class="cls-1" x1="33.41" y1="289.89" x2="75.03" y2="289.89"/><line class="cls-1" x1="89.39" y1="289.89" x2="206.56" y2="289.89"/><line class="cls-1" x1="222.63" y1="289.89" x2="245.89" y2="289.89"/><line class="cls-1" x1="261.5" y1="289.74" x2="280.95" y2="289.74"/><line class="cls-1" x1="296.93" y1="290.04" x2="316.39" y2="290.04"/><path class="cls-2" d="M349.94,259.32a175.11,175.11,0,0,1-2.45,29.25H317.43A145,145,0,1,0,30.34,259.32a146,146,0,0,0,2.95,29.25H3.23a174.59,174.59,0,1,1,346.71-29.25Z"/><path class="cls-3" d="M320.38,259.32a146,146,0,0,1-2.95,29.25H33.29a145,145,0,1,1,287.09-29.25Z"/><path class="cls-4" d="M262.93,282.93a15.08,15.08,0,0,1-1.06,5.6H146.09a18.46,18.46,0,0,1-1.78-8A18.73,18.73,0,0,1,163,261.84a17,17,0,0,1,1.75.09,25.2,25.2,0,0,1,50-6.23,16.34,16.34,0,0,1,26.7,12.63c0,.18,0,.37,0,.55a15,15,0,0,1,6.11-1.28A15.33,15.33,0,0,1,262.93,282.93Z"/><path class="cls-4" d="M137,223c0,5.83-12.38,3.41-16.48,3.41H65.85a11.27,11.27,0,0,1-1.09-4.85,11.4,11.4,0,0,1,11.41-11.4c.36,0,.71,0,1.06,0a17,17,0,0,1-.1-1.76,15.34,15.34,0,0,1,30.55-2,9.95,9.95,0,0,1,16.25,7.69v.33a9.24,9.24,0,0,1,3.72-.77A9.33,9.33,0,0,1,137,223Z"/><circle class="cls-1" cx="281.32" cy="266.31" r="3.53"/><circle class="cls-1" cx="125.25" cy="194.44" r="2.42"/><circle class="cls-1" cx="63.09" cy="101.1" r="3.14"/><line class="cls-1" x1="95.98" y1="249.86" x2="103.22" y2="249.86"/><line class="cls-1" x1="99.6" y1="246.24" x2="99.6" y2="253.48"/><line class="cls-1" x1="45.17" y1="185.43" x2="52.41" y2="185.43"/><line class="cls-1" x1="48.79" y1="181.81" x2="48.79" y2="189.05"/><line class="cls-1" x1="247.68" y1="137.26" x2="254.92" y2="137.26"/><line class="cls-1" x1="251.3" y1="133.64" x2="251.3" y2="140.88"/><path class="cls-5" d="M121.06,191.44c-6.42-15.13-16-30-27.86-41.44a61.55,61.55,0,0,0-13.14-9.84c-2.19-1.19-12.42-6.77-14.7-4.81A1.51,1.51,0,0,0,65,136a33.67,33.67,0,0,0-1.55,13.15c.35,5.35,1.24,12.87,4.08,17.5,0,0-5.61-8.88-9.11-4.44s-5.62,36.24,46.06,47.7C104.46,209.92,130.41,215.76,121.06,191.44Z"/><path class="cls-6" d="M179.33,173.41l-.65,54.85a.9.9,0,0,0,1.2.85l46.51-16.37a.91.91,0,0,0,.6-.83L228,162a.9.9,0,0,0-1.11-.89L180,172.55A.9.9,0,0,0,179.33,173.41Z"/><path class="cls-7" d="M293.47,169.15l-66.29-7.79a1,1,0,0,0-1.09.95L225,216.78a1,1,0,0,0,.74,1l67.37,16.61a1,1,0,0,0,1.21-1V170.13A1,1,0,0,0,293.47,169.15Z"/><path class="cls-7" d="M236.29,261.17,175,236.42a1,1,0,0,1-.62-.92l1-60.31a1,1,0,0,1,1.18-.94l59.32,12.56a1,1,0,0,1,.78.95l1,72.48A1,1,0,0,1,236.29,261.17Z"/><path class="cls-6" d="M235.63,187.72l1,72.49a1,1,0,0,0,1.39.88L294.74,235a1,1,0,0,0,.57-.89V170.64a1,1,0,0,0-1.26-.94l-57.72,17.06A1,1,0,0,0,235.63,187.72Z"/><path class="cls-7" d="M240.57,186.6,255.66,210a.92.92,0,0,0,1.07.36l50.34-18.53a.9.9,0,0,0,.45-1.32l-12.4-20.28a.9.9,0,0,0-1-.4l-53,15.46A.9.9,0,0,0,240.57,186.6Z"/><polygon class="cls-6" points="228.38 210.31 238.32 185.39 182.1 173.48 174.03 192.68 228.38 210.31"/><path class="cls-1" d="M277.35,160.37c6-1.48,12.83-3.23,17.44-7.67,2.58-2.49,4.38-6.14,3.27-9.75a11.58,11.58,0,0,0-3.85-5.37c-5.75-4.68-12.49.84-8.85,7.43a12.89,12.89,0,0,0,8.11,6.41c13,3,19-17.27,19.84-26.68"/><path class="cls-7" d="M169.37,239.71l-1.61,27.86s5.42,1.58,2.79,7.1c-1.22,2.57-5.16,3.11-7.63,3.35a35.81,35.81,0,0,1-12.24-1c-3-.77-6.15-1.88-8.28-4.24s-2.2-6.12-1.64-9.18c.52-2.81,1.32-5.56,1.85-8.36s.62-5.55.94-8.35,1.07-5.81,3.91-6.83c2.41-.85,9.58.54,12-.32C160.21,239.46,169.33,240.37,169.37,239.71Z"/><path class="cls-7" d="M164.86,248.87l-1.61,27.85s5.42,1.58,2.8,7.11c-1.22,2.56-5.17,3.1-7.64,3.35a35.82,35.82,0,0,1-12.24-1c-3-.76-6.15-1.87-8.27-4.24s-2.2-6.12-1.65-9.17c.52-2.81,1.32-5.56,1.85-8.37s.62-5.55,1-8.35,1.06-5.81,3.9-6.82c2.41-.86,9.58.53,12-.32C155.7,248.62,164.83,249.52,164.86,248.87Z"/><path class="cls-7" d="M168.54,188.33a5.27,5.27,0,0,0,.59.72c2.23,2.23,6.49,2.44,9.34,3.39A93.72,93.72,0,0,0,192.24,196c9.56,1.62,20.95,1.35,29.49-3.85,2.77-1.69,5.12-4.38,5.61-7.59a9.88,9.88,0,0,0-2.46-7.78c-2.76-3.17-6.35-4.91-10.28-2.84-6,3.18-10.27,4.54-17.34,4.52a81.05,81.05,0,0,1-15.1-1,29.51,29.51,0,0,0-7.71-.85,7.86,7.86,0,0,0-5.37,2.41A8.45,8.45,0,0,0,168.54,188.33Z"/><path class="cls-6" d="M185.27,177.61l-67.82-.16a46.26,46.26,0,0,1,13-13.78l41.83.1A46.28,46.28,0,0,1,185.27,177.61Z"/><path class="cls-8" d="M172.15,162.3l-41.82.93a36.14,36.14,0,0,1,41.82-.93Z"/><path class="cls-6" d="M194,201.66A305.45,305.45,0,0,1,152.89,205a304.05,304.05,0,0,1-43.19-2.51,60.47,60.47,0,0,1,1.1-7.12,56.57,56.57,0,0,1,1.89-6.73,342.89,342.89,0,0,1,78.06-.78C191.47,189.83,192.18,192.07,194,201.66Z"/><path class="cls-8" d="M190.75,187.87l-78.06.78a54.34,54.34,0,0,1,5-10.7l67.82-.68A54.17,54.17,0,0,1,190.75,187.87Z"/><path class="cls-6" d="M194.28,213.05a60.41,60.41,0,0,1-2.55,13.84l-79.25.79a60.37,60.37,0,0,1-2.82-13.79Z"/><path class="cls-8" d="M127.55,250.71l49.58-.49a36.6,36.6,0,0,1-49.58.49Z"/><path class="cls-8" d="M191.73,226.89a55.75,55.75,0,0,1-3.87,9.39l-71.32.72a57.32,57.32,0,0,1-4.06-9.32Z"/><path class="cls-8" d="M194.42,208.21c0,2.07.88,4.62-2,4.57-20.68-.33-41.27-.14-61.95.48-1.24,0-20.73.92-20.77.64-.06-.73-.12-1.54-.16-2.41s-.07-1.62-.07-2.43a59.25,59.25,0,0,1,.27-6.56l84.32-.84A63.81,63.81,0,0,1,194.42,208.21Z"/><path class="cls-6" d="M187.86,236.28a48.87,48.87,0,0,1-10.73,13.94l-49.58.49a48.92,48.92,0,0,1-11-13.71Z"/><path class="cls-7" d="M170.67,204.11a4.32,4.32,0,0,0,.54.66c2,2,5.95,2.24,8.57,3.1a85.93,85.93,0,0,0,12.64,3.27c8.77,1.48,19.23,1.23,27.06-3.54a10.38,10.38,0,0,0,5.15-7,9,9,0,0,0-2.26-7.14c-2.53-2.92-5.82-4.51-9.43-2.61-5.53,2.92-9.43,4.17-15.92,4.14a73.85,73.85,0,0,1-13.86-.91,26.77,26.77,0,0,0-7.07-.78,7.24,7.24,0,0,0-4.93,2.21A7.77,7.77,0,0,0,170.67,204.11Z"/><path class="cls-5" d="M119.51,203.59c-6.42-15.13-16-30-27.86-41.45a61.84,61.84,0,0,0-13.14-9.83c-2.19-1.19-12.43-6.78-14.71-4.81a1.44,1.44,0,0,0-.37.66,33.47,33.47,0,0,0-1.55,13.15c.34,5.35,1.24,12.87,4.08,17.5,0,0-5.61-8.89-9.12-4.44s-5.61,36.24,46.07,47.69C102.91,222.06,128.86,227.91,119.51,203.59Z"/><path class="cls-8" d="M152.7,175.9l6.49-.13a44.22,44.22,0,0,0,43.36-45.08l-.29-14.93a47.71,47.71,0,0,0-50.49-46.71h0a50.31,50.31,0,0,0-47.37,51.2l.18,9.37A47.22,47.22,0,0,0,152.7,175.9Z"/><path class="cls-9" d="M148.48,69.35c2.48,1.46,5.12,2.63,7.69,3.9.74.35,1.46.71,2.15,1.08l.88.47c.61.34,1.2.68,1.79,1.06l.77.5c.29.18.56.37.83.57a26.1,26.1,0,0,1,2.71,2.3,36,36,0,0,1,8,12.36c2.51,6.15,9.8,9.46,16.24,9.31a36.35,36.35,0,0,0,9.33-2,47.71,47.71,0,0,0-47.08-29.88C150.67,69.11,149.57,69.21,148.48,69.35Z"/><path class="cls-8" d="M165.3,79.23a26.1,26.1,0,0,0-2.71-2.3c-.27-.2-.54-.39-.83-.57l-.77-.5c-.59-.38-1.17-.72-1.79-1.06l-.88-.47c-.69-.37-1.41-.73-2.15-1.08"/><path class="cls-8" d="M143.73,64.76h19.7a0,0,0,0,1,0,0V66.5a3.56,3.56,0,0,1-3.56,3.56H147.3a3.56,3.56,0,0,1-3.56-3.56V64.76A0,0,0,0,1,143.73,64.76Z" transform="translate(308.45 131.83) rotate(178.89)"/><path class="cls-8" d="M157.14,64.69s-1-12-6.94-16c0,0,2.53,16.11-.27,16.17Z"/><circle class="cls-10" cx="149.51" cy="43.56" r="7.21"/><circle class="cls-11" cx="149.51" cy="43.56" r="5.11"/><circle class="cls-12" cx="185.42" cy="130.25" r="9.51"/><circle class="cls-1" cx="177.02" cy="126.09" r="19.49"/><line class="cls-1" x1="202.41" y1="123.62" x2="196.51" y2="125.71"/><path class="cls-8" d="M198.05,150.1s-2.56-2.27-5.67,2.4"/></svg>