<svg id="Layer_1" data-name="Layer 1" xmlns="http://www.w3.org/2000/svg" viewBox="0 0 351.16 293.04"><defs><style>.cls-1,.cls-2,.cls-8{fill:#c4cbe0;}.cls-1{opacity:0.25;}.cls-3,.cls-7{fill:#fff;}.cls-4{fill:none;}.cls-4,.cls-5,.cls-6,.cls-7,.cls-8{stroke:#3e6be0;stroke-linecap:round;stroke-linejoin:round;}.cls-5,.cls-6{fill:#3e6be0;}.cls-5{opacity:0.3;}.cls-9{fill:#ffd9d9;}.cls-10{fill:#ff6766;}</style></defs><path class="cls-1" d="M350.16,257.19a175.11,175.11,0,0,1-2.45,29.25H317.65A145,145,0,1,0,30.56,257.19a146,146,0,0,0,2.95,29.25H3.45a174.59,174.59,0,1,1,346.71-29.25Z"/><path class="cls-2" d="M320.6,256.19a146,146,0,0,1-3,29.25H33.51A145,145,0,1,1,320.6,256.19Z"/><path class="cls-3" d="M263.15,280.79a15.08,15.08,0,0,1-1.06,5.6H146.31a18.46,18.46,0,0,1-1.78-8,18.73,18.73,0,0,1,18.73-18.73,17,17,0,0,1,1.75.09,25.2,25.2,0,0,1,50-6.23,16.34,16.34,0,0,1,26.7,12.63c0,.18,0,.37,0,.55a15,15,0,0,1,6.11-1.28A15.33,15.33,0,0,1,263.15,280.79Z"/><path class="cls-3" d="M137.2,219.82c0,5.83-12.38,3.41-16.48,3.41H66.07A11.26,11.26,0,0,1,65,218.38,11.39,11.39,0,0,1,76.39,207a9.29,9.29,0,0,1,1.06.05,17,17,0,0,1-.1-1.76,15.34,15.34,0,0,1,30.55-2,10,10,0,0,1,16.26,7.69c0,.11,0,.22,0,.33a9.32,9.32,0,0,1,13,8.56Z"/><circle class="cls-4" cx="132.27" cy="264.72" r="3.09"/><circle class="cls-4" cx="281.54" cy="263.17" r="3.53"/><line class="cls-4" x1="45.39" y1="182.3" x2="52.63" y2="182.3"/><line class="cls-4" x1="49.01" y1="178.68" x2="49.01" y2="185.92"/><line class="cls-4" x1="247.9" y1="134.12" x2="255.14" y2="134.12"/><line class="cls-4" x1="251.52" y1="130.5" x2="251.52" y2="137.74"/><line class="cls-4" x1="33.7" y1="287.22" x2="73.45" y2="287.22"/><line class="cls-4" x1="88.68" y1="287.26" x2="205.85" y2="287.26"/><line class="cls-4" x1="221.92" y1="287.37" x2="245.18" y2="287.37"/><line class="cls-4" x1="260.79" y1="287.1" x2="280.24" y2="287.1"/><line class="cls-4" x1="296.22" y1="287.41" x2="315.67" y2="287.41"/><path class="cls-5" d="M180.38,229.55a146.38,146.38,0,0,1,26.68-45.85,70.12,70.12,0,0,1,31-20.23,1.81,1.81,0,0,1,1.29-.09,1.84,1.84,0,0,1,.83,1.27c3.35,11.45,1.93,22.38-1.59,33.53a21.48,21.48,0,0,0,3.28-3.83c1.11-1.35,2.67-2.56,4.4-2.41a4.55,4.55,0,0,1,3.52,2.81c4,8.77-.63,20.57-5.71,27.83-7.35,10.49-18.86,17.39-30.53,22.1a131.11,131.11,0,0,1-13.49,4.54S171.38,257.33,180.38,229.55Z"/><path class="cls-5" d="M175.13,229.75c-8.53-17.45-20.81-34.44-35.5-47.14a72.43,72.43,0,0,0-16.13-10.77c-2.66-1.27-15.09-7.2-17.66-4.74a1.78,1.78,0,0,0-.4.8,39.75,39.75,0,0,0-1,15.62c.74,6.29,2.28,15.1,5.93,20.39,0,0-7.19-10.13-11-4.67S95,242.36,156.72,252.6C156.72,252.6,187.71,257.85,175.13,229.75Z"/><path class="cls-6" d="M189,209.82l-45.59,9.42a31.85,31.85,0,0,1,6.82-11.09l28.11-5.81A31.71,31.71,0,0,1,189,209.82Z"/><path class="cls-7" d="M178.29,202.34l-28.11,5.81a24.82,24.82,0,0,1,28.11-5.81Z"/><path class="cls-6" d="M197.89,225.12l-56.67,11.72a39.91,39.91,0,0,1,.18-9.73l52.47-10.85A40.11,40.11,0,0,1,197.89,225.12Z"/><path class="cls-7" d="M193.87,216.26,141.4,227.11a37.47,37.47,0,0,1,2-7.87L189,209.82A37.27,37.27,0,0,1,193.87,216.26Z"/><path class="cls-6" d="M199.58,232.75a41.18,41.18,0,0,1,.11,9.66l-53.27,11a41.82,41.82,0,0,1-3.72-8.91Z"/><path class="cls-7" d="M159.62,267,193,260.06A25.15,25.15,0,0,1,159.62,267Z"/><path class="cls-7" d="M199.69,242.41a38.18,38.18,0,0,1-1.36,6.84l-47.94,9.92a39,39,0,0,1-4-5.74Z"/><path class="cls-7" d="M199,229.47c.23,1.1.41,2.19.55,3.28L142.7,244.52c-.31-1.06-.57-2.13-.8-3.23a41.34,41.34,0,0,1-.68-4.45l56.67-11.72A43.32,43.32,0,0,1,199,229.47Z"/><path class="cls-6" d="M198.33,249.25A33.71,33.71,0,0,1,193,260.06L159.62,267a33.58,33.58,0,0,1-9.23-7.78Z"/><path class="cls-8" d="M190.64,211.33s18.61,22.63,29.27,18.46l-5.57,15.1a14.28,14.28,0,0,1-9.42-1.41c-3.7-2.16-5.06-5.83-7.3-12.14C194.5,222.56,192.13,215.68,190.64,211.33Z"/><path class="cls-8" d="M161.85,245s16.23,11.77,11,23.95-23.5,5.69-23.5,5.69-13.39-11.55-11.92-20.54,12.29-12.29,19.07-6.6Z"/><path class="cls-8" d="M147.14,211.59a4.54,4.54,0,0,0-.37.73,118.53,118.53,0,0,0-5.8,17.89,42.08,42.08,0,0,0-1.19,9.07,17,17,0,0,0,.36,3.83c.19.82,1.24,2.25,1.24,3a16,16,0,0,0,11.9,6.45,9.34,9.34,0,0,0,5.86-1.42c2.52-1.78,3.08-5.25,3.37-8.1a14.16,14.16,0,0,0,.08-4.11,5.67,5.67,0,0,0-.83-2.07c-.28-.43-1.62-1.34-1.69-1.71a32,32,0,0,1-.25-9.52c.59-4.63,5-11.28,1.63-15.7a5.85,5.85,0,0,0-3.75-2.1,11.51,11.51,0,0,0-4.37.26C151.15,208.56,148.4,209.57,147.14,211.59Z"/><path class="cls-4" d="M150.85,235.54s4.9-3.36,9.79.14"/><path class="cls-4" d="M160.11,276s11.49-5.21,2.95-21.19"/><ellipse class="cls-8" cx="214.34" cy="240.36" rx="8.43" ry="5.83" transform="translate(-88.47 350) rotate(-68.18)"/><path class="cls-6" d="M237.17,239.23a5.94,5.94,0,0,1-3.13-.29c-.17-.07-.46-1-.55-1.14a17.07,17.07,0,0,0-2.07-2.86c-3.52-4-8-6.59-13.34-6.32A39,39,0,0,0,202,232.89c-5.09,2.68-10.23,6.49-11.87,12.24A153.11,153.11,0,0,0,186,263.69c-.8,5.19,1.23,10.09,4.38,14.19,4.35,5.63,10.21,13.3,17.86,14.13a22.2,22.2,0,0,0,8.09-1.15,27.92,27.92,0,0,0,3.43-1.1c1.06-.45,2-1.43,3.21-1.42a3.69,3.69,0,0,1,2.4.74C226,289.78,237.17,239.23,237.17,239.23Z"/><ellipse class="cls-6" cx="235.1" cy="265.11" rx="28.6" ry="8.51" transform="translate(-76.39 434.02) rotate(-76.9)"/><ellipse class="cls-8" cx="235.91" cy="265.47" rx="22.08" ry="3.07" transform="translate(-76.11 435.08) rotate(-76.9)"/><path class="cls-7" d="M174.63,210.77l-5.29.19a36,36,0,0,1-37.23-34.67l-.43-12.14A38.81,38.81,0,0,1,170.59,124h0a40.92,40.92,0,0,1,40.76,39.46l.28,7.62A38.4,38.4,0,0,1,174.63,210.77Z"/><path class="cls-8" d="M204.82,142.66c-4.44-.12-9.11-.43-13.3.44-4.92,1-9.23,3.87-12.83,7.29-3.93,3.71-10.44,3.72-15.16,1.45-4.52-2.19-7.48-6.58-12.2-8.72a30.35,30.35,0,0,0-12.62-2.68A38.77,38.77,0,0,1,170.59,124a40.86,40.86,0,0,1,28.33,11.52A40.35,40.35,0,0,1,204.82,142.66Z"/><path class="cls-7" d="M164.69,122.48h8.67a4,4,0,0,1,4,4v0a.28.28,0,0,1-.28.28H161.66a.28.28,0,0,1-.28-.28v-.71a3.32,3.32,0,0,1,3.32-3.32Z" transform="translate(-4.34 6.12) rotate(-2.04)"/><path class="cls-7" d="M166.39,122.29c.08-1.58.68-9.16,4.39-12.6a.27.27,0,0,1,.45.22c-.2,2.33-.79,10.22.4,12.07a.27.27,0,0,1-.21.42l-4.75.17A.26.26,0,0,1,166.39,122.29Z"/><circle class="cls-9" cx="171.62" cy="105.08" r="5.86"/><circle class="cls-10" cx="171.62" cy="105.08" r="4.15"/><circle class="cls-6" cx="156.23" cy="172.07" r="7.74"/><circle class="cls-6" cx="193.06" cy="170.75" r="7.74"/><circle class="cls-4" cx="153.44" cy="173.8" r="15.85"/><circle class="cls-4" cx="190.26" cy="172.49" r="15.85"/><line class="cls-4" x1="169.28" y1="173.24" x2="174.42" y2="173.06"/><line class="cls-4" x1="137.59" y1="174.37" x2="131.9" y2="167.42"/><line class="cls-4" x1="206.1" y1="171.92" x2="211.1" y2="164.6"/><path class="cls-4" d="M167.48,195.65a6.56,6.56,0,0,1,5.35-2.51,6.38,6.38,0,0,1,4.37,2.28"/></svg>