<svg id="Layer_1" data-name="Layer 1" xmlns="http://www.w3.org/2000/svg" viewBox="0 0 351.16 293.04"><defs><style>.cls-1,.cls-2,.cls-6{fill:#c4cbe0;}.cls-1{opacity:0.25;}.cls-3,.cls-9{fill:#fff;}.cls-4{fill:none;}.cls-12,.cls-4,.cls-5,.cls-6,.cls-7,.cls-8,.cls-9{stroke:#3e6be0;stroke-linecap:round;stroke-linejoin:round;}.cls-5,.cls-8{fill:#3e6be0;}.cls-5{opacity:0.4;}.cls-7{fill:#cad1e6;}.cls-10{fill:#ffc4c4;}.cls-11{fill:#ff6766;}.cls-12{fill:#3e6be6;}</style></defs><path class="cls-1" d="M351.9,259.82a175.11,175.11,0,0,1-2.45,29.25H319.39A145,145,0,1,0,32.3,259.82a146,146,0,0,0,3,29.25H5.19A174.59,174.59,0,1,1,351.9,259.82Z"/><path class="cls-2" d="M322.34,259.82a146,146,0,0,1-2.95,29.25H35.25a145,145,0,1,1,287.09-29.25Z"/><path class="cls-3" d="M264.89,283.89a15.08,15.08,0,0,1-1.06,5.6H148.05a18.46,18.46,0,0,1-1.78-8A18.73,18.73,0,0,1,165,262.8a17,17,0,0,1,1.75.09,25.2,25.2,0,0,1,50-6.23,16.34,16.34,0,0,1,26.7,12.63c0,.18,0,.37,0,.55a15,15,0,0,1,6.11-1.28A15.33,15.33,0,0,1,264.89,283.89Z"/><path class="cls-3" d="M138.94,222.44c0,5.83-12.38,3.41-16.48,3.41H67.81A11.26,11.26,0,0,1,66.72,221,11.41,11.41,0,0,1,78.13,209.6a9.28,9.28,0,0,1,1.06.06,17.14,17.14,0,0,1-.1-1.76,15.34,15.34,0,0,1,30.55-2,9.95,9.95,0,0,1,16.25,7.69v.34a9.08,9.08,0,0,1,3.72-.78A9.33,9.33,0,0,1,138.94,222.44Z"/><circle class="cls-4" cx="143.01" cy="268.33" r="2.95"/><circle class="cls-4" cx="285.59" cy="266.86" r="3.37"/><circle class="cls-4" cx="127.21" cy="193.94" r="2.42"/><circle class="cls-4" cx="62.65" cy="109.6" r="3"/><circle class="cls-4" cx="85.61" cy="60.34" r="2"/><circle class="cls-4" cx="233.07" cy="50.68" r="2.33"/><circle class="cls-4" cx="180.91" cy="261.53" r="1.08"/><line class="cls-4" x1="36.95" y1="289.85" x2="76.71" y2="289.85"/><line class="cls-4" x1="91.94" y1="289.89" x2="209.1" y2="289.89"/><line class="cls-4" x1="225.18" y1="290.01" x2="248.44" y2="290.01"/><line class="cls-4" x1="264.04" y1="289.74" x2="283.5" y2="289.74"/><line class="cls-4" x1="299.48" y1="290.04" x2="318.93" y2="290.04"/><line class="cls-4" x1="97.94" y1="249.35" x2="105.18" y2="249.35"/><line class="cls-4" x1="101.56" y1="245.73" x2="101.56" y2="252.97"/><line class="cls-4" x1="47.13" y1="184.92" x2="54.37" y2="184.92"/><line class="cls-4" x1="50.75" y1="181.3" x2="50.75" y2="188.54"/><line class="cls-4" x1="249.64" y1="170" x2="256.88" y2="170"/><line class="cls-4" x1="253.26" y1="166.38" x2="253.26" y2="173.62"/><ellipse class="cls-4" cx="189.26" cy="215.22" rx="35.01" ry="42.42"/><path class="cls-5" d="M194,209.1a150.23,150.23,0,0,1,29.89-45.57,72.1,72.1,0,0,1,32.94-19,1.82,1.82,0,0,1,1.32,0,1.86,1.86,0,0,1,.78,1.34c2.82,11.94.75,23.07-3.48,34.32a22.38,22.38,0,0,0,3.58-3.76c1.21-1.31,2.88-2.47,4.65-2.22a4.67,4.67,0,0,1,3.45,3.07c3.6,9.22-1.78,21.07-7.39,28.24-8.12,10.35-20.31,16.79-32.54,21a134.86,134.86,0,0,1-14.09,3.91S183.23,237.09,194,209.1Z"/><path class="cls-5" d="M184.69,217.12c-7.79-18.38-19.44-36.48-33.81-50.32a74.48,74.48,0,0,0-16-11.94c-2.65-1.45-15.08-8.22-17.84-5.84a1.72,1.72,0,0,0-.46.81,40.68,40.68,0,0,0-1.88,16c.42,6.49,1.51,15.62,5,21.24,0,0-6.82-10.79-11.07-5.39s-6.82,44,55.91,57.9C164.54,239.54,196.05,246.63,184.69,217.12Z"/><path class="cls-6" d="M206.05,171.3a8.41,8.41,0,0,1,1.27.21c4.15,1.05,7,5.19,9.94,7.53a111.35,111.35,0,0,1,12.87,11.87c7.86,8.68,14.47,20.19,13.15,31.44a12.65,12.65,0,0,1-6.09,9.59,16.76,16.76,0,0,1-11.26,1.64c-5.67-1.08-10-3.74-9.84-8.76.32-7.69-.57-12.63-4.91-19.67-3.1-5-6.23-10.1-10.46-14.54-2.14-2.25-4.46-4.57-5.78-7.23a7.29,7.29,0,0,1-.25-6.63C196.35,173.54,201.75,170.92,206.05,171.3Z"/><path class="cls-6" d="M166.73,174.44a6.72,6.72,0,0,0-1.18.36c-3.84,1.59-6.24,6.69-8.83,9.69a122,122,0,0,0-11.27,15c-6.79,10.84-12.19,24.88-10.15,37.91.67,4.23,2.76,8.45,6.43,10.66a13,13,0,0,0,10.73.92c5.27-1.77,9.2-5.27,8.64-11.11-.84-9-.36-14.81,3.23-23.43,2.56-6.15,5.15-12.35,8.81-17.92,1.85-2.82,3.88-5.74,4.93-9a10.4,10.4,0,0,0-.24-7.76C176,176.2,170.75,173.61,166.73,174.44Z"/><path class="cls-7" d="M188.37,264.15c1.12.44.62,9.1.47,10.32a13.09,13.09,0,0,1-2,6,7.24,7.24,0,0,1-5.26,2.92,25.3,25.3,0,0,1-7.47-.37,11.27,11.27,0,0,1-4.1-1.31c-2.43-1.62-1.32-4.89.72-6.33.24-.17,2.76-1.59,2.79-1.17l-1.24-16.41Z"/><path class="cls-7" d="M189.48,264.06c-1.11.44-.61,9.1-.46,10.32.35,2.85,1.25,6.55,3.84,7.93,2.79,1.49,7.12,1.27,10.16.89s7.85-2,5.63-6a6.25,6.25,0,0,0-1.87-2.12c-.28-.19-2.39-1.25-2.42-1l1.24-16.41Z"/><path class="cls-8" d="M217,190H161.15a38.32,38.32,0,0,1,10.71-11.38h34.45A38.2,38.2,0,0,1,217,190Z"/><path class="cls-9" d="M206.31,178.57H171.86a29.81,29.81,0,0,1,34.45,0Z"/><path class="cls-8" d="M223.81,210.11H154.36a48.24,48.24,0,0,1,2.58-11.39h64.3A48.73,48.73,0,0,1,223.81,210.11Z"/><path class="cls-9" d="M221.24,198.72h-64.3a44.64,44.64,0,0,1,4.21-8.77H217A44.12,44.12,0,0,1,221.24,198.72Z"/><path class="cls-8" d="M223.94,219.49a50,50,0,0,1-2.21,11.38H156.45a48.93,48.93,0,0,1-2.21-11.38Z"/><path class="cls-9" d="M168.67,250h40.84a30.14,30.14,0,0,1-40.84,0Z"/><path class="cls-9" d="M221.73,230.87a46.39,46.39,0,0,1-3.27,7.7H159.71a46.36,46.36,0,0,1-3.26-7.7Z"/><path class="cls-9" d="M224.09,215.5c0,1.35-.05,2.67-.15,4h-69.7c-.11-1.32-.16-2.64-.16-4a50.25,50.25,0,0,1,.28-5.39h69.45A50.25,50.25,0,0,1,224.09,215.5Z"/><path class="cls-8" d="M218.46,238.57a40.23,40.23,0,0,1-9,11.39H168.67a40.26,40.26,0,0,1-9-11.39Z"/><polygon class="cls-8" points="126.51 197.06 185.88 217.96 239.25 198.76 238.65 250.31 185.88 267.9 131.97 250.51 126.51 197.06"/><ellipse class="cls-6" cx="239.9" cy="217.38" rx="7.69" ry="9.21"/><ellipse class="cls-6" cx="129.71" cy="218.37" rx="7.69" ry="9.21"/><path class="cls-9" d="M186.68,218s-35.92-24.67-41.83-24.49-13.3,5.1-13.3,5.1Z"/><path class="cls-9" d="M185.88,267.9s.14-50.07.42-50.32c3.54-3.23,28.76-25.7,43.11-24.68l6.94,6.78L186,217.83"/><path class="cls-9" d="M133.35,74.3c-.41.84,7,9.29,11.3,14.18a1.1,1.1,0,0,1-1.22,1.76L129.3,84.83a18.34,18.34,0,0,0-5.73-1.51c-3.37-.13-6.49,1.57-9.54,3-14.9,7.11-33,8.88-47.9,1.83A40.17,40.17,0,0,1,44.31,61c-5-20.48,6.58-41.13,26.06-49.18C82.1,7,96.14,5.36,108.54,8.3,140.24,15.82,146.89,48.4,133.35,74.3Z"/><path class="cls-8" d="M74.1,29.4,62.59,52.66a2.1,2.1,0,0,0,.95,2.8L91.76,69.32a2.09,2.09,0,0,0,2.75-.88l12.14-22.36a2.08,2.08,0,0,0-.88-2.85L76.92,28.47A2.09,2.09,0,0,0,74.1,29.4Z"/><path class="cls-6" d="M94.57,68.54l1.32,2.25a2.6,2.6,0,0,0,2.64,1.26l2.51-.39a.2.2,0,0,0,.17-.15l5.57-23.86a.29.29,0,0,0-.54-.21L94.57,68.34A.2.2,0,0,0,94.57,68.54Z"/><line class="cls-4" x1="68.15" y1="42.34" x2="99.28" y2="58.28"/><path class="cls-6" d="M76.91,48l.89-1.86a1.48,1.48,0,0,1,2-.68L90,50.77a1.5,1.5,0,0,1,.64,2l-.93,1.89a1.48,1.48,0,0,1-2,.65L77.56,49.91A1.49,1.49,0,0,1,76.91,48Z"/><path class="cls-4" d="M84.74,32.27l3.36-6.5a1.87,1.87,0,0,1,2.43-.84l12.11,5.45a1.88,1.88,0,0,1,1,2.39l-3,7.6"/><path class="cls-8" d="M125.22,35.72h0A5.08,5.08,0,0,1,127.58,43L112.51,66.65a1.31,1.31,0,0,1-1.69.43L109,66.19a1.32,1.32,0,0,1-.71-1.63l9.9-26.29A5.09,5.09,0,0,1,125.22,35.72Z"/><ellipse class="cls-8" cx="107.86" cy="71.92" rx="2.78" ry="2.97" transform="translate(-3.63 138.07) rotate(-64.38)"/><path class="cls-9" d="M177.27,178.66l5.34,1.39a37.59,37.59,0,0,0,45.88-26.89l3.21-12.28A40.58,40.58,0,0,0,201.14,91a41.43,41.43,0,0,0-4.87-.78A42.81,42.81,0,0,0,150.57,122l-2,7.71A40.14,40.14,0,0,0,177.27,178.66Z"/><path class="cls-7" d="M163.43,100.93a39.56,39.56,0,0,1,8.22,2.44c4.79,2.17,8.54,6.06,11.44,10.37,3.16,4.67,9.8,6.18,15.13,4.93,5.12-1.2,9.13-5,14.44-6.12,4.44-.94,11.44-1.45,15.85-.44,0-.09-.08-.18-.12-.27A40.45,40.45,0,0,0,201.14,91a41.43,41.43,0,0,0-4.87-.78A42.71,42.71,0,0,0,163.43,100.93Z"/><path class="cls-9" d="M194.22,89.38H211a0,0,0,0,1,0,0v.95a3.56,3.56,0,0,1-3.56,3.56h-9.62a3.56,3.56,0,0,1-3.56-3.56v-.95A0,0,0,0,1,194.22,89.38Z" transform="translate(375.51 231.43) rotate(-165.38)"/><path class="cls-9" d="M206.13,90.23s2-10-2-14.71c0,0-1.64,13.76-4,13.16Z"/><circle class="cls-10" cx="204.76" cy="71.18" r="6.13"/><circle class="cls-11" cx="204.76" cy="71.18" r="4.34"/><circle class="cls-12" cx="199.75" cy="141.24" r="8.09"/><circle class="cls-12" cx="162.48" cy="131.52" r="8.09"/><circle class="cls-4" cx="203.52" cy="143.38" r="16.57"/><circle class="cls-4" cx="166.25" cy="133.66" r="16.57"/><line class="cls-4" x1="187.49" y1="139.19" x2="182.29" y2="137.84"/><line class="cls-4" x1="219.56" y1="147.56" x2="226.95" y2="141.77"/><line class="cls-4" x1="150.22" y1="129.47" x2="149.26" y2="127.05"/><path class="cls-9" d="M172.86,161.37s4.9-3.36,7.85,2.12"/></svg>