<svg id="Layer_1" data-name="Layer 1" xmlns="http://www.w3.org/2000/svg" viewBox="0 0 351.16 293.04"><defs><style>.cls-1,.cls-2,.cls-5{fill:#c4cbe0;}.cls-1{opacity:0.25;}.cls-3,.cls-7,.cls-9{fill:#fff;}.cls-4{fill:none;}.cls-10,.cls-13,.cls-4,.cls-5,.cls-6,.cls-8,.cls-9{stroke:#3e6be0;stroke-linecap:round;stroke-linejoin:round;}.cls-6,.cls-8{fill:#3e6be0;}.cls-7{font-size:80.38px;font-family:ArialRoundedMTBold, Arial Rounded MT Bold;}.cls-8{opacity:0.3;}.cls-10{fill:#cad1e6;}.cls-11{fill:#ffc4c4;}.cls-12{fill:#ff6766;}.cls-13{fill:#3e6be6;}</style></defs><path class="cls-1" d="M350.16,260.22a175.11,175.11,0,0,1-2.45,29.25H317.65A145,145,0,1,0,30.56,260.22a146,146,0,0,0,2.95,29.25H3.45a174.59,174.59,0,1,1,346.71-29.25Z"/><path class="cls-2" d="M320.6,259.22a146,146,0,0,1-3,29.25H33.51A145,145,0,1,1,320.6,259.22Z"/><path class="cls-3" d="M263.15,283.82a15.08,15.08,0,0,1-1.06,5.6H146.31a18.46,18.46,0,0,1-1.78-8,18.73,18.73,0,0,1,18.73-18.73,17,17,0,0,1,1.75.09,25.2,25.2,0,0,1,50-6.23,16.34,16.34,0,0,1,26.7,12.63c0,.18,0,.37,0,.55a15,15,0,0,1,6.11-1.28A15.33,15.33,0,0,1,263.15,283.82Z"/><path class="cls-3" d="M137.2,222.84c0,5.83-12.38,3.41-16.48,3.41H66.07A11.25,11.25,0,0,1,65,221.41,11.4,11.4,0,0,1,76.39,210a9.28,9.28,0,0,1,1.06.06,17.14,17.14,0,0,1-.1-1.76,15.34,15.34,0,0,1,30.55-2A10,10,0,0,1,124.16,214c0,.11,0,.23,0,.34a9.08,9.08,0,0,1,3.72-.78A9.33,9.33,0,0,1,137.2,222.84Z"/><circle class="cls-4" cx="132.27" cy="267.75" r="3.09"/><circle class="cls-4" cx="281.54" cy="266.2" r="3.53"/><line class="cls-4" x1="96.2" y1="249.75" x2="103.44" y2="249.75"/><line class="cls-4" x1="99.82" y1="246.13" x2="99.82" y2="253.37"/><line class="cls-4" x1="45.39" y1="185.32" x2="52.63" y2="185.32"/><line class="cls-4" x1="49.01" y1="181.7" x2="49.01" y2="188.94"/><line class="cls-4" x1="247.9" y1="137.15" x2="255.14" y2="137.15"/><line class="cls-4" x1="251.52" y1="133.53" x2="251.52" y2="140.77"/><line class="cls-4" x1="33.7" y1="290.25" x2="73.45" y2="290.25"/><line class="cls-4" x1="88.68" y1="290.28" x2="205.85" y2="290.28"/><line class="cls-4" x1="221.92" y1="290.4" x2="245.18" y2="290.4"/><line class="cls-4" x1="260.79" y1="290.13" x2="280.24" y2="290.13"/><line class="cls-4" x1="296.22" y1="290.43" x2="315.67" y2="290.43"/><path class="cls-5" d="M168.77,113.77v81.41a2.68,2.68,0,0,1-2.68,2.68H16.77a2.68,2.68,0,0,1-2.68-2.68V113.77Z"/><rect class="cls-6" x="14.09" y="102.51" width="154.69" height="12.59" rx="2.68"/><text class="cls-7" transform="translate(68.39 182.06)">?</text><ellipse class="cls-4" cx="179.49" cy="225.35" rx="31.15" ry="37.75"/><path class="cls-8" d="M183.71,219.9a133.74,133.74,0,0,1,26.61-40.54,64,64,0,0,1,29.31-17,1.26,1.26,0,0,1,1.87,1.18c2.5,10.63.67,20.53-3.1,30.54a20.2,20.2,0,0,0,3.19-3.34c1.07-1.17,2.56-2.2,4.13-2a4.16,4.16,0,0,1,3.08,2.74c3.19,8.2-1.59,18.74-6.59,25.12-7.21,9.22-18.06,15-29,18.67a120.67,120.67,0,0,1-12.54,3.49S174.13,244.82,183.71,219.9Z"/><path class="cls-8" d="M175.43,221.09c-6.93-16.35-17.3-32.46-30.09-44.78a66.38,66.38,0,0,0-14.2-10.62c-2.36-1.29-13.42-7.32-15.88-5.2a1.6,1.6,0,0,0-.4.72,36.13,36.13,0,0,0-1.68,14.2c.37,5.78,1.34,13.9,4.41,18.91,0,0-6.06-9.6-9.85-4.8S101.68,228.67,157.5,241C157.5,241,185.54,247.36,175.43,221.09Z"/><path class="cls-5" d="M198.72,185.57a5.12,5.12,0,0,1,1.05.32c3.42,1.41,5.56,5.94,7.86,8.62a109.5,109.5,0,0,1,10,13.35c6,9.65,10.85,22.14,9,33.74-.59,3.77-2.46,7.52-5.72,9.49a11.59,11.59,0,0,1-9.55.81c-4.69-1.57-8.18-4.69-7.69-9.88.75-8,.33-13.18-2.87-20.85-2.28-5.48-4.58-11-7.84-15.95a34.7,34.7,0,0,1-4.39-8,9.27,9.27,0,0,1,.21-6.91A9.92,9.92,0,0,1,198.72,185.57Z"/><path class="cls-5" d="M159.45,189c-.37,0-.72.09-1,.15-3.42.67-5.56,2.83-7.86,4.09a83,83,0,0,0-10,6.35c-6,4.58-10.85,10.51-9,16,.59,1.79,2.46,3.57,5.72,4.5a23.29,23.29,0,0,0,9.55.39c4.69-.75,8.18-2.23,7.69-4.7-.75-3.78-.33-6.25,2.87-9.89a46.15,46.15,0,0,1,7.84-7.58,18.74,18.74,0,0,0,4.39-3.79,2.35,2.35,0,0,0-.22-3.28C167.73,189.73,163,188.64,159.45,189Z"/><path class="cls-5" d="M177.18,262c1.29.52.71,10.76.54,12.19a15.69,15.69,0,0,1-2.34,7.07,8.33,8.33,0,0,1-6.08,3.46,28.73,28.73,0,0,1-8.63-.44,12.85,12.85,0,0,1-4.74-1.55c-2.81-1.91-1.52-5.78.84-7.48.27-.2,3.18-1.88,3.22-1.38l-1.44-19.39Z"/><path class="cls-5" d="M178.47,261.88c-1.29.52-.72,10.76-.54,12.2.41,3.37,1.45,7.74,4.44,9.37,3.22,1.76,8.22,1.5,11.73,1.05,3.67-.46,9.08-2.38,6.52-7.11a7.27,7.27,0,0,0-2.17-2.5c-.32-.23-2.76-1.49-2.79-1.13l1.43-19.4Z"/><path class="cls-6" d="M204.2,202.86H154.48A34.13,34.13,0,0,1,164,192.74h30.66A34,34,0,0,1,204.2,202.86Z"/><path class="cls-9" d="M194.67,192.74H164a26.52,26.52,0,0,1,30.66,0Z"/><path class="cls-6" d="M210.25,220.8H148.44a43.1,43.1,0,0,1,2.29-10.13H208A43.11,43.11,0,0,1,210.25,220.8Z"/><path class="cls-9" d="M208,210.67H150.73a39.92,39.92,0,0,1,3.75-7.81H204.2A39.92,39.92,0,0,1,208,210.67Z"/><path class="cls-6" d="M210.36,229.15a44.26,44.26,0,0,1-2,10.12H150.3a43.73,43.73,0,0,1-2-10.12Z"/><path class="cls-9" d="M161.17,256.27h36.35a26.84,26.84,0,0,1-36.35,0Z"/><path class="cls-9" d="M208.39,239.27a40.74,40.74,0,0,1-2.91,6.86H153.2a40.71,40.71,0,0,1-2.9-6.86Z"/><path class="cls-9" d="M210.49,225.6c0,1.2,0,2.38-.13,3.55h-62c-.09-1.17-.14-2.35-.14-3.55a44.57,44.57,0,0,1,.25-4.8h61.81A47.32,47.32,0,0,1,210.49,225.6Z"/><path class="cls-6" d="M205.48,246.13a36,36,0,0,1-8,10.14H161.17a36,36,0,0,1-8-10.14Z"/><path class="cls-9" d="M183.94,195.61h-6.8a46.31,46.31,0,0,1-46.32-46.31V133.66a50,50,0,0,1,51.92-49.94h0a52.69,52.69,0,0,1,50.64,52.65v9.81A49.44,49.44,0,0,1,183.94,195.61Z"/><path class="cls-10" d="M225.92,109.37c-5.7-.37-11.7-1-17.13-.06-6.38,1.1-12.06,4.57-16.85,8.8-5.22,4.59-13.6,4.31-19.56,1.17-5.73-3-9.33-8.81-15.31-11.78a39.08,39.08,0,0,0-16.11-4,50,50,0,0,1,41.78-19.75,52.58,52.58,0,0,1,43.18,25.65Z"/><path class="cls-9" d="M174.05,81.24h13.5a3.56,3.56,0,0,1,3.56,3.56v2a0,0,0,0,1,0,0H170.49a0,0,0,0,1,0,0v-2A3.56,3.56,0,0,1,174.05,81.24Z"/><path class="cls-9" d="M177,81.24s.79-12.55,6.94-16.92c0,0-2.33,16.92.61,16.92Z"/><circle class="cls-11" cx="184.58" cy="58.97" r="7.55"/><circle class="cls-12" cx="184.58" cy="58.97" r="5.35"/><circle class="cls-13" cx="158.37" cy="147.08" r="9.96"/><circle class="cls-13" cx="205.82" cy="147.08" r="9.96"/><circle class="cls-4" cx="158.37" cy="147.08" r="20.41"/><circle class="cls-4" cx="205.82" cy="147.08" r="20.41"/><line class="cls-4" x1="178.79" y1="147.08" x2="185.41" y2="147.08"/><line class="cls-4" x1="137.96" y1="147.08" x2="130.95" y2="137.88"/><line class="cls-4" x1="226.23" y1="147.08" x2="233" y2="137.88"/><path class="cls-5" d="M144.36,218.26s13,1.41,13.7-11.86-2.56-14.29-6.29-14.56c0,0,.57-15.76-8.1-15.46,0,0-3.42-.56-4,4l.27,10.24s-8.82.29-9.51,11.7,2.37,14.89,2.37,14.89"/><path class="cls-6" d="M57.6,175.25H52.51a2,2,0,0,1-1.85-1.34A20.31,20.31,0,0,0,49,170.11a1.89,1.89,0,0,1,.29-2.22l3.49-3.75a2.75,2.75,0,0,0-.14-3.87l-3.19-3a2.74,2.74,0,0,0-3.87.13l-3.47,3.72a1.94,1.94,0,0,1-2.25.45,18.11,18.11,0,0,0-2.38-.94,2,2,0,0,1-1.38-1.92v-5A2.75,2.75,0,0,0,33.37,151H29a2.74,2.74,0,0,0-2.74,2.74v5.05a2,2,0,0,1-1.37,1.9,18.85,18.85,0,0,0-2.37.94,2,2,0,0,1-2.26-.45l-3.46-3.72a2.74,2.74,0,0,0-3.87-.14l-3.2,3a2.74,2.74,0,0,0-.13,3.87l3.51,3.77a1.85,1.85,0,0,1,.27,2.17,20,20,0,0,0-1.64,3.73,1.92,1.92,0,0,1-1.84,1.32l-5.1,0a2.76,2.76,0,0,0-2.75,2.73v4.37a2.74,2.74,0,0,0,2.73,2.74l5.09,0a1.93,1.93,0,0,1,1.85,1.34,20.19,20.19,0,0,0,1.64,3.78,1.91,1.91,0,0,1-.28,2.23L9.59,196a2.74,2.74,0,0,0,.13,3.87l3.19,3a2.74,2.74,0,0,0,3.87-.13L20.25,199a2,2,0,0,1,2.26-.44,20.66,20.66,0,0,0,2.38.94,2,2,0,0,1,1.38,1.91v5.05A2.74,2.74,0,0,0,29,209.22h4.36a2.75,2.75,0,0,0,2.74-2.73v-5.06a2,2,0,0,1,1.37-1.9,20.08,20.08,0,0,0,2.37-.93,2,2,0,0,1,2.25.44l3.47,3.73a2.74,2.74,0,0,0,3.87.13l3.19-3a2.74,2.74,0,0,0,.14-3.87l-3.51-3.77a1.85,1.85,0,0,1-.27-2.17,21.1,21.1,0,0,0,1.64-3.73,1.92,1.92,0,0,1,1.84-1.32l5.1,0a2.75,2.75,0,0,0,2.74-2.73l0-4.36A2.76,2.76,0,0,0,57.6,175.25Z"/><circle class="cls-9" cx="31.19" cy="180.09" r="9.16"/><circle class="cls-9" cx="22.91" cy="107.68" r="2.28"/><circle class="cls-9" cx="32.22" cy="107.68" r="2.28"/><circle class="cls-9" cx="40.76" cy="107.68" r="2.28"/><line class="cls-4" x1="172.21" y1="175.91" x2="183.69" y2="175.91"/></svg>