<svg id="Layer_1" data-name="Layer 1" xmlns="http://www.w3.org/2000/svg" viewBox="0 0 351.16 293.04"><defs><style>.cls-1,.cls-2,.cls-5{fill:#c4cbe0;}.cls-1{opacity:0.25;}.cls-3,.cls-6{fill:#fff;}.cls-4{fill:none;}.cls-4,.cls-5,.cls-6,.cls-7,.cls-8{stroke:#3e6be0;stroke-linecap:round;stroke-linejoin:round;}.cls-7,.cls-8{fill:#3e6be0;}.cls-8{opacity:0.4;}.cls-9{fill:#ffd9d9;}.cls-10{fill:#ff6766;}</style></defs><path class="cls-1" d="M350.46,260.22A175.11,175.11,0,0,1,348,289.47H318A145,145,0,1,0,30.86,260.22a146,146,0,0,0,3,29.25H3.75a174.59,174.59,0,1,1,346.71-29.25Z"/><path class="cls-2" d="M320.9,259.22A146,146,0,0,1,318,288.47H33.81A145,145,0,1,1,320.9,259.22Z"/><path class="cls-3" d="M261.45,283.82a15.08,15.08,0,0,1-1.06,5.6H144.61a18.46,18.46,0,0,1-1.78-8,18.73,18.73,0,0,1,18.73-18.73,17,17,0,0,1,1.75.09,25.2,25.2,0,0,1,50-6.23A16.34,16.34,0,0,1,240,269.22c0,.18,0,.37,0,.55a15,15,0,0,1,6.11-1.28A15.33,15.33,0,0,1,261.45,283.82Z"/><path class="cls-3" d="M135.51,222.84c0,5.83-12.38,3.41-16.49,3.41H64.37a11.25,11.25,0,0,1-1.08-4.84A11.4,11.4,0,0,1,74.69,210a9.59,9.59,0,0,1,1.07.06,14.72,14.72,0,0,1-.11-1.76,15.34,15.34,0,0,1,30.55-2A10,10,0,0,1,122.46,214c0,.11,0,.23,0,.34a9.08,9.08,0,0,1,3.72-.78A9.34,9.34,0,0,1,135.51,222.84Z"/><circle class="cls-4" cx="211.95" cy="44.9" r="3.09"/><circle class="cls-4" cx="279.84" cy="266.2" r="3.53"/><line class="cls-4" x1="94.5" y1="249.75" x2="101.74" y2="249.75"/><line class="cls-4" x1="98.12" y1="246.13" x2="98.12" y2="253.37"/><line class="cls-4" x1="21.62" y1="135.69" x2="28.86" y2="135.69"/><line class="cls-4" x1="25.24" y1="132.07" x2="25.24" y2="139.31"/><line class="cls-4" x1="246.21" y1="137.15" x2="253.45" y2="137.15"/><line class="cls-4" x1="249.83" y1="133.53" x2="249.83" y2="140.77"/><line class="cls-4" x1="32" y1="290.25" x2="71.76" y2="290.25"/><line class="cls-4" x1="86.98" y1="290.28" x2="204.15" y2="290.28"/><line class="cls-4" x1="220.22" y1="290.4" x2="243.49" y2="290.4"/><line class="cls-4" x1="259.09" y1="290.13" x2="278.55" y2="290.13"/><line class="cls-4" x1="294.52" y1="290.43" x2="313.98" y2="290.43"/><line class="cls-4" x1="103.77" y1="166.89" x2="115.26" y2="166.89"/><path class="cls-5" d="M110,257.8c1.45.58.8,12.08.6,13.69a17.47,17.47,0,0,1-2.62,7.94,9.32,9.32,0,0,1-6.83,3.88,32.24,32.24,0,0,1-9.7-.49,14.68,14.68,0,0,1-5.32-1.74c-3.15-2.15-1.7-6.5.95-8.41.3-.22,3.57-2.1,3.61-1.54l-1.61-21.77Z"/><path class="cls-5" d="M111.43,257.68c-1.44.58-.8,12.08-.6,13.69.46,3.79,1.63,8.7,5,10.53,3.61,2,9.23,1.68,13.18,1.18,4.11-.52,10.19-2.67,7.31-8a8.17,8.17,0,0,0-2.44-2.81c-.36-.25-3.1-1.66-3.13-1.27l1.61-21.77Z"/><path class="cls-5" d="M145,182.76l58.6-78.36a6.56,6.56,0,0,1,8.67-1.67L294.38,153a.82.82,0,0,1,.16,1.27l-63.72,65.35a.8.8,0,0,1-.9.19L145.31,184A.82.82,0,0,1,145,182.76Z"/><rect class="cls-6" x="158.08" y="119.84" width="127.02" height="113.29" rx="6.9" transform="translate(-30.43 47.13) rotate(-11.37)"/><path class="cls-5" d="M257.17,185.15l-7.48,1.18a1.6,1.6,0,0,1-1.69-.92,25,25,0,0,0-3.22-5,1.56,1.56,0,0,1-.11-1.87l4.24-6.32a2.53,2.53,0,0,0-.69-3.5l-5.74-3.85a2.52,2.52,0,0,0-3.5.69l-4.22,6.28a1.59,1.59,0,0,1-1.83.62,25.07,25.07,0,0,0-4-.88,1.67,1.67,0,0,1-1.45-1.38l-1.2-7.42a2.54,2.54,0,0,0-2.89-2.1l-6.82,1.1a2.53,2.53,0,0,0-2.09,2.9l1.19,7.43a1.64,1.64,0,0,1-.94,1.75,25,25,0,0,0-3.5,2.08,1.62,1.62,0,0,1-1.93,0l-6-4.65a2.52,2.52,0,0,0-3.54.44l-4.25,5.44a2.55,2.55,0,0,0,.44,3.55l6,4.71a1.49,1.49,0,0,1,.46,1.73,24.33,24.33,0,0,0-1.49,5.72,1.6,1.6,0,0,1-1.31,1.38l-7.5,1.18a2.54,2.54,0,0,0-2.1,2.89l1.07,6.82a2.54,2.54,0,0,0,2.9,2.1l7.48-1.18a1.61,1.61,0,0,1,1.69.92,24.93,24.93,0,0,0,3.21,5,1.55,1.55,0,0,1,.12,1.87l-4.24,6.32a2.53,2.53,0,0,0,.69,3.51l5.73,3.84a2.53,2.53,0,0,0,3.51-.69l4.22-6.28a1.58,1.58,0,0,1,1.82-.62,25.32,25.32,0,0,0,4,.88,1.68,1.68,0,0,1,1.46,1.38l1.19,7.42a2.53,2.53,0,0,0,2.9,2.1l6.81-1.1a2.53,2.53,0,0,0,2.1-2.9l-1.2-7.43a1.66,1.66,0,0,1,.94-1.75,25,25,0,0,0,3.5-2.08,1.62,1.62,0,0,1,1.93,0l6,4.65a2.53,2.53,0,0,0,3.55-.44l4.24-5.44a2.53,2.53,0,0,0-.44-3.55l-6-4.71a1.48,1.48,0,0,1-.45-1.73,25.21,25.21,0,0,0,1.49-5.72,1.58,1.58,0,0,1,1.31-1.38L259,197a2.54,2.54,0,0,0,2.11-2.89l-1.08-6.82A2.54,2.54,0,0,0,257.17,185.15Z"/><circle class="cls-6" cx="225.61" cy="196.18" r="11.14"/><path class="cls-7" d="M166.51,273.06,221,199.4a7.1,7.1,0,0,1,9.27-1.9l80.48,46.93a.82.82,0,0,1-.26,1.51L167.33,274.35A.82.82,0,0,1,166.51,273.06Z"/><path class="cls-7" d="M145.81,184.21l65.63,27.33a.81.81,0,0,1,.34,1.24l-45.4,61.36a.82.82,0,0,1-1.46-.3L144.7,185.15A.82.82,0,0,1,145.81,184.21Z"/><path class="cls-7" d="M294.15,154.69l-49.68,50.72a.81.81,0,0,0,.17,1.28l66.51,38.75a.82.82,0,0,0,1.22-.86l-16.82-89.47A.82.82,0,0,0,294.15,154.69Z"/><ellipse class="cls-4" cx="111.2" cy="220.97" rx="31.97" ry="38.75"/><path class="cls-8" d="M115.53,215.37a137.22,137.22,0,0,1,27.31-41.61,65.68,65.68,0,0,1,30.08-17.39,1.3,1.3,0,0,1,1.92,1.21c2.57,10.9.69,21.07-3.18,31.34a20.06,20.06,0,0,0,3.27-3.43c1.11-1.2,2.63-2.26,4.25-2a4.26,4.26,0,0,1,3.15,2.81c3.28,8.42-1.63,19.24-6.75,25.79-7.41,9.46-18.55,15.34-29.72,19.16A122.07,122.07,0,0,1,133,234.8S105.7,240.94,115.53,215.37Z"/><path class="cls-8" d="M107,222.7c-7.12-16.78-17.77-33.32-30.89-46a68.39,68.39,0,0,0-14.57-10.91c-2.43-1.32-13.78-7.51-16.31-5.33a1.63,1.63,0,0,0-.41.74,37,37,0,0,0-1.72,14.57c.38,5.93,1.38,14.27,4.53,19.41,0,0-6.22-9.86-10.11-4.93s-6.22,40.18,51.07,52.89C88.63,243.18,117.41,249.66,107,222.7Z"/><path class="cls-5" d="M180.42,207.21a38.56,38.56,0,0,1-5.65,2.8l-19.72,8.43c-3.25,1.39-6.81,2.61-10.25,1.06a21.76,21.76,0,0,1-5-3.57c-6.36-5.48-12.7-11-19.16-16.38a8.88,8.88,0,0,1-1.14-12.5l1.87-2.24c8.51-10.24,23.1,7.69,29.24,12.82,5.73-3.79,12.63-5.65,19-8.18,3.55-1.41,7.72-2.22,11.08-.39a10.28,10.28,0,0,1,1.94,16.53A15.14,15.14,0,0,1,180.42,207.21Z"/><path class="cls-5" d="M40.82,206.51c2.59,1.52,5.61,2.62,7.85,3.69q9.09,4.37,18.38,8.34c12.35,5.28,25.39-11.92,33.8-18.65a8.87,8.87,0,0,0,1.39-12.47l-1.83-2.29a8.88,8.88,0,0,0-12.47-1.38L74.59,194.42c-4.16,3.34-6.25,1-10.38-1.15-5.4-2.84-11.21-5.29-17.34-5.89a10.1,10.1,0,0,0-6,.87,10.19,10.19,0,0,0-3.71,4.43c-1.39,2.71-2.39,5.93-1.27,8.77C36.71,203.61,38.61,205.21,40.82,206.51Z"/><path class="cls-7" d="M136.56,197.89h-51a34.85,34.85,0,0,1,9.78-10.4h31.47A34.85,34.85,0,0,1,136.56,197.89Z"/><path class="cls-6" d="M126.78,187.49H95.31a27.21,27.21,0,0,1,31.47,0Z"/><path class="cls-7" d="M142.77,216.29H79.33a44.39,44.39,0,0,1,2.35-10.4h58.73A44.91,44.91,0,0,1,142.77,216.29Z"/><path class="cls-6" d="M140.41,205.89H81.68a40.76,40.76,0,0,1,3.85-8h51A40.21,40.21,0,0,1,140.41,205.89Z"/><path class="cls-7" d="M142.88,224.86a45.52,45.52,0,0,1-2,10.4H81.23a45.52,45.52,0,0,1-2-10.4Z"/><path class="cls-6" d="M92.4,252.7h37.3a27.56,27.56,0,0,1-37.3,0Z"/><path class="cls-6" d="M140.86,235.26a43.25,43.25,0,0,1-3,7H84.22a43.28,43.28,0,0,1-3-7Z"/><path class="cls-6" d="M143,221.22c0,1.23-.05,2.44-.14,3.64H79.22c-.1-1.2-.15-2.41-.15-3.64a47.16,47.16,0,0,1,.26-4.93h63.44A47.17,47.17,0,0,1,143,221.22Z"/><path class="cls-7" d="M137.88,242.3a36.91,36.91,0,0,1-8.18,10.4H92.4a36.91,36.91,0,0,1-8.18-10.4Z"/><path class="cls-6" d="M114.73,189.07l-6.68.24A45.49,45.49,0,0,1,61,145.47l-.55-15.35a49.08,49.08,0,0,1,49.21-50.84h0a51.75,51.75,0,0,1,51.56,49.9l.34,9.64A48.54,48.54,0,0,1,114.73,189.07Z"/><path class="cls-5" d="M152.92,102.94c-5.62-.16-11.53-.55-16.82.55-6.23,1.29-11.68,4.9-16.24,9.22-5,4.69-13.19,4.71-19.16,1.84-5.73-2.77-9.46-8.33-15.43-11a38.55,38.55,0,0,0-16-3.38,49,49,0,0,1,40.32-20.85,51.56,51.56,0,0,1,35.82,14.57A50.23,50.23,0,0,1,152.92,102.94Z"/><path class="cls-6" d="M102.17,77.41h11a5.1,5.1,0,0,1,5.1,5.1v0a.36.36,0,0,1-.36.36H98.33a.36.36,0,0,1-.36-.36v-.9A4.2,4.2,0,0,1,102.17,77.41Z" transform="translate(-2.79 3.91) rotate(-2.04)"/><path class="cls-6" d="M104.31,77.17c.11-2,.86-11.58,5.56-15.94a.34.34,0,0,1,.57.28c-.26,2.95-1,12.93.5,15.27a.34.34,0,0,1-.27.53l-6,.22A.34.34,0,0,1,104.31,77.17Z"/><circle class="cls-9" cx="110.93" cy="55.41" r="7.42"/><circle class="cls-10" cx="110.93" cy="55.41" r="5.25"/><circle class="cls-7" cx="87.47" cy="147.13" r="9.78"/><circle class="cls-7" cx="134.04" cy="145.47" r="9.78"/><circle class="cls-4" cx="87.93" cy="142.33" r="20.05"/><circle class="cls-4" cx="134.5" cy="140.66" r="20.05"/><line class="cls-4" x1="107.97" y1="141.61" x2="114.47" y2="141.38"/><line class="cls-4" x1="67.89" y1="143.04" x2="60.68" y2="134.26"/><line class="cls-4" x1="154.54" y1="139.95" x2="160.86" y2="130.68"/><path class="cls-4" d="M106,171.28a6.3,6.3,0,0,1,4.57-2.53,6.15,6.15,0,0,1,5.33,2.53"/></svg>