<svg id="Layer_1" data-name="Layer 1" xmlns="http://www.w3.org/2000/svg" viewBox="0 0 351.16 293.04"><defs><style>.cls-1,.cls-2,.cls-6{fill:#c4cbe0;}.cls-1{opacity:0.25;}.cls-3,.cls-7,.cls-8{fill:#fff;}.cls-4{fill:none;}.cls-10,.cls-13,.cls-4,.cls-5,.cls-6,.cls-7,.cls-8,.cls-9{stroke:#3e6be0;stroke-linecap:round;stroke-linejoin:round;}.cls-5,.cls-9{fill:#3e6be0;}.cls-8{opacity:0.83;}.cls-9{opacity:0.3;}.cls-10{fill:#cad1e6;}.cls-11{fill:#ffc4c4;}.cls-12{fill:#ff6766;}.cls-13{fill:#3e6be6;}</style></defs><path class="cls-1" d="M350.16,260.22a175.11,175.11,0,0,1-2.45,29.25H317.65A145,145,0,1,0,30.56,260.22a146,146,0,0,0,2.95,29.25H3.45a174.59,174.59,0,1,1,346.71-29.25Z"/><path class="cls-2" d="M320.6,259.22a146,146,0,0,1-3,29.25H33.51A145,145,0,1,1,320.6,259.22Z"/><path class="cls-3" d="M263.15,283.82a15.08,15.08,0,0,1-1.06,5.6H146.31a18.46,18.46,0,0,1-1.78-8,18.73,18.73,0,0,1,18.73-18.73,17,17,0,0,1,1.75.09,25.2,25.2,0,0,1,50-6.23,16.34,16.34,0,0,1,26.7,12.63c0,.18,0,.37,0,.55a15,15,0,0,1,6.11-1.28A15.33,15.33,0,0,1,263.15,283.82Z"/><path class="cls-3" d="M137.2,222.84c0,5.83-12.38,3.41-16.48,3.41H66.07A11.25,11.25,0,0,1,65,221.41,11.4,11.4,0,0,1,76.39,210a9.28,9.28,0,0,1,1.06.06,17.14,17.14,0,0,1-.1-1.76,15.34,15.34,0,0,1,30.55-2A10,10,0,0,1,124.16,214c0,.11,0,.23,0,.34a9.08,9.08,0,0,1,3.72-.78A9.33,9.33,0,0,1,137.2,222.84Z"/><circle class="cls-4" cx="39.27" cy="265.75" r="3.09"/><circle class="cls-4" cx="281.54" cy="266.2" r="3.53"/><line class="cls-4" x1="96.2" y1="249.75" x2="103.44" y2="249.75"/><line class="cls-4" x1="99.82" y1="246.13" x2="99.82" y2="253.37"/><line class="cls-4" x1="55.39" y1="145.32" x2="62.63" y2="145.32"/><line class="cls-4" x1="59.01" y1="141.7" x2="59.01" y2="148.94"/><line class="cls-4" x1="247.9" y1="137.15" x2="255.14" y2="137.15"/><line class="cls-4" x1="251.52" y1="133.53" x2="251.52" y2="140.77"/><line class="cls-4" x1="33.7" y1="290.25" x2="73.45" y2="290.25"/><line class="cls-4" x1="88.68" y1="290.28" x2="205.85" y2="290.28"/><line class="cls-4" x1="221.92" y1="290.4" x2="245.18" y2="290.4"/><line class="cls-4" x1="260.79" y1="290.13" x2="280.24" y2="290.13"/><line class="cls-4" x1="296.22" y1="290.43" x2="315.67" y2="290.43"/><path class="cls-5" d="M205.86,195.28v17.36a1,1,0,0,1-1,1l-10.5-.19a1,1,0,0,1-1-1v-17a1,1,0,0,1,1-1l10.5-.12A1,1,0,0,1,205.86,195.28Z"/><path class="cls-6" d="M193.36,195.43v17a1,1,0,0,1-1,1l-29-.51a1,1,0,0,1-1-1l.06-16.15a1,1,0,0,1,1-1l29-.33A1,1,0,0,1,193.36,195.43Z"/><path class="cls-6" d="M206.61,194.08l14.87-3.78a1,1,0,0,1,1.24,1v26.54a1,1,0,0,1-1.31.95l-14.86-4.88a1,1,0,0,1-.69-.95V195A1,1,0,0,1,206.61,194.08Z"/><rect class="cls-5" x="222.98" y="188.48" width="4.53" height="31.47" rx="2.27"/><rect class="cls-7" x="194.89" y="201.44" width="9.49" height="4" rx="2"/><circle class="cls-6" cx="202" cy="203.41" r="1.01"/><line class="cls-4" x1="167.02" y1="203.83" x2="191.12" y2="203.83"/><line class="cls-4" x1="167.02" y1="200.47" x2="191.12" y2="200.47"/><line class="cls-4" x1="167.02" y1="207.76" x2="191.12" y2="207.76"/><polygon class="cls-7" points="340.46 260.58 280.42 237.77 238.99 222.03 227.51 217.67 227.51 190.74 238.99 185.4 268.85 171.5 340.2 138.29 340.46 260.58"/><path class="cls-5" d="M268.85,171.5,239,185.4V175.3a3.8,3.8,0,0,1,3.8-3.8Z"/><path class="cls-5" d="M280.42,237.77H242.79A3.8,3.8,0,0,1,239,234V222Z"/><path class="cls-8" d="M299.2,175.3V234a3.8,3.8,0,0,1-3.8,3.8h-15L239,222V185.4l29.86-13.9H295.4A3.8,3.8,0,0,1,299.2,175.3Z"/><circle class="cls-6" cx="269.71" cy="190.23" r="10.43"/><line class="cls-4" x1="248.1" y1="209.84" x2="288.02" y2="209.84"/><line class="cls-4" x1="248.1" y1="219.27" x2="284.88" y2="219.27"/><circle class="cls-5" cx="269.71" cy="188.73" r="3.41"/><path class="cls-5" d="M264,197.58a5.68,5.68,0,1,1,11.35,0"/><path class="cls-9" d="M82.77,203.55c-5.89-13.89-14.7-27.58-25.56-38a56.61,56.61,0,0,0-12.07-9c-2-1.09-11.4-6.21-13.49-4.41a1.33,1.33,0,0,0-.35.61,30.79,30.79,0,0,0-1.42,12.06c.32,4.91,1.14,11.81,3.75,16.06,0,0-5.15-8.15-8.37-4.07S20.11,210,67.53,220.5C67.53,220.5,91.35,225.87,82.77,203.55Z"/><path class="cls-6" d="M127.11,247.85l-1.48,25.56s5,1.45,2.56,6.52c-1.12,2.36-4.74,2.85-7,3.08a33.26,33.26,0,0,1-11.24-.92c-2.75-.71-5.64-1.72-7.59-3.89s-2-5.62-1.51-8.43c.47-2.58,1.21-5.1,1.7-7.68s.57-5.09.86-7.66,1-5.33,3.59-6.26c2.21-.79,8.79.49,11-.3C118.7,247.62,127.07,248.45,127.11,247.85Z"/><path class="cls-6" d="M123,254.09l-1.48,25.56s5,1.45,2.57,6.52c-1.12,2.36-4.74,2.85-7,3.07a32.7,32.7,0,0,1-11.23-.92c-2.76-.7-5.65-1.72-7.6-3.89s-2-5.62-1.51-8.42c.48-2.58,1.21-5.1,1.7-7.68s.57-5.09.87-7.66,1-5.33,3.58-6.26c2.21-.79,8.79.49,11-.3C114.56,253.86,122.94,254.69,123,254.09Z"/><path class="cls-6" d="M124.87,182.82a4.54,4.54,0,0,0-.35.78c-.9,2.74.69,6.33,1.09,9.05a86.51,86.51,0,0,0,2.79,12.75C131,213.9,136,223.13,143.75,228a10.45,10.45,0,0,0,8.54,1.46,9.07,9.07,0,0,0,5.35-5.24c1.46-3.57,1.41-7.23-1.92-9.59-5.1-3.63-8-6.54-10.87-12.34a73.64,73.64,0,0,1-5.43-12.79,27.13,27.13,0,0,0-2.49-6.66,7.27,7.27,0,0,0-4.2-3.41A7.74,7.74,0,0,0,124.87,182.82Z"/><path class="cls-5" d="M141.7,190.85l-62.25-.14a42.44,42.44,0,0,1,12-12.65l38.38.09A42.28,42.28,0,0,1,141.7,190.85Z"/><path class="cls-7" d="M130.3,179.94l-38.21-3.62a33.16,33.16,0,0,1,38.21,3.62Z"/><path class="cls-5" d="M149.73,212.92A278.51,278.51,0,0,1,112,216a280.52,280.52,0,0,1-39.64-2.3,55.6,55.6,0,0,1,1-6.54A51.65,51.65,0,0,1,75.09,201a315.58,315.58,0,0,1,71.64-.72C147.39,202.06,148,204.12,149.73,212.92Z"/><path class="cls-7" d="M146.73,200.26,75.09,201a49.53,49.53,0,0,1,4.6-9.81l62.24-.63A50.24,50.24,0,0,1,146.73,200.26Z"/><path class="cls-5" d="M150,223.38a55.2,55.2,0,0,1-2.34,12.7l-72.73.72a55.68,55.68,0,0,1-2.59-12.65Z"/><path class="cls-7" d="M88.73,257.94l45.5-.45a33.6,33.6,0,0,1-45.5.45Z"/><path class="cls-7" d="M147.63,236.08a51.81,51.81,0,0,1-3.55,8.62l-65.46.66a52.19,52.19,0,0,1-3.72-8.56Z"/><path class="cls-7" d="M150.1,218.93c0,1.5,0,3-.13,4.45q-18.83-.1-38.14.09-20,.19-39.52.68c-.06-.66-.11-1.4-.15-2.2s-.06-1.49-.07-2.24a59.52,59.52,0,0,1,.25-6l77.39-.78A59.3,59.3,0,0,1,150.1,218.93Z"/><path class="cls-5" d="M144.08,244.7a44.83,44.83,0,0,1-9.85,12.79l-45.5.45a44.74,44.74,0,0,1-10.11-12.58Z"/><path class="cls-6" d="M127.18,208.16a4.32,4.32,0,0,0,.54.66c2,2.05,5.95,2.24,8.57,3.11a84.67,84.67,0,0,0,12.64,3.26c8.77,1.49,19.23,1.24,27.06-3.53a10.4,10.4,0,0,0,5.15-7,9,9,0,0,0-2.26-7.13c-2.53-2.92-5.82-4.52-9.43-2.61-5.53,2.92-9.43,4.16-15.92,4.14a74.54,74.54,0,0,1-13.85-.91,26.9,26.9,0,0,0-7.08-.79,7.24,7.24,0,0,0-4.93,2.21A7.77,7.77,0,0,0,127.18,208.16Z"/><path class="cls-9" d="M81.34,214.7c-5.89-13.89-14.7-27.58-25.56-38a56.22,56.22,0,0,0-12.06-9c-2-1.09-11.41-6.22-13.5-4.42a1.4,1.4,0,0,0-.34.62,30.58,30.58,0,0,0-1.42,12.06c.31,4.91,1.14,11.81,3.74,16.06,0,0-5.15-8.15-8.37-4.08s-5.15,33.27,42.28,43.78C66.11,231.65,89.93,237,81.34,214.7Z"/><path class="cls-7" d="M154.3,150.75s-2.55-2.27-5.67,2.4"/><path class="cls-7" d="M115,184.28l5.16-.1a35.14,35.14,0,0,0,34.46-35.82l-.23-11.87a37.92,37.92,0,0,0-40.13-37.12h0a40,40,0,0,0-37.65,40.69l.15,7.44A37.51,37.51,0,0,0,115,184.28Z"/><path class="cls-10" d="M111.67,99.61c2,1.15,4.07,2.08,6.11,3.1.59.27,1.16.55,1.71.85l.69.38c.49.26,1,.54,1.43.84.2.12.41.26.61.4s.44.29.66.45a21.08,21.08,0,0,1,2.16,1.83,28.5,28.5,0,0,1,6.33,9.82c2,4.89,7.8,7.52,12.91,7.4a29.05,29.05,0,0,0,7.42-1.57,37.93,37.93,0,0,0-37.42-23.74C113.41,99.42,112.53,99.49,111.67,99.61Z"/><path class="cls-7" d="M125,107.46a21.08,21.08,0,0,0-2.16-1.83c-.22-.16-.43-.31-.66-.45s-.41-.28-.61-.4c-.47-.3-.94-.58-1.43-.84l-.69-.38c-.55-.3-1.12-.58-1.71-.85"/><path class="cls-7" d="M107.89,96h15.65a0,0,0,0,1,0,0v.66a3.56,3.56,0,0,1-3.56,3.56h-8.53a3.56,3.56,0,0,1-3.56-3.56V96A0,0,0,0,1,107.89,96Z" transform="translate(233.33 193.86) rotate(178.89)"/><path class="cls-7" d="M118.55,95.9s-.79-9.52-5.52-12.74c0,0,2,12.81-.21,12.85Z"/><circle class="cls-11" cx="112.49" cy="79.11" r="5.73"/><circle class="cls-12" cx="112.49" cy="79.11" r="4.06"/><circle class="cls-13" cx="141.02" cy="148" r="7.56"/><circle class="cls-4" cx="134.35" cy="144.7" r="15.49"/><line class="cls-4" x1="154.52" y1="142.73" x2="149.84" y2="144.4"/></svg>