<svg id="Layer_1" data-name="Layer 1" xmlns="http://www.w3.org/2000/svg" viewBox="0 0 351.16 293.04"><defs><style>.cls-1,.cls-2{fill:#c4cbe0;}.cls-1{opacity:0.25;}.cls-11,.cls-3{fill:#fff;}.cls-4,.cls-5,.cls-6,.cls-7{fill:none;}.cls-4,.cls-5{stroke:#6280e1;}.cls-4{stroke-miterlimit:10;}.cls-10,.cls-11,.cls-14,.cls-5,.cls-6,.cls-7,.cls-8,.cls-9{stroke-linecap:round;stroke-linejoin:round;}.cls-6{stroke:#36f;}.cls-10,.cls-11,.cls-14,.cls-7,.cls-8,.cls-9{stroke:#3e6be0;}.cls-10,.cls-8{fill:#3e6be6;}.cls-8{opacity:0.3;}.cls-9{fill:#cad1e6;}.cls-12{fill:#ffc4c4;}.cls-13{fill:#ff6766;}.cls-14{fill:#3e6be0;}</style></defs><path class="cls-1" d="M349.84,259.82a175.11,175.11,0,0,1-2.45,29.25H317.33A145,145,0,1,0,30.24,259.82a146,146,0,0,0,2.95,29.25H3.13a174.59,174.59,0,1,1,346.71-29.25Z"/><path class="cls-2" d="M320.28,259.82a146,146,0,0,1-2.95,29.25H33.19a145,145,0,1,1,287.09-29.25Z"/><path class="cls-3" d="M262.83,283.89a15.08,15.08,0,0,1-1.06,5.6H146a18.46,18.46,0,0,1-1.78-8,18.73,18.73,0,0,1,18.73-18.73,17,17,0,0,1,1.75.09,25.2,25.2,0,0,1,50-6.23,16.34,16.34,0,0,1,26.7,12.63c0,.18,0,.37,0,.55a15,15,0,0,1,6.11-1.28A15.33,15.33,0,0,1,262.83,283.89Z"/><path class="cls-3" d="M136.88,222.44c0,5.83-12.37,3.41-16.48,3.41H65.75A11.25,11.25,0,0,1,64.67,221a11.4,11.4,0,0,1,11.4-11.41,9.59,9.59,0,0,1,1.07.06A14.72,14.72,0,0,1,77,207.9a15.34,15.34,0,0,1,30.55-2,10,10,0,0,1,16.26,7.69c0,.11,0,.23,0,.34a9.08,9.08,0,0,1,3.72-.78A9.33,9.33,0,0,1,136.88,222.44Z"/><circle class="cls-4" cx="132.4" cy="273.81" r="2.95"/><circle class="cls-4" cx="283.53" cy="266.86" r="3.37"/><circle class="cls-4" cx="125.15" cy="193.94" r="2.42"/><circle class="cls-4" cx="60.59" cy="109.6" r="3"/><circle class="cls-4" cx="83.56" cy="60.34" r="2"/><circle class="cls-4" cx="231.01" cy="50.68" r="2.33"/><circle class="cls-4" cx="178.86" cy="261.53" r="1.08"/><line class="cls-5" x1="34.9" y1="289.85" x2="74.65" y2="289.85"/><line class="cls-5" x1="89.88" y1="289.89" x2="207.05" y2="289.89"/><line class="cls-5" x1="223.12" y1="290.01" x2="246.39" y2="290.01"/><line class="cls-5" x1="261.99" y1="289.74" x2="281.44" y2="289.74"/><line class="cls-5" x1="297.42" y1="290.04" x2="316.88" y2="290.04"/><line class="cls-6" x1="86.38" y1="249.72" x2="93.62" y2="249.72"/><line class="cls-6" x1="90" y1="246.1" x2="90" y2="253.34"/><line class="cls-6" x1="45.07" y1="184.92" x2="52.31" y2="184.92"/><line class="cls-6" x1="48.69" y1="181.3" x2="48.69" y2="188.54"/><line class="cls-6" x1="305.59" y1="103" x2="312.83" y2="103"/><line class="cls-6" x1="309.21" y1="99.38" x2="309.21" y2="106.62"/><ellipse class="cls-7" cx="176.85" cy="228.55" rx="31.89" ry="38.64"/><path class="cls-8" d="M181.17,223a137,137,0,0,1,27.23-41.51,65.7,65.7,0,0,1,30-17.34,1.74,1.74,0,0,1,1.21,0,1.69,1.69,0,0,1,.71,1.23c2.56,10.87.68,21-3.17,31.26a20.33,20.33,0,0,0,3.26-3.42c1.1-1.2,2.62-2.25,4.23-2a4.26,4.26,0,0,1,3.15,2.8c3.27,8.4-1.62,19.19-6.74,25.72-7.39,9.43-18.49,15.3-29.64,19.11a123.76,123.76,0,0,1-12.83,3.57S171.36,248.47,181.17,223Z"/><path class="cls-8" d="M172.69,224.18C165.6,207.45,155,191,141.89,178.35a68,68,0,0,0-14.53-10.88c-2.42-1.31-13.74-7.49-16.26-5.32a1.7,1.7,0,0,0-.42.74A37.08,37.08,0,0,0,109,177.43c.38,5.91,1.37,14.23,4.52,19.35,0,0-6.21-9.83-10.09-4.92s-6.2,40.08,50.94,52.75C154.34,244.61,183,251.07,172.69,224.18Z"/><path class="cls-9" d="M176.79,263.51c1.53.6.85,12.49.64,14.15a17.89,17.89,0,0,1-2.77,8.2,9.94,9.94,0,0,1-7.22,4,34.57,34.57,0,0,1-10.25-.51c-1.89-.38-4-.7-5.62-1.79-3.33-2.23-1.8-6.72,1-8.69.32-.23,3.77-2.17,3.82-1.59l-1.7-22.5Z"/><path class="cls-9" d="M178.32,263.39c-1.53.6-.85,12.48-.64,14.15.49,3.91,1.73,9,5.27,10.87,3.82,2,9.76,1.74,13.93,1.22,4.35-.54,10.77-2.75,7.73-8.25a8.47,8.47,0,0,0-2.58-2.9c-.38-.26-3.27-1.73-3.3-1.32l1.7-22.5Z"/><path class="cls-9" d="M196.53,187.82a6.74,6.74,0,0,1,1.08.33c3.49,1.45,5.68,6.09,8,8.82a113,113,0,0,1,10.27,13.67c6.18,9.88,11.1,22.67,9.24,34.54-.61,3.86-2.52,7.69-5.86,9.71a11.83,11.83,0,0,1-9.77.83c-4.8-1.61-8.38-4.79-7.87-10.12.77-8.15.33-13.49-2.94-21.33-2.34-5.61-4.69-11.25-8-16.33a35.36,35.36,0,0,1-4.49-8.17,9.49,9.49,0,0,1,.22-7.07C188.05,189.42,192.86,187.07,196.53,187.82Z"/><path class="cls-9" d="M156.33,191.4a5.85,5.85,0,0,0-1.08.33c-3.49,1.45-5.68,6.09-8,8.82a113,113,0,0,0-10.27,13.67c-6.18,9.88-11.1,22.67-9.24,34.54.61,3.85,2.52,7.69,5.86,9.71a11.83,11.83,0,0,0,9.77.83c4.8-1.61,8.38-4.8,7.88-10.12-.78-8.15-.34-13.49,2.93-21.34,2.34-5.6,4.69-11.25,8-16.32a35.57,35.57,0,0,0,4.49-8.17,9.49,9.49,0,0,0-.22-7.07C164.81,193,160,190.65,156.33,191.4Z"/><path class="cls-10" d="M202.14,205.53H151.25A34.76,34.76,0,0,1,161,195.16h31.39A34.76,34.76,0,0,1,202.14,205.53Z"/><path class="cls-11" d="M192.39,195.16H161a27.13,27.13,0,0,1,31.39,0Z"/><path class="cls-10" d="M208.33,223.89H145.06a44.11,44.11,0,0,1,2.35-10.38H206A44.11,44.11,0,0,1,208.33,223.89Z"/><path class="cls-11" d="M206,213.51H147.41a40.27,40.27,0,0,1,3.84-8h50.89A40.27,40.27,0,0,1,206,213.51Z"/><path class="cls-10" d="M208.44,232.43a45.26,45.26,0,0,1-2,10.37H147a45.26,45.26,0,0,1-2-10.37Z"/><path class="cls-11" d="M158.09,260.19H195.3a27.47,27.47,0,0,1-37.21,0Z"/><path class="cls-11" d="M206.43,242.8a42.66,42.66,0,0,1-3,7H149.94a42.66,42.66,0,0,1-3-7Z"/><path class="cls-11" d="M208.58,228.8c0,1.23,0,2.44-.14,3.63H145c-.1-1.19-.14-2.4-.14-3.63a46.65,46.65,0,0,1,.25-4.91h63.27A46.65,46.65,0,0,1,208.58,228.8Z"/><path class="cls-10" d="M203.45,249.82a36.68,36.68,0,0,1-8.15,10.37H158.09a36.68,36.68,0,0,1-8.15-10.37Z"/><path class="cls-11" d="M178.32,196.89h-6a40.72,40.72,0,0,1-40.71-40.72V142.43a43.94,43.94,0,0,1,45.64-43.9h0a46.31,46.31,0,0,1,44.51,46.28v8.62A43.46,43.46,0,0,1,178.32,196.89Z"/><path class="cls-9" d="M215.22,121.08c-5-.32-10.29-.86-15.06,0-5.61,1-10.6,4-14.81,7.73-4.59,4-11.95,3.79-17.2,1-5-2.66-8.2-7.75-13.45-10.36a34.48,34.48,0,0,0-14.16-3.54,43.9,43.9,0,0,1,36.72-17.36,46.17,46.17,0,0,1,31.57,14.18A45.33,45.33,0,0,1,215.22,121.08Z"/><path class="cls-11" d="M170.06,96.36h11a3.56,3.56,0,0,1,3.56,3.56v1.32a0,0,0,0,1,0,0H166.49a0,0,0,0,1,0,0V99.92a3.56,3.56,0,0,1,3.56-3.56Z"/><path class="cls-11" d="M172.24,96.36s.7-11,6.1-14.88c0,0-2,14.88.54,14.88Z"/><circle class="cls-12" cx="178.88" cy="76.78" r="6.64"/><circle class="cls-13" cx="178.88" cy="76.78" r="4.7"/><circle class="cls-10" cx="155.84" cy="161.23" r="8.75"/><circle class="cls-10" cx="197.55" cy="161.23" r="8.75"/><circle class="cls-7" cx="155.84" cy="154.23" r="17.94"/><circle class="cls-7" cx="197.55" cy="154.23" r="17.94"/><line class="cls-7" x1="173.78" y1="154.23" x2="179.61" y2="154.23"/><line class="cls-7" x1="137.9" y1="154.23" x2="131.74" y2="146.14"/><line class="cls-7" x1="215.49" y1="154.23" x2="221.44" y2="146.14"/><path class="cls-11" d="M266.24,77.15a5.92,5.92,0,0,1,10.26,0l20,34.59,20,34.58a5.93,5.93,0,0,1-5.13,8.89H231.43a5.93,5.93,0,0,1-5.13-8.89l20-34.58Z"/><path class="cls-14" d="M271.37,94.37h0a6,6,0,0,1,6.24,6.54l-4,33.1a1.56,1.56,0,0,1-1.58,1.33H269.6A1.56,1.56,0,0,1,268,134l-2.9-33.23A6.05,6.05,0,0,1,271.37,94.37Z"/><ellipse class="cls-14" cx="271.37" cy="142.03" rx="3.52" ry="3.3"/><path class="cls-7" d="M172,290a5.84,5.84,0,0,1,8.38,0"/></svg>