<svg id="Layer_1" data-name="Layer 1" xmlns="http://www.w3.org/2000/svg" viewBox="0 0 351.16 293.04"><defs><style>.cls-1,.cls-10,.cls-11,.cls-2{fill:#c4cbe0;}.cls-1{opacity:0.25;}.cls-13,.cls-14,.cls-3{fill:#fff;}.cls-17,.cls-4,.cls-5,.cls-6{fill:none;}.cls-4,.cls-5{stroke:#6280e1;}.cls-10,.cls-12,.cls-13,.cls-4{stroke-miterlimit:10;}.cls-11,.cls-14,.cls-17,.cls-5,.cls-6,.cls-7,.cls-8{stroke-linecap:round;stroke-linejoin:round;}.cls-6{stroke:#36f;}.cls-7,.cls-8{fill:#3e6be6;}.cls-10,.cls-11,.cls-12,.cls-13,.cls-14,.cls-17,.cls-7,.cls-8{stroke:#3e6be0;}.cls-7{opacity:0.3;}.cls-9{fill:#f9f9f9;}.cls-12,.cls-18{fill:#3e6be0;}.cls-15{fill:#ffd9d9;}.cls-16{fill:#ff6766;}</style></defs><path class="cls-1" d="M349.84,259.82a175.11,175.11,0,0,1-2.45,29.25H317.33A145,145,0,1,0,30.24,259.82a146,146,0,0,0,2.95,29.25H3.13a174.59,174.59,0,1,1,346.71-29.25Z"/><path class="cls-2" d="M320.28,259.82a146,146,0,0,1-2.95,29.25H33.19a145,145,0,1,1,287.09-29.25Z"/><path class="cls-3" d="M262.83,283.89a15.08,15.08,0,0,1-1.06,5.6H146a18.46,18.46,0,0,1-1.78-8,18.73,18.73,0,0,1,18.73-18.73,17,17,0,0,1,1.75.09,25.2,25.2,0,0,1,50-6.23,16.34,16.34,0,0,1,26.7,12.63c0,.18,0,.37,0,.55a15,15,0,0,1,6.11-1.28A15.33,15.33,0,0,1,262.83,283.89Z"/><path class="cls-3" d="M136.88,222.44c0,5.83-12.37,3.41-16.48,3.41H65.75A11.25,11.25,0,0,1,64.67,221a11.4,11.4,0,0,1,11.4-11.41,9.59,9.59,0,0,1,1.07.06A14.72,14.72,0,0,1,77,207.9a15.34,15.34,0,0,1,30.55-2,10,10,0,0,1,16.26,7.69c0,.11,0,.23,0,.34a9.08,9.08,0,0,1,3.72-.78A9.33,9.33,0,0,1,136.88,222.44Z"/><circle class="cls-4" cx="132.4" cy="273.81" r="2.95"/><circle class="cls-4" cx="283.53" cy="266.86" r="3.37"/><circle class="cls-4" cx="125.15" cy="193.94" r="2.42"/><circle class="cls-4" cx="60.59" cy="109.6" r="3"/><circle class="cls-4" cx="83.56" cy="60.34" r="2"/><circle class="cls-4" cx="231.01" cy="50.68" r="2.33"/><circle class="cls-4" cx="178.86" cy="261.53" r="1.08"/><line class="cls-5" x1="34.9" y1="289.85" x2="74.65" y2="289.85"/><line class="cls-5" x1="89.88" y1="289.89" x2="207.05" y2="289.89"/><line class="cls-5" x1="223.12" y1="290.01" x2="246.39" y2="290.01"/><line class="cls-5" x1="261.99" y1="289.74" x2="281.44" y2="289.74"/><line class="cls-5" x1="297.42" y1="290.04" x2="316.88" y2="290.04"/><line class="cls-6" x1="86.38" y1="249.72" x2="93.62" y2="249.72"/><line class="cls-6" x1="90" y1="246.1" x2="90" y2="253.34"/><line class="cls-6" x1="45.07" y1="184.92" x2="52.31" y2="184.92"/><line class="cls-6" x1="48.69" y1="181.3" x2="48.69" y2="188.54"/><line class="cls-6" x1="305.59" y1="103" x2="312.83" y2="103"/><line class="cls-6" x1="309.21" y1="99.38" x2="309.21" y2="106.62"/><path class="cls-7" d="M271.21,233.65a137,137,0,0,1,21.4-44.79A65.63,65.63,0,0,1,320,167.64a1.29,1.29,0,0,1,2.07.94c4,10.43,3.5,20.73,1.06,31.39a19.83,19.83,0,0,0,2.77-3.82c.93-1.34,2.3-2.59,3.93-2.58a4.26,4.26,0,0,1,3.49,2.35c4.37,7.88,1,19.23-3.21,26.39-6.06,10.35-16.27,17.65-26.8,22.93a120.24,120.24,0,0,1-12.24,5.26S264.93,260.24,271.21,233.65Z"/><path class="cls-7" d="M264.64,234.3c-7.09-16.73-17.71-33.22-30.8-45.83a68,68,0,0,0-14.53-10.88c-2.42-1.31-13.74-7.49-16.26-5.32a1.7,1.7,0,0,0-.42.74,37.08,37.08,0,0,0-1.71,14.54c.38,5.91,1.37,14.23,4.52,19.35,0,0-6.21-9.83-10.09-4.91s-6.2,40.07,50.94,52.74C246.29,254.73,275,261.19,264.64,234.3Z"/><path class="cls-8" d="M42.38,128l8,111a6.09,6.09,0,0,0,6.08,5.66H222.26a6.1,6.1,0,0,0,6.08-6.49l-7.18-110.91a6.1,6.1,0,0,0-6.08-5.7l-166.62-.1A6.09,6.09,0,0,0,42.38,128Z"/><path class="cls-9" d="M215.92,230.86H60.77a1.69,1.69,0,0,1-1.69-1.59l-6-92.2a1.7,1.7,0,0,1,1.69-1.82H210.37a1.71,1.71,0,0,1,1.7,1.6l5.55,92.21A1.7,1.7,0,0,1,215.92,230.86Z"/><path class="cls-10" d="M324.87,228.59a31,31,0,0,1-4.58,2.27l-16,6.83c-2.64,1.13-5.52,2.12-8.31.86a17.57,17.57,0,0,1-4.08-2.89c-5.17-4.45-10.3-8.92-15.54-13.28a7.19,7.19,0,0,1-.92-10.13l1.51-1.82c6.9-8.3,18.73,6.24,23.71,10.4,4.64-3.08,10.24-4.59,15.37-6.64,2.87-1.14,6.26-1.8,9-.32a8.34,8.34,0,0,1,1.58,13.41A12.89,12.89,0,0,1,324.87,228.59Z"/><path class="cls-10" d="M211.69,228c2.11,1.24,4.55,2.13,6.37,3q7.37,3.54,14.9,6.75c10,4.29,20.58-9.66,27.4-15.11a7.19,7.19,0,0,0,1.12-10.11L260,210.69a7.2,7.2,0,0,0-10.11-1.12l-10.82,8.66c-3.37,2.7-5.07.82-8.42-.94-4.37-2.3-9.08-4.29-14.05-4.77a6.73,6.73,0,0,0-7.9,4.29c-1.13,2.2-1.93,4.81-1,7.11A8.85,8.85,0,0,0,211.69,228Z"/><path class="cls-11" d="M267.88,268.16c1.22.48.68,10,.51,11.3a14.32,14.32,0,0,1-2.21,6.55,7.93,7.93,0,0,1-5.77,3.2,28.08,28.08,0,0,1-8.18-.4,12.58,12.58,0,0,1-4.49-1.44c-2.66-1.77-1.44-5.36.8-6.93.25-.18,3-1.74,3.05-1.28l-1.36-18Z"/><path class="cls-11" d="M269.1,268.06c-1.22.49-.67,10-.51,11.3.39,3.13,1.38,7.18,4.21,8.69,3.05,1.63,7.79,1.39,11.12,1s8.6-2.2,6.17-6.59a6.83,6.83,0,0,0-2-2.32c-.31-.2-2.62-1.37-2.65-1l1.36-18Z"/><path class="cls-12" d="M289.31,221H247.94a28.21,28.21,0,0,1,7.93-8.42h25.51A28.21,28.21,0,0,1,289.31,221Z"/><path class="cls-13" d="M281.38,212.61H255.87a22,22,0,0,1,25.51,0Z"/><path class="cls-12" d="M294.34,236H242.91a36,36,0,0,1,1.91-8.44h47.61A36,36,0,0,1,294.34,236Z"/><path class="cls-13" d="M292.43,227.52H244.82a32.94,32.94,0,0,1,3.12-6.49h41.37A32.94,32.94,0,0,1,292.43,227.52Z"/><path class="cls-12" d="M294.43,242.9a37.14,37.14,0,0,1-1.63,8.43H244.46a36.61,36.61,0,0,1-1.64-8.43Z"/><path class="cls-13" d="M253.51,265.47h30.24a22.32,22.32,0,0,1-30.24,0Z"/><path class="cls-13" d="M292.8,251.33a34.6,34.6,0,0,1-2.42,5.71h-43.5a33.76,33.76,0,0,1-2.42-5.71Z"/><path class="cls-13" d="M294.55,240c0,1,0,2-.12,3H242.82c-.08-1-.11-2-.11-3,0-1.35.07-2.69.2-4h51.43A37.38,37.38,0,0,1,294.55,240Z"/><path class="cls-12" d="M290.38,257a30,30,0,0,1-6.63,8.43H253.51a29.82,29.82,0,0,1-6.63-8.43Z"/><path class="cls-14" d="M271.61,213.89l-5.42.19A36.88,36.88,0,0,1,228,178.54l-.45-12.45a39.8,39.8,0,0,1,39.9-41.21h0a42,42,0,0,1,41.8,40.45l.28,7.81A39.38,39.38,0,0,1,271.61,213.89Z"/><path class="cls-11" d="M302.57,144.06c-4.55-.13-9.34-.45-13.63.44-5.05,1.05-9.47,4-13.16,7.48-4,3.81-10.7,3.82-15.54,1.49-4.65-2.24-7.67-6.75-12.51-8.95a31.2,31.2,0,0,0-12.94-2.74,39.74,39.74,0,0,1,32.69-16.9,41.81,41.81,0,0,1,29,11.81A41.24,41.24,0,0,1,302.57,144.06Z"/><path class="cls-14" d="M261.13,123.36h9.54a3.78,3.78,0,0,1,3.78,3.78v.38a.27.27,0,0,1-.27.27H258.29a.27.27,0,0,1-.27-.27v-1.05a3.11,3.11,0,0,1,3.11-3.11Z" transform="translate(-4.31 9.58) rotate(-2.04)"/><path class="cls-14" d="M263.17,123.17c.08-1.62.69-9.39,4.5-12.92a.27.27,0,0,1,.46.22c-.21,2.39-.81,10.48.41,12.38a.27.27,0,0,1-.22.43l-4.87.18A.28.28,0,0,1,263.17,123.17Z"/><circle class="cls-15" cx="268.53" cy="105.53" r="6.01"/><circle class="cls-16" cx="268.53" cy="105.53" r="4.26"/><circle class="cls-12" cx="249.51" cy="179.89" r="7.93"/><circle class="cls-12" cx="287.27" cy="178.54" r="7.93"/><circle class="cls-17" cx="249.89" cy="175.99" r="16.25"/><circle class="cls-17" cx="287.64" cy="174.64" r="16.25"/><line class="cls-17" x1="266.13" y1="175.41" x2="271.4" y2="175.22"/><line class="cls-17" x1="233.64" y1="176.57" x2="227.8" y2="169.45"/><line class="cls-17" x1="303.89" y1="174.06" x2="309.01" y2="166.55"/><path class="cls-17" d="M264.55,199.47a5.06,5.06,0,0,1,3.7-2.05,5,5,0,0,1,4.32,2.05"/><path class="cls-18" d="M103.62,174.13l13.49-3.8-1.58-.87L101,195.21c-.71,1.26,1.79.89,2.28.56a16.1,16.1,0,0,1,9.92-2.74,27.42,27.42,0,0,0,5.71-.48l6-.87a23.62,23.62,0,0,0,4.94-.9c1-.39,2.59-1.29,2.46-2.62-.2-2.23-4.47-2.11-4.79,0-.08.51.5.7.9.73a9.58,9.58,0,0,0,8.7-4.35l-2.82.1a3.12,3.12,0,0,0,2.91,3.16c2.05.31,4-.67,5.66-1.67l-2.36-.11c1,2.15,3.62,2.07,5.64,2l4.74-.11a12.62,12.62,0,0,1,2,0,8.52,8.52,0,0,1,2.23.86,6.17,6.17,0,0,0,4,.14c1.62-.35,3.24-.75,4.85-1.13l10-2.34c.47-.11,1.4-.57,1.23-1.19s-1.21-.52-1.66-.41l-8.27,1.94-4.14,1-2.19.52a2.81,2.81,0,0,1-2.21-.33c-2.17-1.08-4.53-.84-6.88-.79-1.29,0-2.58.1-3.87.08-.95,0-2.13-.07-2.58-1.05s-1.75-.46-2.36-.11a4.15,4.15,0,0,1-2.41.92,1.73,1.73,0,0,1-1.42-1.74c.09-1.34-2.4-.56-2.81.09a5.31,5.31,0,0,1-4.88,2.71l.9.73-1.43.48a.48.48,0,0,1,.26.18s.14.24.13.34c0,.47-.61.57-1,.64-1.35.29-2.75.4-4.11.6-2.87.41-5.8,1-8.69,1.25-1.19.08-2.4-.12-3.59-.07a21.07,21.07,0,0,0-10.62,3.53l2.28.57,14.55-25.75c.54-1-1-1-1.57-.87l-13.49,3.8c-.46.13-1.41.55-1.23,1.19s1.22.54,1.66.41Z"/></svg>