<svg id="Layer_1" data-name="Layer 1" xmlns="http://www.w3.org/2000/svg" viewBox="0 0 351.16 293.04"><defs><style>.cls-1,.cls-2,.cls-7{fill:#c4cbe0;}.cls-1{opacity:0.25;}.cls-3,.cls-5{fill:#fff;}.cls-4{fill:none;}.cls-12,.cls-4,.cls-5,.cls-6,.cls-7,.cls-8,.cls-9{stroke:#3e6be0;stroke-linecap:round;stroke-linejoin:round;}.cls-6,.cls-8{fill:#3e6be0;}.cls-6{opacity:0.4;}.cls-9{fill:#cad1e6;}.cls-10{fill:#ffc4c4;}.cls-11{fill:#ff6766;}.cls-12{fill:#3e6be6;}</style></defs><path class="cls-1" d="M349.37,257.2a175.11,175.11,0,0,1-2.45,29.25H316.86a145,145,0,1,0-284.13,0H2.66A174.59,174.59,0,1,1,349.37,257.2Z"/><path class="cls-2" d="M319.81,257.2a146,146,0,0,1-2.95,29.25H32.73A145,145,0,1,1,319.81,257.2Z"/><path class="cls-3" d="M262.36,281.27a15.08,15.08,0,0,1-1.06,5.6H145.52a18.46,18.46,0,0,1-1.78-8,18.73,18.73,0,0,1,18.73-18.73,17,17,0,0,1,1.75.09,25.2,25.2,0,0,1,50-6.23,16.34,16.34,0,0,1,26.7,12.63c0,.18,0,.37,0,.55a15,15,0,0,1,6.11-1.28A15.33,15.33,0,0,1,262.36,281.27Z"/><path class="cls-3" d="M136.42,219.83c0,5.83-12.38,3.41-16.49,3.41H65.28a11.26,11.26,0,0,1-1.08-4.85A11.4,11.4,0,0,1,75.6,207a9.47,9.47,0,0,1,1.07,0,14.59,14.59,0,0,1-.11-1.76,15.35,15.35,0,0,1,30.56-2,9.95,9.95,0,0,1,16.25,7.69c0,.11,0,.22,0,.33a9.25,9.25,0,0,1,3.72-.78A9.34,9.34,0,0,1,136.42,219.83Z"/><circle class="cls-4" cx="140.48" cy="265.72" r="2.95"/><circle class="cls-4" cx="283.06" cy="264.24" r="3.37"/><circle class="cls-4" cx="124.69" cy="191.32" r="2.42"/><circle class="cls-4" cx="114.54" cy="108.51" r="3"/><circle class="cls-4" cx="200.55" cy="48.07" r="2.33"/><circle class="cls-4" cx="178.39" cy="258.91" r="1.08"/><line class="cls-4" x1="34.43" y1="287.24" x2="74.19" y2="287.24"/><line class="cls-4" x1="89.41" y1="287.27" x2="206.58" y2="287.27"/><line class="cls-4" x1="222.65" y1="287.39" x2="245.92" y2="287.39"/><line class="cls-4" x1="261.52" y1="287.12" x2="280.98" y2="287.12"/><line class="cls-4" x1="296.95" y1="287.42" x2="316.41" y2="287.42"/><line class="cls-4" x1="95.41" y1="246.73" x2="102.65" y2="246.73"/><line class="cls-4" x1="99.03" y1="243.11" x2="99.03" y2="250.35"/><line class="cls-4" x1="44.6" y1="182.31" x2="51.84" y2="182.31"/><line class="cls-4" x1="48.22" y1="178.69" x2="48.22" y2="185.93"/><line class="cls-4" x1="238.94" y1="115.8" x2="246.18" y2="115.8"/><line class="cls-4" x1="242.56" y1="112.18" x2="242.56" y2="119.42"/><path class="cls-5" d="M268.12,152.55l38.49,101.73-92.54-2.06,52-99.79A1.12,1.12,0,0,1,268.12,152.55Z"/><path class="cls-6" d="M213.21,216.17a117.77,117.77,0,0,1,22.9-36,56.45,56.45,0,0,1,25.57-15.28,1.55,1.55,0,0,1,1,0,1.48,1.48,0,0,1,.63,1.05c2.33,9.32.84,18.06-2.34,26.91a18.17,18.17,0,0,0,2.76-3,4.42,4.42,0,0,1,3.61-1.8,3.67,3.67,0,0,1,2.74,2.37c2.92,7.18-1.16,16.51-5.48,22.19-6.23,8.2-15.71,13.38-25.24,16.8a104.76,104.76,0,0,1-11,3.22S205.09,238.21,213.21,216.17Z"/><path class="cls-6" d="M216.25,244.87c-6.31-14.3-15.63-28.34-27-39a58.33,58.33,0,0,0-12.63-9.17c-2.09-1.1-11.9-6.27-14-4.38a1.54,1.54,0,0,0-.35.64,31.94,31.94,0,0,0-1.29,12.52c.4,5.08,1.35,12.21,4.12,16.58,0,0-5.46-8.37-8.73-4.1s-4.84,34.52,44.43,44.71C200.72,262.65,225.47,267.86,216.25,244.87Z"/><path class="cls-7" d="M236.37,267.77a5,5,0,0,1-.48.84c-1.89,2.64-6.2,3.58-8.95,5a97,97,0,0,1-13.44,5.95c-9.47,3.26-21.13,4.91-30.72,1.05-3.11-1.25-5.95-3.6-7-6.79A10.17,10.17,0,0,1,177,265.5c2.28-3.71,5.64-6.09,10-4.64,6.68,2.23,11.24,2.9,18.44,1.68A84.05,84.05,0,0,0,220.65,259a30.26,30.26,0,0,1,7.71-2.18,8.18,8.18,0,0,1,5.89,1.55A8.76,8.76,0,0,1,236.37,267.77Z"/><path class="cls-7" d="M243.64,223.71a5.77,5.77,0,0,0-.32-.91c-1.38-3-5.44-4.66-7.88-6.58a96.34,96.34,0,0,0-12.12-8.32c-8.71-5-19.87-8.7-30-6.67-3.29.66-6.51,2.44-8.12,5.39a10.18,10.18,0,0,0-.36,8.42c1.56,4.06,4.43,7,9,6.39,7-1,11.57-.78,18.43,1.74a83.89,83.89,0,0,1,14.32,6.3,30.58,30.58,0,0,0,7.18,3.55,8.16,8.16,0,0,0,6.07-.44A8.76,8.76,0,0,0,243.64,223.71Z"/><path class="cls-8" d="M222.65,265.08l4.77-43.49a29.81,29.81,0,0,1,7.94,9.31l-2.94,26.82A29.77,29.77,0,0,1,222.65,265.08Z"/><path class="cls-5" d="M232.42,257.72l2.94-26.82a23.29,23.29,0,0,1-2.94,26.82Z"/><path class="cls-8" d="M206.38,268.65l5.93-54.07a38.39,38.39,0,0,1,8.65,3l-5.49,50.05A38.1,38.1,0,0,1,206.38,268.65Z"/><path class="cls-5" d="M215.47,267.61,221,217.56a35,35,0,0,1,6.46,4l-4.77,43.49A34.69,34.69,0,0,1,215.47,267.61Z"/><path class="cls-8" d="M199.07,267.94a39.1,39.1,0,0,1-8.67-2.69L196,214.43a39,39,0,0,1,9.05-.74Z"/><path class="cls-5" d="M180.07,222.32l-3.49,31.79a23.6,23.6,0,0,1,3.49-31.79Z"/><path class="cls-5" d="M190.4,265.25a36.45,36.45,0,0,1-5.72-3.2l5-45.73a37.11,37.11,0,0,1,6.28-1.89Z"/><path class="cls-5" d="M202.16,268.4c-1-.11-2.08-.26-3.09-.46l6-54.25c1,0,2.07.1,3.12.22a40.27,40.27,0,0,1,4.17.67l-5.93,54.07A40.29,40.29,0,0,1,202.16,268.4Z"/><path class="cls-8" d="M184.68,262.05a31.57,31.57,0,0,1-8.1-7.94l3.49-31.79a31.56,31.56,0,0,1,9.62-6Z"/><path class="cls-5" d="M241.46,272.18l-3.56-3.44a33.71,33.71,0,0,1-.88-47.67l7.9-8.2a36.39,36.39,0,0,1,52.44.06h0a38.35,38.35,0,0,1-.06,53.18l-5,5.14A36,36,0,0,1,241.46,272.18Z"/><path class="cls-9" d="M307,248.19c-2.81-3.07-5.64-6.42-9-8.68a25.51,25.51,0,0,0-13.28-3.91c-5.05-.22-9.3-4.61-10.84-9.27-1.48-4.47-.44-9.33-2.07-13.9a28.33,28.33,0,0,0-6.41-10.25,36.36,36.36,0,0,1,31.88,10.75A38.28,38.28,0,0,1,308,239.53,37.73,37.73,0,0,1,307,248.19Z"/><path class="cls-5" d="M292.26,210.09h7.89a3.56,3.56,0,0,1,3.56,3.56v.48a0,0,0,0,1,0,0h-15a0,0,0,0,1,0,0v-.48A3.56,3.56,0,0,1,292.26,210.09Z" transform="translate(230.19 -146.17) rotate(43.95)"/><path class="cls-5" d="M295.63,208.75s6.75-6.18,12.18-5.36c0,0-9.77,7.69-8.23,9.18Z"/><circle class="cls-10" cx="310.84" cy="200.89" r="5.5"/><circle class="cls-11" cx="310.84" cy="200.89" r="3.89"/><circle class="cls-12" cx="249.81" cy="236.71" r="7.25"/><circle class="cls-12" cx="274.67" cy="260.68" r="7.25"/><circle class="cls-4" cx="252.59" cy="233.83" r="14.86"/><circle class="cls-4" cx="277.45" cy="257.8" r="14.86"/><line class="cls-4" x1="263.28" y1="244.14" x2="266.75" y2="247.49"/><line class="cls-4" x1="241.89" y1="223.51" x2="242.86" y2="215.15"/><line class="cls-4" x1="288.14" y1="268.11" x2="296.34" y2="266.71"/><path class="cls-5" d="M94,152.82,44.85,271.48a3.75,3.75,0,0,0,3,5.14l45.94,5.9a3.72,3.72,0,0,0,4-2.34l1.36-3.46a3.75,3.75,0,0,1,3.85-2.36L227.4,286.65a3.76,3.76,0,0,0,4-2.76l34.59-129a3.74,3.74,0,0,0-3.62-4.71l-164.89.3A3.77,3.77,0,0,0,94,152.82Z"/><path class="cls-8" d="M246,164.61,236.05,202a1.93,1.93,0,0,1-1.35,1.36L71.91,248.6a1.92,1.92,0,0,1-2.31-2.54l14.56-38a1.9,1.9,0,0,1,1.28-1.16L243.6,162.27A1.92,1.92,0,0,1,246,164.61Z"/><line class="cls-12" x1="247.2" y1="258.87" x2="251.19" y2="262.86"/></svg>