<svg id="Layer_1" data-name="Layer 1" xmlns="http://www.w3.org/2000/svg" viewBox="0 0 351.16 293.04"><defs><style>.cls-1,.cls-2,.cls-7{fill:#c4cbe0;}.cls-1{opacity:0.25;}.cls-3,.cls-9{fill:#fff;}.cls-4{fill:none;}.cls-4,.cls-5,.cls-6,.cls-7,.cls-8,.cls-9{stroke:#3e6be0;stroke-linecap:round;stroke-linejoin:round;}.cls-5,.cls-8{fill:#3e6be0;}.cls-5{opacity:0.4;}.cls-6{fill:#cad1e6;}.cls-10{fill:#ffc4c4;}.cls-11{fill:#ff6766;}</style></defs><path class="cls-1" d="M349.29,258.65a175.11,175.11,0,0,1-2.45,29.25H316.78A145,145,0,1,0,29.69,258.65a146,146,0,0,0,2.95,29.25H2.58a174.59,174.59,0,1,1,346.71-29.25Z"/><path class="cls-2" d="M319.73,258.65a146,146,0,0,1-3,29.25H32.64a145,145,0,1,1,287.09-29.25Z"/><path class="cls-3" d="M262.28,282.72a15.08,15.08,0,0,1-1.06,5.6H145.44a18.46,18.46,0,0,1-1.78-8,18.73,18.73,0,0,1,18.73-18.73,17,17,0,0,1,1.75.09,25.2,25.2,0,0,1,50-6.23,16.34,16.34,0,0,1,26.7,12.63c0,.18,0,.37,0,.55a15,15,0,0,1,6.11-1.28A15.33,15.33,0,0,1,262.28,282.72Z"/><path class="cls-3" d="M136.34,221.27c0,5.84-12.38,3.41-16.49,3.41H65.2a11.18,11.18,0,0,1-1.08-4.84,11.41,11.41,0,0,1,11.4-11.41,9.59,9.59,0,0,1,1.07.06,14.59,14.59,0,0,1-.11-1.76,15.34,15.34,0,0,1,30.55-2,9.95,9.95,0,0,1,16.26,7.69c0,.1,0,.22,0,.33a9.08,9.08,0,0,1,3.72-.78A9.34,9.34,0,0,1,136.34,221.27Z"/><circle class="cls-4" cx="140.4" cy="267.16" r="2.95"/><circle class="cls-4" cx="282.98" cy="265.69" r="3.37"/><circle class="cls-4" cx="124.61" cy="192.77" r="2.42"/><circle class="cls-4" cx="60.04" cy="108.43" r="3"/><circle class="cls-4" cx="83.01" cy="59.17" r="2"/><circle class="cls-4" cx="230.46" cy="49.51" r="2.33"/><circle class="cls-4" cx="178.31" cy="260.36" r="1.08"/><line class="cls-4" x1="34.35" y1="288.69" x2="74.1" y2="288.69"/><line class="cls-4" x1="89.33" y1="288.72" x2="206.5" y2="288.72"/><line class="cls-4" x1="222.57" y1="288.84" x2="245.84" y2="288.84"/><line class="cls-4" x1="261.44" y1="288.57" x2="280.89" y2="288.57"/><line class="cls-4" x1="296.87" y1="288.87" x2="316.33" y2="288.87"/><line class="cls-4" x1="95.33" y1="248.18" x2="102.57" y2="248.18"/><line class="cls-4" x1="98.95" y1="244.56" x2="98.95" y2="251.8"/><line class="cls-4" x1="44.52" y1="183.75" x2="51.76" y2="183.75"/><line class="cls-4" x1="48.14" y1="180.13" x2="48.14" y2="187.37"/><line class="cls-4" x1="247.04" y1="168.83" x2="254.28" y2="168.83"/><line class="cls-4" x1="250.66" y1="165.21" x2="250.66" y2="172.45"/><ellipse class="cls-4" cx="172.23" cy="231.92" rx="25.89" ry="31.38"/><path class="cls-5" d="M175.74,227.39a111.11,111.11,0,0,1,22.11-33.7,53.31,53.31,0,0,1,24.36-14.09,1.44,1.44,0,0,1,1,0,1.38,1.38,0,0,1,.58,1c2.08,8.83.55,17.06-2.57,25.38a16.58,16.58,0,0,0,2.64-2.78,4.22,4.22,0,0,1,3.44-1.65,3.46,3.46,0,0,1,2.55,2.28c2.66,6.81-1.31,15.58-5.47,20.88-6,7.66-15,12.42-24.06,15.52a101.82,101.82,0,0,1-10.42,2.9S167.77,248.09,175.74,227.39Z"/><path class="cls-5" d="M168.86,233.32c-5.76-13.59-14.38-27-25-37.22a55.26,55.26,0,0,0-11.8-8.83c-2-1.07-11.16-6.08-13.21-4.32a1.31,1.31,0,0,0-.33.6,30,30,0,0,0-1.39,11.8c.31,4.8,1.11,11.56,3.66,15.71,0,0-5-8-8.18-4s-5,32.55,41.35,42.83C154,249.9,177.26,255.15,168.86,233.32Z"/><path class="cls-6" d="M171.05,266.73c1.11.44.61,9.11.46,10.32a13.07,13.07,0,0,1-2,6,7.22,7.22,0,0,1-5.27,2.92,25.32,25.32,0,0,1-7.47-.37,11.08,11.08,0,0,1-4.1-1.31c-2.43-1.62-1.31-4.89.73-6.33.23-.17,2.75-1.59,2.78-1.16l-1.24-16.41Z"/><path class="cls-6" d="M172.16,266.64c-1.12.44-.62,9.11-.47,10.32.36,2.85,1.26,6.55,3.85,7.93,2.78,1.49,7.12,1.27,10.15.89s7.86-2,5.64-6a6.17,6.17,0,0,0-1.88-2.12c-.28-.18-2.39-1.25-2.41-.95l1.24-16.41Z"/><path class="cls-7" d="M188.21,203.85a5,5,0,0,1,.88.26c2.83,1.18,4.62,4.95,6.53,7.17a90.81,90.81,0,0,1,8.33,11.1c5,8,9,18.4,7.51,28-.49,3.13-2,6.25-4.76,7.88a9.56,9.56,0,0,1-7.93.68c-3.9-1.3-6.8-3.89-6.4-8.21.63-6.63.28-11-2.38-17.33a78.71,78.71,0,0,0-6.52-13.25,28.64,28.64,0,0,1-3.64-6.64,7.69,7.69,0,0,1,.17-5.74A8.26,8.26,0,0,1,188.21,203.85Z"/><path class="cls-7" d="M155.57,204.52a4.31,4.31,0,0,0-.87.24c-2.84,1.07-4.62,4.5-6.53,6.52a85.1,85.1,0,0,0-8.34,10.11c-5,7.3-9,16.76-7.5,25.53a10,10,0,0,0,4.75,7.18,10.54,10.54,0,0,0,7.94.62c3.89-1.19,6.8-3.55,6.39-7.49-.63-6-.27-10,2.38-15.77a70,70,0,0,1,6.52-12.07,25.67,25.67,0,0,0,3.65-6,6.43,6.43,0,0,0-.18-5.23C162.45,205.7,158.55,204,155.57,204.52Z"/><path class="cls-8" d="M192.77,218.23H151.45a27.93,27.93,0,0,1,7.92-8.42h25.48A28.18,28.18,0,0,1,192.77,218.23Z"/><path class="cls-9" d="M184.85,209.81H159.37a22,22,0,0,1,25.48,0Z"/><path class="cls-8" d="M197.79,233.13H146.42a36,36,0,0,1,1.91-8.42h47.56A36,36,0,0,1,197.79,233.13Z"/><path class="cls-9" d="M195.89,224.71H148.33a32.59,32.59,0,0,1,3.12-6.48h41.32A32.59,32.59,0,0,1,195.89,224.71Z"/><path class="cls-8" d="M197.89,240.07a37.16,37.16,0,0,1-1.64,8.42H148a37.16,37.16,0,0,1-1.63-8.42Z"/><path class="cls-9" d="M157,262.61h30.21a22.31,22.31,0,0,1-30.21,0Z"/><path class="cls-9" d="M196.25,248.49a34.86,34.86,0,0,1-2.42,5.7H150.38a34.86,34.86,0,0,1-2.42-5.7Z"/><path class="cls-9" d="M198,237.12c0,1,0,2-.11,2.95H146.33c-.08-1-.11-1.95-.11-2.95a37.54,37.54,0,0,1,.2-4h51.37A37.52,37.52,0,0,1,198,237.12Z"/><path class="cls-8" d="M193.83,254.19a29.61,29.61,0,0,1-6.62,8.42H157a30,30,0,0,1-6.62-8.42Z"/><path class="cls-9" d="M177.62,210.56h-5.18a35.23,35.23,0,0,1-35.23-35.23V163.44a38,38,0,0,1,39.49-38h0a40.07,40.07,0,0,1,38.52,40V173A37.6,37.6,0,0,1,177.62,210.56Z"/><path class="cls-6" d="M209.55,145c-4.34-.27-8.9-.74-13,0-4.86.83-9.17,3.48-12.82,6.69-4,3.5-10.34,3.29-14.88.9-4.36-2.3-7.09-6.71-11.64-9a29.68,29.68,0,0,0-12.26-3.06,38,38,0,0,1,31.78-15A40.08,40.08,0,0,1,209.55,145Z"/><path class="cls-9" d="M170.95,123.56h8.56a3.56,3.56,0,0,1,3.56,3.56v.67a0,0,0,0,1,0,0H167.39a0,0,0,0,1,0,0v-.67A3.56,3.56,0,0,1,170.95,123.56Z"/><path class="cls-9" d="M172.36,123.56s.6-9.55,5.28-12.87c0,0-1.77,12.87.46,12.87Z"/><circle class="cls-10" cx="178.1" cy="106.62" r="5.74"/><circle class="cls-11" cx="178.1" cy="106.62" r="4.07"/><circle class="cls-8" cx="158.17" cy="179.58" r="7.58"/><circle class="cls-8" cx="194.26" cy="179.58" r="7.58"/><circle class="cls-4" cx="158.17" cy="173.64" r="15.53"/><circle class="cls-4" cx="194.26" cy="173.64" r="15.53"/><line class="cls-4" x1="173.69" y1="173.64" x2="178.73" y2="173.64"/><line class="cls-4" x1="142.64" y1="173.64" x2="137.31" y2="166.64"/><line class="cls-4" x1="209.78" y1="173.64" x2="214.93" y2="166.64"/><path class="cls-4" d="M172.36,197.84a3.83,3.83,0,0,1,6.5,0"/><path class="cls-4" d="M149.54,17.34s-69.29-26.86-87,58c0,0-27.57,123,130.81,203.63"/><path class="cls-7" d="M176.32,23.15c-1.19,8.12-8.83,13.15-15.94,15.78-6,2.22-18.49,5.68-22.61-1.3-1.87-3.18-1.9-7.36-1.5-10.91,1.63-14.59,20.25-19.58,32.55-15.95a10.76,10.76,0,0,1,4.59,2.66A11.3,11.3,0,0,1,176.32,23.15Z"/><path class="cls-8" d="M149.51,41.26a4.83,4.83,0,0,0,.1.61v0a7.5,7.5,0,0,1,.24,1.88,19.32,19.32,0,0,1-.91,3.91,32.38,32.38,0,0,1-1.45,3.85s0,0,0,0a0,0,0,0,1,0,0h0c-.56,1.24-1.17,2.44-1.84,3.61a62.52,62.52,0,0,1-10,13,54,54,0,0,1-24.14,14.58,27.72,27.72,0,0,1-9.51,1c-5.4-.4-16.54-3.55-12.48-11s13.79-9.13,21.4-10.67c8.88-1.79,17.94-4.26,25.29-9.78a33.79,33.79,0,0,0,7.31-7.36c.14-.2,1.86-3.26,1.94-3.26,1,.12,2.9.46,3.72-.3"/><path class="cls-8" d="M150,41.2a1.25,1.25,0,0,0-.35.67v0c-.69,3.22-1.34,6.47-2.12,9.64,0,0,0,0,0,0a0,0,0,0,1,0,0c-2.36,9.65-5.86,18.68-14.83,24.75-6.33,4.28-13.64,7.78-19.28,13-3,2.8-5.32,8.66-.91,11.34,12.57,7.65,28.88-3.92,37-13.23A49,49,0,0,0,161.1,61.19h0a48.91,48.91,0,0,0-1-17.7c-.09-.36-.93-3.76-1.2-4.39"/><path class="cls-8" d="M176.43,22.2a.06.06,0,0,0,0,0,2.09,2.09,0,0,0,.28.49c.76.91,2.34.75,3.75.81a93.71,93.71,0,0,0,11.6-.6c1.67-.12,3.37-.22,5.05-.37s3.43-.31,5.12-.57c8.73-1.42,17.39-3.72,25.25-7.87,3-1.58,8.16-4.78,7-8.93-1.28-4.46-6-5.18-10-4.75a51.25,51.25,0,0,0-20,6.48c-6,3.42-11.73,7.4-18.36,9.43a44.23,44.23,0,0,1-4.33,1.09c-1.42.29-3.39.41-4.6,1.17a2.22,2.22,0,0,0-.85.87"/><path class="cls-8" d="M176.2,26.87c0,.52,4.23,2.45,4.64,2.67,21.7,11.62,51.26,17.29,72.16.75a10.5,10.5,0,0,0,2.75-2.89c5.34-9.24-15.92-9.1-20.3-8.85-6.66.37-13.06,2-19.59,3.16s-13.38,1.07-20.06.82c-6.22-.22-13.29-1.38-19.39.27Z"/><path class="cls-4" d="M174.59,28.16h0l1.61-1.27"/><path class="cls-8" d="M176.72,22.73l-.32.34v-.26A1.57,1.57,0,0,1,176.72,22.73Z"/><path class="cls-8" d="M259,67.71c-2.74,5.06-8.23,8.13-13.35,10.31-14.51,6.17-34.34,9-49.13,2.33A51.22,51.22,0,0,1,179.8,68h0a65.7,65.7,0,0,1-9.7-14c-1-1.87-8.08-14.25-7-16.66a32,32,0,0,0,9.44-6.49,13.86,13.86,0,0,0,3.78-7.73l.08-.08-.19,3.8h0c-1,1.51,19.23,10.87,21.21,11.58a128.91,128.91,0,0,0,26.2,6.28c6.69.9,13.47.66,20.19,1.33,5.1.5,11.33,2.08,14.68,6.32S261.47,63.08,259,67.71Z"/><path class="cls-8" d="M163.37,37.25c3.32,5.58,6.39,11.3,9.37,17.07,2.31,4.45,4.95,9,7,13.66h0c2.35,5.24,4,10.71,3.82,16.54-.35,9.64-5.53,18.81-12.3,25.47-5.28,5.2-13.74,10-20.76,5.07a13,13,0,0,1-4.88-15.24c1.89-5,6.08-8.72,8.85-13.22a42.09,42.09,0,0,0,5.58-14.68,68.74,68.74,0,0,0,1-10.74h0a104,104,0,0,0-2.27-22.08"/><ellipse class="cls-7" cx="141.27" cy="249.07" rx="6.17" ry="7.41" transform="translate(-119.54 367.26) rotate(-84.82)"/></svg>