<svg id="Layer_1" data-name="Layer 1" xmlns="http://www.w3.org/2000/svg" viewBox="0 0 351.16 293.04"><defs><style>.cls-1{fill:none;}.cls-1,.cls-2,.cls-6,.cls-7,.cls-8,.cls-9{stroke:#3e6be0;stroke-linecap:round;stroke-linejoin:round;}.cls-2,.cls-8{fill:#3e6be0;}.cls-3,.cls-4,.cls-6{fill:#c4cbe0;}.cls-3{opacity:0.25;}.cls-5,.cls-7,.cls-9{fill:#fff;}.cls-8{opacity:0.3;}.cls-9{font-size:24px;font-family:ZohoPuvi-Extrabold, Zoho Puvi;font-weight:800;}.cls-10{fill:#ffd9d9;}.cls-11{fill:#ff6766;}</style></defs><line class="cls-1" x1="33.95" y1="289.85" x2="73.7" y2="289.85"/><line class="cls-1" x1="88.93" y1="289.89" x2="206.1" y2="289.89"/><line class="cls-1" x1="222.17" y1="290.01" x2="245.43" y2="290.01"/><line class="cls-1" x1="261.03" y1="289.74" x2="280.49" y2="289.74"/><line class="cls-1" x1="296.47" y1="290.04" x2="315.92" y2="290.04"/><rect class="cls-2" x="326.03" y="118.9" width="3.98" height="12.42" rx="1.99" transform="translate(128.12 -163.49) rotate(34.41)"/><circle class="cls-2" cx="322.72" cy="132.84" r="1.74"/><path class="cls-3" d="M350.41,259.82A175.11,175.11,0,0,1,348,289.07H317.9A145,145,0,1,0,30.81,259.82a146,146,0,0,0,2.95,29.25H3.7a174.59,174.59,0,1,1,346.71-29.25Z"/><path class="cls-4" d="M320.85,258.82a146,146,0,0,1-3,29.25H33.76a145,145,0,1,1,287.09-29.25Z"/><path class="cls-5" d="M263.4,283.43a15.08,15.08,0,0,1-1.06,5.6H146.56a18.46,18.46,0,0,1-1.78-8,18.73,18.73,0,0,1,18.73-18.73,17,17,0,0,1,1.75.09,25.2,25.2,0,0,1,50-6.23A16.34,16.34,0,0,1,242,268.83c0,.18,0,.37,0,.55a15,15,0,0,1,6.11-1.28A15.33,15.33,0,0,1,263.4,283.43Z"/><path class="cls-5" d="M137.45,222.45c0,5.83-12.38,3.41-16.48,3.41H66.32A11.27,11.27,0,0,1,65.23,221a11.4,11.4,0,0,1,11.41-11.4c.36,0,.71,0,1.06,0a16.82,16.82,0,0,1-.1-1.76,15.34,15.34,0,0,1,30.55-2,9.95,9.95,0,0,1,16.25,7.69v.34a9.08,9.08,0,0,1,3.72-.78A9.33,9.33,0,0,1,137.45,222.45Z"/><circle class="cls-1" cx="132.52" cy="267.35" r="3.09"/><circle class="cls-1" cx="281.79" cy="265.81" r="3.53"/><line class="cls-1" x1="96.45" y1="249.36" x2="103.69" y2="249.36"/><line class="cls-1" x1="100.07" y1="245.74" x2="100.07" y2="252.98"/><line class="cls-1" x1="45.64" y1="184.93" x2="52.88" y2="184.93"/><line class="cls-1" x1="49.26" y1="181.31" x2="49.26" y2="188.55"/><line class="cls-1" x1="248.15" y1="136.76" x2="255.39" y2="136.76"/><line class="cls-1" x1="251.77" y1="133.14" x2="251.77" y2="140.38"/><path class="cls-6" d="M136.58,264.92l-.21,16.21s-2.78-.71-2.54,3c.09,1.42,1.8,2.42,2.9,3a18.72,18.72,0,0,0,6.24,1.93c2.53.34,5.32.28,7.57-1.09a4.28,4.28,0,0,0,1.81-1.93,6.6,6.6,0,0,0,.29-2.39l.13-2.82c0-5,.58-9.85.19-14.82,0-.41,0-1.37-.36-1.68C151.49,263.39,136.58,264.92,136.58,264.92Z"/><path class="cls-6" d="M156.45,264.81,156.24,281s-2.78-.71-2.55,3c.09,1.41,1.81,2.41,2.9,3a18.78,18.78,0,0,0,6.25,1.93c2.07.28,6.79.63,8-1.66a3,3,0,0,0,.27-.82,27,27,0,0,0,.5-5.75c0-4.95.59-9.85.2-14.81,0-.42,0-1.38-.36-1.69C170.35,263.28,156.45,264.81,156.45,264.81Z"/><path class="cls-6" d="M171,216.91a3.61,3.61,0,0,1,.79.24c2.54,1,4.14,4.44,5.86,6.43a81.62,81.62,0,0,1,7.49,10c4.51,7.2,8.1,16.53,6.74,25.19a10,10,0,0,1-4.27,7.08,8.67,8.67,0,0,1-7.13.61c-3.5-1.18-6.11-3.5-5.74-7.38.56-6,.24-9.84-2.14-15.57a71.44,71.44,0,0,0-5.86-11.9,25.82,25.82,0,0,1-3.27-6,6.92,6.92,0,0,1,.16-5.16A7.39,7.39,0,0,1,171,216.91Z"/><path class="cls-6" d="M139.13,218.77a3.52,3.52,0,0,0-.78.24c-2.55,1.05-4.15,4.44-5.87,6.43a82.58,82.58,0,0,0-7.48,10c-4.51,7.2-8.1,16.53-6.74,25.19a9.93,9.93,0,0,0,4.27,7.08,8.64,8.64,0,0,0,7.12.61c3.5-1.18,6.11-3.5,5.75-7.38-.57-6-.25-9.84,2.14-15.56a71.11,71.11,0,0,1,5.85-11.91,25.58,25.58,0,0,0,3.27-5.95,6.92,6.92,0,0,0-.15-5.16A7.41,7.41,0,0,0,139.13,218.77Z"/><path class="cls-2" d="M172.54,229.07H135.43a25.39,25.39,0,0,1,7.11-7.56h22.89A25.39,25.39,0,0,1,172.54,229.07Z"/><path class="cls-7" d="M165.43,221.51H142.54a19.81,19.81,0,0,1,22.89,0Z"/><path class="cls-2" d="M177.06,242.46H130.92a32.3,32.3,0,0,1,1.71-7.56h42.71A31.81,31.81,0,0,1,177.06,242.46Z"/><path class="cls-7" d="M175.34,234.9H132.63a29.6,29.6,0,0,1,2.8-5.83h37.11A29.6,29.6,0,0,1,175.34,234.9Z"/><path class="cls-2" d="M177.14,248.69a33.53,33.53,0,0,1-1.47,7.56H132.3a33.53,33.53,0,0,1-1.47-7.56Z"/><path class="cls-7" d="M140.42,268.94h27.13a20,20,0,0,1-27.13,0Z"/><path class="cls-7" d="M175.67,256.25a30.75,30.75,0,0,1-2.17,5.12h-39a30.75,30.75,0,0,1-2.17-5.12Z"/><path class="cls-7" d="M177.24,246c0,.9,0,1.78-.1,2.65H130.83c-.06-.87-.1-1.75-.1-2.65a32.49,32.49,0,0,1,.19-3.58h46.14A35.17,35.17,0,0,1,177.24,246Z"/><path class="cls-2" d="M173.5,261.37a26.81,26.81,0,0,1-5.95,7.57H140.42a26.81,26.81,0,0,1-5.95-7.57Z"/><path class="cls-8" d="M154.25,248.79a99.84,99.84,0,0,1,19.86-30.27A47.87,47.87,0,0,1,196,205.88a.93.93,0,0,1,1.39.88c1.87,7.93.5,15.32-2.31,22.79a14.4,14.4,0,0,0,2.38-2.49,3.76,3.76,0,0,1,3.09-1.48,3.1,3.1,0,0,1,2.29,2c2.39,6.12-1.18,14-4.91,18.76-5.39,6.88-13.49,11.16-21.62,13.94a88.17,88.17,0,0,1-9.36,2.6S147.09,267.39,154.25,248.79Z"/><path class="cls-8" d="M153.07,249.12c-5.18-12.21-12.92-24.23-22.46-33.43A49.54,49.54,0,0,0,120,207.76c-1.76-1-10-5.46-11.85-3.88a1.07,1.07,0,0,0-.3.54A27,27,0,0,0,106.6,215c.27,4.31,1,10.38,3.29,14.11,0,0-4.53-7.17-7.35-3.58S98,254.77,139.68,264C139.68,264,160.61,268.73,153.07,249.12Z"/><path class="cls-2" d="M309,123.36v39.79a12.62,12.62,0,0,1-12.62,12.62h-28l-23.83,13.39a3,3,0,0,1-4.45-2.84V175.77a12.62,12.62,0,0,1-12.61-12.62V123.36a12.62,12.62,0,0,1,12.61-12.62h56.26A12.62,12.62,0,0,1,309,123.36Z"/><circle class="cls-7" cx="251.01" cy="143.58" r="4.98"/><circle class="cls-7" cx="268.25" cy="143.58" r="4.98"/><circle class="cls-7" cx="286.26" cy="143.58" r="4.98"/><path class="cls-2" d="M283.34,165.62v17.75A5.64,5.64,0,0,0,289,189h12.49l10.63,6a1.36,1.36,0,0,0,2-1.27V189a5.63,5.63,0,0,0,5.63-5.63V165.62a5.63,5.63,0,0,0-5.63-5.63H289A5.64,5.64,0,0,0,283.34,165.62Z"/><path class="cls-7" d="M215.17,174.75a4.78,4.78,0,0,1-4,2.74,4.65,4.65,0,0,1-1.35-.05,5.08,5.08,0,0,1-8.17-1.51L194,177.5l5.07-7a5.09,5.09,0,1,1,4.38-9.18h0a5,5,0,0,1,4.52-2.13,5.13,5.13,0,0,1,4.69,4.6,5,5,0,0,1-1.09,3.64A5.15,5.15,0,0,1,215.17,174.75Z"/><rect class="cls-2" x="319.09" y="115.21" width="3.98" height="12.42" rx="1.99" transform="translate(62.69 -104.56) rotate(20.46)"/><circle class="cls-2" cx="317.81" cy="130.2" r="1.74"/><text class="cls-9" transform="translate(295.35 183.41)">?</text><path class="cls-7" d="M148.5,152.2h7.82a2.93,2.93,0,0,1,2.93,2.93v.41a.21.21,0,0,1-.21.21H146.3a.21.21,0,0,1-.21-.21v-.93a2.41,2.41,0,0,1,2.41-2.41Z" transform="translate(-5.57 5.73) rotate(-2.11)"/><path class="cls-7" d="M150.21,152.05c.07-1.29.55-7.52,3.6-10.35a.22.22,0,0,1,.37.18c-.17,1.91-.65,8.39.33,9.91a.22.22,0,0,1-.17.35l-3.9.14A.22.22,0,0,1,150.21,152.05Z"/><path class="cls-7" d="M157.06,224.74l-4.34.16a29.56,29.56,0,0,1-30.62-28.45l-.37-10a31.88,31.88,0,0,1,31.93-33.06h0a33.61,33.61,0,0,1,33.53,32.38l.23,6.25A31.55,31.55,0,0,1,157.06,224.74Z"/><circle class="cls-10" cx="154.49" cy="137.91" r="4.82"/><circle class="cls-11" cx="154.49" cy="137.91" r="3.41"/><line class="cls-1" x1="126.6" y1="194.87" x2="121.91" y2="189.17"/><line class="cls-1" x1="182.89" y1="192.8" x2="186.99" y2="186.77"/></svg>