<svg id="Layer_1" data-name="Layer 1" xmlns="http://www.w3.org/2000/svg" viewBox="0 0 351.16 293.04"><defs><style>.cls-1,.cls-2,.cls-7{fill:#c4cbe0;}.cls-1{opacity:0.25;}.cls-3,.cls-8{fill:#fff;}.cls-4{fill:none;}.cls-4,.cls-5,.cls-6,.cls-7,.cls-8{stroke:#3e6be0;stroke-linecap:round;stroke-linejoin:round;}.cls-5,.cls-6{fill:#3e6be0;}.cls-6{opacity:0.4;}.cls-9{fill:#ffd9d9;}.cls-10{fill:#ff6766;}</style></defs><path class="cls-1" d="M350,247a175.11,175.11,0,0,1-2.45,29.25H317.53A145,145,0,1,0,30.44,247a146,146,0,0,0,2.95,29.25H3.33A174.59,174.59,0,1,1,350,247Z"/><path class="cls-2" d="M320.48,246a146,146,0,0,1-3,29.25H33.39A145,145,0,1,1,320.48,246Z"/><path class="cls-3" d="M263,270.57a15.08,15.08,0,0,1-1.06,5.6H146.19a18.46,18.46,0,0,1-1.78-8,18.73,18.73,0,0,1,18.73-18.73,17,17,0,0,1,1.75.09,25.2,25.2,0,0,1,50-6.23A16.34,16.34,0,0,1,241.6,256c0,.18,0,.37,0,.55a15,15,0,0,1,6.11-1.28A15.33,15.33,0,0,1,263,270.57Z"/><path class="cls-3" d="M137.09,209.59c0,5.83-12.38,3.41-16.49,3.41H66a11.26,11.26,0,0,1-1.08-4.85,11.4,11.4,0,0,1,11.4-11.4c.36,0,.71,0,1.07.05a14.59,14.59,0,0,1-.11-1.76,15.34,15.34,0,0,1,30.55-2A10,10,0,0,1,124,200.7c0,.11,0,.23,0,.33a9.24,9.24,0,0,1,3.72-.77A9.34,9.34,0,0,1,137.09,209.59Z"/><circle class="cls-4" cx="132.15" cy="254.49" r="3.09"/><circle class="cls-4" cx="281.42" cy="252.95" r="3.53"/><line class="cls-4" x1="96.08" y1="236.5" x2="103.32" y2="236.5"/><line class="cls-4" x1="99.7" y1="232.88" x2="99.7" y2="240.12"/><line class="cls-4" x1="45.27" y1="172.07" x2="52.51" y2="172.07"/><line class="cls-4" x1="48.89" y1="168.45" x2="48.89" y2="175.69"/><line class="cls-4" x1="257.79" y1="143.9" x2="265.03" y2="143.9"/><line class="cls-4" x1="261.41" y1="140.28" x2="261.41" y2="147.52"/><line class="cls-4" x1="33.58" y1="276.99" x2="73.34" y2="276.99"/><line class="cls-4" x1="88.56" y1="277.03" x2="205.73" y2="277.03"/><line class="cls-4" x1="221.8" y1="277.15" x2="245.07" y2="277.15"/><line class="cls-4" x1="260.67" y1="276.88" x2="280.13" y2="276.88"/><line class="cls-4" x1="296.1" y1="277.18" x2="315.56" y2="277.18"/><path class="cls-5" d="M261.76,48.47h0c5.77,0,10.26,4.71,9.62,10.08l-6.12,51a2.4,2.4,0,0,1-2.44,2H259a2.4,2.4,0,0,1-2.45-2.12l-4.46-51.24C251.65,53,256.1,48.47,261.76,48.47Z"/><ellipse class="cls-5" cx="261.76" cy="121.97" rx="5.43" ry="5.09"/><ellipse class="cls-4" cx="177.16" cy="202.26" rx="35.01" ry="42.42"/><path class="cls-6" d="M181.9,196.13a150.34,150.34,0,0,1,29.9-45.56,72,72,0,0,1,32.93-19,2,2,0,0,1,1.33,0,1.93,1.93,0,0,1,.78,1.35c2.81,11.94.74,23.07-3.48,34.31a22.34,22.34,0,0,0,3.58-3.75c1.2-1.32,2.87-2.47,4.64-2.23a4.68,4.68,0,0,1,3.46,3.08c3.59,9.22-1.79,21.06-7.4,28.23-8.11,10.36-20.3,16.8-32.54,21A134.19,134.19,0,0,1,201,217.4S171.13,224.13,181.9,196.13Z"/><path class="cls-6" d="M172.6,197.47c-7.79-18.37-19.45-36.48-33.81-50.32a75,75,0,0,0-16-11.94c-2.66-1.44-15.08-8.22-17.85-5.84a1.87,1.87,0,0,0-.46.81,40.87,40.87,0,0,0-1.88,16c.42,6.49,1.51,15.62,5,21.24,0,0-6.81-10.78-11.07-5.39s-6.81,44,55.92,57.9C152.45,219.89,184,227,172.6,197.47Z"/><path class="cls-7" d="M194,158.34a8.85,8.85,0,0,1,1.27.21c4.15,1,7,5.18,9.94,7.53A111.18,111.18,0,0,1,218,178c7.86,8.68,14.47,20.19,13.16,31.44a12.66,12.66,0,0,1-6.1,9.58,16.68,16.68,0,0,1-11.25,1.65c-5.67-1.09-10.05-3.75-9.84-8.76.31-7.69-.57-12.63-4.92-19.67-3.1-5-6.23-10.1-10.46-14.54-2.13-2.25-4.46-4.57-5.77-7.24a7.32,7.32,0,0,1-.26-6.63C184.25,160.58,189.66,158,194,158.34Z"/><path class="cls-7" d="M154.63,161.48a6,6,0,0,0-1.18.36c-3.83,1.59-6.24,6.68-8.83,9.68a125.64,125.64,0,0,0-11.27,15c-6.78,10.84-12.19,24.88-10.14,37.92.66,4.23,2.76,8.44,6.43,10.65a13,13,0,0,0,10.72.92c5.27-1.77,9.2-5.27,8.65-11.11-.85-8.95-.37-14.81,3.22-23.42,2.56-6.16,5.15-12.35,8.81-17.92,1.86-2.82,3.88-5.74,4.93-9a10.38,10.38,0,0,0-.24-7.77C163.94,163.23,158.66,160.65,154.63,161.48Z"/><path class="cls-7" d="M177.84,239.74c2.08.84,1.15,17.39.86,19.7-.48,4-1.48,8.14-3.78,11.43a13.4,13.4,0,0,1-9.82,5.57,46,46,0,0,1-13.95-.7c-2.57-.53-5.43-1-7.65-2.5-4.54-3.1-2.46-9.35,1.35-12.1.44-.31,5.14-3,5.2-2.22l-2.31-31.33Z"/><path class="cls-7" d="M179.91,239.57c-2.08.84-1.15,17.38-.87,19.7.67,5.45,2.35,12.51,7.18,15.15,5.2,2.84,13.29,2.42,19,1.7,5.92-.75,14.67-3.85,10.52-11.5a11.75,11.75,0,0,0-3.5-4c-.52-.36-4.46-2.4-4.51-1.83L210,227.42Z"/><path class="cls-5" d="M204.92,177H149.06a38,38,0,0,1,10.7-11.38h34.46A38,38,0,0,1,204.92,177Z"/><path class="cls-8" d="M194.22,165.61H159.76a29.78,29.78,0,0,1,34.46,0Z"/><path class="cls-5" d="M211.72,197.14H142.26a48.85,48.85,0,0,1,2.58-11.39h64.3A48.85,48.85,0,0,1,211.72,197.14Z"/><path class="cls-8" d="M209.14,185.75h-64.3a44.3,44.3,0,0,1,4.22-8.76h55.86A44.3,44.3,0,0,1,209.14,185.75Z"/><path class="cls-5" d="M211.84,206.53a49.9,49.9,0,0,1-2.21,11.37H144.35a49.9,49.9,0,0,1-2.21-11.37Z"/><path class="cls-8" d="M156.57,237h40.84a30.17,30.17,0,0,1-40.84,0Z"/><path class="cls-8" d="M209.63,217.9a45.32,45.32,0,0,1-3.27,7.71H147.62a45.32,45.32,0,0,1-3.27-7.71Z"/><path class="cls-8" d="M212,202.54c0,1.34-.06,2.67-.16,4h-69.7c-.1-1.32-.16-2.65-.16-4a53.33,53.33,0,0,1,.28-5.4h69.46A53.33,53.33,0,0,1,212,202.54Z"/><path class="cls-5" d="M206.36,225.61a40.05,40.05,0,0,1-9,11.39H156.57a40.05,40.05,0,0,1-8.95-11.39Z"/><polygon class="cls-5" points="114.41 184.1 173.78 205 227.16 185.79 226.55 237.35 173.78 254.94 119.87 237.55 114.41 184.1"/><ellipse class="cls-7" cx="227.81" cy="204.42" rx="7.69" ry="9.21"/><ellipse class="cls-7" cx="117.62" cy="205.4" rx="7.69" ry="9.21"/><path class="cls-8" d="M174.58,205s-35.92-24.67-41.82-24.48-13.31,5.1-13.31,5.1Z"/><path class="cls-8" d="M173.78,254.93s.15-50.06.42-50.31c3.54-3.23,28.77-25.7,43.11-24.68l6.94,6.78-50.32,18.15"/><path class="cls-8" d="M183.29,168.42l-6.68.24a45.51,45.51,0,0,1-47.09-43.85L129,109.47a49.1,49.1,0,0,1,49.22-50.85h0a51.77,51.77,0,0,1,51.56,49.91l.34,9.63A48.56,48.56,0,0,1,183.29,168.42Z"/><path class="cls-7" d="M221.48,82.28c-5.61-.15-11.52-.55-16.82.55-6.22,1.3-11.67,4.9-16.23,9.23-5,4.69-13.2,4.71-19.16,1.83-5.73-2.76-9.47-8.32-15.44-11a38.33,38.33,0,0,0-16-3.39,49,49,0,0,1,40.32-20.85,51.7,51.7,0,0,1,43.29,23.66Z"/><path class="cls-8" d="M170.73,56.75h11a5.1,5.1,0,0,1,5.1,5.1v0a.36.36,0,0,1-.36.36H166.89a.36.36,0,0,1-.36-.36V61a4.2,4.2,0,0,1,4.2-4.2Z" transform="translate(-2.01 6.34) rotate(-2.04)"/><path class="cls-8" d="M172.88,56.52c.1-2,.85-11.59,5.56-15.94a.33.33,0,0,1,.56.28c-.25,2.94-1,12.92.5,15.27a.34.34,0,0,1-.26.53l-6,.21A.33.33,0,0,1,172.88,56.52Z"/><circle class="cls-9" cx="179.49" cy="34.76" r="7.42"/><circle class="cls-10" cx="179.49" cy="34.76" r="5.25"/><circle class="cls-5" cx="156.03" cy="126.48" r="9.78"/><circle class="cls-5" cx="202.61" cy="124.81" r="9.78"/><circle class="cls-4" cx="156.5" cy="121.67" r="20.05"/><circle class="cls-4" cx="203.07" cy="120.01" r="20.05"/><line class="cls-4" x1="176.53" y1="120.96" x2="183.03" y2="120.72"/><line class="cls-4" x1="136.46" y1="122.39" x2="129.25" y2="113.6"/><line class="cls-4" x1="223.11" y1="119.29" x2="229.43" y2="110.02"/><path class="cls-4" d="M174.58,150.63a6.3,6.3,0,0,1,4.57-2.53,6.15,6.15,0,0,1,5.33,2.53"/></svg>