<svg id="Layer_1" data-name="Layer 1" xmlns="http://www.w3.org/2000/svg" xmlns:xlink="http://www.w3.org/1999/xlink" viewBox="0 0 351.16 293.04"><defs><style>.cls-1,.cls-7{fill:none;}.cls-2{clip-path:url(#clip-path);}.cls-10,.cls-3,.cls-8{fill:#3e6be0;}.cls-3{opacity:0.3;}.cls-4,.cls-5,.cls-9{fill:#c4cbe0;}.cls-4{opacity:0.25;}.cls-11,.cls-6{fill:#fff;}.cls-10,.cls-11,.cls-14,.cls-7,.cls-8,.cls-9{stroke:#3e6be0;stroke-linecap:round;stroke-linejoin:round;}.cls-8{opacity:0.4;}.cls-12{fill:#ffc4c4;}.cls-13{fill:#ff6766;}.cls-14{fill:#3e6be6;}</style><clipPath id="clip-path"><rect class="cls-1" x="853.91" y="-487.57" width="131.18" height="65.79"/></clipPath></defs><g class="cls-2"><path class="cls-3" d="M116.58,271.81A163.24,163.24,0,0,1,149,222.37a78.13,78.13,0,0,1,35.74-20.66,1.55,1.55,0,0,1,2.29,1.44c3,12.95.81,25-3.78,37.23,1.57-1.06,2.61-2.68,3.88-4.07s3.12-2.68,5-2.41a5,5,0,0,1,3.74,3.34c3.9,10-1.93,22.85-8,30.63-8.8,11.24-22,18.23-35.31,22.77a149.18,149.18,0,0,1-15.29,4.25S104.9,302.19,116.58,271.81Z"/><path class="cls-3" d="M118.52,270.26c-8.45-19.94-21.1-39.58-36.69-54.6a81.26,81.26,0,0,0-17.32-13c-2.87-1.56-16.36-8.92-19.36-6.33a1.9,1.9,0,0,0-.5.87,44.19,44.19,0,0,0-2,17.32c.45,7.05,1.64,16.95,5.38,23.05,0,0-7.39-11.7-12-5.85s-7.39,47.74,60.67,62.83C96.65,294.59,130.84,302.29,118.52,270.26Z"/></g><path class="cls-4" d="M350.18,259.82a175.11,175.11,0,0,1-2.45,29.25H317.67A145,145,0,1,0,30.58,259.82a146,146,0,0,0,3,29.25H3.47a174.59,174.59,0,1,1,346.71-29.25Z"/><path class="cls-5" d="M320.62,259.82a146,146,0,0,1-2.95,29.25H33.53a145,145,0,1,1,287.09-29.25Z"/><path class="cls-6" d="M263.16,283.89a15.08,15.08,0,0,1-1.06,5.6H146.32a18.46,18.46,0,0,1-1.78-8,18.73,18.73,0,0,1,18.73-18.73,17,17,0,0,1,1.75.09,25.2,25.2,0,0,1,50-6.23,16.34,16.34,0,0,1,26.7,12.63c0,.18,0,.37,0,.55a15,15,0,0,1,6.11-1.28A15.33,15.33,0,0,1,263.16,283.89Z"/><circle class="cls-7" cx="132.74" cy="273.81" r="2.95"/><circle class="cls-7" cx="283.87" cy="266.86" r="3.37"/><circle class="cls-7" cx="77.59" cy="232.69" r="2.42"/><circle class="cls-7" cx="60.92" cy="109.6" r="3"/><circle class="cls-7" cx="253.89" cy="180.34" r="2"/><circle class="cls-7" cx="231.35" cy="50.68" r="2.33"/><circle class="cls-7" cx="179.19" cy="261.53" r="1.08"/><line class="cls-7" x1="35.23" y1="289.85" x2="74.99" y2="289.85"/><line class="cls-7" x1="90.22" y1="289.89" x2="207.38" y2="289.89"/><line class="cls-7" x1="223.46" y1="290.01" x2="246.72" y2="290.01"/><line class="cls-7" x1="262.32" y1="289.74" x2="281.78" y2="289.74"/><line class="cls-7" x1="297.75" y1="290.04" x2="317.21" y2="290.04"/><line class="cls-7" x1="315.41" y1="204.92" x2="322.65" y2="204.92"/><line class="cls-7" x1="319.03" y1="201.3" x2="319.03" y2="208.54"/><line class="cls-7" x1="305.92" y1="103" x2="313.16" y2="103"/><line class="cls-7" x1="309.54" y1="99.38" x2="309.54" y2="106.62"/><path class="cls-8" d="M185.46,217.06a150.34,150.34,0,0,1,29.9-45.56,72,72,0,0,1,32.93-19,1.43,1.43,0,0,1,2.11,1.33c2.81,11.94.74,23.07-3.48,34.31a22.34,22.34,0,0,0,3.58-3.75c1.2-1.32,2.87-2.47,4.64-2.23a4.68,4.68,0,0,1,3.46,3.08c3.59,9.21-1.79,21.06-7.4,28.23-8.11,10.36-20.3,16.8-32.54,21a131.85,131.85,0,0,1-14.09,3.92S174.69,245.06,185.46,217.06Z"/><path class="cls-8" d="M176.16,218.4c-7.79-18.37-19.45-36.48-33.81-50.32a75,75,0,0,0-16-11.94c-2.66-1.44-15.08-8.22-17.85-5.84a1.81,1.81,0,0,0-.46.81,40.87,40.87,0,0,0-1.88,16c.42,6.49,1.51,15.62,5,21.24,0,0-6.81-10.79-11.07-5.39s-6.81,44,55.92,57.9C156,240.82,187.51,247.92,176.16,218.4Z"/><path class="cls-9" d="M178.27,261.33c1.63.65.9,13.28.68,15.05A19.08,19.08,0,0,1,176,285.1a10.54,10.54,0,0,1-7.68,4.26,36.52,36.52,0,0,1-10.89-.54c-2-.4-4.24-.75-6-1.9-3.54-2.37-1.92-7.14,1.06-9.24.34-.24,4-2.31,4.06-1.7l-1.8-23.92Z"/><path class="cls-9" d="M179.89,261.2c-1.62.64-.9,13.28-.68,15.05.52,4.16,1.84,9.55,5.61,11.57,4.06,2.17,10.38,1.84,14.81,1.29,4.62-.57,11.45-2.93,8.21-8.78a9.08,9.08,0,0,0-2.73-3.08c-.41-.28-3.49-1.83-3.52-1.4l1.81-23.92Z"/><path class="cls-10" d="M207.22,196.1h-56A38.22,38.22,0,0,1,162,184.7H196.5A38.06,38.06,0,0,1,207.22,196.1Z"/><path class="cls-11" d="M196.5,184.7H162a29.83,29.83,0,0,1,34.52,0Z"/><path class="cls-10" d="M214,216.29H144.45A48.4,48.4,0,0,1,147,204.88h64.42A48.9,48.9,0,0,1,214,216.29Z"/><path class="cls-11" d="M211.45,204.88H147a44.2,44.2,0,0,1,4.22-8.78h56A44.79,44.79,0,0,1,211.45,204.88Z"/><path class="cls-10" d="M214.15,225.69a49.73,49.73,0,0,1-2.21,11.4h-65.4a49.74,49.74,0,0,1-2.22-11.4Z"/><path class="cls-11" d="M158.78,256.22H199.7a30.22,30.22,0,0,1-40.92,0Z"/><path class="cls-11" d="M211.94,237.09a47,47,0,0,1-3.27,7.72H149.81a46.12,46.12,0,0,1-3.27-7.72Z"/><path class="cls-11" d="M214.31,221.69c0,1.35-.05,2.68-.16,4H144.32c-.1-1.32-.15-2.65-.15-4a50.57,50.57,0,0,1,.28-5.4H214A50.57,50.57,0,0,1,214.31,221.69Z"/><path class="cls-10" d="M208.67,244.81a40.38,40.38,0,0,1-9,11.41H158.78a40.38,40.38,0,0,1-9-11.41Z"/><path class="cls-9" d="M130.67,221.62c4,11.21,16,18.57,26.87,22,5,1.58,11.34,2.4,15.83-.9a12,12,0,0,0,2.09-2c5.38-6.63,1.12-15.18-4.8-19.75-6.28-4.85-15.35-3.54-21.19-8.87-3.45-3.14-.53-7.76.73-11.31a44.47,44.47,0,0,1,4.22-8.78,39.29,39.29,0,0,1,7.41-8.81,11,11,0,0,0-8.43-2.27,5.67,5.67,0,0,0-1.19.36c-3.84,1.59-6.25,6.7-8.84,9.7a123.13,123.13,0,0,0-10.91,14.44S127.83,213.65,130.67,221.62Z"/><path class="cls-11" d="M114,224.56s39.46-4.84,51.05,30.64c0,0,.83-6.19,9.71-7.94,12-2.37,25-1.27,36.36-6.38,3.83-1.73,3.53-3.76,3.56-7.45.14-16.57-8.46-33.45-24-40.66-8.8-4.08-21.1-7.35-30.73-5.43C160,187.34,126.63,196.63,114,224.56Z"/><path class="cls-7" d="M144.29,216.42s9.82-9.77,20.08-11"/><path class="cls-7" d="M151.93,221c3.85-2.28,7.75-4.5,11.72-6.58,8.71-4.54,21.38-5.71,27.75-13.91"/><path class="cls-7" d="M158.51,228.93s21.22-9.33,35.65-12.51"/><path class="cls-7" d="M164.37,236.15s23-10.61,40.61-11.88"/><path class="cls-9" d="M227.58,221.62c-4,11.21-16,18.57-26.88,22-5,1.58-11.34,2.4-15.82-.9a11.65,11.65,0,0,1-2.09-2c-5.39-6.63-1.12-15.18,4.8-19.75,6.27-4.85,15.35-3.54,21.18-8.87,3.45-3.14.54-7.76-.72-11.31a44.47,44.47,0,0,0-4.22-8.78,39.55,39.55,0,0,0-7.41-8.81,11,11,0,0,1,8.43-2.27,5.86,5.86,0,0,1,1.19.36c3.83,1.59,6.24,6.7,8.84,9.7C221.94,199.12,231.79,209.79,227.58,221.62Z"/><path class="cls-11" d="M183,186.44l-6.73.09a45.86,45.86,0,0,1-46.44-45.27l-.2-15.48a49.47,49.47,0,0,1,50.77-50.09h0a52.17,52.17,0,0,1,50.8,51.48l.12,9.71A48.94,48.94,0,0,1,183,186.44Z"/><path class="cls-9" d="M223.5,100.53c-5.66-.29-11.6-.82-17,.16-6.31,1.16-11.88,4.67-16.57,8.92-5.11,4.62-13.41,4.44-19.36,1.41-5.71-2.92-9.34-8.61-15.3-11.48a38.72,38.72,0,0,0-16-3.77,49.4,49.4,0,0,1,41.11-20.08,52,52,0,0,1,35.76,15.5A51.29,51.29,0,0,1,223.5,100.53Z"/><path class="cls-11" d="M171.85,75h14a3.2,3.2,0,0,1,3.2,3.2v0a2.31,2.31,0,0,1-2.31,2.31H171a2.31,2.31,0,0,1-2.31-2.31v0A3.2,3.2,0,0,1,171.85,75Z" transform="translate(-0.98 2.28) rotate(-0.73)"/><path class="cls-11" d="M175.11,74.65c.16-2,1.13-11.65,6-15.93a.34.34,0,0,1,.58.28c-.33,3-1.31,13,.15,15.4a.34.34,0,0,1-.28.53l-6.06.08A.34.34,0,0,1,175.11,74.65Z"/><circle class="cls-12" cx="182.28" cy="52.87" r="7.48"/><circle class="cls-13" cx="182.28" cy="52.87" r="5.3"/><path class="cls-14" d="M213.64,140.83a4.4,4.4,0,0,1,.13.63,9.21,9.21,0,0,1,.16,1.59A9.86,9.86,0,1,1,200.51,134a4.6,4.6,0,0,1,.68-.24Z"/><path class="cls-14" d="M160,133.76a4.23,4.23,0,0,1,.68.24,9.86,9.86,0,1,1-13.42,9.05,9.21,9.21,0,0,1,.16-1.59,4.4,4.4,0,0,1,.13-.63Z"/><circle class="cls-7" cx="157.1" cy="138.72" r="20.21"/><circle class="cls-7" cx="204.07" cy="138.12" r="20.21"/><line class="cls-7" x1="177.31" y1="138.46" x2="183.86" y2="138.38"/><line class="cls-7" x1="136.9" y1="138.97" x2="129.83" y2="129.95"/><line class="cls-7" x1="224.28" y1="137.86" x2="230.86" y2="128.67"/><path class="cls-7" d="M175.66,167.67a6.3,6.3,0,0,1,4.57-2.53,6.15,6.15,0,0,1,5.33,2.53"/><path class="cls-11" d="M276.89,146.71s15-19.37,13.75-48.74c0,0,18.75,3.12,26.88-6.88,0,0,10,21.87-9.38,50Z"/><path class="cls-11" d="M43.89,177.68s12.64,26.14,45.75,14.6c0,0-12.42-17.65-13.94-30.06,0,0-39.21,4.36-55.11-6.75C20.59,155.47,20.15,177.47,43.89,177.68Z"/><path class="cls-10" d="M24.31,168.17a54.15,54.15,0,0,0,10.85,12.31A55.16,55.16,0,0,0,58.87,192s-11.27-6.87-15-14.28C43.89,177.68,31.3,177.39,24.31,168.17Z"/></svg>