<svg id="Layer_1" data-name="Layer 1" xmlns="http://www.w3.org/2000/svg" viewBox="0 0 351.16 293.04"><defs><style>.cls-1,.cls-2,.cls-5{fill:#c4cbe0;}.cls-1{opacity:0.25;}.cls-3,.cls-7{fill:#fff;}.cls-4{fill:none;}.cls-4,.cls-5,.cls-6,.cls-7,.cls-8{stroke:#3e6be0;stroke-linecap:round;stroke-linejoin:round;}.cls-6,.cls-8{fill:#3e6be0;}.cls-8{opacity:0.3;}.cls-9{fill:#ffc4c4;}.cls-10{fill:#ff6766;}</style></defs><path class="cls-1" d="M350,257.65a175.11,175.11,0,0,1-2.45,29.25H317.45A145,145,0,1,0,30.36,257.65a146,146,0,0,0,3,29.25H3.25A174.59,174.59,0,1,1,350,257.65Z"/><path class="cls-2" d="M320.4,257.65a146,146,0,0,1-2.95,29.25H33.31A145,145,0,1,1,320.4,257.65Z"/><path class="cls-3" d="M263,281.72a15.28,15.28,0,0,1-1.06,5.6H146.11a18.47,18.47,0,0,1-1.79-8,18.74,18.74,0,0,1,18.73-18.73,16.8,16.8,0,0,1,1.75.09,27.53,27.53,0,0,1-.16-2.89,25.2,25.2,0,0,1,50.17-3.34,16.34,16.34,0,0,1,26.7,12.63v.55a15,15,0,0,1,6.11-1.28A15.34,15.34,0,0,1,263,281.72Z"/><path class="cls-3" d="M137,220.27c0,5.84-12.38,3.41-16.48,3.41H65.87a11.19,11.19,0,0,1-1.09-4.84,11.41,11.41,0,0,1,11.41-11.41,9.28,9.28,0,0,1,1.06.06,14.6,14.6,0,0,1-.1-1.76,15.34,15.34,0,0,1,30.55-2A9.94,9.94,0,0,1,124,211.39v.33a9.08,9.08,0,0,1,3.72-.78A9.33,9.33,0,0,1,137,220.27Z"/><circle class="cls-4" cx="141.07" cy="266.16" r="2.95"/><circle class="cls-4" cx="283.65" cy="264.69" r="3.37"/><circle class="cls-4" cx="125.27" cy="191.77" r="2.42"/><circle class="cls-4" cx="60.7" cy="107.43" r="3"/><circle class="cls-4" cx="83.67" cy="58.17" r="2"/><circle class="cls-4" cx="231.13" cy="48.51" r="2.33"/><circle class="cls-4" cx="178.97" cy="259.36" r="1.08"/><line class="cls-4" x1="35.01" y1="287.69" x2="74.77" y2="287.69"/><line class="cls-4" x1="90" y1="287.72" x2="207.16" y2="287.72"/><line class="cls-4" x1="223.24" y1="287.84" x2="246.5" y2="287.84"/><line class="cls-4" x1="262.1" y1="287.57" x2="281.56" y2="287.57"/><line class="cls-4" x1="297.53" y1="287.87" x2="316.99" y2="287.87"/><line class="cls-4" x1="96" y1="247.18" x2="103.24" y2="247.18"/><line class="cls-4" x1="99.62" y1="243.56" x2="99.62" y2="250.8"/><line class="cls-4" x1="45.19" y1="182.75" x2="52.43" y2="182.75"/><line class="cls-4" x1="48.81" y1="179.13" x2="48.81" y2="186.37"/><line class="cls-4" x1="247.7" y1="167.83" x2="254.94" y2="167.83"/><line class="cls-4" x1="251.32" y1="164.21" x2="251.32" y2="171.45"/><rect class="cls-5" x="137.87" y="167.48" width="11.3" height="119.65" rx="4.03"/><rect class="cls-5" x="127.98" y="167.47" width="30.61" height="7.75" rx="3.87"/><rect class="cls-5" x="127.98" y="175.74" width="30.61" height="7.75" rx="3.87"/><rect class="cls-5" x="127.98" y="183.6" width="30.61" height="7.75" rx="3.87"/><path class="cls-6" d="M161,56.42V67.31a1.68,1.68,0,0,1-1.27,1.62L41.91,98.25a1.67,1.67,0,0,1-2.08-1.62V83.47a3.51,3.51,0,0,1,2.7-3.41L156.71,53A3.51,3.51,0,0,1,161,56.42Z"/><path class="cls-7" d="M160.18,68.82a.68.68,0,0,1,.84.66v64.67a3.5,3.5,0,0,1-2.45,3.34L44.4,173.55a3.51,3.51,0,0,1-4.57-3.34V99.29a.66.66,0,0,1,.52-.65Z"/><circle class="cls-7" cx="51.78" cy="87.19" r="3.33"/><circle class="cls-7" cx="62.34" cy="84.85" r="3.33"/><rect class="cls-4" x="65.41" y="124.88" width="35.15" height="18.83" rx="9.42" transform="translate(-67.5 86.59) rotate(-40.7)"/><rect class="cls-4" x="98.25" y="96.64" width="35.15" height="18.83" rx="9.42" transform="translate(-41.14 101.18) rotate(-40.7)"/><line class="cls-4" x1="82.99" y1="134.3" x2="114.08" y2="107.56"/><path class="cls-5" d="M186.08,254l2.59,21.49s-3.82-.45-2.84,4.45c.37,1.86,2.82,2.88,4.37,3.45a25,25,0,0,0,8.6,1.46c2.8,0,9.11-.38,10.33-3.63a3.9,3.9,0,0,0,.21-1.13,35.48,35.48,0,0,0-.35-7.7c-.88-6.55-1-13.14-2.37-19.64-.11-.55-.23-1.82-.77-2.17C204.21,249.53,186.08,254,186.08,254Z"/><path class="cls-5" d="M169.87,256l2.59,21.49s-3.81-.45-2.83,4.45c.37,1.86,2.81,2.88,4.36,3.45a25,25,0,0,0,8.61,1.46c3.41,0,7.08-.58,9.82-2.78a5.78,5.78,0,0,0,2.06-2.88,8.94,8.94,0,0,0,0-3.22l-.33-3.75c-.88-6.56-1-13.14-2.37-19.64-.11-.55-.23-1.83-.77-2.18C189.33,251.36,169.87,256,169.87,256Z"/><path class="cls-5" d="M199.06,190.78a6.41,6.41,0,0,1,1.08.18c3.56.95,6.27,5.14,8.9,7.48a109.92,109.92,0,0,1,11.67,11.87c7.24,8.74,13.64,20.45,13.37,32.15-.08,3.8-1.43,7.75-4.4,10.12a11.53,11.53,0,0,1-9.32,2.07c-4.84-.94-8.71-3.55-8.91-8.75-.3-8-1.41-13.07-5.58-20.22-3-5.11-6-10.26-9.86-14.72a34.3,34.3,0,0,1-5.38-7.31,9.18,9.18,0,0,1-.7-6.86A9.89,9.89,0,0,1,199.06,190.78Z"/><path class="cls-5" d="M172.4,196.55a5.67,5.67,0,0,0-1.09.1c-3.61.7-6.62,4.7-9.4,6.84a110.72,110.72,0,0,0-12.47,11c-7.83,8.21-15,19.45-15.57,31.13-.18,3.8.89,7.84,3.68,10.41a11.54,11.54,0,0,0,9.16,2.71c4.89-.6,8.93-2.94,9.49-8.11.87-7.93,2.32-12.94,7-19.78,3.33-4.89,6.68-9.82,10.85-14a34,34,0,0,0,5.88-6.92,9.17,9.17,0,0,0,1.18-6.79A9.87,9.87,0,0,0,172.4,196.55Z"/><path class="cls-6" d="M211.07,206.42l-49.3,5.14a34,34,0,0,1,8.4-11l30.4-3.17A33.73,33.73,0,0,1,211.07,206.42Z"/><path class="cls-7" d="M200.57,197.37l-30.4,3.17a26.41,26.41,0,0,1,30.4-3.17Z"/><path class="cls-6" d="M218.92,223.57,157.64,230a43.28,43.28,0,0,1,1.22-10.29l56.73-5.92A43.43,43.43,0,0,1,218.92,223.57Z"/><path class="cls-7" d="M215.59,213.76l-56.73,5.92a39.54,39.54,0,0,1,2.91-8.12l49.3-5.14A39.91,39.91,0,0,1,215.59,213.76Z"/><path class="cls-6" d="M219.89,231.84a44.69,44.69,0,0,1-.9,10.24l-57.6,6a43.9,43.9,0,0,1-3-9.83Z"/><path class="cls-7" d="M173.93,263.82l36-3.76a26.77,26.77,0,0,1-36,3.76Z"/><path class="cls-7" d="M219,242.08a41,41,0,0,1-2.18,7.1L165,254.59a41.15,41.15,0,0,1-3.59-6.5Z"/><path class="cls-7" d="M219.66,228.31c.12,1.19.2,2.36.23,3.53l-61.5,6.42c-.21-1.15-.38-2.32-.5-3.5a45.76,45.76,0,0,1-.25-4.79l61.28-6.4C219.24,225.12,219.49,226.69,219.66,228.31Z"/><path class="cls-6" d="M216.81,249.18A35.55,35.55,0,0,1,210,260.06l-36,3.76a36,36,0,0,1-9-9.23Z"/><line class="cls-4" x1="149.03" y1="45.91" x2="149" y2="45.91"/><path class="cls-8" d="M196.63,233a99.82,99.82,0,0,1,13.65-33.52,47.9,47.9,0,0,1,19-16.63,1.27,1.27,0,0,1,.86-.18c.34.09.53.45.68.78,3.36,7.42,3.44,14.94,2.12,22.81a14.65,14.65,0,0,0,1.85-2.91,3.75,3.75,0,0,1,2.75-2,3.1,3.1,0,0,1,2.64,1.56c3.52,5.55,1.54,14-1.21,19.35-4,7.79-11.08,13.55-18.52,17.84a89.09,89.09,0,0,1-8.68,4.36S193.19,252.64,196.63,233Z"/><path class="cls-8" d="M195.53,233.56c-7.43-11-17.34-21.29-28.48-28.47a49.51,49.51,0,0,0-11.93-5.74c-1.91-.6-10.88-3.43-12.38-1.53a1.12,1.12,0,0,0-.19.59,27.12,27.12,0,0,0,.81,10.64c1.11,4.18,3,10,5.95,13.22,0,0-5.82-6.16-7.9-2.1s1.19,29.55,43.86,30.59C185.27,250.76,206.71,251.35,195.53,233.56Z"/><path class="cls-7" d="M181.54,104.43h10.61a3.56,3.56,0,0,1,3.56,3.56v1.22a0,0,0,0,1,0,0H178a0,0,0,0,1,0,0V108A3.56,3.56,0,0,1,181.54,104.43Z"/><path class="cls-7" d="M189.55,202.78h-5.86A39.83,39.83,0,0,1,143.86,163V149.5a43,43,0,0,1,44.65-42.94h0a45.3,45.3,0,0,1,43.55,45.27v8.44A42.52,42.52,0,0,1,189.55,202.78Z"/><path class="cls-7" d="M183.6,104.43s.68-10.8,6-14.55c0,0-2,14.55.53,14.55Z"/><circle class="cls-9" cx="190.1" cy="85.27" r="6.49"/><circle class="cls-10" cx="190.1" cy="85.27" r="4.6"/></svg>