<svg id="Layer_1" data-name="Layer 1" xmlns="http://www.w3.org/2000/svg" xmlns:xlink="http://www.w3.org/1999/xlink" viewBox="0 0 351.16 293.04"><defs><style>.cls-1,.cls-7{fill:none;}.cls-2{clip-path:url(#clip-path);}.cls-10,.cls-12,.cls-3,.cls-8{fill:#3e6be0;}.cls-3{opacity:0.3;}.cls-4,.cls-5,.cls-9{fill:#c4cbe0;}.cls-4{opacity:0.25;}.cls-11,.cls-6{fill:#fff;}.cls-10,.cls-11,.cls-7,.cls-8,.cls-9{stroke:#3e6be0;stroke-linecap:round;stroke-linejoin:round;}.cls-8{opacity:0.4;}.cls-13{fill:#ffd9d9;}.cls-14{fill:#ff6766;}</style><clipPath id="clip-path"><rect class="cls-1" x="844.27" y="-445.15" width="131.18" height="65.79"/></clipPath></defs><g class="cls-2"><path class="cls-3" d="M106.94,314.22a163.36,163.36,0,0,1,32.44-49.44,78.11,78.11,0,0,1,35.74-20.65,2,2,0,0,1,1.44,0,2.09,2.09,0,0,1,.85,1.47c3.05,12.95.81,25-3.78,37.23,1.57-1.07,2.61-2.68,3.88-4.07s3.12-2.69,5.05-2.42a5.05,5.05,0,0,1,3.74,3.34c3.9,10-1.93,22.85-8,30.63-8.8,11.24-22,18.23-35.31,22.77a144.25,144.25,0,0,1-15.29,4.25S95.26,344.6,106.94,314.22Z"/><path class="cls-3" d="M108.88,312.67c-8.45-19.93-21.1-39.57-36.69-54.6a80.89,80.89,0,0,0-17.32-12.95c-2.88-1.57-16.36-8.92-19.36-6.34a1.93,1.93,0,0,0-.5.88A44.17,44.17,0,0,0,33,257c.45,7,1.64,16.95,5.38,23,0,0-7.39-11.71-12-5.86S19,321.91,87,337C87,337,121.2,344.7,108.88,312.67Z"/></g><path class="cls-4" d="M349.82,247a175.11,175.11,0,0,1-2.45,29.25H317.31A145,145,0,1,0,30.22,247a146,146,0,0,0,3,29.25H3.11A174.59,174.59,0,1,1,349.82,247Z"/><path class="cls-5" d="M320.26,247a146,146,0,0,1-2.95,29.25H33.17A145,145,0,1,1,320.26,247Z"/><path class="cls-6" d="M262.81,271a15.08,15.08,0,0,1-1.06,5.6H146a18.46,18.46,0,0,1-1.78-8,18.73,18.73,0,0,1,18.73-18.73,17,17,0,0,1,1.75.09,25.2,25.2,0,0,1,50-6.23,16.34,16.34,0,0,1,26.7,12.63c0,.18,0,.37,0,.55a15,15,0,0,1,6.11-1.28A15.33,15.33,0,0,1,262.81,271Z"/><path class="cls-6" d="M136.86,209.58c0,5.83-12.38,3.41-16.48,3.41H65.73a11.27,11.27,0,0,1-1.09-4.85,11.4,11.4,0,0,1,11.41-11.4,9.28,9.28,0,0,1,1.06.06A17.14,17.14,0,0,1,77,195a15.34,15.34,0,0,1,30.55-2,9.95,9.95,0,0,1,16.25,7.69V201a9.08,9.08,0,0,1,3.72-.78A9.33,9.33,0,0,1,136.86,209.58Z"/><circle class="cls-7" cx="140.93" cy="255.47" r="2.95"/><circle class="cls-7" cx="283.51" cy="253.99" r="3.37"/><circle class="cls-7" cx="125.13" cy="181.08" r="2.42"/><circle class="cls-7" cx="83.53" cy="47.47" r="2"/><circle class="cls-7" cx="230.99" cy="37.82" r="2.33"/><circle class="cls-7" cx="178.83" cy="248.67" r="1.08"/><line class="cls-7" x1="34.87" y1="276.99" x2="74.63" y2="276.99"/><line class="cls-7" x1="89.86" y1="277.03" x2="207.02" y2="277.03"/><line class="cls-7" x1="223.1" y1="277.15" x2="246.36" y2="277.15"/><line class="cls-7" x1="261.96" y1="276.88" x2="281.42" y2="276.88"/><line class="cls-7" x1="297.4" y1="277.18" x2="316.85" y2="277.18"/><line class="cls-7" x1="95.86" y1="236.49" x2="103.1" y2="236.49"/><line class="cls-7" x1="99.48" y1="232.87" x2="99.48" y2="240.11"/><line class="cls-7" x1="45.05" y1="172.06" x2="52.29" y2="172.06"/><line class="cls-7" x1="48.67" y1="168.44" x2="48.67" y2="175.68"/><line class="cls-7" x1="247.56" y1="157.14" x2="254.8" y2="157.14"/><line class="cls-7" x1="251.18" y1="153.52" x2="251.18" y2="160.76"/><ellipse class="cls-7" cx="238.03" cy="216.63" rx="27.34" ry="33.13"/><path class="cls-8" d="M234.47,218.11c-6.08-14.35-15.19-28.49-26.4-39.3a58.55,58.55,0,0,0-12.47-9.32c-2.07-1.13-11.77-6.42-13.93-4.56a1.37,1.37,0,0,0-.36.63A31.88,31.88,0,0,0,179.84,178c.33,5.07,1.18,12.2,3.87,16.59,0,0-5.32-8.42-8.64-4.21s-5.32,34.36,43.66,45.22C218.73,235.62,243.34,241.16,234.47,218.11Z"/><path class="cls-9" d="M227.84,194.8a4.9,4.9,0,0,0-.19-.94c-.94-3.11-4.72-5.37-6.85-7.61a97.36,97.36,0,0,0-10.8-9.9c-7.91-6.11-18.4-11.38-28.69-10.79-4.32.25-8.52,2.47-10.07,6.72a9.48,9.48,0,0,0,2.37,10.05c3,2.78,7.5,3.1,11.55,3.87,8.57,1.62,16.52,5.82,23.33,11.27,2.77,2.21,5.5,4.7,8.92,5.66C222.63,204.59,228.43,200.46,227.84,194.8Z"/><path class="cls-10" d="M187.64,132.43l-48.11,16.88a1.84,1.84,0,0,0-1.16,1.18c-3.38,10.2-3.09,23,5.74,30.45a8.35,8.35,0,0,0,2.62,1.61c1.9.64,4.8-.32,6.83-.61l7.09-1,17.08-2.43,16.34-2.32a1.88,1.88,0,0,0,1.59-2.11l-5.55-40.14A1.86,1.86,0,0,0,187.64,132.43Z"/><path class="cls-11" d="M168,145.17c-.87,6.17-1.38,11.8.64,17.9a32,32,0,0,0,8.47,13.14c.37.35,1.84,1.23,2,1.68s-.7.83-1.21.91a3.79,3.79,0,0,1-3.15-1.2,26.53,26.53,0,0,1-2.92-3.83,39,39,0,0,1-6.33-12.42C164,156,164.39,149.6,168,145.17Z"/><path class="cls-11" d="M151.41,150a25.67,25.67,0,0,0,.37,17.25,25.39,25.39,0,0,0,11.71,13.13c-1.27.08-2.45,1.22-3.65.8a2.9,2.9,0,0,1-.94-.62c-4.44-3.86-8.36-8.57-10.13-14.19C147.2,161.34,147.34,153.86,151.41,150Z"/><ellipse class="cls-9" cx="192.85" cy="153.79" rx="11.96" ry="22.33" transform="translate(-19.23 27.84) rotate(-7.87)"/><path class="cls-10" d="M76.86,60.39l51,1.22a1.9,1.9,0,0,1,1.46.76c6.36,8.67,10.05,21,3.94,30.74a8.21,8.21,0,0,1-2,2.34c-1.61,1.2-4.67,1.18-6.69,1.53l-7.05,1.23-17,3L84.23,104a1.87,1.87,0,0,1-2.16-1.51L75,62.58A1.86,1.86,0,0,1,76.86,60.39Z"/><path class="cls-11" d="M99.43,66.46c2.73,5.61,5,10.8,4.91,17.23a32,32,0,0,1-4,15.11c-.25.45-1.37,1.74-1.35,2.21s.93.57,1.43.49a3.81,3.81,0,0,0,2.63-2.11,26.68,26.68,0,0,0,1.6-4.55,39.08,39.08,0,0,0,2.18-13.76C106.62,75.53,104.26,69.55,99.43,66.46Z"/><path class="cls-11" d="M116.74,65.93a25.19,25.19,0,0,1-2.12,32.62c1.22-.32,2.7.4,3.71-.36a3,3,0,0,0,.71-.88c3-5,5.3-10.74,5.25-16.63C124.25,75.42,121.8,68.35,116.74,65.93Z"/><ellipse class="cls-9" cx="78.48" cy="82.32" rx="11.96" ry="22.33" transform="translate(-13.21 15.03) rotate(-10.09)"/><path class="cls-7" d="M135.61,74.86c11.13.71,22.48,1.66,32.73,6.06,3.92,1.68,8.14,4.72,7.95,9-.17,3.72-3.68,6.35-7.07,7.88-14,6.3-30.8,3.31-44.9,9.4-2.3,1-4.77,2.6-5,5.09a6.37,6.37,0,0,0,1.26,4A16.37,16.37,0,0,0,135,123.49c2.31-.14,5-1.21,5.38-3.49.43-2.55-2.29-4.48-4.76-5.24a14.19,14.19,0,0,0-10.07.32c-3.11,1.46-5.48,4.74-5.23,8.16.3,4.11,4,7.16,7.87,8.64a23.15,23.15,0,0,0,10.26,1.45,10.24,10.24,0,0,0,5.35-1.73,5,5,0,0,0,2.08-5c-.42-1.67-1.87-2.86-3.33-3.78a13.38,13.38,0,0,1-4-3.16c-1-1.41-1.11-3.63.28-4.66a4.72,4.72,0,0,1,2.57-.69c3.35-.22,6.82-.2,9.92,1.09s5.77,4.1,6,7.45c.26,4.17-3.19,7.64-6.77,9.8-6.77,4.09-14.75,5.65-22.62,6.51s-15.82,1.1-23.53,2.87c-4.66,1.08-9.29,2.76-13,5.77-2.22,1.79-4.21,4.53-3.51,7.3.51,2,2.32,3.45,4.11,4.56,12.56,7.79,30,7.88,44.8,7.3"/><path class="cls-12" d="M55.15,66.73a21.9,21.9,0,0,1,8.47,4.17,21.9,21.9,0,0,1-8.47-4.17Z"/><path class="cls-12" d="M50.72,83.55A43.17,43.17,0,0,1,64,83.29a42.86,42.86,0,0,1-13.28.26Z"/><path class="cls-12" d="M57.17,99.85a18.76,18.76,0,0,1,7.08-5,18.57,18.57,0,0,1-7.08,5Z"/><path class="cls-8" d="M241.73,211.85a117.32,117.32,0,0,1,23.35-35.58A56.23,56.23,0,0,1,290.8,161.4a1.46,1.46,0,0,1,1,0,1.45,1.45,0,0,1,.61,1.05c2.2,9.33.59,18-2.71,26.8a17.62,17.62,0,0,0,2.79-2.93,4.43,4.43,0,0,1,3.63-1.74,3.66,3.66,0,0,1,2.7,2.4c2.8,7.2-1.4,16.45-5.78,22-6.33,8.09-15.85,13.12-25.41,16.39a106.56,106.56,0,0,1-11,3S233.32,233.71,241.73,211.85Z"/><path class="cls-9" d="M254.9,181.71a5,5,0,0,1,.93.29c3,1.24,4.87,5.22,6.89,7.56a95.61,95.61,0,0,1,8.8,11.72c5.3,8.47,9.52,19.43,7.93,29.61-.52,3.3-2.16,6.59-5,8.32a10.16,10.16,0,0,1-8.37.72c-4.11-1.39-7.18-4.12-6.75-8.68.66-7,.29-11.57-2.52-18.29a83.4,83.4,0,0,0-6.88-14,30.26,30.26,0,0,1-3.85-7,8.08,8.08,0,0,1,.19-6.06A8.71,8.71,0,0,1,254.9,181.71Z"/><path class="cls-9" d="M237.33,246.54c1.31.53.72,11,.55,12.48a16,16,0,0,1-2.4,7.23,8.47,8.47,0,0,1-6.22,3.53,29.41,29.41,0,0,1-8.83-.44,13.22,13.22,0,0,1-4.84-1.59c-2.88-2-1.56-5.92.85-7.66.28-.2,3.26-1.91,3.3-1.4l-1.47-19.84Z"/><path class="cls-9" d="M238.64,246.43c-1.32.54-.73,11-.55,12.48.42,3.45,1.49,7.92,4.54,9.59,3.3,1.8,8.42,1.53,12,1.07,3.75-.47,9.29-2.43,6.66-7.28a7.48,7.48,0,0,0-2.22-2.55c-.33-.23-2.82-1.52-2.85-1.16l1.47-19.84Z"/><path class="cls-10" d="M259.71,196.89H216.09a29.66,29.66,0,0,1,8.36-8.88h26.9A29.66,29.66,0,0,1,259.71,196.89Z"/><path class="cls-11" d="M251.35,188h-26.9a23.23,23.23,0,0,1,26.9,0Z"/><path class="cls-10" d="M265,212.63H210.78a37.65,37.65,0,0,1,2-8.89H263A37.65,37.65,0,0,1,265,212.63Z"/><path class="cls-11" d="M263,203.74H212.8a34.36,34.36,0,0,1,3.29-6.85h43.62A34.36,34.36,0,0,1,263,203.74Z"/><path class="cls-10" d="M265.12,220a39.25,39.25,0,0,1-1.73,8.88h-51a39.25,39.25,0,0,1-1.73-8.88Z"/><path class="cls-11" d="M222,243.76h31.9a23.56,23.56,0,0,1-31.9,0Z"/><path class="cls-11" d="M263.39,228.84a35.92,35.92,0,0,1-2.55,6H215a35.92,35.92,0,0,1-2.55-6Z"/><path class="cls-11" d="M265.24,216.85c0,1.05,0,2.08-.12,3.11H210.68c-.08-1-.12-2.06-.12-3.11a41.82,41.82,0,0,1,.22-4.22H265A41.82,41.82,0,0,1,265.24,216.85Z"/><path class="cls-10" d="M260.84,234.86a31.58,31.58,0,0,1-7,8.9H222a31.58,31.58,0,0,1-7-8.9Z"/><ellipse class="cls-11" cx="238.35" cy="174.57" rx="2.08" ry="2.98"/><path class="cls-11" d="M231.92,191l-6.62-.93a45.5,45.5,0,0,1-38.73-51.39l2.13-15.2A49.1,49.1,0,0,1,246,82h0a51.76,51.76,0,0,1,42.07,58.13l-1.34,9.54A48.57,48.57,0,0,1,231.92,191Z"/><path class="cls-9" d="M284.54,112.87c-5.51-1.13-11.26-2.55-16.66-2.39-6.36.19-12.36,2.8-17.59,6.26-5.71,3.75-13.82,2.34-19.2-1.53-5.15-3.73-7.86-9.85-13.27-13.56a38.4,38.4,0,0,0-15.13-6.11A49,49,0,0,1,246,82a51.77,51.77,0,0,1,38.51,30.84Z"/><path class="cls-11" d="M238.45,79.88h11a5.1,5.1,0,0,1,5.1,5.1v0a.36.36,0,0,1-.36.36H234.6a.36.36,0,0,1-.36-.36v-.9a4.2,4.2,0,0,1,4.2-4.2Z" transform="translate(13.86 -33.18) rotate(7.99)"/><path class="cls-11" d="M241.16,79c.46-2,2.87-11.26,8.25-14.72a.34.34,0,0,1,.52.37c-.77,2.85-3.25,12.55-2.17,15.12a.34.34,0,0,1-.36.48l-6-.84A.34.34,0,0,1,241.16,79Z"/><circle class="cls-13" cx="251.47" cy="58.76" r="7.42"/><circle class="cls-14" cx="251.47" cy="58.76" r="5.25"/><circle class="cls-10" cx="212.39" cy="144.98" r="9.78"/><circle class="cls-10" cx="258.54" cy="151.46" r="9.78"/><circle class="cls-7" cx="213.68" cy="140.33" r="20.05"/><circle class="cls-7" cx="259.83" cy="146.81" r="20.05"/><line class="cls-7" x1="233.53" y1="143.12" x2="239.97" y2="144.03"/><line class="cls-7" x1="193.82" y1="137.54" x2="188.26" y2="127.64"/><line class="cls-7" x1="279.68" y1="149.6" x2="287.52" y2="141.58"/><path class="cls-7" d="M226.44,172a6.33,6.33,0,0,1,4.94-1.7,6.17,6.17,0,0,1,4.81,3.43"/></svg>