<svg id="Layer_1" data-name="Layer 1" xmlns="http://www.w3.org/2000/svg" viewBox="0 0 351.16 293.04"><defs><style>.cls-1,.cls-2,.cls-6{fill:#c4cbe0;}.cls-1{opacity:0.25;}.cls-3,.cls-8{fill:#fff;}.cls-4{fill:none;}.cls-12,.cls-4,.cls-5,.cls-6,.cls-7,.cls-8,.cls-9{stroke:#3e6be0;stroke-linecap:round;stroke-linejoin:round;}.cls-5,.cls-7{fill:#3e6be0;}.cls-7{opacity:0.4;}.cls-9{fill:#cad1e6;}.cls-10{fill:#ffc4c4;}.cls-11{fill:#ff6766;}.cls-12{fill:#3e6be6;}</style></defs><path class="cls-1" d="M350.83,257.2a175.11,175.11,0,0,1-2.45,29.25H318.32A145,145,0,1,0,31.23,257.2a146,146,0,0,0,2.95,29.25H4.12A174.59,174.59,0,1,1,350.83,257.2Z"/><path class="cls-2" d="M321.27,257.2a146,146,0,0,1-2.95,29.25H34.18A145,145,0,1,1,321.27,257.2Z"/><path class="cls-3" d="M263.82,281.27a15.08,15.08,0,0,1-1.06,5.6H147a18.46,18.46,0,0,1-1.78-8,18.73,18.73,0,0,1,18.73-18.73,17,17,0,0,1,1.75.09,25.2,25.2,0,0,1,50-6.23,16.34,16.34,0,0,1,26.7,12.63c0,.18,0,.37,0,.55a15,15,0,0,1,6.11-1.28A15.33,15.33,0,0,1,263.82,281.27Z"/><path class="cls-3" d="M137.87,219.83c0,5.83-12.38,3.41-16.48,3.41H66.74a11.26,11.26,0,0,1-1.08-4.85A11.39,11.39,0,0,1,77.06,207a9.29,9.29,0,0,1,1.06,0,17,17,0,0,1-.1-1.76,15.34,15.34,0,0,1,30.55-2,10,10,0,0,1,16.26,7.69c0,.11,0,.22,0,.33a9.32,9.32,0,0,1,13.05,8.56Z"/><circle class="cls-4" cx="31.23" cy="261.77" r="2.95"/><circle class="cls-4" cx="284.52" cy="264.24" r="3.37"/><circle class="cls-4" cx="61.58" cy="106.98" r="3"/><circle class="cls-4" cx="84.55" cy="57.72" r="2"/><circle class="cls-4" cx="232" cy="48.07" r="2.33"/><circle class="cls-4" cx="179.85" cy="258.91" r="1.08"/><line class="cls-4" x1="35.89" y1="287.24" x2="75.64" y2="287.24"/><line class="cls-4" x1="90.87" y1="287.27" x2="208.04" y2="287.27"/><line class="cls-4" x1="224.11" y1="287.39" x2="247.37" y2="287.39"/><line class="cls-4" x1="262.98" y1="287.12" x2="282.43" y2="287.12"/><line class="cls-4" x1="298.41" y1="287.42" x2="317.87" y2="287.42"/><line class="cls-4" x1="96.87" y1="246.73" x2="104.11" y2="246.73"/><line class="cls-4" x1="100.49" y1="243.11" x2="100.49" y2="250.35"/><line class="cls-4" x1="46.06" y1="182.31" x2="53.3" y2="182.31"/><line class="cls-4" x1="49.68" y1="178.69" x2="49.68" y2="185.93"/><line class="cls-4" x1="248.58" y1="167.38" x2="255.81" y2="167.38"/><line class="cls-4" x1="252.2" y1="163.76" x2="252.2" y2="171"/><path class="cls-5" d="M231.79,244.17,239.42,269a2.09,2.09,0,0,1-1.38,2.61L208,280.74a2.08,2.08,0,0,1-2.57-1.3l-8.4-24a2.08,2.08,0,0,1,1.33-2.67l30.84-9.95A2.09,2.09,0,0,1,231.79,244.17Z"/><path class="cls-6" d="M205.31,279.53l-1.66,2a2.59,2.59,0,0,1-2.81.82l-2.41-.79a.18.18,0,0,1-.14-.18L196.61,257a.29.29,0,0,1,.57-.12l8.17,22.49A.21.21,0,0,1,205.31,279.53Z"/><line class="cls-4" x1="235.59" y1="257.9" x2="202.31" y2="268.65"/><path class="cls-6" d="M226.05,262l-.58-2a1.5,1.5,0,0,0-1.91-1l-10.92,3.67a1.49,1.49,0,0,0-.95,1.85l.62,2a1.49,1.49,0,0,0,1.9,1l10.88-3.69A1.5,1.5,0,0,0,226.05,262Z"/><path class="cls-4" d="M220.83,245.3l-2.28-7a1.88,1.88,0,0,0-2.26-1.23l-12.83,3.44a1.88,1.88,0,0,0-1.34,2.21l1.72,8"/><ellipse class="cls-4" cx="168.26" cy="222.93" rx="29.77" ry="36.07"/><path class="cls-7" d="M171.91,213a127.55,127.55,0,0,1,25.42-38.74,61.18,61.18,0,0,1,28-16.19,1.63,1.63,0,0,1,1.13,0,1.58,1.58,0,0,1,.66,1.15c2.39,10.15.64,19.61-3,29.17a18.45,18.45,0,0,0,3.05-3.19c1-1.12,2.44-2.1,3.95-1.89a3.93,3.93,0,0,1,2.93,2.61c3.06,7.84-1.51,17.91-6.28,24-6.9,8.81-17.27,14.28-27.67,17.84a113.09,113.09,0,0,1-12,3.33S162.75,236.8,171.91,213Z"/><path class="cls-7" d="M165.38,218.86c-6.63-15.62-16.54-31-28.75-42.79a63.43,63.43,0,0,0-13.57-10.15c-2.26-1.23-12.83-7-15.18-5a1.63,1.63,0,0,0-.39.69,34.82,34.82,0,0,0-1.6,13.57c.36,5.52,1.29,13.28,4.22,18.07,0,0-5.79-9.18-9.41-4.59s-5.8,37.41,47.54,49.23C148.24,237.92,175,244,165.38,218.86Z"/><path class="cls-6" d="M186.63,184.91a6.46,6.46,0,0,1,1,.31c3.26,1.35,5.31,5.68,7.51,8.24a104.41,104.41,0,0,1,9.58,12.76c5.77,9.22,10.37,21.16,8.63,32.24-.56,3.6-2.35,7.18-5.47,9.06a11.09,11.09,0,0,1-9.12.78c-4.48-1.5-7.82-4.48-7.35-9.45.72-7.61.31-12.59-2.74-19.92-2.18-5.23-4.38-10.5-7.49-15.23a32.81,32.81,0,0,1-4.19-7.63,8.8,8.8,0,0,1,.2-6.6A9.5,9.5,0,0,1,186.63,184.91Z"/><path class="cls-6" d="M150.21,187.15c-.34.08-.67.17-1,.28-3.17,1.16-5,4.17-7,6a82.05,82.05,0,0,0-8.88,9.16c-5.25,6.53-9.2,14.74-6.88,21.89a8.67,8.67,0,0,0,5.93,5.51,16.25,16.25,0,0,0,9.13-.22c4.39-1.35,7.56-3.58,6.83-6.8-1.12-5-1-8.25,1.67-13.31a55.71,55.71,0,0,1,6.66-10.62,21.6,21.6,0,0,0,3.77-5.35,4,4,0,0,0-.55-4.33C158.18,187.5,153.58,186.41,150.21,187.15Z"/><path class="cls-6" d="M167.62,257.09c1.31.54.72,11,.55,12.48a16,16,0,0,1-2.4,7.23,8.47,8.47,0,0,1-6.22,3.53,29.41,29.41,0,0,1-8.83-.44,13.22,13.22,0,0,1-4.84-1.59c-2.88-2-1.56-5.91.85-7.66.28-.19,3.26-1.91,3.3-1.4l-1.47-19.84Z"/><path class="cls-6" d="M168.93,257c-1.32.54-.73,11-.55,12.48.42,3.45,1.49,7.92,4.54,9.59,3.3,1.8,8.42,1.53,12,1.08,3.75-.48,9.29-2.44,6.66-7.28a7.4,7.4,0,0,0-2.22-2.56c-.33-.23-2.82-1.52-2.85-1.16L188,249.29Z"/><path class="cls-5" d="M191.86,201.44h-47.5a32.49,32.49,0,0,1,9.11-9.67h29.29A32.33,32.33,0,0,1,191.86,201.44Z"/><path class="cls-8" d="M182.76,191.77H153.47a25.3,25.3,0,0,1,29.29,0Z"/><path class="cls-5" d="M197.64,218.58H138.58a41,41,0,0,1,2.2-9.68h54.67A41.51,41.51,0,0,1,197.64,218.58Z"/><path class="cls-8" d="M195.45,208.9H140.78a37.76,37.76,0,0,1,3.58-7.46h47.5A37.79,37.79,0,0,1,195.45,208.9Z"/><path class="cls-5" d="M197.75,226.56a42.7,42.7,0,0,1-1.88,9.67H140.36a42.16,42.16,0,0,1-1.88-9.67Z"/><path class="cls-8" d="M150.75,252.47h34.73a25.66,25.66,0,0,1-34.73,0Z"/><path class="cls-8" d="M195.87,236.23a40.38,40.38,0,0,1-2.78,6.56h-50a39.52,39.52,0,0,1-2.78-6.56Z"/><path class="cls-8" d="M197.88,223.17c0,1.14,0,2.27-.13,3.39H138.48c-.09-1.12-.13-2.25-.13-3.39,0-1.56.08-3.09.23-4.59h59.06A43.25,43.25,0,0,1,197.88,223.17Z"/><path class="cls-5" d="M193.09,242.79a34.39,34.39,0,0,1-7.61,9.68H150.75a34,34,0,0,1-7.61-9.68Z"/><path class="cls-5" d="M127.17,186.81,137.46,237a2,2,0,0,0,1.36,1.48l32.9,9.79a2,2,0,0,0,2.49-2.19l-8.51-51.74a2,2,0,0,0-1.47-1.59l-34.7-8.22A2,2,0,0,0,127.17,186.81Z"/><path class="cls-8" d="M130.47,191l8.85,43.13a1.68,1.68,0,0,0,1.16,1.27l28.29,8.42a1.68,1.68,0,0,0,2.14-1.88l-7.32-44.48a1.69,1.69,0,0,0-1.27-1.37L132.5,189A1.68,1.68,0,0,0,130.47,191Z"/><path class="cls-6" d="M130.49,204.14l1,1.26a1.61,1.61,0,0,0,.44.38c6.72,3.88,11.57,4.94,19.11,5.25,5,.21,7.48,3.92,8.37,8.56a11.1,11.1,0,0,1-2,8.94c-2.29,2.83-6.08,4.11-9.72,4.19a37.86,37.86,0,0,1-19.12-4.88,1.58,1.58,0,0,1-.56-.5c-6.49-9.5.27-20.79,1.84-23.17A.4.4,0,0,1,130.49,204.14Z"/><path class="cls-8" d="M166.93,190.52H161.4a37.61,37.61,0,0,1-37.61-37.61V140.22A40.59,40.59,0,0,1,166,99.67h0a42.78,42.78,0,0,1,41.11,42.75v8A40.14,40.14,0,0,1,166.93,190.52Z"/><path class="cls-9" d="M201,120.49c-4.63-.29-9.5-.79-13.91,0-5.18.89-9.79,3.71-13.68,7.14-4.24,3.73-11,3.51-15.88,1-4.65-2.46-7.57-7.16-12.43-9.57A31.67,31.67,0,0,0,132,115.71a40.54,40.54,0,0,1,33.92-16A42.77,42.77,0,0,1,201,120.49Z"/><path class="cls-8" d="M159.57,97.66h9.62a3.56,3.56,0,0,1,3.56,3.56v.95a0,0,0,0,1,0,0H156a0,0,0,0,1,0,0v-.95A3.56,3.56,0,0,1,159.57,97.66Z"/><path class="cls-8" d="M161.31,97.66S162,87.47,167,83.93c0,0-1.89,13.73.49,13.73Z"/><circle class="cls-10" cx="167.44" cy="79.58" r="6.13"/><circle class="cls-11" cx="167.44" cy="79.58" r="4.34"/><circle class="cls-12" cx="146.17" cy="157.45" r="8.09"/><circle class="cls-12" cx="184.69" cy="157.45" r="8.09"/><circle class="cls-4" cx="146.17" cy="151.11" r="16.57"/><circle class="cls-4" cx="184.69" cy="151.11" r="16.57"/><line class="cls-4" x1="162.74" y1="151.11" x2="168.12" y2="151.11"/><line class="cls-4" x1="129.6" y1="151.11" x2="123.9" y2="143.64"/><line class="cls-4" x1="201.26" y1="151.11" x2="206.75" y2="143.64"/><path class="cls-4" d="M161.31,176.94a4.1,4.1,0,0,1,6.94,0"/></svg>