<svg id="Layer_1" data-name="Layer 1" xmlns="http://www.w3.org/2000/svg" viewBox="0 0 351.16 293.04"><defs><style>.cls-1,.cls-2,.cls-6{fill:#c4cbe0;}.cls-1{opacity:0.25;}.cls-10,.cls-3{fill:#fff;}.cls-4{fill:none;}.cls-10,.cls-4,.cls-5,.cls-6,.cls-7,.cls-8,.cls-9{stroke:#3e6be0;stroke-linecap:round;stroke-linejoin:round;}.cls-5{fill:#3e6be0;}.cls-7,.cls-9{fill:#3e6be6;}.cls-7{opacity:0.3;}.cls-8{fill:#cad1e6;}.cls-11{fill:#ffc4c4;}.cls-12{fill:#ff6766;}</style></defs><path class="cls-1" d="M351.9,257.2a175.11,175.11,0,0,1-2.45,29.25H319.39A145,145,0,1,0,32.3,257.2a146,146,0,0,0,3,29.25H5.19A174.59,174.59,0,1,1,351.9,257.2Z"/><path class="cls-2" d="M322.34,257.2a146,146,0,0,1-2.95,29.25H35.25A145,145,0,1,1,322.34,257.2Z"/><path class="cls-3" d="M264.88,281.27a15.08,15.08,0,0,1-1.06,5.6H148a18.46,18.46,0,0,1-1.78-8A18.73,18.73,0,0,1,165,260.18a17,17,0,0,1,1.75.09,25.2,25.2,0,0,1,50-6.23,16.34,16.34,0,0,1,26.7,12.63v.55a14.94,14.94,0,0,1,6.1-1.28A15.33,15.33,0,0,1,264.88,281.27Z"/><path class="cls-3" d="M138.94,219.83c0,5.83-12.38,3.41-16.48,3.41H67.81a11.27,11.27,0,0,1-1.09-4.85A11.4,11.4,0,0,1,78.13,207a9.29,9.29,0,0,1,1.06,0,14.6,14.6,0,0,1-.1-1.76,15.34,15.34,0,0,1,30.55-2,9.95,9.95,0,0,1,16.25,7.69v.33a9.25,9.25,0,0,1,3.72-.78A9.34,9.34,0,0,1,138.94,219.83Z"/><circle class="cls-4" cx="285.59" cy="264.24" r="3.37"/><circle class="cls-4" cx="324.63" cy="186.47" r="2.42"/><circle class="cls-4" cx="62.64" cy="106.98" r="3"/><circle class="cls-4" cx="233.07" cy="48.07" r="2.33"/><circle class="cls-4" cx="180.91" cy="258.91" r="1.08"/><line class="cls-4" x1="36.95" y1="287.24" x2="76.71" y2="287.24"/><line class="cls-4" x1="91.94" y1="287.27" x2="209.1" y2="287.27"/><line class="cls-4" x1="225.18" y1="287.39" x2="248.44" y2="287.39"/><line class="cls-4" x1="264.04" y1="287.12" x2="283.5" y2="287.12"/><line class="cls-4" x1="299.47" y1="287.42" x2="318.93" y2="287.42"/><line class="cls-4" x1="97.94" y1="246.73" x2="105.18" y2="246.73"/><line class="cls-4" x1="101.56" y1="243.11" x2="101.56" y2="250.35"/><line class="cls-4" x1="47.13" y1="182.31" x2="54.37" y2="182.31"/><line class="cls-4" x1="50.75" y1="178.69" x2="50.75" y2="185.93"/><line class="cls-4" x1="257.05" y1="160.59" x2="264.29" y2="160.59"/><line class="cls-4" x1="260.67" y1="156.97" x2="260.67" y2="164.21"/><path class="cls-5" d="M109.89,247.44l-7.63,24.8a2.08,2.08,0,0,0,1.39,2.61L133.72,284a2.09,2.09,0,0,0,2.58-1.3l8.4-24a2.09,2.09,0,0,0-1.33-2.67l-30.84-9.95A2.09,2.09,0,0,0,109.89,247.44Z"/><path class="cls-6" d="M136.37,282.8l1.66,2a2.61,2.61,0,0,0,2.81.82l2.41-.79a.22.22,0,0,0,.15-.18l1.68-24.44a.29.29,0,0,0-.57-.12l-8.17,22.5A.19.19,0,0,0,136.37,282.8Z"/><line class="cls-4" x1="106.1" y1="261.17" x2="139.38" y2="271.92"/><path class="cls-6" d="M115.64,265.3l.57-2a1.49,1.49,0,0,1,1.91-1L129,266a1.48,1.48,0,0,1,1,1.85l-.61,2a1.49,1.49,0,0,1-1.91,1l-10.88-3.69A1.48,1.48,0,0,1,115.64,265.3Z"/><path class="cls-4" d="M120.85,248.57l2.28-6.95a1.86,1.86,0,0,1,2.26-1.23l12.83,3.44a1.88,1.88,0,0,1,1.35,2.21l-1.72,8"/><ellipse class="cls-4" cx="175.08" cy="219.03" rx="31.89" ry="38.64"/><path class="cls-7" d="M179.39,213.45A137,137,0,0,1,206.63,172a65.57,65.57,0,0,1,30-17.35,1.8,1.8,0,0,1,1.21,0,1.77,1.77,0,0,1,.71,1.23c2.56,10.88.68,21-3.17,31.26a20.33,20.33,0,0,0,3.26-3.42c1.1-1.2,2.62-2.25,4.23-2a4.26,4.26,0,0,1,3.15,2.81c3.27,8.39-1.63,19.18-6.74,25.71-7.39,9.44-18.49,15.3-29.64,19.12a121.27,121.27,0,0,1-12.83,3.56S169.59,239,179.39,213.45Z"/><path class="cls-7" d="M170.92,220.75c-7.1-16.73-17.71-33.22-30.8-45.83A68.08,68.08,0,0,0,125.58,164c-2.41-1.31-13.73-7.49-16.25-5.32a1.7,1.7,0,0,0-.42.74A37.08,37.08,0,0,0,107.2,174c.38,5.91,1.37,14.23,4.51,19.35,0,0-6.2-9.83-10.08-4.92s-6.21,40.08,50.93,52.75C152.56,241.18,181.26,247.64,170.92,220.75Z"/><path class="cls-8" d="M175,254c1.53.6.85,12.49.64,14.15a17.86,17.86,0,0,1-2.78,8.21,9.89,9.89,0,0,1-7.21,4,34.57,34.57,0,0,1-10.25-.51,15.3,15.3,0,0,1-5.62-1.79c-3.33-2.22-1.81-6.71,1-8.69.33-.22,3.78-2.17,3.83-1.59l-1.71-22.5Z"/><path class="cls-8" d="M176.55,253.87c-1.53.6-.85,12.48-.64,14.15.49,3.91,1.72,9,5.27,10.88,3.82,2,9.76,1.73,13.93,1.22,4.35-.54,10.77-2.76,7.72-8.26a8.43,8.43,0,0,0-2.57-2.9c-.38-.26-3.28-1.72-3.31-1.31l1.7-22.51Z"/><path class="cls-8" d="M194.76,178.3a6.74,6.74,0,0,1,1.08.33c3.49,1.45,5.68,6.09,8,8.82a112.71,112.71,0,0,1,10.26,13.68c6.18,9.87,11.11,22.66,9.25,34.53-.61,3.86-2.52,7.7-5.86,9.71a11.87,11.87,0,0,1-9.77.84c-4.8-1.62-8.38-4.8-7.88-10.12.77-8.16.34-13.5-2.93-21.34-2.34-5.61-4.69-11.25-8-16.33a35.3,35.3,0,0,1-4.49-8.16,9.47,9.47,0,0,1,.22-7.08C186.28,179.9,191.09,177.55,194.76,178.3Z"/><path class="cls-8" d="M154.56,181.88a6.17,6.17,0,0,0-1.08.33c-3.49,1.45-5.69,6.09-8,8.82a113,113,0,0,0-10.27,13.67c-6.18,9.88-11.1,22.67-9.24,34.54.6,3.86,2.51,7.69,5.86,9.71a11.87,11.87,0,0,0,9.77.84c4.8-1.62,8.38-4.8,7.87-10.13-.77-8.15-.33-13.49,2.94-21.33,2.33-5.61,4.69-11.25,8-16.33a34.89,34.89,0,0,0,4.48-8.16,9.46,9.46,0,0,0-.21-7.08A10.16,10.16,0,0,0,154.56,181.88Z"/><path class="cls-9" d="M200.37,196H149.48a34.72,34.72,0,0,1,9.75-10.36h31.38A34.75,34.75,0,0,1,200.37,196Z"/><path class="cls-10" d="M190.61,185.65H159.23a27.12,27.12,0,0,1,31.38,0Z"/><path class="cls-9" d="M206.56,214.37H143.29A44,44,0,0,1,145.64,204h58.57A44.53,44.53,0,0,1,206.56,214.37Z"/><path class="cls-10" d="M204.21,204H145.64a40.09,40.09,0,0,1,3.84-8h50.89A40.65,40.65,0,0,1,204.21,204Z"/><path class="cls-9" d="M206.67,222.92a45.28,45.28,0,0,1-2,10.36H145.19a45.28,45.28,0,0,1-2-10.36Z"/><path class="cls-10" d="M156.32,250.67h37.21a27.47,27.47,0,0,1-37.21,0Z"/><path class="cls-10" d="M204.66,233.28a42.66,42.66,0,0,1-3,7H148.17a41.82,41.82,0,0,1-3-7Z"/><path class="cls-10" d="M206.81,219.28c0,1.23-.05,2.44-.14,3.64H143.18c-.1-1.2-.14-2.41-.14-3.64a46.79,46.79,0,0,1,.25-4.91h63.27A46.79,46.79,0,0,1,206.81,219.28Z"/><path class="cls-9" d="M201.68,240.3a36.4,36.4,0,0,1-8.15,10.37H156.32a36.4,36.4,0,0,1-8.15-10.37Z"/><path class="cls-10" d="M176.54,187.37h-6a40.71,40.71,0,0,1-40.71-40.71V132.91A43.92,43.92,0,0,1,175.49,89h0A46.3,46.3,0,0,1,220,135.29v8.63A43.46,43.46,0,0,1,176.54,187.37Z"/><path class="cls-8" d="M213.45,111.56c-5-.32-10.29-.86-15.06,0-5.61,1-10.6,4-14.81,7.73-4.59,4-12,3.79-17.2,1-5-2.65-8.2-7.74-13.45-10.36a34.39,34.39,0,0,0-14.16-3.53A43.87,43.87,0,0,1,175.49,89a46.12,46.12,0,0,1,31.57,14.17A45.33,45.33,0,0,1,213.45,111.56Z"/><path class="cls-10" d="M168.29,86.84h11a3.56,3.56,0,0,1,3.56,3.56v1.32a0,0,0,0,1,0,0H164.72a0,0,0,0,1,0,0V90.4A3.56,3.56,0,0,1,168.29,86.84Z"/><path class="cls-10" d="M170.47,86.84s.69-11,6.1-14.87c0,0-2,14.87.54,14.87Z"/><circle class="cls-11" cx="177.11" cy="67.26" r="6.64"/><circle class="cls-12" cx="177.11" cy="67.26" r="4.7"/><circle class="cls-9" cx="154.07" cy="151.71" r="8.75"/><circle class="cls-9" cx="195.77" cy="151.71" r="8.75"/><circle class="cls-4" cx="154.07" cy="144.71" r="17.94"/><circle class="cls-4" cx="195.77" cy="144.71" r="17.94"/><line class="cls-4" x1="172.01" y1="144.71" x2="177.83" y2="144.71"/><line class="cls-4" x1="136.13" y1="144.71" x2="129.96" y2="136.62"/><line class="cls-4" x1="213.72" y1="144.71" x2="219.66" y2="136.62"/><path class="cls-4" d="M172.12,170.25a4.82,4.82,0,0,1,3.08-1.31,4.89,4.89,0,0,1,3.48,1.31"/></svg>