<svg id="Layer_1" data-name="Layer 1" xmlns="http://www.w3.org/2000/svg" viewBox="0 0 351.16 293.04"><defs><style>.cls-1,.cls-2,.cls-7{fill:#c4cbe0;}.cls-1{opacity:0.25;}.cls-3,.cls-8{fill:#fff;}.cls-4{fill:none;}.cls-12,.cls-4,.cls-5,.cls-6,.cls-7,.cls-8,.cls-9{stroke:#3e6be0;stroke-linecap:round;stroke-linejoin:round;}.cls-5,.cls-6{fill:#3e6be0;}.cls-5{opacity:0.4;}.cls-9{fill:#cad1e6;}.cls-10{fill:#ffc4c4;}.cls-11{fill:#ff6766;}.cls-12{fill:#3e6be6;}</style></defs><path class="cls-1" d="M350.16,254a175.11,175.11,0,0,1-2.45,29.25H317.65A145,145,0,1,0,30.56,254a146,146,0,0,0,2.95,29.25H3.45A174.59,174.59,0,1,1,350.16,254Z"/><path class="cls-2" d="M320.6,253a146,146,0,0,1-3,29.25H33.51A145,145,0,1,1,320.6,253Z"/><path class="cls-3" d="M269.15,277.57a15.08,15.08,0,0,1-1.06,5.6H152.31a18.46,18.46,0,0,1-1.78-8,18.73,18.73,0,0,1,18.73-18.73,17,17,0,0,1,1.75.09,25.2,25.2,0,0,1,50-6.23A16.34,16.34,0,0,1,247.72,263c0,.18,0,.37,0,.55a15,15,0,0,1,6.11-1.28A15.33,15.33,0,0,1,269.15,277.57Z"/><path class="cls-3" d="M137.2,216.6c0,5.83-12.38,3.4-16.48,3.4H66.07A11.18,11.18,0,0,1,65,215.16a11.39,11.39,0,0,1,11.4-11.4,9.29,9.29,0,0,1,1.06.05,17,17,0,0,1-.1-1.76,15.34,15.34,0,0,1,30.55-2,9.95,9.95,0,0,1,16.26,7.69c0,.11,0,.22,0,.33a9.32,9.32,0,0,1,13,8.56Z"/><circle class="cls-4" cx="132.27" cy="261.5" r="3.09"/><circle class="cls-4" cx="281.54" cy="259.95" r="3.53"/><line class="cls-4" x1="96.2" y1="243.5" x2="103.44" y2="243.5"/><line class="cls-4" x1="99.82" y1="239.88" x2="99.82" y2="247.12"/><line class="cls-4" x1="45.39" y1="179.07" x2="52.63" y2="179.07"/><line class="cls-4" x1="49.01" y1="175.46" x2="49.01" y2="182.69"/><line class="cls-4" x1="247.9" y1="130.9" x2="255.14" y2="130.9"/><line class="cls-4" x1="251.52" y1="127.28" x2="251.52" y2="134.52"/><line class="cls-4" x1="33.7" y1="284" x2="73.45" y2="284"/><line class="cls-4" x1="88.68" y1="284.04" x2="205.85" y2="284.04"/><line class="cls-4" x1="221.92" y1="284.15" x2="245.18" y2="284.15"/><line class="cls-4" x1="260.79" y1="283.88" x2="280.24" y2="283.88"/><line class="cls-4" x1="296.22" y1="284.19" x2="315.67" y2="284.19"/><path class="cls-5" d="M183.34,242.45a147.55,147.55,0,0,1,26.89-46.21,70.66,70.66,0,0,1,31.26-20.39,1.4,1.4,0,0,1,2.14,1.19c3.38,11.54,1.94,22.56-1.6,33.8a21.92,21.92,0,0,0,3.3-3.87c1.12-1.35,2.69-2.57,4.44-2.43a4.58,4.58,0,0,1,3.54,2.84c4,8.83-.63,20.72-5.75,28-7.4,10.58-19,17.53-30.77,22.28a134.92,134.92,0,0,1-13.6,4.58S174.27,270.44,183.34,242.45Z"/><path class="cls-5" d="M178.05,242.65c-8.6-17.58-21-34.7-35.78-47.51A73,73,0,0,0,126,184.29c-2.67-1.28-15.21-7.26-17.79-4.79a1.87,1.87,0,0,0-.41.82,40.15,40.15,0,0,0-1,15.74c.75,6.33,2.3,15.22,6,20.54,0,0-7.24-10.2-11.13-4.7s-4.35,43.46,57.83,53.78C159.49,265.68,190.73,271,178.05,242.65Z"/><path class="cls-6" d="M227.87,216.49,210,189.78a2.93,2.93,0,0,1,.84-4l7.91-5.75a2.91,2.91,0,0,1,4.09.46L244.54,211"/><path class="cls-7" d="M204.83,209.56a21.5,21.5,0,0,1,5.87,3.85c1.86,1.7,2.59,4.5,4.19,5.93,7.71,6.91,15.79-8.38,23.91-8.82,12-.66,29.68,8.4,29.23,22.14a18.73,18.73,0,0,1-6.26,12.75l-.56.5c-9.63,8.42-28.49,14.48-43.6,11.54-6-1.17-13.38-3.27-18.44-6.7-6.94-4.71-12.26-11.52-14.1-18.6s1.45-17,7.28-21.59C196.07,207.66,200.63,207.74,204.83,209.56Z"/><path class="cls-7" d="M234.75,247.2c-18.1-11.07-13.51-22.85-11.15-26.87"/><path class="cls-6" d="M203.32,216.39H129.83A46.24,46.24,0,0,1,143.91,204h45.32A46.27,46.27,0,0,1,203.32,216.39Z"/><path class="cls-8" d="M189.23,204H143.91a46,46,0,0,1,45.32,0Z"/><path class="cls-6" d="M212.26,238.35H120.89a45.31,45.31,0,0,1,3.39-12.41h84.58A45.68,45.68,0,0,1,212.26,238.35Z"/><path class="cls-8" d="M208.86,225.94H124.28a45.7,45.7,0,0,1,5.55-9.55h73.49A45.66,45.66,0,0,1,208.86,225.94Z"/><path class="cls-6" d="M212.42,248.57A46.11,46.11,0,0,1,209.51,261H123.63a46.09,46.09,0,0,1-2.9-12.39Z"/><path class="cls-8" d="M139.71,281.76h53.73a46,46,0,0,1-53.73,0Z"/><path class="cls-8" d="M209.51,261a46.1,46.1,0,0,1-4.3,8.39H127.93a46.75,46.75,0,0,1-4.3-8.39Z"/><path class="cls-8" d="M212.62,244.22c0,1.47-.07,2.91-.2,4.35H120.73c-.14-1.44-.21-2.88-.21-4.35a47.32,47.32,0,0,1,.37-5.87h91.37A47.32,47.32,0,0,1,212.62,244.22Z"/><path class="cls-6" d="M205.21,269.35a46.21,46.21,0,0,1-11.77,12.41H139.71a46.4,46.4,0,0,1-11.78-12.41Z"/><polygon class="cls-7" points="227.62 256.81 246.04 257.01 271.87 289.72 116.55 289.72 143.58 256.81 168.52 256.81 227.62 256.81"/><path class="cls-6" d="M169.37,275.42c-.16.25-.32.5-.49.74-.67,1-1.36,1.93-2.07,2.86-1.18,1.54-2.3,3.13-3.44,4.69-.12.15-.28.33-.47.3s-.23-.15-.32-.26c-.52-.72-1-1.46-1.59-2.15-.7-.88-1.43-1.73-2.14-2.6-1.95-2.37-4.26-5.11-4.26-8.35a8.16,8.16,0,0,1,16.32,0,7.64,7.64,0,0,1-.44,2.55A10.44,10.44,0,0,1,169.37,275.42Z"/><circle class="cls-8" cx="162.75" cy="270.17" r="3.69"/><path class="cls-6" d="M227.39,277.94l-.49.74q-1,1.45-2.07,2.85c-1.18,1.54-2.3,3.13-3.45,4.69-.11.16-.27.33-.46.3a.51.51,0,0,1-.32-.26c-.53-.71-1-1.46-1.59-2.15-.71-.87-1.43-1.73-2.14-2.59-2-2.38-4.26-5.11-4.26-8.36a8.16,8.16,0,0,1,16.32,0,7.9,7.9,0,0,1-.44,2.55A11,11,0,0,1,227.39,277.94Z"/><circle class="cls-8" cx="220.77" cy="272.68" r="3.69"/><path class="cls-6" d="M201.24,263.86c-.15.25-.32.49-.48.74-.67,1-1.36,1.92-2.08,2.85-1.17,1.54-2.29,3.13-3.44,4.69-.11.16-.27.33-.46.3a.53.53,0,0,1-.32-.25c-.53-.72-1-1.47-1.59-2.16-.71-.87-1.43-1.73-2.14-2.59-1.95-2.38-4.26-5.11-4.26-8.36a8.16,8.16,0,0,1,16.32,0,7.9,7.9,0,0,1-.44,2.55A10.55,10.55,0,0,1,201.24,263.86Z"/><circle class="cls-8" cx="194.63" cy="258.6" r="3.69"/><path class="cls-7" d="M142.52,205.37c-11.6,7.27-21.62,24.88-20,38.07.1.81,5.91,3.13,6.72,3.6C136,250.9,139,260.43,138,267.8a21.67,21.67,0,0,1-.49,2.45,22.73,22.73,0,0,1-12.54,14.5c-12.46,5.6-25.57-.95-32-12.24-7.39-12.95-3.78-29.51,3.9-41.57,6.85-10.71,32.7-25.07,44.13-30.33.82-.23,3.76,2.66,4.33,3.25A24.94,24.94,0,0,0,142.52,205.37Z"/><path class="cls-6" d="M127,222.65c-.14.65-.3,1.3-.47,2q-1,3.88-2.2,7.73c-1.32,4.21-2.47,8.48-3.71,12.72-.12.42-.32.92-.75,1a1.21,1.21,0,0,1-.89-.3c-1.69-1.12-3.34-2.32-5.08-3.37-2.19-1.31-4.42-2.57-6.61-3.87-6-3.56-13.1-7.61-15.63-14.56a18.58,18.58,0,1,1,34.91-12.74,17.69,17.69,0,0,1,1,5.8A24,24,0,0,1,127,222.65Z"/><circle class="cls-8" cx="108.71" cy="216.57" r="8.42"/><path class="cls-7" d="M101.29,260.16c1.16-12.81,18.72-15.22,22.68-15.6"/><line class="cls-8" x1="166.93" y1="139.3" x2="178.79" y2="142.89"/><ellipse class="cls-6" cx="148.51" cy="140.57" rx="11.89" ry="10.81" transform="translate(-29.08 241.96) rotate(-73.15)"/><path class="cls-8" d="M165.13,209l-7.84-1.54a54.38,54.38,0,0,1-42.82-63.89l3.55-18a58.68,58.68,0,0,1,71.16-45.72h0A61.84,61.84,0,0,1,235.54,152l-2.23,11.31A58,58,0,0,1,165.13,209Z"/><path class="cls-9" d="M233.1,119.2c-6.49-1.72-13.26-3.79-19.73-4-7.6-.19-14.92,2.52-21.41,6.3-7.05,4.11-16.64,1.88-22.8-3.09-5.91-4.79-8.74-12.28-14.95-17.06a45.84,45.84,0,0,0-17.64-8.3,58.62,58.62,0,0,1,52.61-13.25A61.82,61.82,0,0,1,233.1,119.2Z"/><path class="cls-8" d="M178.34,76.48h17.09A3.56,3.56,0,0,1,199,80v3a0,0,0,0,1,0,0H174.78a0,0,0,0,1,0,0V80A3.56,3.56,0,0,1,178.34,76.48Z" transform="translate(18.98 -34.67) rotate(11.16)"/><path class="cls-8" d="M183.17,75.69S186.93,61.4,195,57.77c0,0-6.53,19-3.14,19.63Z"/><circle class="cls-10" cx="196.93" cy="51.74" r="8.87"/><circle class="cls-11" cx="196.93" cy="51.74" r="6.28"/><circle class="cls-12" cx="147.71" cy="151.28" r="11.69"/><circle class="cls-12" cx="202.36" cy="162.07" r="11.69"/><circle class="cls-4" cx="146.71" cy="147.28" r="23.96"/><circle class="cls-4" cx="201.36" cy="158.07" r="23.96"/><line class="cls-4" x1="170.22" y1="151.92" x2="177.85" y2="153.43"/><line class="cls-4" x1="123.2" y1="142.64" x2="117.21" y2="130.45"/><line class="cls-4" x1="224.88" y1="162.71" x2="234.76" y2="153.65"/><path class="cls-6" d="M200.69,118.4a36.66,36.66,0,1,0,36.63,36.66A36.66,36.66,0,0,0,200.69,118.4Zm-.52,68.07A30.88,30.88,0,1,1,231,155.59,30.87,30.87,0,0,1,200.17,186.47Z"/><circle class="cls-8" cx="160.2" cy="188.68" r="5.09"/></svg>