<svg id="Layer_1" data-name="Layer 1" xmlns="http://www.w3.org/2000/svg" viewBox="0 0 351.16 293.04"><defs><style>.cls-1,.cls-2,.cls-5{fill:#c4cbe0;}.cls-1{opacity:0.25;}.cls-3,.cls-7{fill:#fff;}.cls-4{fill:none;}.cls-12,.cls-4,.cls-5,.cls-6,.cls-7,.cls-8,.cls-9{stroke:#3e6be0;stroke-linecap:round;stroke-linejoin:round;}.cls-6,.cls-8{fill:#3e6be0;}.cls-8{opacity:0.4;}.cls-9{fill:#cad1e6;}.cls-10{fill:#ffc4c4;}.cls-11{fill:#ff6766;}.cls-12{fill:#3e6be6;}</style></defs><path class="cls-1" d="M350.47,247A175.11,175.11,0,0,1,348,276.21H318A145,145,0,1,0,30.87,247a146,146,0,0,0,2.95,29.25H3.76A174.59,174.59,0,1,1,350.47,247Z"/><path class="cls-2" d="M320.91,247a146,146,0,0,1-3,29.25H33.82A145,145,0,1,1,320.91,247Z"/><path class="cls-3" d="M263.46,271a15.08,15.08,0,0,1-1.06,5.6H146.62a18.46,18.46,0,0,1-1.78-8,18.73,18.73,0,0,1,18.73-18.73,17,17,0,0,1,1.75.09,25.2,25.2,0,0,1,50-6.23A16.34,16.34,0,0,1,242,256.43c0,.18,0,.37,0,.55a15,15,0,0,1,6.11-1.28A15.33,15.33,0,0,1,263.46,271Z"/><path class="cls-3" d="M137.52,209.58c0,5.83-12.38,3.41-16.49,3.41H66.38a11.26,11.26,0,0,1-1.08-4.85,11.4,11.4,0,0,1,11.4-11.4,9.59,9.59,0,0,1,1.07.06,14.72,14.72,0,0,1-.11-1.76,15.34,15.34,0,0,1,30.55-2,10,10,0,0,1,16.26,7.69c0,.11,0,.23,0,.34a9.08,9.08,0,0,1,3.72-.78A9.34,9.34,0,0,1,137.52,209.58Z"/><circle class="cls-4" cx="141.58" cy="255.47" r="2.95"/><circle class="cls-4" cx="284.16" cy="253.99" r="3.37"/><circle class="cls-4" cx="125.79" cy="181.08" r="2.42"/><circle class="cls-4" cx="61.22" cy="96.74" r="3"/><circle class="cls-4" cx="84.19" cy="47.47" r="2"/><circle class="cls-4" cx="231.64" cy="37.82" r="2.33"/><circle class="cls-4" cx="179.49" cy="248.67" r="1.08"/><line class="cls-4" x1="35.53" y1="276.99" x2="75.29" y2="276.99"/><line class="cls-4" x1="90.51" y1="277.03" x2="207.68" y2="277.03"/><line class="cls-4" x1="223.75" y1="277.15" x2="247.02" y2="277.15"/><line class="cls-4" x1="262.62" y1="276.88" x2="282.08" y2="276.88"/><line class="cls-4" x1="298.05" y1="277.18" x2="317.51" y2="277.18"/><line class="cls-4" x1="96.51" y1="236.49" x2="103.75" y2="236.49"/><line class="cls-4" x1="100.13" y1="232.87" x2="100.13" y2="240.11"/><line class="cls-4" x1="45.7" y1="172.06" x2="52.94" y2="172.06"/><line class="cls-4" x1="49.32" y1="168.44" x2="49.32" y2="175.68"/><line class="cls-4" x1="248.22" y1="157.14" x2="255.46" y2="157.14"/><line class="cls-4" x1="251.84" y1="153.52" x2="251.84" y2="160.76"/><path class="cls-5" d="M211.44,95.44c-14.78-.49-77.51,76.22-77.51,76.22l-.83.12-1.5.21,55.77,55.47a.11.11,0,0,0,.09,0l37.95,1.27a.1.1,0,0,0,.09,0l56.36-49.21a.14.14,0,0,0-.11-.25,3,3,0,0,1-2.84-1.15S224.64,95.89,211.44,95.44Z"/><path class="cls-5" d="M159.35,211.94l-41.62-77.55c-2.82-5.24-1.71-11.31,2.44-13.43l65.54-33.44c4.08-2.08,9.54.45,12.19,5.66l39.49,77.4c2.63,5.16,1.52,11-2.49,13.14L171.49,217.3C167.49,219.42,162.08,217,159.35,211.94Z"/><line class="cls-4" x1="135.55" y1="143.41" x2="192.77" y2="111.95"/><line class="cls-4" x1="144.34" y1="155.96" x2="204.21" y2="129.9"/><line class="cls-4" x1="151.23" y1="173.74" x2="211.1" y2="147.68"/><path class="cls-5" d="M145.42,180.94a5.44,5.44,0,0,0,.56.69c2.12,2.12,6.18,2.32,8.89,3.22a88.08,88.08,0,0,0,13.1,3.38c9.09,1.54,19.93,1.28,28.06-3.66a10.84,10.84,0,0,0,5.33-7.22A9.38,9.38,0,0,0,199,170c-2.63-3-6-4.68-9.78-2.71-5.74,3-9.77,4.32-16.5,4.3a77.45,77.45,0,0,1-14.36-.95,28,28,0,0,0-7.33-.81,7.54,7.54,0,0,0-5.12,2.29A8,8,0,0,0,145.42,180.94Z"/><path class="cls-6" d="M185.12,173.67l22-65.38a8.3,8.3,0,0,1,10.71-5.14l69.08,25.31a8.29,8.29,0,0,1,4.93,10.64L268.42,203a8.29,8.29,0,0,1-10.54,5l-67.66-23.87A8.3,8.3,0,0,1,185.12,173.67Z"/><path class="cls-7" d="M166.87,211.29l.55-79.69a9.59,9.59,0,0,1,9.9-9.51l84.95,2.85a9.58,9.58,0,0,1,9.25,9.89l-2.64,78.63a9.57,9.57,0,0,1-9.77,9.26l-82.87-1.79A9.58,9.58,0,0,1,166.87,211.29Z"/><path class="cls-5" d="M250.81,176.4l-7.2-.45a1.51,1.51,0,0,1-1.38-1.2,23.75,23.75,0,0,0-1.95-5.33,1.5,1.5,0,0,1,.27-1.76l5.25-5a2.4,2.4,0,0,0,.08-3.4l-4.53-4.76a2.41,2.41,0,0,0-3.41-.08l-5.21,5a1.54,1.54,0,0,1-1.83.2,23.48,23.48,0,0,0-3.52-1.64,1.59,1.59,0,0,1-1.07-1.59l.42-7.15a2.41,2.41,0,0,0-2.26-2.54l-6.57-.39a2.41,2.41,0,0,0-2.54,2.26l-.42,7.16a1.59,1.59,0,0,1-1.24,1.44,22.94,22.94,0,0,0-3.68,1.2,1.54,1.54,0,0,1-1.79-.41l-4.59-5.56a2.42,2.42,0,0,0-3.39-.32l-5.07,4.19a2.42,2.42,0,0,0-.32,3.39l4.64,5.62a1.41,1.41,0,0,1,.07,1.7,23.77,23.77,0,0,0-2.57,5,1.5,1.5,0,0,1-1.5,1l-7.21-.45a2.42,2.42,0,0,0-2.55,2.26l-.41,6.56a2.42,2.42,0,0,0,2.26,2.55l7.19.45a1.53,1.53,0,0,1,1.39,1.2,23.75,23.75,0,0,0,2,5.33,1.49,1.49,0,0,1-.28,1.76l-5.24,5a2.4,2.4,0,0,0-.08,3.4l4.53,4.76a2.4,2.4,0,0,0,3.4.08l5.22-5a1.54,1.54,0,0,1,1.83-.2,23,23,0,0,0,3.52,1.64,1.61,1.61,0,0,1,1.07,1.59l-.42,7.14a2.41,2.41,0,0,0,2.26,2.55l6.56.39a2.42,2.42,0,0,0,2.55-2.26l.42-7.16a1.57,1.57,0,0,1,1.23-1.44,23.42,23.42,0,0,0,3.69-1.21,1.54,1.54,0,0,1,1.79.42l4.59,5.56a2.42,2.42,0,0,0,3.39.32l5.06-4.19a2.41,2.41,0,0,0,.33-3.39L238.89,195a1.43,1.43,0,0,1-.06-1.71,23.45,23.45,0,0,0,2.57-5,1.5,1.5,0,0,1,1.5-1l7.21.44a2.41,2.41,0,0,0,2.55-2.25l.4-6.56A2.41,2.41,0,0,0,250.81,176.4Z"/><circle class="cls-7" cx="219.2" cy="180.14" r="10.61"/><path class="cls-6" d="M138.29,252.34c22.07,2,45.77,3.41,70.94,3.8,22.08.34,43-.13,62.71-1.15l-44.75-36a5.82,5.82,0,0,0-3.47-1.29L190,216.61a5.84,5.84,0,0,0-3.63,1.1Z"/><path class="cls-6" d="M226,218.06l44.39,36.6a1.59,1.59,0,0,0,2.57-.9c2.62-12.24,4.95-25.69,6.65-40.23,1.49-12.67,2.54-23.78,2.93-34.87a.32.32,0,0,0-.51-.26c-18,13.69-38,25.45-56,39.16A.32.32,0,0,0,226,218.06Z"/><path class="cls-6" d="M131.9,171.1,188,216.54l-49.75,35.8a272,272,0,0,1-6.39-81.24Z"/><path class="cls-8" d="M117,191.37c-5.62-13.25-14-26.3-24.38-36.28a53.74,53.74,0,0,0-11.5-8.61c-1.91-1-10.87-5.92-12.87-4.21a1.4,1.4,0,0,0-.33.58,29.51,29.51,0,0,0-1.35,11.51c.3,4.68,1.09,11.26,3.57,15.32,0,0-4.91-7.78-8-3.89s-4.91,31.72,40.31,41.74C102.47,207.53,125.19,212.65,117,191.37Z"/><path class="cls-5" d="M159.28,231.54l-1.41,24.37s4.75,1.39,2.45,6.22c-1.07,2.25-4.52,2.72-6.68,2.93a31.5,31.5,0,0,1-10.72-.87c-2.62-.68-5.38-1.65-7.24-3.72s-1.92-5.35-1.43-8c.45-2.46,1.15-4.86,1.61-7.32s.55-4.85.83-7.31.93-5.08,3.42-6c2.1-.75,8.38.47,10.48-.28C151.27,231.32,159.25,232.11,159.28,231.54Z"/><path class="cls-5" d="M155.34,243.37l-1.42,24.38s4.75,1.38,2.45,6.22c-1.06,2.24-4.52,2.72-6.68,2.93A31.18,31.18,0,0,1,139,276c-2.63-.67-5.38-1.64-7.24-3.71s-1.93-5.36-1.44-8c.45-2.46,1.15-4.87,1.62-7.32s.54-4.86.82-7.31.94-5.08,3.42-6c2.11-.75,8.38.47,10.49-.28C147.32,243.15,155.31,243.94,155.34,243.37Z"/><path class="cls-6" d="M173.2,179.26l-59.36-.14a40.46,40.46,0,0,1,11.41-12.06l36.6.08A40.49,40.49,0,0,1,173.2,179.26Z"/><path class="cls-7" d="M162.33,168.86l-36.44-3.46a31.62,31.62,0,0,1,36.44,3.46Z"/><path class="cls-6" d="M180.85,200.31a267.3,267.3,0,0,1-36,2.93,266.2,266.2,0,0,1-37.8-2.2,51.77,51.77,0,0,1,1-6.23,49.2,49.2,0,0,1,1.66-5.89,297.65,297.65,0,0,1,35.39-2.3A301,301,0,0,1,178,188.23C178.62,190,179.24,191.91,180.85,200.31Z"/><path class="cls-7" d="M178,188.23l-68.31.69a46.93,46.93,0,0,1,4.38-9.36l59.36-.6A47.58,47.58,0,0,1,178,188.23Z"/><path class="cls-6" d="M181.08,210.27a52.85,52.85,0,0,1-2.22,12.11l-69.36.7A52.44,52.44,0,0,1,107,211Z"/><path class="cls-7" d="M122.68,243.24l43.4-.44a32.06,32.06,0,0,1-43.4.44Z"/><path class="cls-7" d="M178.86,222.38a49.19,49.19,0,0,1-3.39,8.23l-62.42.62a48.85,48.85,0,0,1-3.55-8.15Z"/><path class="cls-7" d="M181.2,206c0,1.43,0,2.83-.12,4.23-10.9-1-22.88-1.58-35.79-1.5A369.29,369.29,0,0,0,107,211c-.06-.63-.11-1.34-.15-2.1s0-1.42-.06-2.13a54.41,54.41,0,0,1,.24-5.74l73.79-.73A53.75,53.75,0,0,1,181.2,206Z"/><path class="cls-6" d="M175.47,230.61a42.88,42.88,0,0,1-9.39,12.19l-43.4.44a42.69,42.69,0,0,1-9.63-12Z"/><path class="cls-5" d="M146.28,188.69a4.72,4.72,0,0,0,.56.68c2.12,2.12,6.18,2.33,8.89,3.22a89.35,89.35,0,0,0,13.1,3.39c9.09,1.54,19.93,1.27,28.06-3.67a10.82,10.82,0,0,0,5.33-7.22,9.4,9.4,0,0,0-2.34-7.4c-2.63-3-6-4.68-9.78-2.7-5.74,3-9.77,4.32-16.5,4.29a76.59,76.59,0,0,1-14.36-.94,28,28,0,0,0-7.33-.82,7.5,7.5,0,0,0-5.12,2.3A8,8,0,0,0,146.28,188.69Z"/><path class="cls-8" d="M115.64,202c-5.61-13.25-14-26.3-24.37-36.28a54,54,0,0,0-11.51-8.61c-1.91-1-10.87-5.92-12.87-4.21a1.26,1.26,0,0,0-.32.59A29.28,29.28,0,0,0,65.21,165c.3,4.68,1.09,11.26,3.57,15.32,0,0-4.91-7.78-8-3.89s-4.91,31.72,40.31,41.74C101.11,218.16,123.83,223.28,115.64,202Z"/><path class="cls-7" d="M148.61,174.12l5.66-1.06a39.26,39.26,0,0,0,31.3-45.84l-2.45-13a42.34,42.34,0,0,0-51.07-33.43h0a44.63,44.63,0,0,0-33.9,51.77l1.54,8.17A41.89,41.89,0,0,0,148.61,174.12Z"/><path class="cls-9" d="M129.22,81.52c2.38.91,4.87,1.55,7.3,2.29.7.19,1.38.39,2,.62l.83.29c.59.19,1.15.41,1.72.65.25.1.5.22.75.33s.54.24.81.37a23.66,23.66,0,0,1,2.71,1.62,31.82,31.82,0,0,1,8.8,9.64c3.11,5,10,6.83,15.58,5.75a32.4,32.4,0,0,0,7.88-3.1,42.32,42.32,0,0,0-45.6-19.2C131.1,81,130.15,81.24,129.22,81.52Z"/><path class="cls-7" d="M145.39,87.69a23.66,23.66,0,0,0-2.71-1.62c-.27-.13-.53-.26-.81-.37s-.5-.23-.75-.33c-.57-.24-1.13-.46-1.72-.65l-.83-.29c-.67-.23-1.35-.43-2-.62"/><path class="cls-7" d="M124.66,76.72h17.48a0,0,0,0,1,0,0v1.15a3.56,3.56,0,0,1-3.56,3.56H128.22a3.56,3.56,0,0,1-3.56-3.56V76.72a0,0,0,0,1,0,0Z" transform="translate(279.13 132.08) rotate(169.33)"/><path class="cls-7" d="M136.1,76.17s-2.62-10.33-8.43-13c0,0,4.59,13.72,2.15,14.18Z"/><circle class="cls-10" cx="126.32" cy="58.81" r="6.4"/><circle class="cls-11" cx="126.32" cy="58.81" r="4.53"/><circle class="cls-12" cx="170.51" cy="129.36" r="8.44"/><circle class="cls-4" cx="162.55" cy="126.96" r="17.29"/><line class="cls-4" x1="184.4" y1="121.06" x2="179.55" y2="123.76"/></svg>