<svg id="Layer_1" data-name="Layer 1" xmlns="http://www.w3.org/2000/svg" viewBox="0 0 351.16 293.04"><defs><style>.cls-1,.cls-2,.cls-7{fill:#c4cbe0;}.cls-1{opacity:0.25;}.cls-3,.cls-5{fill:#fff;}.cls-4{fill:none;}.cls-11,.cls-4,.cls-5,.cls-6,.cls-7,.cls-8{stroke:#3e6be0;stroke-linecap:round;stroke-linejoin:round;}.cls-11,.cls-6,.cls-8{fill:#3e6be0;}.cls-8{opacity:0.3;}.cls-9{fill:#ffd9d9;}.cls-10{fill:#ff6766;}.cls-11{font-size:12.79px;font-family:ArialRoundedMTBold, Arial Rounded MT Bold;}</style></defs><path class="cls-1" d="M349.93,247a175.11,175.11,0,0,1-2.45,29.25H317.42A145,145,0,1,0,30.33,247a146,146,0,0,0,3,29.25H3.22A174.59,174.59,0,1,1,349.93,247Z"/><path class="cls-2" d="M320.37,247a146,146,0,0,1-2.95,29.25H33.28A145,145,0,1,1,320.37,247Z"/><path class="cls-3" d="M262.91,271a15.08,15.08,0,0,1-1.06,5.6H146.07a18.46,18.46,0,0,1-1.78-8A18.73,18.73,0,0,1,163,249.94a17,17,0,0,1,1.75.09,25.2,25.2,0,0,1,50-6.23,16.34,16.34,0,0,1,26.7,12.63c0,.18,0,.37,0,.55a15,15,0,0,1,6.11-1.28A15.33,15.33,0,0,1,262.91,271Z"/><path class="cls-3" d="M137,209.58c0,5.83-12.38,3.41-16.48,3.41H65.84a11.27,11.27,0,0,1-1.09-4.85,11.4,11.4,0,0,1,11.4-11.4,9.46,9.46,0,0,1,1.07.06,14.72,14.72,0,0,1-.1-1.76,15.34,15.34,0,0,1,30.55-2,9.95,9.95,0,0,1,16.25,7.69V201a9,9,0,0,1,3.72-.78A9.33,9.33,0,0,1,137,209.58Z"/><circle class="cls-4" cx="283.61" cy="253.99" r="3.37"/><circle class="cls-4" cx="125.24" cy="181.08" r="2.42"/><circle class="cls-4" cx="60.67" cy="96.74" r="3"/><circle class="cls-4" cx="83.64" cy="47.47" r="2"/><circle class="cls-4" cx="231.1" cy="37.82" r="2.33"/><circle class="cls-4" cx="178.94" cy="248.67" r="1.08"/><line class="cls-4" x1="34.98" y1="276.99" x2="74.74" y2="276.99"/><line class="cls-4" x1="89.97" y1="277.03" x2="207.13" y2="277.03"/><line class="cls-4" x1="223.21" y1="277.15" x2="246.47" y2="277.15"/><line class="cls-4" x1="262.07" y1="276.88" x2="281.53" y2="276.88"/><line class="cls-4" x1="297.5" y1="277.18" x2="316.96" y2="277.18"/><line class="cls-4" x1="45.16" y1="172.06" x2="52.39" y2="172.06"/><line class="cls-4" x1="48.78" y1="168.44" x2="48.78" y2="175.68"/><line class="cls-4" x1="247.67" y1="157.14" x2="254.91" y2="157.14"/><line class="cls-4" x1="251.29" y1="153.52" x2="251.29" y2="160.76"/><line class="cls-4" x1="248.32" y1="89.83" x2="253.76" y2="89.83"/><line class="cls-4" x1="251.04" y1="87.11" x2="251.04" y2="92.55"/><path class="cls-5" d="M267.76,105v76.26a16.54,16.54,0,0,1-16.55,16.54H163.28a16.53,16.53,0,0,1-16.54-16.54V104.14Z"/><path class="cls-6" d="M267.76,88.88V105l-121-.86V88.88a16.54,16.54,0,0,1,16.54-16.54h87.93A16.55,16.55,0,0,1,267.76,88.88Z"/><rect class="cls-5" x="175.94" y="61.61" width="9.17" height="24.27" rx="4.58"/><rect class="cls-5" x="234.78" y="67.45" width="8.02" height="21.23" rx="4.01"/><circle class="cls-4" cx="254.98" cy="92.91" r="0.82"/><path class="cls-7" d="M278.91,71.76l-6.17,0a1.29,1.29,0,0,1-1.24-.95,20.42,20.42,0,0,0-1.94-4.46,1.26,1.26,0,0,1,.15-1.52l4.23-4.54a2.07,2.07,0,0,0-.1-2.91l-4.12-3.84a2.07,2.07,0,0,0-2.91.1l-4.21,4.52a1.32,1.32,0,0,1-1.55.26A19.66,19.66,0,0,0,258,57.18a1.38,1.38,0,0,1-1-1.31V49.75a2.06,2.06,0,0,0-2.06-2.06h-5.62a2.06,2.06,0,0,0-2.06,2.06v6.14a1.34,1.34,0,0,1-1,1.28,19.54,19.54,0,0,0-3.08,1.22,1.31,1.31,0,0,1-1.55-.27l-4.2-4.51a2.08,2.08,0,0,0-2.92-.11l-4.12,3.84a2.07,2.07,0,0,0-.1,2.91l4.25,4.57a1.2,1.2,0,0,1,.14,1.45,20.45,20.45,0,0,0-1.94,4.41,1.3,1.3,0,0,1-1.23.94l-6.18,0a2.07,2.07,0,0,0-2.07,2.06l0,5.62a2.07,2.07,0,0,0,2.06,2.07l6.17,0a1.29,1.29,0,0,1,1.24.95,20,20,0,0,0,1.94,4.46,1.26,1.26,0,0,1-.15,1.52l-4.23,4.54a2.07,2.07,0,0,0,.1,2.91l4.12,3.84a2.07,2.07,0,0,0,2.91-.11L241.58,95a1.3,1.3,0,0,1,1.55-.26,19.66,19.66,0,0,0,3.09,1.22,1.39,1.39,0,0,1,1,1.31v6.12a2.06,2.06,0,0,0,2.06,2.06h5.62a2.06,2.06,0,0,0,2.06-2.06V97.22a1.34,1.34,0,0,1,1-1.28A20.56,20.56,0,0,0,261,94.72a1.32,1.32,0,0,1,1.55.26l4.2,4.52a2.08,2.08,0,0,0,2.92.11l4.12-3.84a2.07,2.07,0,0,0,.1-2.91l-4.25-4.57a1.21,1.21,0,0,1-.14-1.45,20.31,20.31,0,0,0,1.94-4.42,1.28,1.28,0,0,1,1.23-.93l6.18,0A2.07,2.07,0,0,0,281,79.45l0-5.62A2.07,2.07,0,0,0,278.91,71.76Z"/><circle class="cls-5" cx="252.09" cy="76.55" r="9.08"/><path class="cls-8" d="M134.48,197.61a133.74,133.74,0,0,1,26.61-40.54,64.07,64.07,0,0,1,29.31-16.95,1.27,1.27,0,0,1,1.87,1.18c2.51,10.63.67,20.53-3.09,30.54a20.14,20.14,0,0,0,3.18-3.34c1.08-1.17,2.56-2.2,4.14-2a4.16,4.16,0,0,1,3.07,2.74c3.2,8.2-1.59,18.74-6.58,25.12-7.22,9.22-18.07,15-29,18.68a123.15,123.15,0,0,1-12.54,3.48S124.9,222.53,134.48,197.61Z"/><path class="cls-8" d="M137.45,205c-6.93-16.34-17.3-32.45-30.09-44.77a66.67,66.67,0,0,0-14.2-10.63c-2.36-1.28-13.42-7.32-15.88-5.2a1.58,1.58,0,0,0-.41.72,36.18,36.18,0,0,0-1.67,14.21c.37,5.78,1.34,13.9,4.41,18.9,0,0-6.06-9.6-9.85-4.8S63.69,212.6,119.52,225C119.52,225,147.55,231.29,137.45,205Z"/><path class="cls-7" d="M104.24,201.49c1.59-1.22,3.19-2.41,4.86-3.52a53.5,53.5,0,0,1,4.6-2.78,48.58,48.58,0,0,0,5.37-3.15,14.81,14.81,0,0,0,1.79-1.46c.11-.1.23-.22.33-.33a8.31,8.31,0,0,0,2.58-5.43,7,7,0,0,0-.45-2.66,10.08,10.08,0,0,0-.91-1.87h0a8.8,8.8,0,0,0-4.59-3.81,6.54,6.54,0,0,0-1-.22,7.57,7.57,0,0,0-2.7.26c-2.63.7-5.32,2.45-7.61,3.31a104.8,104.8,0,0,0-14.23,6.5c-.61.34-1.23.72-1.87,1.08-11,5.21-9.82,15.12-4.44,24.05,4.5,7.47,11.94,14.24,17.65,17a13.3,13.3,0,0,0,8.08,1.32,9.4,9.4,0,0,0,2.26-.7,9.54,9.54,0,0,0,3.4-2.62,11.52,11.52,0,0,0,2.2-4c0-.09.06-.2.09-.3a12.65,12.65,0,0,0,.49-5.46,7.63,7.63,0,0,0-4-5.72c-.93-.52-1.81-1-2.63-1.54a35.85,35.85,0,0,1-6-4.4,31.53,31.53,0,0,1-3.25-3.51,45.27,45.27,0,0,1-2.73-3.8c-.67-1.05-1.35-2.1-2-3.15"/><path class="cls-7" d="M153.42,178.21s19.34-8,24.37-14.59,2.51-12.41,8.12-12.59,7.93,4.19,8.32,9.49-4.47,26.87-31.82,39.89C162.41,200.41,149.94,193.9,153.42,178.21Z"/><path class="cls-7" d="M136.93,243.11c1.31.54.72,11,.55,12.48a16,16,0,0,1-2.4,7.23,8.47,8.47,0,0,1-6.22,3.53,29.09,29.09,0,0,1-8.83-.44,13.5,13.5,0,0,1-4.85-1.58c-2.87-2-1.55-5.92.86-7.66.28-.2,3.26-1.92,3.3-1.41l-1.47-19.84Z"/><path class="cls-7" d="M138.24,243c-1.32.53-.73,11-.55,12.47.42,3.45,1.49,7.92,4.54,9.59,3.3,1.8,8.42,1.53,12,1.08,3.75-.48,9.29-2.44,6.66-7.28a7.51,7.51,0,0,0-2.22-2.56c-.33-.23-2.82-1.52-2.85-1.16l1.47-19.83Z"/><path class="cls-6" d="M159.86,185.77h-45.8a32.55,32.55,0,0,1,8.78-9.92h28.24A32.55,32.55,0,0,1,159.86,185.77Z"/><path class="cls-5" d="M151.08,175.85H122.84a23.21,23.21,0,0,1,28.24,0Z"/><path class="cls-6" d="M165.43,203.35H108.49a44.55,44.55,0,0,1,2.11-9.93h52.71A44.55,44.55,0,0,1,165.43,203.35Z"/><path class="cls-5" d="M163.31,193.42H110.6a40,40,0,0,1,3.46-7.65h45.8A40,40,0,0,1,163.31,193.42Z"/><path class="cls-6" d="M165.53,211.54a45.94,45.94,0,0,1-1.81,9.92H110.2a45.94,45.94,0,0,1-1.81-9.92Z"/><path class="cls-5" d="M120.22,238.12H153.7a23.64,23.64,0,0,1-33.48,0Z"/><path class="cls-5" d="M163.72,221.46a42,42,0,0,1-2.68,6.72H112.88a42,42,0,0,1-2.68-6.72Z"/><path class="cls-5" d="M165.66,208.06c0,1.17,0,2.33-.13,3.48H108.39c-.09-1.15-.13-2.31-.13-3.48,0-1.6.08-3.17.23-4.71h56.94C165.58,204.89,165.66,206.46,165.66,208.06Z"/><path class="cls-6" d="M161,228.18a34.85,34.85,0,0,1-7.34,9.94H120.22a34.67,34.67,0,0,1-7.34-9.94Z"/><path class="cls-5" d="M138.31,183l-4.89.91a33.8,33.8,0,0,1-39.41-27l-2.09-11.22a36.48,36.48,0,0,1,30.58-42.76h0a38.46,38.46,0,0,1,43.36,31l1.31,7A36.08,36.08,0,0,1,138.31,183Z"/><path class="cls-7" d="M157.07,115.69c-4.15.47-8.53.81-12.31,2.18-4.44,1.6-8.07,4.83-11,8.49-3.15,4-9.2,4.86-13.89,3.37-4.51-1.43-7.84-5.12-12.52-6.48a28.56,28.56,0,0,0-12.09-.81,36.44,36.44,0,0,1,27.45-19.59,38.34,38.34,0,0,1,27.88,6.94A37.58,37.58,0,0,1,157.07,115.69Z"/><path class="cls-5" d="M116.59,101.62h9.71a2.93,2.93,0,0,1,2.93,2.93v.92a.21.21,0,0,1-.21.21H114.39a.21.21,0,0,1-.21-.21V104a2.41,2.41,0,0,1,2.41-2.41Z" transform="translate(-16.44 23.21) rotate(-10.21)"/><path class="cls-5" d="M118.61,101.87c-.13-1.48-.59-8.61,2.4-12.31a.25.25,0,0,1,.45.14c.12,2.2.62,9.61,2,11.18a.25.25,0,0,1-.14.42l-4.4.79A.24.24,0,0,1,118.61,101.87Z"/><circle class="cls-9" cx="121.18" cy="85.17" r="5.51"/><circle class="cls-10" cx="121.18" cy="85.17" r="3.9"/><circle class="cls-6" cx="117.47" cy="153.74" r="7.27"/><circle class="cls-6" cx="151.55" cy="147.61" r="7.27"/><circle class="cls-4" cx="113.43" cy="151.51" r="14.89"/><circle class="cls-4" cx="147.51" cy="145.37" r="14.89"/><line class="cls-4" x1="128.09" y1="148.87" x2="132.85" y2="148.01"/><line class="cls-4" x1="98.78" y1="154.15" x2="92.55" y2="148.45"/><line class="cls-4" x1="162.17" y1="142.73" x2="165.84" y2="135.25"/><path class="cls-7" d="M185.4,136.36l19.37-16.48a1.71,1.71,0,0,1,2.3.08L225,137.45a.21.21,0,0,1,0,.33L205,150.66a.21.21,0,0,1-.24,0l-19.37-14A.21.21,0,0,1,185.4,136.36Z"/><rect class="cls-5" x="188.67" y="124.47" width="33.02" height="29.45" rx="1.79" transform="translate(3.64 -5.22) rotate(1.47)"/><path class="cls-6" d="M185.64,160.48,203.71,145a1.84,1.84,0,0,1,2.46.05l17.68,16.54a.21.21,0,0,1-.15.37l-37.93-1.07A.22.22,0,0,1,185.64,160.48Z"/><path class="cls-6" d="M185.53,136.77l15.05,10.72a.21.21,0,0,1,0,.33l-15.06,12.93a.21.21,0,0,1-.35-.16V137A.22.22,0,0,1,185.53,136.77Z"/><path class="cls-6" d="M224.83,137.86l-15.53,10a.22.22,0,0,0,0,.34l14.62,13.66a.22.22,0,0,0,.36-.15l.9-23.65A.2.2,0,0,0,224.83,137.86Z"/><text class="cls-11" transform="translate(201.58 142.64) rotate(1.09)">?</text><path class="cls-5" d="M132,171a5.08,5.08,0,0,1,7.35-2.25"/></svg>