<svg id="Layer_1" data-name="Layer 1" xmlns="http://www.w3.org/2000/svg" viewBox="0 0 351.16 293.04"><defs><style>.cls-1,.cls-10,.cls-11,.cls-2{fill:#c4cbe0;}.cls-1{opacity:0.25;}.cls-13,.cls-14,.cls-3{fill:#fff;}.cls-17,.cls-4,.cls-5,.cls-6{fill:none;}.cls-4,.cls-5{stroke:#6280e1;}.cls-10,.cls-12,.cls-13,.cls-4{stroke-miterlimit:10;}.cls-11,.cls-14,.cls-17,.cls-5,.cls-6,.cls-7,.cls-8{stroke-linecap:round;stroke-linejoin:round;}.cls-6{stroke:#36f;}.cls-12,.cls-7{fill:#3e6be0;}.cls-10,.cls-11,.cls-12,.cls-13,.cls-14,.cls-17,.cls-7,.cls-8{stroke:#3e6be0;}.cls-7{opacity:0.4;}.cls-8{fill:#3e6be6;}.cls-9{fill:#f9f9f9;}.cls-15{fill:#ffd9d9;}.cls-16{fill:#ff6766;}</style></defs><path class="cls-1" d="M349.89,259.82a175.11,175.11,0,0,1-2.45,29.25H317.38A145,145,0,1,0,30.29,259.82a146,146,0,0,0,3,29.25H3.18a174.59,174.59,0,1,1,346.71-29.25Z"/><path class="cls-2" d="M320.33,259.82a146,146,0,0,1-2.95,29.25H33.24a145,145,0,1,1,287.09-29.25Z"/><path class="cls-3" d="M262.88,283.89a15.08,15.08,0,0,1-1.06,5.6H146a18.46,18.46,0,0,1-1.78-8A18.73,18.73,0,0,1,163,262.8a17,17,0,0,1,1.75.09,25.2,25.2,0,0,1,50-6.23,16.34,16.34,0,0,1,26.7,12.63c0,.18,0,.37,0,.55a15,15,0,0,1,6.11-1.28A15.33,15.33,0,0,1,262.88,283.89Z"/><path class="cls-3" d="M136.93,222.44c0,5.83-12.38,3.41-16.48,3.41H65.8A11.25,11.25,0,0,1,64.72,221a11.4,11.4,0,0,1,11.4-11.41,9.28,9.28,0,0,1,1.06.06,17.14,17.14,0,0,1-.1-1.76,15.34,15.34,0,0,1,30.55-2,10,10,0,0,1,16.26,7.69c0,.11,0,.23,0,.34a9.08,9.08,0,0,1,3.72-.78A9.33,9.33,0,0,1,136.93,222.44Z"/><circle class="cls-4" cx="132.45" cy="273.81" r="2.95"/><circle class="cls-4" cx="283.58" cy="266.86" r="3.37"/><circle class="cls-4" cx="125.2" cy="193.94" r="2.42"/><circle class="cls-4" cx="60.64" cy="109.6" r="3"/><circle class="cls-4" cx="83.6" cy="60.34" r="2"/><circle class="cls-4" cx="231.06" cy="50.68" r="2.33"/><circle class="cls-4" cx="178.91" cy="261.53" r="1.08"/><line class="cls-5" x1="34.95" y1="289.85" x2="74.7" y2="289.85"/><line class="cls-5" x1="89.93" y1="289.89" x2="207.1" y2="289.89"/><line class="cls-5" x1="223.17" y1="290.01" x2="246.43" y2="290.01"/><line class="cls-5" x1="262.04" y1="289.74" x2="281.49" y2="289.74"/><line class="cls-5" x1="297.47" y1="290.04" x2="316.93" y2="290.04"/><line class="cls-6" x1="86.43" y1="249.72" x2="93.67" y2="249.72"/><line class="cls-6" x1="90.05" y1="246.1" x2="90.05" y2="253.34"/><line class="cls-6" x1="45.12" y1="184.92" x2="52.36" y2="184.92"/><line class="cls-6" x1="48.74" y1="181.3" x2="48.74" y2="188.54"/><line class="cls-6" x1="305.64" y1="103" x2="312.87" y2="103"/><line class="cls-6" x1="309.25" y1="99.38" x2="309.25" y2="106.62"/><path class="cls-7" d="M258.74,232.17a150.26,150.26,0,0,1,29.9-45.57,72.13,72.13,0,0,1,32.93-19,2,2,0,0,1,1.33,0,1.93,1.93,0,0,1,.78,1.35c2.81,11.94.75,23.07-3.48,34.31a22.34,22.34,0,0,0,3.58-3.75c1.21-1.32,2.87-2.47,4.64-2.23a4.7,4.7,0,0,1,3.46,3.08c3.59,9.22-1.78,21.06-7.4,28.23-8.11,10.36-20.3,16.8-32.53,21a135,135,0,0,1-14.1,3.91S248,260.16,258.74,232.17Z"/><path class="cls-7" d="M290.58,237.7c-7.79-18.37-19.45-36.48-33.81-50.32a74.73,74.73,0,0,0-16-11.94c-2.65-1.44-15.08-8.22-17.85-5.84a1.71,1.71,0,0,0-.45.81,40.69,40.69,0,0,0-1.89,16c.42,6.49,1.51,15.62,5,21.24,0,0-6.81-10.78-11.07-5.39s-6.81,44,55.92,57.9C270.43,260.12,301.93,267.22,290.58,237.7Z"/><path class="cls-8" d="M42.43,128l8,111a6.09,6.09,0,0,0,6.08,5.66H222.31a6.1,6.1,0,0,0,6.08-6.49l-7.18-110.91a6.1,6.1,0,0,0-6.08-5.7l-166.62-.1A6.09,6.09,0,0,0,42.43,128Z"/><path class="cls-9" d="M216,230.86H60.82a1.69,1.69,0,0,1-1.69-1.59l-6-92.2a1.7,1.7,0,0,1,1.69-1.82H210.42a1.7,1.7,0,0,1,1.69,1.6l5.56,92.21A1.7,1.7,0,0,1,216,230.86Z"/><path class="cls-10" d="M324.92,228.59a31,31,0,0,1-4.58,2.27l-16,6.83c-2.64,1.13-5.52,2.12-8.31.86a17.84,17.84,0,0,1-4.09-2.89c-5.16-4.45-10.29-8.92-15.53-13.28a7.2,7.2,0,0,1-.93-10.13l1.52-1.82c6.9-8.3,18.73,6.24,23.71,10.4,4.64-3.08,10.24-4.59,15.37-6.64,2.87-1.14,6.26-1.8,9-.32a8.34,8.34,0,0,1,1.57,13.41A12.19,12.19,0,0,1,324.92,228.59Z"/><path class="cls-10" d="M211.74,228c2.11,1.24,4.55,2.13,6.37,3q7.37,3.54,14.9,6.75c10,4.29,20.58-9.66,27.4-15.11a7.2,7.2,0,0,0,1.12-10.11l-1.48-1.86a7.2,7.2,0,0,0-10.11-1.12l-10.82,8.66c-3.37,2.7-5.07.82-8.42-.94-4.37-2.3-9.08-4.29-14-4.77a6.73,6.73,0,0,0-7.9,4.29c-1.13,2.2-1.93,4.81-1,7.11A8.85,8.85,0,0,0,211.74,228Z"/><path class="cls-11" d="M267.93,268.16c1.22.48.68,10,.51,11.3a14.22,14.22,0,0,1-2.22,6.55,7.91,7.91,0,0,1-5.76,3.2,28.06,28.06,0,0,1-8.18-.4,12.58,12.58,0,0,1-4.49-1.44c-2.66-1.77-1.44-5.36.8-6.93.25-.18,3-1.74,3-1.28l-1.36-18Z"/><path class="cls-11" d="M269.15,268.06c-1.22.49-.68,10-.51,11.3.39,3.13,1.38,7.18,4.21,8.69,3,1.63,7.79,1.39,11.12,1s8.6-2.2,6.17-6.59a6.83,6.83,0,0,0-2.05-2.32c-.31-.2-2.62-1.37-2.65-1l1.36-18Z"/><path class="cls-12" d="M289.36,221H248a28.21,28.21,0,0,1,7.93-8.42h25.51A28.21,28.21,0,0,1,289.36,221Z"/><path class="cls-13" d="M281.43,212.61H255.92a22,22,0,0,1,25.51,0Z"/><path class="cls-12" d="M294.39,236H243a36,36,0,0,1,1.91-8.44h47.61A36,36,0,0,1,294.39,236Z"/><path class="cls-13" d="M292.48,227.52H244.87A32.94,32.94,0,0,1,248,221h41.37A32.94,32.94,0,0,1,292.48,227.52Z"/><path class="cls-12" d="M294.48,242.9a37.14,37.14,0,0,1-1.63,8.43H244.51a36.61,36.61,0,0,1-1.64-8.43Z"/><path class="cls-13" d="M253.55,265.47H283.8a22.34,22.34,0,0,1-30.25,0Z"/><path class="cls-13" d="M292.85,251.33a34.6,34.6,0,0,1-2.42,5.71h-43.5a33.76,33.76,0,0,1-2.42-5.71Z"/><path class="cls-13" d="M294.6,240c0,1,0,2-.12,3H242.87c-.08-1-.11-2-.11-3a37.4,37.4,0,0,1,.2-4h51.43A37.38,37.38,0,0,1,294.6,240Z"/><path class="cls-12" d="M290.43,257a30,30,0,0,1-6.63,8.43H253.55a30,30,0,0,1-6.62-8.43Z"/><path class="cls-14" d="M271.66,213.89l-5.42.19a36.88,36.88,0,0,1-38.17-35.54l-.45-12.45a39.8,39.8,0,0,1,39.9-41.21h0a42,42,0,0,1,41.8,40.45l.28,7.81A39.38,39.38,0,0,1,271.66,213.89Z"/><path class="cls-11" d="M302.62,144.06c-4.55-.13-9.34-.45-13.63.44-5.05,1.05-9.47,4-13.17,7.48-4,3.81-10.69,3.82-15.53,1.49-4.65-2.24-7.67-6.75-12.51-8.95a31.2,31.2,0,0,0-12.94-2.74,39.74,39.74,0,0,1,32.69-16.9,41.81,41.81,0,0,1,29,11.81A41.24,41.24,0,0,1,302.62,144.06Z"/><path class="cls-14" d="M261.18,123.36h9.54a3.78,3.78,0,0,1,3.78,3.78v.38a.27.27,0,0,1-.27.27H258.34a.27.27,0,0,1-.27-.27v-1.05A3.11,3.11,0,0,1,261.18,123.36Z" transform="matrix(1, -0.04, 0.04, 1, -4.31, 9.58)"/><path class="cls-14" d="M263.22,123.17c.08-1.62.69-9.39,4.5-12.92a.27.27,0,0,1,.46.22c-.21,2.39-.81,10.48.41,12.38a.28.28,0,0,1-.22.43l-4.87.18A.28.28,0,0,1,263.22,123.17Z"/><circle class="cls-15" cx="268.58" cy="105.53" r="6.01"/><circle class="cls-16" cx="268.58" cy="105.53" r="4.26"/><circle class="cls-12" cx="249.56" cy="179.89" r="7.93"/><circle class="cls-12" cx="287.32" cy="178.54" r="7.93"/><circle class="cls-17" cx="249.93" cy="175.99" r="16.25"/><circle class="cls-17" cx="287.69" cy="174.64" r="16.25"/><line class="cls-17" x1="266.18" y1="175.41" x2="271.45" y2="175.22"/><line class="cls-17" x1="233.69" y1="176.57" x2="227.85" y2="169.45"/><line class="cls-17" x1="303.94" y1="174.06" x2="309.06" y2="166.55"/><path class="cls-17" d="M264.6,199.47a5.06,5.06,0,0,1,3.7-2.05,5,5,0,0,1,4.32,2.05"/><rect class="cls-8" x="125.26" y="242.9" width="20.3" height="46.08" rx="2"/></svg>