<svg id="Layer_1" data-name="Layer 1" xmlns="http://www.w3.org/2000/svg" viewBox="0 0 351.16 293.04"><defs><style>.cls-1{fill:none;}.cls-1,.cls-4,.cls-6,.cls-7,.cls-8,.cls-9{stroke:#3e6be0;stroke-linecap:round;stroke-linejoin:round;}.cls-2,.cls-3,.cls-7{fill:#c4cbe0;}.cls-2{opacity:0.25;}.cls-4,.cls-5{fill:#fff;}.cls-6,.cls-9{fill:#3e6be0;}.cls-6{opacity:0.3;}.cls-8{fill:#cad1e6;}.cls-10{fill:#ffd9d9;}.cls-11{fill:#ff6766;}</style></defs><line class="cls-1" x1="34.06" y1="289.19" x2="73.81" y2="289.19"/><line class="cls-1" x1="89.04" y1="289.22" x2="206.21" y2="289.22"/><line class="cls-1" x1="222.28" y1="289.34" x2="245.54" y2="289.34"/><line class="cls-1" x1="261.15" y1="289.07" x2="280.6" y2="289.07"/><line class="cls-1" x1="296.58" y1="289.37" x2="316.04" y2="289.37"/><path class="cls-2" d="M350.52,258.16a175.11,175.11,0,0,1-2.45,29.25H318A145,145,0,1,0,30.92,258.16a146,146,0,0,0,2.95,29.25H3.81a174.59,174.59,0,1,1,346.71-29.25Z"/><path class="cls-3" d="M321,258.16A146,146,0,0,1,318,287.41H33.87A145,145,0,1,1,321,258.16Z"/><path class="cls-4" d="M263.51,281.76a15.08,15.08,0,0,1-1.06,5.6H146.67a18.46,18.46,0,0,1-1.78-8,18.73,18.73,0,0,1,18.73-18.73,17,17,0,0,1,1.75.09,25.2,25.2,0,0,1,50-6.23,16.34,16.34,0,0,1,26.7,12.63c0,.18,0,.37,0,.55a15,15,0,0,1,6.11-1.28A15.33,15.33,0,0,1,263.51,281.76Z"/><path class="cls-4" d="M137.56,220.78c0,5.83-12.38,3.41-16.48,3.41H66.43a11.26,11.26,0,0,1-1.08-4.85,11.39,11.39,0,0,1,11.4-11.4,9.28,9.28,0,0,1,1.06.06,17.14,17.14,0,0,1-.1-1.76,15.34,15.34,0,0,1,30.55-2,10,10,0,0,1,16.26,7.69c0,.11,0,.23,0,.34a9.08,9.08,0,0,1,3.72-.78A9.33,9.33,0,0,1,137.56,220.78Z"/><circle class="cls-1" cx="73.63" cy="92.68" r="3.09"/><circle class="cls-1" cx="281.9" cy="264.14" r="3.53"/><line class="cls-1" x1="96.56" y1="247.69" x2="103.8" y2="247.69"/><line class="cls-1" x1="100.18" y1="244.07" x2="100.18" y2="251.31"/><line class="cls-1" x1="45.75" y1="183.26" x2="52.99" y2="183.26"/><line class="cls-1" x1="49.37" y1="179.64" x2="49.37" y2="186.88"/><line class="cls-1" x1="248.26" y1="135.09" x2="255.5" y2="135.09"/><line class="cls-1" x1="251.88" y1="131.47" x2="251.88" y2="138.71"/><path class="cls-5" d="M263.86,281.56a15.08,15.08,0,0,1-1.06,5.6H147a18.46,18.46,0,0,1-1.78-8A18.73,18.73,0,0,1,164,260.47a17,17,0,0,1,1.75.09,25.2,25.2,0,0,1,50-6.23A16.34,16.34,0,0,1,242.43,267c0,.18,0,.37,0,.55a15,15,0,0,1,6.11-1.28A15.33,15.33,0,0,1,263.86,281.56Z"/><path class="cls-5" d="M137.92,220.58c0,5.83-12.38,3.41-16.48,3.41H66.79a11.27,11.27,0,0,1-1.09-4.85,11.4,11.4,0,0,1,11.4-11.4,9.46,9.46,0,0,1,1.07.06,14.72,14.72,0,0,1-.1-1.76,15.34,15.34,0,0,1,30.55-2,9.95,9.95,0,0,1,16.25,7.69V212a9,9,0,0,1,3.72-.78A9.33,9.33,0,0,1,137.92,220.58Z"/><ellipse class="cls-1" cx="173.63" cy="214.67" rx="32.33" ry="39.18"/><path class="cls-6" d="M178,209a138.78,138.78,0,0,1,27.61-42.08A66.59,66.59,0,0,1,236,149.35a1.31,1.31,0,0,1,1.94,1.23c2.6,11,.69,21.3-3.21,31.69a20.48,20.48,0,0,0,3.3-3.47c1.12-1.22,2.66-2.28,4.3-2.06a4.33,4.33,0,0,1,3.19,2.85c3.31,8.51-1.65,19.45-6.84,26.07-7.49,9.56-18.74,15.51-30,19.38a124.88,124.88,0,0,1-13,3.61S168.07,234.87,178,209Z"/><path class="cls-6" d="M169.42,216.42c-7.19-17-18-33.69-31.23-46.47a69,69,0,0,0-14.73-11c-2.45-1.33-13.93-7.59-16.49-5.39a1.7,1.7,0,0,0-.42.74A37.74,37.74,0,0,0,104.81,169c.39,6,1.4,14.43,4.58,19.62,0,0-6.29-10-10.22-5s-6.29,40.63,51.64,53.48C150.81,237.13,179.91,243.68,169.42,216.42Z"/><path class="cls-7" d="M197.08,180.42a6.55,6.55,0,0,1,1.09.33c3.54,1.47,5.76,6.17,8.15,8.95a113.21,113.21,0,0,1,10.41,13.86c6.27,10,11.26,23,9.37,35-.61,3.91-2.55,7.8-5.94,9.84a12,12,0,0,1-9.9.85c-4.87-1.63-8.5-4.86-8-10.26.78-8.27.34-13.68-3-21.63-2.37-5.69-4.76-11.41-8.14-16.55-1.71-2.6-3.58-5.3-4.55-8.28a9.58,9.58,0,0,1,.22-7.18C188.48,182,193.36,179.65,197.08,180.42Z"/><path class="cls-7" d="M168.2,183.9a6,6,0,0,0-1-.54c-3.42-1.46-8.27.22-11.84.46a111.74,111.74,0,0,0-16.86,2.25c-11.34,2.5-23.94,7.91-31.28,17.47-2.39,3.11-3.87,7.12-3.07,10.88a11.3,11.3,0,0,0,6,7.48c3,1.55,6.18,2.19,9,1.14,1.46-.54,1.35-1,3.65-2.61,3.31-2.32,5.06-2.47,10.17-4.88,1.62-.77,3.18-1.62,6.3-3.33,13.56-7.45,13.14-9,18.25-10.22,3.51-.84,5.5-.81,8.95-2.51a9.71,9.71,0,0,0,5-5.07C172.78,191,171.23,186,168.2,183.9Z"/><path class="cls-8" d="M172.81,249.76c1.7.68.94,13.92.71,15.78a19.82,19.82,0,0,1-3.1,9.14,11,11,0,0,1-8,4.47,38.72,38.72,0,0,1-11.42-.57c-2.11-.42-4.45-.78-6.27-2-3.71-2.48-2-7.48,1.11-9.68.36-.25,4.21-2.42,4.26-1.78L148.17,240Z"/><path class="cls-8" d="M174.51,249.63c-1.71.67-.94,13.92-.71,15.77.54,4.36,1.92,10,5.87,12.13,4.26,2.27,10.88,1.93,15.53,1.36,4.84-.61,12-3.08,8.61-9.21a9.38,9.38,0,0,0-2.87-3.23c-.43-.29-3.65-1.92-3.69-1.46l1.9-25.09Z"/><path class="cls-9" d="M199.28,191.33h-51.6a35.35,35.35,0,0,1,9.89-10.51h31.82A35.35,35.35,0,0,1,199.28,191.33Z"/><path class="cls-4" d="M189.39,180.82H157.57a27.5,27.5,0,0,1,31.82,0Z"/><path class="cls-9" d="M205.55,209.94H141.4a44.73,44.73,0,0,1,2.39-10.51h59.38A45.22,45.22,0,0,1,205.55,209.94Z"/><path class="cls-4" d="M203.17,199.43H143.79a40.64,40.64,0,0,1,3.89-8.1h51.6A41.76,41.76,0,0,1,203.17,199.43Z"/><path class="cls-9" d="M205.66,218.61a45.51,45.51,0,0,1-2,10.51H143.33a46.59,46.59,0,0,1-2-10.51Z"/><path class="cls-4" d="M154.62,246.75h37.72a27.84,27.84,0,0,1-37.72,0Z"/><path class="cls-4" d="M203.62,229.12a42.18,42.18,0,0,1-3,7.12H146.35a43,43,0,0,1-3-7.12Z"/><path class="cls-4" d="M205.81,214.93c0,1.24-.05,2.46-.15,3.68H141.29c-.09-1.22-.14-2.44-.14-3.68a48.33,48.33,0,0,1,.25-5h64.15A48.31,48.31,0,0,1,205.81,214.93Z"/><path class="cls-9" d="M200.6,236.24a37.06,37.06,0,0,1-8.26,10.51H154.62a36.92,36.92,0,0,1-8.27-10.51Z"/><path class="cls-4" d="M177.37,188l-6.68.24A45.49,45.49,0,0,1,123.6,144.4l-.55-15.35a49.1,49.1,0,0,1,49.22-50.84h0a51.75,51.75,0,0,1,51.56,49.9l.34,9.63A48.55,48.55,0,0,1,177.37,188Z"/><path class="cls-7" d="M215.56,101.87c-5.61-.16-11.52-.55-16.82.55-6.22,1.29-11.67,4.9-16.23,9.22-5,4.69-13.2,4.71-19.16,1.84-5.73-2.77-9.47-8.33-15.44-11a38.48,38.48,0,0,0-16-3.38,49,49,0,0,1,40.32-20.85A51.63,51.63,0,0,1,208.1,92.77,51,51,0,0,1,215.56,101.87Z"/><path class="cls-4" d="M164.81,76.34h11a5.1,5.1,0,0,1,5.1,5.1v0a.36.36,0,0,1-.36.36H161a.36.36,0,0,1-.36-.36v-.9a4.2,4.2,0,0,1,4.2-4.2Z" transform="translate(-2.71 6.14) rotate(-2.04)"/><path class="cls-4" d="M167,76.1c.1-2,.85-11.58,5.56-15.94a.33.33,0,0,1,.56.28c-.25,3-1,12.92.5,15.27a.33.33,0,0,1-.26.53l-6,.22A.34.34,0,0,1,167,76.1Z"/><circle class="cls-10" cx="173.57" cy="54.34" r="7.42"/><circle class="cls-11" cx="173.57" cy="54.34" r="5.25"/><circle class="cls-9" cx="154.11" cy="139.06" r="9.78"/><circle class="cls-9" cx="200.69" cy="137.4" r="9.78"/><circle class="cls-1" cx="150.58" cy="141.26" r="20.05"/><circle class="cls-1" cx="197.15" cy="139.59" r="20.05"/><line class="cls-1" x1="170.61" y1="140.54" x2="177.11" y2="140.31"/><line class="cls-1" x1="130.54" y1="141.97" x2="123.33" y2="133.18"/><line class="cls-1" x1="217.18" y1="138.88" x2="223.51" y2="129.61"/><ellipse class="cls-1" cx="173.68" cy="171.09" rx="3" ry="3.5"/><path class="cls-4" d="M216.37,278.57s49.89-26.15,44.56-88.63c0,0-27.12.49-44.07-10.65,0,0-15,11.14-44.56,11.62C172.3,190.91,157.29,237.89,216.37,278.57Z"/><rect class="cls-7" x="111.8" y="133.05" width="11.1" height="150" rx="4.48"/><rect class="cls-7" x="102.09" y="133.04" width="30.05" height="9.71" rx="4.85"/><rect class="cls-7" x="102.09" y="143.42" width="30.05" height="9.71" rx="4.85"/><rect class="cls-7" x="102.09" y="153.26" width="30.05" height="9.71" rx="4.85"/><ellipse class="cls-7" cx="111.45" cy="212.48" rx="9.26" ry="13.55"/><path class="cls-9" d="M216,195.8h0a8,8,0,0,1,8,8.92l-5.07,45.2a2,2,0,0,1-2,1.82H213.7a2,2,0,0,1-2-1.88L208,204.48A8,8,0,0,1,216,195.8Z"/><circle class="cls-9" cx="214.96" cy="258.35" r="3.72"/></svg>