<svg id="Layer_1" data-name="Layer 1" xmlns="http://www.w3.org/2000/svg" viewBox="0 0 351.16 293.04"><defs><style>.cls-1,.cls-2,.cls-5{fill:#c4cbe0;}.cls-1{opacity:0.25;}.cls-12,.cls-3,.cls-8{fill:#fff;}.cls-4{fill:none;}.cls-11,.cls-12,.cls-4,.cls-5,.cls-6,.cls-7,.cls-8{stroke:#3e6be0;stroke-linecap:round;stroke-linejoin:round;}.cls-6,.cls-7{fill:#3e6be0;}.cls-6{opacity:0.4;}.cls-9{fill:#ffc4c4;}.cls-10{fill:#ff6766;}.cls-11{fill:#cad1e6;}.cls-12{opacity:0.1;}</style></defs><path class="cls-1" d="M350.76,247a175.11,175.11,0,0,1-2.45,29.25H318.25A145,145,0,1,0,31.16,247a146,146,0,0,0,2.95,29.25H4.05A174.59,174.59,0,1,1,350.76,247Z"/><path class="cls-2" d="M321.2,247a146,146,0,0,1-2.95,29.25H34.11A145,145,0,1,1,321.2,247Z"/><path class="cls-3" d="M263.75,271a15.08,15.08,0,0,1-1.06,5.6H146.91a18.46,18.46,0,0,1-1.78-8,18.73,18.73,0,0,1,18.73-18.73,17,17,0,0,1,1.75.09,25.2,25.2,0,0,1,50-6.23,16.34,16.34,0,0,1,26.7,12.63c0,.18,0,.37,0,.55a15,15,0,0,1,6.11-1.28A15.33,15.33,0,0,1,263.75,271Z"/><path class="cls-3" d="M137.81,209.58c0,5.83-12.38,3.41-16.49,3.41H66.67a11.26,11.26,0,0,1-1.08-4.85A11.4,11.4,0,0,1,77,196.74a9.59,9.59,0,0,1,1.07.06A14.72,14.72,0,0,1,78,195a15.34,15.34,0,0,1,30.55-2,10,10,0,0,1,16.26,7.69c0,.11,0,.23,0,.34a9.08,9.08,0,0,1,3.72-.78A9.34,9.34,0,0,1,137.81,209.58Z"/><circle class="cls-4" cx="141.87" cy="255.47" r="2.95"/><circle class="cls-4" cx="284.45" cy="253.99" r="3.37"/><circle class="cls-4" cx="126.08" cy="181.08" r="2.42"/><circle class="cls-4" cx="61.51" cy="96.74" r="3"/><circle class="cls-4" cx="84.48" cy="47.47" r="2"/><circle class="cls-4" cx="231.93" cy="37.82" r="2.33"/><circle class="cls-4" cx="179.78" cy="248.67" r="1.08"/><line class="cls-4" x1="35.82" y1="276.99" x2="75.57" y2="276.99"/><line class="cls-4" x1="90.8" y1="277.03" x2="207.97" y2="277.03"/><line class="cls-4" x1="224.04" y1="277.15" x2="247.31" y2="277.15"/><line class="cls-4" x1="262.91" y1="276.88" x2="282.37" y2="276.88"/><line class="cls-4" x1="298.34" y1="277.18" x2="317.8" y2="277.18"/><line class="cls-4" x1="96.8" y1="236.49" x2="104.04" y2="236.49"/><line class="cls-4" x1="100.42" y1="232.87" x2="100.42" y2="240.11"/><line class="cls-4" x1="45.99" y1="172.06" x2="53.23" y2="172.06"/><line class="cls-4" x1="49.61" y1="168.44" x2="49.61" y2="175.68"/><line class="cls-4" x1="248.51" y1="157.14" x2="255.75" y2="157.14"/><line class="cls-4" x1="252.13" y1="153.52" x2="252.13" y2="160.76"/><path class="cls-5" d="M170,231c.88.44.44,10.75.52,11.81a103.91,103.91,0,0,0,2.83,17.26c-1.45,2.27-3,4.94-2.13,7.5.9,2.76,4.05,4,6.84,4.8,6.47,1.89,13.38,3.5,19.9,1.74l-.93-29.35C197.23,242.87,173.05,232.57,170,231Z"/><path class="cls-5" d="M222,215.51c-3.8,2.81-1.49,15.68-1.57,19.73-.22,10.47-1.3,22.3-4.35,32.35-2.26,7.46-8.84,8.73-15.88,9.1-2.94.15-6-.16-8.5-2s-4-5.57-3-8.73c.49-1.44,1.47-2.64,1.75-4.15a9.71,9.71,0,0,0-.21-3.39l-2.35-12.52c0-2.17,16.55-11.53,18.54-12.89C213.51,228.16,215.1,220.6,222,215.51Z"/><path class="cls-6" d="M188.42,190.29a134.59,134.59,0,0,1,30.41-38.18,64.58,64.58,0,0,1,30.94-14.28,1.76,1.76,0,0,1,1.18.09,1.7,1.7,0,0,1,.59,1.27c1.52,10.88-1.23,20.64-5.92,30.32a20.2,20.2,0,0,0,3.49-3c1.19-1.08,2.77-2,4.33-1.61a4.19,4.19,0,0,1,2.83,3c2.45,8.51-3.32,18.64-8.92,24.57-8.08,8.58-19.48,13.32-30.74,16.05a120.06,120.06,0,0,1-12.89,2.33S176.52,214.38,188.42,190.29Z"/><path class="cls-6" d="M189.36,205.64c-11.09-14-25.45-26.89-41.14-35.44a66.75,66.75,0,0,0-16.62-6.52c-2.63-.62-15-3.53-16.8-.81a1.56,1.56,0,0,0-.2.8,36.5,36.5,0,0,0,2.16,14.23c1.9,5.51,5,13.14,9.32,17.18,0,0-8.44-7.7-10.84-2s4.55,39.62,62,36.75C177.27,229.79,206.17,228.44,189.36,205.64Z"/><path class="cls-5" d="M205.32,166.6a5.12,5.12,0,0,1,1.11,0c3.69.48,7,4.32,9.9,6.31a109.4,109.4,0,0,1,13.26,10.33c8.41,7.78,16.37,18.65,17.66,30.4.42,3.81-.41,8-3.06,10.72a11.7,11.7,0,0,1-9.06,3.31c-5-.3-9.18-2.4-10.08-7.58-1.36-7.94-3.15-12.89-8.27-19.5-3.66-4.72-7.35-9.47-11.82-13.43a34.81,34.81,0,0,1-6.36-6.59,9.35,9.35,0,0,1-1.62-6.77A10,10,0,0,1,205.32,166.6Z"/><path class="cls-5" d="M161.19,178.63a5.68,5.68,0,0,0-1,.46c-3.21,1.89-4.71,6.71-6.63,9.7a110.26,110.26,0,0,0-8.12,14.71c-4.67,10.47-7.71,23.59-4.27,34.9,1.12,3.67,3.5,7.15,7,8.65a11.67,11.67,0,0,0,9.63-.52c4.45-2.23,7.5-5.82,6.28-10.94-1.87-7.83-2.17-13.09-.06-21.18,1.51-5.77,3-11.59,5.58-17,1.29-2.73,2.73-5.57,3.25-8.57A9.31,9.31,0,0,0,171.7,182,10,10,0,0,0,161.19,178.63Z"/><path class="cls-7" d="M210.7,179.78l-49.06,9.89A34.28,34.28,0,0,1,169,177.79l30.25-6.1A34.28,34.28,0,0,1,210.7,179.78Z"/><path class="cls-8" d="M199.28,171.69,169,177.79a26.67,26.67,0,0,1,30.25-6.1Z"/><path class="cls-7" d="M220.23,196.28l-61,12.29a43.25,43.25,0,0,1,.25-10.45L216,186.73A43.75,43.75,0,0,1,220.23,196.28Z"/><path class="cls-8" d="M216,186.73,159.5,198.12a40.25,40.25,0,0,1,2.14-8.45l49.06-9.89A40.1,40.1,0,0,1,216,186.73Z"/><path class="cls-7" d="M222,204.49a44.57,44.57,0,0,1,.08,10.38l-57.33,11.56a45,45,0,0,1-3.95-9.6Z"/><path class="cls-8" d="M178.87,241l35.86-7.23A27,27,0,0,1,178.87,241Z"/><path class="cls-8" d="M222.08,214.87a41.82,41.82,0,0,1-1.51,7.35L169,232.62a41.22,41.22,0,0,1-4.24-6.19Z"/><path class="cls-8" d="M221.43,201c.24,1.18.43,2.35.57,3.52l-61.2,12.34c-.32-1.13-.6-2.29-.84-3.47a44.66,44.66,0,0,1-.71-4.79l61-12.29A44.09,44.09,0,0,1,221.43,201Z"/><path class="cls-7" d="M220.57,222.22a36.13,36.13,0,0,1-5.84,11.59L178.87,241a36.05,36.05,0,0,1-9.88-8.42Z"/><path class="cls-8" d="M219.91,130.92l-.82,8.84a44.69,44.69,0,0,1-48.6,40.41l-6.12-.56a41.88,41.88,0,0,1-37.88-45.55l1.3-14.08a45.15,45.15,0,0,1,50.89-40.66,48.1,48.1,0,0,1,7.47,1.6,47.2,47.2,0,0,1,10.38,4.51,47.67,47.67,0,0,1,23.38,45.49Z"/><path class="cls-8" d="M186.28,79.48,186.14,81l-18.58-1.71.14-1.49a3.53,3.53,0,0,1,3.85-3.19l11.52,1.06a3.53,3.53,0,0,1,3.22,3.55A1.38,1.38,0,0,1,186.28,79.48Z"/><path class="cls-8" d="M173.91,74.79s1.76-11.24,7.66-14.66c0,0-3.5,15.05-.86,15.29Z"/><circle class="cls-9" cx="182.65" cy="54.38" r="6.83"/><circle class="cls-10" cx="182.65" cy="54.38" r="4.84"/><path class="cls-11" d="M209.79,102.11c-5.11-.8-10.45-1.85-15.43-1.47-5.83.46-11.23,3.12-15.9,6.53-5.07,3.7-12.6,2.76-17.7-.57-4.92-3.19-7.67-8.71-12.81-11.88a35.58,35.58,0,0,0-6.52-3.14,45.16,45.16,0,0,1,26.13-12.35l.14-1.46a3.51,3.51,0,0,1,1.63-2.66c1.23.06,2.46.17,3.7.33a47.63,47.63,0,0,1,36.76,26.67Z"/><path class="cls-5" d="M151.29,193.54s-6.93,67.64,9.24,69.7,1.7-72.68,1.7-72.68S154.58,186.22,151.29,193.54Z"/><path class="cls-4" d="M206.82,133.06c-2.91,31.61-29.74,55-59.93,52.19-21.23-1.95-38.47-16.31-45.81-35.64l0,0a.29.29,0,0,1,0-.09A59.28,59.28,0,0,1,97.49,123a58.17,58.17,0,0,1,28-44.94s0,0,0,0l.11-.08a52.93,52.93,0,0,1,31.84-7.18C187.61,73.57,209.73,101.46,206.82,133.06Z"/><path class="cls-7" d="M161.7,64.43a64.65,64.65,0,0,0-9.09-.85,65.56,65.56,0,1,0-3.06,131.08c.64,0,1.29,0,1.92,0A65.53,65.53,0,0,0,161.7,64.43ZM149.4,185.69c-21.66-.5-40.15-13.75-48.95-32.68l0,0a.24.24,0,0,1,0-.08A59.23,59.23,0,0,1,95,126.51a58.47,58.47,0,0,1,25.23-47.09s0,0,0,0l.1-.07a54.07,54.07,0,0,1,31.79-9.41c30.81.71,55.18,27.22,54.44,59.19S180.21,186.41,149.4,185.69Z"/><path class="cls-12" d="M206.82,133.06c-2.91,31.61-29.74,55-59.93,52.19-21.23-1.95-38.47-16.31-45.81-35.64l0,0a.29.29,0,0,1,0-.09A59.28,59.28,0,0,1,97.49,123a58.17,58.17,0,0,1,28-44.94s0,0,0,0l.11-.08a52.93,52.93,0,0,1,31.84-7.18C187.61,73.57,209.73,101.46,206.82,133.06Z"/><path class="cls-4" d="M206.82,133.06c-2.91,31.61-30.09,54.94-60.71,52.12-21.53-2-39-16.36-46.51-35.71,0,0,0,0,0,0a.31.31,0,0,1,0-.08,58.73,58.73,0,0,1-3.63-26.5,58,58,0,0,1,28.31-44.91s0,0,0,0l.1-.07a54.27,54.27,0,0,1,32.29-7.14C187.26,73.54,209.73,101.46,206.82,133.06Z"/><ellipse class="cls-8" cx="145.15" cy="124.36" rx="18.64" ry="16.94" transform="translate(-3.73 244.24) rotate(-79.43)"/><ellipse class="cls-8" cx="184.33" cy="129.94" rx="18.64" ry="16.94" transform="translate(22.79 287.31) rotate(-79.43)"/><line class="cls-4" x1="162" y1="126.74" x2="167.25" y2="127.83"/><line class="cls-4" x1="200.79" y1="130.76" x2="213.12" y2="119.96"/><ellipse class="cls-7" cx="144.27" cy="124.21" rx="8.1" ry="7.36" transform="translate(7.35 256.49) rotate(-84.74)"/><ellipse class="cls-7" cx="184.33" cy="129.94" rx="8.1" ry="7.36" transform="translate(38.04 301.58) rotate(-84.74)"/><path class="cls-4" d="M153.5,153.47a6.31,6.31,0,0,1,5.12-1.05,6.17,6.17,0,0,1,4.33,4"/></svg>