<svg id="Layer_1" data-name="Layer 1" xmlns="http://www.w3.org/2000/svg" viewBox="0 0 351.16 293.04"><defs><style>.cls-1,.cls-2,.cls-6{fill:#c4cbe0;}.cls-1{opacity:0.25;}.cls-10,.cls-3{fill:#fff;}.cls-4,.cls-9{fill:none;}.cls-10,.cls-4,.cls-5,.cls-6,.cls-7,.cls-8{stroke:#3e6be0;}.cls-10,.cls-4,.cls-5,.cls-6,.cls-7,.cls-8,.cls-9{stroke-linecap:round;stroke-linejoin:round;}.cls-5,.cls-7{fill:#3e6be0;}.cls-5{opacity:0.3;}.cls-8{fill:#e0e2e4;}.cls-9{stroke:#f3a83b;}.cls-11{fill:#ffd4d5;}.cls-12{fill:#ff5960;}</style></defs><path class="cls-1" d="M351.42,257.65A175.11,175.11,0,0,1,349,286.9H318.91A145,145,0,1,0,31.82,257.65a146,146,0,0,0,3,29.25H4.71a174.59,174.59,0,1,1,346.71-29.25Z"/><path class="cls-2" d="M321.86,257.65a146,146,0,0,1-2.95,29.25H34.77a145,145,0,1,1,287.09-29.25Z"/><path class="cls-3" d="M264.41,281.72a15.08,15.08,0,0,1-1.06,5.6H147.57a18.46,18.46,0,0,1-1.78-8,18.73,18.73,0,0,1,18.73-18.73,17,17,0,0,1,1.75.09,25.2,25.2,0,0,1,50-6.23A16.34,16.34,0,0,1,243,267.12c0,.18,0,.37,0,.55a15,15,0,0,1,6.11-1.28A15.33,15.33,0,0,1,264.41,281.72Z"/><path class="cls-3" d="M138.46,220.27c0,5.84-12.38,3.41-16.48,3.41H67.33a11.19,11.19,0,0,1-1.09-4.84,11.41,11.41,0,0,1,11.41-11.41,9.28,9.28,0,0,1,1.06.06,17,17,0,0,1-.1-1.76,15.34,15.34,0,0,1,30.55-2,9.94,9.94,0,0,1,16.25,7.69v.33a9.08,9.08,0,0,1,3.72-.78A9.33,9.33,0,0,1,138.46,220.27Z"/><circle class="cls-4" cx="142.53" cy="266.16" r="2.95"/><circle class="cls-4" cx="285.11" cy="264.69" r="3.37"/><circle class="cls-4" cx="126.73" cy="191.77" r="2.42"/><circle class="cls-4" cx="62.17" cy="107.43" r="3"/><circle class="cls-4" cx="85.13" cy="58.17" r="2"/><circle class="cls-4" cx="232.59" cy="48.51" r="2.33"/><circle class="cls-4" cx="180.43" cy="259.36" r="1.08"/><line class="cls-4" x1="36.47" y1="287.69" x2="76.23" y2="287.69"/><line class="cls-4" x1="91.46" y1="287.72" x2="208.62" y2="287.72"/><line class="cls-4" x1="224.7" y1="287.84" x2="247.96" y2="287.84"/><line class="cls-4" x1="263.56" y1="287.57" x2="283.02" y2="287.57"/><line class="cls-4" x1="299" y1="287.87" x2="318.45" y2="287.87"/><line class="cls-4" x1="97.46" y1="247.18" x2="104.7" y2="247.18"/><line class="cls-4" x1="101.08" y1="243.56" x2="101.08" y2="250.8"/><line class="cls-4" x1="46.65" y1="182.75" x2="53.89" y2="182.75"/><line class="cls-4" x1="50.27" y1="179.13" x2="50.27" y2="186.37"/><line class="cls-4" x1="249.16" y1="167.83" x2="256.4" y2="167.83"/><line class="cls-4" x1="252.78" y1="164.21" x2="252.78" y2="171.45"/><path class="cls-5" d="M173.3,221.69c-7.05-14.94-17.28-29.53-29.62-40.51a61.79,61.79,0,0,0-13.59-9.36c-2.25-1.11-12.75-6.31-15-4.25a1.56,1.56,0,0,0-.35.69,33.53,33.53,0,0,0-1,13.26c.56,5.36,1.76,12.87,4.79,17.41,0,0-6-8.7-9.33-4.1s-4.2,36.62,48.15,46.07C157.36,240.9,183.65,245.74,173.3,221.69Z"/><path class="cls-5" d="M180.73,214.76A124.2,124.2,0,0,1,204,176.09a59.57,59.57,0,0,1,26.62-16.83,1.18,1.18,0,0,1,1.78,1c2.72,9.78,1.38,19.06-1.75,28.5a19.51,19.51,0,0,0,2.84-3.23,4.7,4.7,0,0,1,3.77-2,3.86,3.86,0,0,1,3,2.43c3.28,7.51-.78,17.48-5.19,23.6-6.37,8.83-16.24,14.56-26.23,18.42a109.74,109.74,0,0,1-11.53,3.7S172.74,238.27,180.73,214.76Z"/><path class="cls-6" d="M189.41,247.1c4.58,1.8,6.86,7.87,8.25,12.15,1.88,5.83,2.78,12.49-2.09,17.16a23.41,23.41,0,0,1-6.11,4c-3.13,1.52-6.39,2.77-9.64,4a5.38,5.38,0,0,1-3.71.48,4.14,4.14,0,0,1-2-1.91c-2-3.43-1.65-8.5,1.77-10.87,1.49-1-2.18-5-2.94-6.15L168,258.46c-.44-.67-4.53-8-5.2-7.91l12.38-1.81c4.14-.61,8.21-2.24,12.48-2A6,6,0,0,1,189.41,247.1Z"/><path class="cls-6" d="M208,248.84l-7,27s4.47,2.26,1,7.32-21.21,1.14-24.66-5.75c-2.31-4.62.71-10.64,3.32-14.8,3.15-5.05,6-8.93,11.48-10.19L199,250.9C199.78,250.73,207.85,249.47,208,248.84Z"/><path class="cls-6" d="M200.62,190.7a5.69,5.69,0,0,1,1,.09c3.38.64,6.2,4.35,8.8,6.34a103.5,103.5,0,0,1,11.69,10.24c7.34,7.63,14.11,18.09,14.68,29,.18,3.54-.8,7.31-3.4,9.73a10.75,10.75,0,0,1-8.53,2.57c-4.57-.53-8.35-2.7-8.9-7.53-.84-7.4-2.22-12.06-6.6-18.43a88.52,88.52,0,0,0-10.19-13,32.22,32.22,0,0,1-5.52-6.43,8.65,8.65,0,0,1-1.13-6.33A9.24,9.24,0,0,1,200.62,190.7Z"/><path class="cls-7" d="M119,282.57l-2,2.28a1.42,1.42,0,0,1-2.49-.84l-.18-2.75Z"/><polygon class="cls-8" points="127.39 272.89 127.36 272.97 119.04 282.57 119.03 282.57 114.39 281.26 113.61 268.67 127.39 272.89"/><path class="cls-7" d="M143.67,224.69l-1.51,4.47-13.5-4.77,1.47-4.3a7.17,7.17,0,0,1,6.76-4.84,7.37,7.37,0,0,1,2.16.34A7.15,7.15,0,0,1,143.67,224.69Z"/><polygon class="cls-8" points="142.16 229.16 140.16 235.09 133.31 232.77 126.58 230.49 128.66 224.39 135.51 226.81 142.16 229.16"/><polygon class="cls-7" points="140.16 235.09 127.39 272.9 113.61 268.67 113.6 268.38 126.58 230.49 133.31 232.77 140.16 235.09"/><line class="cls-4" x1="135.52" y1="226.78" x2="135.51" y2="226.81"/><line class="cls-9" x1="132.81" y1="234.12" x2="120.5" y2="269.36"/><path class="cls-6" d="M157.57,189a9.07,9.07,0,0,0-2,.31,18.51,18.51,0,0,0-6.29,3.5c-1.63,1.23-3.22,2.5-4.79,3.8a23.38,23.38,0,0,0-2.24,2.21c-1.73-1.38-1.93-5.15-.83-7,1.37-2.35,3.94-3.43,4.8-6.27,1.63-5.38-2.57-11.45-7.59-13.29-5.46-2-10.6,1.66-13.23,6.26-6.34,11.08-2.28,32.46,10.13,39.74,5.24,3.07,12.68,4.21,17.87.39,6-4.42,16.86-11.93,14.95-20.64C167.26,192.84,162.82,188.7,157.57,189Z"/><path class="cls-7" d="M201.9,202.32l-45.16,10a31.65,31.65,0,0,1,6.63-11.11L191.22,195A31.49,31.49,0,0,1,201.9,202.32Z"/><path class="cls-10" d="M191.22,195l-27.85,6.15A24.65,24.65,0,0,1,191.22,195Z"/><path class="cls-7" d="M211,217.4l-56.14,12.4a40.05,40.05,0,0,1,.05-9.67l52-11.48A40.4,40.4,0,0,1,211,217.4Z"/><path class="cls-10" d="M206.88,208.65l-52,11.48a37.19,37.19,0,0,1,1.84-7.84l45.16-10A36.7,36.7,0,0,1,206.88,208.65Z"/><path class="cls-7" d="M212.77,225a41.28,41.28,0,0,1,.24,9.59l-52.77,11.66a41.21,41.21,0,0,1-3.82-8.8Z"/><path class="cls-10" d="M173.53,259.46l33-7.29a25,25,0,0,1-33,7.29Z"/><path class="cls-10" d="M213,234.55a38.94,38.94,0,0,1-1.26,6.82l-47.49,10.49a38.07,38.07,0,0,1-4-5.65Z"/><path class="cls-10" d="M212.18,221.71c.24,1.09.44,2.17.59,3.25l-56.35,12.45c-.31-1-.59-2.11-.83-3.2a40.58,40.58,0,0,1-.74-4.41L211,217.4A39.57,39.57,0,0,1,212.18,221.71Z"/><path class="cls-7" d="M211.75,241.37a33.51,33.51,0,0,1-5.2,10.8l-33,7.29a33.31,33.31,0,0,1-9.27-7.6Z"/><path class="cls-6" d="M129.23,173.84c4.16-2.83,10-1.5,13.05,3s2.68,11.86-1.47,14.7"/><path class="cls-10" d="M180.49,176.9a14.38,14.38,0,0,0,3.64.22,4.8,4.8,0,0,0,3.38-1.79"/><path class="cls-10" d="M189.44,197.11l-5.52,1.53a39,39,0,0,1-48-27.11l-3.52-12.67a42,42,0,0,1,30.83-52.18h0a44.33,44.33,0,0,1,52.91,31.26l2.21,8A41.6,41.6,0,0,1,189.44,197.11Z"/><path class="cls-6" d="M204,117.73c-4.71,1-9.71,1.85-13.9,3.82-4.93,2.32-8.75,6.42-11.68,10.93-3.19,4.9-10.05,6.56-15.59,5.36-5.33-1.16-9.55-5.05-15.06-6.11a32.91,32.91,0,0,0-14,.37,42,42,0,0,1,29.41-25.42,44.33,44.33,0,0,1,40.79,11Z"/><path class="cls-10" d="M157.61,105.36h9.08a4.14,4.14,0,0,1,4.14,4.14v0a.54.54,0,0,1-.54.54H154a.54.54,0,0,1-.54-.54v0A4.14,4.14,0,0,1,157.61,105.36Z" transform="translate(-22.92 47.36) rotate(-15.53)"/><path class="cls-10" d="M158.41,106c-.31-1.68-1.61-9.81,1.43-14.38a.3.3,0,0,1,.54.11c.37,2.5,1.74,11,3.47,12.62a.29.29,0,0,1-.12.49l-5,1.38A.28.28,0,0,1,158.41,106Z"/><circle class="cls-11" cx="159.57" cy="86.54" r="6.35"/><circle class="cls-12" cx="159.57" cy="86.54" r="4.5"/><circle class="cls-7" cx="160.29" cy="160.99" r="8.38"/><circle class="cls-7" cx="198.75" cy="150.3" r="8.38"/><circle class="cls-4" cx="157.78" cy="163.52" r="17.17"/><circle class="cls-4" cx="196.24" cy="152.83" r="17.17"/><line class="cls-4" x1="174.32" y1="158.92" x2="179.69" y2="157.43"/><line class="cls-4" x1="141.23" y1="168.12" x2="133.48" y2="162.24"/><line class="cls-4" x1="212.78" y1="148.24" x2="216.19" y2="139.25"/><path class="cls-4" d="M177.84,182.93a8.23,8.23,0,0,1,4.07-3.08,8.41,8.41,0,0,1,6.11.39"/></svg>