<svg id="Layer_1" data-name="Layer 1" xmlns="http://www.w3.org/2000/svg" viewBox="0 0 351.16 293.04"><defs><style>.cls-1,.cls-2,.cls-8{fill:#c4cbe0;}.cls-1{opacity:0.25;}.cls-3,.cls-6{fill:#fff;}.cls-4{fill:none;}.cls-4,.cls-5,.cls-6,.cls-7,.cls-8{stroke:#3e6be0;stroke-linecap:round;stroke-linejoin:round;}.cls-5,.cls-7{fill:#3e6be0;}.cls-7{opacity:0.3;}.cls-9{fill:#ffd9d9;}.cls-10{fill:#ff6766;}</style></defs><path class="cls-1" d="M350.16,254.24a175.11,175.11,0,0,1-2.45,29.25H317.65A145,145,0,1,0,30.56,254.24a146,146,0,0,0,2.95,29.25H3.45a174.59,174.59,0,1,1,346.71-29.25Z"/><path class="cls-2" d="M320.6,253.24a146,146,0,0,1-3,29.25H33.51A145,145,0,1,1,320.6,253.24Z"/><path class="cls-3" d="M263.15,277.84a15.08,15.08,0,0,1-1.06,5.6H146.31a18.46,18.46,0,0,1-1.78-8,18.73,18.73,0,0,1,18.73-18.73,17,17,0,0,1,1.75.09,25.2,25.2,0,0,1,50-6.23,16.34,16.34,0,0,1,26.7,12.63c0,.18,0,.37,0,.55a15,15,0,0,1,6.11-1.28A15.33,15.33,0,0,1,263.15,277.84Z"/><path class="cls-3" d="M137.2,216.86c0,5.83-12.38,3.41-16.48,3.41H66.07A11.25,11.25,0,0,1,65,215.43,11.4,11.4,0,0,1,76.39,204a9.28,9.28,0,0,1,1.06.06,17.14,17.14,0,0,1-.1-1.76,15.34,15.34,0,0,1,30.55-2A10,10,0,0,1,124.16,208c0,.11,0,.23,0,.34a9.08,9.08,0,0,1,3.72-.78A9.33,9.33,0,0,1,137.2,216.86Z"/><circle class="cls-4" cx="132.27" cy="261.77" r="3.09"/><circle class="cls-4" cx="288.13" cy="258.25" r="3.53"/><line class="cls-4" x1="96.2" y1="243.77" x2="103.44" y2="243.77"/><line class="cls-4" x1="99.82" y1="240.15" x2="99.82" y2="247.39"/><line class="cls-4" x1="45.39" y1="179.34" x2="52.63" y2="179.34"/><line class="cls-4" x1="49.01" y1="175.72" x2="49.01" y2="182.96"/><line class="cls-4" x1="247.9" y1="131.17" x2="255.14" y2="131.17"/><line class="cls-4" x1="251.52" y1="127.55" x2="251.52" y2="134.79"/><line class="cls-4" x1="33.7" y1="284.27" x2="73.45" y2="284.27"/><line class="cls-4" x1="88.68" y1="284.3" x2="205.85" y2="284.3"/><line class="cls-4" x1="221.92" y1="284.42" x2="245.18" y2="284.42"/><line class="cls-4" x1="260.79" y1="284.15" x2="280.24" y2="284.15"/><line class="cls-4" x1="296.22" y1="284.45" x2="315.67" y2="284.45"/><line class="cls-4" x1="227.14" y1="141.76" x2="263.03" y2="105.38"/><line class="cls-4" x1="71.45" y1="103.92" x2="107.34" y2="141.76"/><circle class="cls-5" cx="166.97" cy="195.58" r="81.41"/><circle class="cls-6" cx="166.97" cy="195.58" r="67.18"/><path class="cls-6" d="M75.65,160.77l47.86-49.48L120.57,109a34.14,34.14,0,0,0-45.28,2.68l-.24.24a34.15,34.15,0,0,0,.6,48.88Z"/><path class="cls-6" d="M258.44,160.35l-47.86-49.48,2.94-2.31a34.17,34.17,0,0,1,45.29,2.67l.23.24a34.15,34.15,0,0,1-.6,48.88Z"/><line class="cls-4" x1="167.27" y1="196.11" x2="201.87" y2="167.04"/><line class="cls-4" x1="142.26" y1="181.21" x2="167.27" y2="196.11"/><circle class="cls-5" cx="166.97" cy="195.58" r="6.18"/><circle class="cls-4" cx="166.97" cy="244.21" r="2.67"/><line class="cls-4" x1="166.97" y1="143.39" x2="166.97" y2="150.11"/><path class="cls-7" d="M252.32,238.54a98.51,98.51,0,0,0-22.75-31.13,47.32,47.32,0,0,0-10.44-7.19c-1.72-.85-9.79-4.84-11.49-3.26a1.12,1.12,0,0,0-.27.53,25.76,25.76,0,0,0-.79,10.19c.42,4.11,1.35,9.88,3.68,13.37,0,0-4.6-6.68-7.17-3.15s-3.22,28.13,37,35.39C240.08,253.29,260.28,257,252.32,238.54Z"/><path class="cls-7" d="M258,233.21a95.62,95.62,0,0,1,17.86-29.71,45.73,45.73,0,0,1,20.45-12.93,1.22,1.22,0,0,1,.84,0,1.18,1.18,0,0,1,.53.83c2.09,7.52,1.05,14.64-1.35,21.9a14.3,14.3,0,0,0,2.18-2.48,3.61,3.61,0,0,1,2.9-1.53,3,3,0,0,1,2.27,1.87c2.52,5.76-.6,13.43-4,18.13-4.89,6.78-12.48,11.18-20.15,14.15a85.36,85.36,0,0,1-8.86,2.84S251.89,251.27,258,233.21Z"/><path class="cls-8" d="M264.71,258.06c3.51,1.38,5.27,6,6.33,9.33,1.45,4.48,2.14,9.6-1.6,13.18a18,18,0,0,1-4.69,3.05c-2.41,1.16-4.92,2.13-7.41,3.09a4.15,4.15,0,0,1-2.85.36,3.14,3.14,0,0,1-1.53-1.46c-1.55-2.64-1.27-6.54,1.35-8.36,1.15-.79-1.67-3.84-2.25-4.72l-3.78-5.75c-.34-.51-3.49-6.15-4-6.07l9.51-1.4c3.18-.46,6.31-1.72,9.59-1.54A4.07,4.07,0,0,1,264.71,258.06Z"/><path class="cls-8" d="M279.74,259.48l-7.76,20s2.93,1.91,0,5.55-15.14-.17-16.87-5.52c-1.16-3.58,1.6-7.95,3.88-10.95,2.75-3.64,5.16-6.41,9.18-7.09l5-.86C273.72,260.5,279.56,260,279.74,259.48Z"/><path class="cls-8" d="M270.66,227.14a5.18,5.18,0,0,0,.78.09c2.64,0,5.32-2.35,7.58-3.46a78.6,78.6,0,0,0,10.35-6c6.68-4.64,13.36-11.5,15.42-19.63a9.52,9.52,0,0,0-1.09-7.84,8.26,8.26,0,0,0-6-3.22c-3.52-.28-6.7.78-7.83,4.33-1.75,5.45-3.5,8.75-7.75,12.89a68.25,68.25,0,0,1-9.64,8.27,25,25,0,0,0-5.13,4,6.59,6.59,0,0,0-1.8,4.6A7.08,7.08,0,0,0,270.66,227.14Z"/><path class="cls-8" d="M240.24,213.4a8.06,8.06,0,0,0-1.5.24,14.26,14.26,0,0,0-4.84,2.69q-1.87,1.42-3.67,2.92a17.37,17.37,0,0,0-1.73,1.7c-1.32-1.06-1.48-4-.64-5.39,1.06-1.8,3-2.63,3.69-4.81,1.26-4.14-2-8.8-5.83-10.21-4.19-1.53-8.14,1.27-10.16,4.81-4.87,8.51-1.75,24.93,7.78,30.52,4,2.37,9.75,3.24,13.73.3,4.6-3.39,13-9.16,11.49-15.85C247.69,216.37,244.27,213.19,240.24,213.4Z"/><path class="cls-5" d="M274.3,223.65l-34.69,7.67a24.19,24.19,0,0,1,5.09-8.54l21.39-4.72A24.1,24.1,0,0,1,274.3,223.65Z"/><path class="cls-6" d="M266.09,218.06l-21.39,4.72a18.92,18.92,0,0,1,21.39-4.72Z"/><path class="cls-5" d="M281.29,235.24l-43.14,9.52a30.65,30.65,0,0,1,0-7.42l39.93-8.82A31.22,31.22,0,0,1,281.29,235.24Z"/><path class="cls-6" d="M278.12,228.52l-39.93,8.82a28.13,28.13,0,0,1,1.42-6l34.69-7.67A28,28,0,0,1,278.12,228.52Z"/><path class="cls-5" d="M282.65,241.05a32.07,32.07,0,0,1,.19,7.37l-40.55,9a32.11,32.11,0,0,1-2.93-6.76Z"/><path class="cls-6" d="M252.5,267.55l25.37-5.6a19.18,19.18,0,0,1-25.37,5.6Z"/><path class="cls-6" d="M282.84,248.42a28.94,28.94,0,0,1-1,5.23l-36.48,8.06a30,30,0,0,1-3.09-4.34Z"/><path class="cls-6" d="M282.2,238.55c.18.84.33,1.67.45,2.5l-43.29,9.56c-.24-.8-.46-1.62-.64-2.46a33.31,33.31,0,0,1-.57-3.39l43.14-9.52A34.18,34.18,0,0,1,282.2,238.55Z"/><path class="cls-5" d="M281.86,253.65a25.56,25.56,0,0,1-4,8.3l-25.37,5.6a25.68,25.68,0,0,1-7.12-5.84Z"/><path class="cls-6" d="M259.87,222.73l-4.22,1a29.56,29.56,0,0,1-35.6-21.91l-2.31-9.7a31.9,31.9,0,0,1,24.85-38.68h0a33.61,33.61,0,0,1,39.21,25.2l1.45,6.09A31.53,31.53,0,0,1,259.87,222.73Z"/><path class="cls-8" d="M273.18,163c-3.59.62-7.41,1.12-10.64,2.5a22.22,22.22,0,0,0-9.16,7.95c-2.56,3.62-7.8,4.69-12,3.62-4-1-7.09-4.1-11.24-5.06a24.93,24.93,0,0,0-10.6-.11,31.9,31.9,0,0,1,23-18.44,33.5,33.5,0,0,1,24.68,4.7A33.06,33.06,0,0,1,273.18,163Z"/><path class="cls-6" d="M237.56,152.42h7.82a2.93,2.93,0,0,1,2.93,2.93v.41a.21.21,0,0,1-.21.21H235.35a.21.21,0,0,1-.21-.21v-.93A2.41,2.41,0,0,1,237.56,152.42Z" transform="translate(-29.14 60.18) rotate(-13.39)"/><path class="cls-6" d="M238.93,152.79c-.18-1.28-.93-7.49,1.51-10.86a.22.22,0,0,1,.39.1c.22,1.91,1,8.36,2.27,9.67a.21.21,0,0,1-.1.37l-3.8.9A.22.22,0,0,1,238.93,152.79Z"/><circle class="cls-9" cx="240.37" cy="138.09" r="4.82"/><circle class="cls-10" cx="240.37" cy="138.09" r="3.41"/><circle class="cls-5" cx="238.55" cy="196.57" r="6.35"/><circle class="cls-5" cx="268" cy="189.56" r="6.35"/><circle class="cls-4" cx="236.83" cy="196.38" r="13.02"/><circle class="cls-4" cx="266.28" cy="189.37" r="13.02"/><line class="cls-4" x1="249.5" y1="193.37" x2="253.61" y2="192.39"/><line class="cls-4" x1="224.16" y1="199.4" x2="218.44" y2="194.72"/><line class="cls-4" x1="278.95" y1="186.35" x2="281.79" y2="179.64"/><path class="cls-4" d="M251.51,210.9a5,5,0,0,0,4.5,1.24,4.94,4.94,0,0,0,3.29-3"/></svg>