<svg id="Layer_1" data-name="Layer 1" xmlns="http://www.w3.org/2000/svg" viewBox="0 0 351.16 293.04"><defs><style>.cls-1,.cls-2,.cls-5{fill:#c4cbe0;}.cls-1{opacity:0.25;}.cls-3,.cls-8{fill:#fff;}.cls-4{fill:none;}.cls-12,.cls-4,.cls-5,.cls-6,.cls-7,.cls-8,.cls-9{stroke:#3e6be0;stroke-linecap:round;stroke-linejoin:round;}.cls-6,.cls-7{fill:#3e6be0;}.cls-6{opacity:0.4;}.cls-9{fill:#cad1e6;}.cls-10{fill:#ffc4c4;}.cls-11{fill:#ff6766;}.cls-12{fill:#3e6be6;}</style></defs><path class="cls-1" d="M351,247a175.11,175.11,0,0,1-2.45,29.25H318.48A145,145,0,1,0,31.39,247a146,146,0,0,0,3,29.25H4.28A174.59,174.59,0,1,1,351,247Z"/><path class="cls-2" d="M321.43,247a146,146,0,0,1-2.95,29.25H34.34A145,145,0,1,1,321.43,247Z"/><path class="cls-3" d="M264,271a15.08,15.08,0,0,1-1.06,5.6H147.14a18.46,18.46,0,0,1-1.78-8,18.73,18.73,0,0,1,18.73-18.73,17,17,0,0,1,1.75.09,25.2,25.2,0,0,1,50-6.23,16.34,16.34,0,0,1,26.7,12.63c0,.18,0,.37,0,.55a15,15,0,0,1,6.11-1.28A15.33,15.33,0,0,1,264,271Z"/><path class="cls-3" d="M138,209.58c0,5.83-12.38,3.41-16.48,3.41H66.9a11.27,11.27,0,0,1-1.09-4.85,11.4,11.4,0,0,1,11.41-11.4,9.28,9.28,0,0,1,1.06.06,17.14,17.14,0,0,1-.1-1.76,15.34,15.34,0,0,1,30.55-2A9.95,9.95,0,0,1,125,200.69V201a9.08,9.08,0,0,1,3.72-.78A9.33,9.33,0,0,1,138,209.58Z"/><circle class="cls-4" cx="142.1" cy="255.47" r="2.95"/><circle class="cls-4" cx="284.68" cy="253.99" r="3.37"/><circle class="cls-4" cx="126.3" cy="181.08" r="2.42"/><circle class="cls-4" cx="61.74" cy="96.74" r="3"/><circle class="cls-4" cx="84.7" cy="47.47" r="2"/><circle class="cls-4" cx="232.16" cy="37.82" r="2.33"/><circle class="cls-4" cx="180" cy="248.67" r="1.08"/><line class="cls-4" x1="36.04" y1="276.99" x2="75.8" y2="276.99"/><line class="cls-4" x1="91.03" y1="277.03" x2="208.19" y2="277.03"/><line class="cls-4" x1="224.27" y1="277.15" x2="247.53" y2="277.15"/><line class="cls-4" x1="263.13" y1="276.88" x2="282.59" y2="276.88"/><line class="cls-4" x1="298.57" y1="277.18" x2="318.02" y2="277.18"/><line class="cls-4" x1="97.03" y1="236.49" x2="104.27" y2="236.49"/><line class="cls-4" x1="100.65" y1="232.87" x2="100.65" y2="240.11"/><line class="cls-4" x1="46.22" y1="172.06" x2="53.46" y2="172.06"/><line class="cls-4" x1="49.84" y1="168.44" x2="49.84" y2="175.68"/><line class="cls-4" x1="248.73" y1="157.14" x2="255.97" y2="157.14"/><line class="cls-4" x1="252.35" y1="153.52" x2="252.35" y2="160.76"/><path class="cls-5" d="M202,242.52l25.9,19.7s-2.5,5.4,4.29,7.52S252.62,255,250.86,246.1s-26.55-14.47-26.55-14.47Z"/><path class="cls-5" d="M212.78,240.05c2,0,5.57,13.12,5.95,15,.89,4.42,1.36,10.4-2,13.91-3.89,4.11-9.9,5.6-15.28,6.57-2.48.45-5.8,1.42-8.32,1.15-2-.22-1.57.25-2.67-1.66a9.27,9.27,0,0,1-.6-7.17c.25-.71,4.43-5.47,4.85-4.52l-10.24-23.57Z"/><path class="cls-5" d="M185.77,192.69c-.68-4.55-5.36-7.18-8.58-10.56a118.62,118.62,0,0,0-13.32-12.23c-9.75-7.53-22.69-14-35.38-13.32-4.12.24-8.35,1.85-10.82,5.16a12.52,12.52,0,0,0-1.9,10.17c2.29,10.07,15.4,8.91,23,11.93,11.29,4.47,20.57,12.9,32.12,16.89C177.54,203,187.18,202.05,185.77,192.69Z"/><path class="cls-6" d="M222.66,190.9c6.64-15.46,16.57-30.7,28.81-42.35a63.19,63.19,0,0,1,13.59-10.05c2.26-1.22,12.85-6.92,15.21-4.92a1.43,1.43,0,0,1,.38.68,34,34,0,0,1,1.61,13.44c-.36,5.46-1.29,13.14-4.23,17.88,0,0,5.81-9.08,9.44-4.54s5.8,37-47.64,48.73C239.83,209.77,213,215.75,222.66,190.9Z"/><path class="cls-7" d="M227,186.05l-53.1,8.76a36.8,36.8,0,0,1,8.4-12.5l32.74-5.4A36.75,36.75,0,0,1,227,186.05Z"/><path class="cls-8" d="M215,176.91l-32.74,5.4a28.7,28.7,0,0,1,32.74-5.4Z"/><path class="cls-7" d="M236.61,204.14,170.6,215a46.78,46.78,0,0,1,.66-11.23l61.11-10.08A46.93,46.93,0,0,1,236.61,204.14Z"/><path class="cls-8" d="M232.37,193.72,171.26,203.8a43.25,43.25,0,0,1,2.63-9l53.1-8.76A42.93,42.93,0,0,1,232.37,193.72Z"/><path class="cls-7" d="M238.19,213a47.58,47.58,0,0,1-.31,11.16l-62,10.23A48.57,48.57,0,0,1,172,224Z"/><path class="cls-8" d="M190.44,250.66l38.82-6.4a29.06,29.06,0,0,1-38.82,6.4Z"/><path class="cls-8" d="M237.88,224.2A45.44,45.44,0,0,1,236,232l-55.83,9.21a45,45,0,0,1-4.32-6.81Z"/><path class="cls-8" d="M237.72,209.22c.21,1.28.37,2.55.47,3.82L172,224c-.3-1.23-.56-2.48-.77-3.76a49,49,0,0,1-.58-5.17l66-10.89A51.38,51.38,0,0,1,237.72,209.22Z"/><path class="cls-7" d="M236,232a39,39,0,0,1-6.72,12.23l-38.82,6.4a38.8,38.8,0,0,1-10.29-9.42Z"/><path class="cls-6" d="M226.56,202.74c6.64-15.46,16.57-30.7,28.81-42.35a63.83,63.83,0,0,1,13.6-10c2.26-1.21,12.84-6.92,15.2-4.91a1.54,1.54,0,0,1,.39.68,33.78,33.78,0,0,1,1.6,13.43c-.35,5.47-1.28,13.15-4.22,17.88,0,0,5.8-9.08,9.43-4.54s5.8,37-47.64,48.74C243.73,221.62,216.89,227.59,226.56,202.74Z"/><path class="cls-5" d="M220.16,183.72a5.87,5.87,0,0,1,1-.41c3.35-1.05,7.69.95,11,1.49a104.13,104.13,0,0,1,15.48,3.62c10.31,3.35,21.45,9.52,27.22,19.1,1.87,3.11,2.8,7,1.62,10.42a11,11,0,0,1-6.47,6.43c-4.38,1.72-8.84,1.58-11.66-2.51-4.32-6.28-7.81-9.82-14.83-13.46-5-2.6-10.07-5.22-15.47-6.85a32.66,32.66,0,0,1-8.08-3.14,8.76,8.76,0,0,1-4.07-5.17A9.43,9.43,0,0,1,220.16,183.72Z"/><path class="cls-5" d="M88,106.32l2.88,9.91a.08.08,0,0,0,.15,0l1.09-16a.13.13,0,0,0-.09-.14L45,82.8a.14.14,0,0,0-.12.26l43,23.17A.13.13,0,0,1,88,106.32Z"/><path class="cls-5" d="M82.94,111.21l7.63,5.14a.18.18,0,0,0,.27-.2l-3-9.88a.18.18,0,0,0-.3-.07l-4.61,4.74A.18.18,0,0,0,82.94,111.21Z"/><path class="cls-7" d="M88,106.19,71.59,123.71a.17.17,0,0,1-.28,0l-28-41.24a.1.1,0,0,1,.13-.15L88,106A.1.1,0,0,1,88,106.19Z"/><path class="cls-7" d="M102.62,91.26l-10.5,8.83-48.5-17.8a.05.05,0,0,1,0-.1L102.54,91A.18.18,0,0,1,102.62,91.26Z"/><path class="cls-8" d="M194.35,186.69l-5.67-1.07a39.24,39.24,0,0,1-31.3-45.83l2.46-13A42.35,42.35,0,0,1,210.9,93.34h0a44.64,44.64,0,0,1,33.9,51.78l-1.54,8.17A41.88,41.88,0,0,1,194.35,186.69Z"/><path class="cls-9" d="M213.73,94.09c-2.37.91-4.86,1.54-7.3,2.28q-1.05.28-2,.63l-.84.28c-.58.2-1.15.42-1.72.66l-.75.33c-.27.11-.54.23-.81.37a24.48,24.48,0,0,0-2.71,1.61,31.94,31.94,0,0,0-8.8,9.64c-3.11,5-10,6.84-15.58,5.76a33,33,0,0,1-7.88-3.1,42.35,42.35,0,0,1,45.6-19.21C211.86,93.56,212.8,93.81,213.73,94.09Z"/><path class="cls-8" d="M197.56,100.25a24.48,24.48,0,0,1,2.71-1.61c.27-.14.54-.26.81-.37l.75-.33c.57-.24,1.14-.46,1.73-.66l.83-.28q1-.34,2-.63"/><path class="cls-8" d="M204.38,89.29h10.35a3.56,3.56,0,0,1,3.56,3.56V94a0,0,0,0,1,0,0H200.82a0,0,0,0,1,0,0V92.85A3.56,3.56,0,0,1,204.38,89.29Z" transform="translate(20.6 -37.23) rotate(10.67)"/><path class="cls-8" d="M206.85,88.74s2.63-10.33,8.43-13c0,0-4.59,13.72-2.14,14.18Z"/><circle class="cls-10" cx="216.63" cy="71.38" r="6.4"/><circle class="cls-11" cx="216.63" cy="71.38" r="4.53"/><circle class="cls-12" cx="172.45" cy="141.93" r="8.44"/><circle class="cls-4" cx="180.4" cy="139.53" r="17.29"/><line class="cls-4" x1="158.56" y1="133.62" x2="163.41" y2="136.32"/></svg>