<svg id="Layer_1" data-name="Layer 1" xmlns="http://www.w3.org/2000/svg" viewBox="0 0 351.16 293.04"><defs><style>.cls-1,.cls-2,.cls-7{fill:#c4cbe0;}.cls-1{opacity:0.25;}.cls-3,.cls-5{fill:#fff;}.cls-4{fill:none;}.cls-12,.cls-4,.cls-5,.cls-6,.cls-7,.cls-8,.cls-9{stroke:#3e6be0;stroke-linecap:round;stroke-linejoin:round;}.cls-6,.cls-8{fill:#3e6be0;}.cls-8{opacity:0.3;}.cls-9{fill:#cad1e6;}.cls-10{fill:#ffc4c4;}.cls-11{fill:#ff6766;}.cls-12{fill:#3e6be6;}</style></defs><path class="cls-1" d="M348.07,244.32a175.11,175.11,0,0,1-2.45,29.25H315.56A145,145,0,1,0,28.47,244.32a146,146,0,0,0,3,29.25H1.36a174.59,174.59,0,1,1,346.71-29.25Z"/><path class="cls-2" d="M318.51,244.32a146,146,0,0,1-2.95,29.25H31.42a145,145,0,1,1,287.09-29.25Z"/><path class="cls-3" d="M261.06,268.4A15.08,15.08,0,0,1,260,274H144.22a18.46,18.46,0,0,1-1.78-8,18.73,18.73,0,0,1,18.73-18.73,17,17,0,0,1,1.75.09,25.2,25.2,0,0,1,50-6.23,16.34,16.34,0,0,1,26.7,12.63c0,.18,0,.37,0,.55a15,15,0,0,1,6.11-1.28A15.33,15.33,0,0,1,261.06,268.4Z"/><path class="cls-3" d="M135.12,207c0,5.83-12.38,3.41-16.49,3.41H64a11.26,11.26,0,0,1-1.08-4.85,11.4,11.4,0,0,1,11.4-11.4c.36,0,.71,0,1.07,0a14.42,14.42,0,0,1-.11-1.75,15.34,15.34,0,0,1,30.55-2,10,10,0,0,1,16.26,7.69c0,.11,0,.23,0,.34a9.08,9.08,0,0,1,3.72-.78A9.34,9.34,0,0,1,135.12,207Z"/><circle class="cls-4" cx="139.18" cy="252.84" r="2.95"/><circle class="cls-4" cx="281.76" cy="251.36" r="3.37"/><circle class="cls-4" cx="123.39" cy="178.45" r="2.42"/><circle class="cls-4" cx="58.82" cy="94.11" r="3"/><circle class="cls-4" cx="81.79" cy="44.84" r="2"/><circle class="cls-4" cx="229.24" cy="35.19" r="2.33"/><circle class="cls-4" cx="177.09" cy="246.04" r="1.08"/><line class="cls-4" x1="33.13" y1="274.36" x2="72.89" y2="274.36"/><line class="cls-4" x1="88.11" y1="274.4" x2="205.28" y2="274.4"/><line class="cls-4" x1="221.35" y1="274.51" x2="244.62" y2="274.51"/><line class="cls-4" x1="260.22" y1="274.24" x2="279.68" y2="274.24"/><line class="cls-4" x1="295.65" y1="274.55" x2="315.11" y2="274.55"/><line class="cls-4" x1="94.11" y1="233.86" x2="101.35" y2="233.86"/><line class="cls-4" x1="97.73" y1="230.24" x2="97.73" y2="237.48"/><line class="cls-4" x1="43.3" y1="169.43" x2="50.54" y2="169.43"/><line class="cls-4" x1="46.92" y1="165.81" x2="46.92" y2="173.05"/><line class="cls-4" x1="245.82" y1="154.51" x2="253.06" y2="154.51"/><line class="cls-4" x1="249.44" y1="150.89" x2="249.44" y2="158.13"/><path class="cls-5" d="M282.34,104.51v89.26A19.36,19.36,0,0,1,263,213.13H160.06a19.36,19.36,0,0,1-19.36-19.36V103.5Z"/><path class="cls-6" d="M282.34,85.65v18.86l-141.64-1V85.65a19.36,19.36,0,0,1,19.36-19.36H263A19.36,19.36,0,0,1,282.34,85.65Z"/><rect class="cls-5" x="170.7" y="60.56" width="9.39" height="24.85" rx="4.69"/><path class="cls-7" d="M303.54,66.37l-8.06,0a1.69,1.69,0,0,1-1.62-1.24,26.58,26.58,0,0,0-2.53-5.83,1.66,1.66,0,0,1,.19-2L297,51.37a2.7,2.7,0,0,0-.13-3.8l-5.37-5a2.7,2.7,0,0,0-3.8.13l-5.5,5.89a1.7,1.7,0,0,1-2,.34,26.7,26.7,0,0,0-4-1.59,1.8,1.8,0,0,1-1.3-1.71v-8a2.7,2.7,0,0,0-2.69-2.69h-7.35a2.7,2.7,0,0,0-2.69,2.69v8a1.76,1.76,0,0,1-1.28,1.68,27,27,0,0,0-4,1.59,1.7,1.7,0,0,1-2-.35l-5.49-5.89a2.7,2.7,0,0,0-3.8-.14l-5.38,5a2.71,2.71,0,0,0-.14,3.8l5.55,6a1.58,1.58,0,0,1,.19,1.9A26.24,26.24,0,0,0,243.22,65a1.68,1.68,0,0,1-1.61,1.22l-8.08,0a2.69,2.69,0,0,0-2.69,2.68l0,7.35a2.71,2.71,0,0,0,2.69,2.7l8.06,0a1.71,1.71,0,0,1,1.62,1.25A25.84,25.84,0,0,0,245.71,86a1.66,1.66,0,0,1-.2,2L240,93.88a2.71,2.71,0,0,0,.13,3.81l5.38,5a2.69,2.69,0,0,0,3.8-.14l5.49-5.89a1.73,1.73,0,0,1,2-.34,26.74,26.74,0,0,0,4,1.6,1.78,1.78,0,0,1,1.29,1.7v8a2.7,2.7,0,0,0,2.69,2.69h7.35a2.7,2.7,0,0,0,2.69-2.69v-8a1.77,1.77,0,0,1,1.28-1.68,25.58,25.58,0,0,0,4-1.59,1.73,1.73,0,0,1,2,.35l5.48,5.9a2.7,2.7,0,0,0,3.8.13l5.38-5a2.69,2.69,0,0,0,.14-3.8l-5.55-6a1.58,1.58,0,0,1-.18-1.9,26.3,26.3,0,0,0,2.53-5.76,1.69,1.69,0,0,1,1.61-1.22l8.07,0a2.7,2.7,0,0,0,2.7-2.68l0-7.34A2.7,2.7,0,0,0,303.54,66.37Z"/><circle class="cls-5" cx="268.52" cy="72.63" r="11.85"/><rect class="cls-7" x="181.1" y="125.97" width="16.83" height="48.02" rx="2.6"/><rect class="cls-7" x="206.18" y="136.69" width="16.83" height="37.29" rx="2.6"/><rect class="cls-7" x="232.03" y="145.3" width="16.83" height="28.68" rx="2.6"/><rect class="cls-6" x="176.43" y="135.94" width="3.25" height="49.86" rx="1.63" transform="translate(132.39 -74.71) rotate(36.93)"/><path class="cls-7" d="M129.28,244.53c-.67.27-1.05,7.91-1.18,8.7a77.68,77.68,0,0,1-3.26,12.55c.91,1.77,1.85,3.85,1.06,5.68-.85,2-3.26,2.67-5.38,3.08-4.91.95-10.12,1.67-14.81-.07l2.68-21.61C108.39,251.43,127,245.46,129.28,244.53Z"/><path class="cls-7" d="M77.06,234.33c1.44,6.76,4.23,12.81,6,19.45a61,61,0,0,1,1.36,7.71L85.69,271a4.5,4.5,0,0,0,.75,2.32,4.24,4.24,0,0,0,1.61,1.08,30.83,30.83,0,0,0,10.83,2.7,12,12,0,0,0,7.15-1.32c2.09-1.29,3.48-4,2.63-6.29-.39-1-1.19-1.94-1.4-3a6,6,0,0,1,.24-2.45l2.18-9c0-1.58-13.66-8.61-15.3-9.63C88.57,241.73,82.75,238.12,77.06,234.33Z"/><path class="cls-8" d="M108.45,213.26a99.9,99.9,0,0,1,13.66-33.53,47.87,47.87,0,0,1,19-16.63.95.95,0,0,1,1.54.6c3.36,7.42,3.44,14.94,2.13,22.81a15,15,0,0,0,1.85-2.9,3.79,3.79,0,0,1,2.74-2.05,3.11,3.11,0,0,1,2.65,1.57c3.52,5.54,1.53,14-1.21,19.35-4,7.79-11.08,13.54-18.52,17.84a88.06,88.06,0,0,1-8.69,4.35S105,232.89,108.45,213.26Z"/><path class="cls-8" d="M107.36,213.8c-7.43-11-17.35-21.28-28.48-28.47A49.69,49.69,0,0,0,67,179.59c-1.92-.6-10.89-3.43-12.39-1.52a1.29,1.29,0,0,0-.19.58,27,27,0,0,0,.82,10.65c1.1,4.18,3,10,6,13.21,0,0-5.82-6.16-7.91-2.1S54.42,230,97.09,231C97.09,231,118.54,231.59,107.36,213.8Z"/><path class="cls-7" d="M167.28,179.87a8,8,0,0,1-.27,1.38,15.2,15.2,0,0,1-3.37,5.48c-9.63,11.43-21.45,25-35.83,23.15a9.88,9.88,0,0,1-7.47-5,14,14,0,0,1-1.3-9.11c1.45-8,6-7.72,11.51-8.12,6.21-.45,12.06-3.77,17.2-7.89,4-3.23,8.67-10.39,14-9.5C165.15,170.87,167.75,175.64,167.28,179.87Z"/><path class="cls-6" d="M131.67,195.28H80.91A34.67,34.67,0,0,1,90.64,185h31.3A34.67,34.67,0,0,1,131.67,195.28Z"/><path class="cls-5" d="M121.94,185H90.64a27,27,0,0,1,31.3,0Z"/><path class="cls-6" d="M137.84,213.59H74.74a43.9,43.9,0,0,1,2.35-10.34h58.4A44.4,44.4,0,0,1,137.84,213.59Z"/><path class="cls-5" d="M135.49,203.25H77.09a40.12,40.12,0,0,1,3.82-8h50.76A40.12,40.12,0,0,1,135.49,203.25Z"/><path class="cls-6" d="M138,222.12a45,45,0,0,1-2,10.33H76.64a45,45,0,0,1-2-10.33Z"/><path class="cls-5" d="M87.74,249.8h37.1a27.38,27.38,0,0,1-37.1,0Z"/><path class="cls-5" d="M135.94,232.45a41.68,41.68,0,0,1-3,7H79.61a41.68,41.68,0,0,1-3-7Z"/><path class="cls-5" d="M138.09,218.5c0,1.22-.05,2.42-.14,3.62H74.63c-.09-1.2-.14-2.4-.14-3.62a46.65,46.65,0,0,1,.25-4.91h63.1A46.65,46.65,0,0,1,138.09,218.5Z"/><path class="cls-6" d="M133,239.46a36.48,36.48,0,0,1-8.13,10.34H87.74a36.48,36.48,0,0,1-8.13-10.34Z"/><rect class="cls-5" x="89.89" y="212.01" width="27.75" height="30.74" rx="3.23" transform="translate(127.59 -21.42) rotate(30)"/><path class="cls-7" d="M102.47,239.16c-2.15-.89-4.24-2.25-6-3.13q-7-3.57-13.76-7.45c-9-5.16-4.52-21.27-4.3-29.61a6.88,6.88,0,0,1,7.06-6.7l2.26.06a6.88,6.88,0,0,1,6.7,7.06q-.18,6.62-.35,13.24c-.11,4.13,2.3,4.34,5.57,5.88,4.29,2,8.52,4.45,11.75,8a7.9,7.9,0,0,1,2.3,4.14,8,8,0,0,1-1,4.36c-1,2.13-2.55,4.25-4.83,4.89A8.49,8.49,0,0,1,102.47,239.16Z"/><path class="cls-5" d="M111.24,200.93l2.46,13.9,6.11,1.43,3.8-3.92s-2.18-10-5.32-12.85S111.24,200.93,111.24,200.93Z"/><rect class="cls-5" x="109.28" y="194.27" width="10.01" height="6.62" rx="3.31" transform="translate(-34.97 24.89) rotate(-10.79)"/><path class="cls-5" d="M108,190.06l-5.46.84a37.6,37.6,0,0,1-42.91-31.42l-1.94-12.54a40.59,40.59,0,0,1,35.47-46.51,42.76,42.76,0,0,1,36.51,13.7,42.54,42.54,0,0,1,10.65,22.26l1.21,7.88A40.13,40.13,0,0,1,108,190.06Z"/><path class="cls-9" d="M129.7,114.13a39.56,39.56,0,0,0-8.43,1.6c-5,1.67-9.11,5.16-12.43,9.15-3.62,4.33-10.38,5.15-15.56,3.37-5-1.72-8.57-5.92-13.74-7.56-4.32-1.38-11.23-2.6-15.72-2l.14-.25a40.48,40.48,0,0,1,29.23-18,42.76,42.76,0,0,1,36.51,13.7Z"/><path class="cls-5" d="M86.87,98.66h9.62a3.56,3.56,0,0,1,3.56,3.56v.95a0,0,0,0,1,0,0H83.3a0,0,0,0,1,0,0v-.95A3.56,3.56,0,0,1,86.87,98.66Z" transform="translate(-14.33 15.18) rotate(-8.78)"/><path class="cls-5" d="M88.3,99.15S87.38,89,91.77,84.71c0,0,.23,13.87,2.59,13.5Z"/><circle class="cls-10" cx="91.6" cy="80.34" r="6.13"/><circle class="cls-11" cx="91.6" cy="80.34" r="4.34"/><circle class="cls-12" cx="89.46" cy="150.55" r="8.09"/><circle class="cls-12" cx="127.53" cy="144.66" r="8.09"/><circle class="cls-4" cx="85.5" cy="152.29" r="16.57"/><circle class="cls-4" cx="123.56" cy="146.41" r="16.57"/><line class="cls-4" x1="101.87" y1="149.76" x2="107.19" y2="148.94"/><line class="cls-4" x1="69.12" y1="154.82" x2="62.35" y2="148.3"/><line class="cls-4" x1="141.14" y1="141.56" x2="139.94" y2="143.87"/><line class="cls-4" x1="103.32" y1="173.14" x2="112.32" y2="171.14"/></svg>