<svg id="Layer_1" data-name="Layer 1" xmlns="http://www.w3.org/2000/svg" viewBox="0 0 351.16 293.04"><defs><style>.cls-1,.cls-2{fill:#c4cbe0;}.cls-1{opacity:0.25;}.cls-12,.cls-3{fill:#fff;}.cls-16,.cls-4,.cls-5,.cls-6,.cls-8,.cls-9{fill:none;}.cls-4,.cls-5{stroke:#6280e1;}.cls-4,.cls-9{stroke-miterlimit:10;}.cls-10,.cls-11,.cls-12,.cls-15,.cls-16,.cls-5,.cls-6,.cls-7,.cls-8,.cls-9{stroke-linecap:round;}.cls-10,.cls-11,.cls-12,.cls-15,.cls-16,.cls-5,.cls-6,.cls-7,.cls-8{stroke-linejoin:round;}.cls-6{stroke:#36f;}.cls-10,.cls-7{fill:#3e6be6;}.cls-10,.cls-11,.cls-12,.cls-15,.cls-16,.cls-7{stroke:#3e6be0;}.cls-8{stroke:#fff;}.cls-9{stroke:#1d1d1b;stroke-width:0.61px;}.cls-10{opacity:0.3;}.cls-11{fill:#cad1e6;}.cls-13{fill:#ffc4c4;}.cls-14{fill:#ff6766;}.cls-15{fill:#3e6be0;}</style></defs><path class="cls-1" d="M350.16,259.82a175.11,175.11,0,0,1-2.45,29.25H317.65A145,145,0,1,0,30.56,259.82a146,146,0,0,0,2.95,29.25H3.45a174.59,174.59,0,1,1,346.71-29.25Z"/><path class="cls-2" d="M320.6,259.82a146,146,0,0,1-3,29.25H33.51A145,145,0,1,1,320.6,259.82Z"/><path class="cls-3" d="M263.15,283.89a15.08,15.08,0,0,1-1.06,5.6H146.31a18.46,18.46,0,0,1-1.78-8,18.73,18.73,0,0,1,18.73-18.73,17,17,0,0,1,1.75.09,25.2,25.2,0,0,1,50-6.23,16.34,16.34,0,0,1,26.7,12.63c0,.18,0,.37,0,.55a15,15,0,0,1,6.11-1.28A15.33,15.33,0,0,1,263.15,283.89Z"/><path class="cls-3" d="M137.2,222.44c0,5.83-12.38,3.41-16.48,3.41H66.07A11.25,11.25,0,0,1,65,221a11.4,11.4,0,0,1,11.4-11.41,9.28,9.28,0,0,1,1.06.06,17.14,17.14,0,0,1-.1-1.76,15.34,15.34,0,0,1,30.55-2,10,10,0,0,1,16.26,7.69c0,.11,0,.23,0,.34a9.08,9.08,0,0,1,3.72-.78A9.33,9.33,0,0,1,137.2,222.44Z"/><circle class="cls-4" cx="132.72" cy="273.81" r="2.95"/><circle class="cls-4" cx="125.47" cy="193.94" r="2.42"/><circle class="cls-4" cx="60.91" cy="109.6" r="3"/><circle class="cls-4" cx="83.87" cy="60.34" r="2"/><circle class="cls-4" cx="231.33" cy="50.68" r="2.33"/><circle class="cls-4" cx="179.18" cy="261.53" r="1.08"/><line class="cls-5" x1="35.22" y1="289.85" x2="74.97" y2="289.85"/><line class="cls-5" x1="90.2" y1="289.89" x2="207.37" y2="289.89"/><line class="cls-5" x1="223.44" y1="290.01" x2="246.7" y2="290.01"/><line class="cls-5" x1="262.3" y1="289.74" x2="281.76" y2="289.74"/><line class="cls-5" x1="297.74" y1="290.04" x2="317.19" y2="290.04"/><line class="cls-6" x1="86.7" y1="249.72" x2="93.94" y2="249.72"/><line class="cls-6" x1="90.32" y1="246.1" x2="90.32" y2="253.34"/><line class="cls-6" x1="45.39" y1="184.92" x2="52.63" y2="184.92"/><line class="cls-6" x1="49.01" y1="181.3" x2="49.01" y2="188.54"/><line class="cls-6" x1="305.9" y1="103" x2="313.14" y2="103"/><line class="cls-6" x1="309.52" y1="99.38" x2="309.52" y2="106.62"/><rect class="cls-7" x="107.36" y="97.52" width="106.89" height="165.76" rx="3"/><circle class="cls-7" cx="72.94" cy="180.4" r="9.02"/><circle class="cls-7" cx="248.22" cy="180.4" r="9.02"/><path class="cls-7" d="M68.71,180.4h8.47a0,0,0,0,1,0,0v86.46a2,2,0,0,1-2,2H70.71a2,2,0,0,1-2-2V180.4A0,0,0,0,1,68.71,180.4Z"/><path class="cls-7" d="M244,180.4h8.47a0,0,0,0,1,0,0v86.46a2,2,0,0,1-2,2H246a2,2,0,0,1-2-2V180.4A0,0,0,0,1,244,180.4Z"/><path class="cls-8" d="M72.94,180.4S104.12,227,178.08,215c0,0,53.81-7.83,70.14-34.64"/><ellipse class="cls-9" cx="257.8" cy="245.05" rx="23.25" ry="28.18"/><path class="cls-10" d="M261,241a99.72,99.72,0,0,1,19.86-30.27,47.75,47.75,0,0,1,21.88-12.65.94.94,0,0,1,1.39.88c1.87,7.93.5,15.33-2.31,22.8a15.18,15.18,0,0,0,2.38-2.49,3.73,3.73,0,0,1,3.09-1.48,3.09,3.09,0,0,1,2.29,2c2.39,6.12-1.18,14-4.91,18.76-5.39,6.87-13.49,11.15-21.62,13.93a88.84,88.84,0,0,1-9.36,2.6S253.79,259.58,261,241Z"/><path class="cls-10" d="M254.77,246.3c-5.18-12.2-12.92-24.23-22.46-33.42A49.78,49.78,0,0,0,221.7,205c-1.76-1-10-5.47-11.85-3.88a1.08,1.08,0,0,0-.3.53,26.85,26.85,0,0,0-1.25,10.61c.27,4.31,1,10.37,3.29,14.11,0,0-4.53-7.17-7.36-3.59S199.71,252,241.38,261.2C241.38,261.2,262.31,265.91,254.77,246.3Z"/><path class="cls-11" d="M257.76,270.54c1.11.44.61,9.11.46,10.32a13.07,13.07,0,0,1-2,6,7.23,7.23,0,0,1-5.27,2.93,25.32,25.32,0,0,1-7.47-.37,11.46,11.46,0,0,1-4.1-1.31c-2.43-1.62-1.31-4.9.73-6.34.23-.16,2.75-1.58,2.78-1.16l-1.24-16.41Z"/><path class="cls-11" d="M258.87,270.45c-1.12.44-.62,9.11-.47,10.32.36,2.86,1.26,6.55,3.85,7.93,2.78,1.5,7.12,1.27,10.15.89s7.86-2,5.64-6a6.05,6.05,0,0,0-1.88-2.11c-.28-.19-2.39-1.26-2.41-1L275,264.09Z"/><path class="cls-11" d="M272.15,215.35a4.45,4.45,0,0,1,.79.23c2.54,1.06,4.14,4.45,5.86,6.44a82.66,82.66,0,0,1,7.49,10c4.5,7.2,8.09,16.53,6.74,25.19a9.92,9.92,0,0,1-4.27,7.07,8.67,8.67,0,0,1-7.13.62c-3.5-1.18-6.11-3.5-5.74-7.39.56-5.94.24-9.83-2.14-15.56a71.44,71.44,0,0,0-5.86-11.9,25.82,25.82,0,0,1-3.27-6,6.87,6.87,0,0,1,.16-5.16A7.39,7.39,0,0,1,272.15,215.35Z"/><path class="cls-11" d="M242.83,218a4.12,4.12,0,0,0-.78.23c-2.55,1.06-4.15,4.45-5.87,6.44a81.54,81.54,0,0,0-7.48,10c-4.51,7.2-8.1,16.53-6.74,25.19a9.89,9.89,0,0,0,4.27,7.07,8.64,8.64,0,0,0,7.12.62c3.5-1.18,6.11-3.5,5.75-7.39-.57-5.94-.25-9.83,2.14-15.56a71.39,71.39,0,0,1,5.85-11.9,25.45,25.45,0,0,0,3.27-6,6.92,6.92,0,0,0-.15-5.16A7.41,7.41,0,0,0,242.83,218Z"/><path class="cls-7" d="M276.24,228.26H239.13a25.39,25.39,0,0,1,7.11-7.56h22.89A25.39,25.39,0,0,1,276.24,228.26Z"/><path class="cls-12" d="M269.13,220.7H246.24a19.77,19.77,0,0,1,22.89,0Z"/><path class="cls-7" d="M280.75,241.65H234.61a32.5,32.5,0,0,1,1.72-7.57H279A32.5,32.5,0,0,1,280.75,241.65Z"/><path class="cls-12" d="M279,234.08H236.33a29.78,29.78,0,0,1,2.8-5.82h37.11A29.78,29.78,0,0,1,279,234.08Z"/><path class="cls-7" d="M280.84,247.88a33.64,33.64,0,0,1-1.47,7.56H236a33.64,33.64,0,0,1-1.47-7.56Z"/><path class="cls-12" d="M244.12,268.12h27.13a20,20,0,0,1-27.13,0Z"/><path class="cls-12" d="M279.37,255.44a31.11,31.11,0,0,1-2.17,5.12h-39a31.11,31.11,0,0,1-2.17-5.12Z"/><path class="cls-12" d="M280.94,245.23c0,.9,0,1.78-.1,2.65H234.53c-.07-.87-.1-1.75-.1-2.65a35.17,35.17,0,0,1,.18-3.58h46.14A32.49,32.49,0,0,1,280.94,245.23Z"/><path class="cls-7" d="M277.2,260.56a26.63,26.63,0,0,1-5.95,7.56H244.12a26.63,26.63,0,0,1-6-7.56Z"/><path class="cls-12" d="M258.87,222H254.5a29.7,29.7,0,0,1-29.69-29.69v-10a32,32,0,0,1,33.28-32h0A33.79,33.79,0,0,1,290.56,184v6.29A31.69,31.69,0,0,1,258.87,222Z"/><path class="cls-11" d="M285.78,166.67c-3.66-.23-7.51-.63-11,0A22.37,22.37,0,0,0,264,172.28c-3.34,2.94-8.71,2.76-12.54.75-3.67-1.94-6-5.65-9.8-7.56a25.25,25.25,0,0,0-10.33-2.58,32,32,0,0,1,26.78-12.66,33.69,33.69,0,0,1,23,10.34A33,33,0,0,1,285.78,166.67Z"/><path class="cls-12" d="M253.81,148.64h6.1a3.56,3.56,0,0,1,3.56,3.56v0a0,0,0,0,1,0,0H250.25a0,0,0,0,1,0,0v0A3.56,3.56,0,0,1,253.81,148.64Z"/><path class="cls-12" d="M254.44,148.64s.5-8,4.44-10.84c0,0-1.49,10.84.4,10.84Z"/><circle class="cls-13" cx="259.28" cy="134.37" r="4.84"/><circle class="cls-14" cx="259.28" cy="134.37" r="3.43"/><circle class="cls-15" cx="242.48" cy="195.85" r="6.38"/><circle class="cls-15" cx="272.89" cy="195.85" r="6.38"/><circle class="cls-16" cx="242.48" cy="190.85" r="13.08"/><circle class="cls-16" cx="272.89" cy="190.85" r="13.08"/><line class="cls-16" x1="255.56" y1="190.85" x2="259.81" y2="190.85"/><line class="cls-16" x1="229.39" y1="190.85" x2="224.9" y2="184.95"/><line class="cls-16" x1="285.97" y1="190.85" x2="290.31" y2="184.95"/><circle class="cls-12" cx="128.55" cy="175.99" r="5"/><rect class="cls-12" x="129.55" y="173.99" width="16" height="4" rx="2"/><line class="cls-16" x1="254.44" y1="210.95" x2="259.55" y2="210.95"/></svg>