<svg id="Layer_1" data-name="Layer 1" xmlns="http://www.w3.org/2000/svg" viewBox="0 0 351.16 293.04"><defs><style>.cls-1,.cls-2,.cls-6{fill:#c4cbe0;}.cls-1{opacity:0.25;}.cls-3,.cls-8,.cls-9{fill:#fff;}.cls-4{fill:none;}.cls-10,.cls-13,.cls-4,.cls-5,.cls-6,.cls-7,.cls-8,.cls-9{stroke:#3e6be0;stroke-linecap:round;stroke-linejoin:round;}.cls-5,.cls-7{fill:#3e6be0;}.cls-5{opacity:0.3;}.cls-9{opacity:0.96;}.cls-10{fill:#cad1e6;}.cls-11{fill:#ffc4c4;}.cls-12{fill:#ff6766;}.cls-13{fill:#3e6be6;}</style></defs><path class="cls-1" d="M353.29,257.65a175.11,175.11,0,0,1-2.45,29.25H320.78A145,145,0,1,0,33.69,257.65a146,146,0,0,0,3,29.25H6.58a174.59,174.59,0,1,1,346.71-29.25Z"/><path class="cls-2" d="M323.73,257.65a146,146,0,0,1-3,29.25H36.64a145,145,0,1,1,287.09-29.25Z"/><path class="cls-3" d="M266.28,281.72a15.08,15.08,0,0,1-1.06,5.6H149.44a18.46,18.46,0,0,1-1.78-8,18.73,18.73,0,0,1,18.73-18.73,17,17,0,0,1,1.75.09,25.2,25.2,0,0,1,50-6.23,16.34,16.34,0,0,1,26.7,12.63c0,.18,0,.37,0,.55a15,15,0,0,1,6.11-1.28A15.33,15.33,0,0,1,266.28,281.72Z"/><path class="cls-3" d="M140.33,220.27c0,5.84-12.38,3.41-16.48,3.41H69.2a11.19,11.19,0,0,1-1.09-4.84,11.41,11.41,0,0,1,11.41-11.41,9.28,9.28,0,0,1,1.06.06,17,17,0,0,1-.1-1.76,15.34,15.34,0,0,1,30.55-2,9.95,9.95,0,0,1,16.26,7.69c0,.1,0,.22,0,.33a9.08,9.08,0,0,1,3.72-.78A9.33,9.33,0,0,1,140.33,220.27Z"/><circle class="cls-4" cx="144.4" cy="266.16" r="2.95"/><circle class="cls-4" cx="286.98" cy="264.69" r="3.37"/><circle class="cls-4" cx="128.6" cy="191.77" r="2.42"/><circle class="cls-4" cx="64.04" cy="107.43" r="3"/><circle class="cls-4" cx="87" cy="58.17" r="2"/><circle class="cls-4" cx="234.46" cy="48.51" r="2.33"/><circle class="cls-4" cx="182.31" cy="259.36" r="1.08"/><line class="cls-4" x1="38.35" y1="287.69" x2="78.1" y2="287.69"/><line class="cls-4" x1="93.33" y1="287.72" x2="210.5" y2="287.72"/><line class="cls-4" x1="226.57" y1="287.84" x2="249.83" y2="287.84"/><line class="cls-4" x1="265.43" y1="287.57" x2="284.89" y2="287.57"/><line class="cls-4" x1="300.87" y1="287.87" x2="320.32" y2="287.87"/><line class="cls-4" x1="89.83" y1="247.56" x2="97.07" y2="247.56"/><line class="cls-4" x1="93.45" y1="243.94" x2="93.45" y2="251.18"/><line class="cls-4" x1="48.52" y1="182.75" x2="55.76" y2="182.75"/><line class="cls-4" x1="52.14" y1="179.13" x2="52.14" y2="186.37"/><line class="cls-4" x1="251.03" y1="167.83" x2="258.27" y2="167.83"/><line class="cls-4" x1="254.65" y1="164.21" x2="254.65" y2="171.45"/><path class="cls-5" d="M174.22,203.84c3.84-14.59,10.59-29.4,19.84-41.31a56.59,56.59,0,0,1,10.64-10.67c1.83-1.37,10.39-7.79,12.72-6.31a1.41,1.41,0,0,1,.43.56A30.73,30.73,0,0,1,221,157.85c.39,4.9.57,11.85-1.4,16.43,0,0,3.92-8.81,7.69-5.24s9.88,32.18-35.55,49.39C191.73,218.43,168.93,227.16,174.22,203.84Z"/><path class="cls-6" d="M135,198.94a4.66,4.66,0,0,1,.41.76c1.14,2.65-.14,6.36-.32,9.1a85.48,85.48,0,0,1-1.69,12.95c-1.89,8.69-6,18.3-13.38,23.79a10.39,10.39,0,0,1-8.38,2.17,9,9,0,0,1-5.78-4.76c-1.76-3.44-2-7.09,1.1-9.72,4.77-4,7.38-7.19,9.79-13.22a74.63,74.63,0,0,0,4.32-13.2A26.92,26.92,0,0,1,123,200a7.22,7.22,0,0,1,3.9-3.75A7.76,7.76,0,0,1,135,198.94Z"/><path class="cls-6" d="M166.89,246.51l12.38,17.35s-2.86,3.23,1.09,5.73c1.83,1.17,4.6-.09,6.29-.94a27.1,27.1,0,0,0,7.51-5.63c1.63-1.72,3.21-3.72,3.63-6.11s-1.07-4.86-2.68-6.6-3.11-3.06-4.6-4.66-2.66-3.33-4-5-3.05-3.33-5.3-2.83c-1.91.43-6,4.25-7.88,4.67C172.71,242.62,167.18,246.92,166.89,246.51Z"/><path class="cls-6" d="M158.23,240.2l-4,20.94s-4.31.16-3.4,4.74c.42,2.13,3.25,3.27,5,3.91a27.24,27.24,0,0,0,9.26,1.55c2.36,0,4.9-.24,6.92-1.59s2.78-4.12,2.93-6.49c.15-2.18.07-4.37.2-6.55s.58-4.22.87-6.36.3-4.5-1.62-5.78c-1.62-1.09-7.19-1.4-8.81-2.49C165.07,241.73,158.14,240.69,158.23,240.2Z"/><path class="cls-7" d="M117.82,210.37l44.12-27.19a35.3,35.3,0,0,0-14-3.78l-27.2,16.77A35.39,35.39,0,0,0,117.82,210.37Z"/><path class="cls-8" d="M121.47,197.67,147,178.46a27.63,27.63,0,0,0-25.55,19.21Z"/><path class="cls-7" d="M122,229.53a233.73,233.73,0,0,0,28.13-14.24A232.88,232.88,0,0,0,177.3,196.4a45.15,45.15,0,0,0-3.56-4.2,43,43,0,0,0-3.92-3.63,262.38,262.38,0,0,0-51.16,30.67C119,220.81,119.41,222.55,122,229.53Z"/><path class="cls-8" d="M118.66,219.24l51.16-30.67a41.08,41.08,0,0,0-7.54-5l-44.45,26.65A41.3,41.3,0,0,0,118.66,219.24Z"/><path class="cls-7" d="M126.42,237.06a46,46,0,0,0,7.18,8l52-31.14a46.54,46.54,0,0,0-3.67-10.1Z"/><path class="cls-8" d="M184.93,234.94l-32.5,19.48a28,28,0,0,0,32.5-19.48Z"/><path class="cls-8" d="M133.6,245.05a43.16,43.16,0,0,0,6.28,4.58l46.74-28a43,43,0,0,0-1.07-7.7Z"/><path class="cls-8" d="M124.39,234c.64,1.07,1.32,2.1,2,3.1,7.66-5.72,16.3-11.63,26-17.46a322.05,322.05,0,0,1,29.51-15.79c-.25-.5-.54-1.05-.86-1.64s-.6-1.07-.92-1.61a47.19,47.19,0,0,0-2.8-4.16L122,229.53A48.46,48.46,0,0,0,124.39,234Z"/><path class="cls-7" d="M139.88,249.63a37.44,37.44,0,0,0,12.55,4.79l32.5-19.48a37.37,37.37,0,0,0,1.69-13.33Z"/><path class="cls-6" d="M216.49,235.76l-37-16.9a3.61,3.61,0,0,0-4.67,1.55h0a3.62,3.62,0,0,0,1.68,5l36.81,16.7Z"/><path class="cls-5" d="M177.23,214.67c3.84-14.59,10.59-29.4,19.84-41.32a56.53,56.53,0,0,1,10.64-10.66c1.83-1.37,10.39-7.79,12.72-6.31a1.41,1.41,0,0,1,.43.56A30.91,30.91,0,0,1,224,168.68c.39,4.9.57,11.85-1.4,16.43,0,0,3.92-8.81,7.69-5.24s9.88,32.18-35.55,49.39C194.74,229.26,171.94,238,177.23,214.67Z"/><path class="cls-6" d="M189.91,220.89a5,5,0,0,0-.41-.76c-1.59-2.4-5.39-3.37-7.78-4.74a86.6,86.6,0,0,0-11.75-5.7c-8.3-3.19-18.6-5-27.23-1.88a10.39,10.39,0,0,0-6.42,5.8,9.08,9.08,0,0,0,.8,7.45c1.91,3.36,4.82,5.58,8.74,4.42,6-1.77,10.06-2.22,16.41-.91a74.19,74.19,0,0,1,13.41,3.63,26.74,26.74,0,0,0,6.77,2.17,7.24,7.24,0,0,0,5.28-1.19A7.76,7.76,0,0,0,189.91,220.89Z"/><circle class="cls-7" cx="244.95" cy="253.16" r="33.39"/><circle class="cls-9" cx="244.69" cy="253.17" r="26.4"/><path class="cls-8" d="M130.35,203,125,204.26a37.54,37.54,0,0,1-45.12-28L77,163.94a40.5,40.5,0,0,1,31.73-49h0a42.68,42.68,0,0,1,49.69,32.17l1.82,7.75A40.07,40.07,0,0,1,130.35,203Z"/><path class="cls-10" d="M111.46,114.49c-1.72,1.71-3.65,3.23-5.5,4.82-.53.44-1,.88-1.54,1.34l-.62.57c-.44.4-.85.81-1.26,1.24-.17.19-.35.38-.52.58a7,7,0,0,0-.57.64,24.44,24.44,0,0,0-1.75,2.46,30.58,30.58,0,0,0-4,11.84c-.78,5.58-6.08,9.84-11.41,11.06a31.29,31.29,0,0,1-8.09.34,40.51,40.51,0,0,1,32.46-34.45C109.62,114.75,110.54,114.6,111.46,114.49Z"/><path class="cls-8" d="M102.07,111.71h9.59a3.56,3.56,0,0,1,3.56,3.56v.94a0,0,0,0,1,0,0H98.51a0,0,0,0,1,0,0v-.94A3.56,3.56,0,0,1,102.07,111.71Z" transform="translate(-23.19 27.4) rotate(-13.19)"/><path class="cls-8" d="M103.37,112.47s-1.7-10.06,2.35-14.64c0,0,1.29,13.78,3.61,13.24Z"/><circle class="cls-11" cx="105.21" cy="93.49" r="6.12"/><circle class="cls-12" cx="105.21" cy="93.49" r="4.33"/><circle class="cls-13" cx="93.86" cy="172.32" r="8.07"/><circle class="cls-4" cx="99.89" cy="167.14" r="16.54"/></svg>