<svg id="Layer_1" data-name="Layer 1" xmlns="http://www.w3.org/2000/svg" viewBox="0 0 351.16 293.04"><defs><style>.cls-1,.cls-2,.cls-5{fill:#c4cbe0;}.cls-1{opacity:0.25;}.cls-3,.cls-6{fill:#fff;}.cls-4{fill:none;}.cls-12,.cls-4,.cls-5,.cls-6,.cls-7,.cls-8,.cls-9{stroke:#3e6be0;stroke-linecap:round;stroke-linejoin:round;}.cls-7,.cls-8{fill:#3e6be0;}.cls-7{opacity:0.4;}.cls-9{fill:#cad1e6;}.cls-10{fill:#ffc4c4;}.cls-11{fill:#ff6766;}.cls-12{fill:#3e6be6;}</style></defs><path class="cls-1" d="M351.48,254A175.11,175.11,0,0,1,349,283.24H319A145,145,0,1,0,31.88,254a146,146,0,0,0,2.95,29.25H4.77A174.59,174.59,0,1,1,351.48,254Z"/><path class="cls-2" d="M321.92,254A146,146,0,0,1,319,283.24H34.83A145,145,0,1,1,321.92,254Z"/><path class="cls-3" d="M264.46,278.06a15.08,15.08,0,0,1-1.06,5.6H147.62a18.46,18.46,0,0,1-1.78-8A18.73,18.73,0,0,1,164.57,257a17,17,0,0,1,1.75.09,25.2,25.2,0,0,1,50-6.23A16.34,16.34,0,0,1,243,263.46c0,.18,0,.37,0,.55a15,15,0,0,1,6.11-1.28A15.33,15.33,0,0,1,264.46,278.06Z"/><path class="cls-3" d="M138.52,216.62c0,5.83-12.38,3.41-16.48,3.41H67.39a11.27,11.27,0,0,1-1.09-4.85,11.4,11.4,0,0,1,11.4-11.4,9.47,9.47,0,0,1,1.07.05,14.6,14.6,0,0,1-.1-1.76,15.34,15.34,0,0,1,30.55-2,9.95,9.95,0,0,1,16.25,7.69v.33a9.18,9.18,0,0,1,3.72-.78A9.34,9.34,0,0,1,138.52,216.62Z"/><circle class="cls-4" cx="142.58" cy="262.51" r="2.95"/><circle class="cls-4" cx="285.16" cy="261.03" r="3.37"/><circle class="cls-4" cx="126.79" cy="188.11" r="2.42"/><circle class="cls-4" cx="62.22" cy="103.77" r="3"/><circle class="cls-4" cx="85.19" cy="54.51" r="2"/><circle class="cls-4" cx="232.65" cy="44.86" r="2.33"/><circle class="cls-4" cx="180.49" cy="255.7" r="1.08"/><line class="cls-4" x1="36.53" y1="284.03" x2="76.29" y2="284.03"/><line class="cls-4" x1="91.52" y1="284.06" x2="208.68" y2="284.06"/><line class="cls-4" x1="224.76" y1="284.18" x2="248.02" y2="284.18"/><line class="cls-4" x1="263.62" y1="283.91" x2="283.08" y2="283.91"/><line class="cls-4" x1="299.05" y1="284.21" x2="318.51" y2="284.21"/><line class="cls-4" x1="97.52" y1="243.52" x2="104.75" y2="243.52"/><line class="cls-4" x1="101.13" y1="239.9" x2="101.13" y2="247.14"/><line class="cls-4" x1="46.71" y1="179.1" x2="53.94" y2="179.1"/><line class="cls-4" x1="50.33" y1="175.48" x2="50.33" y2="182.72"/><line class="cls-4" x1="249.22" y1="164.17" x2="256.46" y2="164.17"/><line class="cls-4" x1="252.84" y1="160.55" x2="252.84" y2="167.79"/><path class="cls-5" d="M282.41,115.3l-7.07-.44a1.5,1.5,0,0,1-1.36-1.18,23.21,23.21,0,0,0-1.92-5.25,1.44,1.44,0,0,1,.27-1.72l5.16-4.92a2.37,2.37,0,0,0,.08-3.34l-4.46-4.68a2.38,2.38,0,0,0-3.35-.08l-5.13,4.89a1.49,1.49,0,0,1-1.79.19,24.76,24.76,0,0,0-3.46-1.61,1.57,1.57,0,0,1-1.06-1.56l.42-7a2.36,2.36,0,0,0-2.22-2.5l-6.45-.38a2.38,2.38,0,0,0-2.51,2.22l-.41,7a1.54,1.54,0,0,1-1.21,1.4,23.24,23.24,0,0,0-3.62,1.19,1.51,1.51,0,0,1-1.76-.41l-4.51-5.46a2.39,2.39,0,0,0-3.34-.32l-5,4.12a2.37,2.37,0,0,0-.31,3.33l4.56,5.52A1.4,1.4,0,0,1,232,106a23.87,23.87,0,0,0-2.52,4.93,1.49,1.49,0,0,1-1.47,1l-7.09-.44a2.38,2.38,0,0,0-2.51,2.21l-.4,6.45a2.38,2.38,0,0,0,2.22,2.51l7.07.44a1.5,1.5,0,0,1,1.36,1.18,23,23,0,0,0,1.92,5.24,1.46,1.46,0,0,1-.27,1.73l-5.16,4.92a2.37,2.37,0,0,0-.08,3.34l4.46,4.68a2.37,2.37,0,0,0,3.34.08l5.13-4.89a1.52,1.52,0,0,1,1.8-.2,23.24,23.24,0,0,0,3.46,1.62,1.56,1.56,0,0,1,1,1.56l-.41,7a2.36,2.36,0,0,0,2.22,2.5l6.45.38a2.36,2.36,0,0,0,2.5-2.22l.42-7a1.55,1.55,0,0,1,1.21-1.41,22.2,22.2,0,0,0,3.62-1.18,1.51,1.51,0,0,1,1.76.41l4.51,5.46a2.38,2.38,0,0,0,3.33.32l5-4.12a2.37,2.37,0,0,0,.32-3.33l-4.56-5.53a1.41,1.41,0,0,1-.07-1.68,23.11,23.11,0,0,0,2.53-4.92,1.47,1.47,0,0,1,1.47-1l7.09.44a2.38,2.38,0,0,0,2.51-2.22l.4-6.44A2.38,2.38,0,0,0,282.41,115.3Z"/><circle class="cls-6" cx="251.34" cy="118.98" r="10.43"/><path class="cls-5" d="M176.53,189.21a4.22,4.22,0,0,0-.33.8c-.86,2.82.84,6.43,1.32,9.2a88.16,88.16,0,0,0,3.14,12.92c2.87,8.6,8.12,17.88,16.17,22.63a10.6,10.6,0,0,0,8.72,1.28,9.21,9.21,0,0,0,5.34-5.45c1.4-3.68,1.26-7.41-2.19-9.74-5.28-3.57-8.27-6.46-11.36-12.31a76.18,76.18,0,0,1-5.84-12.89,27.34,27.34,0,0,0-2.68-6.74,7.35,7.35,0,0,0-4.36-3.36A7.89,7.89,0,0,0,176.53,189.21Z"/><path class="cls-7" d="M140.43,203.22c-5.52-13-13.78-25.85-24-35.66a53.09,53.09,0,0,0-11.31-8.46c-1.88-1-10.69-5.83-12.65-4.14a1.24,1.24,0,0,0-.32.57,28.71,28.71,0,0,0-1.33,11.31c.29,4.61,1.07,11.07,3.51,15.06,0,0-4.83-7.65-7.85-3.82s-4.82,31.17,39.63,41C126.15,219.11,148.48,224.14,140.43,203.22Z"/><path class="cls-5" d="M182,242.7l-1.39,24s4.67,1.36,2.41,6.11c-1,2.21-4.45,2.68-6.57,2.89a30.9,30.9,0,0,1-10.53-.87c-2.58-.65-5.29-1.61-7.12-3.64s-1.89-5.27-1.41-7.9c.44-2.41,1.13-4.78,1.59-7.19s.53-4.78.81-7.19.92-5,3.36-5.87c2.07-.73,8.24.46,10.31-.27C174.11,242.49,182,243.26,182,242.7Z"/><path class="cls-5" d="M178.11,254.34l-1.39,24s4.67,1.36,2.41,6.11c-1,2.21-4.44,2.67-6.57,2.88a30.65,30.65,0,0,1-10.53-.86c-2.58-.66-5.29-1.61-7.12-3.65s-1.89-5.27-1.41-7.89c.44-2.42,1.13-4.79,1.59-7.2s.54-4.77.81-7.18.92-5,3.37-5.87c2.06-.74,8.23.46,10.3-.28C170.23,254.12,178.08,254.9,178.11,254.34Z"/><path class="cls-8" d="M195.67,191.32l-58.35-.14a40,40,0,0,1,11.22-11.86l36,.09A39.71,39.71,0,0,1,195.67,191.32Z"/><path class="cls-6" d="M185,181.09l-35.82-3.4a31.13,31.13,0,0,1,35.82,3.4Z"/><path class="cls-8" d="M203.19,212a260.6,260.6,0,0,1-35.38,2.89,262,262,0,0,1-37.15-2.16,50,50,0,0,1,2.57-11.92,295.26,295.26,0,0,1,67.15-.67C201,201.83,201.61,203.75,203.19,212Z"/><path class="cls-6" d="M200.38,200.14l-67.15.67a47,47,0,0,1,4.31-9.2l58.35-.58A46.79,46.79,0,0,1,200.38,200.14Z"/><path class="cls-8" d="M203.42,221.8a52.29,52.29,0,0,1-2.19,11.91l-68.18.68a51.78,51.78,0,0,1-2.42-11.86Z"/><path class="cls-6" d="M146,254.2l42.66-.42a31.5,31.5,0,0,1-42.66.42Z"/><path class="cls-6" d="M201.23,233.71a48.59,48.59,0,0,1-3.33,8.08l-61.35.61a48,48,0,0,1-3.5-8Z"/><path class="cls-6" d="M203.54,217.64c0,1.4,0,2.79-.12,4.16-10.72-1-22.49-1.56-35.18-1.47a363,363,0,0,0-37.61,2.2c-.06-.62-.11-1.32-.15-2.07s0-1.39-.06-2.09a52.53,52.53,0,0,1,.24-5.64l72.53-.73A55.08,55.08,0,0,1,203.54,217.64Z"/><path class="cls-8" d="M197.9,241.79a42.24,42.24,0,0,1-9.23,12L146,254.2a41.84,41.84,0,0,1-9.46-11.8Z"/><path class="cls-5" d="M198.41,195.67l-.76,42s-52.32,4.22-60.37,11.7l1.34-40.63S177.14,196.25,198.41,195.67Z"/><polygon class="cls-5" points="198.3 200.35 201.09 198.96 200.77 202.57 197.65 237.65 198.3 200.35"/><polygon class="cls-5" points="202.95 201.98 200.77 202.57 197.65 237.65 202.95 201.98"/><polygon class="cls-5" points="204.23 206.4 202.25 206.63 197.65 237.65 204.23 206.4"/><path class="cls-5" d="M162.43,192.24a4.41,4.41,0,0,0-.47.74c-1.35,2.61-.33,6.47-.36,9.28a88.07,88.07,0,0,0,.76,13.28c1.27,9,4.76,19,11.82,25.17a10.61,10.61,0,0,0,8.36,2.83,9.23,9.23,0,0,0,6.23-4.4c2-3.37,2.57-7.06-.4-10-4.55-4.46-7-7.85-9-14.16A75.94,75.94,0,0,1,176,201.28a27.21,27.21,0,0,0-1.43-7.11,7.39,7.39,0,0,0-3.68-4.1A7.9,7.9,0,0,0,162.43,192.24Z"/><path class="cls-7" d="M137.18,213.19c-5.52-13-13.78-25.85-24-35.66a53.09,53.09,0,0,0-11.31-8.46c-1.88-1-10.68-5.82-12.65-4.14a1.38,1.38,0,0,0-.32.58,28.85,28.85,0,0,0-1.33,11.31c.29,4.6,1.07,11.06,3.51,15.05,0,0-4.83-7.64-7.84-3.82s-4.83,31.17,39.62,41C122.9,229.08,145.23,234.11,137.18,213.19Z"/><path class="cls-6" d="M169.77,185.26l5.66-1.07a39.24,39.24,0,0,0,31.3-45.83l-2.46-13a42.35,42.35,0,0,0-51.06-33.43h0a44.64,44.64,0,0,0-33.9,51.78l1.54,8.17A41.88,41.88,0,0,0,169.77,185.26Z"/><path class="cls-9" d="M150.38,92.66c2.38.91,4.86,1.54,7.3,2.28.7.19,1.38.4,2,.62l.84.29c.59.2,1.15.41,1.72.66q.38.15.75.33c.27.11.54.23.81.37a23.59,23.59,0,0,1,2.71,1.61,31.94,31.94,0,0,1,8.8,9.64c3.11,5,10,6.84,15.58,5.75a32.53,32.53,0,0,0,7.88-3.09,42.35,42.35,0,0,0-45.6-19.21C152.26,92.13,151.31,92.37,150.38,92.66Z"/><path class="cls-6" d="M166.55,98.82a23.59,23.59,0,0,0-2.71-1.61c-.27-.14-.54-.26-.81-.37s-.5-.23-.75-.33c-.57-.25-1.13-.46-1.72-.66l-.84-.29c-.66-.22-1.34-.43-2-.62"/><path class="cls-6" d="M145.82,87.86h17.48a0,0,0,0,1,0,0V89a3.56,3.56,0,0,1-3.56,3.56H149.38A3.56,3.56,0,0,1,145.82,89V87.86A0,0,0,0,1,145.82,87.86Z" transform="translate(323.14 150.23) rotate(169.33)"/><path class="cls-6" d="M157.26,87.3s-2.63-10.33-8.43-13c0,0,4.59,13.72,2.14,14.18Z"/><circle class="cls-10" cx="147.48" cy="69.94" r="6.4"/><circle class="cls-11" cx="147.48" cy="69.94" r="4.53"/><circle class="cls-12" cx="191.67" cy="136.5" r="8.44"/><circle class="cls-4" cx="183.71" cy="138.1" r="17.29"/><line class="cls-4" x1="205.55" y1="132.19" x2="200.7" y2="134.89"/></svg>