<svg id="Layer_1" data-name="Layer 1" xmlns="http://www.w3.org/2000/svg" viewBox="0 0 351.16 293.04"><defs><style>.cls-1,.cls-2,.cls-5{fill:#c4cbe0;}.cls-1{opacity:0.25;}.cls-3,.cls-8{fill:#fff;}.cls-4{fill:none;}.cls-12,.cls-4,.cls-5,.cls-6,.cls-7,.cls-8,.cls-9{stroke:#3e6be0;stroke-linecap:round;stroke-linejoin:round;}.cls-6,.cls-7{fill:#3e6be0;}.cls-6{opacity:0.4;}.cls-9{fill:#cad1e6;}.cls-10{fill:#ffc4c4;}.cls-11{fill:#ff6766;}.cls-12{fill:#3e6be6;}</style></defs><path class="cls-1" d="M351.4,257.2A175.11,175.11,0,0,1,349,286.45H318.89A145,145,0,1,0,31.8,257.2a146,146,0,0,0,2.95,29.25H4.69A174.59,174.59,0,1,1,351.4,257.2Z"/><path class="cls-2" d="M321.84,257.2a146,146,0,0,1-2.95,29.25H34.75A145,145,0,1,1,321.84,257.2Z"/><path class="cls-3" d="M264.39,281.27a15.08,15.08,0,0,1-1.06,5.6H147.55a18.46,18.46,0,0,1-1.78-8,18.73,18.73,0,0,1,18.73-18.73,17,17,0,0,1,1.75.09,25.2,25.2,0,0,1,50-6.23A16.34,16.34,0,0,1,243,266.67c0,.18,0,.37,0,.55a15,15,0,0,1,6.11-1.28A15.33,15.33,0,0,1,264.39,281.27Z"/><path class="cls-3" d="M138.44,219.83c0,5.83-12.37,3.41-16.48,3.41H67.31a11.26,11.26,0,0,1-1.08-4.85A11.4,11.4,0,0,1,77.63,207a9.58,9.58,0,0,1,1.07,0,14.59,14.59,0,0,1-.11-1.76,15.34,15.34,0,0,1,30.55-2,10,10,0,0,1,16.26,7.69c0,.11,0,.22,0,.33a9.32,9.32,0,0,1,13,8.56Z"/><circle class="cls-4" cx="142.51" cy="265.72" r="2.95"/><circle class="cls-4" cx="285.09" cy="264.24" r="3.37"/><circle class="cls-4" cx="166.72" cy="191.32" r="2.42"/><circle class="cls-4" cx="62.15" cy="106.98" r="3"/><circle class="cls-4" cx="85.12" cy="57.72" r="2"/><circle class="cls-4" cx="232.57" cy="48.07" r="2.33"/><circle class="cls-4" cx="180.42" cy="258.91" r="1.08"/><line class="cls-4" x1="36.46" y1="287.24" x2="76.21" y2="287.24"/><line class="cls-4" x1="91.44" y1="287.27" x2="208.61" y2="287.27"/><line class="cls-4" x1="224.68" y1="287.39" x2="247.95" y2="287.39"/><line class="cls-4" x1="263.55" y1="287.12" x2="283" y2="287.12"/><line class="cls-4" x1="298.98" y1="287.42" x2="318.44" y2="287.42"/><line class="cls-4" x1="55.48" y1="250.02" x2="62.72" y2="250.02"/><line class="cls-4" x1="59.1" y1="246.4" x2="59.1" y2="253.64"/><line class="cls-4" x1="46.63" y1="182.31" x2="53.87" y2="182.31"/><line class="cls-4" x1="50.25" y1="178.69" x2="50.25" y2="185.93"/><line class="cls-4" x1="249.15" y1="167.38" x2="256.39" y2="167.38"/><line class="cls-4" x1="252.77" y1="163.76" x2="252.77" y2="171"/><path class="cls-5" d="M202.43,252.77l25.9,19.7s-2.5,5.39,4.3,7.51,20.4-14.71,18.64-23.63-26.55-14.47-26.55-14.47Z"/><path class="cls-5" d="M213.19,250.3c2,0,5.57,13.12,5.95,15,.9,4.42,1.37,10.4-1.95,13.91-3.89,4.12-9.91,5.61-15.28,6.58-2.48.44-5.81,1.42-8.32,1.14-2-.22-1.57.25-2.68-1.66a9.27,9.27,0,0,1-.6-7.17c.26-.7,4.44-5.46,4.85-4.51L184.92,250Z"/><path class="cls-5" d="M186.18,202.93c-.68-4.54-5.35-7.18-8.57-10.56a121.28,121.28,0,0,0-13.32-12.22c-9.75-7.53-22.7-14-35.38-13.32-4.12.23-8.36,1.84-10.83,5.15a12.55,12.55,0,0,0-1.9,10.18c2.3,10.06,15.4,8.91,23,11.92,11.29,4.48,20.58,12.91,32.12,16.9C178,213.27,187.59,212.29,186.18,202.93Z"/><path class="cls-6" d="M225.16,200.41c6.63-15.46,16.56-30.7,28.8-42.35A63.83,63.83,0,0,1,267.56,148c2.26-1.21,12.85-6.92,15.2-4.91a1.45,1.45,0,0,1,.39.68,33.78,33.78,0,0,1,1.6,13.43c-.35,5.47-1.28,13.15-4.22,17.88,0,0,5.8-9.08,9.43-4.54s5.81,37-47.63,48.74C242.33,219.29,215.48,225.26,225.16,200.41Z"/><path class="cls-7" d="M227.4,196.29l-53.09,8.76a36.87,36.87,0,0,1,8.39-12.49l32.74-5.4A36.75,36.75,0,0,1,227.4,196.29Z"/><path class="cls-8" d="M215.44,187.16l-32.74,5.4a28.66,28.66,0,0,1,32.74-5.4Z"/><path class="cls-7" d="M237,214.38l-66,10.89a46.77,46.77,0,0,1,.67-11.23L232.78,204A47.12,47.12,0,0,1,237,214.38Z"/><path class="cls-8" d="M232.78,204,171.68,214a42.65,42.65,0,0,1,2.63-9l53.09-8.76A42.63,42.63,0,0,1,232.78,204Z"/><path class="cls-7" d="M238.61,223.28a48.1,48.1,0,0,1-.32,11.16l-62,10.23a47.8,47.8,0,0,1-3.89-10.46Z"/><path class="cls-8" d="M190.85,260.91l38.82-6.41a29.07,29.07,0,0,1-38.82,6.41Z"/><path class="cls-8" d="M238.29,234.44a43.57,43.57,0,0,1-1.9,7.84l-55.83,9.21a44.25,44.25,0,0,1-4.31-6.82Z"/><path class="cls-8" d="M238.13,219.47c.21,1.28.37,2.54.48,3.81l-66.25,10.93c-.3-1.24-.56-2.49-.77-3.77a51.43,51.43,0,0,1-.58-5.17l66-10.89A51.58,51.58,0,0,1,238.13,219.47Z"/><path class="cls-7" d="M236.39,242.28a38.63,38.63,0,0,1-6.72,12.22l-38.82,6.41a39,39,0,0,1-10.29-9.42Z"/><path class="cls-6" d="M229.06,212.26c6.64-15.46,16.57-30.7,28.81-42.35a63.19,63.19,0,0,1,13.59-10c2.26-1.22,12.85-6.92,15.21-4.92a1.54,1.54,0,0,1,.39.68,34,34,0,0,1,1.6,13.44c-.36,5.46-1.29,13.14-4.22,17.87,0,0,5.8-9.07,9.43-4.53s5.8,37-47.64,48.73C246.23,231.13,219.39,237.1,229.06,212.26Z"/><path class="cls-5" d="M220.58,194a5,5,0,0,1,1-.41c3.36-1.05,7.69.94,11,1.49A103.93,103.93,0,0,1,248,198.66c10.3,3.35,21.45,9.53,27.21,19.1,1.87,3.11,2.8,7,1.62,10.42a11,11,0,0,1-6.47,6.44c-4.38,1.71-8.83,1.58-11.65-2.52-4.33-6.27-7.82-9.82-14.84-13.46-5-2.6-10.06-5.22-15.47-6.84a33.05,33.05,0,0,1-8.08-3.14,8.84,8.84,0,0,1-4.07-5.18A9.43,9.43,0,0,1,220.58,194Z"/><path class="cls-8" d="M194.76,196.94l-5.67-1.07A39.24,39.24,0,0,1,157.8,150l2.45-13a42.34,42.34,0,0,1,51.07-33.43h0a44.62,44.62,0,0,1,33.89,51.78l-1.54,8.17A41.88,41.88,0,0,1,194.76,196.94Z"/><path class="cls-9" d="M214.15,104.33c-2.38.92-4.87,1.55-7.31,2.29-.69.19-1.38.4-2,.62l-.83.29c-.59.2-1.16.41-1.73.65l-.74.33a7.49,7.49,0,0,0-.81.38A23.73,23.73,0,0,0,198,110.5a31.91,31.91,0,0,0-8.79,9.64c-3.11,5-10,6.83-15.59,5.75a32.49,32.49,0,0,1-7.87-3.1,42.32,42.32,0,0,1,45.59-19.2C212.27,103.81,213.22,104.05,214.15,104.33Z"/><path class="cls-8" d="M198,110.5a23.73,23.73,0,0,1,2.72-1.61,7.49,7.49,0,0,1,.81-.38l.74-.33c.57-.24,1.14-.45,1.73-.65l.83-.29c.66-.22,1.35-.43,2-.62"/><path class="cls-8" d="M204.8,99.53h10.35a3.56,3.56,0,0,1,3.56,3.56v1.15a0,0,0,0,1,0,0H201.23a0,0,0,0,1,0,0V103.1a3.56,3.56,0,0,1,3.56-3.56Z" transform="translate(22.5 -37.13) rotate(10.67)"/><path class="cls-8" d="M207.26,99s2.63-10.33,8.44-13c0,0-4.59,13.72-2.15,14.19Z"/><circle class="cls-10" cx="217.05" cy="81.62" r="6.4"/><circle class="cls-11" cx="217.05" cy="81.62" r="4.53"/><circle class="cls-12" cx="172.86" cy="152.17" r="8.44"/><circle class="cls-4" cx="180.82" cy="149.77" r="17.29"/><line class="cls-4" x1="158.97" y1="143.87" x2="163.82" y2="146.57"/><path class="cls-5" d="M59.1,137.16l.78,4.38a.07.07,0,0,0,.07.06l39.43,5a.07.07,0,0,0,0-.14l-40.22-9.39A.07.07,0,0,0,59.1,137.16Z"/><path class="cls-5" d="M62,122.55,61.56,128l44.07,19.61s0,0,0,0Z"/><path class="cls-7" d="M62.17,122.41l8.94-4.13a1.61,1.61,0,0,1,1.74.25l32.88,28.93c.06.06,0,.17-.09.12L62.15,122.92A.29.29,0,0,1,62.17,122.41Z"/><path class="cls-7" d="M55.38,125.85l-8.83,7.6a.39.39,0,0,0,.16.68l58.8,13.63a.07.07,0,0,0,0-.14L56.41,125.7A1,1,0,0,0,55.38,125.85Z"/></svg>