<svg id="Layer_1" data-name="Layer 1" xmlns="http://www.w3.org/2000/svg" viewBox="0 0 349.16 293.04"><defs><style>.cls-1{fill:none;}.cls-1,.cls-11,.cls-12,.cls-2,.cls-6,.cls-7,.cls-8{stroke:#3e6be0;stroke-linecap:round;stroke-linejoin:round;}.cls-2,.cls-5{fill:#fff;}.cls-12,.cls-3,.cls-4{fill:#c4cbe0;}.cls-3{opacity:0.25;}.cls-6,.cls-8{fill:#3e6be6;}.cls-6{opacity:0.4;}.cls-7{fill:#cad1e6;}.cls-9{fill:#ffc4c4;}.cls-10{fill:#ff6766;}.cls-11{fill:#3e6be0;}</style></defs><line class="cls-1" x1="32.67" y1="289.29" x2="72.43" y2="289.29"/><line class="cls-1" x1="87.65" y1="289.32" x2="204.82" y2="289.32"/><line class="cls-1" x1="220.89" y1="289.44" x2="244.16" y2="289.44"/><line class="cls-1" x1="259.76" y1="289.17" x2="279.22" y2="289.17"/><line class="cls-1" x1="295.19" y1="289.47" x2="314.65" y2="289.47"/><line class="cls-1" x1="62.29" y1="281.26" x2="150.49" y2="281.26"/><line class="cls-1" x1="162.59" y1="281.33" x2="180.1" y2="281.33"/><line class="cls-1" x1="191.85" y1="281.17" x2="206.49" y2="281.17"/><line class="cls-1" x1="218.52" y1="281.35" x2="233.16" y2="281.35"/><path class="cls-2" d="M193.89,277.33a7.21,7.21,0,0,1-.8,3.3H105.94a8.93,8.93,0,0,1-1.34-4.69c0-6.1,6.32-11,14.1-11,.44,0,.88,0,1.32.05a10.76,10.76,0,0,1-.13-1.71c0-8.2,8.49-14.86,19-14.86,9.63,0,17.58,5.62,18.8,12.89a14.47,14.47,0,0,1,7.8-2.18c6.79,0,12.3,4.31,12.3,9.63,0,.11,0,.22,0,.33a14,14,0,0,1,4.6-.76C188.73,268.29,193.89,272.34,193.89,277.33Z"/><path class="cls-2" d="M101.22,251.9c0,4.07-11,2.38-14.7,2.38H37.77a6.53,6.53,0,0,1-1-3.39c0-4.4,4.55-8,10.17-8,.32,0,.63,0,1,0a8.28,8.28,0,0,1-.09-1.23C47.84,235.81,54,231,61.52,231c6.95,0,12.69,4.05,13.57,9.3a10.43,10.43,0,0,1,5.62-1.57c4.9,0,8.88,3.11,8.88,6.95a1.85,1.85,0,0,1,0,.23,10.23,10.23,0,0,1,3.32-.55C97.5,245.37,101.22,248.3,101.22,251.9Z"/><ellipse class="cls-1" cx="96.82" cy="283.27" rx="2.76" ry="2.16"/><ellipse class="cls-1" cx="207.74" cy="266.94" rx="2.66" ry="2.08"/><line class="cls-1" x1="64.65" y1="270.7" x2="71.11" y2="270.7"/><line class="cls-1" x1="67.88" y1="268.17" x2="67.88" y2="273.23"/><line class="cls-1" x1="17.21" y1="201.33" x2="24.45" y2="201.33"/><line class="cls-1" x1="20.83" y1="197.71" x2="20.83" y2="204.95"/><line class="cls-1" x1="182.42" y1="190.85" x2="187.87" y2="190.85"/><line class="cls-1" x1="185.14" y1="188.71" x2="185.14" y2="192.98"/><path class="cls-3" d="M349.13,258.26a175.11,175.11,0,0,1-2.45,29.25H316.62A145,145,0,1,0,29.53,258.26a146,146,0,0,0,2.95,29.25H2.42a174.59,174.59,0,1,1,346.71-29.25Z"/><path class="cls-4" d="M319.57,258.26a146,146,0,0,1-2.95,29.25H32.48a145,145,0,1,1,287.09-29.25Z"/><path class="cls-5" d="M262.12,281.86a15.08,15.08,0,0,1-1.06,5.6H145.28a18.46,18.46,0,0,1-1.78-8,18.73,18.73,0,0,1,18.73-18.73,17,17,0,0,1,1.75.09,25.2,25.2,0,0,1,50-6.23,16.34,16.34,0,0,1,26.7,12.63c0,.18,0,.37,0,.55a15,15,0,0,1,6.11-1.28A15.33,15.33,0,0,1,262.12,281.86Z"/><path class="cls-5" d="M136.18,220.88c0,5.83-12.38,3.41-16.49,3.41H65A11.25,11.25,0,0,1,64,219.45,11.4,11.4,0,0,1,75.36,208a9.59,9.59,0,0,1,1.07.06,14.72,14.72,0,0,1-.11-1.76,15.34,15.34,0,0,1,30.55-2A10,10,0,0,1,123.13,212c0,.11,0,.23,0,.34a9.08,9.08,0,0,1,3.72-.78A9.34,9.34,0,0,1,136.18,220.88Z"/><circle class="cls-1" cx="280.51" cy="264.24" r="3.53"/><line class="cls-1" x1="64" y1="159.05" x2="71.24" y2="159.05"/><line class="cls-1" x1="67.62" y1="155.43" x2="67.62" y2="162.67"/><line class="cls-1" x1="246.88" y1="135.19" x2="254.12" y2="135.19"/><line class="cls-1" x1="250.5" y1="131.57" x2="250.5" y2="138.81"/><ellipse class="cls-1" cx="172.09" cy="215.6" rx="33.27" ry="40.31"/><path class="cls-6" d="M176.6,209.78A142.94,142.94,0,0,1,205,166.48a68.36,68.36,0,0,1,31.3-18.09,1.77,1.77,0,0,1,1.26,0,1.81,1.81,0,0,1,.74,1.28C241,161,239,171.57,235,182.26a20.92,20.92,0,0,0,3.4-3.57c1.15-1.25,2.74-2.35,4.42-2.12a4.45,4.45,0,0,1,3.28,2.93c3.42,8.75-1.69,20-7,26.83-7.7,9.84-19.29,16-30.92,19.94A128.17,128.17,0,0,1,194.76,230S166.37,236.38,176.6,209.78Z"/><path class="cls-6" d="M167.76,211.05c-7.4-17.46-18.48-34.67-32.13-47.82a71,71,0,0,0-15.17-11.35c-2.52-1.37-14.33-7.81-17-5.55a1.83,1.83,0,0,0-.43.77,38.78,38.78,0,0,0-1.79,15.17c.4,6.17,1.44,14.84,4.71,20.18,0,0-6.47-10.25-10.52-5.12s-6.47,41.81,53.14,55C148.61,232.35,178.55,239.1,167.76,211.05Z"/><path class="cls-7" d="M172,252.07c1.59.63.88,13,.66,14.77a18.55,18.55,0,0,1-2.89,8.55,10.31,10.31,0,0,1-7.53,4.18,35.85,35.85,0,0,1-10.69-.53c-2-.39-4.16-.73-5.86-1.87-3.48-2.32-1.89-7,1-9.06.34-.24,3.94-2.27,4-1.66L149,243Z"/><path class="cls-7" d="M173.63,251.94c-1.6.63-.88,13-.67,14.77.51,4.08,1.8,9.37,5.5,11.34,4,2.14,10.19,1.82,14.53,1.28,4.54-.57,11.24-2.88,8.06-8.62a8.84,8.84,0,0,0-2.68-3c-.4-.27-3.42-1.8-3.45-1.37l1.77-23.48Z"/><path class="cls-7" d="M190.46,172.24a7.62,7.62,0,0,1,1.17,0c3.91.5,7.4,4.57,10.52,6.67a119.24,119.24,0,0,1,14.09,10.93c8.94,8.24,17.41,19.76,18.8,32.22.46,4-.41,8.43-3.22,11.38a12.4,12.4,0,0,1-9.6,3.53c-5.27-.31-9.75-2.53-10.71-8-1.47-8.42-3.37-13.67-8.82-20.67-3.9-5-7.82-10-12.58-14.21-2.4-2.12-5-4.29-6.76-7a9.9,9.9,0,0,1-1.73-7.18C182.36,176.18,186.56,172.49,190.46,172.24Z"/><path class="cls-7" d="M150.69,176.84a6.17,6.17,0,0,0-1.13.35c-3.64,1.51-5.93,6.35-8.38,9.2a117.79,117.79,0,0,0-10.72,14.26c-6.44,10.31-11.58,23.65-9.64,36,.63,4,2.63,8,6.11,10.13a12.33,12.33,0,0,0,10.2.87c5-1.68,8.74-5,8.21-10.55-.8-8.51-.35-14.08,3.06-22.26,2.44-5.85,4.9-11.74,8.38-17,1.76-2.68,3.69-5.46,4.68-8.53a9.9,9.9,0,0,0-.22-7.38C159.53,178.51,154.51,176.06,150.69,176.84Z"/><path class="cls-8" d="M198.48,191.58H145.39a36.26,36.26,0,0,1,10.18-10.81H188.3A36.26,36.26,0,0,1,198.48,191.58Z"/><path class="cls-2" d="M188.3,180.77H155.57a28.31,28.31,0,0,1,32.73,0Z"/><path class="cls-8" d="M204.94,210.74h-66a46.32,46.32,0,0,1,2.45-10.83h61.11A46.32,46.32,0,0,1,204.94,210.74Z"/><path class="cls-2" d="M202.49,199.91H141.38a43,43,0,0,1,4-8.33h53.09A43,43,0,0,1,202.49,199.91Z"/><path class="cls-8" d="M205.05,219.65a46.74,46.74,0,0,1-2.1,10.81h-62a46.74,46.74,0,0,1-2.1-10.81Z"/><path class="cls-2" d="M152.53,248.61h38.81a28.66,28.66,0,0,1-38.81,0Z"/><path class="cls-2" d="M203,230.46a44.3,44.3,0,0,1-3.1,7.33H144a44.3,44.3,0,0,1-3.1-7.33Z"/><path class="cls-2" d="M205.2,215.86c0,1.28,0,2.54-.15,3.79H138.82c-.1-1.25-.15-2.51-.15-3.79a50.72,50.72,0,0,1,.26-5.12h66A50.72,50.72,0,0,1,205.2,215.86Z"/><path class="cls-8" d="M199.85,237.79a38.3,38.3,0,0,1-8.51,10.82H152.53A38.3,38.3,0,0,1,144,237.79Z"/><path class="cls-2" d="M173.63,182.57h-6.24a42.48,42.48,0,0,1-42.48-42.48V125.76A45.83,45.83,0,0,1,172.52,80h0A48.32,48.32,0,0,1,219,128.24v9A45.34,45.34,0,0,1,173.63,182.57Z"/><path class="cls-7" d="M212.12,103.48c-5.23-.33-10.73-.9-15.71,0-5.85,1-11,4.19-15.45,8.07-4.78,4.21-12.47,4-17.94,1.07-5.25-2.77-8.55-8.08-14-10.81a36.16,36.16,0,0,0-14.78-3.69A45.82,45.82,0,0,1,172.53,80a48.17,48.17,0,0,1,32.93,14.79A46.78,46.78,0,0,1,212.12,103.48Z"/><path class="cls-2" d="M164.86,77.69h11.79a3.56,3.56,0,0,1,3.56,3.56v1.53a0,0,0,0,1,0,0H161.29a0,0,0,0,1,0,0V81.25A3.56,3.56,0,0,1,164.86,77.69Z"/><path class="cls-2" d="M167.29,77.69s.72-11.51,6.36-15.51c0,0-2.13,15.51.56,15.51Z"/><circle class="cls-9" cx="174.21" cy="57.27" r="6.92"/><circle class="cls-10" cx="174.21" cy="57.27" r="4.9"/><circle class="cls-8" cx="150.18" cy="138.06" r="9.13"/><circle class="cls-8" cx="193.69" cy="138.06" r="9.13"/><circle class="cls-1" cx="150.18" cy="138.06" r="18.72"/><circle class="cls-1" cx="193.69" cy="138.06" r="18.72"/><line class="cls-1" x1="168.9" y1="138.06" x2="174.97" y2="138.06"/><line class="cls-1" x1="131.47" y1="138.06" x2="125.03" y2="129.63"/><line class="cls-1" x1="212.4" y1="138.06" x2="218.61" y2="129.63"/><rect class="cls-11" x="113.58" y="183.78" width="43.12" height="5.62" rx="0.97"/><rect class="cls-2" x="110.02" y="182.22" width="3.36" height="8.74" rx="0.48"/><rect class="cls-2" x="115.84" y="189.5" width="38.61" height="67.01"/><rect class="cls-2" x="107.33" y="185.42" width="2.74" height="2.33" rx="0.48"/><rect class="cls-2" x="160.33" y="185.42" width="2.74" height="2.33" rx="0.48"/><rect class="cls-2" x="156.99" y="182.22" width="3.36" height="8.74" rx="0.48" transform="translate(317.34 373.18) rotate(-180)"/><rect class="cls-11" x="113.58" y="256.59" width="43.12" height="5.62" rx="0.97"/><rect class="cls-2" x="110.02" y="255.03" width="3.36" height="8.74" rx="0.48"/><rect class="cls-2" x="156.99" y="255.03" width="3.36" height="8.74" rx="0.48" transform="translate(317.34 518.8) rotate(-180)"/><ellipse class="cls-12" cx="134.05" cy="183.26" rx="6.79" ry="5.91"/><rect class="cls-12" x="215.31" y="165.35" width="10.87" height="115.05" rx="3.58"/><rect class="cls-12" x="205.8" y="165.34" width="29.43" height="7.45" rx="3.44"/><rect class="cls-12" x="205.8" y="173.3" width="29.43" height="7.45" rx="3.44"/><rect class="cls-12" x="205.8" y="180.85" width="29.43" height="7.45" rx="3.44"/><rect class="cls-2" x="107.34" y="258.23" width="2.74" height="2.33" rx="0.48"/><rect class="cls-2" x="160.34" y="258.23" width="2.74" height="2.33" rx="0.48"/><path class="cls-1" d="M166.73,163.77a7.51,7.51,0,0,1,10.25-.24"/></svg>