<svg id="Layer_1" data-name="Layer 1" xmlns="http://www.w3.org/2000/svg" viewBox="0 0 351.16 293.04"><defs><style>.cls-1,.cls-2,.cls-7{fill:#c4cbe0;}.cls-1{opacity:0.25;}.cls-3,.cls-6{fill:#fff;}.cls-4{fill:none;}.cls-10,.cls-4,.cls-5,.cls-6,.cls-7{stroke:#3e6be0;stroke-linecap:round;stroke-linejoin:round;}.cls-10,.cls-5{fill:#3e6be0;}.cls-8{fill:#ffc4c4;}.cls-9{fill:#ff6766;}.cls-10{opacity:0.3;}</style></defs><path class="cls-1" d="M352.07,257.65a175.11,175.11,0,0,1-2.45,29.25H319.56A145,145,0,1,0,32.47,257.65a146,146,0,0,0,3,29.25H5.36a174.59,174.59,0,1,1,346.71-29.25Z"/><path class="cls-2" d="M322.51,257.65a146,146,0,0,1-2.95,29.25H35.42a145,145,0,1,1,287.09-29.25Z"/><path class="cls-3" d="M265.06,281.72a15.08,15.08,0,0,1-1.06,5.6H148.22a18.46,18.46,0,0,1-1.78-8,18.73,18.73,0,0,1,18.73-18.73,17,17,0,0,1,1.75.09,25.2,25.2,0,0,1,50-6.23,16.34,16.34,0,0,1,26.7,12.63c0,.18,0,.37,0,.55a15,15,0,0,1,6.11-1.28A15.33,15.33,0,0,1,265.06,281.72Z"/><path class="cls-3" d="M139.12,220.27c0,5.84-12.38,3.41-16.49,3.41H68a11.18,11.18,0,0,1-1.08-4.84,11.41,11.41,0,0,1,11.4-11.41,9.59,9.59,0,0,1,1.07.06,14.59,14.59,0,0,1-.11-1.76,15.34,15.34,0,0,1,30.55-2,9.95,9.95,0,0,1,16.26,7.69c0,.1,0,.22,0,.33a9.08,9.08,0,0,1,3.72-.78A9.34,9.34,0,0,1,139.12,220.27Z"/><circle class="cls-4" cx="143.18" cy="266.16" r="2.95"/><circle class="cls-4" cx="285.76" cy="264.69" r="3.37"/><circle class="cls-4" cx="127.39" cy="191.77" r="2.42"/><circle class="cls-4" cx="62.82" cy="107.43" r="3"/><circle class="cls-4" cx="85.79" cy="58.17" r="2"/><circle class="cls-4" cx="233.25" cy="48.51" r="2.33"/><circle class="cls-4" cx="181.09" cy="259.36" r="1.08"/><line class="cls-4" x1="37.13" y1="287.69" x2="76.89" y2="287.69"/><line class="cls-4" x1="92.11" y1="287.72" x2="209.28" y2="287.72"/><line class="cls-4" x1="225.35" y1="287.84" x2="248.62" y2="287.84"/><line class="cls-4" x1="264.22" y1="287.57" x2="283.68" y2="287.57"/><line class="cls-4" x1="299.65" y1="287.87" x2="319.11" y2="287.87"/><line class="cls-4" x1="98.11" y1="247.18" x2="105.35" y2="247.18"/><line class="cls-4" x1="101.73" y1="243.56" x2="101.73" y2="250.8"/><line class="cls-4" x1="47.3" y1="182.75" x2="54.54" y2="182.75"/><line class="cls-4" x1="50.92" y1="179.13" x2="50.92" y2="186.37"/><line class="cls-4" x1="249.82" y1="167.83" x2="257.06" y2="167.83"/><line class="cls-4" x1="253.44" y1="164.21" x2="253.44" y2="171.45"/><path class="cls-5" d="M114.31,224.28,185.65,233l5.67,29.71a1.82,1.82,0,0,1-2.13,2.1l-77.52-13.66a5.9,5.9,0,0,1-4.78-4.46c-1-4.28-1.78-11.57,1.11-18.75A6,6,0,0,1,114.31,224.28Z"/><path class="cls-5" d="M176.84,248.05h0a17.05,17.05,0,0,0,21.24,16l43.52-10.48-.79-30.19-49.52,7.28A17,17,0,0,0,176.84,248.05Z"/><path class="cls-6" d="M241,227.63l-48.5,8.44a10.84,10.84,0,0,0-8.95,11.48h0a10.85,10.85,0,0,0,13,9.81l45.18-9.4Z"/><path class="cls-5" d="M110.31,224.4l57.77-11.11h0L241,222.85s0,0,0,0l-57.44,11.07-73.21-9.47S110.27,224.41,110.31,224.4Z"/><path class="cls-7" d="M163.42,236.54l9.37.85a1.35,1.35,0,0,1,1.22,1.37l-.29,18.09a1.34,1.34,0,0,1-1.52,1.31l-9.67-1.25a1.35,1.35,0,0,1-1.17-1.38l.59-17.7A1.35,1.35,0,0,1,163.42,236.54Z"/><path class="cls-7" d="M195.52,164.58a4.39,4.39,0,0,1,.87.27c2.84,1.17,4.62,4.94,6.53,7.16a92,92,0,0,1,8.34,11.11c5,8,9,18.41,7.51,28-.49,3.13-2,6.25-4.76,7.89a9.66,9.66,0,0,1-7.94.68c-3.89-1.31-6.8-3.9-6.39-8.23.62-6.62.27-10.95-2.39-17.33a78.8,78.8,0,0,0-6.52-13.26,28.37,28.37,0,0,1-3.64-6.63,7.72,7.72,0,0,1,.17-5.75A8.26,8.26,0,0,1,195.52,164.58Z"/><path class="cls-7" d="M164.07,163.27a5.13,5.13,0,0,0-.87.26c-2.84,1.18-4.62,4.95-6.53,7.17a90.89,90.89,0,0,0-8.34,11.1c-5,8-9,18.41-7.51,28.06.49,3.13,2,6.25,4.76,7.88a9.6,9.6,0,0,0,7.93.68c3.9-1.31,6.81-3.9,6.4-8.22-.63-6.62-.27-11,2.38-17.33a79.62,79.62,0,0,1,6.53-13.26,28.78,28.78,0,0,0,3.64-6.63,7.72,7.72,0,0,0-.17-5.75A8.25,8.25,0,0,0,164.07,163.27Z"/><path class="cls-5" d="M197.55,176.75H156.21a28.42,28.42,0,0,1,7.92-8.42h25.49A28.33,28.33,0,0,1,197.55,176.75Z"/><path class="cls-6" d="M189.62,168.33H164.13a22,22,0,0,1,25.49,0Z"/><path class="cls-5" d="M202.57,191.66H151.18a36.5,36.5,0,0,1,1.91-8.42h47.58A36,36,0,0,1,202.57,191.66Z"/><path class="cls-6" d="M200.67,183.24H153.09a32.68,32.68,0,0,1,3.12-6.49h41.34A33.24,33.24,0,0,1,200.67,183.24Z"/><path class="cls-5" d="M202.67,198.61A37.16,37.16,0,0,1,201,207h-48.3a37.16,37.16,0,0,1-1.64-8.42Z"/><path class="cls-6" d="M161.77,221.15H192a22.3,22.3,0,0,1-30.22,0Z"/><path class="cls-6" d="M201,207a34.86,34.86,0,0,1-2.42,5.7H155.15a34,34,0,0,1-2.42-5.7Z"/><path class="cls-6" d="M202.78,195.66c0,1,0,2-.11,3H151.09c-.07-1-.11-2-.11-3,0-1.36.07-2.69.2-4h51.39A37.57,37.57,0,0,1,202.78,195.66Z"/><path class="cls-5" d="M198.61,212.73a29.61,29.61,0,0,1-6.62,8.42H161.77a29.61,29.61,0,0,1-6.62-8.42Z"/><path class="cls-6" d="M174.18,85.4h8.24A3.56,3.56,0,0,1,186,89v.58a0,0,0,0,1,0,0H170.61a0,0,0,0,1,0,0V89a3.56,3.56,0,0,1,3.56-3.56Z"/><path class="cls-6" d="M180.63,170.59h-5.07a34.5,34.5,0,0,1-34.5-34.5V124.44a37.22,37.22,0,0,1,38.67-37.19h0a39.23,39.23,0,0,1,37.72,39.21v7.31A36.82,36.82,0,0,1,180.63,170.59Z"/><path class="cls-6" d="M175.48,85.4s.59-9.35,5.17-12.6c0,0-1.73,12.6.46,12.6Z"/><circle class="cls-8" cx="181.11" cy="68.81" r="5.62"/><circle class="cls-9" cx="181.11" cy="68.81" r="3.98"/><line class="cls-4" x1="199.09" y1="71.96" x2="199.09" y2="116.94"/><line class="cls-4" x1="205.36" y1="86.4" x2="205.36" y2="111.42"/><line class="cls-4" x1="213.33" y1="78.66" x2="213.33" y2="111.96"/><line class="cls-4" x1="220.6" y1="74.44" x2="220.6" y2="103.75"/><path class="cls-10" d="M177.78,197.55a100,100,0,0,1,20.53-29.81,48,48,0,0,1,22.16-12.16,1.21,1.21,0,0,1,.88,0,1.26,1.26,0,0,1,.5.9c1.69,8,.15,15.34-2.82,22.74a14.76,14.76,0,0,0,2.43-2.44,3.75,3.75,0,0,1,3.12-1.41,3.11,3.11,0,0,1,2.25,2.1c2.25,6.17-1.5,14-5.33,18.64-5.54,6.75-13.74,10.85-21.92,13.45a89.58,89.58,0,0,1-9.42,2.39S170.22,216,177.78,197.55Z"/><path class="cls-10" d="M176.6,197.85c-4.91-12.31-12.38-24.51-21.71-33.92a49.67,49.67,0,0,0-10.43-8.16c-1.74-1-9.89-5.69-11.76-4.14a1.24,1.24,0,0,0-.32.53,27.09,27.09,0,0,0-1.48,10.57c.18,4.32.77,10.39,3,14.18,0,0-4.37-7.27-7.28-3.75s-5.17,29.12,36.28,39.29C162.88,212.45,183.7,217.63,176.6,197.85Z"/></svg>