<svg id="Layer_1" data-name="Layer 1" xmlns="http://www.w3.org/2000/svg" xmlns:xlink="http://www.w3.org/1999/xlink" viewBox="0 0 351.16 293.04"><defs><style>.cls-1,.cls-5{fill:none;}.cls-11,.cls-2,.cls-3,.cls-7{fill:#c4cbe0;}.cls-2{opacity:0.25;}.cls-4,.cls-8{fill:#fff;}.cls-11,.cls-13,.cls-16,.cls-5,.cls-6,.cls-7,.cls-8,.cls-9{stroke:#3e6be0;}.cls-13,.cls-16,.cls-5,.cls-6,.cls-7,.cls-8,.cls-9{stroke-linecap:round;stroke-linejoin:round;}.cls-6,.cls-9{fill:#3e6be0;}.cls-9{opacity:0.4;}.cls-10{clip-path:url(#clip-path);}.cls-11{stroke-miterlimit:10;}.cls-12{clip-path:url(#clip-path-2);}.cls-13{fill:#cad1e6;}.cls-14{fill:#ffc4c4;}.cls-15{fill:#ff6766;}.cls-16{fill:#3e6be6;}</style><clipPath id="clip-path"><path class="cls-1" d="M233.57,208.52a20.58,20.58,0,0,1-2.36,9.46c-8.16,12.53-26.12,21.26-47,21.35-26.94-.1-48.72-13.85-48.72-30.81s21.95-30.8,49-30.8S233.57,191.51,233.57,208.52Z"/></clipPath><clipPath id="clip-path-2"><path class="cls-1" d="M231.88,209.68a20.73,20.73,0,0,1-2.76,9.47c-8.76,12.36-27.27,20.47-48.4,19.73-27.25-1.17-48.74-15.95-48.06-33.11s23.43-30.29,50.84-29.22S232.56,192.46,231.88,209.68Z"/></clipPath></defs><path class="cls-2" d="M350.16,256.63a175.11,175.11,0,0,1-2.45,29.25H317.65A145,145,0,1,0,30.56,256.63a146,146,0,0,0,2.95,29.25H3.45a174.59,174.59,0,1,1,346.71-29.25Z"/><path class="cls-3" d="M320.6,255.63a146,146,0,0,1-3,29.25H33.51A145,145,0,1,1,320.6,255.63Z"/><path class="cls-4" d="M263.15,280.24a15.08,15.08,0,0,1-1.06,5.6H146.31a18.46,18.46,0,0,1-1.78-8,18.73,18.73,0,0,1,18.73-18.73,17,17,0,0,1,1.75.09A25.2,25.2,0,0,1,215,253a16.34,16.34,0,0,1,26.7,12.63c0,.18,0,.37,0,.55a15,15,0,0,1,6.11-1.28A15.33,15.33,0,0,1,263.15,280.24Z"/><path class="cls-4" d="M137.2,219.26c0,5.83-12.38,3.41-16.48,3.41H66.07A11.26,11.26,0,0,1,65,217.82a11.39,11.39,0,0,1,11.4-11.4,9.28,9.28,0,0,1,1.06.06,17.14,17.14,0,0,1-.1-1.76,15.34,15.34,0,0,1,30.55-2,10,10,0,0,1,16.26,7.69c0,.11,0,.23,0,.34a9.08,9.08,0,0,1,3.72-.78A9.33,9.33,0,0,1,137.2,219.26Z"/><circle class="cls-5" cx="132.27" cy="264.16" r="3.09"/><circle class="cls-5" cx="281.54" cy="262.62" r="3.53"/><line class="cls-5" x1="96.2" y1="246.17" x2="103.44" y2="246.17"/><line class="cls-5" x1="99.82" y1="242.55" x2="99.82" y2="249.79"/><line class="cls-5" x1="45.39" y1="181.74" x2="52.63" y2="181.74"/><line class="cls-5" x1="49.01" y1="178.12" x2="49.01" y2="185.36"/><line class="cls-5" x1="247.9" y1="133.57" x2="255.14" y2="133.57"/><line class="cls-5" x1="251.52" y1="129.95" x2="251.52" y2="137.19"/><line class="cls-5" x1="33.7" y1="286.67" x2="73.45" y2="286.67"/><line class="cls-5" x1="88.68" y1="286.7" x2="205.85" y2="286.7"/><line class="cls-5" x1="221.92" y1="286.82" x2="245.18" y2="286.82"/><line class="cls-5" x1="260.79" y1="286.55" x2="280.24" y2="286.55"/><line class="cls-5" x1="296.22" y1="286.85" x2="315.67" y2="286.85"/><path class="cls-6" d="M260.22,228.56a50.88,50.88,0,0,1-8.13,15.52c9.14-.06,12.09,1.9,13,3.87.6,1.39.1,2.62.37,7.42.13,2.39.37,4.35.57,5.66l-18.37,13.9-21.87-10.18a92.5,92.5,0,0,1-22.25,7.18l-6,18.36-25.82.14L165.38,272a92.42,92.42,0,0,1-22-7l-22,10-18.24-13.61c0-1.29,0-3.08,0-5.23,0-5.87,0-6.46.32-7.07,1.59-3.6,8.6-3.92,12.37-3.85a48.19,48.19,0,0,1-4.46-8c-1.21-2.86-2.19-5.82-3.05-8.56l-25.91-4.77-.12-19.31,26.69-5.12a52,52,0,0,1,8.14-14.4l-13.75-17.8.45-12.5,40.58,9.78a100.73,100.73,0,0,1,80,.11L261,151.45c3,1.3,4.08,3,4.5,4,.6,1.44.34,2.55.25,6.2-.07,2.34,0,4.22,0,5.38L251.1,184.7a52.3,52.3,0,0,1,8.38,14.6l27.28,5.2-.14,18.61Z"/><path class="cls-7" d="M259.93,216.25a50.91,50.91,0,0,1-8.14,15.52l13.9,17-18.37,13.89-21.87-10.18a92.5,92.5,0,0,1-22.25,7.18l-6,18.36-25.81.15-6.27-18.43a92.25,92.25,0,0,1-22.05-7l-22,10-18.24-13.6,13.26-17.34a51,51,0,0,1-8.11-15.42L82,211.58l-.11-19.31,26.68-5.12a51.59,51.59,0,0,1,8.15-14.39L103,155l17.48-13.67,23.56,11a100.67,100.67,0,0,1,80,.1L247,140.56l18.49,14.13-14.64,17.7a52.16,52.16,0,0,1,8.37,14.6l27.29,5.2-.14,18.61Z"/><path class="cls-6" d="M231.23,217.78a20.54,20.54,0,0,0,2.36-9.45c0-17-22-30.81-49-30.81s-49,13.79-49,30.81,21.78,30.7,48.72,30.8h-.34c-28.73,0-52-16.36-52-36.54s23.29-36.54,52-36.54,52,16.36,52,36.54A27.62,27.62,0,0,1,231.23,217.78Z"/><path class="cls-8" d="M233.59,209.5a20.58,20.58,0,0,1-2.36,9.46c-8.16,12.53-26.12,21.26-47,21.35-26.94-.1-48.72-13.86-48.72-30.81s21.95-30.81,49-30.81S233.59,192.49,233.59,209.5Z"/><path class="cls-9" d="M186,188.15a116.06,116.06,0,0,1,23.61-34.89,55.62,55.62,0,0,1,25.67-14.36,1.1,1.1,0,0,1,1.61,1c2,9.26.33,17.84-3.06,26.49a17.62,17.62,0,0,0,2.8-2.86,4.4,4.4,0,0,1,3.62-1.68,3.62,3.62,0,0,1,2.64,2.42c2.67,7.16-1.61,16.26-6,21.75-6.39,7.91-15.88,12.76-25.38,15.86a103.5,103.5,0,0,1-10.94,2.87S177.36,209.68,186,188.15Z"/><path class="cls-9" d="M178.71,194.25C172.89,180,164.08,165.84,153.12,155a57.77,57.77,0,0,0-12.21-9.4c-2-1.15-11.56-6.53-13.73-4.72a1.39,1.39,0,0,0-.36.62,31.42,31.42,0,0,0-1.63,12.32c.25,5,1,12.09,3.6,16.48,0,0-5.15-8.41-8.5-4.29s-5.75,33.93,42.59,45.37C162.88,211.36,187.16,217.19,178.71,194.25Z"/><g class="cls-10"><path class="cls-11" d="M202.43,221.87l4,25.89s5.29.38,4,6-20.35,8.43-26.51,3.67c-4.13-3.19-3.58-9.46-2.7-14,1.07-5.47,2.3-9.82,7.18-12.84l6.11-3.78C195.11,226.4,202.53,222.48,202.43,221.87Z"/></g><g class="cls-12"><path class="cls-11" d="M181.74,230.45c2.08,4.16-.15,9.87-1.88,13.75-2.36,5.3-5.93,10.55-12.31,10.76a22.52,22.52,0,0,1-6.8-1.07c-3.17-.91-6.25-2.09-9.33-3.27a5.09,5.09,0,0,1-2.91-2,3.92,3.92,0,0,1-.19-2.6c.76-3.69,4.21-7,8.11-6.53,1.71.21,1.63-4.89,1.82-6.19q.65-4.18,1.27-8.37c.11-.74,1.87-8.49,1.33-8.85l9.86,6.55c3.3,2.19,7.19,3.62,10,6.47A5.48,5.48,0,0,1,181.74,230.45Z"/></g><path class="cls-7" d="M202.94,166.42a5.37,5.37,0,0,1,.91.29c3,1.27,4.76,5.24,6.72,7.59A95.18,95.18,0,0,1,219.12,186c5.13,8.46,9.15,19.37,7.43,29.42-.56,3.27-2.23,6.5-5.09,8.17a10,10,0,0,1-8.3.6c-4-1.43-7-4.18-6.56-8.69.75-6.91.45-11.44-2.24-18.14a82.08,82.08,0,0,0-6.61-13.95,29.51,29.51,0,0,1-3.71-7,8,8,0,0,1,.27-6A8.61,8.61,0,0,1,202.94,166.42Z"/><path class="cls-7" d="M167.59,169.93a9.36,9.36,0,0,0-1.81-.38,17.31,17.31,0,0,0-6.66,1q-2.73.81-5.43,1.74a22.34,22.34,0,0,0-2.69,1.18c-1.05-1.77,0-5.13,1.59-6.4,1.74-1.4,12.12-2.27,5.55-16.49,0,0-5.94-8-15.14-.41s-12.73,27.6-4.29,38c3.56,4.43,9.69,7.87,15.48,6.25,6.69-1.87,18.67-4.84,19.88-13.09C174.78,176.51,172.27,171.42,167.59,169.93Z"/><path class="cls-6" d="M204,180.6,160.81,180a29.4,29.4,0,0,1,8.4-8.68l26.63.38A29.66,29.66,0,0,1,204,180.6Z"/><path class="cls-8" d="M195.84,171.69l-26.63-.38a23,23,0,0,1,26.63.38Z"/><path class="cls-6" d="M209,196.26l-53.7-.76a37.83,37.83,0,0,1,2.12-8.78l49.71.71A37.64,37.64,0,0,1,209,196.26Z"/><path class="cls-8" d="M207.16,187.43l-49.71-.71a34.12,34.12,0,0,1,3.36-6.73l43.19.61A34.92,34.92,0,0,1,207.16,187.43Z"/><path class="cls-6" d="M209,203.51a38.34,38.34,0,0,1-1.83,8.78l-50.47-.72a38.22,38.22,0,0,1-1.58-8.82Z"/><path class="cls-8" d="M166,226.47l31.57.44a23.31,23.31,0,0,1-31.57-.44Z"/><path class="cls-8" d="M207.19,212.29a37.13,37.13,0,0,1-2.61,5.92l-45.42-.64a36.06,36.06,0,0,1-2.44-6Z"/><path class="cls-8" d="M209.18,200.43c0,1-.07,2.07-.16,3.08l-53.88-.76c-.07-1-.09-2-.08-3.08a40.56,40.56,0,0,1,.27-4.17l53.7.76A41.09,41.09,0,0,1,209.18,200.43Z"/><path class="cls-6" d="M204.58,218.21a31,31,0,0,1-7.05,8.7L166,226.47a31.39,31.39,0,0,1-6.8-8.9Z"/><path class="cls-8" d="M185.17,174h-6.81A46.32,46.32,0,0,1,132,127.72V112.09A50,50,0,0,1,184,62.15h0a52.68,52.68,0,0,1,50.64,52.64v9.82A49.43,49.43,0,0,1,185.17,174Z"/><path class="cls-13" d="M227.15,87.79c-5.71-.36-11.71-1-17.13-.05-6.39,1.09-12.06,4.57-16.85,8.8-5.22,4.59-13.6,4.31-19.57,1.17-5.73-3-9.32-8.81-15.3-11.79a39.23,39.23,0,0,0-16.11-4A49.9,49.9,0,0,1,184,62.15a52.54,52.54,0,0,1,35.91,16.12A51.82,51.82,0,0,1,227.15,87.79Z"/><path class="cls-8" d="M175.28,59.67h13.5a3.56,3.56,0,0,1,3.56,3.56v2a0,0,0,0,1,0,0H171.72a0,0,0,0,1,0,0v-2A3.56,3.56,0,0,1,175.28,59.67Z"/><path class="cls-8" d="M178.25,59.67s.79-12.56,6.94-16.92c0,0-2.32,16.92.62,16.92Z"/><circle class="cls-14" cx="185.81" cy="37.4" r="7.55"/><circle class="cls-15" cx="185.81" cy="37.4" r="5.35"/><circle class="cls-16" cx="161.6" cy="121.51" r="9.96"/><circle class="cls-16" cx="209.04" cy="121.51" r="9.96"/><circle class="cls-5" cx="159.6" cy="125.51" r="20.41"/><circle class="cls-5" cx="207.04" cy="125.51" r="20.41"/><line class="cls-5" x1="180.01" y1="125.51" x2="186.63" y2="125.51"/><line class="cls-5" x1="139.19" y1="125.51" x2="132.17" y2="116.31"/><line class="cls-5" x1="227.45" y1="125.51" x2="234.22" y2="116.31"/><path class="cls-8" d="M183.11,147.61a14.54,14.54,0,0,1,2.87-.85,4.9,4.9,0,0,1,2.93.36,1.42,1.42,0,0,1,.89,1.11c0,.54-.5.94-1,1.22a26.47,26.47,0,0,1-3.17,1.38,6.81,6.81,0,0,1,4.12,1.09,2.14,2.14,0,0,1,1.08,1.44,2,2,0,0,1-1,1.66c-1.76,1.3-3.65.79-5.63.57"/></svg>