<svg id="Layer_1" data-name="Layer 1" xmlns="http://www.w3.org/2000/svg" viewBox="0 0 351.16 293.04"><defs><style>.cls-1,.cls-12,.cls-2{fill:#c4cbe0;}.cls-1{opacity:0.25;}.cls-3,.cls-7{fill:#fff;}.cls-4{fill:none;}.cls-11,.cls-12,.cls-4,.cls-5,.cls-6,.cls-7,.cls-8{stroke:#3e6be0;stroke-linecap:round;stroke-linejoin:round;}.cls-5,.cls-6{fill:#3e6be0;}.cls-5{opacity:0.3;}.cls-8{fill:#cad1e6;}.cls-9{fill:#ffc4c4;}.cls-10{fill:#ff6766;}.cls-11{fill:#3e6be6;}</style></defs><path class="cls-1" d="M349.93,257.65a175.11,175.11,0,0,1-2.45,29.25H317.42A145,145,0,1,0,30.33,257.65a146,146,0,0,0,3,29.25H3.22a174.59,174.59,0,1,1,346.71-29.25Z"/><path class="cls-2" d="M320.37,257.65a146,146,0,0,1-2.95,29.25H33.28a145,145,0,1,1,287.09-29.25Z"/><path class="cls-3" d="M262.92,281.72a15.08,15.08,0,0,1-1.06,5.6H146.08a18.46,18.46,0,0,1-1.78-8A18.73,18.73,0,0,1,163,260.63a17,17,0,0,1,1.75.09,25.2,25.2,0,0,1,50-6.23,16.34,16.34,0,0,1,26.7,12.63c0,.18,0,.37,0,.55a15,15,0,0,1,6.11-1.28A15.33,15.33,0,0,1,262.92,281.72Z"/><path class="cls-3" d="M137,220.27c0,5.84-12.38,3.41-16.49,3.41H65.84a11.18,11.18,0,0,1-1.08-4.84,11.41,11.41,0,0,1,11.4-11.41,9.46,9.46,0,0,1,1.07.06,14.59,14.59,0,0,1-.11-1.76,15.34,15.34,0,0,1,30.55-2,9.95,9.95,0,0,1,16.26,7.69c0,.1,0,.22,0,.33a9.08,9.08,0,0,1,3.72-.78A9.34,9.34,0,0,1,137,220.27Z"/><circle class="cls-4" cx="141.04" cy="266.16" r="2.95"/><circle class="cls-4" cx="283.62" cy="264.69" r="3.37"/><circle class="cls-4" cx="125.25" cy="191.77" r="2.42"/><circle class="cls-4" cx="60.68" cy="107.43" r="3"/><circle class="cls-4" cx="83.65" cy="58.17" r="2"/><circle class="cls-4" cx="231.11" cy="48.51" r="2.33"/><circle class="cls-4" cx="178.95" cy="259.36" r="1.08"/><line class="cls-4" x1="34.99" y1="287.69" x2="74.75" y2="287.69"/><line class="cls-4" x1="89.97" y1="287.72" x2="207.14" y2="287.72"/><line class="cls-4" x1="223.21" y1="287.84" x2="246.48" y2="287.84"/><line class="cls-4" x1="262.08" y1="287.57" x2="281.54" y2="287.57"/><line class="cls-4" x1="297.51" y1="287.87" x2="316.97" y2="287.87"/><line class="cls-4" x1="95.97" y1="247.18" x2="103.21" y2="247.18"/><line class="cls-4" x1="99.59" y1="243.56" x2="99.59" y2="250.8"/><line class="cls-4" x1="45.16" y1="182.75" x2="52.4" y2="182.75"/><line class="cls-4" x1="48.78" y1="179.13" x2="48.78" y2="186.37"/><line class="cls-4" x1="247.68" y1="167.83" x2="254.92" y2="167.83"/><line class="cls-4" x1="251.3" y1="164.21" x2="251.3" y2="171.45"/><path class="cls-5" d="M194.9,229.34a118.56,118.56,0,0,1,23.6-36,56.78,56.78,0,0,1,26-15,1.52,1.52,0,0,1,1.05,0,1.56,1.56,0,0,1,.61,1.07c2.22,9.42.59,18.21-2.75,27.09a17.7,17.7,0,0,0,2.83-3,4.48,4.48,0,0,1,3.67-1.76,3.71,3.71,0,0,1,2.72,2.43c2.84,7.28-1.4,16.63-5.84,22.29-6.4,8.18-16,13.26-25.68,16.57A109.65,109.65,0,0,1,210,246.13S186.4,251.44,194.9,229.34Z"/><path class="cls-5" d="M186,230.66c-6.15-14.5-15.35-28.8-26.69-39.72a59.15,59.15,0,0,0-12.6-9.43c-2.09-1.14-11.9-6.49-14.09-4.61a1.5,1.5,0,0,0-.36.64,32,32,0,0,0-1.48,12.6c.33,5.12,1.19,12.33,3.91,16.77,0,0-5.38-8.52-8.74-4.26s-5.38,34.73,44.14,45.71C170.08,248.36,195,254,186,230.66Z"/><path class="cls-6" d="M199.93,221.89l-37,7.64a26,26,0,0,1,5.53-9l22.8-4.71A25.71,25.71,0,0,1,199.93,221.89Z"/><path class="cls-7" d="M191.28,215.83l-22.8,4.71a20.11,20.11,0,0,1,22.8-4.71Z"/><path class="cls-6" d="M207.18,234.3l-46,9.5a32.4,32.4,0,0,1,.15-7.89l42.54-8.8A33.13,33.13,0,0,1,207.18,234.3Z"/><path class="cls-7" d="M203.91,227.11l-42.54,8.8a30.39,30.39,0,0,1,1.58-6.38l37-7.64A30.08,30.08,0,0,1,203.91,227.11Z"/><path class="cls-6" d="M208.55,240.49a33.7,33.7,0,0,1,.09,7.83l-43.2,8.93a33.69,33.69,0,0,1-3-7.22Z"/><path class="cls-7" d="M176.14,268.22l27-5.59a20.4,20.4,0,0,1-27,5.59Z"/><path class="cls-7" d="M208.64,248.32a31.35,31.35,0,0,1-1.11,5.55l-38.87,8a31,31,0,0,1-3.22-4.66Z"/><path class="cls-7" d="M208.1,237.83c.19.89.33,1.77.45,2.66L162.42,250c-.25-.86-.46-1.73-.65-2.62a35,35,0,0,1-.55-3.61l46-9.5A35.76,35.76,0,0,1,208.1,237.83Z"/><path class="cls-6" d="M207.53,253.87a27.36,27.36,0,0,1-4.36,8.76l-27,5.59a27.2,27.2,0,0,1-7.48-6.31Z"/><path class="cls-7" d="M186.65,222.68h-5A33.72,33.72,0,0,1,148,189V177.59a36.38,36.38,0,0,1,37.79-36.36h0a38.36,38.36,0,0,1,36.87,38.33v7.14A36,36,0,0,1,186.65,222.68Z"/><path class="cls-8" d="M217.21,159.9c-4.15-.26-8.52-.71-12.47,0a25.45,25.45,0,0,0-12.27,6.41c-3.79,3.34-9.89,3.14-14.24.85-4.17-2.2-6.79-6.42-11.14-8.58a28.46,28.46,0,0,0-11.73-2.93,36.37,36.37,0,0,1,30.42-14.38,38.36,38.36,0,0,1,31.43,18.67Z"/><path class="cls-7" d="M180.42,139.43h7.89a3.56,3.56,0,0,1,3.56,3.56v.48a0,0,0,0,1,0,0h-15a0,0,0,0,1,0,0V143A3.56,3.56,0,0,1,180.42,139.43Z"/><path class="cls-7" d="M181.62,139.43s.57-9.14,5-12.32c0,0-1.69,12.32.45,12.32Z"/><circle class="cls-9" cx="187.12" cy="123.22" r="5.5"/><circle class="cls-10" cx="187.12" cy="123.22" r="3.89"/><circle class="cls-11" cx="168.04" cy="191.35" r="7.25"/><circle class="cls-11" cx="202.58" cy="191.35" r="7.25"/><circle class="cls-4" cx="168.04" cy="187.35" r="14.86"/><circle class="cls-4" cx="202.58" cy="187.35" r="14.86"/><line class="cls-4" x1="182.9" y1="187.35" x2="187.72" y2="187.35"/><line class="cls-4" x1="153.18" y1="187.35" x2="148.08" y2="180.66"/><line class="cls-4" x1="217.43" y1="187.35" x2="222.36" y2="180.66"/><path class="cls-4" d="M181,209a4,4,0,0,1,2.55-1.09,4,4,0,0,1,2.88,1.09"/><path class="cls-12" d="M202.12,223.64s15.08,18.35,23.73,15l-4.51,12.23a11.45,11.45,0,0,1-7.64-1.14c-3-1.75-4.11-4.72-5.93-9.84C205.24,232.75,203.32,227.17,202.12,223.64Z"/><path class="cls-12" d="M178,250.41s13.16,9.55,8.88,19.42c-2.67,6.18-12.4,7.9-18,5.14-5.13-2.54-11.7-11.28-10.73-17.18,1.19-7.28,10-10,15.46-5.35Z"/><path class="cls-4" d="M174.79,241.48a7.14,7.14,0,0,1,7.16-3.43"/><path class="cls-4" d="M177.79,259.47c5.63,10.55.5,15.32-1.6,16.72"/><ellipse class="cls-12" cx="220.51" cy="246.66" rx="6.84" ry="4.73" transform="translate(-90.44 359.69) rotate(-68.18)"/><path class="cls-7" d="M264.78,237.9H207.25a6.41,6.41,0,0,0-6.41,6.41h0a6.41,6.41,0,0,0,6.41,6.41h57.34"/><path class="cls-12" d="M264.78,249.77H207.25a6.41,6.41,0,0,0-6.41,6.42h0a6.41,6.41,0,0,0,6.41,6.41h57.34"/><path class="cls-6" d="M264.78,262.06H207.25a6.42,6.42,0,0,0-6.41,6.42h0a6.41,6.41,0,0,0,6.41,6.41h57.34"/><path class="cls-7" d="M264.78,273.86H207.25a6.41,6.41,0,0,0-6.41,6.41h0a6.41,6.41,0,0,0,6.41,6.41h57.34"/><path class="cls-7" d="M160,217.55,167,250.84a.58.58,0,0,0,.58.47l25.94-.14a.59.59,0,0,0,.57-.72L187,217.16a.61.61,0,0,0-.59-.47l-25.79.15A.59.59,0,0,0,160,217.55Z"/><path class="cls-7" d="M158.75,218.07l6.92,33.29a.6.6,0,0,0,.58.47l25.94-.15a.6.6,0,0,0,.58-.71l-7.07-33.29a.61.61,0,0,0-.59-.47l-25.79.15A.58.58,0,0,0,158.75,218.07Z"/><circle class="cls-12" cx="163.99" cy="242.15" r="7.98"/><polygon class="cls-6" points="173.41 226.58 173.31 225.49 172.31 225.04 171.42 225.67 171.52 226.76 172.52 227.21 173.41 226.58"/><polygon class="cls-6" points="175.31 226.42 175.21 225.33 174.21 224.88 173.32 225.51 173.43 226.6 174.42 227.06 175.31 226.42"/><polygon class="cls-6" points="174.22 224.86 174.12 223.77 173.13 223.32 172.24 223.95 172.34 225.04 173.33 225.49 174.22 224.86"/></svg>