<svg id="Layer_1" data-name="Layer 1" xmlns="http://www.w3.org/2000/svg" viewBox="0 0 351.16 293.04"><defs><style>.cls-1,.cls-2,.cls-6{fill:#c4cbe0;}.cls-1{opacity:0.25;}.cls-3,.cls-4{fill:#fff;}.cls-4,.cls-5,.cls-6,.cls-7,.cls-8{stroke:#3e6be0;stroke-linecap:round;stroke-linejoin:round;}.cls-5{fill:none;}.cls-7,.cls-8{fill:#3e6be0;}.cls-8{opacity:0.3;}.cls-9{fill:#ffd9d9;}.cls-10{fill:#ff6766;}</style></defs><path class="cls-1" d="M350.16,256.29a175.11,175.11,0,0,1-2.45,29.25H317.65A145,145,0,1,0,30.56,256.29a146,146,0,0,0,2.95,29.25H3.45a174.59,174.59,0,1,1,346.71-29.25Z"/><path class="cls-2" d="M320.6,255.29a146,146,0,0,1-3,29.25H33.51A145,145,0,1,1,320.6,255.29Z"/><path class="cls-3" d="M263.15,279.89a15.08,15.08,0,0,1-1.06,5.6H146.31a18.46,18.46,0,0,1-1.78-8,18.73,18.73,0,0,1,18.73-18.73,17,17,0,0,1,1.75.09,25.2,25.2,0,0,1,50-6.23,16.34,16.34,0,0,1,26.7,12.63c0,.18,0,.37,0,.55a15,15,0,0,1,6.11-1.28A15.33,15.33,0,0,1,263.15,279.89Z"/><path class="cls-4" d="M137.2,218.91c0,5.83-12.38,3.41-16.48,3.41H66.07A11.26,11.26,0,0,1,65,217.47a11.39,11.39,0,0,1,11.4-11.4,9.28,9.28,0,0,1,1.06.06,17.14,17.14,0,0,1-.1-1.76,15.34,15.34,0,0,1,30.55-2A10,10,0,0,1,124.16,210c0,.11,0,.23,0,.34a9.08,9.08,0,0,1,3.72-.78A9.33,9.33,0,0,1,137.2,218.91Z"/><circle class="cls-5" cx="132.27" cy="263.81" r="3.09"/><circle class="cls-5" cx="281.54" cy="262.27" r="3.53"/><line class="cls-5" x1="96.2" y1="245.82" x2="103.44" y2="245.82"/><line class="cls-5" x1="99.82" y1="242.2" x2="99.82" y2="249.44"/><line class="cls-5" x1="25.39" y1="151.39" x2="32.63" y2="151.39"/><line class="cls-5" x1="29.01" y1="147.77" x2="29.01" y2="155.01"/><line class="cls-5" x1="247.9" y1="133.22" x2="255.14" y2="133.22"/><line class="cls-5" x1="251.52" y1="129.6" x2="251.52" y2="136.84"/><line class="cls-5" x1="33.7" y1="286.32" x2="73.45" y2="286.32"/><line class="cls-5" x1="88.68" y1="286.35" x2="205.85" y2="286.35"/><line class="cls-5" x1="221.92" y1="286.47" x2="245.18" y2="286.47"/><line class="cls-5" x1="260.79" y1="286.2" x2="280.24" y2="286.2"/><line class="cls-5" x1="296.22" y1="286.5" x2="315.67" y2="286.5"/><path class="cls-6" d="M304.89,110l-9.17,0a2,2,0,0,1-1.85-1.42A29.6,29.6,0,0,0,291,102a1.88,1.88,0,0,1,.22-2.26L297.5,93a3.07,3.07,0,0,0-.15-4.33l-6.11-5.7a3.07,3.07,0,0,0-4.33.15l-6.25,6.7a1.93,1.93,0,0,1-2.3.39,31.66,31.66,0,0,0-4.6-1.82,2,2,0,0,1-1.48-1.93v-9.1a3.06,3.06,0,0,0-3.06-3.06h-8.36a3.07,3.07,0,0,0-3.06,3.06v9.12a2,2,0,0,1-1.46,1.91,29.28,29.28,0,0,0-4.58,1.81,2,2,0,0,1-2.3-.4l-6.25-6.71a3.06,3.06,0,0,0-4.32-.15l-6.12,5.69a3.08,3.08,0,0,0-.16,4.33l6.32,6.78a1.82,1.82,0,0,1,.21,2.17,29.76,29.76,0,0,0-2.88,6.55,1.92,1.92,0,0,1-1.83,1.39l-9.19,0a3.07,3.07,0,0,0-3.07,3.06l0,8.35a3.07,3.07,0,0,0,3.06,3.07l9.17,0a1.93,1.93,0,0,1,1.84,1.42,30.38,30.38,0,0,0,2.88,6.63,1.88,1.88,0,0,1-.22,2.25l-6.28,6.74a3.06,3.06,0,0,0,.15,4.32l6.11,5.71a3.08,3.08,0,0,0,4.33-.15l6.25-6.71a2,2,0,0,1,2.3-.39,29.16,29.16,0,0,0,4.6,1.82,2,2,0,0,1,1.47,1.94V157a3.07,3.07,0,0,0,3.06,3.06h8.36a3.07,3.07,0,0,0,3.06-3.06v-9.12a2,2,0,0,1,1.46-1.91,30.41,30.41,0,0,0,4.59-1.81,1.94,1.94,0,0,1,2.3.39l6.24,6.71a3.08,3.08,0,0,0,4.33.16l6.12-5.7a3.07,3.07,0,0,0,.15-4.33l-6.31-6.78a1.82,1.82,0,0,1-.21-2.17,29.55,29.55,0,0,0,2.88-6.55,1.94,1.94,0,0,1,1.83-1.39l9.19,0a3.07,3.07,0,0,0,3.07-3l0-8.36A3.07,3.07,0,0,0,304.89,110Z"/><circle class="cls-4" cx="265.04" cy="117.14" r="13.49"/><path class="cls-4" d="M273.78,153.42V255a22,22,0,0,1-22,22H134.65a22,22,0,0,1-22-22V152.27Z"/><path class="cls-7" d="M273.78,132v21.46l-161.16-1.15V132a22,22,0,0,1,22-22h117.1A22,22,0,0,1,273.78,132Z"/><rect class="cls-6" x="235.05" y="166.12" width="25.51" height="25.33" rx="2.89"/><rect class="cls-6" x="198.35" y="165.94" width="25.51" height="25.33" rx="2.89"/><rect class="cls-6" x="198.18" y="201.3" width="25.51" height="25.33" rx="2.89"/><rect class="cls-6" x="234.13" y="201.47" width="25.51" height="25.33" rx="2.89"/><rect class="cls-6" x="162.13" y="201.32" width="25.51" height="25.33" rx="2.89"/><rect class="cls-6" x="161.72" y="235.48" width="25.51" height="25.33" rx="2.89"/><rect class="cls-6" x="197.88" y="236.73" width="25.51" height="25.33" rx="2.89"/><rect class="cls-6" x="124.89" y="236.39" width="25.51" height="25.33" rx="2.89"/><rect class="cls-6" x="126.35" y="202.5" width="25.51" height="25.33" rx="2.89"/><path class="cls-8" d="M98.57,221.68a99.67,99.67,0,0,1,19.86-30.26,47.85,47.85,0,0,1,21.88-12.65,1,1,0,0,1,1.4.88c1.87,7.93.5,15.33-2.31,22.8a15.67,15.67,0,0,0,2.38-2.5,3.78,3.78,0,0,1,3.08-1.48,3.11,3.11,0,0,1,2.3,2.05c2.38,6.12-1.19,14-4.92,18.75-5.38,6.88-13.48,11.16-21.61,13.94a89.51,89.51,0,0,1-9.36,2.6S91.42,240.28,98.57,221.68Z"/><path class="cls-8" d="M97.39,226.57c-5.17-12.2-12.91-24.23-22.46-33.43a49.81,49.81,0,0,0-10.6-7.93c-1.76-1-10-5.46-11.86-3.88a1.3,1.3,0,0,0-.3.54,27,27,0,0,0-1.25,10.6c.28,4.32,1,10.38,3.29,14.11,0,0-4.52-7.16-7.35-3.58S42.34,232.23,84,241.47C84,241.47,104.94,246.18,97.39,226.57Z"/><path class="cls-6" d="M66.19,219.38c1.39-1.07,2.79-2.11,4.25-3.08a46.64,46.64,0,0,1,4-2.43,43.64,43.64,0,0,0,4.7-2.75,13.8,13.8,0,0,0,1.56-1.28l.29-.29a7.28,7.28,0,0,0,2.26-4.75,6.2,6.2,0,0,0-.4-2.32,9.14,9.14,0,0,0-.79-1.64h0a7.71,7.71,0,0,0-4-3.33,4.81,4.81,0,0,0-.9-.19,6.59,6.59,0,0,0-2.36.23c-2.3.61-4.65,2.14-6.65,2.89a92.33,92.33,0,0,0-12.44,5.68c-.54.3-1.08.63-1.64.95-9.61,4.55-8.59,13.22-3.88,21,3.93,6.53,10.44,12.45,15.43,14.83a11.69,11.69,0,0,0,7.07,1.15,8,8,0,0,0,2-.61,8.43,8.43,0,0,0,3-2.29,10.15,10.15,0,0,0,1.92-3.5c0-.08,0-.17.08-.26a11.19,11.19,0,0,0,.43-4.78,6.68,6.68,0,0,0-3.53-5c-.81-.45-1.58-.9-2.3-1.34a32,32,0,0,1-5.2-3.85,28.11,28.11,0,0,1-2.84-3.07,40.4,40.4,0,0,1-2.39-3.32c-.58-.92-1.18-1.84-1.77-2.76"/><path class="cls-6" d="M109.19,199s16.91-7,21.31-12.76,2.2-10.85,7.1-11,6.94,3.67,7.27,8.29-3.9,23.5-27.82,34.88C117.05,218.43,106.15,212.75,109.19,199Z"/><path class="cls-6" d="M94.77,255.78c1.15.46.64,9.62.48,10.91A13.94,13.94,0,0,1,93.16,273a7.42,7.42,0,0,1-5.44,3.09,25.63,25.63,0,0,1-7.72-.39,11.46,11.46,0,0,1-4.24-1.39c-2.51-1.71-1.36-5.17.75-6.69.24-.18,2.85-1.68,2.88-1.23l-1.28-17.35Z"/><path class="cls-6" d="M95.92,255.68c-1.15.47-.64,9.63-.48,10.91.37,3,1.3,6.93,4,8.39,2.88,1.57,7.36,1.34,10.5.94s8.12-2.13,5.82-6.37a6.42,6.42,0,0,0-1.94-2.23c-.28-.2-2.47-1.33-2.49-1L112.58,249Z"/><path class="cls-7" d="M114.82,205.64h-40A28.42,28.42,0,0,1,82.45,197h24.7A28.26,28.26,0,0,1,114.82,205.64Z"/><path class="cls-4" d="M107.15,197H82.45a20.3,20.3,0,0,1,24.7,0Z"/><path class="cls-7" d="M119.69,221H69.9a39.66,39.66,0,0,1,1.85-8.69h46.09A38.54,38.54,0,0,1,119.69,221Z"/><path class="cls-4" d="M117.84,212.32H71.75a35.59,35.59,0,0,1,3-6.68h40.05A34.36,34.36,0,0,1,117.84,212.32Z"/><path class="cls-7" d="M119.78,228.17a40.31,40.31,0,0,1-1.58,8.67H71.4a39.7,39.7,0,0,1-1.58-8.67Z"/><path class="cls-4" d="M80.16,251.41h29.28a20.69,20.69,0,0,1-29.28,0Z"/><path class="cls-4" d="M118.2,236.84a36.79,36.79,0,0,1-2.35,5.88H73.74a36.76,36.76,0,0,1-2.34-5.88Z"/><path class="cls-4" d="M119.89,225.12c0,1,0,2-.11,3h-50c-.08-1-.11-2-.11-3,0-1.39.06-2.76.19-4.11h49.79A39.83,39.83,0,0,1,119.89,225.12Z"/><path class="cls-7" d="M115.85,242.72a30.46,30.46,0,0,1-6.41,8.69H80.16a30.49,30.49,0,0,1-6.42-8.69Z"/><rect class="cls-4" x="146.75" y="103.41" width="10.68" height="28.27" rx="5.34"/><rect class="cls-4" x="229.86" y="103.41" width="10.68" height="28.27" rx="5.34"/><path class="cls-4" d="M96,203.4l-4.32.43a29.57,29.57,0,0,1-32.31-26.52l-1-9.93a31.89,31.89,0,0,1,29.85-35h0a33.62,33.62,0,0,1,35.45,30.27l.61,6.23A31.54,31.54,0,0,1,96,203.4Z"/><path class="cls-6" d="M117.4,146.16c-3.65.1-7.5.07-10.89,1a22.25,22.25,0,0,0-10.19,6.58c-3,3.23-8.39,3.54-12.36,1.9-3.82-1.59-6.45-5.06-10.42-6.59a24.78,24.78,0,0,0-10.47-1.61,31.84,31.84,0,0,1,25.38-15,33.66,33.66,0,0,1,29,13.76Z"/><path class="cls-4" d="M83.32,131.24h7.82a2.93,2.93,0,0,1,2.93,2.93v.41a.21.21,0,0,1-.21.21H81.12a.21.21,0,0,1-.21-.21v-.93a2.41,2.41,0,0,1,2.41-2.41Z" transform="translate(-11.88 8.62) rotate(-5.29)"/><path class="cls-4" d="M84.93,131.23c0-1.3.13-7.54,3-10.54a.22.22,0,0,1,.37.16c-.06,1.92-.17,8.42.89,9.89a.22.22,0,0,1-.15.35l-3.89.36A.22.22,0,0,1,84.93,131.23Z"/><circle class="cls-9" cx="88.42" cy="116.88" r="4.82"/><circle class="cls-10" cx="88.42" cy="116.88" r="3.41"/><circle class="cls-7" cx="78.37" cy="174.52" r="6.35"/><circle class="cls-7" cx="108.51" cy="171.73" r="6.35"/><circle class="cls-5" cx="76.69" cy="174.09" r="13.02"/><circle class="cls-5" cx="106.84" cy="171.3" r="13.02"/><line class="cls-5" x1="89.66" y1="172.89" x2="93.87" y2="172.5"/><line class="cls-5" x1="63.73" y1="175.29" x2="58.73" y2="169.86"/><line class="cls-5" x1="119.81" y1="170.1" x2="123.57" y2="163.86"/><path class="cls-5" d="M89.18,190.54a5.06,5.06,0,0,0,4.29,1.86,5,5,0,0,0,3.67-2.5"/></svg>