<?xml version="1.0" encoding="utf-8"?>
<!-- Generator: Adobe Illustrator 26.0.1, SVG Export Plug-In . SVG Version: 6.00 Build 0)  -->
<svg version="1.1" id="Layer_1" xmlns="http://www.w3.org/2000/svg" xmlns:xlink="http://www.w3.org/1999/xlink" x="0px" y="0px"
	 viewBox="0 0 351.2 293" style="enable-background:new 0 0 351.2 293;" xml:space="preserve">
<style type="text/css">
	.st0{opacity:0.25;fill:#C4CBE0;enable-background:new    ;}
	.st1{fill:#C4CBE0;}
	.st2{fill:#FFFFFF;}
	.st3{fill:none;stroke:#3E6BE0;stroke-linecap:round;stroke-linejoin:round;}
	.st4{fill:#FFFFFF;stroke:#3E6BE0;stroke-linecap:round;stroke-linejoin:round;}
	.st5{fill:#C4CBE0;stroke:#3E6BE0;stroke-linecap:round;stroke-linejoin:round;}
	.st6{opacity:0.4;fill:#3E6BE0;stroke:#3E6BE0;stroke-linecap:round;stroke-linejoin:round;enable-background:new    ;}
	.st7{fill:#3E6BE0;stroke:#3E6BE0;stroke-linecap:round;stroke-linejoin:round;}
	.st8{fill:none;stroke:#F3A83B;stroke-linecap:round;stroke-linejoin:round;}
	.st9{fill:#CAD1E6;stroke:#3E6BE0;stroke-linecap:round;stroke-linejoin:round;}
	.st10{fill:#FFC4C4;}
	.st11{fill:#FF6766;}
	.st12{fill:#3E6BE6;stroke:#3E6BE0;stroke-linecap:round;stroke-linejoin:round;}
</style>
<path class="st0" d="M349.6,257.5c0,9.8-0.8,19.6-2.5,29.2h-30.1c15.9-78.5-34.9-155-113.4-170.9s-155,34.9-170.9,113.4
	C31,238.5,30,248,30,257.5c0,9.8,1,19.6,3,29.2H2.9c-16.2-95.1,47.8-185.2,142.9-201.4S331,133.1,347.2,228.2
	C348.8,237.9,349.6,247.7,349.6,257.5z"/>
<path class="st1" d="M320.1,257.5c0,9.8-1,19.6-3,29.2H33c-16-78.5,34.7-155,113.2-171s155,34.7,171,113.2
	C319.1,238.3,320.1,247.9,320.1,257.5L320.1,257.5z"/>
<path class="st2" d="M262.6,281.5c0,1.9-0.4,3.8-1.1,5.6H145.8c-1.2-2.5-1.8-5.2-1.8-8c0-10.3,8.4-18.7,18.7-18.7l0,0
	c0.6,0,1.2,0,1.8,0.1c-1.4-13.8,8.7-26.2,22.5-27.6c13.4-1.4,25.5,8.1,27.5,21.4c7-5.7,17.3-4.7,23,2.3c2.4,2.9,3.7,6.6,3.7,10.4
	c0,0.2,0,0.4,0,0.5c1.9-0.9,4-1.3,6.1-1.3C255.8,266.2,262.6,273,262.6,281.5C262.6,281.5,262.6,281.5,262.6,281.5z"/>
<path class="st2" d="M136.7,220.1c0,5.8-12.4,3.4-16.5,3.4H65.5c-0.7-1.5-1.1-3.2-1.1-4.9c0-6.3,5.1-11.4,11.4-11.4c0,0,0,0,0,0
	c0.4,0,0.7,0,1.1,0.1c-0.1-0.6-0.1-1.2-0.1-1.8c0-8.5,6.9-15.3,15.3-15.3c7.7,0,14.2,5.7,15.2,13.3c4.3-3.5,10.6-2.8,14.1,1.5
	c1.4,1.7,2.2,3.9,2.2,6.2c0,0.1,0,0.2,0,0.3c1.2-0.5,2.4-0.8,3.7-0.8C132.5,210.8,136.6,215,136.7,220.1z"/>
<circle class="st3" cx="140.7" cy="266" r="3"/>
<circle class="st3" cx="283.3" cy="264.5" r="3.4"/>
<circle class="st3" cx="124.9" cy="191.6" r="2.4"/>
<circle class="st3" cx="60.4" cy="107.2" r="3"/>
<circle class="st3" cx="83.3" cy="58" r="2"/>
<circle class="st3" cx="230.8" cy="48.3" r="2.3"/>
<circle class="st3" cx="178.6" cy="259.2" r="1.1"/>
<line class="st3" x1="34.7" y1="287.5" x2="74.4" y2="287.5"/>
<line class="st3" x1="89.7" y1="287.5" x2="206.8" y2="287.5"/>
<line class="st3" x1="222.9" y1="287.7" x2="246.2" y2="287.7"/>
<line class="st3" x1="261.8" y1="287.4" x2="281.2" y2="287.4"/>
<line class="st3" x1="297.2" y1="287.7" x2="316.7" y2="287.7"/>
<line class="st3" x1="95.7" y1="247" x2="102.9" y2="247"/>
<line class="st3" x1="99.3" y1="243.4" x2="99.3" y2="250.6"/>
<line class="st3" x1="44.9" y1="182.6" x2="52.1" y2="182.6"/>
<line class="st3" x1="48.5" y1="178.9" x2="48.5" y2="186.2"/>
<line class="st3" x1="247.4" y1="167.6" x2="254.6" y2="167.6"/>
<line class="st3" x1="251" y1="164" x2="251" y2="171.3"/>
<path class="st4" d="M55.1,172.1l-12.4,4.4c-0.2,0.1-0.3,0.3-0.2,0.4c0,0,0,0.1,0,0.1l46.6,69l41.6-14.4L55.1,172.1z"/>
<path class="st4" d="M214.1,263.8L214.1,263.8c0.8,1.6,0.2,3.6-1.4,4.5c-10.4,5.7-49.1,24-108.1,18.7c-1.3-0.1-2.3-0.9-2.8-2.1
	l-52-126.2c-0.7-1.7,0.1-3.7,1.8-4.4c0.3-0.1,0.5-0.2,0.8-0.2l110.6-15.7c1.6-0.2,3.1,0.7,3.6,2.1l47.2,123
	C214,263.5,214.1,263.7,214.1,263.8z"/>
<path class="st1" d="M76.9,157.9c0,0,7.6,52.2,43.7,80.8c0,0,31.6,29.5,93.4,24.9l-0.4-3c0,0-24.4,6.9-74.7-40.7
	C138.9,219.9,88.7,177.6,76.9,157.9z"/>
<path class="st4" d="M69.5,111.3L69.5,111.3c34.4,12.1,78-0.6,109.8-13.9c4.9,27.3,12.2,54.1,21.8,80.2c5.6,15.4,12,30.6,20.2,44.9
	c6.3,10.9,13.5,19.5,22.3,28.5c2.1,2.1,2,4.8-1,6.2c-5.7,2.8-12.7,2.4-18.9,3.2c-15.4,2-31.8,1.6-45.9-5.3
	c-15.9-7.8-25-24-38.7-34.6c-3.9,7.2-12.2,10.8-20.2,8.8c-9.8-2.7-15.4-12.8-20.2-21c-5.9-9.9-10.9-20.2-15.2-30.9
	c-4.3-10.8-7.7-21.9-10.1-33.2C71.2,133.4,71.7,122,69.5,111.3z"/>
<path class="st3" d="M97.4,168.8c0,0,49-6.6,63.2-18.9"/>
<path class="st3" d="M101,180.4c0,0,51-5.8,63.4-18.7"/>
<path class="st3" d="M104.2,193.3c0,0,48.8-5.2,63.2-18.4"/>
<path class="st3" d="M108,204.2c0,0,41.9-2.6,63.1-18.9"/>
<path class="st3" d="M111.6,215.6c0,0,42.6-0.6,63.2-17.9"/>
<polyline class="st3" points="167.2,144 171.3,145.7 174.3,139 "/>
<polyline class="st3" points="171.8,156.8 175.8,158.5 178.8,151.8 "/>
<polyline class="st3" points="175.8,168.7 179.8,170.4 182.8,163.7 "/>
<polyline class="st3" points="179.4,180 183.5,181.7 186.5,174.9 "/>
<path class="st5" d="M266.8,157.7c0.1,0.2,0.1,0.5,0.1,0.8c0.2,2.6-2,5.2-3,7.5c-1.5,3.5-3.3,7-5.3,10.2
	c-4.2,6.6-10.5,13.4-18.4,15.7c-2.5,0.9-5.4,0.6-7.7-0.7c-1.9-1.3-3.2-3.4-3.4-5.7c-0.4-3.4,0.4-6.5,3.8-7.8c5.2-1.9,8.4-3.8,12.2-8
	c2.8-3,5.4-6.2,7.6-9.7c1-1.9,2.2-3.6,3.7-5.1c1.2-1.2,2.7-1.9,4.4-1.9C263.5,153.2,265.9,155.1,266.8,157.7z"/>
<path class="st6" d="M261.1,166.9c7.5-10.1,16.8-18.7,27.6-25.1c3.6-2.1,7.4-3.7,11.4-4.8c1.8-0.5,10.3-2.7,11.6-0.9
	c0.1,0.2,0.2,0.4,0.1,0.6c0.3,3.3-0.1,6.6-1.1,9.8c-1.2,3.8-3.1,9.1-6,12c0,0,5.7-5.4,7.5-1.6s-2.2,27.2-42.1,26.4
	C270,183.2,250,182.9,261.1,166.9z"/>
<path class="st5" d="M251.3,201.6l-3.7,20.5c-1.9,0-3.5,1.6-3.5,3.5c0,0.4,0.1,0.8,0.2,1.1c0.4,2.1,3.2,3.2,5,3.8
	c2.9,1,6,1.5,9.1,1.4c2.3,0,4.8-0.3,6.8-1.6s2.7-4.1,2.8-6.4c0.1-2.1,0-4.3,0.1-6.4s0.5-4.1,0.8-6.2s0.2-4.4-1.7-5.6
	c-1.6-1-7.1-1.3-8.7-2.3C258.1,203.1,251.2,202.1,251.3,201.6z"/>
<path class="st5" d="M252.3,212.2l-3.7,20.5c-1.9,0-3.5,1.6-3.5,3.5c0,0.4,0.1,0.8,0.2,1.1c0.4,2.1,3.2,3.2,5,3.8
	c2.9,1,6,1.5,9.1,1.4c2.3,0,4.8-0.3,6.8-1.6s2.7-4.1,2.8-6.4c0.1-2.1,0-4.3,0.1-6.4s0.5-4.1,0.8-6.2s0.2-4.4-1.7-5.6
	c-1.6-1.1-7.1-1.3-8.7-2.4C259,213.7,252.2,212.7,252.3,212.2z"/>
<path class="st5" d="M235.6,174.8c0,0.3,0,0.5-0.1,0.8c-0.6,2.5-3.4,4.6-4.9,6.5c-2.4,3-5.1,5.9-7.9,8.6c-5.9,5.4-13.8,10.2-22,10.5
	c-2.7,0.2-5.3-0.8-7.2-2.6c-1.5-1.8-2.1-4.1-1.7-6.4c0.5-3.4,2.2-6.2,5.8-6.5c5.6-0.5,9.1-1.5,13.9-4.7c3.5-2.2,6.9-4.6,9.9-7.4
	c1.5-1.5,3.1-2.9,4.9-4c1.4-0.9,3.1-1.1,4.8-0.8C233.7,169.6,235.5,172,235.6,174.8z"/>
<path class="st7" d="M221.2,168l48.8-14.8c-3.6-3.2-7.9-5.5-12.5-7l-30.1,9.1C224.5,159.1,222.4,163.4,221.2,168z"/>
<path class="st4" d="M227.5,156.9l29.1-11.9c-5.5-1.2-11.2-0.8-16.5,1.3C234.9,148.5,230.5,152.1,227.5,156.9z"/>
<path class="st7" d="M220.3,187.1c10.2-1.5,20.4-3.7,30.3-6.5c10.4-3,20.6-6.7,30.5-11.1c-0.7-1.7-1.5-3.3-2.4-4.8
	c-0.9-1.5-1.8-3-2.9-4.4c-19.3,3.3-38.3,8.8-56.4,16.4C219.5,178.1,219.5,179.8,220.3,187.1z"/>
<path class="st4" d="M219.6,176.5l56.4-16.4c-1.8-2.4-3.8-4.6-6-6.6l-49,14.2C220.2,170.7,219.7,173.6,219.6,176.5z"/>
<path class="st7" d="M222.6,195.3c1.3,3.3,2.9,6.4,4.9,9.3l57.2-16.6c0.1-3.5-0.3-7-1-10.4L222.6,195.3z"/>
<path class="st4" d="M279.1,207.7l-35.8,10.4c6.2,3,13.3,3.6,20,1.7C269.9,217.8,275.5,213.5,279.1,207.7z"/>
<path class="st4" d="M227.6,204.6c1.4,2.1,3.1,4.1,4.9,5.9l51.5-15c0.5-2.5,0.8-5,0.8-7.5L227.6,204.6z"/>
<path class="st4" d="M221.5,191.8c0.4,1.2,0.7,2.3,1.2,3.4c8.7-3.5,18.4-7,29-10.1c10.5-3.1,21.2-5.6,32-7.6
	c-0.1-0.5-0.2-1.1-0.4-1.8s-0.3-1.2-0.5-1.8c-0.5-1.6-1-3.1-1.7-4.6l-60.8,17.7C220.6,188.7,221,190.3,221.5,191.8z"/>
<path class="st7" d="M232.4,210.4c3.1,3.2,6.8,5.7,10.8,7.6l35.8-10.4c2.4-3.7,4-7.8,4.9-12.2L232.4,210.4z"/>
<path class="st5" d="M241.5,174.2c0.2,0.2,0.4,0.3,0.5,0.5c1.6,2,1.3,5.4,1.8,7.8c0.8,3.8,1.3,7.6,1.5,11.4c0.4,7.9-1,17-6.1,23.4
	c-1.6,2.2-4,3.6-6.7,3.8c-2.3,0-4.5-1-6.1-2.7c-2.3-2.5-3.4-5.6-1.3-8.5c3.2-4.6,4.7-7.9,5.4-13.5c0.6-4.1,0.9-8.2,0.7-12.3
	c-0.3-2.1-0.2-4.2,0.1-6.3c0.3-1.6,1.2-3.1,2.5-4.1C236.3,172.4,239.3,172.6,241.5,174.2z"/>
<path class="st6" d="M261.8,176c7.5-10.1,16.9-18.7,27.6-25.1c3.6-2.1,7.4-3.8,11.4-4.9c1.8-0.5,10.3-2.7,11.6-0.9
	c0.1,0.2,0.2,0.4,0.2,0.6c0.3,3.3-0.1,6.6-1.1,9.8c-1.2,3.8-3.1,9.1-6,12c0,0,5.7-5.4,7.5-1.6s-2.2,27.2-42.1,26.4
	C270.8,192.3,250.8,191.9,261.8,176z"/>
<path class="st7" d="M205.8,179.5l5.9,7.1l1.1-0.9c1.4-1.2,1.7-3.3,0.5-4.7c-0.1-0.1-0.1-0.1-0.2-0.2l-1.7-1.8
	c-1.2-1.3-3.2-1.4-4.5-0.3L205.8,179.5z"/>
<path class="st7" d="M185.6,202.5l3-0.2l-3-3.6l-0.8,2.6c-0.1,0.5,0.1,1,0.6,1.1C185.4,202.5,185.5,202.5,185.6,202.5z"/>
<polygon class="st5" points="185.5,198.8 188.6,202.3 192.5,202.1 192.7,201.9 186.8,194.8 "/>
<polygon class="st7" points="186.8,194.8 192.7,201.9 209,188.8 205.9,185 203.2,181.6 186.8,194.8 "/>
<polygon class="st5" points="203.2,181.6 205.9,185 209,188.8 211.6,186.6 205.8,179.5 "/>
<line class="st8" x1="205.9" y1="185" x2="189.8" y2="198"/>
<path class="st4" d="M243.8,159.1l-4.1,2.6c-15.3,9.9-35.6,5.5-45.5-9.8c0,0,0,0,0,0l-6-9.3c-10.7-16.5-5.9-38.5,10.5-49.1
	c0.4-0.2,0.8-0.5,1.2-0.7l0,0c17.3-10.3,39.6-5,50.5,11.9l3.8,5.8C264.8,126.8,260.1,148.6,243.8,159.1
	C243.8,159.1,243.8,159.1,243.8,159.1z"/>
<path class="st9" d="M202,91.7c-0.9,1.9-2.1,3.8-3.1,5.6c-0.3,0.5-0.6,1-0.9,1.6c-0.1,0.2-0.2,0.4-0.4,0.7c-0.2,0.5-0.5,0.9-0.7,1.4
	c-0.1,0.2-0.2,0.4-0.3,0.6s-0.2,0.4-0.3,0.7c-0.3,0.8-0.5,1.7-0.7,2.6c-0.7,3.6-0.6,7.3,0.2,10.9c1,4.8-2.1,9.9-6.1,12.5
	c-2.1,1.2-4.3,2.1-6.6,2.7c-3.2-14.9,3.5-30.2,16.6-38C200.6,92.4,201.3,92,202,91.7z"/>
<path class="st4" d="M195.8,104.7c0.2-0.9,0.4-1.7,0.7-2.6c0.1-0.2,0.2-0.5,0.3-0.7s0.2-0.4,0.3-0.6c0.2-0.5,0.4-0.9,0.7-1.4
	c0.1-0.2,0.2-0.4,0.4-0.7c0.3-0.5,0.6-1,0.9-1.6"/>
<path class="st4" d="M193.9,93l6.3-4.1c1.7-1.1,3.9-0.6,4.9,1.1l0.2,0.3l0,0l-12.3,8l0,0l-0.2-0.3C191.7,96.2,192.2,94,193.9,93
	C193.9,93,193.9,93,193.9,93z"/>
<path class="st4" d="M194.8,92.4c0,0-4.4-7.8-2.4-12.8c0,0,5.1,11,6.9,9.9L194.8,92.4z"/>
<circle class="st10" cx="190.7" cy="76.2" r="5.4"/>
<circle class="st11" cx="190.7" cy="76.2" r="3.8"/>
<circle class="st12" cx="204.6" cy="144.6" r="7.1"/>
<circle class="st3" cx="208.1" cy="138.5" r="14.5"/>
<line class="st3" x1="191.4" y1="147.6" x2="195.9" y2="146.4"/>
</svg>
