<?xml version="1.0" encoding="utf-8"?>
<!-- Generator: Adobe Illustrator 26.0.1, SVG Export Plug-In . SVG Version: 6.00 Build 0)  -->
<svg version="1.1" id="Layer_1" xmlns="http://www.w3.org/2000/svg" xmlns:xlink="http://www.w3.org/1999/xlink" x="0px" y="0px"
	 viewBox="0 0 351.2 293" style="enable-background:new 0 0 351.2 293;" xml:space="preserve">
<style type="text/css">
	.st0{opacity:0.25;fill:#C4CBE0;enable-background:new    ;}
	.st1{fill:#C4CBE0;}
	.st2{fill:#FFFFFF;}
	.st3{fill:none;stroke:#3E6BE0;stroke-linecap:round;stroke-linejoin:round;}
	.st4{fill:#3E6BE0;stroke:#3E6BE0;stroke-linecap:round;stroke-linejoin:round;}
	.st5{fill:#C4CBE0;stroke:#3E6BE0;stroke-linecap:round;stroke-linejoin:round;}
	.st6{fill:#FFFFFF;stroke:#3E6BE0;stroke-linecap:round;stroke-linejoin:round;}
	.st7{opacity:0.3;fill:#3E6BE0;stroke:#3E6BE0;stroke-linecap:round;stroke-linejoin:round;enable-background:new    ;}
	.st8{fill:#CAD1E6;stroke:#3E6BE0;stroke-linecap:round;stroke-linejoin:round;}
	.st9{fill:#FFC4C4;}
	.st10{fill:#FF6766;}
	.st11{fill:#3E6BE6;stroke:#3E6BE0;stroke-linecap:round;stroke-linejoin:round;}
</style>
<path class="st0" d="M352.3,257.6c0,9.8-0.8,19.6-2.5,29.2h-30.1c16-78.5-34.7-155-113.2-171s-155,34.7-171,113.2
	c-1.9,9.4-2.9,19-2.9,28.6c0,9.8,1,19.6,3,29.2H5.6c-16.2-95.1,47.8-185.2,142.9-201.4s185.2,47.8,201.4,142.9
	C351.4,238,352.3,247.8,352.3,257.6z"/>
<path class="st1" d="M322.7,257.6c0,9.8-1,19.6-3,29.2H35.6c-16-78.5,34.7-155,113.2-171s155,34.7,171,113.2
	C321.7,238.5,322.7,248.1,322.7,257.6z"/>
<path class="st2" d="M265.3,281.7c0,1.9-0.4,3.8-1.1,5.6H148.4c-1.2-2.5-1.8-5.2-1.8-8c0-10.3,8.4-18.7,18.7-18.7l0,0
	c0.6,0,1.2,0,1.8,0.1c-1.4-13.8,8.7-26.2,22.5-27.6c13.4-1.4,25.5,8.1,27.5,21.4c7-5.7,17.3-4.7,23,2.3c2.4,2.9,3.7,6.6,3.7,10.4
	c0,0.2,0,0.4,0,0.5c1.9-0.9,4-1.3,6.1-1.3C258.4,266.3,265.3,273.2,265.3,281.7C265.3,281.7,265.3,281.7,265.3,281.7z"/>
<path class="st2" d="M139.3,220.3c0,5.8-12.4,3.4-16.5,3.4H68.2c-0.7-1.5-1.1-3.2-1.1-4.8c0-6.3,5.1-11.4,11.4-11.4
	c0.4,0,0.7,0,1.1,0.1c-0.1-0.6-0.1-1.2-0.1-1.8c0-8.5,6.9-15.3,15.3-15.3c7.7,0,14.2,5.7,15.2,13.3c4.2-3.5,10.5-2.9,14,1.4
	c1.5,1.8,2.3,4,2.3,6.3c0,0.1,0,0.2,0,0.3c1.2-0.5,2.4-0.8,3.7-0.8C135.1,211,139.3,215.1,139.3,220.3z"/>
<circle class="st3" cx="143.4" cy="266.2" r="3"/>
<circle class="st3" cx="286" cy="264.7" r="3.4"/>
<circle class="st3" cx="127.6" cy="191.8" r="2.4"/>
<circle class="st3" cx="63" cy="107.4" r="3"/>
<circle class="st3" cx="86" cy="58.2" r="2"/>
<circle class="st3" cx="233.4" cy="48.5" r="2.3"/>
<circle class="st3" cx="181.3" cy="259.4" r="1.1"/>
<line class="st3" x1="37.3" y1="287.7" x2="77.1" y2="287.7"/>
<line class="st3" x1="92.3" y1="287.7" x2="209.5" y2="287.7"/>
<line class="st3" x1="225.6" y1="287.8" x2="248.8" y2="287.8"/>
<line class="st3" x1="264.4" y1="287.6" x2="283.9" y2="287.6"/>
<line class="st3" x1="299.9" y1="287.9" x2="319.3" y2="287.9"/>
<line class="st3" x1="98.3" y1="247.2" x2="105.6" y2="247.2"/>
<line class="st3" x1="101.9" y1="243.6" x2="101.9" y2="250.8"/>
<line class="st3" x1="47.5" y1="182.8" x2="54.7" y2="182.8"/>
<line class="st3" x1="51.1" y1="179.1" x2="51.1" y2="186.4"/>
<line class="st3" x1="250" y1="167.8" x2="257.3" y2="167.8"/>
<line class="st3" x1="253.6" y1="164.2" x2="253.6" y2="171.4"/>
<path class="st4" d="M295.7,121.9c-7.8,11.1-7.9,32.4-8.5,45.7c-0.7,14.5-0.4,29.4,0,43.8c0.4,14.3-5,28.2-14.8,38.7
	c-4.2,4.4-10.4,8.3-16.2,6.2c-5.4-2-7.7-8.1-9.3-13.6c-0.8-2.7-0.9-6.4-2.7-8.6s-4.5-2.1-7.2-2.4c-26-2.2-52.1-4.6-78.2-6.8
	c7.9,0.8,13.9-2.7,19.5-7.9c10.4-9.5,10.1-23.4,10.4-36.4c0.6-26-5.3-58.1,19.7-75.2c6-4.1,16.6-1.1,23.3-0.6
	c8.6,0.7,17.2,1.3,25.9,2c16.6,1.3,33.1,2.6,49.7,4.3l0,0"/>
<path class="st5" d="M158,224.7c0,0-3.4,21.9,9.9,23.4s52.6,11.4,91.1,8.9c0,0-10.6-0.7-14.9-24.8L158,224.7z"/>
<circle class="st4" cx="287.9" cy="123" r="32.2"/>
<circle class="st6" cx="287.9" cy="123" r="26.6"/>
<line class="st3" x1="288" y1="123.2" x2="301.7" y2="111.7"/>
<line class="st3" x1="278.1" y1="117.3" x2="288" y2="123.2"/>
<circle class="st4" cx="287.9" cy="123" r="2.5"/>
<circle class="st3" cx="287.9" cy="142.2" r="1.1"/>
<line class="st3" x1="287.9" y1="102.3" x2="287.9" y2="105"/>
<path class="st5" d="M156,254.3c-0.7,0.3-1.1,7.9-1.2,8.7c-0.7,4.3-1.8,8.5-3.3,12.5c0.9,1.8,1.9,3.9,1.1,5.7
	c-0.9,2-3.3,2.7-5.4,3.1c-4.9,1-10.1,1.7-14.8-0.1l2.7-21.6C135.1,261.2,153.7,255.2,156,254.3z"/>
<path class="st5" d="M103.8,244.1c1.4,6.8,4.2,12.8,6,19.5c0.6,2.5,1.1,5.1,1.4,7.7l1.3,9.5c0,0.8,0.3,1.6,0.8,2.3
	c0.4,0.5,1,0.9,1.6,1.1c3.4,1.5,7.1,2.5,10.8,2.7c2.5,0.3,5-0.2,7.1-1.3c2.1-1.3,3.5-4,2.6-6.3c-0.4-1-1.2-1.9-1.4-3
	c-0.1-0.8,0-1.7,0.2-2.5l2.2-9c0-1.6-13.7-8.6-15.3-9.6C115.3,251.5,109.5,247.9,103.8,244.1z"/>
<path class="st7" d="M135,227.3c2.5-11.9,7.1-23.3,13.7-33.5c4.7-7.1,11.3-12.9,19-16.6c0.3-0.2,0.6-0.2,0.9-0.2
	c0.3,0.1,0.5,0.4,0.7,0.8c3.4,7.4,3.4,14.9,2.1,22.8c0.7-0.9,1.4-1.9,1.9-2.9c0.5-1.1,1.6-1.8,2.7-2c1.1,0,2.1,0.6,2.6,1.6
	c3.5,5.6,1.5,14-1.2,19.4c-4,7.8-11.1,13.6-18.5,17.8c-2.8,1.6-5.7,3.1-8.7,4.4C150.1,238.7,131.6,246.9,135,227.3z"/>
<path class="st7" d="M133.9,223.8c-7.4-11-17.3-21.3-28.5-28.5c-3.7-2.4-7.7-4.4-11.9-5.7c-1.9-0.6-10.9-3.4-12.4-1.5
	c-0.1,0.2-0.2,0.4-0.2,0.6c-0.4,3.6-0.2,7.2,0.8,10.6c1.1,4.2,3,10,6,13.2c0,0-5.8-6.2-7.9-2.1S81,240,123.6,241
	C123.6,241,145.1,241.6,133.9,223.8z"/>
<path class="st5" d="M194,189.6c0,0.5-0.1,0.9-0.3,1.4c-0.7,2-1.9,3.9-3.4,5.5c-9.6,11.4-21.4,25-35.8,23.2c-3.1-0.4-5.9-2.2-7.5-5
	c-1.4-2.8-1.9-6-1.3-9.1c1.5-8,6-7.7,11.5-8.1c6.2-0.4,12.1-3.8,17.2-7.9c4-3.2,8.7-10.4,14-9.5C191.9,180.6,194.5,185.4,194,189.6z
	"/>
<path class="st4" d="M158.4,205h-50.8c2.5-4.1,5.8-7.6,9.7-10.3h31.3C152.6,197.4,155.9,200.9,158.4,205z"/>
<path class="st6" d="M148.6,194.7h-31.3C126.7,188.1,139.3,188.1,148.6,194.7z"/>
<path class="st4" d="M164.6,223.4h-63.1c0.4-3.5,1.2-7,2.3-10.4h58.4C163.4,216.3,164.2,219.8,164.6,223.4z"/>
<path class="st6" d="M162.2,213h-58.4c1-2.8,2.3-5.5,3.8-8h50.8C159.9,207.5,161.2,210.2,162.2,213z"/>
<path class="st4" d="M164.7,231.9c-0.3,3.5-0.9,7-2,10.3h-59.3c-1.1-3.4-1.7-6.8-2-10.3H164.7z"/>
<path class="st6" d="M114.4,259.5h37.1C141.1,269.2,124.9,269.2,114.4,259.5z"/>
<path class="st6" d="M162.6,242.2c-0.8,2.4-1.8,4.8-3,7h-53.3c-1.2-2.2-2.2-4.6-3-7H162.6z"/>
<path class="st6" d="M164.8,228.2c0,1.2,0,2.4-0.1,3.6h-63.3c-0.1-1.2-0.1-2.4-0.1-3.6c0-1.7,0.1-3.3,0.2-4.9h63.1
	C164.7,225,164.8,226.6,164.8,228.2z"/>
<path class="st4" d="M159.7,249.2c-2.1,3.9-4.8,7.4-8.1,10.3h-37.1c-3.3-2.9-6.1-6.4-8.1-10.3L159.7,249.2z"/>
<path class="st5" d="M129.2,248.9c-2.2-0.9-4.2-2.2-6-3.1c-4.7-2.4-9.3-4.9-13.8-7.4c-9-5.2-4.5-21.3-4.3-29.6
	c0.1-3.8,3.3-6.8,7.1-6.7l2.3,0.1c3.8,0.1,6.8,3.2,6.7,7c-0.1,4.4-0.2,8.8-0.3,13.2c-0.1,4.1,2.3,4.3,5.6,5.9c4.3,2,8.5,4.4,11.8,8
	c2.5,2.1,3.1,5.7,1.3,8.5c-1,2.1-2.6,4.3-4.8,4.9C132.8,250,130.9,249.7,129.2,248.9z"/>
<path class="st6" d="M138,210.7l2.5,13.9l6.1,1.4l3.8-3.9c0,0-2.2-10-5.3-12.9S138,210.7,138,210.7z"/>
<path class="st6" d="M138.7,204.4l3.3-0.6c1.8-0.3,3.5,0.8,3.9,2.6l0,0c0.3,1.8-0.8,3.5-2.6,3.9l-3.3,0.6c-1.8,0.3-3.5-0.8-3.9-2.6
	l0,0C135.7,206.5,136.9,204.7,138.7,204.4z"/>
<path class="st6" d="M137.2,200.4l-5.5,0.8c-20.5,3.2-39.7-10.9-42.9-31.4c0,0,0,0,0,0l-1.9-12.5c-3.4-22.2,11.8-42.9,33.9-46.3
	c0.5-0.1,1-0.1,1.5-0.2c13.7-1.6,27.3,3.5,36.5,13.7c5.7,6.2,9.4,14,10.6,22.3l1.2,7.9C174.1,176.5,159.1,197,137.2,200.4
	C137.2,200.4,137.2,200.4,137.2,200.4z"/>
<path class="st8" d="M158.9,124.5c-2.9,0.2-5.7,0.8-8.4,1.6c-5,1.7-9.1,5.2-12.4,9.2c-3.6,4.3-10.4,5.1-15.6,3.4
	c-5-1.7-8.6-5.9-13.7-7.6c-4.3-1.4-11.2-2.6-15.7-2.1l0.1-0.2c6.6-10,17.3-16.6,29.2-18C136.1,109.2,149.6,114.3,158.9,124.5
	L158.9,124.5z"/>
<path class="st6" d="M115.8,109.8l9.5-1.5c1.9-0.3,3.8,1,4.1,3l0,0l0.1,0.9l0,0l-16.5,2.6l0,0l-0.1-0.9
	C112.5,111.9,113.8,110.1,115.8,109.8z"/>
<path class="st6" d="M117.5,109.5c0,0-0.9-10.2,3.5-14.4c0,0,0.2,13.9,2.6,13.5L117.5,109.5z"/>
<circle class="st9" cx="120.8" cy="90.7" r="6.1"/>
<circle class="st10" cx="120.8" cy="90.7" r="4.3"/>
<circle class="st11" cx="118.7" cy="160.9" r="8.1"/>
<circle class="st11" cx="156.7" cy="155" r="8.1"/>
<circle class="st3" cx="114.7" cy="162.7" r="16.6"/>
<circle class="st3" cx="152.8" cy="156.8" r="16.6"/>
<line class="st3" x1="131.1" y1="160.1" x2="136.4" y2="159.3"/>
<line class="st3" x1="98.3" y1="165.2" x2="91.6" y2="158.7"/>
<line class="st3" x1="170.3" y1="151.9" x2="169.1" y2="154.2"/>
<line class="st3" x1="132.5" y1="183.5" x2="141.5" y2="181.5"/>
</svg>
