<svg id="Layer_1" data-name="Layer 1" xmlns="http://www.w3.org/2000/svg" viewBox="0 0 351.16 293.04"><defs><style>.cls-1,.cls-2,.cls-7{fill:#c4cbe0;}.cls-1{opacity:0.25;}.cls-3,.cls-6{fill:#fff;}.cls-4{fill:none;}.cls-4,.cls-5,.cls-6,.cls-7,.cls-8{stroke:#3e6be0;stroke-linecap:round;stroke-linejoin:round;}.cls-5,.cls-8{fill:#3e6be0;}.cls-8{opacity:0.4;}.cls-9{fill:#ffc4c4;}.cls-10{fill:#ff6766;}</style></defs><path class="cls-1" d="M349.55,247a175.11,175.11,0,0,1-2.45,29.25H317A145,145,0,1,0,30,247a146,146,0,0,0,2.95,29.25H2.84A174.59,174.59,0,1,1,349.55,247Z"/><path class="cls-2" d="M320,247A146,146,0,0,1,317,276.21H32.9A145,145,0,1,1,320,247Z"/><path class="cls-3" d="M262.54,271a15.08,15.08,0,0,1-1.06,5.6H145.7a18.46,18.46,0,0,1-1.78-8,18.73,18.73,0,0,1,18.73-18.73,17,17,0,0,1,1.75.09,25.2,25.2,0,0,1,50-6.23,16.34,16.34,0,0,1,26.7,12.63c0,.18,0,.37,0,.55a15,15,0,0,1,6.11-1.28A15.33,15.33,0,0,1,262.54,271Z"/><path class="cls-3" d="M136.59,209.58c0,5.83-12.38,3.41-16.48,3.41H65.46a11.27,11.27,0,0,1-1.09-4.85,11.4,11.4,0,0,1,11.41-11.4,9.28,9.28,0,0,1,1.06.06,17.14,17.14,0,0,1-.1-1.76,15.34,15.34,0,0,1,30.55-2,9.95,9.95,0,0,1,16.25,7.69V201a9.08,9.08,0,0,1,3.72-.78A9.33,9.33,0,0,1,136.59,209.58Z"/><circle class="cls-4" cx="140.66" cy="255.47" r="2.95"/><circle class="cls-4" cx="283.24" cy="253.99" r="3.37"/><circle class="cls-4" cx="124.86" cy="181.08" r="2.42"/><circle class="cls-4" cx="60.3" cy="96.74" r="3"/><circle class="cls-4" cx="83.26" cy="47.47" r="2"/><circle class="cls-4" cx="230.72" cy="37.82" r="2.33"/><circle class="cls-4" cx="178.57" cy="248.67" r="1.08"/><line class="cls-4" x1="34.61" y1="276.99" x2="74.36" y2="276.99"/><line class="cls-4" x1="89.59" y1="277.03" x2="206.76" y2="277.03"/><line class="cls-4" x1="222.83" y1="277.15" x2="246.09" y2="277.15"/><line class="cls-4" x1="261.69" y1="276.88" x2="281.15" y2="276.88"/><line class="cls-4" x1="297.13" y1="277.18" x2="316.58" y2="277.18"/><line class="cls-4" x1="95.59" y1="236.49" x2="102.83" y2="236.49"/><line class="cls-4" x1="99.21" y1="232.87" x2="99.21" y2="240.11"/><line class="cls-4" x1="44.78" y1="172.06" x2="52.02" y2="172.06"/><line class="cls-4" x1="48.4" y1="168.44" x2="48.4" y2="175.68"/><line class="cls-4" x1="247.29" y1="157.14" x2="254.53" y2="157.14"/><line class="cls-4" x1="250.91" y1="153.52" x2="250.91" y2="160.76"/><rect class="cls-5" x="99.78" y="49.58" width="140.47" height="170.08" rx="6.36"/><rect class="cls-6" x="109.07" y="62.93" width="119" height="142.8" rx="6.36"/><rect class="cls-5" x="130.23" y="98.37" width="75.37" height="16.75" rx="6.36"/><rect class="cls-5" x="130.23" y="136.78" width="42.48" height="16.75" rx="6.36"/><path class="cls-5" d="M226.39,82.12l-91.83,91s18.77,19.06,18.48,25.12-15.31,5.49-15.31,5.49,14.15,2.31,16.17-1.45S222.06,94.25,226.39,82.12Z"/><rect class="cls-5" x="129.39" y="40.87" width="81.85" height="26.12" rx="9.4"/><path class="cls-7" d="M175.74,250.25l-.2,16s-2.75-.71-2.51,3c.09,1.39,1.78,2.37,2.85,3a18.31,18.31,0,0,0,6.16,1.9,11.41,11.41,0,0,0,7.45-1.07,4.35,4.35,0,0,0,1.8-1.9,6.73,6.73,0,0,0,.27-2.37l.13-2.77c0-4.88.58-9.71.19-14.6,0-.41,0-1.36-.35-1.66C190.43,248.74,175.74,250.25,175.74,250.25Z"/><path class="cls-7" d="M195.32,251.13l-.2,16s-2.75-.71-2.51,3c.09,1.39,1.78,2.37,2.85,3a18.24,18.24,0,0,0,6.16,1.9c2,.28,6.7.62,7.91-1.64a3.2,3.2,0,0,0,.26-.81,26.2,26.2,0,0,0,.5-5.66c0-4.88.57-9.71.18-14.6,0-.41,0-1.36-.35-1.66C209,249.62,195.32,251.13,195.32,251.13Z"/><path class="cls-7" d="M209.62,203.92a4.12,4.12,0,0,1,.78.23c2.51,1,4.08,4.38,5.78,6.34a82.14,82.14,0,0,1,7.38,9.83c4.44,7.1,8,16.29,6.64,24.82a9.83,9.83,0,0,1-4.21,7,8.53,8.53,0,0,1-7,.6c-3.45-1.16-6-3.45-5.66-7.27.55-5.87.24-9.7-2.11-15.34a70.93,70.93,0,0,0-5.77-11.73,25.49,25.49,0,0,1-3.23-5.87,6.78,6.78,0,0,1,.16-5.09A7.3,7.3,0,0,1,209.62,203.92Z"/><path class="cls-7" d="M183.06,220.87a4.48,4.48,0,0,0,.1-.81c.07-2.71-2.33-5.51-3.43-7.86a81,81,0,0,0-6-10.74c-4.67-7-11.62-13.93-19.95-16.19a9.82,9.82,0,0,0-8.09,1,8.51,8.51,0,0,0-3.41,6.17c-.35,3.62.69,6.9,4.33,8.13,5.58,1.89,9,3.73,13.15,8.18a71.56,71.56,0,0,1,8.36,10.05,25.44,25.44,0,0,0,4,5.34,6.76,6.76,0,0,0,4.71,1.93A7.29,7.29,0,0,0,183.06,220.87Z"/><path class="cls-5" d="M211.18,215.91H174.61a24.92,24.92,0,0,1,7-7.45h22.55A24.92,24.92,0,0,1,211.18,215.91Z"/><path class="cls-6" d="M204.17,208.46H181.62a19.5,19.5,0,0,1,22.55,0Z"/><path class="cls-5" d="M215.63,229.1H170.16a31.48,31.48,0,0,1,1.69-7.45h42.09A32,32,0,0,1,215.63,229.1Z"/><path class="cls-6" d="M213.94,221.65H171.85a28.17,28.17,0,0,1,2.76-5.74h36.57A28.7,28.7,0,0,1,213.94,221.65Z"/><path class="cls-5" d="M215.71,235.24a32.14,32.14,0,0,1-1.45,7.45H171.52a32.67,32.67,0,0,1-1.44-7.45Z"/><path class="cls-6" d="M179.52,255.19h26.74a19.73,19.73,0,0,1-26.74,0Z"/><path class="cls-6" d="M214.26,242.69a29.92,29.92,0,0,1-2.14,5.05H173.66a31.64,31.64,0,0,1-2.14-5.05Z"/><path class="cls-6" d="M215.81,232.63c0,.89,0,1.75-.1,2.61H170.08c-.07-.86-.1-1.72-.1-2.61a34.33,34.33,0,0,1,.18-3.53h45.47A34.33,34.33,0,0,1,215.81,232.63Z"/><path class="cls-5" d="M212.12,247.74a26,26,0,0,1-5.86,7.45H179.52a26.34,26.34,0,0,1-5.86-7.45Z"/><path class="cls-8" d="M193.15,235.34a98.44,98.44,0,0,1,19.57-29.83,47.1,47.1,0,0,1,21.57-12.46.92.92,0,0,1,1.37.87c1.84,7.81.49,15.1-2.27,22.46a14.77,14.77,0,0,0,2.34-2.46,3.71,3.71,0,0,1,3-1.46,3.06,3.06,0,0,1,2.26,2c2.35,6-1.16,13.79-4.84,18.48-5.31,6.78-13.29,11-21.3,13.74a88.78,88.78,0,0,1-9.23,2.56S186.1,253.67,193.15,235.34Z"/><path class="cls-8" d="M192,235.66c-5.1-12-12.73-23.88-22.14-32.94a49,49,0,0,0-10.45-7.82c-1.73-.94-9.87-5.38-11.68-3.82a1.21,1.21,0,0,0-.3.53,26.6,26.6,0,0,0-1.23,10.45c.27,4.25,1,10.22,3.25,13.9,0,0-4.46-7.06-7.25-3.53s-4.46,28.81,36.61,37.91C178.8,250.34,199.42,255,192,235.66Z"/><path class="cls-6" d="M189.52,154.89h4.75a2.78,2.78,0,0,1,2.78,2.78v0a0,0,0,0,1,0,0h-10.3a0,0,0,0,1,0,0v0A2.78,2.78,0,0,1,189.52,154.89Z"/><path class="cls-6" d="M193.46,212h-3.4a23.13,23.13,0,0,1-23.12-23.13v-7.8a25,25,0,0,1,25.92-24.94h0a26.31,26.31,0,0,1,25.28,26.29v4.9A24.68,24.68,0,0,1,193.46,212Z"/><path class="cls-6" d="M190,154.89s.39-6.27,3.46-8.45c0,0-1.16,8.45.31,8.45Z"/><circle class="cls-9" cx="193.78" cy="143.77" r="3.77"/><circle class="cls-10" cx="193.78" cy="143.77" r="2.67"/></svg>