<svg id="Layer_1" data-name="Layer 1" xmlns="http://www.w3.org/2000/svg" viewBox="0 0 351.16 293.04"><defs><style>.cls-1,.cls-2,.cls-8{fill:#c4cbe0;}.cls-1{opacity:0.25;}.cls-3,.cls-5{fill:#fff;}.cls-4{fill:none;}.cls-12,.cls-4,.cls-5,.cls-6,.cls-7,.cls-8,.cls-9{stroke:#3e6be0;stroke-linecap:round;stroke-linejoin:round;}.cls-6,.cls-7{fill:#3e6be0;}.cls-7{opacity:0.4;}.cls-9{fill:#cad1e6;}.cls-10{fill:#ffc4c4;}.cls-11{fill:#ff6766;}.cls-12{fill:#3e6be6;}</style></defs><path class="cls-1" d="M357.37,257.65a175.11,175.11,0,0,1-2.45,29.25H324.86A145,145,0,1,0,37.77,257.65a146,146,0,0,0,2.95,29.25H10.66a174.59,174.59,0,1,1,346.71-29.25Z"/><path class="cls-2" d="M327.81,257.65a146,146,0,0,1-2.95,29.25H40.72a145,145,0,1,1,287.09-29.25Z"/><path class="cls-3" d="M270.36,281.72a15.08,15.08,0,0,1-1.06,5.6H153.52a18.46,18.46,0,0,1-1.78-8,18.73,18.73,0,0,1,18.73-18.73,17,17,0,0,1,1.75.09,25.2,25.2,0,0,1,50-6.23,16.34,16.34,0,0,1,26.7,12.63c0,.18,0,.37,0,.55a15,15,0,0,1,6.11-1.28A15.33,15.33,0,0,1,270.36,281.72Z"/><path class="cls-3" d="M144.42,220.27c0,5.84-12.38,3.41-16.49,3.41H73.28a11.18,11.18,0,0,1-1.08-4.84,11.41,11.41,0,0,1,11.4-11.41,9.59,9.59,0,0,1,1.07.06,14.59,14.59,0,0,1-.11-1.76,15.34,15.34,0,0,1,30.55-2,9.95,9.95,0,0,1,16.26,7.69c0,.1,0,.22,0,.33a9.08,9.08,0,0,1,3.72-.78A9.34,9.34,0,0,1,144.42,220.27Z"/><circle class="cls-4" cx="148.48" cy="266.16" r="2.95"/><circle class="cls-4" cx="291.06" cy="264.69" r="3.37"/><circle class="cls-4" cx="132.69" cy="191.77" r="2.42"/><circle class="cls-4" cx="68.12" cy="107.43" r="3"/><circle class="cls-4" cx="91.09" cy="58.17" r="2"/><circle class="cls-4" cx="238.54" cy="48.51" r="2.33"/><circle class="cls-4" cx="186.39" cy="259.36" r="1.08"/><line class="cls-4" x1="42.43" y1="287.69" x2="82.18" y2="287.69"/><line class="cls-4" x1="97.41" y1="287.72" x2="214.58" y2="287.72"/><line class="cls-4" x1="230.65" y1="287.84" x2="253.92" y2="287.84"/><line class="cls-4" x1="269.52" y1="287.57" x2="288.97" y2="287.57"/><line class="cls-4" x1="304.95" y1="287.87" x2="324.41" y2="287.87"/><line class="cls-4" x1="103.41" y1="247.18" x2="110.65" y2="247.18"/><line class="cls-4" x1="107.03" y1="243.56" x2="107.03" y2="250.8"/><line class="cls-4" x1="52.6" y1="182.75" x2="59.84" y2="182.75"/><line class="cls-4" x1="56.22" y1="179.13" x2="56.22" y2="186.37"/><line class="cls-4" x1="255.12" y1="167.83" x2="262.36" y2="167.83"/><line class="cls-4" x1="258.74" y1="164.21" x2="258.74" y2="171.45"/><path class="cls-5" d="M69.36,138.66l26,26a3.1,3.1,0,0,0,2.2.91h22.26a3.12,3.12,0,0,0,3.1-2.82l2.34-24.84a3.08,3.08,0,0,0-.9-2.49L98.49,109.54a3.11,3.11,0,0,0-4.41,0L69.36,134.26A3.12,3.12,0,0,0,69.36,138.66Z"/><circle class="cls-4" cx="116.16" cy="156.89" r="2.6"/><path class="cls-4" d="M116.16,156.89s11.35,5.18,11.78,20.68,9.48,24.76,26.92,28.42"/><path class="cls-5" d="M308.57,144l-26,26a3.11,3.11,0,0,1-2.2.91H258.11a3.11,3.11,0,0,1-3.1-2.82l-2.35-24.85a3.15,3.15,0,0,1,.9-2.49l25.89-25.89a3.1,3.1,0,0,1,4.4,0l24.72,24.72A3.1,3.1,0,0,1,308.57,144Z"/><circle class="cls-6" cx="261.77" cy="162.26" r="2.6"/><path class="cls-4" d="M261.77,162.26s-11.35,5.18-11.78,20.68-9.47,24.77-26.91,28.43"/><path class="cls-7" d="M197.94,213.18a125.5,125.5,0,0,1,25-38.06,60.06,60.06,0,0,1,27.51-15.9,1.19,1.19,0,0,1,1.76,1.11c2.35,10,.62,19.27-2.91,28.66a18.93,18.93,0,0,0,3-3.14,4.74,4.74,0,0,1,3.88-1.86,3.91,3.91,0,0,1,2.89,2.57c3,7.7-1.49,17.59-6.18,23.58-6.78,8.65-17,14-27.18,17.53a113.27,113.27,0,0,1-11.77,3.27S188.94,236.56,197.94,213.18Z"/><path class="cls-7" d="M190.17,219.87c-6.51-15.34-16.24-30.46-28.24-42a62.73,62.73,0,0,0-13.33-10c-2.22-1.2-12.6-6.87-14.91-4.88a1.52,1.52,0,0,0-.38.68A34,34,0,0,0,131.74,177c.35,5.42,1.26,13.05,4.14,17.74,0,0-5.69-9-9.25-4.5S120.94,227,173.34,238.6C173.34,238.6,199.65,244.53,190.17,219.87Z"/><path class="cls-8" d="M197,253.05c1.61.63.89,13.08.67,14.82-.51,4.1-1.81,9.41-5.52,11.4-4.36,2.33-9.72,1.72-14.41.86-2.16-.39-5.17-.6-7.16-1.62s-2.19-3.67-1.67-5.65a6.61,6.61,0,0,1,2.72-3.71c.33-.24,4-2.28,4-1.67l-1.78-23.57Z"/><path class="cls-8" d="M217,241.16l4.23,27.89s5.15.34,3.94,6.39-19.68,9.42-25.73,4.37,0-26.21,0-26.21Z"/><path class="cls-8" d="M212,181a5.3,5.3,0,0,1,1,.3c3.21,1.33,5.22,5.58,7.38,8.09a102.57,102.57,0,0,1,9.41,12.54c5.67,9.05,10.18,20.78,8.48,31.66-.56,3.54-2.31,7.06-5.37,8.91a10.88,10.88,0,0,1-9,.76c-4.4-1.48-7.69-4.4-7.22-9.28.7-7.48.3-12.37-2.7-19.56-2.14-5.14-4.3-10.32-7.36-15a32.17,32.17,0,0,1-4.11-7.49,8.67,8.67,0,0,1,.2-6.49A9.31,9.31,0,0,1,212,181Z"/><path class="cls-8" d="M175.16,184.23a5.3,5.3,0,0,0-1,.3c-3.21,1.33-5.22,5.58-7.38,8.09a103.6,103.6,0,0,0-9.41,12.54c-5.67,9.05-10.18,20.78-8.48,31.67.56,3.53,2.31,7,5.38,8.9a10.85,10.85,0,0,0,9,.76c4.4-1.47,7.69-4.4,7.23-9.28-.71-7.48-.31-12.37,2.69-19.56,2.14-5.14,4.3-10.32,7.36-15a32,32,0,0,0,4.11-7.49,8.67,8.67,0,0,0-.2-6.49A9.3,9.3,0,0,0,175.16,184.23Z"/><path class="cls-6" d="M217.17,197.18H170.51a31.94,31.94,0,0,1,8.94-9.5h28.78A31.94,31.94,0,0,1,217.17,197.18Z"/><path class="cls-5" d="M208.23,187.68H179.45a24.9,24.9,0,0,1,28.78,0Z"/><path class="cls-6" d="M222.85,214h-58a40.19,40.19,0,0,1,2.16-9.51h53.7A41.19,41.19,0,0,1,222.85,214Z"/><path class="cls-5" d="M220.69,204.51H167a36.73,36.73,0,0,1,3.52-7.33h46.66A37.28,37.28,0,0,1,220.69,204.51Z"/><path class="cls-6" d="M223,221.86a41.86,41.86,0,0,1-1.85,9.5H166.57a41.85,41.85,0,0,1-1.84-9.5Z"/><path class="cls-5" d="M176.78,247.31H210.9a25.21,25.21,0,0,1-34.12,0Z"/><path class="cls-5" d="M221.1,231.36a38.92,38.92,0,0,1-2.73,6.44H169.3a38.92,38.92,0,0,1-2.73-6.44Z"/><path class="cls-5" d="M223.08,218.53c0,1.12-.05,2.23-.13,3.33H164.73c-.09-1.1-.13-2.21-.13-3.33a44.64,44.64,0,0,1,.23-4.51h58A44.64,44.64,0,0,1,223.08,218.53Z"/><path class="cls-6" d="M218.37,237.8a33.63,33.63,0,0,1-7.47,9.51H176.78a33.84,33.84,0,0,1-7.48-9.51Z"/><path class="cls-5" d="M196.13,188h-5.52A37.61,37.61,0,0,1,153,150.35V137.66a40.58,40.58,0,0,1,42.15-40.55h0a42.79,42.79,0,0,1,41.12,42.75v8A40.14,40.14,0,0,1,196.13,188Z"/><path class="cls-9" d="M230.22,117.93c-4.64-.29-9.51-.79-13.91,0-5.18.89-9.79,3.71-13.68,7.14-4.24,3.73-11,3.5-15.89,1-4.65-2.46-7.57-7.16-12.42-9.58a31.81,31.81,0,0,0-13.08-3.26,40.54,40.54,0,0,1,33.92-16,42.77,42.77,0,0,1,35.06,20.82Z"/><path class="cls-5" d="M188.78,95.1h9.62A3.56,3.56,0,0,1,202,98.66v.95a0,0,0,0,1,0,0H185.21a0,0,0,0,1,0,0v-.95A3.56,3.56,0,0,1,188.78,95.1Z"/><path class="cls-5" d="M190.52,95.1s.64-10.19,5.63-13.74c0,0-1.88,13.74.5,13.74Z"/><circle class="cls-10" cx="196.65" cy="77.02" r="6.13"/><circle class="cls-11" cx="196.65" cy="77.02" r="4.34"/><circle class="cls-12" cx="175.38" cy="154.89" r="8.09"/><circle class="cls-12" cx="213.89" cy="154.89" r="8.09"/><circle class="cls-4" cx="175.38" cy="148.55" r="16.57"/><circle class="cls-4" cx="213.89" cy="148.55" r="16.57"/><line class="cls-4" x1="191.95" y1="148.55" x2="197.32" y2="148.55"/><line class="cls-4" x1="158.8" y1="148.55" x2="153.11" y2="141.08"/><line class="cls-4" x1="230.47" y1="148.55" x2="235.96" y2="141.08"/><path class="cls-4" d="M190.52,174.38a4.1,4.1,0,0,1,6.94,0"/><path class="cls-5" d="M194.07,268.06l48.76-28.15a1.15,1.15,0,0,1,1.72,1.09c-.32,3.6-.72,10.63.61,14a1.17,1.17,0,0,1-.46,1.44l-49.79,29.95a1.14,1.14,0,0,1-1.17,0l-43.56-25.24a1.13,1.13,0,0,1-.55-.79c-.49-2.87-2.41-16.35,4.68-14.48l38.61,22.18A1.18,1.18,0,0,0,194.07,268.06Z"/><polygon class="cls-8" points="153.16 245.88 205.16 218.37 244.78 238.79 193.5 268.39 153.16 245.88"/><path class="cls-6" d="M129.65,209.55l54,37.34a1.16,1.16,0,0,1,.49,1V249a1.15,1.15,0,0,0,1.15,1.15h17.8a1.15,1.15,0,0,0,1.15-1.15v-.17a1.16,1.16,0,0,1,.51-1L262.89,209a1.16,1.16,0,0,0,.18-1.77l-2.56-2.56a1.15,1.15,0,0,0-1.48-.12l-55.19,39.29a1.23,1.23,0,0,1-.67.21H187.68a1.1,1.1,0,0,1-.65-.21l-54.43-37.8a1.14,1.14,0,0,0-1.45.11l-1.64,1.58A1.16,1.16,0,0,0,129.65,209.55Z"/><path class="cls-5" d="M196.35,236.54c4-6.3,19.86-27.92,53.31-35.12a1.17,1.17,0,0,1,1.26.57l2.71,4.89a1.16,1.16,0,0,1-.33,1.5l-49.46,35.49a1.17,1.17,0,0,1-.67.22H187.68a1.16,1.16,0,0,1-.65-.2l-51.67-35.48a1.12,1.12,0,0,1-.49-1.09c.23-1.75,1.08-6.22,3.8-6.8,3.3-.71,43.55,14,55.72,36A1.14,1.14,0,0,0,196.35,236.54Z"/></svg>