<svg id="Layer_1" data-name="Layer 1" xmlns="http://www.w3.org/2000/svg" viewBox="0 0 351.16 293.04"><defs><style>.cls-1,.cls-2,.cls-8{fill:#c4cbe0;}.cls-1{opacity:0.25;}.cls-3,.cls-6{fill:#fff;}.cls-4{fill:none;}.cls-12,.cls-4,.cls-5,.cls-6,.cls-7,.cls-8,.cls-9{stroke:#3e6be0;stroke-linecap:round;stroke-linejoin:round;}.cls-5,.cls-7{fill:#3e6be0;}.cls-7{opacity:0.4;}.cls-9{fill:#cad1e6;}.cls-10{fill:#ffc4c4;}.cls-11{fill:#ff6766;}.cls-12{fill:#3e6be6;}</style></defs><path class="cls-1" d="M350.16,259.82a175.11,175.11,0,0,1-2.45,29.25H317.65A145,145,0,1,0,30.56,259.82a146,146,0,0,0,2.95,29.25H3.45a174.59,174.59,0,1,1,346.71-29.25Z"/><path class="cls-2" d="M320.6,259.82a146,146,0,0,1-3,29.25H33.51A145,145,0,1,1,320.6,259.82Z"/><path class="cls-3" d="M263.15,283.89a15.08,15.08,0,0,1-1.06,5.6H146.31a18.46,18.46,0,0,1-1.78-8,18.73,18.73,0,0,1,18.73-18.73,17,17,0,0,1,1.75.09,25.2,25.2,0,0,1,50-6.23,16.34,16.34,0,0,1,26.7,12.63c0,.18,0,.37,0,.55a15,15,0,0,1,6.11-1.28A15.33,15.33,0,0,1,263.15,283.89Z"/><path class="cls-3" d="M137.2,222.44c0,5.83-12.38,3.41-16.48,3.41H66.07A11.25,11.25,0,0,1,65,221a11.4,11.4,0,0,1,11.4-11.41,9.28,9.28,0,0,1,1.06.06,17.14,17.14,0,0,1-.1-1.76,15.34,15.34,0,0,1,30.55-2,10,10,0,0,1,16.26,7.69c0,.11,0,.23,0,.34a9.08,9.08,0,0,1,3.72-.78A9.33,9.33,0,0,1,137.2,222.44Z"/><circle class="cls-4" cx="141.27" cy="268.33" r="2.95"/><circle class="cls-4" cx="283.85" cy="266.86" r="3.37"/><circle class="cls-4" cx="125.47" cy="193.94" r="2.42"/><circle class="cls-4" cx="60.91" cy="109.6" r="3"/><circle class="cls-4" cx="83.87" cy="60.34" r="2"/><circle class="cls-4" cx="231.33" cy="50.68" r="2.33"/><circle class="cls-4" cx="179.18" cy="261.53" r="1.08"/><line class="cls-4" x1="35.22" y1="289.85" x2="74.97" y2="289.85"/><line class="cls-4" x1="90.2" y1="289.89" x2="207.37" y2="289.89"/><line class="cls-4" x1="223.44" y1="290.01" x2="246.7" y2="290.01"/><line class="cls-4" x1="262.3" y1="289.74" x2="281.76" y2="289.74"/><line class="cls-4" x1="297.74" y1="290.04" x2="317.19" y2="290.04"/><line class="cls-4" x1="96.2" y1="249.35" x2="103.44" y2="249.35"/><line class="cls-4" x1="99.82" y1="245.73" x2="99.82" y2="252.97"/><line class="cls-4" x1="45.39" y1="184.92" x2="52.63" y2="184.92"/><line class="cls-4" x1="49.01" y1="181.3" x2="49.01" y2="188.54"/><line class="cls-4" x1="247.9" y1="170" x2="255.14" y2="170"/><line class="cls-4" x1="251.52" y1="166.38" x2="251.52" y2="173.62"/><path class="cls-5" d="M173.28,151.92l12.38-44.8a4.66,4.66,0,0,1,4.49-3.41l104.94.33a4.65,4.65,0,0,1,4.47,5.84L287.46,155a4.64,4.64,0,0,1-4.51,3.44l-105.23-.66A4.63,4.63,0,0,1,173.28,151.92Z"/><path class="cls-6" d="M195.29,142.65l7.41-26.45a4.65,4.65,0,0,1,4.47-3.39h29a4.64,4.64,0,0,1,4.5,5.74l-6.61,27.25a4.64,4.64,0,0,1-4.63,3.54l-29.78-.8A4.65,4.65,0,0,1,195.29,142.65Z"/><path class="cls-6" d="M246.1,138.05l4.28-16.63a4.63,4.63,0,0,1,4.55-3.48l18.2.25a4.64,4.64,0,0,1,4.43,5.79l-4.28,16.75a4.63,4.63,0,0,1-4.59,3.49l-18.2-.38A4.63,4.63,0,0,1,246.1,138.05Z"/><path class="cls-5" d="M167.56,194.12,174.31,168a4.65,4.65,0,0,1,4.52-3.48l39.46.17a4.65,4.65,0,0,1,4.47,5.8l-6.93,26.94a4.64,4.64,0,0,1-4.62,3.48l-39.28-1A4.63,4.63,0,0,1,167.56,194.12Z"/><path class="cls-6" d="M227.15,196l6.76-26.09a4.63,4.63,0,0,1,4.51-3.48l39.46.17a4.65,4.65,0,0,1,4.47,5.8l-6.93,26.94a4.64,4.64,0,0,1-4.62,3.48l-39.28-1A4.64,4.64,0,0,1,227.15,196Z"/><path class="cls-5" d="M243.94,187.71l2.22-8.59a4.63,4.63,0,0,1,4.52-3.48l10.41.05a4.64,4.64,0,0,1,4.5,5.66L263.64,190a4.65,4.65,0,0,1-4.58,3.62l-10.67-.11A4.65,4.65,0,0,1,243.94,187.71Z"/><path class="cls-7" d="M131.37,220.6a110.16,110.16,0,0,1,22.48-33.1,52.78,52.78,0,0,1,24.41-13.59,1.3,1.3,0,0,1,1,0,1.39,1.39,0,0,1,.56,1c1.92,8.8.27,16.95-3,25.16a16.77,16.77,0,0,0,2.67-2.72,4.17,4.17,0,0,1,3.44-1.58,3.45,3.45,0,0,1,2.5,2.3c2.53,6.81-1.56,15.44-5.77,20.64-6.07,7.51-15.1,12.1-24.13,15a100.3,100.3,0,0,1-10.39,2.7S123.13,241,131.37,220.6Z"/><path class="cls-7" d="M129.39,229.08C123.11,215.84,114,202.92,103,193.21A55,55,0,0,0,91,184.94c-2-1-11.32-5.57-13.28-3.73a1.38,1.38,0,0,0-.31.6,29.77,29.77,0,0,0-.88,11.77C77,198.33,78.07,205,80.78,209c0,0-5.33-7.7-8.29-3.61s-3.64,32.48,42.8,40.75C115.29,246.15,138.63,250.39,129.39,229.08Z"/><path class="cls-8" d="M191.88,191.79a8.13,8.13,0,0,1-.27,1.39,15.24,15.24,0,0,1-3.37,5.47c-9.63,11.43-21.45,24.95-35.83,23.16a9.93,9.93,0,0,1-7.47-5,14,14,0,0,1-1.3-9.12c1.45-8,6-7.72,11.51-8.12,6.21-.45,12.06-3.77,17.2-7.88,4-3.24,8.67-10.39,14-9.5C189.75,182.79,192.35,187.56,191.88,191.79Z"/><path class="cls-8" d="M153.88,256.46c-.67.27-1,7.91-1.18,8.69a77.68,77.68,0,0,1-3.26,12.55c.91,1.77,1.85,3.85,1.06,5.68-.85,2-3.26,2.67-5.38,3.08-4.91,1-10.12,1.68-14.81-.06L133,264.78C133,263.35,151.55,257.38,153.88,256.46Z"/><path class="cls-8" d="M101.66,246.25c1.44,6.76,4.22,12.81,6,19.46a60.51,60.51,0,0,1,1.36,7.7l1.26,9.54a4.57,4.57,0,0,0,.76,2.32,4.38,4.38,0,0,0,1.61,1.09,31.27,31.27,0,0,0,10.83,2.7,12.1,12.1,0,0,0,7.15-1.33c2.09-1.29,3.48-4,2.63-6.29-.39-1.05-1.19-1.94-1.4-3a6.06,6.06,0,0,1,.24-2.46l2.17-9.05c0-1.58-13.65-8.6-15.29-9.62C113.17,253.66,107.35,250,101.66,246.25Z"/><path class="cls-5" d="M156.27,207.21H105.51a34.83,34.83,0,0,1,9.73-10.34h31.3A34.83,34.83,0,0,1,156.27,207.21Z"/><path class="cls-6" d="M146.54,196.87h-31.3a27.08,27.08,0,0,1,31.3,0Z"/><path class="cls-5" d="M162.44,225.52H99.34a44.36,44.36,0,0,1,2.34-10.35h58.41A44.36,44.36,0,0,1,162.44,225.52Z"/><path class="cls-6" d="M160.09,215.17H101.68a40.36,40.36,0,0,1,3.83-8h50.76A39.78,39.78,0,0,1,160.09,215.17Z"/><path class="cls-5" d="M162.55,234a45.1,45.1,0,0,1-2,10.34h-59.3a45.1,45.1,0,0,1-2-10.34Z"/><path class="cls-6" d="M112.34,261.72h37.1a27.38,27.38,0,0,1-37.1,0Z"/><path class="cls-6" d="M160.54,244.38a41.93,41.93,0,0,1-3,7H104.21a41.93,41.93,0,0,1-3-7Z"/><path class="cls-6" d="M162.69,230.42c0,1.22-.05,2.43-.14,3.62H99.23c-.09-1.19-.14-2.4-.14-3.62a46.46,46.46,0,0,1,.25-4.9h63.1A46.46,46.46,0,0,1,162.69,230.42Z"/><path class="cls-5" d="M157.57,251.38a36.48,36.48,0,0,1-8.13,10.34h-37.1a36.48,36.48,0,0,1-8.13-10.34Z"/><path class="cls-8" d="M127.07,251.08c-2.15-.89-4.24-2.24-5.95-3.12q-7-3.59-13.76-7.46c-9-5.15-4.52-21.26-4.3-29.61a6.87,6.87,0,0,1,7-6.69l2.27.06a6.88,6.88,0,0,1,6.7,7.05q-.18,6.63-.35,13.24c-.11,4.14,2.3,4.35,5.57,5.88,4.28,2,8.52,4.45,11.75,7.95a7.9,7.9,0,0,1,2.3,4.14,8,8,0,0,1-1,4.36c-1,2.13-2.55,4.26-4.83,4.89A8.42,8.42,0,0,1,127.07,251.08Z"/><path class="cls-6" d="M135.84,212.85l2.46,13.9,6.11,1.43,3.8-3.92s-2.18-10-5.33-12.85S135.84,212.85,135.84,212.85Z"/><rect class="cls-6" x="133.88" y="206.19" width="10.01" height="6.62" rx="3.31" transform="translate(-36.77 29.7) rotate(-10.79)"/><path class="cls-6" d="M135.12,202.6l-5.46.84A37.6,37.6,0,0,1,86.75,172l-1.94-12.54A40.59,40.59,0,0,1,120.28,113a42.76,42.76,0,0,1,36.51,13.7,42.54,42.54,0,0,1,10.65,22.26l1.21,7.88A40.13,40.13,0,0,1,135.12,202.6Z"/><path class="cls-9" d="M156.79,126.67a39.56,39.56,0,0,0-8.43,1.6c-5,1.67-9.11,5.16-12.43,9.15-3.62,4.33-10.38,5.15-15.56,3.37-5-1.72-8.57-5.92-13.74-7.56-4.32-1.38-11.23-2.6-15.72-2l.14-.25a40.48,40.48,0,0,1,29.23-18,42.76,42.76,0,0,1,36.51,13.7Z"/><path class="cls-6" d="M114,111.19h9.62a3.56,3.56,0,0,1,3.56,3.56v.95a0,0,0,0,1,0,0H110.39a0,0,0,0,1,0,0v-.95A3.56,3.56,0,0,1,114,111.19Z" transform="translate(-15.93 19.46) rotate(-8.78)"/><path class="cls-6" d="M115.39,111.69s-.93-10.17,3.47-14.44c0,0,.23,13.87,2.59,13.5Z"/><circle class="cls-10" cx="118.69" cy="92.88" r="6.13"/><circle class="cls-11" cx="118.69" cy="92.88" r="4.34"/><circle class="cls-12" cx="116.55" cy="163.08" r="8.09"/><circle class="cls-12" cx="154.62" cy="157.2" r="8.09"/><circle class="cls-4" cx="112.58" cy="164.83" r="16.57"/><circle class="cls-4" cx="150.65" cy="158.94" r="16.57"/><line class="cls-4" x1="128.96" y1="162.3" x2="134.27" y2="161.47"/><line class="cls-4" x1="96.2" y1="167.36" x2="89.44" y2="160.84"/><line class="cls-4" x1="168.23" y1="154.1" x2="167.03" y2="156.41"/><path class="cls-4" d="M130.41,185.68a7.32,7.32,0,0,1,9-2"/></svg>