<svg id="Layer_1" data-name="Layer 1" xmlns="http://www.w3.org/2000/svg" viewBox="0 0 351.16 293.04"><defs><style>.cls-1,.cls-2,.cls-5{fill:#c4cbe0;}.cls-1{opacity:0.25;}.cls-10,.cls-3,.cls-7{fill:#fff;}.cls-4{fill:none;}.cls-4,.cls-5,.cls-6,.cls-7{stroke:#3e6be0;}.cls-10,.cls-4,.cls-5,.cls-6,.cls-7{stroke-linecap:round;stroke-linejoin:round;}.cls-6{fill:#3e6be0;}.cls-8{fill:#ffc4c4;}.cls-9{fill:#ff6766;}.cls-10{stroke:#ff6766;}</style></defs><path class="cls-1" d="M350.16,256.46a175.11,175.11,0,0,1-2.45,29.25H317.65A145,145,0,1,0,30.56,256.46a146,146,0,0,0,2.95,29.25H3.45a174.59,174.59,0,1,1,346.71-29.25Z"/><path class="cls-2" d="M320.6,255.46a146,146,0,0,1-3,29.25H33.51A145,145,0,1,1,320.6,255.46Z"/><path class="cls-3" d="M261.15,280.06a15.08,15.08,0,0,1-1.06,5.6H144.31a18.46,18.46,0,0,1-1.78-8A18.73,18.73,0,0,1,161.26,259a17,17,0,0,1,1.75.09,25.2,25.2,0,0,1,50-6.23,16.34,16.34,0,0,1,26.7,12.63c0,.18,0,.37,0,.55a15,15,0,0,1,6.11-1.28A15.33,15.33,0,0,1,261.15,280.06Z"/><path class="cls-3" d="M135.2,219.08c0,5.83-12.38,3.41-16.48,3.41H64.07A11.25,11.25,0,0,1,63,217.65a11.4,11.4,0,0,1,11.4-11.41,9.28,9.28,0,0,1,1.06.06,17.14,17.14,0,0,1-.1-1.76,15.34,15.34,0,0,1,30.55-2,10,10,0,0,1,16.26,7.69c0,.11,0,.23,0,.34a9.08,9.08,0,0,1,3.72-.78A9.33,9.33,0,0,1,135.2,219.08Z"/><circle class="cls-4" cx="211.64" cy="41.14" r="3.09"/><circle class="cls-4" cx="279.54" cy="262.44" r="3.53"/><line class="cls-4" x1="94.2" y1="245.99" x2="101.44" y2="245.99"/><line class="cls-4" x1="97.82" y1="242.37" x2="97.82" y2="249.61"/><line class="cls-4" x1="21.32" y1="131.93" x2="28.56" y2="131.93"/><line class="cls-4" x1="24.94" y1="128.31" x2="24.94" y2="135.55"/><line class="cls-4" x1="245.9" y1="133.39" x2="253.14" y2="133.39"/><line class="cls-4" x1="249.52" y1="129.77" x2="249.52" y2="137.01"/><line class="cls-4" x1="31.7" y1="286.49" x2="71.45" y2="286.49"/><line class="cls-4" x1="86.68" y1="286.52" x2="203.85" y2="286.52"/><line class="cls-4" x1="219.92" y1="286.64" x2="243.18" y2="286.64"/><line class="cls-4" x1="258.79" y1="286.37" x2="278.24" y2="286.37"/><line class="cls-4" x1="294.22" y1="286.67" x2="313.67" y2="286.67"/><path class="cls-5" d="M167.22,263.51c1.27.48.82,10.28.67,11.66a14.79,14.79,0,0,1-2.21,6.78,8.19,8.19,0,0,1-5.91,3.38,28.85,28.85,0,0,1-8.45-.32,12.73,12.73,0,0,1-4.65-1.43c-2.77-1.8-1.56-5.51.73-7.17.27-.19,3.1-1.83,3.14-1.35l-1.62-18.53Z"/><path class="cls-5" d="M168.48,263.39c-1.25.51-.57,10.3-.39,11.67.44,3.22,1.51,7.39,4.45,8.92,3.17,1.64,8.07,1.33,11.5.87s8.85-2.38,6.28-6.89a6.93,6.93,0,0,0-2.14-2.36c-.32-.21-2.72-1.39-2.74-1.05L186.62,256Z"/><path class="cls-5" d="M226.6,187.7a8.13,8.13,0,0,1-.27,1.39,15.37,15.37,0,0,1-3.37,5.48c-9.63,11.42-21.45,24.94-35.83,23.15a9.93,9.93,0,0,1-7.47-5,14.07,14.07,0,0,1-1.3-9.11c1.45-8,6-7.73,11.51-8.13,6.21-.45,12.06-3.76,17.2-7.88,4-3.24,8.67-10.39,14-9.5C224.47,178.7,227.07,183.47,226.6,187.7Z"/><path class="cls-5" d="M135.15,219.55c1.5-1.3,3-2.56,4.6-3.75a51.35,51.35,0,0,1,4.39-3,50.05,50.05,0,0,0,5.13-3.4,15.42,15.42,0,0,0,1.68-1.54c.11-.11.21-.23.31-.35a8.2,8.2,0,0,0,2.25-5.5,6.82,6.82,0,0,0-.6-2.59,10.67,10.67,0,0,0-1-1.81h0a8.71,8.71,0,0,0-4.75-3.5,5.14,5.14,0,0,0-1-.16,7.36,7.36,0,0,0-2.64.41c-2.56.83-5.12,2.7-7.33,3.68a103.06,103.06,0,0,0-13.68,7.19c-.59.37-1.18.78-1.79,1.17-10.57,5.74-8.87,15.46-3.07,24,4.85,7.13,12.57,13.4,18.35,15.77A13.24,13.24,0,0,0,144,247a9.27,9.27,0,0,0,5.41-3.59,11.51,11.51,0,0,0,1.94-4.07c0-.09,0-.19.08-.3a12.5,12.5,0,0,0,.18-5.42,7.53,7.53,0,0,0-4.29-5.42c-1-.46-1.84-.92-2.68-1.37a35.31,35.31,0,0,1-6.11-4,30.66,30.66,0,0,1-3.4-3.28,44.48,44.48,0,0,1-2.91-3.6c-.71-1-1.44-2-2.17-3"/><path class="cls-6" d="M192.59,205.6l-48.78,2a33.22,33.22,0,0,1,8.94-10.32l30.08-1.25A33.32,33.32,0,0,1,192.59,205.6Z"/><path class="cls-7" d="M182.83,196.05l-30.08,1.25a26,26,0,0,1,30.08-1.25Z"/><path class="cls-6" d="M199.25,223l-60.65,2.51a42.48,42.48,0,0,1,1.84-10l56.15-2.33A42.53,42.53,0,0,1,199.25,223Z"/><path class="cls-7" d="M196.59,213.1l-56.15,2.33a38.76,38.76,0,0,1,3.37-7.81l48.78-2A38.92,38.92,0,0,1,196.59,213.1Z"/><path class="cls-6" d="M199.7,231.14a43.59,43.59,0,0,1-1.52,10l-57,2.36a43.69,43.69,0,0,1-2.34-9.86Z"/><path class="cls-7" d="M152.53,259.75l35.67-1.48a26.35,26.35,0,0,1-35.67,1.48Z"/><path class="cls-7" d="M198.18,241.16A40.65,40.65,0,0,1,195.6,248l-51.3,2.12a41.36,41.36,0,0,1-3.13-6.61Z"/><path class="cls-7" d="M199.69,227.66c.05,1.17.05,2.33,0,3.48l-60.87,2.52c-.14-1.14-.23-2.3-.28-3.48a46.33,46.33,0,0,1,0-4.72L199.25,223A45.27,45.27,0,0,1,199.69,227.66Z"/><path class="cls-6" d="M195.6,248a35.22,35.22,0,0,1-7.4,10.26l-35.67,1.48a35.22,35.22,0,0,1-8.23-9.62Z"/><path class="cls-7" d="M171.66,199.09l-6.4.4A43.69,43.69,0,0,1,119,158.59l-.9-14.72a47.12,47.12,0,0,1,46-50h0a49.67,49.67,0,0,1,50.71,46.6l.57,9.24A46.6,46.6,0,0,1,171.66,199.09Z"/><path class="cls-5" d="M206.16,115.48c-5.39,0-11.07-.23-16.13,1-5.94,1.4-11.08,5-15.34,9.26-4.65,4.62-12.55,4.85-18.35,2.24-5.56-2.52-9.29-7.76-15.08-10.21a37.14,37.14,0,0,0-15.4-2.85,47.07,47.07,0,0,1,38.17-21A49.52,49.52,0,0,1,198.77,107,48.91,48.91,0,0,1,206.16,115.48Z"/><path class="cls-7" d="M156.06,91.63h12.32A3.56,3.56,0,0,1,172,95.2v1.68a0,0,0,0,1,0,0H152.5a0,0,0,0,1,0,0V95.2A3.56,3.56,0,0,1,156.06,91.63Z" transform="translate(-5.5 10.17) rotate(-3.53)"/><path class="cls-7" d="M158.51,91.86s0-11.86,5.55-16.33c0,0-1.21,16.06,1.56,15.89Z"/><circle class="cls-8" cx="164.32" cy="70.46" r="7.12"/><circle class="cls-9" cx="164.32" cy="70.46" r="5.04"/><circle class="cls-6" cx="145.82" cy="155.06" r="9.39"/><circle class="cls-6" cx="190.47" cy="152.31" r="9.39"/><circle class="cls-4" cx="144.78" cy="154.9" r="19.24"/><circle class="cls-4" cx="189.43" cy="152.14" r="19.24"/><line class="cls-4" x1="163.99" y1="153.72" x2="170.22" y2="153.33"/><line class="cls-4" x1="125.57" y1="156.09" x2="118.44" y2="147.84"/><line class="cls-4" x1="208.64" y1="150.96" x2="214.47" y2="141.91"/><path class="cls-4" d="M165,181.34a6.56,6.56,0,0,1,5.35-2.51,6.38,6.38,0,0,1,4.37,2.29"/><ellipse class="cls-10" cx="278.21" cy="118.2" rx="49.5" ry="49.35"/><path class="cls-9" d="M277.7,103.47,291,90.2a2,2,0,0,1,2.86,0l11.38,11.34a2,2,0,0,1,0,2.85l-12.77,12.74a1.59,1.59,0,0,0,0,2.28L304.15,131a2,2,0,0,1,0,2.85l-9.86,9.83a2,2,0,0,1-2.86,0L278.8,131.13a1.62,1.62,0,0,0-2.29,0L264,143.58a2,2,0,0,1-2.86,0L249.5,132a2,2,0,0,1,0-2.85l12.22-12.18a1.61,1.61,0,0,0,0-2.28l-11.81-11.77a2,2,0,0,1,0-2.86l9.71-9.67a2,2,0,0,1,2.87,0l12.91,13.1A1.62,1.62,0,0,0,277.7,103.47Z"/><path class="cls-6" d="M249,149.11h0a2,2,0,0,0-2.83.4l-34.78,46a2,2,0,0,0,.41,2.81h0a2,2,0,0,0,2.82-.4l34.78-46A2,2,0,0,0,249,149.11Z"/><path class="cls-7" d="M165.77,206.79l-.29,22.41,6.58,4.09,5.14-4.94S177,212.17,174,206.7,165.77,206.79,165.77,206.79Z"/><rect class="cls-7" x="165.33" y="204.22" width="10.01" height="6.62" rx="3.31" transform="translate(1.12 -0.91) rotate(0.31)"/><path class="cls-5" d="M219.48,196.15c-3.69,0-6.68-2.35-6.68-5.26a5.23,5.23,0,0,1,0-8.48,4.81,4.81,0,0,1,2-3.73,7.67,7.67,0,0,1,4.72-1.54c3.69,0,6.68,2.36,6.68,5.27v8.48C226.16,193.8,223.17,196.15,219.48,196.15Z"/><polygon class="cls-6" points="136.64 76.04 132.16 104.96 166.88 109.49 201.16 109.96 201.58 85.81 136.64 76.04"/><polygon class="cls-6" points="111.92 68.32 137.44 79.46 201.1 89.06 227.49 85.72 172.68 61.53 111.92 68.32"/><path class="cls-6" d="M140.29,63.94c-8.76-3.7-12.18,6.07-12.3,13-.09,5.34.36,10.55-.78,15.82a26.89,26.89,0,0,1-6.7,13.26c-1,1,.75,2.23,1.67,1.25,5.72-5.87,7.95-14.54,8-22.55,0-4.77-.74-9.77.87-14.39,1.37-3.93,4.29-6.25,8.43-4.5A1,1,0,1,0,140.29,63.94Z"/><path class="cls-6" d="M121.14,106.68s-2.12-1.4-3.37-.74-13.46,9.56-16.56,9.59a33.34,33.34,0,0,0-6.38.8l2.72,2.5-1.2.42,1.79,2.29,1.1.06-1,.84,2.17,2.56,1.17-.8-.78,1.25,1.49,1.75,1.19-.41-.59,1.1,1.58,1.88s1.84-4,4.61-4.89,9.8-10.69,10.31-11.91,3-4.59,1.73-6.29Z"/><path class="cls-6" d="M119.74,107.84a1.52,1.52,0,1,0,2.2-1.87c-.71-.84-1.79-1.11-2.38-.57A1.77,1.77,0,0,0,119.74,107.84Z"/></svg>