<svg id="Layer_1" data-name="Layer 1" xmlns="http://www.w3.org/2000/svg" viewBox="0 0 351.16 293.04"><defs><style>.cls-1,.cls-2,.cls-7{fill:#c4cbe0;}.cls-1{opacity:0.25;}.cls-3,.cls-6{fill:#fff;}.cls-4{fill:none;}.cls-12,.cls-4,.cls-5,.cls-6,.cls-7,.cls-8,.cls-9{stroke:#3e6be0;stroke-linecap:round;stroke-linejoin:round;}.cls-5,.cls-8{fill:#3e6be0;}.cls-8{opacity:0.4;}.cls-9{fill:#cad1e6;}.cls-10{fill:#ffc4c4;}.cls-11{fill:#ff6766;}.cls-12{fill:#3e6be6;}</style></defs><path class="cls-1" d="M349.7,257.2a175.11,175.11,0,0,1-2.45,29.25H317.19A145,145,0,1,0,30.1,257.2a146,146,0,0,0,2.95,29.25H3A174.59,174.59,0,1,1,349.7,257.2Z"/><path class="cls-2" d="M320.14,257.2a146,146,0,0,1-2.95,29.25H33.05A145,145,0,1,1,320.14,257.2Z"/><path class="cls-3" d="M262.68,281.27a15.08,15.08,0,0,1-1.06,5.6H145.84a18.46,18.46,0,0,1-1.78-8,18.73,18.73,0,0,1,18.73-18.73,17,17,0,0,1,1.75.09,25.2,25.2,0,0,1,50-6.23,16.34,16.34,0,0,1,26.7,12.63c0,.18,0,.37,0,.55a15,15,0,0,1,6.11-1.28A15.33,15.33,0,0,1,262.68,281.27Z"/><path class="cls-3" d="M136.74,219.83c0,5.83-12.38,3.41-16.48,3.41H65.61a11.27,11.27,0,0,1-1.09-4.85A11.4,11.4,0,0,1,75.93,207,9.4,9.4,0,0,1,77,207a14.6,14.6,0,0,1-.1-1.76,15.34,15.34,0,0,1,30.55-2,9.95,9.95,0,0,1,16.25,7.69v.33a9.21,9.21,0,0,1,3.72-.78A9.34,9.34,0,0,1,136.74,219.83Z"/><circle class="cls-4" cx="283.39" cy="264.24" r="3.37"/><circle class="cls-4" cx="125.01" cy="191.32" r="2.42"/><circle class="cls-4" cx="60.44" cy="106.98" r="3"/><circle class="cls-4" cx="83.41" cy="57.72" r="2"/><circle class="cls-4" cx="230.87" cy="48.07" r="2.33"/><circle class="cls-4" cx="178.71" cy="258.91" r="1.08"/><line class="cls-4" x1="34.75" y1="287.24" x2="74.51" y2="287.24"/><line class="cls-4" x1="89.74" y1="287.27" x2="206.9" y2="287.27"/><line class="cls-4" x1="222.98" y1="287.39" x2="246.24" y2="287.39"/><line class="cls-4" x1="261.84" y1="287.12" x2="281.3" y2="287.12"/><line class="cls-4" x1="297.27" y1="287.42" x2="316.73" y2="287.42"/><line class="cls-4" x1="95.74" y1="246.73" x2="102.97" y2="246.73"/><line class="cls-4" x1="99.36" y1="243.11" x2="99.36" y2="250.35"/><line class="cls-4" x1="44.93" y1="182.31" x2="52.17" y2="182.31"/><line class="cls-4" x1="48.55" y1="178.69" x2="48.55" y2="185.93"/><line class="cls-4" x1="247.44" y1="167.38" x2="254.68" y2="167.38"/><line class="cls-4" x1="251.06" y1="163.76" x2="251.06" y2="171"/><path class="cls-5" d="M203.75,243.86l-34,8.49a5.48,5.48,0,0,0-4.13,6.75h0a6,6,0,0,0,7.14,4l35.11-7.88Z"/><path class="cls-5" d="M249.47,231.83s4.61,9.43,4.1,13.54-29.46,23.85-47.81,9.65c0,0-7.61-11.35-.07-16.18S249.47,231.83,249.47,231.83Z"/><ellipse class="cls-5" cx="226.78" cy="237.03" rx="23.14" ry="7.33" transform="translate(-47.51 57.09) rotate(-13)"/><ellipse class="cls-6" cx="226.07" cy="238.38" rx="20.13" ry="6.37" transform="translate(-47.83 56.97) rotate(-13)"/><path class="cls-7" d="M132.7,171.27a5.77,5.77,0,0,0-.41,1c-1,3.34,1,7.63,1.59,10.92a103.88,103.88,0,0,0,3.77,15.35c3.46,10.21,9.77,21.23,19.45,26.88,3.14,1.83,7.05,2.72,10.49,1.52a11,11,0,0,0,6.41-6.48c1.69-4.37,1.51-8.79-2.63-11.56-6.34-4.24-9.94-7.68-13.66-14.62-2.66-5-5.33-10-7-15.32a32.73,32.73,0,0,0-3.23-8,8.88,8.88,0,0,0-5.24-4A9.53,9.53,0,0,0,132.7,171.27Z"/><path class="cls-8" d="M137.38,185.36c-6.64-15.46-16.57-30.7-28.81-42.35A63.25,63.25,0,0,0,95,133c-2.25-1.22-12.84-6.92-15.2-4.92a1.54,1.54,0,0,0-.39.68,33.78,33.78,0,0,0-1.6,13.43c.35,5.47,1.28,13.15,4.22,17.88,0,0-5.8-9.07-9.43-4.54s-5.8,37,47.64,48.74C120.21,204.23,147.05,210.2,137.38,185.36Z"/><path class="cls-7" d="M139.26,234.81l-1.67,28.46s5.61,1.61,2.89,7.26c-1.26,2.62-5.34,3.17-7.89,3.42a37.48,37.48,0,0,1-12.66-1c-3.11-.78-6.36-1.92-8.56-4.33s-2.28-6.26-1.7-9.38c.53-2.87,1.36-5.68,1.91-8.55s.65-5.67,1-8.53,1.1-5.93,4-7c2.49-.88,9.9.54,12.39-.33C129.79,234.56,139.22,235.48,139.26,234.81Z"/><path class="cls-7" d="M134.6,246.63l-1.67,28.46s5.6,1.61,2.89,7.26c-1.26,2.62-5.34,3.17-7.89,3.42a37.48,37.48,0,0,1-12.66-1c-3.11-.79-6.36-1.92-8.56-4.33s-2.28-6.26-1.7-9.38c.53-2.87,1.36-5.68,1.91-8.55s.64-5.67,1-8.53,1.1-5.94,4-7c2.48-.88,9.9.54,12.39-.33C125.12,246.38,134.56,247.3,134.6,246.63Z"/><path class="cls-7" d="M169.57,215.34a5.21,5.21,0,0,0,.62.84c2.37,2.6,7.14,3.08,10.29,4.3a106.81,106.81,0,0,0,15.25,4.74c10.63,2.35,23.44,2.71,33.33-2.56,3.22-1.71,6-4.55,6.75-8.09a10.86,10.86,0,0,0-2.31-8.77c-2.91-3.68-6.83-5.82-11.37-3.75-7,3.18-11.8,4.44-19.73,4-5.68-.31-11.39-.63-16.9-2a33.6,33.6,0,0,0-8.6-1.4,9,9,0,0,0-6.17,2.36A9.27,9.27,0,0,0,169.57,215.34Z"/><path class="cls-5" d="M189.89,200l-60.31-35.38a48.37,48.37,0,0,1,18.86-5.36L185.63,181A46.9,46.9,0,0,1,189.89,200Z"/><path class="cls-6" d="M185.08,183l-35-25.11a38.19,38.19,0,0,1,21.55,7A37.55,37.55,0,0,1,185.08,183Z"/><path class="cls-5" d="M185,225.65a314.31,314.31,0,0,1-38.38-18.42,314.74,314.74,0,0,1-37.15-24.65,61.49,61.49,0,0,1,4.73-5.7,59.21,59.21,0,0,1,5.23-4.94,356.59,356.59,0,0,1,37.39,18.71,356.76,356.76,0,0,1,32.52,21.17C189,213.92,188.43,216.26,185,225.65Z"/><path class="cls-6" d="M189.37,211.82l-69.91-39.88a55.4,55.4,0,0,1,10.08-6.8l60.75,34.65A54.79,54.79,0,0,1,189.37,211.82Z"/><path class="cls-5" d="M179.27,235.81a62.11,62.11,0,0,1-9.54,10.85l-71-40.49a61.4,61.4,0,0,1,4.74-13.59Z"/><path class="cls-6" d="M100,234.27l44.41,25.33a39.26,39.26,0,0,1-27.21-4.11A38.44,38.44,0,0,1,100,234.27Z"/><path class="cls-6" d="M169.73,246.66a58.51,58.51,0,0,1-8.4,6.26L97.45,216.48a56.56,56.56,0,0,1,1.29-10.31Z"/><path class="cls-6" d="M181.94,231.62c-.84,1.45-1.73,2.84-2.67,4.19-10.5-7.46-22.33-15.18-35.52-22.76a437.67,437.67,0,0,0-40.27-20.47c.32-.67.69-1.41,1.12-2.2s.79-1.46,1.21-2.18a63.34,63.34,0,0,1,3.69-5.62L185,225.65A62.62,62.62,0,0,1,181.94,231.62Z"/><path class="cls-5" d="M161.33,252.92a51,51,0,0,1-16.88,6.68L100,234.27a49.52,49.52,0,0,1-2.59-17.79Z"/><path class="cls-7" d="M159.06,206.91a5.18,5.18,0,0,0-.49.93c-1.32,3.24.35,7.69.64,11a103.08,103.08,0,0,0,2.41,15.62c2.56,10.46,7.89,22,17,28.42,3,2.1,6.78,3.32,10.32,2.41a11,11,0,0,0,7-5.91c2.06-4.21,2.27-8.63-1.61-11.74-6-4.76-9.24-8.5-12.34-15.73-2.22-5.17-4.45-10.37-5.66-15.85a32.43,32.43,0,0,0-2.52-8.25,8.84,8.84,0,0,0-4.87-4.43A9.56,9.56,0,0,0,159.06,206.91Z"/><path class="cls-8" d="M133.47,197.2c-6.64-15.46-16.56-30.7-28.8-42.35a63.83,63.83,0,0,0-13.6-10c-2.26-1.22-12.85-6.92-15.21-4.92a1.53,1.53,0,0,0-.38.68A34,34,0,0,0,73.87,154c.36,5.46,1.29,13.15,4.23,17.88,0,0-5.81-9.08-9.43-4.54s-5.81,37,47.63,48.73C116.3,216.07,143.14,222.05,133.47,197.2Z"/><path class="cls-6" d="M211.56,224.87s15.07,2.1,19.06,1.82c0,0,10.95-27.26,16.64-30.21,0,0-19.77-7.59-23.61-5.34C223.65,191.14,206.72,212.36,211.56,224.87Z"/><ellipse class="cls-6" cx="267.24" cy="277.57" rx="49.11" ry="4.13"/><path class="cls-6" d="M165.05,187.26l4.91,3a39.24,39.24,0,0,0,54-12.94L230.85,166A42.34,42.34,0,0,0,215.47,107h0a44.63,44.63,0,0,0-59.89,15.6l-4.35,7.08A41.89,41.89,0,0,0,165.05,187.26Z"/><path class="cls-9" d="M212.87,105.63c1.15,2.27,2.56,4.41,3.88,6.59.38.61.75,1.23,1.09,1.84.14.25.29.51.42.77.31.54.58,1.08.84,1.64.12.24.22.5.33.75a8.41,8.41,0,0,1,.35.82,21.9,21.9,0,0,1,.93,3,31.87,31.87,0,0,1,0,13.05c-1.06,5.8,2.81,11.76,7.69,14.72a32.49,32.49,0,0,0,7.91,3A42.32,42.32,0,0,0,215.47,107C214.61,106.5,213.74,106,212.87,105.63Z"/><path class="cls-6" d="M220.71,121.06a21.9,21.9,0,0,0-.93-3,8.41,8.41,0,0,0-.35-.82c-.1-.25-.21-.51-.33-.75-.26-.56-.53-1.1-.84-1.64-.13-.26-.28-.52-.42-.77-.34-.61-.71-1.23-1.09-1.84"/><path class="cls-6" d="M208.87,104.26h17.48a0,0,0,0,1,0,0v1.15a3.56,3.56,0,0,1-3.56,3.56H212.43a3.56,3.56,0,0,1-3.56-3.56v-1.15A0,0,0,0,1,208.87,104.26Z" transform="translate(347.39 311.25) rotate(-148.49)"/><path class="cls-6" d="M221.56,106.28s5-9.42,2.48-15.29c0,0-5.81,13.25-7.93,12Z"/><circle class="cls-10" cx="225.97" cy="86.85" r="6.4"/><circle class="cls-11" cx="225.97" cy="86.85" r="4.53"/><circle class="cls-12" cx="210.02" cy="168.84" r="8.44"/><circle class="cls-4" cx="207.05" cy="161.68" r="17.29"/><line class="cls-4" x1="227.2" y1="171.97" x2="221.79" y2="170.72"/></svg>