<svg id="Layer_1" data-name="Layer 1" xmlns="http://www.w3.org/2000/svg" xmlns:xlink="http://www.w3.org/1999/xlink" viewBox="0 0 351.16 293.04"><defs><style>.cls-1,.cls-5{fill:none;}.cls-2,.cls-3,.cls-6{fill:#c4cbe0;}.cls-2{opacity:0.25;}.cls-11,.cls-4{fill:#fff;}.cls-11,.cls-12,.cls-5,.cls-6,.cls-7,.cls-8{stroke:#3e6be0;stroke-linecap:round;stroke-linejoin:round;}.cls-10,.cls-12,.cls-7{fill:#3e6be0;}.cls-7{opacity:0.3;}.cls-8{fill:#d7e4f8;}.cls-9{clip-path:url(#clip-path);}.cls-13{fill:#ffd4d5;}.cls-14{fill:#ff5960;}.cls-15,.cls-16{fill:#ffb600;}.cls-16{opacity:0.2;}</style><clipPath id="clip-path"><rect class="cls-1" x="88.35" y="110.88" width="188.96" height="176.54"/></clipPath></defs><path class="cls-2" d="M348.79,256.9a175.11,175.11,0,0,1-2.45,29.25H316.28A145,145,0,1,0,29.19,256.9a146,146,0,0,0,2.95,29.25H2.08A174.59,174.59,0,1,1,348.79,256.9Z"/><path class="cls-3" d="M319.23,256.9a146,146,0,0,1-3,29.25H32.14A145,145,0,1,1,319.23,256.9Z"/><path class="cls-4" d="M261.78,281a15.08,15.08,0,0,1-1.06,5.6H144.94a18.46,18.46,0,0,1-1.78-8,18.73,18.73,0,0,1,18.73-18.73,17,17,0,0,1,1.75.09,25.2,25.2,0,0,1,50-6.23,16.34,16.34,0,0,1,26.7,12.63c0,.18,0,.37,0,.55a15,15,0,0,1,6.11-1.28A15.33,15.33,0,0,1,261.78,281Z"/><path class="cls-4" d="M135.83,219.53c0,5.83-12.38,3.4-16.48,3.4H64.7a11.18,11.18,0,0,1-1.08-4.84A11.39,11.39,0,0,1,75,206.69a9.29,9.29,0,0,1,1.06.05A17,17,0,0,1,76,205a15.34,15.34,0,0,1,30.55-2,9.95,9.95,0,0,1,16.26,7.69c0,.11,0,.22,0,.33a9.32,9.32,0,0,1,13.05,8.56Z"/><circle class="cls-5" cx="125.29" cy="265.89" r="2.95"/><circle class="cls-5" cx="282.48" cy="263.94" r="3.37"/><circle class="cls-5" cx="124.1" cy="191.02" r="2.42"/><circle class="cls-5" cx="59.54" cy="106.68" r="3"/><circle class="cls-5" cx="82.5" cy="57.42" r="2"/><circle class="cls-5" cx="229.96" cy="47.77" r="2.33"/><circle class="cls-5" cx="177.81" cy="258.61" r="1.08"/><line class="cls-5" x1="33.85" y1="286.94" x2="73.6" y2="286.94"/><line class="cls-5" x1="88.83" y1="286.97" x2="206" y2="286.97"/><line class="cls-5" x1="222.07" y1="287.09" x2="245.33" y2="287.09"/><line class="cls-5" x1="260.94" y1="286.82" x2="280.39" y2="286.82"/><line class="cls-5" x1="296.37" y1="287.12" x2="315.83" y2="287.12"/><line class="cls-5" x1="94.83" y1="246.43" x2="102.07" y2="246.43"/><line class="cls-5" x1="98.45" y1="242.81" x2="98.45" y2="250.05"/><line class="cls-5" x1="44.02" y1="182" x2="51.26" y2="182"/><line class="cls-5" x1="47.64" y1="178.39" x2="47.64" y2="185.62"/><line class="cls-5" x1="246.54" y1="167.08" x2="253.77" y2="167.08"/><line class="cls-5" x1="250.15" y1="163.46" x2="250.15" y2="170.7"/><circle class="cls-6" cx="118.48" cy="215.69" r="5.57"/><path class="cls-7" d="M198,269.64a107,107,0,0,1,21.24-32.37,51.12,51.12,0,0,1,23.4-13.52,1.33,1.33,0,0,1,.94,0,1.36,1.36,0,0,1,.56,1c2,8.48.53,16.39-2.48,24.38a16.14,16.14,0,0,0,2.55-2.67,4,4,0,0,1,3.3-1.58A3.32,3.32,0,0,1,250,247c2.55,6.54-1.26,15-5.25,20.05-5.77,7.36-14.43,11.94-23.12,14.91a96.36,96.36,0,0,1-10,2.78S190.35,289.53,198,269.64Z"/><path class="cls-7" d="M196.74,270c-5.53-13.05-13.81-25.91-24-35.75a53.36,53.36,0,0,0-11.34-8.48c-1.88-1-10.71-5.84-12.68-4.15a1.28,1.28,0,0,0-.32.58A28.82,28.82,0,0,0,147,233.53c.3,4.61,1.07,11.09,3.52,15.09,0,0-4.84-7.67-7.86-3.83s-4.84,31.25,39.72,41.13C182.42,285.92,204.81,291,196.74,270Z"/><path class="cls-8" d="M169.76,236.49a7.08,7.08,0,0,0-1,.21c-3.13.94-5.09,4-7.19,5.72a80.54,80.54,0,0,0-9.18,8.87c-5.52,6.4-9.92,14.69-8.26,22.38a8.9,8.9,0,0,0,5.24,6.29,14.17,14.17,0,0,0,8.73.54c4.29-1,7.49-3.11,7-6.56-.69-5.28-.3-8.74,2.62-13.83A58.93,58.93,0,0,1,175,249.53a21.81,21.81,0,0,0,4-5.29,4.59,4.59,0,0,0-.2-4.59C177.34,237.53,173,236,169.76,236.49Z"/><g class="cls-9"><path class="cls-10" d="M220,245.88H165a37.68,37.68,0,0,1,10.55-11.21h34A37.8,37.8,0,0,1,220,245.88Z"/><path class="cls-4" d="M209.46,234.67h-34a29.38,29.38,0,0,1,34,0Z"/><path class="cls-10" d="M226.7,265.74H158.27a47.52,47.52,0,0,1,2.54-11.22h63.35A47.52,47.52,0,0,1,226.7,265.74Z"/><path class="cls-4" d="M224.16,254.52H160.81a43.88,43.88,0,0,1,4.15-8.64h55A43.88,43.88,0,0,1,224.16,254.52Z"/><path class="cls-10" d="M226.82,275a49.15,49.15,0,0,1-2.17,11.21H160.32A49.7,49.7,0,0,1,158.14,275Z"/><path class="cls-4" d="M224.65,286.2a46.26,46.26,0,0,1-3.22,7.59H163.54a46.26,46.26,0,0,1-3.22-7.59Z"/><path class="cls-4" d="M227,271.06c0,1.33-.05,2.63-.15,3.93H158.14c-.1-1.3-.15-2.6-.15-3.93a49.08,49.08,0,0,1,.28-5.32H226.7A51.77,51.77,0,0,1,227,271.06Z"/></g><path class="cls-11" d="M148.34,248.27,158.83,285a2.83,2.83,0,0,0,3.48,1.95l19.81-5.5a2.84,2.84,0,0,0,2-3.51l-10.66-37a2.82,2.82,0,0,0-3.52-1.93l-19.65,5.81A2.84,2.84,0,0,0,148.34,248.27Z"/><circle class="cls-12" cx="154.23" cy="251.45" r="2.2"/><circle class="cls-12" cx="158.81" cy="249.7" r="0.76"/><path class="cls-11" d="M199.75,244.29l-4.89.34a33.39,33.39,0,0,1-35.62-31l-.79-11.25a36,36,0,0,1,34.84-38.5h0a38,38,0,0,1,39,35.32l.49,7.06A35.63,35.63,0,0,1,199.75,244.29Z"/><path class="cls-6" d="M225.62,180.17c-4.12,0-8.46-.12-12.32.82a25,25,0,0,0-11.67,7.17c-3.53,3.56-9.57,3.78-14,1.82-4.27-1.89-7.15-5.87-11.59-7.71a28.19,28.19,0,0,0-11.79-2.09,36,36,0,0,1,29-16.29,37.88,37.88,0,0,1,26.63,9.8A37,37,0,0,1,225.62,180.17Z"/><path class="cls-11" d="M186.71,162.56h11a2,2,0,0,1,2,2V166a.54.54,0,0,1-.54.54H185.3a.54.54,0,0,1-.54-.54v-1.51A2,2,0,0,1,186.71,162.56Z" transform="translate(-10.95 13.73) rotate(-3.98)"/><path class="cls-11" d="M189.34,162.48c0-1.46.34-8.51,3.67-11.82a.25.25,0,0,1,.44.18c-.12,2.17-.42,9.5.74,11.19a.24.24,0,0,1-.18.39l-4.4.31A.25.25,0,0,1,189.34,162.48Z"/><circle class="cls-13" cx="193.65" cy="146.36" r="5.44"/><circle class="cls-14" cx="193.65" cy="146.36" r="3.86"/><circle class="cls-12" cx="181.48" cy="208.97" r="7.18"/><circle class="cls-12" cx="215.59" cy="206.6" r="7.18"/><circle class="cls-5" cx="178.94" cy="210.66" r="14.71"/><circle class="cls-5" cx="213.05" cy="208.29" r="14.71"/><line class="cls-5" x1="193.62" y1="209.64" x2="198.38" y2="209.31"/><line class="cls-5" x1="164.26" y1="211.69" x2="158.76" y2="205.42"/><line class="cls-5" x1="227.73" y1="207.27" x2="232.14" y2="200.32"/><path class="cls-6" d="M211.61,247.18l-.29.26c-2.07,1.9-2.63,4.12-3.85,6.39-1.27-.57-2.5-1.25-3.84-1.7-.62-.21-6.18-1.63-6.36-.89,1.7-7-7-12.68-13.07-9.83-3.59,1.69-6.53,4.53-7,8.66-.66,6.28,4,12.12,8.81,15.68,5.32,4,11.82,6.14,18.35,7.08,4.44.65,10.67,1.7,14.92-.06,2.62-1.08,4.4-3.53,5.78-5.91,3.08-5.32,5.18-14.71.09-19.42a9.36,9.36,0,0,0-4.17-2.26A11.53,11.53,0,0,0,211.61,247.18Z"/><path class="cls-5" d="M194.45,257s4.15-2.69,2.81-6.23"/><path class="cls-6" d="M150.53,261.66a11,11,0,0,1,1.2-.48,12,12,0,0,1,2.54-.58,8.83,8.83,0,0,1,5,1.07c4.2,2.35,5.47,7.73,3.95,12.08-1.17,3.35-4.56,7.47-8.49,7.35s-7.55-1-9.76-4.53a17.44,17.44,0,0,1-2.15-6.18c-.9-5,2.77-13.1,7.65-15.16a6,6,0,0,1,1,4.27A5.56,5.56,0,0,1,150.53,261.66Z"/><path class="cls-11" d="M111.38,225l10.44,14.55a1.29,1.29,0,0,0,2.33-.67l1.95-30.1,23.64-30.4a5.77,5.77,0,0,0-.9-8l-24.73-20.26a5.79,5.79,0,0,0-8.14.81L66,211.93a5.79,5.79,0,0,0,.81,8.14l24.84,20.34a5.78,5.78,0,0,0,8.2-.87Z"/><line class="cls-5" x1="86.87" y1="225.16" x2="131.31" y2="170.9"/><line class="cls-5" x1="93.29" y1="230.42" x2="137.73" y2="176.16"/><path class="cls-15" d="M76.62,210.23l2.09.85a.73.73,0,0,0,.81-.2L81,209.16a.7.7,0,0,1,1.24.5l-.16,2.25a.71.71,0,0,0,.44.7l2.09.85a.71.71,0,0,1-.1,1.34l-2.18.54a.71.71,0,0,0-.54.64l-.16,2.25a.7.7,0,0,1-1.3.32l-1.19-1.91a.71.71,0,0,0-.77-.31l-2.19.54a.71.71,0,0,1-.71-1.14L76.89,214a.71.71,0,0,0,.06-.83l-1.19-1.91A.71.71,0,0,1,76.62,210.23Z"/><path class="cls-15" d="M86,199.1l2.09.84a.7.7,0,0,0,.81-.2L90.34,198a.7.7,0,0,1,1.24.51l-.16,2.24a.72.72,0,0,0,.44.71l2.09.84a.71.71,0,0,1-.1,1.35l-2.18.54a.7.7,0,0,0-.54.63L91,207.09a.7.7,0,0,1-1.3.32l-1.19-1.91a.72.72,0,0,0-.77-.31l-2.19.54a.71.71,0,0,1-.71-1.14l1.45-1.72a.71.71,0,0,0,.06-.83l-1.19-1.91A.7.7,0,0,1,86,199.1Z"/><path class="cls-15" d="M95.69,187.57l2.09.84a.69.69,0,0,0,.81-.2l1.45-1.72a.7.7,0,0,1,1.24.5l-.16,2.25a.72.72,0,0,0,.44.71l2.09.84a.71.71,0,0,1-.09,1.34l-2.19.55a.71.71,0,0,0-.54.63l-.16,2.25a.7.7,0,0,1-1.3.32L98.18,194a.71.71,0,0,0-.77-.31l-2.19.54a.71.71,0,0,1-.71-1.14L96,191.34a.71.71,0,0,0,.06-.83l-1.19-1.91A.7.7,0,0,1,95.69,187.57Z"/><path class="cls-15" d="M106.16,175.13l2.09.85a.71.71,0,0,0,.8-.2l1.45-1.73a.71.71,0,0,1,1.25.51l-.16,2.25a.69.69,0,0,0,.44.7l2.09.85a.71.71,0,0,1-.1,1.34l-2.19.54a.71.71,0,0,0-.53.64l-.16,2.24a.71.71,0,0,1-1.31.33l-1.19-1.91a.71.71,0,0,0-.77-.32l-2.18.54a.71.71,0,0,1-.72-1.14l1.45-1.72a.69.69,0,0,0,.06-.83l-1.19-1.91A.71.71,0,0,1,106.16,175.13Z"/><path class="cls-16" d="M116.74,162.55l2.09.85a.73.73,0,0,0,.81-.2l1.45-1.73a.71.71,0,0,1,1.24.51l-.16,2.25a.71.71,0,0,0,.44.7l2.09.85a.71.71,0,0,1-.1,1.34l-2.18.54a.71.71,0,0,0-.54.64l-.16,2.24a.7.7,0,0,1-1.3.33L119.23,169a.73.73,0,0,0-.77-.32l-2.19.55a.71.71,0,0,1-.71-1.15l1.45-1.72a.71.71,0,0,0,.06-.83l-1.19-1.91A.7.7,0,0,1,116.74,162.55Z"/><circle class="cls-5" cx="196.74" cy="229.89" r="2.34"/></svg>