<svg id="Layer_1" data-name="Layer 1" xmlns="http://www.w3.org/2000/svg" viewBox="0 0 351.16 293.04"><defs><style>.cls-1,.cls-2,.cls-7{fill:#c4cbe0;}.cls-1{opacity:0.25;}.cls-3,.cls-5{fill:#fff;}.cls-4{fill:none;}.cls-12,.cls-4,.cls-5,.cls-6,.cls-7,.cls-8,.cls-9{stroke:#3e6be0;stroke-linecap:round;stroke-linejoin:round;}.cls-6,.cls-8{fill:#3e6be0;}.cls-6{opacity:0.4;}.cls-9{fill:#cad1e6;}.cls-10{fill:#ffc4c4;}.cls-11{fill:#ff6766;}.cls-12{fill:#3e6be6;}</style></defs><path class="cls-1" d="M350.05,245.32a175.11,175.11,0,0,1-2.45,29.25H317.54A145,145,0,1,0,30.45,245.32a146,146,0,0,0,2.95,29.25H3.34a174.59,174.59,0,1,1,346.71-29.25Z"/><path class="cls-2" d="M320.49,245.32a146,146,0,0,1-2.95,29.25H33.4a145,145,0,1,1,287.09-29.25Z"/><path class="cls-3" d="M263,269.39A15.08,15.08,0,0,1,262,275H146.2a18.46,18.46,0,0,1-1.78-8,18.73,18.73,0,0,1,18.73-18.73,17,17,0,0,1,1.75.09,25.2,25.2,0,0,1,50-6.23,16.34,16.34,0,0,1,26.7,12.63c0,.18,0,.37,0,.55a15,15,0,0,1,6.11-1.28A15.33,15.33,0,0,1,263,269.39Z"/><path class="cls-3" d="M137.09,207.94c0,5.84-12.38,3.41-16.48,3.41H66a11.18,11.18,0,0,1-1.08-4.84,11.4,11.4,0,0,1,11.4-11.41,9.28,9.28,0,0,1,1.06.06,17,17,0,0,1-.1-1.76,15.34,15.34,0,0,1,30.55-2,9.95,9.95,0,0,1,16.26,7.69c0,.1,0,.22,0,.33a9.08,9.08,0,0,1,3.72-.78A9.33,9.33,0,0,1,137.09,207.94Z"/><circle class="cls-4" cx="141.16" cy="253.83" r="2.95"/><circle class="cls-4" cx="283.74" cy="252.36" r="3.37"/><circle class="cls-4" cx="125.36" cy="179.44" r="2.42"/><circle class="cls-4" cx="60.8" cy="95.1" r="3"/><circle class="cls-4" cx="83.76" cy="45.84" r="2"/><circle class="cls-4" cx="231.22" cy="36.18" r="2.33"/><circle class="cls-4" cx="179.07" cy="247.03" r="1.08"/><line class="cls-4" x1="35.11" y1="275.36" x2="74.86" y2="275.36"/><line class="cls-4" x1="90.09" y1="275.39" x2="207.26" y2="275.39"/><line class="cls-4" x1="223.33" y1="275.51" x2="246.59" y2="275.51"/><line class="cls-4" x1="262.19" y1="275.24" x2="281.65" y2="275.24"/><line class="cls-4" x1="297.63" y1="275.54" x2="317.08" y2="275.54"/><line class="cls-4" x1="96.09" y1="234.85" x2="103.33" y2="234.85"/><line class="cls-4" x1="99.71" y1="231.23" x2="99.71" y2="238.47"/><line class="cls-4" x1="45.28" y1="170.42" x2="52.52" y2="170.42"/><line class="cls-4" x1="48.9" y1="166.8" x2="48.9" y2="174.04"/><line class="cls-4" x1="247.8" y1="155.5" x2="255.03" y2="155.5"/><line class="cls-4" x1="251.41" y1="151.88" x2="251.41" y2="159.12"/><path class="cls-5" d="M276.24,86.63A12.4,12.4,0,0,1,288.54,99v52.29c0,7.74-5.45,14-12.16,14H211.71c-6.72,0-12.16-6.27-12.16-14V98.51A12.42,12.42,0,0,1,212.06,86.1Z"/><path class="cls-6" d="M138.53,210.12A110.41,110.41,0,0,1,161,177a53,53,0,0,1,24.41-13.59,1.41,1.41,0,0,1,1,0,1.39,1.39,0,0,1,.56,1c1.92,8.8.27,16.95-3,25.15a16.7,16.7,0,0,0,2.67-2.71,4.14,4.14,0,0,1,3.44-1.58,3.43,3.43,0,0,1,2.5,2.3c2.53,6.8-1.56,15.44-5.77,20.64-6.07,7.51-15.1,12.09-24.13,15A97.88,97.88,0,0,1,152.31,226S130.29,230.55,138.53,210.12Z"/><path class="cls-6" d="M136.55,218.61c-6.28-13.24-15.39-26.16-26.36-35.88a54.94,54.94,0,0,0-12.07-8.26c-2-1-11.32-5.57-13.28-3.74a1.35,1.35,0,0,0-.3.61,29.78,29.78,0,0,0-.89,11.77c.5,4.75,1.58,11.41,4.29,15.43,0,0-5.33-7.71-8.29-3.62s-3.64,32.49,42.8,40.76C122.45,235.68,145.79,239.91,136.55,218.61Z"/><line class="cls-4" x1="244" y1="118.87" x2="244" y2="126.72"/><path class="cls-7" d="M254.82,107.32h-2.44a.5.5,0,0,1-.49-.37,8.25,8.25,0,0,0-.77-1.77.5.5,0,0,1,.06-.59l1.67-1.8a.81.81,0,0,0,0-1.15l-1.62-1.51a.82.82,0,0,0-1.16,0l-1.66,1.78a.5.5,0,0,1-.61.1,8.59,8.59,0,0,0-1.22-.48.55.55,0,0,1-.4-.52V98.62a.81.81,0,0,0-.81-.81h-2.22a.82.82,0,0,0-.82.81v2.43a.53.53,0,0,1-.39.51,8,8,0,0,0-1.21.48.53.53,0,0,1-.62-.11l-1.66-1.78a.81.81,0,0,0-1.15,0l-1.63,1.51a.83.83,0,0,0,0,1.15l1.68,1.81a.47.47,0,0,1,.06.57,8.31,8.31,0,0,0-.77,1.75.51.51,0,0,1-.48.37h-2.45a.81.81,0,0,0-.81.81v2.22a.82.82,0,0,0,.81.82h2.44a.51.51,0,0,1,.49.37,7.78,7.78,0,0,0,.77,1.77.51.51,0,0,1-.06.6l-1.67,1.79a.81.81,0,0,0,0,1.15l1.62,1.52a.83.83,0,0,0,1.15,0l1.67-1.79a.51.51,0,0,1,.61-.1,8.59,8.59,0,0,0,1.22.48.55.55,0,0,1,.39.52v2.42a.82.82,0,0,0,.82.81h2.22a.81.81,0,0,0,.81-.81v-2.43a.54.54,0,0,1,.39-.51,6.72,6.72,0,0,0,1.22-.48.52.52,0,0,1,.61.11l1.66,1.78a.81.81,0,0,0,1.15,0l1.63-1.51a.81.81,0,0,0,0-1.15l-1.68-1.81a.48.48,0,0,1,0-.57,8.23,8.23,0,0,0,.77-1.74.49.49,0,0,1,.48-.37h2.45a.81.81,0,0,0,.81-.81v-2.22A.82.82,0,0,0,254.82,107.32Z"/><circle class="cls-5" cx="244.21" cy="109.21" r="4.07"/><rect class="cls-5" x="240.25" y="144.17" width="7.84" height="7.84" transform="translate(-33.2 216.03) rotate(-45)"/><polyline class="cls-4" points="249.58 132.26 265.53 132.26 265.53 137.97"/><polyline class="cls-4" points="238.49 132.26 222.55 132.26 222.55 138.27"/><line class="cls-4" x1="244.04" y1="137.81" x2="244.04" y2="142.61"/><rect class="cls-5" x="215.02" y="137.55" width="14.92" height="9.44"/><rect class="cls-5" x="258.15" y="137.55" width="14.92" height="9.44"/><circle class="cls-8" cx="243.93" cy="132.45" r="5.73"/><rect class="cls-8" x="208.44" y="139.59" width="4.48" height="40.87" rx="1.84" transform="translate(147.62 -96.91) rotate(38.99)"/><path class="cls-7" d="M202.56,175.17a8.66,8.66,0,0,1-.29,1.45,15.9,15.9,0,0,1-3.53,5.74c-10.1,12-22.49,26.16-37.56,24.27a10.36,10.36,0,0,1-7.83-5.19,14.76,14.76,0,0,1-1.36-9.56c1.52-8.38,6.28-8.09,12.06-8.51,6.51-.47,12.64-4,18-8.27,4.24-3.39,9.09-10.89,14.69-10C200.33,165.74,203.05,170.74,202.56,175.17Z"/><path class="cls-7" d="M162.73,243c-.71.28-1.1,8.29-1.24,9.11a80.84,80.84,0,0,1-3.43,13.16c1,1.86,1.94,4,1.12,5.95-.89,2.08-3.42,2.8-5.64,3.23-5.14,1-10.61,1.76-15.52-.07l2.81-22.65C140.83,250.18,160.28,243.93,162.73,243Z"/><path class="cls-7" d="M108,232.26c1.51,7.09,4.43,13.43,6.29,20.39a63.27,63.27,0,0,1,1.43,8.08l1.32,10a4.87,4.87,0,0,0,.79,2.43,4.33,4.33,0,0,0,1.7,1.14,32.3,32.3,0,0,0,11.34,2.83c2.58.16,5.3,0,7.5-1.38s3.65-4.18,2.75-6.6c-.4-1.1-1.24-2-1.46-3.18a6.3,6.3,0,0,1,.25-2.58l2.28-9.48c0-1.66-14.31-9-16-10.09C120.05,240,113.94,236.23,108,232.26Z"/><path class="cls-8" d="M165.22,191.33H112a36.4,36.4,0,0,1,10.2-10.83H155A36.37,36.37,0,0,1,165.22,191.33Z"/><path class="cls-5" d="M155,180.5H122.22a28.34,28.34,0,0,1,32.81,0Z"/><path class="cls-8" d="M171.69,210.52H105.55A46,46,0,0,1,108,199.68h61.23A46.52,46.52,0,0,1,171.69,210.52Z"/><path class="cls-5" d="M169.24,199.68H108a42.9,42.9,0,0,1,4-8.35h53.2A42.36,42.36,0,0,1,169.24,199.68Z"/><path class="cls-8" d="M171.81,219.46a47.45,47.45,0,0,1-2.1,10.83H107.54a47.45,47.45,0,0,1-2.11-10.83Z"/><path class="cls-5" d="M119.18,248.48h38.89a28.73,28.73,0,0,1-38.89,0Z"/><path class="cls-5" d="M169.71,230.29a44.12,44.12,0,0,1-3.12,7.34H110.65a44.08,44.08,0,0,1-3.11-7.34Z"/><path class="cls-5" d="M172,215.66c0,1.28-.05,2.55-.15,3.8H105.43c-.09-1.25-.14-2.52-.14-3.8a51.27,51.27,0,0,1,.26-5.14h66.14A48.45,48.45,0,0,1,172,215.66Z"/><path class="cls-8" d="M166.59,237.63a38.29,38.29,0,0,1-8.52,10.85H119.18a38.32,38.32,0,0,1-8.53-10.85Z"/><rect class="cls-5" x="120.63" y="205.22" width="41.08" height="45.5" rx="4.78" transform="translate(132.9 -40.04) rotate(30)"/><path class="cls-7" d="M134.62,237.32c-2.26-.93-4.45-2.35-6.24-3.27q-7.29-3.75-14.42-7.81c-9.48-5.41-4.74-22.3-4.51-31.05a7.19,7.19,0,0,1,7.4-7l2.37.06a7.21,7.21,0,0,1,7,7.4q-.18,6.93-.37,13.88c-.11,4.33,2.41,4.55,5.85,6.16,4.49,2.1,8.92,4.66,12.32,8.33a6.75,6.75,0,0,1,1.35,8.91c-1.07,2.23-2.67,4.46-5.06,5.13A8.82,8.82,0,0,1,134.62,237.32Z"/><path class="cls-5" d="M143.81,197.25l2.58,14.57,6.41,1.5,4-4.11s-2.29-10.44-5.58-13.47S143.81,197.25,143.81,197.25Z"/><rect class="cls-5" x="141.75" y="190.26" width="10.49" height="6.94" rx="3.47" transform="translate(-33.67 30.95) rotate(-10.79)"/><path class="cls-5" d="M143.18,186.77l-5.46.84a37.6,37.6,0,0,1-42.91-31.42l-1.94-12.54a40.59,40.59,0,0,1,35.47-46.51,42.76,42.76,0,0,1,36.51,13.7A42.54,42.54,0,0,1,175.5,133.1l1.21,7.88A40.13,40.13,0,0,1,143.18,186.77Z"/><path class="cls-9" d="M164.85,110.84a39.56,39.56,0,0,0-8.43,1.6c-5,1.67-9.11,5.16-12.43,9.15-3.62,4.33-10.38,5.15-15.56,3.37-5-1.72-8.57-5.92-13.74-7.56-4.32-1.38-11.23-2.6-15.72-2.05l.14-.25a40.48,40.48,0,0,1,29.23-18,42.76,42.76,0,0,1,36.51,13.7Z"/><path class="cls-5" d="M122,95.37h9.62a3.56,3.56,0,0,1,3.56,3.56v.95a0,0,0,0,1,0,0H118.46a0,0,0,0,1,0,0v-.95A3.56,3.56,0,0,1,122,95.37Z" transform="translate(-13.42 20.51) rotate(-8.78)"/><path class="cls-5" d="M123.46,95.86s-.93-10.17,3.47-14.43c0,0,.23,13.86,2.58,13.5Z"/><circle class="cls-10" cx="126.75" cy="77.05" r="6.13"/><circle class="cls-11" cx="126.75" cy="77.05" r="4.34"/><circle class="cls-12" cx="124.62" cy="147.26" r="8.09"/><circle class="cls-12" cx="162.68" cy="141.38" r="8.09"/><circle class="cls-4" cx="120.65" cy="149" r="16.57"/><circle class="cls-4" cx="158.72" cy="143.12" r="16.57"/><line class="cls-4" x1="137.03" y1="146.47" x2="142.34" y2="145.65"/><line class="cls-4" x1="104.27" y1="151.53" x2="97.5" y2="145.02"/><line class="cls-4" x1="176.29" y1="138.27" x2="175.09" y2="140.58"/><line class="cls-4" x1="138.47" y1="169.85" x2="147.47" y2="167.85"/></svg>