<svg id="Layer_1" data-name="Layer 1" xmlns="http://www.w3.org/2000/svg" viewBox="0 0 351.16 293.04"><defs><style>.cls-1,.cls-2,.cls-8{fill:#c4cbe0;}.cls-1{opacity:0.25;}.cls-3,.cls-5{fill:#fff;}.cls-4{fill:none;}.cls-4,.cls-5,.cls-6,.cls-7,.cls-8{stroke:#3e6be0;stroke-linecap:round;stroke-linejoin:round;}.cls-6{fill:#3e6be0;}.cls-7{fill:#3e6be6;opacity:0.3;}.cls-9{fill:#ffd9d9;}.cls-10{fill:#ff6766;}</style></defs><path class="cls-1" d="M349.75,257.2a175.11,175.11,0,0,1-2.45,29.25H317.24A145,145,0,1,0,30.15,257.2a146,146,0,0,0,3,29.25H3A174.59,174.59,0,1,1,349.75,257.2Z"/><path class="cls-2" d="M320.19,257.2a146,146,0,0,1-2.95,29.25H33.1A145,145,0,1,1,320.19,257.2Z"/><path class="cls-3" d="M262.74,281.27a15.08,15.08,0,0,1-1.06,5.6H145.9a18.46,18.46,0,0,1-1.78-8,18.73,18.73,0,0,1,18.73-18.73,17,17,0,0,1,1.75.09,25.2,25.2,0,0,1,50-6.23,16.34,16.34,0,0,1,26.7,12.63c0,.18,0,.37,0,.55a15,15,0,0,1,6.11-1.28A15.33,15.33,0,0,1,262.74,281.27Z"/><path class="cls-3" d="M136.8,219.83c0,5.83-12.38,3.41-16.49,3.41H65.66a11.26,11.26,0,0,1-1.08-4.85A11.4,11.4,0,0,1,76,207a9.58,9.58,0,0,1,1.07,0,14.59,14.59,0,0,1-.11-1.76,15.34,15.34,0,0,1,30.55-2,10,10,0,0,1,16.26,7.69c0,.11,0,.22,0,.33a9.25,9.25,0,0,1,3.72-.78A9.34,9.34,0,0,1,136.8,219.83Z"/><circle class="cls-4" cx="283.44" cy="264.24" r="3.37"/><circle class="cls-4" cx="125.07" cy="191.32" r="2.42"/><circle class="cls-4" cx="60.5" cy="106.98" r="3"/><circle class="cls-4" cx="83.47" cy="57.72" r="2"/><circle class="cls-4" cx="230.92" cy="48.07" r="2.33"/><circle class="cls-4" cx="178.77" cy="258.91" r="1.08"/><line class="cls-4" x1="34.81" y1="287.24" x2="74.56" y2="287.24"/><line class="cls-4" x1="89.79" y1="287.27" x2="206.96" y2="287.27"/><line class="cls-4" x1="223.03" y1="287.39" x2="246.3" y2="287.39"/><line class="cls-4" x1="261.9" y1="287.12" x2="281.35" y2="287.12"/><line class="cls-4" x1="297.33" y1="287.42" x2="316.79" y2="287.42"/><line class="cls-4" x1="44.98" y1="182.31" x2="52.22" y2="182.31"/><line class="cls-4" x1="48.6" y1="178.69" x2="48.6" y2="185.93"/><line class="cls-4" x1="247.5" y1="167.38" x2="254.74" y2="167.38"/><line class="cls-4" x1="251.12" y1="163.76" x2="251.12" y2="171"/><line class="cls-4" x1="248.15" y1="100.07" x2="253.59" y2="100.07"/><line class="cls-4" x1="250.87" y1="97.36" x2="250.87" y2="102.79"/><path class="cls-5" d="M267.58,115.24v76.27A16.54,16.54,0,0,1,251,208.05H163.11a16.53,16.53,0,0,1-16.54-16.54V114.38Z"/><path class="cls-6" d="M267.58,99.13v16.11l-121-.86V99.13a16.53,16.53,0,0,1,16.54-16.54H251A16.54,16.54,0,0,1,267.58,99.13Z"/><rect class="cls-5" x="172.77" y="71.86" width="9.17" height="24.27" rx="4.58"/><rect class="cls-5" x="231.77" y="71.86" width="9.17" height="24.27" rx="4.58"/><circle class="cls-4" cx="254.8" cy="103.16" r="0.82"/><path class="cls-7" d="M135.53,213.5a113.4,113.4,0,0,1,22.55-34.37,54.26,54.26,0,0,1,24.85-14.36,1.07,1.07,0,0,1,1.59,1c2.12,9,.56,17.4-2.63,25.88a16.1,16.1,0,0,0,2.7-2.83,4.3,4.3,0,0,1,3.51-1.68,3.52,3.52,0,0,1,2.6,2.32c2.71,6.95-1.34,15.89-5.58,21.3-6.12,7.81-15.31,12.67-24.54,15.83A102.62,102.62,0,0,1,150,229.54S127.41,234.62,135.53,213.5Z"/><path class="cls-7" d="M128.51,214.51c-5.87-13.86-14.67-27.52-25.5-38a56.34,56.34,0,0,0-12-9c-2-1.09-11.38-6.2-13.47-4.4a1.33,1.33,0,0,0-.34.6,30.74,30.74,0,0,0-1.42,12c.32,4.89,1.14,11.78,3.74,16,0,0-5.14-8.14-8.35-4.07S66,220.93,113.31,231.42C113.31,231.42,137.08,236.78,128.51,214.51Z"/><path class="cls-8" d="M104.07,211.74c1.59-1.23,3.19-2.42,4.86-3.53,1.49-1,3-1.93,4.6-2.78a50.11,50.11,0,0,0,5.37-3.14,17,17,0,0,0,1.79-1.46l.33-.34a8.31,8.31,0,0,0,2.58-5.43,7,7,0,0,0-.46-2.65,9.79,9.79,0,0,0-.9-1.88h0a8.83,8.83,0,0,0-4.6-3.81,5.23,5.23,0,0,0-1-.21,7.59,7.59,0,0,0-2.7.26c-2.63.7-5.31,2.45-7.6,3.31a105.41,105.41,0,0,0-14.23,6.49c-.62.34-1.23.72-1.87,1.09-11,5.2-9.83,15.12-4.44,24.05,4.49,7.47,11.94,14.24,17.65,17a13.3,13.3,0,0,0,8.08,1.31,8.88,8.88,0,0,0,2.25-.69,9.69,9.69,0,0,0,3.41-2.62,11.57,11.57,0,0,0,2.2-4c0-.09.05-.19.09-.29a12.84,12.84,0,0,0,.49-5.47,7.63,7.63,0,0,0-4-5.72c-.92-.51-1.8-1-2.63-1.53a36.76,36.76,0,0,1-5.94-4.4,32.37,32.37,0,0,1-3.25-3.51,44.64,44.64,0,0,1-2.73-3.8l-2-3.16"/><path class="cls-8" d="M153.25,188.46s19.34-8,24.36-14.6,2.52-12.4,8.13-12.59,7.93,4.2,8.31,9.49-4.46,26.87-31.82,39.89C162.23,210.65,149.77,204.15,153.25,188.46Z"/><path class="cls-8" d="M136.75,253.36c1.32.53.73,11,.55,12.48a15.9,15.9,0,0,1-2.39,7.23,8.47,8.47,0,0,1-6.22,3.53,29.09,29.09,0,0,1-8.83-.45,13.12,13.12,0,0,1-4.85-1.58c-2.87-2-1.55-5.92.86-7.66.28-.2,3.25-1.91,3.29-1.4l-1.46-19.84Z"/><path class="cls-8" d="M138.07,253.25c-1.32.53-.73,11-.55,12.48.42,3.45,1.48,7.92,4.54,9.59,3.29,1.8,8.42,1.53,12,1.07,3.74-.47,9.28-2.43,6.66-7.28a7.38,7.38,0,0,0-2.22-2.55c-.33-.23-2.83-1.52-2.85-1.16l1.46-19.84Z"/><path class="cls-6" d="M159.69,196H113.88a32.6,32.6,0,0,1,8.78-9.93h28.25A32.47,32.47,0,0,1,159.69,196Z"/><path class="cls-5" d="M150.91,186.09H122.66a23.22,23.22,0,0,1,28.25,0Z"/><path class="cls-6" d="M165.26,213.6H108.32a44.63,44.63,0,0,1,2.11-9.94h52.71A45.21,45.21,0,0,1,165.26,213.6Z"/><path class="cls-5" d="M163.14,203.66H110.43a39.88,39.88,0,0,1,3.45-7.64h45.81A39.88,39.88,0,0,1,163.14,203.66Z"/><path class="cls-6" d="M165.36,221.78a46.65,46.65,0,0,1-1.81,9.93H110a46,46,0,0,1-1.82-9.93Z"/><path class="cls-5" d="M120,248.36h33.49a23.65,23.65,0,0,1-33.49,0Z"/><path class="cls-5" d="M163.55,231.71a42.79,42.79,0,0,1-2.68,6.72H112.71a40.94,40.94,0,0,1-2.68-6.72Z"/><path class="cls-5" d="M165.48,218.3c0,1.18,0,2.33-.12,3.48H108.21c-.08-1.15-.12-2.3-.12-3.48a45.52,45.52,0,0,1,.23-4.7h56.94C165.41,215.14,165.48,216.71,165.48,218.3Z"/><path class="cls-6" d="M160.87,238.43a34.94,34.94,0,0,1-7.34,9.93H120a34.91,34.91,0,0,1-7.33-9.93Z"/><path class="cls-5" d="M138.13,193.25l-4.88.91a33.79,33.79,0,0,1-39.41-27L91.75,155.9a36.47,36.47,0,0,1,30.58-42.76h0a38.44,38.44,0,0,1,43.36,31l1.31,7A36.07,36.07,0,0,1,138.13,193.25Z"/><path class="cls-8" d="M156.9,125.93c-4.15.48-8.54.81-12.31,2.18a25.46,25.46,0,0,0-11,8.5c-3.15,4-9.21,4.85-13.9,3.37-4.5-1.43-7.83-5.13-12.51-6.49a28.4,28.4,0,0,0-12.09-.8,36.4,36.4,0,0,1,27.45-19.59,38.41,38.41,0,0,1,34.33,12.83Z"/><path class="cls-5" d="M116.42,111.87h9.71a2.93,2.93,0,0,1,2.93,2.93v.92a.21.21,0,0,1-.21.21H114.21a.21.21,0,0,1-.21-.21v-1.44a2.41,2.41,0,0,1,2.41-2.41Z" transform="translate(-18.26 23.34) rotate(-10.21)"/><path class="cls-5" d="M118.44,112.11c-.14-1.48-.6-8.61,2.4-12.3a.25.25,0,0,1,.45.14c.12,2.19.62,9.61,2,11.18a.25.25,0,0,1-.14.42l-4.4.79A.25.25,0,0,1,118.44,112.11Z"/><circle class="cls-9" cx="121.01" cy="95.41" r="5.51"/><circle class="cls-10" cx="121.01" cy="95.41" r="3.9"/><circle class="cls-6" cx="117.3" cy="163.99" r="7.27"/><circle class="cls-6" cx="151.37" cy="157.85" r="7.27"/><circle class="cls-4" cx="113.26" cy="161.75" r="14.89"/><circle class="cls-4" cx="147.34" cy="155.62" r="14.89"/><line class="cls-4" x1="127.92" y1="159.11" x2="132.68" y2="158.26"/><line class="cls-4" x1="98.6" y1="164.39" x2="92.37" y2="158.69"/><line class="cls-4" x1="161.99" y1="152.98" x2="165.67" y2="145.5"/><path class="cls-5" d="M131.85,181.2A5.07,5.07,0,0,1,139.2,179"/><circle class="cls-6" cx="208.72" cy="156.12" r="24.85"/><circle class="cls-5" cx="208.72" cy="156.12" r="20.51"/><line class="cls-4" x1="208.81" y1="156.28" x2="219.37" y2="147.4"/><line class="cls-4" x1="201.17" y1="151.73" x2="208.81" y2="156.28"/><circle class="cls-6" cx="208.72" cy="156.12" r="1.89"/><circle class="cls-4" cx="208.72" cy="170.96" r="0.82"/><line class="cls-4" x1="208.72" y1="140.19" x2="208.72" y2="142.24"/></svg>