<svg id="Layer_1" data-name="Layer 1" xmlns="http://www.w3.org/2000/svg" viewBox="0 0 351.16 293.04"><defs><style>.cls-1,.cls-2,.cls-5{fill:#c4cbe0;}.cls-1{opacity:0.25;}.cls-13,.cls-3,.cls-8{fill:#fff;}.cls-4{fill:none;}.cls-12,.cls-13,.cls-4,.cls-5,.cls-6,.cls-7,.cls-8,.cls-9{stroke:#3e6be0;stroke-linecap:round;stroke-linejoin:round;}.cls-6,.cls-7{fill:#3e6be0;}.cls-6{opacity:0.4;}.cls-9{fill:#cad1e6;}.cls-10{fill:#ffc4c4;}.cls-11{fill:#ff6766;}.cls-12{fill:#3e6be6;}.cls-13{stroke-dasharray:12;}</style></defs><path class="cls-1" d="M349.85,259.82a175.11,175.11,0,0,1-2.45,29.25H317.34A145,145,0,1,0,30.25,259.82a146,146,0,0,0,3,29.25H3.14a174.59,174.59,0,1,1,346.71-29.25Z"/><path class="cls-2" d="M320.29,259.82a146,146,0,0,1-3,29.25H33.2a145,145,0,1,1,287.09-29.25Z"/><path class="cls-3" d="M136.89,222.44c0,5.83-12.38,3.41-16.48,3.41H65.76A11.26,11.26,0,0,1,64.67,221,11.41,11.41,0,0,1,76.08,209.6a9.42,9.42,0,0,1,1.06.06,14.72,14.72,0,0,1-.1-1.76,15.34,15.34,0,0,1,30.55-2,9.95,9.95,0,0,1,16.25,7.69v.34a9,9,0,0,1,3.72-.78A9.33,9.33,0,0,1,136.89,222.44Z"/><circle class="cls-4" cx="132.41" cy="273.81" r="2.95"/><circle class="cls-4" cx="283.54" cy="266.86" r="3.37"/><circle class="cls-4" cx="125.16" cy="193.94" r="2.42"/><circle class="cls-4" cx="251.47" cy="225.64" r="3"/><circle class="cls-4" cx="83.56" cy="60.34" r="2"/><circle class="cls-4" cx="178.86" cy="261.53" r="1.08"/><line class="cls-4" x1="34.9" y1="289.85" x2="74.66" y2="289.85"/><line class="cls-4" x1="89.89" y1="289.89" x2="207.05" y2="289.89"/><line class="cls-4" x1="223.13" y1="290.01" x2="246.39" y2="290.01"/><line class="cls-4" x1="261.99" y1="289.74" x2="281.45" y2="289.74"/><line class="cls-4" x1="297.42" y1="290.04" x2="316.88" y2="290.04"/><line class="cls-4" x1="86.39" y1="249.72" x2="93.63" y2="249.72"/><line class="cls-4" x1="90.01" y1="246.1" x2="90.01" y2="253.34"/><line class="cls-4" x1="45.08" y1="184.92" x2="52.32" y2="184.92"/><line class="cls-4" x1="48.7" y1="181.3" x2="48.7" y2="188.54"/><line class="cls-4" x1="247.59" y1="170" x2="254.83" y2="170"/><line class="cls-4" x1="251.21" y1="166.38" x2="251.21" y2="173.62"/><path class="cls-5" d="M172.49,261.29c1.63.64.9,13.27.68,15a18.85,18.85,0,0,1-2.95,8.72,10.48,10.48,0,0,1-7.67,4.26,36.92,36.92,0,0,1-10.9-.53c-2-.41-4.24-.76-6-1.91-3.55-2.37-1.92-7.14,1-9.24.34-.24,4-2.31,4.07-1.69L149,252Z"/><path class="cls-5" d="M174.12,261.15c-1.63.65-.9,13.28-.68,15.05.51,4.16,1.83,9.55,5.6,11.57,4.06,2.17,10.38,1.84,14.81,1.29,4.62-.57,11.46-2.93,8.22-8.78a9.11,9.11,0,0,0-2.74-3.08c-.41-.28-3.48-1.83-3.52-1.39l1.81-23.93Z"/><path class="cls-6" d="M176.11,220.56A150.45,150.45,0,0,1,206,175,72.16,72.16,0,0,1,239,156a1.93,1.93,0,0,1,1.32,0,1.9,1.9,0,0,1,.78,1.35c2.81,11.94.75,23.07-3.48,34.32a22.38,22.38,0,0,0,3.58-3.76c1.21-1.32,2.88-2.47,4.65-2.23a4.7,4.7,0,0,1,3.45,3.08c3.59,9.22-1.78,21.06-7.4,28.23-8.11,10.36-20.3,16.8-32.53,21a134.86,134.86,0,0,1-14.09,3.91S165.35,248.55,176.11,220.56Z"/><path class="cls-6" d="M170.81,221.89C163,203.52,151.37,185.42,137,171.57a74.48,74.48,0,0,0-16-11.94c-2.65-1.44-15.08-8.22-17.84-5.84a1.77,1.77,0,0,0-.46.81,40.68,40.68,0,0,0-1.88,16c.42,6.49,1.51,15.62,5,21.24,0,0-6.82-10.78-11.07-5.39s-6.82,44,55.91,57.9C150.66,244.31,182.17,251.41,170.81,221.89Z"/><path class="cls-7" d="M201.45,196.05h-56a38.06,38.06,0,0,1,10.72-11.4h34.52A38.22,38.22,0,0,1,201.45,196.05Z"/><path class="cls-8" d="M190.72,184.65H156.2a29.83,29.83,0,0,1,34.52,0Z"/><path class="cls-7" d="M208.25,216.24H138.67a48.9,48.9,0,0,1,2.58-11.41h64.42A48.4,48.4,0,0,1,208.25,216.24Z"/><path class="cls-8" d="M205.67,204.83H141.25a45.07,45.07,0,0,1,4.23-8.78h56A44.47,44.47,0,0,1,205.67,204.83Z"/><path class="cls-7" d="M208.38,225.64a49.74,49.74,0,0,1-2.22,11.4h-65.4a49.73,49.73,0,0,1-2.21-11.4Z"/><path class="cls-8" d="M153,256.17h40.92a30.22,30.22,0,0,1-40.92,0Z"/><path class="cls-8" d="M206.16,237a45.77,45.77,0,0,1-3.27,7.72H144a46.6,46.6,0,0,1-3.27-7.72Z"/><path class="cls-8" d="M208.53,221.64c0,1.35-.05,2.68-.15,4H138.55c-.11-1.32-.16-2.65-.16-4a50.57,50.57,0,0,1,.28-5.4h69.58A50.57,50.57,0,0,1,208.53,221.64Z"/><path class="cls-7" d="M202.89,244.76a40.38,40.38,0,0,1-9,11.41H153a40.38,40.38,0,0,1-9-11.41Z"/><path class="cls-8" d="M191.06,196.53a5.17,5.17,0,0,0,.7,1.36c.5.91,1,1.82,1.46,2.75,1.06,2.08,1.49,4.72,3.29,6.36a7.92,7.92,0,0,0,2.23,1.38,17.36,17.36,0,0,0,3.2.77,1,1,0,0,1,.41.16c.68.5.55,2.84.54,3.59a16.4,16.4,0,0,1-.65,4.3c-.22.77-.25,1.15-.93,1.44a10.46,10.46,0,0,1-2.48.61c-.31,0-2.89-.12-2.92-.1a17.82,17.82,0,0,0-1.87,2.26,28.36,28.36,0,0,1-2.78,2.81,12.55,12.55,0,0,1-5.18,2.83c-.39.09-.43,4.16-.43,4.58,0,1.35,0,2.85,1,3.87a9.6,9.6,0,0,0-2.2,0h-4.81a4.16,4.16,0,0,1-1.22,0c-.38-.15-.28-.22-.54-.59s-2.25-4.62-2.27-4.66c-.12-.2-3.58.28-4,.29-1.74,0-3.44-.17-5.16-.25-.19,0-.35,5.2.61,5.2h-8.52c-.4,0-1.42-2.84-1.54-3.15a13.44,13.44,0,0,1-1.08-6.67s-11.14-7.21-7.87-19.66a22.88,22.88,0,0,1,10.29-13.83c6.52-3.91,13.77-3.44,21-2.24a16.74,16.74,0,0,1,5.43,1.63,12.17,12.17,0,0,1,5.73-1.55,7.53,7.53,0,0,1,5.4,2.24,18.22,18.22,0,0,0-4,2.58,2.89,2.89,0,0,0-.8.94A1.11,1.11,0,0,0,191.06,196.53Z"/><path class="cls-8" d="M180.51,198.51s2-7.86,10.49-5.24a57.2,57.2,0,0,0-3.28,7.86"/><ellipse class="cls-5" cx="201.48" cy="213.91" rx="4.26" ry="0.66" transform="matrix(0.07, -1, 1, 0.07, -26.78, 398.97)"/><path class="cls-8" d="M166.1,192.63a13.15,13.15,0,0,1,10.49,0"/><path class="cls-8" d="M189.69,215.55s0,2.62,4.58,3.27"/><circle class="cls-8" cx="189.69" cy="207.03" r="1.31"/><path class="cls-4" d="M149.09,203a15.52,15.52,0,0,0-6.68-3.19,3.88,3.88,0,0,0-3.28.62c-.87.8-1.29,2.57-.4,3.5a2,2,0,0,0,1.42.55,3.06,3.06,0,0,0,2.79-1.78c1.22-2.72-1-6.58-2.4-8.82"/><path class="cls-5" d="M221.8,221.57c-4,11.22-16,18.57-26.87,22-5,1.57-11.35,2.4-15.83-.9a12.07,12.07,0,0,1-2.09-2c-5.39-6.63-1.12-15.18,4.8-19.75,6.28-4.84,15.35-3.53,21.19-8.86,3.44-3.15.53-7.77-.73-11.32a44.47,44.47,0,0,0-4.22-8.78,39.29,39.29,0,0,0-7.41-8.81,11.08,11.08,0,0,1,8.43-2.27,5.67,5.67,0,0,1,1.19.36c3.84,1.6,6.25,6.7,8.84,9.7A126.24,126.24,0,0,1,220,205.33S224.64,213.6,221.8,221.57Z"/><path class="cls-5" d="M124.89,221.57c4,11.22,16,18.57,26.87,22,5,1.57,11.35,2.4,15.83-.9a12.07,12.07,0,0,0,2.09-2c5.39-6.63,1.12-15.18-4.8-19.75-6.27-4.84-15.35-3.53-21.19-8.86-3.44-3.15-.53-7.77.73-11.32a44.47,44.47,0,0,1,4.22-8.78,39.29,39.29,0,0,1,7.41-8.81,11.08,11.08,0,0,0-8.43-2.27,5.67,5.67,0,0,0-1.19.36c-3.84,1.6-6.25,6.7-8.84,9.7a126.24,126.24,0,0,0-10.91,14.44S122.05,213.6,124.89,221.57Z"/><path class="cls-8" d="M177.25,186.39l-6.74.09a45.86,45.86,0,0,1-46.44-45.27l-.2-15.48a49.48,49.48,0,0,1,50.77-50.09h0a52.17,52.17,0,0,1,50.8,51.48l.12,9.71A48.93,48.93,0,0,1,177.25,186.39Z"/><path class="cls-9" d="M217.72,100.48c-5.66-.29-11.6-.82-17,.17-6.31,1.16-11.88,4.67-16.57,8.91-5.11,4.62-13.41,4.45-19.36,1.41-5.7-2.92-9.34-8.61-15.29-11.47a38.61,38.61,0,0,0-16-3.78,49.4,49.4,0,0,1,41.11-20.08,52,52,0,0,1,35.76,15.51A51.26,51.26,0,0,1,217.72,100.48Z"/><path class="cls-8" d="M166.07,74.92h14a3.2,3.2,0,0,1,3.2,3.2v0A2.31,2.31,0,0,1,181,80.42H165.18a2.31,2.31,0,0,1-2.31-2.31v0A3.2,3.2,0,0,1,166.07,74.92Z" transform="translate(-0.98 2.21) rotate(-0.73)"/><path class="cls-8" d="M169.34,74.6c.15-2,1.12-11.64,6-15.93a.34.34,0,0,1,.57.28c-.33,3-1.31,13,.15,15.4a.34.34,0,0,1-.27.53l-6.07.08A.33.33,0,0,1,169.34,74.6Z"/><circle class="cls-10" cx="176.51" cy="52.82" r="7.48"/><circle class="cls-11" cx="176.51" cy="52.82" r="5.3"/><path class="cls-12" d="M207.86,140.79a5.63,5.63,0,0,1,.14.62,10.58,10.58,0,0,1,.15,1.6A9.86,9.86,0,1,1,194.73,134a5,5,0,0,1,.68-.24Z"/><path class="cls-12" d="M154.2,133.71a4.72,4.72,0,0,1,.69.24A9.86,9.86,0,1,1,141.46,143a10.58,10.58,0,0,1,.16-1.6,5.65,5.65,0,0,1,.13-.62Z"/><circle class="cls-4" cx="151.32" cy="138.67" r="20.21"/><circle class="cls-4" cx="198.29" cy="138.07" r="20.21"/><line class="cls-4" x1="171.53" y1="138.41" x2="178.09" y2="138.33"/><line class="cls-4" x1="131.12" y1="138.93" x2="124.06" y2="129.9"/><line class="cls-4" x1="218.5" y1="137.81" x2="225.08" y2="128.62"/><path class="cls-4" d="M169.88,167.62a6.3,6.3,0,0,1,4.57-2.53,6.15,6.15,0,0,1,5.33,2.53"/><path class="cls-8" d="M231.49,72.92V89.65a10.9,10.9,0,0,0,10.91,10.9h3.47v13.74a1.59,1.59,0,0,0,2.87.94l10.82-14.68H338.2a10.9,10.9,0,0,0,10.9-10.9V72.92A10.9,10.9,0,0,0,338.2,62H242.4A10.9,10.9,0,0,0,231.49,72.92Z"/><line class="cls-8" x1="246.46" y1="74.5" x2="259.43" y2="74.5"/><line class="cls-8" x1="246.46" y1="78.46" x2="259.43" y2="78.46"/><path class="cls-4" d="M257.24,91.12c-.32-3.06-1.36-7.08-4.27-8.67a.8.8,0,0,0,.77-.17,4.87,4.87,0,0,0,1-7.32"/><line class="cls-4" x1="248.98" y1="82.49" x2="252.97" y2="82.45"/><line class="cls-13" x1="268.63" y1="87.27" x2="327.87" y2="87.27"/></svg>