<svg id="Layer_1" data-name="Layer 1" xmlns="http://www.w3.org/2000/svg" viewBox="0 0 351.16 293.04"><defs><style>.cls-1,.cls-2,.cls-6{fill:#c4cbe0;}.cls-1{opacity:0.25;}.cls-3,.cls-4{fill:#fff;}.cls-4,.cls-5,.cls-6,.cls-7,.cls-8{stroke:#3e6be0;stroke-linecap:round;stroke-linejoin:round;}.cls-5{fill:none;}.cls-7,.cls-8{fill:#3e6be0;}.cls-7{opacity:0.3;}.cls-9{fill:#ffd9d9;}.cls-10{fill:#ff6766;}</style></defs><path class="cls-1" d="M350.16,261.82a175.11,175.11,0,0,1-2.45,29.25H317.65A145,145,0,1,0,30.56,261.82a146,146,0,0,0,2.95,29.25H3.45a174.59,174.59,0,1,1,346.71-29.25Z"/><path class="cls-2" d="M320.6,261.82a146,146,0,0,1-3,29.25H33.51A145,145,0,1,1,320.6,261.82Z"/><path class="cls-3" d="M263.15,285.89a15.08,15.08,0,0,1-1.06,5.6H146.31a18.46,18.46,0,0,1-1.78-8,18.73,18.73,0,0,1,18.73-18.73,17,17,0,0,1,1.75.09,25.2,25.2,0,0,1,50-6.23,16.34,16.34,0,0,1,26.7,12.63c0,.18,0,.37,0,.55a15,15,0,0,1,6.11-1.28A15.33,15.33,0,0,1,263.15,285.89Z"/><path class="cls-3" d="M137.2,224.44c0,5.83-12.38,3.41-16.48,3.41H66.07A11.25,11.25,0,0,1,65,223a11.4,11.4,0,0,1,11.4-11.41,9.28,9.28,0,0,1,1.06.06,17.14,17.14,0,0,1-.1-1.76,15.34,15.34,0,0,1,30.55-2,10,10,0,0,1,16.26,7.69c0,.11,0,.23,0,.34a9.08,9.08,0,0,1,3.72-.78A9.33,9.33,0,0,1,137.2,224.44Z"/><path class="cls-4" d="M312.38,100c0,4-8.47,2.34-11.28,2.34H263.71a7.79,7.79,0,0,1,7.06-11.12l.73,0a9.42,9.42,0,0,1-.08-1.2,10.5,10.5,0,0,1,20.91-1.39,6.81,6.81,0,0,1,11.12,5.26v.23a6.18,6.18,0,0,1,2.54-.53A6.39,6.39,0,0,1,312.38,100Z"/><circle class="cls-5" cx="141.27" cy="270.33" r="2.95"/><circle class="cls-5" cx="283.85" cy="268.86" r="3.37"/><circle class="cls-5" cx="60.91" cy="111.6" r="3"/><circle class="cls-5" cx="83.87" cy="62.34" r="2"/><circle class="cls-5" cx="231.33" cy="52.68" r="2.33"/><circle class="cls-5" cx="179.18" cy="263.53" r="1.08"/><path class="cls-6" d="M173,121.06a5.85,5.85,0,0,0-1.11-.19c-3.78-.22-8,3.18-11.45,4.7a120.94,120.94,0,0,0-15.82,8.28c-10.35,6.56-21.06,16.46-25.36,28.61-1.4,3.95-1.64,8.48.28,11.93a10.86,10.86,0,0,0,8.13,5.29c5,.68,9.74-.71,12-6,3.4-8.12,6.45-13,13.23-19,4.85-4.25,9.74-8.54,15.2-11.83a39.34,39.34,0,0,0,8-5.71,11,11,0,0,0,3.35-6.83C179.58,126.48,176.55,122,173,121.06Z"/><path class="cls-7" d="M183.57,139.43a147,147,0,0,1,29.27-44.6,70.4,70.4,0,0,1,32.24-18.64,1.77,1.77,0,0,1,1.3,0,1.81,1.81,0,0,1,.76,1.31c2.76,11.69.74,22.59-3.4,33.6a21.44,21.44,0,0,0,3.5-3.68c1.55-1.68,3.85-3.09,6.15-1.54a4.85,4.85,0,0,1,1.74,2.29c3.59,9-1.68,20.68-7.2,27.73C240,146,228.05,152.32,216.08,156.42a131.77,131.77,0,0,1-13.8,3.83S173,166.84,183.57,139.43Z"/><path class="cls-6" d="M71.48,137.5l1.25-2.45A3.25,3.25,0,0,1,77,133.58l155.09,71.29a3.25,3.25,0,0,1,1.44,4.6l-1.44,2.44a3.24,3.24,0,0,1-4.15,1.29L73,141.92A3.24,3.24,0,0,1,71.48,137.5Z"/><path class="cls-6" d="M204.43,177.8l-14.76,29.69s5.19,4.26-.26,9.08-27.22-6.14-30.12-15.55c-1.94-6.31,3.2-12.4,7.41-16.43,5.1-4.89,9.55-8.5,16.8-8.06l9.08.55C193.55,177.14,204.08,178.5,204.43,177.8Z"/><path class="cls-6" d="M212.74,182.62a122.76,122.76,0,0,1,1.12,15.15c.12,11.51.46,17.69-3.32,21.07a29,29,0,0,1-7.7,4.62c-3.93,1.74-8,3.14-12.07,4.54-1.48.51-3.14,1-4.59.42a5,5,0,0,1-2.37-2.43c-2.33-4.33-1.66-10.56,2.65-13.33,1.34-.86-1.21-3.63-3.36-7.71-2.69-5.12-3.92-6.07-5.74-9.44-2.48-4.58-5.07-9.38-3.94-13.82,1.46-5.73,8.46-8.25,17.34-11.46,8.15-2.94,14.4-5.2,18.26-2.16C211.13,169.72,211.69,174,212.74,182.62Z"/><path class="cls-8" d="M184.42,126.35,147.79,161a34.18,34.18,0,0,1,0-14.1l22.59-21.39A34.48,34.48,0,0,1,184.42,126.35Z"/><path class="cls-4" d="M170.34,125.54l-22.59,21.39a26.85,26.85,0,0,1,22.59-21.39Z"/><path class="cls-8" d="M201.39,135.35l-45.55,43.12a44.93,44.93,0,0,1-5.38-9.07l42.17-39.91A44.08,44.08,0,0,1,201.39,135.35Z"/><path class="cls-4" d="M192.63,129.49,150.46,169.4a40.28,40.28,0,0,1-2.67-8.37l36.63-34.68A40.18,40.18,0,0,1,192.63,129.49Z"/><path class="cls-8" d="M207.29,141.43a45,45,0,0,1,5.62,8.83L170.1,190.79a45.4,45.4,0,0,1-8.51-6.09Z"/><path class="cls-4" d="M190,195.72l26.79-25.35A27.23,27.23,0,0,1,190,195.72Z"/><path class="cls-4" d="M212.91,150.26a42,42,0,0,1,2.64,7.09L177,193.81a42.18,42.18,0,0,1-6.93-3Z"/><path class="cls-4" d="M204.92,138.72c.84.88,1.62,1.78,2.37,2.71l-45.7,43.27q-1.34-1.2-2.58-2.52a47.53,47.53,0,0,1-3.17-3.71l45.55-43.12A48.52,48.52,0,0,1,204.92,138.72Z"/><path class="cls-8" d="M215.55,157.35a36.39,36.39,0,0,1,1.2,13L190,195.72A36.08,36.08,0,0,1,177,193.81Z"/><path class="cls-7" d="M191.38,152.26c7.63-18,19-35.71,33.11-49.27A73.41,73.41,0,0,1,240.11,91.3c2.6-1.41,14.76-8,17.47-5.71a1.69,1.69,0,0,1,.45.79A39.92,39.92,0,0,1,259.87,102c-.41,6.36-1.48,15.3-4.85,20.8,0,0,6.67-10.56,10.84-5.28s6.67,43.07-54.75,56.69C211.11,174.21,180.27,181.16,191.38,152.26Z"/><path class="cls-6" d="M195.45,150.39a9.11,9.11,0,0,1-.6,3,18.46,18.46,0,0,1-3.86,5.49c-4.84,5.37-9.83,10.79-14.62,16.28-7.83,9-15,19.08-27.94,20a27.34,27.34,0,0,1-7.71-.52c-4.1-.88-8.09-2.36-10.8-5.75a15.1,15.1,0,0,1-2-14.24,9.85,9.85,0,0,1,5-5.74,6.3,6.3,0,0,1,5.55.23c1.73,1,2.7,3,4.8,3.38a6.52,6.52,0,0,0,4.39-1.12c4.3-2.51,7.48-6.5,11-10,4.35-4.24,9.34-7.78,13.73-12,2.68-2.57,5.18-5.41,8.43-7.2,4.12-2.25,9.32-2,12.51,1.74A9.44,9.44,0,0,1,195.45,150.39Z"/><ellipse class="cls-8" cx="228.93" cy="207.42" rx="8.67" ry="6.66" transform="translate(-65.17 301.97) rotate(-60)"/><path class="cls-6" d="M240.13,200.78s34.22-19.69,54.27-9.94c0,0,4.06,1.87-8.12,2.29s-7.41,4.47-7.41,4.47-4.9-7.13,15-2.51,26.44,24.62,25.74,36.52a22.91,22.91,0,0,1,3.78,16.93s-1.54-2.24-7.69-2.1c0,0-5.46,15.53-30.65,13.15,0,0-13.71-.7-16.23-5.74,0,0-7.41,2.1-15.81-3.78s-17.63-23.36-18.75-35.54S240.13,200.78,240.13,200.78Z"/><path class="cls-5" d="M236.56,204.05s31.88-7.08,45.3-1.49"/><path class="cls-5" d="M276.27,213.75s15.1.93,17.71,4.1"/><path class="cls-5" d="M301.25,220.09s13.88,10,14.31,12.09"/><path class="cls-5" d="M235.81,209.09s12.87,18.08,36.36,23.3"/><path class="cls-5" d="M308.15,246.56s-23.49,22.37-73.45-34.49"/><path class="cls-5" d="M233.73,214s18.66,41.93,39.3,32.93"/><line class="cls-5" x1="36.22" y1="291.85" x2="75.97" y2="291.85"/><line class="cls-5" x1="91.2" y1="291.89" x2="208.37" y2="291.89"/><line class="cls-5" x1="224.44" y1="292.01" x2="247.7" y2="292.01"/><line class="cls-5" x1="263.3" y1="291.74" x2="282.76" y2="291.74"/><line class="cls-5" x1="298.74" y1="292.04" x2="318.19" y2="292.04"/><line class="cls-5" x1="96.2" y1="251.35" x2="103.44" y2="251.35"/><line class="cls-5" x1="99.82" y1="247.73" x2="99.82" y2="254.97"/><line class="cls-5" x1="45.39" y1="186.92" x2="52.63" y2="186.92"/><line class="cls-5" x1="49.01" y1="183.3" x2="49.01" y2="190.54"/><line class="cls-5" x1="247.9" y1="172" x2="255.14" y2="172"/><line class="cls-5" x1="251.52" y1="168.38" x2="251.52" y2="175.62"/><path class="cls-4" d="M179.24,140.58l-6.68.24A45.51,45.51,0,0,1,125.47,97l-.55-15.35a49.1,49.1,0,0,1,49.22-50.84h0A51.76,51.76,0,0,1,225.7,80.69l.34,9.63A48.56,48.56,0,0,1,179.24,140.58Z"/><path class="cls-6" d="M217.43,54.44c-5.61-.16-11.52-.55-16.81.55-6.23,1.3-11.68,4.9-16.24,9.22-5,4.7-13.2,4.72-19.16,1.84-5.73-2.77-9.47-8.32-15.44-11a38.33,38.33,0,0,0-16-3.39,49.05,49.05,0,0,1,40.33-20.85A51.58,51.58,0,0,1,210,45.35,51,51,0,0,1,217.43,54.44Z"/><path class="cls-4" d="M166.68,28.91h11a5.1,5.1,0,0,1,5.1,5.1v0a.36.36,0,0,1-.36.36H162.84a.36.36,0,0,1-.36-.36v-.9a4.2,4.2,0,0,1,4.2-4.2Z" transform="translate(-1.02 6.18) rotate(-2.04)"/><path class="cls-4" d="M168.83,28.68c.1-2,.85-11.58,5.55-15.94A.34.34,0,0,1,175,13c-.26,2.94-1,12.93.49,15.27a.34.34,0,0,1-.26.54l-6,.21A.33.33,0,0,1,168.83,28.68Z"/><circle class="cls-9" cx="175.44" cy="7.92" r="7.42"/><circle class="cls-10" cx="175.44" cy="7.92" r="5.25"/><circle class="cls-8" cx="154.98" cy="94.63" r="9.78"/><circle class="cls-8" cx="201.56" cy="92.97" r="9.78"/><circle class="cls-5" cx="152.45" cy="93.83" r="20.05"/><circle class="cls-5" cx="199.02" cy="92.17" r="20.05"/><line class="cls-5" x1="172.48" y1="93.11" x2="178.98" y2="92.88"/><line class="cls-5" x1="132.41" y1="94.54" x2="125.2" y2="85.76"/><line class="cls-5" x1="219.06" y1="91.45" x2="225.38" y2="82.18"/><path class="cls-5" d="M170.21,120.19a7.74,7.74,0,0,0,6.42,3.23,7.65,7.65,0,0,0,5.87-3.51"/></svg>