<svg id="Layer_1" data-name="Layer 1" xmlns="http://www.w3.org/2000/svg" viewBox="0 0 351.16 293.04"><defs><style>.cls-1,.cls-2,.cls-7{fill:#c4cbe0;}.cls-1{opacity:0.25;}.cls-3,.cls-6{fill:#fff;}.cls-4{fill:none;}.cls-12,.cls-4,.cls-5,.cls-6,.cls-7,.cls-8,.cls-9{stroke:#3e6be0;stroke-linecap:round;stroke-linejoin:round;}.cls-5{fill:#3e6be0;}.cls-12,.cls-8{fill:#3e6be6;}.cls-8{opacity:0.3;}.cls-9{fill:#cad1e6;}.cls-10{fill:#ffc4c4;}.cls-11{fill:#ff6766;}</style></defs><path class="cls-1" d="M346.69,259.82a175.11,175.11,0,0,1-2.45,29.25H314.18A145,145,0,1,0,27.09,259.82,146,146,0,0,0,30,289.07H0a174.59,174.59,0,1,1,346.71-29.25Z"/><path class="cls-2" d="M317.13,259.82a146,146,0,0,1-2.95,29.25H30a145,145,0,1,1,287.09-29.25Z"/><path class="cls-3" d="M259.68,283.89a15.08,15.08,0,0,1-1.06,5.6H142.84a18.46,18.46,0,0,1-1.78-8,18.73,18.73,0,0,1,18.73-18.73,17,17,0,0,1,1.75.09,25.2,25.2,0,0,1,50-6.23,16.34,16.34,0,0,1,26.7,12.63c0,.18,0,.37,0,.55a15,15,0,0,1,6.11-1.28A15.33,15.33,0,0,1,259.68,283.89Z"/><path class="cls-3" d="M133.73,222.44c0,5.83-12.38,3.41-16.48,3.41H62.6A11.25,11.25,0,0,1,61.52,221a11.4,11.4,0,0,1,11.4-11.41,9.28,9.28,0,0,1,1.06.06,17.14,17.14,0,0,1-.1-1.76,15.34,15.34,0,0,1,30.55-2,10,10,0,0,1,16.26,7.69c0,.11,0,.23,0,.34a9.08,9.08,0,0,1,3.72-.78A9.33,9.33,0,0,1,133.73,222.44Z"/><circle class="cls-4" cx="129.25" cy="273.81" r="2.95"/><circle class="cls-4" cx="294.27" cy="246.1" r="3.37"/><circle class="cls-4" cx="122" cy="193.94" r="2.42"/><circle class="cls-4" cx="57.44" cy="109.6" r="3"/><circle class="cls-4" cx="227.86" cy="50.68" r="2.33"/><circle class="cls-4" cx="175.71" cy="261.53" r="1.08"/><line class="cls-4" x1="31.75" y1="289.85" x2="71.5" y2="289.85"/><line class="cls-4" x1="86.73" y1="289.89" x2="203.9" y2="289.89"/><line class="cls-4" x1="219.97" y1="290.01" x2="243.23" y2="290.01"/><line class="cls-4" x1="258.83" y1="289.74" x2="278.29" y2="289.74"/><line class="cls-4" x1="294.27" y1="290.04" x2="313.72" y2="290.04"/><line class="cls-4" x1="83.23" y1="249.72" x2="90.47" y2="249.72"/><line class="cls-4" x1="86.85" y1="246.1" x2="86.85" y2="253.34"/><line class="cls-4" x1="41.92" y1="184.92" x2="49.16" y2="184.92"/><line class="cls-4" x1="45.54" y1="181.3" x2="45.54" y2="188.54"/><line class="cls-4" x1="302.43" y1="103" x2="309.67" y2="103"/><line class="cls-4" x1="306.05" y1="99.38" x2="306.05" y2="106.62"/><path class="cls-5" d="M106.31,218.74a4.82,4.82,0,0,1-2.56,1.73,12.84,12.84,0,0,1-4.7.51c-1.42-.11-2.89-.82-4.29-.26-1.2.47-1.92,1.73-2.88,2.54a9,9,0,0,1-3.34,1.88,19.58,19.58,0,0,1-4.47.24c-3.7.17-6.9,2.43-9.82,4.51-4.62,2.52-6.7-.58-7.57-2.9l21.07-27.56a1.25,1.25,0,0,1,2-.05Z"/><path class="cls-6" d="M88.34,225.19v52.62H28L58,238.32,66.68,227c.87,2.32,2.95,5.42,7.57,2.9,2.92-2.08,6.12-4.34,9.82-4.51A22.48,22.48,0,0,0,88.34,225.19Z"/><path class="cls-7" d="M158.19,277.81H88.34V225.19l.2-.05a9,9,0,0,0,3.34-1.88c1-.81,1.68-2.07,2.88-2.54,1.4-.56,2.87.15,4.29.26a12.84,12.84,0,0,0,4.7-.51,4.82,4.82,0,0,0,2.56-1.73l16.81,19.58Z"/><path class="cls-6" d="M152.86,179.94v97.87h-83l41.49-62.32,20.44-30.7,0,.33s1.36,2.8,5.12.3c0,0,4.38-3.76,8.14-.63,0,0,3.76,5.64,6.89-3.76A5.54,5.54,0,0,1,152.86,179.94Z"/><path class="cls-7" d="M235.86,277.81h-83V179.94a3.74,3.74,0,0,1,4.07-.78,7.77,7.77,0,0,0,5.64-1.26s5.43-1.42,6.89.19l0,0,.2.3.13.2,0,0,24.53,36.85Z"/><path class="cls-5" d="M234.13,210.24c-.66,3.25-4.26,4.65-7.2,4-.9-.18-1.32-1.17-2.23-1.46a4.28,4.28,0,0,0-2.62.17,25.72,25.72,0,0,0-4.81,2.67c-2.53,1.46-4.49-1-4.37-3.49,0-.17,0-.35,0-.52s0-.08,0-.12L223,199.36a1.26,1.26,0,0,1,1.92,0Z"/><path class="cls-6" d="M223.64,212.69v65.12H160.13l30.67-39.49L213,211.53s0,.08,0,.12,0,.35,0,.52c-.12,2.51,1.84,5,4.37,3.49a25.72,25.72,0,0,1,4.81-2.67A5.53,5.53,0,0,1,223.64,212.69Z"/><path class="cls-7" d="M292.86,277.81H223.64V212.69a2.74,2.74,0,0,1,1.06.13c.91.29,1.33,1.28,2.23,1.46,2.94.61,6.54-.79,7.2-4l23.67,28.08Z"/><path class="cls-5" d="M169.46,178.09c-1.46-1.61-6.89-.19-6.89-.19a7.77,7.77,0,0,1-5.64,1.26c-3.13-1.26-5,1.87-5,1.87-3.13,9.4-6.89,3.76-6.89,3.76-3.76-3.13-8.14.63-8.14.63-3.76,2.5-5.12-.3-5.12-.3l0-.33,20-30.06a1.24,1.24,0,0,1,2.08,0Z"/><path class="cls-8" d="M239.35,223.47a113.43,113.43,0,0,1,22.56-34.37,54.17,54.17,0,0,1,24.84-14.36,1.44,1.44,0,0,1,1,0,1.41,1.41,0,0,1,.59,1c2.12,9,.57,17.4-2.62,25.88a16.86,16.86,0,0,0,2.7-2.83,4.29,4.29,0,0,1,3.5-1.68,3.55,3.55,0,0,1,2.61,2.32c2.71,6.95-1.35,15.89-5.58,21.3-6.12,7.81-15.32,12.67-24.55,15.83a102.62,102.62,0,0,1-10.63,2.95S231.23,244.59,239.35,223.47Z"/><path class="cls-8" d="M232.34,224.48c-5.88-13.86-14.67-27.52-25.51-38a56.34,56.34,0,0,0-12-9c-2-1.09-11.38-6.2-13.46-4.41a1.44,1.44,0,0,0-.35.61,30.87,30.87,0,0,0-1.42,12c.32,4.9,1.14,11.79,3.74,16,0,0-5.14-8.14-8.35-4.07s-5.14,33.19,42.18,43.68C217.13,241.39,240.9,246.74,232.34,224.48Z"/><path class="cls-7" d="M222.12,203.85a8.8,8.8,0,0,0-1.81-.37,17.29,17.29,0,0,0-6.66,1c-1.82.54-3.63,1.11-5.43,1.74a22.34,22.34,0,0,0-2.69,1.18c-1.06-1.77,0-5.13,1.59-6.4,1.74-1.4,12.12-2.27,5.55-16.49,0,0-5.94-8-15.14-.42s-12.73,27.6-4.3,38.06c3.57,4.42,9.7,7.87,15.49,6.25,6.69-1.88,18.67-4.85,19.88-13.09C229.31,210.43,226.8,205.35,222.12,203.85Z"/><path class="cls-7" d="M235.32,264.39c1.12.44.62,9.11.47,10.32a13.07,13.07,0,0,1-2,6,7.22,7.22,0,0,1-5.27,2.92,25.3,25.3,0,0,1-7.47-.37,11.08,11.08,0,0,1-4.1-1.31c-2.43-1.62-1.32-4.89.73-6.33.23-.17,2.75-1.59,2.78-1.16L219.2,258Z"/><path class="cls-7" d="M236.44,264.3c-1.12.44-.62,9.11-.47,10.32.36,2.85,1.26,6.55,3.84,7.93,2.79,1.49,7.12,1.27,10.16.89s7.86-2,5.64-6a6.28,6.28,0,0,0-1.88-2.12c-.28-.18-2.39-1.25-2.41-.95l1.24-16.41Z"/><path class="cls-7" d="M266.69,225c-1.39-1.07-2.79-2.11-4.25-3.08a46.64,46.64,0,0,0-4-2.43,43.64,43.64,0,0,1-4.7-2.75,13.8,13.8,0,0,1-1.56-1.28,4,4,0,0,1-.29-.29,7.28,7.28,0,0,1-2.26-4.75,6.2,6.2,0,0,1,.4-2.32,9.14,9.14,0,0,1,.79-1.64h0a7.71,7.71,0,0,1,4-3.33,4.81,4.81,0,0,1,.9-.19,6.59,6.59,0,0,1,2.36.23c2.3.61,4.65,2.14,6.65,2.89a92.33,92.33,0,0,1,12.44,5.68c.54.3,1.08.63,1.64.95,9.61,4.55,8.59,13.22,3.88,21-3.93,6.53-10.44,12.45-15.43,14.83a11.69,11.69,0,0,1-7.07,1.15,8,8,0,0,1-2-.61,8.43,8.43,0,0,1-3-2.29,10.15,10.15,0,0,1-1.92-3.5c0-.08-.05-.17-.08-.26a11.19,11.19,0,0,1-.43-4.78,6.68,6.68,0,0,1,3.53-5c.81-.45,1.58-.9,2.3-1.34a32,32,0,0,0,5.2-3.85,28.11,28.11,0,0,0,2.84-3.07,40.4,40.4,0,0,0,2.39-3.32c.58-.92,1.18-1.84,1.77-2.76"/><path class="cls-5" d="M258.53,214.53l-43.19-.61a29.4,29.4,0,0,1,8.4-8.68l26.63.38A29.54,29.54,0,0,1,258.53,214.53Z"/><path class="cls-6" d="M250.37,205.62l-26.63-.38a23,23,0,0,1,26.63.38Z"/><path class="cls-5" d="M263.56,230.19l-53.7-.76a37.7,37.7,0,0,1,2.12-8.78l49.71.7A38.35,38.35,0,0,1,263.56,230.19Z"/><path class="cls-6" d="M261.69,221.35l-49.71-.7a33.84,33.84,0,0,1,3.36-6.73l43.19.61A35.1,35.1,0,0,1,261.69,221.35Z"/><path class="cls-5" d="M263.55,237.44a38.36,38.36,0,0,1-1.83,8.77l-50.47-.71a38.86,38.86,0,0,1-1.59-8.82Z"/><path class="cls-6" d="M220.49,260.39l31.57.45a23.29,23.29,0,0,1-31.57-.45Z"/><path class="cls-6" d="M261.72,246.21a37.24,37.24,0,0,1-2.61,5.93l-45.42-.65a35.61,35.61,0,0,1-2.44-6Z"/><path class="cls-6" d="M263.71,234.36c0,1-.07,2.07-.16,3.08l-53.89-.76c-.06-1-.09-2.05-.07-3.09a40.55,40.55,0,0,1,.27-4.16l53.7.76A41.09,41.09,0,0,1,263.71,234.36Z"/><path class="cls-5" d="M259.11,252.14a31.18,31.18,0,0,1-7.05,8.7l-31.57-.45a31.12,31.12,0,0,1-6.8-8.9Z"/><path class="cls-6" d="M240.36,207.75l-5.67.41a38.63,38.63,0,0,1-41.27-35.8l-.93-13a41.69,41.69,0,0,1,40.24-44.63h0A44,44,0,0,1,278,155.53l.58,8.17A41.23,41.23,0,0,1,240.36,207.75Z"/><path class="cls-9" d="M270.18,133.51c-4.77,0-9.8-.12-14.26,1-5.24,1.29-9.76,4.51-13.5,8.32-4.07,4.13-11,4.39-16.2,2.13-4.95-2.17-8.28-6.78-13.43-8.9a32.55,32.55,0,0,0-13.65-2.39,41.63,41.63,0,0,1,33.59-18.91A43.81,43.81,0,0,1,263.57,126,43.26,43.26,0,0,1,270.18,133.51Z"/><path class="cls-6" d="M226.1,112.78h10.08a3.56,3.56,0,0,1,3.56,3.56v1.07a0,0,0,0,1,0,0H222.54a0,0,0,0,1,0,0v-1.07A3.56,3.56,0,0,1,226.1,112.78Z" transform="translate(-7.59 16.7) rotate(-4.07)"/><path class="cls-6" d="M227.83,113s-.08-10.5,4.78-14.49c0,0-.94,14.21,1.51,14Z"/><circle class="cls-10" cx="232.8" cy="94.03" r="6.3"/><circle class="cls-11" cx="232.8" cy="94.03" r="4.46"/><circle class="cls-12" cx="217.64" cy="165.44" r="8.31"/><circle class="cls-12" cx="257.11" cy="162.63" r="8.31"/><circle class="cls-4" cx="216.21" cy="168.89" r="17.02"/><circle class="cls-4" cx="255.68" cy="166.08" r="17.02"/><line class="cls-4" x1="233.19" y1="167.68" x2="238.7" y2="167.29"/><line class="cls-4" x1="199.23" y1="170.1" x2="192.85" y2="162.86"/><line class="cls-4" x1="272.67" y1="164.87" x2="277.75" y2="156.81"/><path class="cls-6" d="M238.17,184.92a12.61,12.61,0,0,1,2.39-.71,4.15,4.15,0,0,1,2.44.3,1.17,1.17,0,0,1,.74.93c0,.45-.41.78-.8,1a22.33,22.33,0,0,1-2.63,1.15,5.64,5.64,0,0,1,3.43.91,1.78,1.78,0,0,1,.9,1.2,1.69,1.69,0,0,1-.8,1.39c-1.47,1.08-3,.65-4.7.47"/></svg>