<svg id="Layer_1" data-name="Layer 1" xmlns="http://www.w3.org/2000/svg" viewBox="0 0 351.16 293.04"><defs><style>.cls-1,.cls-2,.cls-6{fill:#c4cbe0;}.cls-1{opacity:0.25;}.cls-3,.cls-8{fill:#fff;}.cls-4{fill:none;}.cls-12,.cls-4,.cls-5,.cls-6,.cls-7,.cls-8,.cls-9{stroke:#3e6be0;stroke-linecap:round;stroke-linejoin:round;}.cls-5,.cls-7{fill:#3e6be0;}.cls-5{opacity:0.3;}.cls-9{fill:#cad1e6;}.cls-10{fill:#ffc4c4;}.cls-11{fill:#ff6766;}.cls-12{fill:#3e6be6;}</style></defs><path class="cls-1" d="M350.16,258.31a175.11,175.11,0,0,1-2.45,29.25H317.65A145,145,0,1,0,30.56,258.31a146,146,0,0,0,2.95,29.25H3.45a174.59,174.59,0,1,1,346.71-29.25Z"/><path class="cls-2" d="M320.6,257.31a146,146,0,0,1-3,29.25H33.51A145,145,0,1,1,320.6,257.31Z"/><path class="cls-3" d="M263.15,281.91a15.08,15.08,0,0,1-1.06,5.6H146.31a18.46,18.46,0,0,1-1.78-8,18.73,18.73,0,0,1,18.73-18.73,17,17,0,0,1,1.75.09,25.2,25.2,0,0,1,50-6.23,16.34,16.34,0,0,1,26.7,12.63c0,.18,0,.37,0,.55a15,15,0,0,1,6.11-1.28A15.33,15.33,0,0,1,263.15,281.91Z"/><path class="cls-3" d="M137.2,220.93c0,5.83-12.38,3.41-16.48,3.41H66.07A11.18,11.18,0,0,1,65,219.5a11.4,11.4,0,0,1,11.4-11.41,9.28,9.28,0,0,1,1.06.06,17,17,0,0,1-.1-1.76,15.34,15.34,0,0,1,30.55-2A9.95,9.95,0,0,1,124.16,212c0,.11,0,.23,0,.34a9.08,9.08,0,0,1,3.72-.78A9.33,9.33,0,0,1,137.2,220.93Z"/><circle class="cls-4" cx="132.27" cy="265.84" r="3.09"/><circle class="cls-4" cx="281.54" cy="264.29" r="3.53"/><line class="cls-4" x1="96.2" y1="247.84" x2="103.44" y2="247.84"/><line class="cls-4" x1="99.82" y1="244.22" x2="99.82" y2="251.46"/><line class="cls-4" x1="25.39" y1="173.41" x2="32.63" y2="173.41"/><line class="cls-4" x1="29.01" y1="169.79" x2="29.01" y2="177.03"/><line class="cls-4" x1="247.9" y1="135.24" x2="255.14" y2="135.24"/><line class="cls-4" x1="251.52" y1="131.62" x2="251.52" y2="138.86"/><line class="cls-4" x1="33.7" y1="288.34" x2="73.45" y2="288.34"/><line class="cls-4" x1="88.68" y1="288.37" x2="205.85" y2="288.37"/><line class="cls-4" x1="221.92" y1="288.49" x2="245.18" y2="288.49"/><line class="cls-4" x1="260.79" y1="288.22" x2="280.24" y2="288.22"/><line class="cls-4" x1="296.22" y1="288.52" x2="315.67" y2="288.52"/><path class="cls-5" d="M261.31,206c5.29-12.46,13.19-24.74,22.94-34.14a50.78,50.78,0,0,1,10.83-8.1c1.8-1,10.23-5.57,12.11-4a1.25,1.25,0,0,1,.31.55,27.58,27.58,0,0,1,1.27,10.83c-.28,4.4-1,10.6-3.36,14.41,0,0,4.62-7.32,7.51-3.66s4.62,29.85-37.94,39.28C275,221.25,253.61,226.07,261.31,206Z"/><path class="cls-6" d="M221.52,245.79l1.33,22.94s-4.46,1.31-2.3,5.86c1,2.11,4.25,2.55,6.28,2.76a29.58,29.58,0,0,0,10.09-.83c2.47-.63,5.06-1.54,6.81-3.49s1.81-5,1.35-7.56c-.42-2.31-1.08-4.58-1.52-6.89s-.51-4.57-.78-6.88-.87-4.78-3.22-5.62c-2-.7-7.88.44-9.86-.26C229.07,245.59,221.55,246.33,221.52,245.79Z"/><path class="cls-6" d="M225.23,255l1.33,22.94s-4.46,1.3-2.3,5.85c1,2.12,4.25,2.56,6.29,2.76a29.52,29.52,0,0,0,10.08-.82c2.47-.63,5.06-1.55,6.81-3.49s1.82-5.05,1.36-7.56c-.43-2.32-1.09-4.58-1.52-6.89s-.52-4.57-.78-6.88-.88-4.78-3.22-5.62c-2-.71-7.89.44-9.87-.27C232.78,254.78,225.26,255.52,225.23,255Z"/><path class="cls-6" d="M222.27,195.51a4.59,4.59,0,0,1-.2.75c-.9,2.43-4,4.06-5.82,5.74a76.75,76.75,0,0,1-9.07,7.41c-6.59,4.5-15.21,8.23-23.39,7.28A9.34,9.34,0,0,1,177,213a8.12,8.12,0,0,1-.84-6.67c1-3.32,3.05-5.86,6.71-5.67,5.61.31,9.24-.14,14.53-2.59a67.72,67.72,0,0,0,11-6,24.22,24.22,0,0,1,5.47-3.3,6.51,6.51,0,0,1,4.85-.05A7,7,0,0,1,222.27,195.51Z"/><path class="cls-7" d="M208.42,194.65l55.86-.13a37.9,37.9,0,0,0-10.73-11.35l-34.45.08A38.19,38.19,0,0,0,208.42,194.65Z"/><path class="cls-8" d="M218.66,184.86,253,181.61a29.76,29.76,0,0,0-34.29,3.25Z"/><path class="cls-7" d="M201.22,214.45a249.84,249.84,0,0,0,33.87,2.76,250,250,0,0,0,35.58-2.06,51.4,51.4,0,0,0-.91-5.87,45.75,45.75,0,0,0-1.56-5.54,281.24,281.24,0,0,0-33.3-2.17,284.45,284.45,0,0,0-31,1.52C203.32,204.71,202.74,206.55,201.22,214.45Z"/><path class="cls-8" d="M203.92,203.09l64.28.65a44.42,44.42,0,0,0-4.12-8.81l-55.86-.56A44.21,44.21,0,0,0,203.92,203.09Z"/><path class="cls-7" d="M201,223.83a49.66,49.66,0,0,0,2.09,11.4l65.27.65a49.59,49.59,0,0,0,2.33-11.35Z"/><path class="cls-8" d="M256,254.86l-40.84-.41a30.19,30.19,0,0,0,40.84.41Z"/><path class="cls-8" d="M203.1,235.23a46.92,46.92,0,0,0,3.19,7.74l58.74.59a46,46,0,0,0,3.34-7.68Z"/><path class="cls-8" d="M200.89,219.85c0,1.34,0,2.67.12,4q16.38-.33,33.63-.19,18.53.17,36.06.89c.05-.6.1-1.26.13-2s.05-1.33.06-2a50.67,50.67,0,0,0-.22-5.4l-69.45-.7A53.25,53.25,0,0,0,200.89,219.85Z"/><path class="cls-7" d="M206.29,243a40.25,40.25,0,0,0,8.84,11.48l40.84.41a40.5,40.5,0,0,0,9.06-11.3Z"/><path class="cls-6" d="M237.76,200.48a4,4,0,0,1,.58.5c1.78,1.89,1.86,5.4,2.56,7.77a77.33,77.33,0,0,1,2.6,11.42c1.1,7.91.6,17.29-3.89,24.19a9.29,9.29,0,0,1-6.38,4.43,8.1,8.1,0,0,1-6.34-2.21c-2.55-2.35-3.9-5.35-2.09-8.53,2.76-4.89,4-8.35,4.13-14.17a66.33,66.33,0,0,0-.45-12.45,24,24,0,0,1-.52-6.37,6.48,6.48,0,0,1,2.11-4.36A7,7,0,0,1,237.76,200.48Z"/><path class="cls-5" d="M262.59,216.05c5.29-12.47,13.19-24.75,22.94-34.14a50.12,50.12,0,0,1,10.83-8.1c1.8-1,10.23-5.58,12.11-4a1.15,1.15,0,0,1,.3.54,27.43,27.43,0,0,1,1.28,10.83c-.28,4.41-1,10.6-3.36,14.41,0,0,4.62-7.31,7.51-3.66s4.62,29.85-37.94,39.29C276.26,231.26,254.89,236.07,262.59,216.05Z"/><path class="cls-5" d="M99.27,207.69c-5.29-12.46-13.2-24.74-23-34.14a51,51,0,0,0-10.82-8.1c-1.8-1-10.23-5.57-12.11-4a1.25,1.25,0,0,0-.31.55,27.78,27.78,0,0,0-1.28,10.83c.29,4.4,1,10.6,3.37,14.41,0,0-4.62-7.32-7.51-3.66S43,213.47,85.59,222.91C85.59,222.91,107,227.72,99.27,207.69Z"/><path class="cls-6" d="M139.06,247.45l-1.33,22.94s4.46,1.3,2.3,5.85c-1,2.11-4.25,2.56-6.29,2.76a29.53,29.53,0,0,1-10.08-.83c-2.47-.63-5.06-1.54-6.81-3.49s-1.82-5-1.36-7.56c.43-2.31,1.09-4.58,1.52-6.89s.52-4.57.78-6.88.88-4.78,3.22-5.62c2-.7,7.89.44,9.87-.26C131.51,247.24,139,248,139.06,247.45Z"/><path class="cls-6" d="M135.34,254.63,134,277.57s4.47,1.31,2.31,5.85c-1,2.12-4.26,2.56-6.29,2.76a29.52,29.52,0,0,1-10.08-.82c-2.47-.63-5.07-1.55-6.82-3.49s-1.81-5.05-1.35-7.56c.42-2.32,1.08-4.58,1.52-6.89s.51-4.57.78-6.88.88-4.78,3.22-5.62c2-.7,7.88.44,9.86-.26C127.8,254.43,135.31,255.17,135.34,254.63Z"/><path class="cls-6" d="M137.05,189.09a3.64,3.64,0,0,0-.31.7c-.81,2.46.61,5.68,1,8.12a78.43,78.43,0,0,0,2.5,11.45c2.36,7.62,6.79,15.9,13.78,20.25a9.31,9.31,0,0,0,7.66,1.3,8.13,8.13,0,0,0,4.81-4.69c1.31-3.21,1.26-6.49-1.73-8.61-4.58-3.26-7.15-5.87-9.76-11.08a67.18,67.18,0,0,1-4.87-11.47,24.33,24.33,0,0,0-2.23-6A6.49,6.49,0,0,0,144.1,186,7,7,0,0,0,137.05,189.09Z"/><path class="cls-7" d="M152.15,196.3l-55.86-.13A38.06,38.06,0,0,1,107,184.82l34.44.08A37.94,37.94,0,0,1,152.15,196.3Z"/><path class="cls-8" d="M141.92,186.51l-34.29-3.25a29.76,29.76,0,0,1,34.29,3.25Z"/><path class="cls-7" d="M159.35,216.1a248,248,0,0,1-33.87,2.76,249.91,249.91,0,0,1-35.57-2.06,49.16,49.16,0,0,1,2.46-11.41,281.56,281.56,0,0,1,33.31-2.17,284.45,284.45,0,0,1,31,1.52C157.26,206.36,157.84,208.2,159.35,216.1Z"/><path class="cls-8" d="M156.66,204.74l-64.29.65a44.45,44.45,0,0,1,4.13-8.81l55.86-.56A44.77,44.77,0,0,1,156.66,204.74Z"/><path class="cls-7" d="M159.57,225.49a49.48,49.48,0,0,1-2.1,11.39l-65.27.66a49.78,49.78,0,0,1-2.32-11.36Z"/><path class="cls-8" d="M104.61,256.51l40.84-.41a30.16,30.16,0,0,1-40.84.41Z"/><path class="cls-8" d="M157.47,236.88a46.07,46.07,0,0,1-3.19,7.74l-58.73.59a46.33,46.33,0,0,1-3.35-7.67Z"/><path class="cls-8" d="M159.68,221.5c0,1.34,0,2.67-.11,4l-33.41.33-36.28.36c0-.6-.1-1.26-.14-2s0-1.33-.06-2a53.42,53.42,0,0,1,.23-5.4l69.44-.7A48,48,0,0,1,159.68,221.5Z"/><path class="cls-7" d="M154.28,244.62a40.26,40.26,0,0,1-8.83,11.48l-40.84.41a40,40,0,0,1-9.06-11.3Z"/><path class="cls-6" d="M139.12,211.83a3.14,3.14,0,0,0,.49.6c1.83,1.83,5.34,2,7.68,2.78a76.57,76.57,0,0,0,11.35,2.93c7.87,1.33,17.25,1.11,24.28-3.17a9.32,9.32,0,0,0,4.62-6.25,8.15,8.15,0,0,0-2-6.41c-2.28-2.61-5.23-4.05-8.47-2.34-5,2.62-8.46,3.74-14.28,3.72a66.32,66.32,0,0,1-12.44-.82,23.81,23.81,0,0,0-6.34-.7,6.44,6.44,0,0,0-4.43,2A7,7,0,0,0,139.12,211.83Z"/><path class="cls-5" d="M98,217.7C92.7,205.23,84.79,193,75.05,183.56a50.61,50.61,0,0,0-10.83-8.1c-1.8-1-10.23-5.58-12.11-4a1.17,1.17,0,0,0-.31.54,27.61,27.61,0,0,0-1.27,10.83c.28,4.41,1,10.6,3.36,14.41,0,0-4.62-7.31-7.51-3.65s-4.62,29.84,37.93,39.28C84.31,232.91,105.69,237.72,98,217.7Z"/><path class="cls-8" d="M122.72,191.24l5.16-.1a35.15,35.15,0,0,0,34.46-35.83l-.23-11.86A37.93,37.93,0,0,0,122,106.32h0A40,40,0,0,0,84.33,147l.15,7.45A37.52,37.52,0,0,0,122.72,191.24Z"/><path class="cls-9" d="M119.37,106.56c2,1.16,4.06,2.09,6.11,3.1.58.27,1.16.56,1.71.86l.69.37c.49.27,1,.54,1.43.84l.61.4c.23.14.44.29.66.45a21.16,21.16,0,0,1,2.15,1.83,28.56,28.56,0,0,1,6.34,9.82c2,4.89,7.8,7.53,12.91,7.4a29,29,0,0,0,7.42-1.56A37.92,37.92,0,0,0,122,106.32Q120.66,106.4,119.37,106.56Z"/><path class="cls-8" d="M132.73,114.41a21.16,21.16,0,0,0-2.15-1.83c-.22-.16-.43-.31-.66-.45l-.61-.4c-.47-.3-.94-.57-1.43-.84l-.69-.37c-.55-.3-1.13-.59-1.71-.86"/><path class="cls-8" d="M115.59,102.91h15.65a0,0,0,0,1,0,0v.66a3.56,3.56,0,0,1-3.56,3.56h-8.53a3.56,3.56,0,0,1-3.56-3.56v-.66A0,0,0,0,1,115.59,102.91Z" transform="translate(248.86 207.62) rotate(178.89)"/><path class="cls-8" d="M126.24,102.85s-.78-9.51-5.51-12.73c0,0,2,12.8-.22,12.84Z"/><circle class="cls-10" cx="120.19" cy="86.06" r="5.73"/><circle class="cls-11" cx="120.19" cy="86.06" r="4.06"/><circle class="cls-12" cx="148.72" cy="154.96" r="7.56"/><circle class="cls-4" cx="142.05" cy="151.65" r="15.49"/><line class="cls-4" x1="162.22" y1="149.69" x2="157.53" y2="151.35"/><path class="cls-8" d="M237.32,191.24l-5.17-.1a35.15,35.15,0,0,1-34.46-35.83l.23-11.86a37.93,37.93,0,0,1,40.13-37.13h0A40,40,0,0,1,275.7,147l-.15,7.45A37.52,37.52,0,0,1,237.32,191.24Z"/><path class="cls-9" d="M240.66,106.56c-2,1.16-4.06,2.09-6.11,3.1-.58.27-1.16.56-1.71.86l-.69.37c-.49.27-1,.54-1.43.84l-.61.4c-.23.14-.44.29-.66.45a21.16,21.16,0,0,0-2.15,1.83,28.56,28.56,0,0,0-6.34,9.82c-2,4.89-7.8,7.53-12.91,7.4a29,29,0,0,1-7.42-1.56,37.92,37.92,0,0,1,37.42-23.75Q239.37,106.4,240.66,106.56Z"/><path class="cls-8" d="M227.3,114.41a21.16,21.16,0,0,1,2.15-1.83c.22-.16.43-.31.66-.45l.61-.4c.47-.3.94-.57,1.43-.84l.69-.37c.55-.3,1.13-.59,1.71-.86"/><path class="cls-8" d="M232.35,102.91h8.53a3.56,3.56,0,0,1,3.56,3.56v.66a0,0,0,0,1,0,0H228.78a0,0,0,0,1,0,0v-.66A3.56,3.56,0,0,1,232.35,102.91Z" transform="translate(2.09 -4.58) rotate(1.11)"/><path class="cls-8" d="M233.79,102.85s.78-9.51,5.51-12.73c0,0-2,12.8.22,12.84Z"/><circle class="cls-10" cx="239.85" cy="86.06" r="5.73"/><circle class="cls-11" cx="239.85" cy="86.06" r="4.06"/><circle class="cls-12" cx="211.31" cy="154.96" r="7.56"/><circle class="cls-4" cx="217.98" cy="151.65" r="15.49"/><line class="cls-4" x1="197.81" y1="149.69" x2="202.5" y2="151.35"/></svg>